<svg width="240" height="240" viewBox="0 0 240 240" fill="none" xmlns="http://www.w3.org/2000/svg">
<g clip-path="url(#clip0_4072_3373)">
<path d="M33.9795 111.743C34.5619 111.882 35.1311 112.081 35.6805 112.325C35.1907 110.922 35.932 109.393 37.3285 108.904C38.7316 108.414 40.2605 109.155 40.7502 110.552C40.8429 110.823 40.8959 111.114 40.9025 111.406C40.9157 112.656 40.0553 113.748 38.8441 114.033C39.367 114.291 39.9362 114.437 40.5252 114.463C40.6907 114.483 40.8628 114.496 41.0282 114.49C42.0739 114.523 43.08 114.066 43.7484 113.252C43.8742 113.073 43.9801 112.888 44.0727 112.696C44.5757 111.591 45.4692 108.46 45.4692 108.46C45.4692 108.46 38.9235 104.231 32.9735 104.946C29.876 105.316 28.5788 105.211 26.7521 104.496L22.9464 103L22.4501 104.258L22 105.389L25.8056 106.878C27.6257 107.6 28.6582 108.414 30.6636 110.79C30.9019 111.081 31.1534 111.359 31.4314 111.617C31.7491 111.564 32.0668 111.538 32.3911 111.538C32.9272 111.538 33.4566 111.604 33.9729 111.736L33.9795 111.743Z" fill="#D9D9D9"/>
<path d="M38.2005 109.57C37.1879 109.57 36.3672 110.391 36.3672 111.404C36.3672 112.416 37.1879 113.237 38.2005 113.237C39.2131 113.237 40.0338 112.416 40.0338 111.404C40.0338 110.391 39.2131 109.577 38.2005 109.577V109.57Z" fill="#D9D9D9"/>
<path d="M38.2005 113.233C37.1879 113.233 36.3672 112.412 36.3672 111.4C36.3672 110.387 37.1879 109.566 38.2005 109.566C39.2131 109.566 40.0338 110.387 40.0338 111.4C40.0338 112.412 39.2131 113.233 38.2005 113.233Z" fill="#D9D9D9"/>
<path d="M45.0958 112.515C44.9369 112.906 44.745 113.277 44.5133 113.627C44.2287 114.011 43.8846 114.342 43.4875 114.607C42.4616 115.242 41.2372 115.474 40.0525 115.256C39.1126 115.083 38.2059 114.739 37.3852 114.236C36.1078 113.561 34.8569 112.787 33.4207 112.496C32.097 112.224 30.7204 112.482 29.5886 113.23C28.3112 114.091 27.4243 115.666 27.8479 117.221L29.0062 117.129C29.0062 116.083 30.032 115.295 31.005 115.176C32.0507 115.103 33.0302 115.692 33.4538 116.659C33.9965 117.817 33.5597 119.174 32.9111 120.213C31.4285 122.595 28.2252 123.396 25.6704 122.443C25.5976 122.417 24.7968 122.059 24.81 122.04L23.3672 124.416C25.3991 125.527 27.6758 126.13 29.9923 126.156C32.375 126.176 34.6915 125.402 36.5844 123.959C35.9093 123.284 35.168 122.681 34.3738 122.159C38.2522 123.469 41.2703 126.553 42.5013 130.458H45.2215C45.4465 129.029 45.1619 122.43 38.6427 118.578C39.0795 118.657 39.5164 118.691 39.9598 118.677C43.3683 118.644 46.2275 116.089 46.6445 112.707L45.0891 112.509L45.0958 112.515Z" fill="#D9D9D9"/>
<path d="M174.783 109.34C176.476 109.34 177.847 107.968 177.847 106.275C177.847 104.583 176.476 103.211 174.783 103.211C173.091 103.211 171.719 104.583 171.719 106.275C171.719 107.968 173.091 109.34 174.783 109.34Z" fill="#D9D9D9"/>
<path d="M71.5699 112.868C70.1867 111.518 68.3864 110.902 65.9177 110.902C60.3847 110.876 56.8438 114.675 56.8438 120.566C56.8438 126.456 60.3251 130.09 65.7523 130.09C68.1879 130.09 70.0278 129.421 71.5567 127.945C71.5368 128.918 71.292 129.878 70.8485 130.751C70.0278 132.148 68.2408 132.949 65.9376 132.949C63.78 132.949 62.4562 132.313 61.2914 130.685L61.0068 130.288L56.943 133.081L57.2872 133.472C59.5573 136.04 61.854 136.993 65.7655 136.993C69.1674 136.993 71.9803 136.218 73.7011 134.809C75.6999 133.127 76.6066 130.559 76.6066 126.489V115.674C76.5934 114.351 76.6728 113.027 76.8317 111.71L76.8978 111.194H71.5766V112.875L71.5699 112.868ZM66.434 126.118C65.2757 126.092 64.1704 125.629 63.3431 124.815C62.4695 123.941 61.993 122.491 61.993 120.678C61.993 117.091 63.8197 114.874 66.7715 114.874C67.8106 114.874 68.8166 115.231 69.6175 115.899C70.7757 116.905 71.3979 118.395 71.3979 120.34C71.4442 121.545 71.153 122.743 70.5573 123.789C69.6704 125.218 68.1151 126.099 66.434 126.125V126.118Z" fill="#D9D9D9"/>
<path d="M88.4334 110.612C82.2914 110.612 78.3203 114.676 78.3203 120.944C78.3203 127.211 82.3047 131.282 88.4599 131.282C94.6151 131.282 98.4737 127.099 98.4737 120.877C98.4737 114.656 94.529 110.605 88.4268 110.605L88.4334 110.612ZM88.4334 114.908C91.6235 114.908 93.3708 117.072 93.3708 121.016C93.3708 124.723 91.511 126.927 88.3937 126.927C85.2764 126.927 83.4166 124.69 83.4166 120.95C83.4166 117.211 85.283 114.914 88.4268 114.914L88.4334 114.908Z" fill="#D9D9D9"/>
<path d="M109.88 110.612C103.738 110.612 99.7734 114.676 99.7734 120.944C99.7734 127.211 103.751 131.282 109.913 131.282C116.075 131.282 119.92 127.099 119.92 120.877C119.92 114.656 115.976 110.605 109.873 110.605L109.88 110.612ZM109.88 114.908C113.07 114.908 114.817 117.072 114.817 121.016C114.817 124.723 112.958 126.927 109.84 126.927C106.723 126.927 104.863 124.69 104.863 120.95C104.863 117.211 106.763 114.914 109.873 114.914L109.88 114.908Z" fill="#D9D9D9"/>
<path d="M141.526 125.832V108.802C141.519 107.366 141.592 105.937 141.751 104.514L141.804 104.004H136.204L136.27 104.52C136.443 105.956 136.515 107.399 136.495 108.842V113.131C136.237 112.853 135.953 112.595 135.655 112.356C134.146 111.245 132.299 110.689 130.433 110.775C124.84 110.775 121.227 114.752 121.227 120.914C121.227 124.568 122.524 127.658 124.767 129.399C126.27 130.597 128.083 131.14 130.466 131.14C133.213 131.14 134.973 130.498 136.509 128.817V130.683H141.797L141.737 130.167C141.572 128.731 141.506 127.281 141.532 125.838L141.526 125.832ZM131.221 126.732C128.236 126.732 126.376 124.501 126.376 120.927C126.376 117.353 128.169 115.077 131.055 115.077C132.511 115.09 133.908 115.692 134.92 116.738C135.853 117.856 136.37 119.266 136.376 120.722C136.429 122.165 136.019 123.588 135.218 124.786C134.265 126.03 132.782 126.752 131.221 126.738V126.732Z" fill="#D9D9D9"/>
<path d="M165.006 111.598C164.893 112.869 164.662 114.126 164.311 115.357L162.497 121.824C162.471 121.936 162.411 122.181 162.345 122.459C162.279 122.228 162.226 122.036 162.18 121.91L159.79 114.57C159.479 113.557 159.082 112.108 158.996 111.558L158.93 111.168H154.674L154.615 111.565C154.416 112.578 154.151 113.584 153.827 114.563L151.504 121.625C151.458 121.764 151.365 122.075 151.259 122.439C151.18 122.108 151.114 121.857 151.061 121.678L149.28 115.371C148.936 114.14 148.691 112.882 148.559 111.611L148.532 111.181H142.648L142.887 111.81C143.35 113.034 143.807 114.378 144.237 115.801L147.798 127.291C148.135 128.277 148.413 129.289 148.625 130.309L148.698 130.679H153.198L153.271 130.302C153.397 129.653 153.748 128.383 154.098 127.284L156.594 119.699L156.786 119.051C156.839 119.262 156.905 119.468 156.978 119.673L159.459 127.277C159.79 128.27 160.062 129.283 160.274 130.309L160.34 130.699H164.873L164.946 130.315C165.138 129.289 165.403 128.283 165.74 127.297L169.672 114.722C170.208 113.021 170.301 112.71 170.645 111.817L170.896 111.181H165.019L164.993 111.618L165.006 111.598Z" fill="#D9D9D9"/>
<path d="M177.591 111.71L177.664 111.188H171.859L171.932 111.717C172.131 113.087 172.217 114.477 172.19 115.86V126.02C172.204 127.409 172.117 128.793 171.932 130.169L171.859 130.692H177.637L177.571 130.176C177.406 128.786 177.333 127.39 177.353 125.993V115.867C177.333 114.477 177.412 113.087 177.584 111.71H177.591Z" fill="#D9D9D9"/>
<path d="M198.287 126V118.23C198.287 115.98 197.943 114.59 197.096 113.425C195.838 111.711 193.859 110.844 191.219 110.844C188.578 110.844 186.89 111.532 185.143 113.405V111.168H179.742L179.815 111.698C180.014 113.068 180.1 114.457 180.073 115.841V126C180.093 127.383 180.007 128.773 179.815 130.143L179.742 130.673H185.467L185.394 130.143C185.209 128.767 185.123 127.383 185.136 126V119.56C186.473 116.602 188.227 115.099 190.358 115.099C191.272 115.033 192.159 115.45 192.681 116.211C193.072 117.019 193.244 117.919 193.165 118.819V126C193.178 127.39 193.098 128.78 192.94 130.157L192.88 130.673H198.638L198.552 130.13C198.34 128.76 198.248 127.377 198.274 125.994L198.287 126Z" fill="#D9D9D9"/>
<path d="M213.851 124.485C213.699 124.856 213.48 125.2 213.216 125.504C212.296 126.477 211.012 127.013 209.675 126.974C208.258 127.027 206.901 126.418 205.988 125.339C205.346 124.505 204.982 123.486 204.942 122.433H219.013L218.967 121.93C218.907 121.202 218.907 121.11 218.907 121.044C218.907 119.309 218.577 117.589 217.935 115.974C216.584 112.592 213.407 110.566 209.45 110.566C203.645 110.566 199.859 114.63 199.859 120.931C199.859 127.232 203.731 131.296 209.668 131.296C212.249 131.395 214.758 130.442 216.637 128.668C217.233 128.086 217.736 127.417 218.126 126.682L213.858 124.492L213.851 124.485ZM209.364 114.829C210.535 114.749 211.687 115.173 212.527 115.987C213.163 116.616 213.58 117.43 213.725 118.31H205.081C205.664 116.126 207.206 114.835 209.364 114.835V114.822V114.829Z" fill="#D9D9D9"/>
</g>
<defs>
<clipPath id="clip0_4072_3373">
<rect width="197" height="33.9927" fill="white" transform="translate(22 103)"/>
</clipPath>
</defs>
</svg>
