<svg width="240" height="240" viewBox="0 0 240 240" fill="none" xmlns="http://www.w3.org/2000/svg">
<g clip-path="url(#clip0_4072_3390)">
<path d="M174.337 135.987V107.318H182.546L182.872 114.334L180.711 114.93C181.181 113.493 181.986 112.155 183.143 110.934C184.327 109.678 185.774 108.665 187.464 107.915C189.191 107.119 191.081 106.73 193.133 106.73C195.728 106.73 197.888 107.237 199.615 108.24C201.378 109.244 202.707 110.672 203.611 112.508C204.552 114.307 205.013 116.395 205.013 118.773V135.996H196.37V120.174C196.37 118.917 196.098 117.815 195.556 116.883C195.05 115.943 194.317 115.229 193.341 114.723C192.401 114.216 191.307 113.981 190.05 114.017C188.974 114.017 187.998 114.216 187.13 114.614C186.262 114.976 185.512 115.464 184.861 116.07C184.246 116.684 183.785 117.344 183.459 118.068C183.17 118.791 183.025 119.505 183.025 120.228V135.996H174.328L174.337 135.987Z" fill="#D9D9D9"/>
<path d="M160.095 135.983V107.314H168.792V135.992H160.095V135.983ZM164.407 103.201C162.789 103.201 161.523 102.821 160.628 102.071C159.724 101.275 159.281 100.163 159.281 98.7256C159.281 97.4328 159.733 96.366 160.628 95.5433C161.532 94.7115 162.789 94.3047 164.407 94.3047C166.026 94.3047 167.291 94.7025 168.186 95.489C169.127 96.2485 169.588 97.3243 169.588 98.7256C169.588 100.127 169.118 101.14 168.186 101.962C167.255 102.794 165.99 103.201 164.407 103.201Z" fill="#D9D9D9"/>
<path d="M135.391 136.475C132.435 136.475 129.849 135.842 127.616 134.585C125.383 133.292 123.638 131.529 122.382 129.296C121.125 127.063 120.492 124.523 120.492 121.684C120.492 118.845 121.125 116.196 122.382 113.963C123.675 111.694 125.438 109.931 127.671 108.674C129.94 107.381 132.589 106.73 135.608 106.73C137.299 106.73 138.863 106.947 140.31 107.381C141.747 107.815 143.031 108.385 144.143 109.108C145.255 109.795 146.159 110.564 146.846 111.432C147.569 112.3 148.012 113.158 148.193 114.026L146.195 114.135V107.327H154.784V136.005H146.032V128.501L147.868 128.88C147.723 129.821 147.289 130.734 146.575 131.638C145.852 132.542 144.939 133.365 143.817 134.124C142.705 134.847 141.422 135.417 139.984 135.851C138.547 136.285 137.01 136.502 135.391 136.502V136.475ZM137.661 129.188C139.46 129.188 140.988 128.88 142.253 128.266C143.546 127.615 144.541 126.738 145.228 125.617C145.951 124.469 146.304 123.149 146.304 121.675C146.304 120.201 145.942 118.791 145.228 117.679C144.541 116.567 143.555 115.681 142.253 115.03C140.997 114.379 139.46 114.054 137.661 114.054C135.862 114.054 134.424 114.379 133.122 115.03C131.866 115.681 130.871 116.558 130.148 117.679C129.425 118.791 129.072 120.129 129.072 121.675C129.072 123.221 129.434 124.469 130.148 125.617C130.871 126.729 131.856 127.615 133.122 128.266C134.415 128.88 135.934 129.188 137.661 129.188Z" fill="#D9D9D9"/>
<path d="M36 121.685C36 119.28 36 118.078 36.1175 117.065C37.0668 108.576 43.8203 101.886 52.3639 100.937C53.3855 100.828 54.597 100.828 57.0199 100.828H68.2215V142.552H57.0199C54.597 142.552 53.3855 142.551 52.3639 142.434C43.8203 141.485 37.0668 134.785 36.1175 126.296C36 125.284 36 124.081 36 121.676V121.685Z" fill="#D9D9D9"/>
<path d="M70.9766 100.824H72.2061C82.5126 100.824 87.6659 100.824 91.6077 102.813C95.0703 104.567 97.8911 107.361 99.654 110.796C101.661 114.702 101.661 119.819 101.661 130.053V142.539H70.9856V100.824H70.9766Z" fill="#D9D9D9"/>
</g>
<defs>
<clipPath id="clip0_4072_3390">
<rect width="169" height="48.2599" fill="white" transform="translate(36 94.2891)"/>
</clipPath>
</defs>
</svg>
