<?xml version="1.0" encoding="UTF-8"?>
<svg id="Layer_1" xmlns="http://www.w3.org/2000/svg" viewBox="0 0 250.09 60.94">
  <defs>
    <style>
      .cls-1 {
        fill: #fff;
        fill-rule: evenodd;
      }
    </style>
  </defs>
  <path class="cls-1" d="M44.83,56.88c-.48,1.91-.54,2.1-1.03,2.1h-5.44v.37h12.32v-.37h-5.64c-.36,0-.3-.26.14-2.01l3.79-14.72h15.01l4.58,16.72h-6.1v.37h20.51v-.37h-6.38L59.6,0h-.1l-14.66,56.88ZM56.23,14.06l7.63,27.82h-14.78l7.15-27.82ZM221.46,29.93h4.69c4.16,0,10.29,1.79,10.29,9.06v13.17c0,5.39,2.97,8.78,8.22,8.78,5.51,0,5.43-5.57,5.43-9.58v-4.23h-.37v4.23c0,4.57-.54,8.54-3.23,8.54-2.38,0-2.9-1.48-2.9-7.68v-13.23c0-6.12-4.96-8.36-12.62-9.25,9.54-1.13,13.13-7.23,13.13-13.97,0-9.97-4.6-14.16-16.45-14.16h-18.79s0,.37,0,.37h4.93c.36,0,.52.1.52.3v56.39c0,.2-.17.3-.52.3h-4.93v.37h17.28v-.37h-4.15c-.36,0-.52-.1-.52-.3v-28.75ZM221.46,1.99h5.06c7.8,0,10.01,5.93,10.01,13.78,0,7.35-2.21,13.78-10.01,13.78h-5.06V1.99ZM95.73,58.68c-.06.13,0,.29.3.29h13.46c4.14,0,9.49-6.13,9.49-25.88v-2.06h.37v28.31h-32.14L111.56,2.28c.06-.13-.01-.29-.3-.29h-14.29c-3.75,0-9.2,6.85-9.2,25.88v2.06h-.37V1.62h32.7l-24.37,57.07M16.15,1.99c7.8,0,10.98,5.93,10.98,13.78,0,7.35-3.18,13.22-10.98,13.22h-3.55V1.99s3.55,0,3.55,0ZM0,1.61v.37h4.93c.36,0,.52.1.52.3v56.39c0,.2-.17.3-.52.3H0v.37h18.4c11.85,0,18.17-4.93,18.17-14.9,0-6.9-3.74-13.92-15.53-15.32,10.02-.94,13.48-7.23,13.48-13.36,0-8.97-5.39-14.16-17.24-14.16H0ZM16.15,29.37c8.8,0,12.29,6,12.29,15.09,0,7.85-3.11,14.53-10.42,14.53h-4.89c-.36,0-.52-.1-.52-.31v-29.31h3.55ZM129.67,56.88c-.48,1.91-.55,2.1-1.03,2.1h-5.44v.37h12.33v-.37h-5.64c-.36,0-.3-.26.14-2.01l3.79-14.72h15.01l4.58,16.72h-6.1v.37h20.51v-.37h-6.38L144.43,0h-.1l-14.66,56.88ZM141.07,14.06l7.63,27.82h-14.78s7.15-27.82,7.15-27.82Z"/>
  <path class="cls-1" d="M170.6,56.88c-.48,1.91-.54,2.1-1.03,2.1h-5.44v.37h12.32v-.37h-5.64c-.36,0-.3-.26.14-2.01l3.79-14.72h15.01l4.58,16.72h-6.1v.37h20.51v-.37h-6.38L185.37,0h-.1l-14.66,56.88h0ZM182.01,14.06l7.63,27.82h-14.78s7.15-27.82,7.15-27.82ZM157.42,7.59s.02.03.06.03h.83v.13h-2.84v-.13h.74s.06,0,.06-.03v-2.88h-2.72v2.88s.02.03.06.03h.74v.13h-2.84v-.13h.83s.06,0,.06-.03V1.94s-.02-.03-.06-.03h-.83v-.13h2.84v.13h-.74s-.06,0-.06.03v2.64h2.72V1.94s-.02-.03-.06-.03h-.74v-.13h2.84v.13h-.83s-.06,0-.06.03v5.65M165.31,5.13c-.26,0-.44-.12-.44-.32,0-.18.11-.18.11-.31s-.09-.2-.23-.2-.41.05-.6.65v2.65s.02.03.06.03h.51v.13h-2v-.13h.51s.06,0,.06-.03v-3.27s-.02-.03-.06-.03h-.51v-.13h1.41l.03.03v.56c.15-.46.47-.66.86-.66.46,0,.77.24.77.62,0,.24-.18.43-.46.43M172.82,7.82c.65,0,1.18-.32,1.53-.8l-.1-.08c-.33.46-.77.75-1.42.75-.24,0-.44-.05-.6-.19-.27-.25-.36-.53-.36-1.54,0-.07,0-.1,0-.16h2.56l.03-.02c0-.68-.47-1.68-1.63-1.68-1.07,0-1.87.84-1.87,1.87s.8,1.87,1.87,1.87M173.3,4.41c.2.22.26.56.28,1.25h-1.71c.02-.68.11-1.03.36-1.25.17-.15.36-.19.6-.19.21,0,.34.05.47.19M160.08,7.66c.46,0,.75-.33.75-.64v-1.24c-.21.12-.52.12-.79.17-.31.06-.64.22-.64.99,0,.59.39.72.68.72M159.01,4.82c0-.3.38-.73,1.1-.73,1.06,0,1.59.47,1.59,1.52v1.71c0,.2.1.28.24.28.16,0,.3-.14.33-.22l.09.09c-.05.15-.33.35-.67.35-.39,0-.74-.23-.8-.54-.13.36-.47.54-.97.54-.82,0-1.35-.29-1.35-.88,0-.88.94-1.09,1.3-1.12.51-.04.97-.08.97-.26v-.49c0-.6-.26-.86-.73-.86-.23,0-.38.11-.38.36,0,.14.07.18.07.32,0,.15-.12.3-.41.3s-.39-.19-.39-.38M169.02,4.41c-.15-.14-.36-.19-.59-.19-.31,0-.59.2-.79.44v2.51c.12.3.46.53.79.53.22,0,.43-.04.59-.19.26-.24.43-.66.43-1.53s-.17-1.33-.43-1.57M170.33,5.98c0,.93-.79,1.85-1.89,1.85-.34,0-.59-.21-.79-.41v2.78s.02.03.06.03h.51v.13h-2v-.13h.51s.06,0,.06-.03v-5.87s-.02-.03-.06-.03h-.51v-.13h1.41l.02.03v.32c.2-.2.45-.42.79-.42,1.1,0,1.89.96,1.89,1.89M181.25,4.19c.09,0,.15-.04.16-.08h.14v.89h-.14c0-.52-.46-.78-.9-.78s-.67.2-.67.53c0,.42.3.63.97.82.71.2,1.17.55,1.17,1.09,0,.68-.55,1.18-1.44,1.18-.52,0-.75-.24-1.02-.24-.12,0-.24.07-.29.18h-.15l.05-1.18h.15c-.02.62.56,1.11,1.26,1.11.53,0,.83-.24.83-.7s-.36-.63-1-.83c-.63-.19-1.08-.45-1.08-1.01,0-.66.64-1.08,1.21-1.08.37,0,.41.1.75.1M178.61,2.94c0-.24.2-.44.46-.44.27,0,.48.2.48.49,0,.43-.39.93-.92,1.25l-.09-.1c.38-.22.66-.5.83-.89-.07.08-.17.11-.3.11-.25,0-.46-.2-.46-.44M177.46,5.13c-.26,0-.44-.12-.44-.32,0-.18.11-.18.11-.31s-.09-.2-.23-.2-.41.05-.6.65v2.65s.02.03.06.03h.51v.13h-2v-.13h.51s.06,0,.06-.03v-3.27s-.02-.03-.06-.03h-.51v-.13h1.41l.03.03v.56c.15-.46.47-.66.86-.66.46,0,.77.24.77.62,0,.24-.19.43-.47.43"/>
</svg>