<svg width="240" height="240" viewBox="0 0 240 240" fill="none" xmlns="http://www.w3.org/2000/svg">
<g clip-path="url(#clip0_4072_3591)">
<path d="M29.3984 101.056H31.1205V101.976H46.115L46.3855 101.903V103.355C46.3855 103.355 45.2404 103.734 44.8527 104.5C44.4649 105.267 44.3567 105.185 44.3207 107.755C44.2846 110.316 44.3207 113.796 44.3207 114.067V131.09C44.3207 131.09 44.2035 133.804 44.51 134.76L40.4526 136.211L35.746 139.728L29.1279 131.315C29.1279 131.315 27.595 129.864 28.091 126.879C28.5147 124.391 29.2811 123.552 29.6598 123.011C30.0385 122.434 29.9303 122.705 29.9303 122.705L30.7689 122.741L30.5434 123.696C30.5434 123.696 30.4262 123.922 30.85 124.652C31.2738 125.337 38.2706 133.759 38.2706 133.759C38.2706 133.759 38.496 134.183 38.5411 133.723C38.5411 133.263 38.469 125.229 38.469 125.229V116.24H34.2583L33.8796 116.772L32.6172 121.018L32.5812 112.101H34.4927V112.94H38.3157V108.729L38.0903 107.539C38.0903 107.539 38.3968 107.503 39.578 106.619C40.7592 105.735 40.8764 105.663 40.8764 105.663L40.7592 105.591C40.7592 105.591 37.8108 106.24 37.3509 106.322C36.8911 106.394 36.2058 106.439 35.9353 106.439H31.4631L31.1205 106.556L29.3623 111.488L29.3984 101.047V101.056Z" fill="#D9D9D9"/>
<path d="M55.7653 101.023L58.3621 102.015L55.3055 105.577L54.5391 105.342L55.7653 101.023Z" fill="#D9D9D9"/>
<path d="M60.4546 101.023L63.0604 101.979L60.0398 105.577L59.2734 105.306L60.4546 101.023Z" fill="#D9D9D9"/>
<path d="M96.3149 110.356C96.3149 110.356 97.1534 109.364 97.7305 108.444C98.3436 107.524 99.1461 106.298 99.1461 106.298L103.582 107.867L103.086 109.319L103.122 112.835L106.792 106.289H108.018L109.93 113.331C109.93 113.331 110.272 115.63 109.813 116.811C109.353 118.038 108.74 119.183 107.973 119.913C107.207 120.643 106.783 121.058 106.783 121.058L105.71 119.985C105.71 119.985 106.783 118.84 106.819 118.146C106.855 117.452 106.513 116.541 106.134 115.197C105.755 113.854 105.097 111.987 105.097 111.987L104.637 112.673L103.104 115.315V128.668L106.314 129.552L106.738 127.866L108.532 128.443L105.088 133.988L97.8207 132.04C97.8207 132.04 98.4699 131.58 98.4338 127.757C98.3977 123.934 98.3977 111.113 98.3977 111.113L96.2969 110.346L96.3149 110.356Z" fill="#D9D9D9"/>
<path d="M111.034 110.202L113.748 106.298L118.68 108.173C118.68 108.173 118.148 109.589 118.148 110.662C118.148 111.735 118.184 113.682 118.184 113.682L122.503 106.298L128.968 108.597C128.968 108.597 128.39 110.049 128.39 111.545C128.39 113.042 128.463 114.259 128.463 114.259L132.709 106.262L139.102 108.561C139.102 108.561 138.182 110.4 138.182 111.618C138.146 114.025 138.255 129.218 138.255 129.218L140.319 129.831L138.173 133.924L132.592 132.392C132.592 132.392 133.241 131.283 133.241 128.451C133.277 125.62 133.241 111.654 133.241 111.654L131.6 111.004L128.345 116.477L128.417 129.29L130.176 129.822L127.922 133.879L122.872 132.545C122.872 132.545 123.485 131.706 123.485 128.641C123.485 125.575 123.449 113.836 123.449 113.836V111.843L121.231 110.959L118.211 116.009L118.328 129.362L119.816 129.858L117.67 133.87L112.584 132.536C112.584 132.536 113.234 131.31 113.27 129.173C113.306 127.027 113.234 111.266 113.234 111.266L111.016 110.193L111.034 110.202Z" fill="#D9D9D9"/>
<path d="M162.15 129.019L164.557 129.75L162.069 133.843L156.488 132.428C156.488 132.428 157.29 131.544 157.254 126.801C157.218 122.059 157.218 111.419 157.218 111.419L155 110.581L157.678 106.262L162.962 108.326L162.123 110.238L162.159 129.019" fill="#D9D9D9"/>
<path d="M160.765 100.785L163.407 101.822L160.233 105.42L159.539 105.221L160.765 100.785Z" fill="#D9D9D9"/>
<path d="M172.21 100.75L175.041 102.544C175.041 102.544 176.186 103.347 176.989 102.58C177.827 101.814 177.827 101.742 177.827 101.742L178.783 102.355L176.105 105.916C176.105 105.916 174.266 106.872 173.274 106.566C172.282 106.259 171.245 105.799 171.245 105.799L171.173 116.087L171.209 136.744C171.209 136.744 170.407 136.708 169.794 137.05C169.144 137.357 168.603 137.7 168.378 138.277C168.153 138.854 168.108 139.611 168.108 139.611L166.196 139.575L166.124 106.98L165.547 104.88L169.298 103.771L172.201 100.75H172.21Z" fill="#D9D9D9"/>
<path d="M181 101.743L180.964 106.18L185.824 106.143L183.831 110.012L181.036 110.048L180.964 129.018L183.335 129.668L180.883 133.833L175.301 132.3C175.301 132.3 176.104 130.885 176.104 128.054C176.104 125.222 176.068 110.075 176.068 110.075H174.273L177.601 106.594L181.009 101.734L181 101.743Z" fill="#D9D9D9"/>
<path d="M198.254 110.117C198.254 110.117 199.092 109.125 199.669 108.206C200.282 107.286 201.085 106.06 201.085 106.06L205.521 107.629L205.025 109.08L205.061 112.597L208.731 106.051H209.957L211.869 113.093C211.869 113.093 212.211 115.392 211.751 116.573C211.291 117.799 210.678 118.944 209.912 119.675C209.146 120.405 208.722 120.82 208.722 120.82L207.649 119.747C207.649 119.747 208.722 118.602 208.758 117.907C208.794 117.222 208.451 116.303 208.109 114.959C207.73 113.625 207.072 111.749 207.072 111.749L206.612 112.434L205.079 115.076V128.43L208.289 129.313L208.713 127.627L210.507 128.204L207.063 133.75L199.795 131.802C199.795 131.802 200.445 131.342 200.409 127.519C200.372 123.696 200.372 110.875 200.372 110.875L198.227 110.108L198.254 110.117Z" fill="#D9D9D9"/>
<path fill-rule="evenodd" clip-rule="evenodd" d="M47.7284 132.734L48.035 131.166C48.035 131.166 48.035 118.885 47.9989 118.119C47.9628 117.388 47.5391 116.207 47.5391 116.207L51.2088 114.828C51.2088 114.828 51.2448 114.828 50.7489 114.521C49.5227 113.791 48.6842 112.952 48.4137 112.646L47.6473 111.419L51.894 109.274L54.3465 106.406L62.9934 109.58L62.5335 110.346L62.1098 111.419L62.1458 129.092L62.4884 129.281L64.2106 129.741L61.6048 133.907L56.8621 132.644L57.1687 129.353L57.0515 128.316L55.9785 130.002L53.7605 133.943L47.7194 132.716L47.7284 132.734ZM53.0031 110.887L53.2736 111.573C53.6523 112.258 54.1121 112.565 54.8424 112.871C55.4916 113.178 55.9515 113.178 56.6367 113.142C57.5203 113.106 58.8187 112.61 58.8187 112.61L53.0031 110.887ZM53.0031 128.677L55.1039 129.362L57.1687 125.801L57.1326 114.251L53.0031 116.243V128.677Z" fill="#D9D9D9"/>
<path fill-rule="evenodd" clip-rule="evenodd" d="M65.5904 110.889L69.4945 109.167L71.8658 106.336L81.1619 109.474C81.1619 109.474 80.5488 110.159 80.4766 111.043C80.4045 111.926 80.4045 120.762 80.4045 120.762L80.4406 135.45L77.2667 136.37L74.3995 139.318C74.3995 139.318 71.2617 137.786 69.5035 137.749C67.7453 137.713 67.4748 137.786 66.9789 138.173C66.483 138.561 65.8699 139.661 65.8699 139.661L64.6797 139.237C64.6797 139.237 65.7166 137.208 66.8256 136.099C67.9346 134.99 68.8543 134.26 69.6929 133.954C70.5314 133.683 70.9552 133.647 70.9552 133.647L70.883 133.422L65.5272 132.006C65.5272 132.006 65.9871 130.626 66.0592 129.4C66.1313 128.174 66.0592 120.293 66.0592 120.293L66.0953 112.756L65.5994 110.88L65.5904 110.889ZM71.6765 133.539L75.6167 134.495V126.767L71.6765 133.539ZM71.0183 111.006L71.0544 128.715L72.8126 129.211L75.6077 124.198V115.893C75.6077 115.127 75.1479 114.054 75.1479 114.054L76.338 112.792L71.0183 110.997V111.006Z" fill="#D9D9D9"/>
<path fill-rule="evenodd" clip-rule="evenodd" d="M83.7939 131.698L84.2537 129.209C84.2537 129.209 84.2898 116.811 84.2537 114.485C84.2177 112.15 83.7578 110.77 83.7578 110.77L87.121 109.887L90.1776 106.406L96.417 112.871L95.6506 113.791L89.2579 125.233L89.33 128.334L94.3432 129.597L94.9203 128.028L96.4891 128.524L93.3153 134.105L83.7939 131.698ZM89.1948 112.195L89.2308 122.979L92.8284 116.324L89.1948 112.195Z" fill="#D9D9D9"/>
<path fill-rule="evenodd" clip-rule="evenodd" d="M141.833 131.545L142.293 129.057C142.293 129.057 142.329 116.659 142.293 114.333C142.257 111.997 141.797 110.618 141.797 110.618L145.16 109.734L148.217 106.254L154.456 112.719L153.69 113.638L147.297 125.035L147.369 128.137L152.382 129.399L152.959 127.83L154.528 128.29L151.354 133.871L141.833 131.536V131.545ZM147.225 112.043L147.261 122.826L150.858 116.172L147.225 112.043Z" fill="#D9D9D9"/>
<path fill-rule="evenodd" clip-rule="evenodd" d="M185.942 131.436L186.402 128.947C186.402 128.947 186.438 116.55 186.402 114.223C186.366 111.897 185.906 110.509 185.906 110.509L189.269 109.625L192.326 106.145L198.565 112.609L197.799 113.529L191.406 124.971L191.478 128.073L196.492 129.263L197.069 127.694L198.638 128.154L195.464 133.735L185.942 131.436ZM191.334 111.924L191.37 122.708L194.968 116.054L191.334 111.924Z" fill="#D9D9D9"/>
</g>
<defs>
<clipPath id="clip0_4072_3591">
<rect width="184" height="38.9784" fill="white" transform="translate(28 100.75)"/>
</clipPath>
</defs>
</svg>
