<svg width="240" height="240" viewBox="0 0 240 240" fill="none" xmlns="http://www.w3.org/2000/svg">
<g clip-path="url(#clip0_4072_3208)">
<path d="M65.994 95.4258V100.592L54.9613 127.043H65.994V132.312H49V127.146L60.0327 100.694H49.5276V95.4258H65.994Z" fill="#D9D9D9"/>
<path d="M75.2413 132.312H69.4375V95.4258H75.2413V111.231H81.8404V95.4258H87.7545V132.312H81.8404V116.507H75.2413V132.312Z" fill="#D9D9D9"/>
<path d="M97.3039 123.822C97.3039 125.161 97.5637 126.106 98.0992 126.665C98.6662 127.193 99.3986 127.452 100.32 127.452C101.241 127.452 101.958 127.193 102.486 126.665C103.053 126.106 103.328 125.153 103.328 123.822V103.906C103.328 102.568 103.045 101.639 102.486 101.111C101.958 100.552 101.233 100.268 100.32 100.268C99.4065 100.268 98.6662 100.552 98.0992 101.111C97.5716 101.639 97.3039 102.568 97.3039 103.906V123.822ZM91.4922 104.277C91.4922 101.292 92.2482 99.0083 93.7602 97.4255C95.2721 95.8111 97.4535 95 100.304 95C103.155 95 105.336 95.8111 106.848 97.4255C108.36 99.0083 109.116 101.292 109.116 104.277V123.46C109.116 126.444 108.36 128.744 106.848 130.366C105.336 131.949 103.155 132.736 100.304 132.736C97.4535 132.736 95.2721 131.949 93.7602 130.366C92.2482 128.752 91.4922 126.452 91.4922 123.46V104.277Z" fill="#D9D9D9"/>
<path d="M121.652 125.508L126.085 95.4258H131.417L125.715 132.312H117.061L111.359 95.4258H117.218L121.652 125.516V125.508Z" fill="#D9D9D9"/>
<path d="M132.555 95.4258H150.502V100.694H144.43V132.312H138.626V100.694H132.555V95.4258Z" fill="#D9D9D9"/>
<path d="M158.968 110.971H166.937V116.239H158.968V127.043H169V132.312H153.164V95.4258H169V100.694H158.968V110.971Z" fill="#D9D9D9"/>
<path d="M177.76 105.592V132.312H172.531V95.4258H179.816L185.777 117.507V95.4258H190.951V132.312H184.989L177.76 105.592Z" fill="#D9D9D9"/>
<path d="M154.466 144.312C153.789 144.312 153.175 144.17 152.623 143.879C152.08 143.58 151.647 143.17 151.332 142.658C151.025 142.131 150.867 141.54 150.867 140.887C150.867 140.233 151.025 139.642 151.332 139.123C151.647 138.595 152.08 138.193 152.623 137.902C153.175 137.603 153.789 137.453 154.474 137.453C155.049 137.453 155.568 137.555 156.025 137.76C156.49 137.965 156.884 138.256 157.199 138.634L156.214 139.548C155.765 139.028 155.206 138.768 154.545 138.768C154.135 138.768 153.765 138.863 153.442 139.044C153.119 139.217 152.867 139.469 152.686 139.792C152.513 140.115 152.419 140.477 152.419 140.894C152.419 141.312 152.505 141.674 152.686 141.997C152.867 142.32 153.119 142.572 153.442 142.753C153.765 142.926 154.127 143.021 154.545 143.021C155.206 143.021 155.765 142.761 156.214 142.233L157.199 143.147C156.884 143.533 156.49 143.824 156.025 144.029C155.561 144.233 155.033 144.336 154.458 144.336L154.466 144.312Z" fill="#D9D9D9"/>
<path d="M158.242 137.562H159.778V144.201H158.242V137.562Z" fill="#D9D9D9"/>
<path d="M167.439 137.562V144.201H166.179L162.871 140.169V144.201H161.352V137.562H162.619L165.919 141.594V137.562H167.439Z" fill="#D9D9D9"/>
<path d="M174.15 142.965V144.201H169.008V137.562H174.024V138.799H170.536V140.24H173.615V141.437H170.536V142.973H174.15V142.965Z" fill="#D9D9D9"/>
<path d="M181.415 144.193V140.209L179.454 143.492H178.761L176.816 140.295V144.193H175.375V137.555H176.643L179.123 141.681L181.573 137.555H182.833L182.848 144.193H181.407H181.415Z" fill="#D9D9D9"/>
<path d="M188.799 142.776H185.72L185.13 144.201H183.555L186.516 137.562H188.036L191.004 144.201H189.39L188.799 142.776ZM188.311 141.61L187.256 139.067L186.201 141.61H188.303H188.311Z" fill="#D9D9D9"/>
</g>
<defs>
<clipPath id="clip0_4072_3208">
<rect width="142" height="49.3125" fill="white" transform="translate(49 95)"/>
</clipPath>
</defs>
</svg>
