<svg width="240" height="240" viewBox="0 0 240 240" fill="none" xmlns="http://www.w3.org/2000/svg">
<g clip-path="url(#clip0_4072_3225)">
<path d="M70.4475 158.947C69.4153 154.211 68.4269 149.649 67.4384 145.095C66.0564 149.657 65.0505 154.298 63.8521 158.921H59.3736C57.9215 152.447 56.4695 145.964 55 139.403H59.2424C60.0821 143.792 60.9218 148.189 61.7615 152.586C61.8228 152.586 61.8927 152.586 61.954 152.586C62.9599 148.206 63.9658 143.835 64.9805 139.403H69.8876C70.8498 143.809 71.8033 148.189 72.7567 152.568C72.8179 152.568 72.8879 152.568 72.9491 152.568C73.7451 148.197 74.5499 143.826 75.3546 139.395H79.3958C77.9437 145.912 76.5092 152.351 75.0397 158.929C73.5352 159.008 72.0482 158.973 70.4475 158.956V158.947Z" fill="#D9D9D9"/>
<path d="M174.197 86.0144V99.6663C172.937 99.8227 171.721 99.7532 170.453 99.7097V80.2704C171.363 79.9749 174.276 79.9228 175.964 80.1661C177.635 84.4415 179.323 88.7778 181.011 93.1141C181.072 93.1054 181.125 93.088 181.186 93.0793V80.0966C182.472 79.9749 183.696 79.9923 184.991 80.0966V99.6576H179.611C177.897 95.1388 176.156 90.5418 174.416 85.9449C174.337 85.9623 174.267 85.9883 174.188 86.0057L174.197 86.0144Z" fill="#D9D9D9"/>
<path d="M128.315 80.0859H133.764C135.461 84.4483 137.149 88.7932 138.838 93.1295C138.899 93.1295 138.951 93.1295 139.012 93.1295V80.1207H142.852V99.6469H137.429C135.706 95.1021 133.974 90.5138 132.233 85.9169C132.163 85.9342 132.093 85.9516 132.015 85.969V99.6556H128.411C128.157 98.6997 128.061 82.6929 128.306 80.0946L128.315 80.0859Z" fill="#D9D9D9"/>
<path d="M153.831 129.481H148.477C146.737 124.892 144.987 120.269 143.238 115.638C143.15 115.655 143.063 115.681 142.975 115.698V129.481H139.442C139.153 128.551 139.039 113.083 139.31 109.928C141.086 109.789 142.888 109.911 144.786 109.868C146.509 114.282 148.206 118.644 149.903 123.015C149.982 122.998 150.061 122.981 150.131 122.963V109.954H153.831V129.481Z" fill="#D9D9D9"/>
<path d="M103.86 117.601H108.452V109.954C109.913 109.815 111.252 109.85 112.66 109.928V129.489C111.322 129.61 109.974 129.524 108.505 129.541V120.912H103.904V129.463H99.7578V109.945H103.851V117.601H103.86Z" fill="#D9D9D9"/>
<path d="M97.4465 90.0895C97.8576 90.2025 98.0588 90.2546 98.2512 90.3067C99.5895 90.6978 100.368 91.5755 100.508 92.9485C100.63 94.1824 100.683 95.4164 100.77 96.6504C100.84 97.615 100.928 98.5795 101.015 99.7005C99.7032 99.7874 98.4436 99.7614 97.0004 99.7005C96.8866 99.0923 96.7029 98.51 96.668 97.9191C96.6155 96.9458 96.668 95.9726 96.6417 94.9993C96.633 94.4692 96.5542 93.9478 96.5018 93.4177C96.3968 92.4532 95.8195 91.8883 94.8923 91.7319C94.21 91.6189 93.5015 91.6276 92.6968 91.5755V99.6484C91.2622 99.8048 89.9152 99.744 88.5156 99.6919V80.0961C88.9617 80.07 89.3554 80.0266 89.7402 80.0266C91.5159 80.0266 93.3003 79.9744 95.076 80.044C96.0382 80.0787 97.0266 80.2265 97.9538 80.4958C99.3446 80.9043 100.202 81.9644 100.438 83.3548C100.622 84.4237 100.622 85.5534 100.525 86.6396C100.385 88.1603 99.5458 89.2553 98.0413 89.7767C97.8926 89.8288 97.7614 89.9157 97.429 90.0895H97.4465ZM92.7055 88.4906C94.0613 88.4645 95.3821 88.8468 96.2044 87.526C96.7204 86.7004 96.6505 84.4411 96.0557 83.8328C95.0935 82.8508 93.8864 83.1376 92.7055 83.155V88.4992V88.4906Z" fill="#D9D9D9"/>
<path d="M136.516 119.592C136.359 121.469 136.289 123.329 136.018 125.163C135.624 127.778 134.146 129.186 131.495 129.681C130.122 129.942 128.758 129.925 127.384 129.647C125.355 129.238 123.955 128.065 123.431 126.127C122.267 121.826 122.267 117.472 123.404 113.162C123.982 110.972 125.617 109.738 127.822 109.477C129.169 109.321 130.586 109.382 131.924 109.616C134.303 110.025 135.65 111.632 135.991 113.944C136.271 115.812 136.341 117.724 136.499 119.601L136.516 119.592ZM132.283 119.549C132.283 119.549 132.23 119.549 132.195 119.549C132.195 118.619 132.256 117.689 132.178 116.768C132.099 115.76 131.985 114.735 131.723 113.77C131.452 112.753 130.682 112.319 129.606 112.301C128.469 112.284 127.804 112.649 127.445 113.701C127.192 114.439 126.999 115.239 126.982 116.021C126.921 118.402 126.921 120.792 126.982 123.173C126.999 123.955 127.201 124.745 127.463 125.493C127.83 126.57 128.495 126.97 129.58 126.953C130.629 126.935 131.373 126.457 131.705 125.467C131.872 124.971 131.976 124.441 132.02 123.911C132.134 122.46 132.195 121 132.283 119.549Z" fill="#D9D9D9"/>
<path d="M86.53 99.6829H81.8765C80.3632 96.5372 78.8412 93.3741 77.3192 90.2109C77.2667 90.2109 77.2055 90.2196 77.153 90.2283V99.6655H73.0156V80.1132H77.0918V87.995C77.1618 88.0124 77.223 88.0298 77.293 88.0471C77.7128 87.3433 78.1327 86.6307 78.5526 85.9268C79.5148 84.2931 80.5207 82.6768 81.4216 81.0083C81.8415 80.2436 82.3576 79.9481 83.2235 80.0177C84.2295 80.0959 85.2441 80.035 86.5125 80.035C84.6931 83.1634 82.8037 85.9616 81.0193 88.9074C82.8124 92.4182 84.6143 95.9463 86.5212 99.6829H86.53Z" fill="#D9D9D9"/>
<path d="M56.6562 80.1047H60.7674C60.7936 80.5566 60.8374 80.9476 60.8374 81.33C60.8374 85.1361 60.8374 88.9336 60.8374 92.7398C60.8374 93.4871 60.8374 94.2519 60.9511 94.9905C61.1523 96.3461 62.0095 97.1282 63.2254 97.1804C64.4937 97.2325 65.4296 96.6068 65.7795 95.3033C65.972 94.5908 66.0157 93.826 66.0244 93.0787C66.0507 89.2291 66.0332 85.3881 66.0332 81.5385C66.0332 81.104 66.0332 80.6608 66.0332 80.0699C66.7417 80.0525 67.3977 80.0438 68.0538 80.0352C68.6661 80.0352 69.2871 80.0352 69.9781 80.0352C70.0219 80.4783 70.0831 80.8172 70.0831 81.1562C70.0831 85.1796 70.1094 89.203 70.0744 93.2264C70.0744 94.1476 69.9607 95.0861 69.7595 95.9811C69.2959 98.032 67.9401 99.2746 65.9282 99.796C64.2663 100.231 62.5781 100.257 60.9074 99.8395C58.4057 99.2312 56.9799 97.415 56.7 94.5039C56.6563 94.0172 56.6562 93.5306 56.6562 93.044C56.6562 89.1509 56.6562 85.2665 56.6562 81.3734C56.6562 80.9824 56.6562 80.5913 56.6562 80.1047Z" fill="#D9D9D9"/>
<path d="M119.011 99.6048C117.533 99.8915 116.177 99.6743 114.725 99.7612C114.331 98.2926 113.964 96.8935 113.579 95.4423H107.955C107.587 96.8066 107.202 98.2404 106.809 99.6656H102.75C104.596 93.0613 106.398 86.5786 108.208 80.1133H113.684C115.46 86.622 117.227 93.0699 119.011 99.6134V99.6048ZM108.759 92.34H112.722C112.066 89.62 111.436 86.987 110.806 84.3453C110.727 84.3453 110.657 84.3366 110.579 84.3279C109.975 86.9696 109.38 89.6114 108.759 92.3313V92.34Z" fill="#D9D9D9"/>
<path d="M156.137 99.6547H152.078C153.906 93.0939 155.708 86.6199 157.536 80.0938H163.012C164.788 86.5764 166.563 93.0591 168.365 99.6547H164.044C163.677 98.3078 163.301 96.9174 162.907 95.4401H157.283C156.915 96.8045 156.539 98.1948 156.146 99.6547H156.137ZM161.927 92.3465C161.761 90.6346 160.3 84.8993 159.889 84.317C159.295 86.9675 158.7 89.6092 158.087 92.3465H161.927Z" fill="#D9D9D9"/>
<path d="M70.9112 129.489H66.8438C68.6719 122.945 70.4738 116.471 72.2932 109.945H77.7952C79.5621 116.393 81.329 122.85 83.1572 129.506C81.6702 129.593 80.2794 129.541 78.8273 129.541C78.4337 128.081 78.0663 126.682 77.6727 125.222H72.0483C71.6722 126.63 71.3048 127.986 70.9112 129.489ZM76.8067 122.094C76.1595 119.356 75.5297 116.706 74.8911 114.056C74.8211 114.064 74.7424 114.073 74.6724 114.082C74.0776 116.723 73.4828 119.356 72.8705 122.094H76.798H76.8067Z" fill="#D9D9D9"/>
<path d="M107.93 139.386H111.945V147.485C112.26 147.068 112.391 146.92 112.496 146.746C113.799 144.539 115.129 142.349 116.388 140.124C116.747 139.49 117.167 139.273 117.875 139.299C118.977 139.351 120.088 139.308 121.418 139.308C119.52 142.349 117.735 145.208 115.916 148.111C117.718 151.647 119.52 155.175 121.418 158.895C119.817 159.016 118.339 158.947 116.799 158.938C115.26 155.749 113.738 152.586 112.216 149.423C112.155 149.431 112.093 149.449 112.032 149.457V158.851H107.947V139.368L107.93 139.386Z" fill="#D9D9D9"/>
<path d="M88.5711 123.556C88.6236 124.138 88.6498 124.668 88.7373 125.181C88.9385 126.371 89.7694 126.988 91.0203 126.91C92.2449 126.84 92.9447 126.093 93.0321 124.876C93.1109 123.773 92.6035 123.008 91.7201 122.452C90.5917 121.748 89.4458 121.07 88.3174 120.366C87.8276 120.062 87.3552 119.732 86.8916 119.393C84.8623 117.89 84.39 115.813 84.8273 113.493C85.1335 111.859 86.1569 110.747 87.7401 110.138C89.6295 109.4 91.5626 109.313 93.5045 109.765C95.595 110.251 96.7497 111.616 96.9683 113.779C97.0208 114.257 96.9683 114.744 96.9683 115.396C95.6825 115.491 94.4229 115.448 93.0759 115.413C93.0059 114.987 92.9622 114.614 92.8834 114.231C92.7085 113.345 92.3149 112.65 91.3352 112.459C90.5217 112.302 89.8132 112.528 89.3408 113.206C88.7898 113.997 88.7285 114.892 89.2446 115.7C89.542 116.16 90.0144 116.552 90.478 116.864C91.7988 117.751 93.1546 118.602 94.5191 119.445C97.0208 120.992 97.7468 123.138 96.9596 126.232C96.5047 128.022 95.1839 129.074 93.4432 129.517C91.7026 129.96 89.9269 130.021 88.16 129.621C85.9382 129.117 84.5999 127.605 84.4687 125.363C84.4337 124.798 84.4687 124.225 84.4687 123.564H88.5886L88.5711 123.556Z" fill="#D9D9D9"/>
<path d="M85.5561 147.182H91.5567V150.188H85.5474V155.846H92.2739V158.722C91.4255 159.017 83.2206 159.113 81.375 158.817V139.535C82.276 139.239 90.6557 139.187 92.0902 139.482V142.15C91.0144 142.454 89.9122 142.254 88.8188 142.289C87.7604 142.324 86.702 142.289 85.5561 142.289V147.164V147.182Z" fill="#D9D9D9"/>
<path d="M98.8833 155.836H105.522V158.947C101.954 158.999 98.376 158.956 94.7109 158.973V139.395H105.409V142.262C103.266 142.384 101.105 142.245 98.8921 142.34V147.129H104.84V150.161C102.907 150.309 100.921 150.135 98.8921 150.266V155.836H98.8833Z" fill="#D9D9D9"/>
<path d="M56.7266 109.938H66.8383V112.823H60.9514V117.889H66.6196V120.887H60.9164C60.7765 123.789 60.9252 126.553 60.8202 129.49C59.4644 129.594 58.1261 129.585 56.7266 129.481V109.938Z" fill="#D9D9D9"/>
<path d="M150.046 99.656H146.031V80.0776C147.343 79.9907 148.647 79.9994 150.046 80.0776V99.656Z" fill="#D9D9D9"/>
<path d="M119.894 129.472H115.844V109.945H119.894V129.472Z" fill="#D9D9D9"/>
<path d="M121.117 80.1055H125.062V99.6665H121.117V80.1055Z" fill="#D9D9D9"/>
</g>
<defs>
<clipPath id="clip0_4072_3225">
<rect width="130" height="79" fill="white" transform="translate(55 80)"/>
</clipPath>
</defs>
</svg>
