<svg width="240" height="240" viewBox="0 0 240 240" fill="none" xmlns="http://www.w3.org/2000/svg">
<g clip-path="url(#clip0_4072_3327)">
<path d="M161.694 84.0001C160.413 84.0001 158.736 84.775 158.286 86.6965C157.677 89.2902 159.401 91.014 158.942 92.975C158.808 93.5444 158.547 93.6392 158.491 93.8686C158.444 94.0742 158.918 94.256 159.353 94.256C162.382 94.256 165.22 91.0298 165.102 87.4003C165.086 86.831 164.959 85.9611 164.366 85.2574C163.655 84.4192 162.856 83.9922 161.702 83.9922L161.694 84.0001ZM71.9286 85.3285C71.9286 85.3285 72.4584 87.5743 71.7547 90.6344L62.1946 132.362C59.8461 142.61 59 143.685 59 143.685C59 143.685 64.4798 142.816 72.3398 142.816C81.7892 142.816 88.0677 143.946 92.6303 143.946C94.8127 143.946 97.1296 143.63 99.1539 142.42C101.344 141.108 103.321 138.625 102.538 134.078C100.743 135.533 97.9045 136.157 95.0104 136.157C89.4831 136.157 84.1377 135.414 78.6104 135.414C76.6573 135.414 75.487 135.47 73.605 135.683L84.5173 89.3851C85.055 87.0919 83.8056 85.4076 81.5283 85.3997L71.9207 85.3364L71.9286 85.3285ZM101.336 94.2007C93.7531 94.2007 86.9607 102.076 84.4066 113.25C83.5763 116.887 83.2125 122.62 84.2168 125.562C85.6164 129.65 88.7003 131.358 92.3298 131.389C96.0937 131.429 98.5055 130.251 100.269 128.764C102.04 127.27 102.783 125.751 103.305 125.008C104.064 129.436 106.832 131.358 110.462 131.389C114.225 131.429 115.941 130.322 117.697 128.835C119.247 127.53 120.101 125.989 120.63 125.182C121.532 130.148 124.877 131.358 128.475 131.389C132.239 131.429 134.674 129.594 135.939 128.574C137.26 127.507 137.94 126.321 138.462 125.577L136.683 133.129C136.683 133.129 130.27 135.185 125.731 137.265C119.887 139.937 114.312 143.369 113.356 147.441C112.66 150.407 114.059 155.064 123.683 155.064C129.17 155.064 134.065 153.206 137.956 149.774C141.237 146.88 144.716 141.416 146.219 135.05L155.629 95.1179H147.5C146.472 95.1179 145.381 95.4659 144.97 97.1976L140.573 115.867C139.719 119.497 138.169 121.79 136.825 122.976C135.362 124.273 134.263 124.36 133.259 124.36C132.326 124.36 131.559 124.091 131.037 123.332C130.515 122.573 130.317 120.959 130.697 119.354L136.406 95.11H128.348C127.32 95.11 126.142 95.458 125.731 97.1897L120.599 118.967C120.196 120.691 119.207 122.051 118.322 122.96C117.262 124.043 116.147 124.352 115.285 124.352C113.411 124.352 112.098 123.284 113.031 119.354L118.741 95.11H111.505C110.477 95.11 109.386 95.458 108.975 97.1897L108.516 99.1428C108.516 99.1428 107.797 94.1849 101.352 94.1849L101.336 94.2007ZM171.531 94.2797C163.109 94.2797 159.037 99.0163 158.238 102.424C157.495 105.595 157.772 107.161 158.468 109.169C159.155 111.178 160.302 112.206 161.963 114.27C162.896 115.424 169.356 120.477 168.66 123.419C168.431 124.407 168.186 124.905 167.245 125.514C166.77 125.822 165.719 126.139 164.786 126.139C161.196 126.139 159.511 123.854 156.593 123.854C153.249 123.854 151.881 127.831 151.881 127.831C151.881 127.831 152.814 128.796 154.743 129.602C157.163 130.606 159.401 131.373 162.975 131.373C165.489 131.373 168.162 131.207 171.262 129.673C172.606 129.009 173.847 128.108 174.867 126.89C176.251 125.237 176.686 124.138 177.137 122.225C177.983 118.619 176.686 114.665 172.076 110.585C168.486 107.414 166.051 104.789 166.675 102.14C167.118 100.274 168.787 99.4907 170.091 99.4907C172.93 99.4907 174.417 101.191 176.884 101.191C180.403 101.191 181.613 98.5181 182.016 96.8259C182.016 96.8259 181.019 96.1933 179.201 95.5607C176.386 94.5802 174.844 94.2956 171.546 94.2956L171.531 94.2797ZM102.926 99.8703C105.598 99.8703 107.156 103.033 105.013 112.119C102.649 122.153 99.5414 124.367 97.0268 124.367C94.3541 124.367 92.2428 122.573 94.8997 112.119C96.75 104.844 100.142 99.8703 102.918 99.8703H102.926ZM135.686 137.257L135.354 138.656C134.935 140.435 134.034 144.01 132.555 146.334C131.266 148.359 128.917 150.32 125.762 150.32C124.276 150.32 123.169 149.901 122.497 149.236C121.824 148.572 121.651 147.418 121.832 146.635C122.449 144.01 125.541 142.064 129.178 140.222C132.492 138.538 135.678 137.265 135.678 137.265L135.686 137.257Z" fill="#D9D9D9"/>
</g>
<defs>
<clipPath id="clip0_4072_3327">
<rect width="123" height="71.064" fill="white" transform="translate(59 84)"/>
</clipPath>
</defs>
</svg>
