<svg width="240" height="240" viewBox="0 0 240 240" fill="none" xmlns="http://www.w3.org/2000/svg">
<g clip-path="url(#clip0_4072_3323)">
<path fill-rule="evenodd" clip-rule="evenodd" d="M78.4576 113.92C75.2801 114.385 72.7829 117.491 73.0693 120.704C73.1946 123.989 76.2289 126.934 79.5495 126.737C83.2014 126.916 86.3789 123.345 85.9582 119.738C85.7434 116.121 82.011 113.195 78.4576 113.92Z" fill="#D9D9D9"/>
<path fill-rule="evenodd" clip-rule="evenodd" d="M203.113 103.627C199.371 100.629 194.708 99 189.91 99.009H52.0615V99C50.5399 99 48.9914 99.0537 47.4877 99.3133C40.918 100.414 35.0195 104.854 32.1284 110.86C29.8908 115.478 29.3537 120.893 30.8216 125.825C32.7192 132.663 38.3402 138.293 45.1606 140.236C48.8035 141.363 52.6433 141.086 56.3936 141.113H189.946C195.907 141.086 201.815 138.481 205.735 133.979C209.154 130.148 211.106 125.011 210.998 119.864C211.034 113.616 208 107.494 203.122 103.627H203.113ZM47.2998 122.263C48.1143 124.984 50.9337 126.998 53.789 126.72C56.0893 126.819 57.8436 125.163 59.2847 123.57C61.1912 121.726 64.6819 123.301 64.843 125.861C65.1116 128.125 63.0887 129.719 61.5403 131.008C56.4742 134.991 48.5887 134.48 44.0686 129.889C39.4411 125.548 38.6713 117.832 42.3769 112.677C44.4266 109.66 47.7563 107.575 51.3455 106.984C56.4742 106.098 62.0057 108.613 64.7446 113.044C66.0693 115.201 64.1359 118.423 61.5761 118.056C60.135 118.244 59.1236 117.107 58.3538 116.069C56.4742 113.733 52.8939 113.124 50.3161 114.637C47.7115 116.033 46.2346 119.452 47.3087 122.263H47.2998ZM81.8224 133.541C75.0647 134.892 67.8773 130.112 66.4542 123.391C64.485 116.185 69.8375 108.183 77.1681 107.065C84.0332 105.632 91.4086 110.645 92.6706 117.555C94.4249 124.697 89.0545 132.484 81.8314 133.549L81.8224 133.541ZM122.637 110.654V130.283C122.655 132.305 120.668 134.069 118.654 133.72C116.972 133.541 115.611 131.974 115.638 130.291V118.754L111.154 123.185C109.999 124.303 108.093 124.456 106.813 123.453C105.085 122.039 103.68 120.276 102.024 118.772L101.988 130.444C101.997 132.475 99.8669 134.131 97.9067 133.684C96.3135 133.415 94.962 131.885 95.1052 130.229V110.224V110.233C94.9888 107.566 98.4975 105.802 100.529 107.521L108.791 115.702L116.712 107.807C117.688 106.841 119.29 106.51 120.534 107.136C121.859 107.727 122.7 109.213 122.628 110.654H122.637ZM141.783 118.038C143.976 117.957 145.936 120.222 145.309 122.379C144.96 123.99 143.376 125.136 141.756 125.064C138.659 125.082 135.553 125.055 132.456 125.064L132.429 130.569C132.313 132.69 129.95 134.275 127.954 133.576C126.961 133.344 126.334 132.493 125.734 131.75C125.323 129.817 125.528 127.83 125.484 125.87L125.502 110.34V110.358C125.439 108.398 127.247 106.715 129.171 106.841H143.108C144.378 106.85 145.623 107.628 146.187 108.783C147.296 110.761 145.837 113.679 143.51 113.733L132.456 113.769V118.029H141.783V118.038ZM172.761 112.721L164.338 121.189V130.247C164.401 131.867 163.112 133.362 161.546 133.639C159.505 134.113 157.285 132.323 157.429 130.211V121.198L150.545 114.252C149.534 113.205 148.093 112.256 148.039 110.663V110.681C147.681 108.389 150.125 106.268 152.336 106.939C153.857 107.378 154.734 108.81 155.862 109.821L160.883 114.789L168.062 107.664C169.413 106.42 171.66 106.617 172.851 107.977C174.095 109.275 174.05 111.495 172.761 112.739V112.721ZM199.291 126.344C197.134 129.978 192.882 132.279 188.657 131.983C183.171 131.849 178.266 127.293 177.621 121.86C176.735 116.203 180.664 110.349 186.214 108.98C191.566 107.414 197.698 110.34 199.926 115.424C201.555 118.87 201.305 123.104 199.3 126.344H199.291Z" fill="#D9D9D9"/>
</g>
<defs>
<clipPath id="clip0_4072_3323">
<rect width="181" height="42.1217" fill="white" transform="translate(30 99)"/>
</clipPath>
</defs>
</svg>
