<?xml version="1.0" encoding="UTF-8"?>
<svg id="Layer_1" xmlns="http://www.w3.org/2000/svg" viewBox="0 0 202.22 47.06">
  <defs>
    <style>
      .cls-1 {
        fill: #fff;
        fill-rule: evenodd;
      }
    </style>
  </defs>
  <path class="cls-1" d="M54.14,16.67c-3.55.52-6.34,3.99-6.02,7.58.14,3.67,3.53,6.96,7.24,6.74,4.08.2,7.63-3.79,7.16-7.82-.24-4.04-4.41-7.31-8.38-6.5Z"/>
  <path class="cls-1" d="M193.41,5.17C189.23,1.82,184.02,0,178.66.01H24.65s0-.01,0-.01c-1.7,0-3.43.06-5.11.35C12.2,1.58,5.61,6.54,2.38,13.25-.12,18.41-.72,24.46.92,29.97c2.12,7.64,8.4,13.93,16.02,16.1,4.07,1.26,8.36.95,12.55.98h149.21c6.66-.03,13.26-2.94,17.64-7.97,3.82-4.28,6-10.02,5.88-15.77.04-6.98-3.35-13.82-8.8-18.14ZM19.33,25.99c.91,3.04,4.06,5.29,7.25,4.98,2.57.11,4.53-1.74,6.14-3.52,2.13-2.06,6.03-.3,6.21,2.56.3,2.53-1.96,4.31-3.69,5.75-5.66,4.45-14.47,3.88-19.52-1.25-5.17-4.85-6.03-13.47-1.89-19.23,2.29-3.37,6.01-5.7,10.02-6.36h0c5.73-.99,11.91,1.82,14.97,6.77,1.48,2.41-.68,6.01-3.54,5.6-1.61.21-2.74-1.06-3.6-2.22-2.1-2.61-6.1-3.29-8.98-1.6-2.91,1.56-4.56,5.38-3.36,8.52ZM57.9,38.59c-7.55,1.51-15.58-3.83-17.17-11.34-2.2-8.05,3.78-16.99,11.97-18.24h0c7.67-1.6,15.91,4,17.32,11.72,1.96,7.98-4.04,16.68-12.11,17.87ZM103.5,13.02v21.93c.02,2.26-2.2,4.23-4.45,3.84-1.88-.2-3.4-1.95-3.37-3.83v-12.89l-5.01,4.95c-1.29,1.25-3.42,1.42-4.85.3-1.93-1.58-3.5-3.55-5.35-5.23l-.04,13.04c.01,2.27-2.37,4.12-4.56,3.62-1.78-.3-3.29-2.01-3.13-3.86V12.54s0,.01,0,.01c-.13-2.98,3.79-4.95,6.06-3.03l9.23,9.14,8.85-8.82c1.09-1.08,2.88-1.45,4.27-.75,1.48.66,2.42,2.32,2.34,3.93ZM124.89,21.27c2.45-.09,4.64,2.44,3.94,4.85-.39,1.8-2.16,3.08-3.97,3-3.46.02-6.93-.01-10.39,0l-.03,6.15c-.13,2.37-2.77,4.14-5,3.36-1.11-.26-1.81-1.21-2.48-2.04-.46-2.16-.23-4.38-.28-6.57l.02-17.35v.02c-.07-2.19,1.95-4.07,4.1-3.93h15.57c1.42.01,2.81.88,3.44,2.17,1.24,2.21-.39,5.47-2.99,5.53l-12.35.04v4.76h10.42ZM159.5,15.33l-9.41,9.46v10.12c.07,1.81-1.37,3.48-3.12,3.79-2.28.53-4.76-1.47-4.6-3.83v-10.07s-7.69-7.76-7.69-7.76c-1.13-1.17-2.74-2.23-2.8-4.01v.02c-.4-2.56,2.33-4.93,4.8-4.18,1.7.49,2.68,2.09,3.94,3.22l5.61,5.55,8.02-7.96c1.51-1.39,4.02-1.17,5.35.35,1.39,1.45,1.34,3.93-.1,5.32ZM189.14,30.55c-2.41,4.06-7.16,6.63-11.88,6.3-6.13-.15-11.61-5.24-12.33-11.31-.99-6.32,3.4-12.86,9.6-14.39h0c5.98-1.75,12.83,1.52,15.32,7.2,1.82,3.85,1.54,8.58-.7,12.2Z"/>
</svg>