<?xml version="1.0" encoding="UTF-8"?>
<svg id="Layer_1" xmlns="http://www.w3.org/2000/svg" viewBox="0 0 227.58 41.18">
  <defs>
    <style>
      .cls-1 {
        fill: #fff;
      }
    </style>
  </defs>
  <polyline id="polyline3" class="cls-1" points="123.81 38.41 153.18 38.41 153.18 34.82 128.84 34.82 128.84 23.34 147.12 23.34 147.12 19.71 128.84 19.71 128.84 9.14 153.18 9.14 153.18 5.56 123.81 5.56 123.81 38.41"/>
  <polyline id="polyline5" class="cls-1" points="139.07 .25 135.1 4.72 147.58 .25 139.07 .25"/>
  <polyline id="polyline7" class="cls-1" points="202.48 34.82 202.48 5.56 197.89 5.56 197.89 38.41 227.58 38.41 227.58 34.82 202.48 34.82"/>
  <path id="path9" class="cls-1" d="M172.21,5.56l-16.7,32.84h5.65l4.27-8.5h20.03l4.31,8.5h5.59l-16.71-32.84h-6.43M167.54,25.79l7.87-15.69,7.96,15.69h-15.83Z"/>
  <path id="path11" class="cls-1" d="M107.87,24.67c7.52-2.01,8.26-7.61,8.22-9.61-.45-5.87-4.4-9.5-11.51-9.5h-20.7v32.84h4.72v-13.78h13.48l9.91,13.78h5.95s-7.14-9.27-10.07-13.73M103.94,20.75h-15.34v-11.3h15.87c3.65,0,5.71,1.71,6.45,3.87.49,1.49.18,3.44-.63,4.76-1.33,2.19-3.85,2.66-6.35,2.66Z"/>
  <path id="path13" class="cls-1" d="M55.53,0c-13.32,0-22.4,9.39-22.4,20.76,0,11.97,10.03,20.42,22.4,20.42s22.39-8.33,22.39-20.42c0-11.37-9.19-20.76-22.39-20.76M55.37,37.1c-9.22,0-16.81-7.41-16.81-16.33s7.24-16.67,17.17-16.67,16.81,7.76,16.81,16.67-7.95,16.33-17.16,16.33Z"/>
  <polyline id="polyline15" class="cls-1" points="21.24 17.18 24.64 17.18 30.83 5.56 25.85 5.56 21.24 17.18"/>
  <polyline id="polyline17" class="cls-1" points="4.59 34.82 4.59 5.56 0 5.56 0 38.41 29.69 38.41 29.69 34.82 4.59 34.82"/>
</svg>