<?xml version="1.0" encoding="UTF-8"?>
<svg id="Layer_1" xmlns="http://www.w3.org/2000/svg" viewBox="0 0 288.2 26.81">
  <defs>
    <style>
      .cls-1 {
        fill: #fff;
      }
    </style>
  </defs>
  <path class="cls-1" d="M199.26,26.81h-5.8V0h14.21c1.09-.02,2.18.18,3.19.58.91.37,1.74.91,2.44,1.6.67.67,1.2,1.47,1.55,2.35.36.91.54,1.89.54,2.87.04,1.43-.3,2.84-.98,4.09-.73,1.22-1.86,2.14-3.19,2.63v.08c.65.17,1.26.48,1.77.92.47.42.86.91,1.14,1.47.3.59.52,1.21.65,1.86.14.67.23,1.35.28,2.03.02.41.05.91.07,1.51.03.63.07,1.2.13,1.76.06.58.16,1.15.29,1.71.12.49.32.95.61,1.37h-5.8c-.34-.98-.54-2-.59-3.04-.08-1.17-.19-2.31-.34-3.38-.08-1.13-.52-2.21-1.26-3.08-.87-.73-2-1.08-3.14-.98h-5.8v10.47h0ZM199.26,12.13h6.35c1.08.08,2.14-.24,3-.9.73-.79,1.1-1.86,1-2.93.09-1.04-.27-2.08-1-2.83-.86-.65-1.92-.96-2.99-.88h-6.35v7.55ZM171.25,26.81h-5.83L175.38,0h5.94l9.86,26.81h-6.01l-1.99-5.97h-9.86l-2.08,5.97ZM174.83,16.45h6.83l-3.32-9.84h-.08l-3.43,9.84ZM140.13,26.81h-5.43V0h8.16l6.17,18.43h.07L154.93,0h8.16v26.81h-5.43V7.81h-.08l-6.46,19h-4.47l-6.46-18.81h-.07v18.81h0ZM102.51,26.81h-5.42V0h5.76l11,17.98h.07V0h5.42v26.81h-5.79l-10.96-17.95h-.08v17.95h0ZM5.8,26.81H0V0h5.8v10.29h10.67V0h5.8v26.81h-5.8v-11.56H5.8v11.56ZM282.4,26.81l-10.96-17.95h-.07v17.95h-5.43V0h5.76l11,17.98h.07V0h5.42v26.81h-5.8ZM242.02,26.81V0h19.7v4.95h-13.91v5.75h12.77v4.58h-12.77v6.57h14.21v4.96h-20.01ZM220.13,26.81V0h5.8v21.85h12.84v4.96h-18.64ZM93.17,26.81h-20.01V0h19.71v4.95h-13.92v5.75h12.78v4.58h-12.78v6.57h14.21v4.96h0ZM69.92,26.81h-18.64V0h5.8v21.85h12.85v4.96h0ZM47.36,26.81h-20.01V0h19.71v4.95h-13.92v5.75h12.77v4.58h-12.77v6.57h14.21v4.96h0Z"/>
</svg>