<svg width="240" height="240" viewBox="0 0 240 240" fill="none" xmlns="http://www.w3.org/2000/svg">
<g clip-path="url(#clip0_4072_3397)">
<path d="M187.112 97C177.451 97 169.492 104.81 169.492 114.62C169.492 124.43 177.302 132.24 187.112 132.24C196.922 132.24 204.732 124.43 204.732 114.62C204.732 104.81 196.773 97 187.112 97ZM200.748 104.81C199.897 105.38 198.905 105.95 197.905 106.512C197.335 105.372 196.624 104.24 195.773 103.248C196.484 102.818 197.195 102.256 197.765 101.826C199.046 102.537 200.038 103.669 200.748 104.81ZM193.36 98.9917C194.781 99.562 196.062 100.273 197.335 101.264C196.765 101.835 196.054 102.256 195.343 102.686C194.492 101.694 193.5 100.843 192.5 99.9835C192.781 99.5537 193.071 99.2727 193.352 98.9917M194.781 102.967C193.79 103.537 192.79 103.818 191.798 104.248C191.368 103.256 190.947 102.256 190.376 101.405C190.947 101.124 191.517 100.835 191.938 100.413C192.93 101.124 193.93 101.975 194.781 102.967ZM192.649 98.7025C192.368 98.9835 192.079 99.2727 191.938 99.5537C190.947 98.9835 190.095 98.4132 188.955 97.9917C190.236 97.9917 191.509 98.2727 192.649 98.7025ZM191.368 99.9835C190.938 100.264 190.517 100.554 190.087 100.694C189.517 99.843 188.947 99.1322 188.385 98.281C189.376 98.7107 190.376 99.2727 191.368 99.9835ZM187.393 98.4215C188.104 99.1322 188.674 99.9835 189.236 100.975C188.666 101.116 188.095 101.256 187.393 101.256V98.4215ZM187.393 101.975C188.104 101.975 188.955 101.835 189.666 101.545C190.236 102.397 190.657 103.388 191.087 104.388C189.947 104.669 188.674 104.818 187.393 104.959V101.975ZM186.682 98.4215V101.264C186.112 101.264 185.542 101.124 184.839 100.983C185.55 100.132 186.12 99.281 186.682 98.4298M184.269 100.694C183.839 100.554 183.277 100.264 182.988 99.9835C183.98 99.4132 184.98 98.843 185.972 98.4215C185.261 99.1322 184.691 99.843 184.269 100.694ZM185.261 97.8512C184.269 98.281 183.269 98.843 182.277 99.4132C181.996 99.1322 181.707 98.843 181.567 98.562C182.707 98.281 183.98 97.9917 185.261 97.8512ZM197.335 127.975C195.062 126.694 194.922 124.851 195.062 124.281C195.203 123.57 195.633 123.851 195.914 123.851C197.476 123.851 199.038 123.421 201.029 121.298C203.302 119.025 204.013 113.909 200.459 110.645C196.765 107.091 192.79 107.661 190.228 110.926C189.657 111.636 188.385 112.066 187.385 112.066C185.682 112.066 186.815 113.347 186.815 113.628C186.815 113.909 186.534 114.058 186.385 114.058C185.815 113.917 186.104 114.769 186.104 114.909C186.104 115.05 185.823 115.339 185.823 115.339C185.112 115.339 185.253 115.909 185.393 116.19C185.393 116.331 185.393 116.62 185.112 116.76C184.831 116.901 184.682 117.471 184.682 117.901C184.682 118.612 185.393 119.182 186.525 120.033C187.666 120.884 187.806 121.736 187.806 122.306C187.806 122.876 187.947 123.868 188.087 124.438C188.368 125.149 188.368 126.57 186.806 126.57C184.814 126.711 181.41 128.132 181.12 128.273C179.98 128.702 178.567 128.843 177.426 128.554C176.856 128.124 176.286 127.702 175.724 127.132C175.443 126.421 175.864 125.57 176.294 125C177.005 125.711 177.856 125.57 178.426 125.57C178.996 125.57 181.55 125.14 181.98 125C182.41 124.86 182.55 124.86 182.691 125C183.682 125.43 185.104 125.43 185.674 123.579C186.244 121.587 184.963 122.157 184.682 122.298C184.542 122.438 184.253 122.298 184.401 122.157C184.682 121.727 184.261 121.727 184.12 121.727C183.55 121.727 182.839 122.298 182.699 122.438C182.418 122.579 182.269 122.579 182.129 122.579C181.418 122.149 179.286 122.719 178.575 121.587C178.575 121.306 178.005 116.612 177.724 115.76C177.724 115.62 177.583 115.331 177.864 115.05C178.434 114.198 179.856 115.05 180.707 115.05C181.699 115.05 181.848 114.62 182.129 114.339C182.41 114.058 182.558 114.198 182.699 114.058C182.839 113.917 182.699 113.777 182.699 113.628C182.699 113.479 182.839 113.628 182.98 113.488C183.12 113.347 182.98 113.058 182.98 112.917C183.261 112.488 183.831 112.777 183.55 111.926C183.41 111.355 183.691 110.785 183.98 110.504C184.41 109.934 186.253 107.38 183.129 104.678C180.145 102.124 177.021 102.405 175.029 104.537C173.038 106.669 174.038 109.793 174.178 110.645C174.319 111.496 173.748 112.207 173.038 112.488C172.467 112.769 171.195 113.628 170.335 114.331C170.476 107.512 174.6 101.545 180.848 99.1322C181.129 99.4132 181.418 99.843 181.699 100.124C180.988 100.694 179.426 101.967 179.426 101.967C179.426 101.967 179.567 101.967 179.856 102.107C179.996 102.107 180.286 102.248 180.286 102.248C180.286 102.248 181.567 101.107 182.277 100.686C182.707 101.116 183.269 101.397 183.839 101.678C183.558 102.248 182.699 103.669 182.699 103.669C182.699 103.669 182.839 103.81 182.98 103.81C183.12 103.95 183.261 103.95 183.261 103.95C183.261 103.95 184.112 102.388 184.401 101.818C185.112 102.099 185.823 102.248 186.534 102.248V105.091C186.104 105.091 185.112 105.091 184.691 104.95H184.41L184.55 105.231C184.691 105.372 184.691 105.512 184.831 105.661H186.534V110.917H187.244V109.636C188.385 109.636 189.236 109.496 190.228 109.355L191.219 108.504H190.649C189.509 108.645 188.517 108.785 187.666 108.785H187.236V105.521C188.517 105.521 189.938 105.38 191.211 104.95C191.492 105.802 192.203 107.934 192.203 107.934L192.914 107.653C192.914 107.653 192.203 105.521 191.922 104.669C193.062 104.388 194.054 103.818 195.046 103.388C195.897 104.38 196.608 105.521 197.178 106.653C196.608 106.934 195.757 107.223 195.757 107.223C196.467 107.364 197.038 107.504 197.038 107.504C197.038 107.504 197.319 107.364 197.467 107.364C197.467 107.504 197.608 107.793 197.608 107.793L198.6 108.223L198.459 107.942C198.459 107.942 198.178 107.231 198.029 107.091C199.021 106.661 200.021 106.099 201.013 105.388C202.856 108.091 203.715 111.355 203.715 114.62C203.996 120.017 201.302 124.851 197.319 127.975" fill="#D9D9D9"/>
<path d="M167.924 101.687L167.643 101.968C166.652 102.82 164.23 105.233 164.66 107.935V108.076L164.8 108.646L165.081 108.365C166.503 107.084 167.635 104.811 168.065 102.258L168.205 101.547L167.924 101.687Z" fill="#D9D9D9"/>
<path d="M163.095 106.232L162.954 106.513C162.814 106.942 162.525 107.934 162.384 109.066C162.103 110.769 162.244 113.331 163.665 115.174L163.806 115.455L163.946 115.736L164.227 114.595C164.508 112.604 164.087 108.488 163.376 106.637L163.095 106.066V106.207V106.232Z" fill="#D9D9D9"/>
<path d="M161.393 113.34V113.621C161.253 115.324 161.393 119.729 164.947 122.142L165.377 122.423V121.853C165.377 120.15 163.385 115.175 161.964 113.473L161.534 112.902L161.393 113.332V113.34Z" fill="#D9D9D9"/>
<path d="M161.969 121.149V121.43C162.539 123.983 164.812 127.967 168.506 129.24L169.076 129.38L168.936 128.81C168.225 126.967 164.671 122.562 162.399 121.14L161.969 120.859V121.14V121.149Z" fill="#D9D9D9"/>
<path d="M169.499 105.523L169.069 105.664C166.366 107.366 165.094 109.358 165.094 111.912V112.482L165.524 112.201C166.945 110.92 168.937 107.796 169.358 106.094L169.499 105.383V105.523Z" fill="#D9D9D9"/>
<path d="M167.794 110.93L167.654 111.211C166.943 111.922 164.67 114.335 164.811 117.318C164.811 117.748 164.951 118.31 165.092 118.74L165.232 119.17L165.513 118.74C166.654 117.178 168.067 113.203 167.927 111.351V110.781L167.786 110.922L167.794 110.93Z" fill="#D9D9D9"/>
<path d="M167.937 116.184L167.796 116.465C166.656 118.167 166.094 119.878 166.094 121.581C166.094 122.721 166.523 123.853 167.234 124.994L167.515 125.424L167.656 124.994C168.085 124.002 168.507 121.019 168.507 118.597C168.507 117.746 168.366 117.035 168.226 116.605L168.085 116.035L167.945 116.176L167.937 116.184Z" fill="#D9D9D9"/>
<path d="M169.208 121.72L169.068 122.001C168.787 123.141 168.498 124.133 168.638 125.265C168.638 127.538 169.779 129.389 171.762 130.662L172.043 130.802L172.184 130.373V129.943C172.184 128.1 170.762 123.265 169.63 121.844L169.349 121.414L169.208 121.695V121.72Z" fill="#D9D9D9"/>
<path d="M165.374 129.109L165.515 129.39C166.936 131.803 169.49 135.076 174.184 134.217H174.614L174.333 133.936C173.482 132.655 167.796 129.39 165.812 129.109L165.242 128.969L165.383 129.109H165.374Z" fill="#D9D9D9"/>
<path d="M172.344 135.355L171.633 135.495L172.344 135.776C175.327 137.057 179.021 137.338 181.294 136.628C182.145 136.347 182.575 135.917 183.137 135.347C186.972 135.776 190.525 138.9 192.658 141.454L192.798 141.595H192.939C193.22 141.454 193.509 141.165 193.649 141.024L193.79 140.884L193.649 140.743C191.517 137.9 188.112 136.198 187.963 136.057C184.839 134.636 179.443 133.504 172.335 135.347" fill="#D9D9D9"/>
<path d="M172.476 127.406V127.687C172.906 130.53 174.038 134.224 178.873 133.795H179.154L179.014 133.514C178.733 132.233 174.328 128.538 172.766 127.547L172.336 127.266L172.476 127.406Z" fill="#D9D9D9"/>
<path d="M206.008 101.402L206.148 102.113C206.578 104.667 207.71 106.94 209.132 108.221L209.413 108.502L209.553 107.931V107.791C209.983 105.088 207.562 102.675 206.57 101.824L206.289 101.543L206.008 101.402Z" fill="#D9D9D9"/>
<path d="M210.988 105.949L210.707 106.519C209.996 108.362 209.715 112.486 209.855 114.478L210.136 115.619L210.277 115.478L210.417 115.197C211.979 113.354 211.979 110.933 211.698 109.09C211.558 107.809 211.269 106.957 211.128 106.536L210.988 106.255V105.974V105.949Z" fill="#D9D9D9"/>
<path d="M212.827 113.059L212.398 113.629C210.976 115.472 208.984 120.307 208.984 122.009V122.579L209.414 122.298C212.968 120.026 213.108 115.621 212.968 113.778V113.497L212.827 113.067V113.059Z" fill="#D9D9D9"/>
<path d="M212.256 120.867L211.686 121.148C209.413 122.57 205.859 126.975 205.148 128.818L205.008 129.388L205.578 129.247C209.272 128.107 211.686 123.991 212.115 121.437V121.156L212.256 120.875V120.867Z" fill="#D9D9D9"/>
<path d="M204.727 105.238L204.867 105.949C205.437 107.792 207.14 110.924 208.702 112.197L209.132 112.478V111.908C209.272 109.354 207.991 107.362 205.297 105.66L205.016 105.519L204.735 105.238H204.727Z" fill="#D9D9D9"/>
<path d="M206.29 110.781V111.351C206.15 113.194 207.712 117.318 208.703 118.74L208.984 119.17L209.125 118.74C209.265 118.17 209.406 117.748 209.406 117.318C209.546 114.335 207.274 111.922 206.563 111.211L206.422 111.071L206.282 110.79L206.29 110.781Z" fill="#D9D9D9"/>
<path d="M206.148 115.895L206.008 116.465C205.867 116.895 205.727 117.605 205.727 118.457C205.727 120.87 206.008 123.853 206.578 124.853L206.718 125.283L206.999 124.853C207.71 123.861 208.14 122.721 208.14 121.44C208.14 119.878 207.57 118.027 206.437 116.324L206.297 116.043L206.156 115.903L206.148 115.895Z" fill="#D9D9D9"/>
<path d="M204.866 121.438L204.585 121.867C203.444 123.289 202.031 128.115 202.031 129.966V130.396L202.172 130.826L202.453 130.685C204.444 129.404 205.436 127.561 205.577 125.289C205.577 124.297 205.436 123.157 205.147 122.024L205.006 121.743L204.866 121.462V121.438Z" fill="#D9D9D9"/>
<path d="M208.989 128.828L208.419 128.969C206.427 129.25 200.749 132.522 199.898 133.795L199.617 134.076H200.047C204.733 134.927 207.295 131.663 208.716 129.25L208.857 128.969L208.997 128.828H208.989Z" fill="#D9D9D9"/>
<path d="M186.405 136.065C186.264 136.065 182.851 137.908 180.719 140.751L180.578 140.891L180.719 141.032C180.859 141.172 181.289 141.461 181.429 141.602H181.57L181.71 141.461C183.843 138.908 187.396 135.635 191.231 135.354C191.801 135.924 192.372 136.346 193.074 136.635C195.206 137.346 199.041 137.065 202.024 135.784L202.735 135.503L202.024 135.362C194.776 133.519 189.38 134.651 186.396 136.073" fill="#D9D9D9"/>
<path d="M201.74 127.121L201.31 127.402C199.748 128.394 195.484 132.088 195.062 133.369L194.922 133.65H195.203C199.889 134.08 201.029 130.386 201.6 127.543V127.262L201.74 127.121Z" fill="#D9D9D9"/>
<path d="M81.8438 98.7031H87.8107V104.1H81.8438V98.7031ZM82.4057 110.356H87.3809V136.778H82.4057V110.356Z" fill="#D9D9D9"/>
<path d="M44.7599 110.356H49.7351V136.777H44.9086V132.943H44.7681C42.7764 136.207 39.3714 137.629 35.6772 137.629C30.14 137.629 27.0078 133.364 27.0078 128.108V110.348H31.983V125.976C31.983 130.521 32.9748 133.934 37.8095 133.934C39.8012 133.934 42.6359 132.943 43.6359 130.1C44.6276 127.686 44.6276 124.563 44.6276 123.852V110.356H44.7681H44.7599Z" fill="#D9D9D9"/>
<path d="M59.6783 114.19C61.5213 110.925 65.075 109.504 67.7775 109.504C69.6205 109.504 77.7197 109.934 77.7197 118.454V136.636H72.7444V120.016C72.7444 115.611 70.9015 113.339 66.637 113.339C66.637 113.339 63.9345 113.198 61.8106 115.33C61.0998 116.041 59.6783 117.173 59.6783 122.438V136.785H54.7031V110.363H59.6783V114.198V114.19Z" fill="#D9D9D9"/>
<path d="M108.26 118.735C107.979 115.47 106.417 113.198 102.864 113.198C98.1776 113.198 96.3264 117.322 96.3264 123.429C96.3264 129.537 98.1694 133.66 102.864 133.66C106.128 133.66 108.12 131.528 108.401 127.694H113.376C112.946 133.66 108.55 137.214 102.723 137.214C94.3429 137.214 90.9297 131.247 90.9297 123.578C90.9297 115.908 94.7644 109.512 103.145 109.512C108.682 109.512 112.806 113.065 113.087 118.743H108.26V118.735Z" fill="#D9D9D9"/>
<path d="M120.764 124.421C120.334 128.966 122.326 133.801 127.301 133.801C131.136 133.801 133.128 132.239 133.698 128.404H138.954C138.103 134.371 133.557 137.355 127.301 137.355C118.921 137.355 115.508 131.388 115.508 123.718C115.508 116.049 119.343 109.652 127.723 109.652C135.533 109.793 139.227 114.768 139.227 122.016V124.429H120.756L120.764 124.421ZM134.119 121.008C134.26 116.603 132.276 113.198 127.442 113.198C123.318 113.198 120.905 116.752 120.905 121.008H134.119Z" fill="#D9D9D9"/>
<path d="M144.92 136.5V113.773H140.375V110.36H144.92V104.674C145.061 98.9878 149.466 97.4258 153.16 97.4258C154.301 97.4258 155.573 97.7068 156.714 97.996V102.12C155.863 102.12 155.011 101.98 154.16 101.98C151.317 101.98 149.755 102.69 149.896 105.533V110.36H156.003V113.773H149.896V136.5H144.92Z" fill="#D9D9D9"/>
</g>
<defs>
<clipPath id="clip0_4072_3397">
<rect width="186" height="44.6116" fill="white" transform="translate(27 97)"/>
</clipPath>
</defs>
</svg>
