<svg width="240" height="240" viewBox="0 0 240 240" fill="none" xmlns="http://www.w3.org/2000/svg">
<g clip-path="url(#clip0_4072_3109)">
<g clip-path="url(#clip1_4072_3109)">
<path d="M81.1154 101.203C80.2157 103.752 79.1018 106.494 78.2878 109.3C77.6452 111.485 77.6452 113.777 78.3949 115.962C79.7659 119.882 82.6791 121.853 86.7063 122.346C90.4336 122.796 94.0109 122.003 97.5668 121.06C107.485 118.426 117.381 115.791 127.299 113.156C136.725 110.65 146.171 108.144 155.597 105.659C161.166 104.181 166.735 102.703 172.369 101.374C170.356 102.253 168.342 103.131 166.307 104.009C159.667 106.858 153.005 109.686 146.364 112.535C137.753 116.219 129.141 119.882 120.509 123.567C112.09 127.165 103.672 130.786 95.2319 134.363C90.2836 136.462 85.2282 138.133 79.7873 138.326C77.0668 138.433 74.432 138.09 72.0328 136.719C68.0057 134.363 66.3134 130.786 66.5919 126.223C66.8704 121.767 68.6055 117.804 70.8975 114.056C73.8322 109.236 77.5809 105.08 81.1154 101.203Z" fill="#D9D9D9"/>
</g>
</g>
<defs>
<clipPath id="clip0_4072_3109">
<rect width="240" height="240" fill="white"/>
</clipPath>
<clipPath id="clip1_4072_3109">
<rect width="105.799" height="37.1013" fill="white" transform="translate(66.5781 101.207)"/>
</clipPath>
</defs>
</svg>
