<svg width="240" height="240" viewBox="0 0 240 240" fill="none" xmlns="http://www.w3.org/2000/svg">
<g clip-path="url(#clip0_4072_3249)">
<path d="M84.9966 98.973C75.2045 99.0443 67.1953 109.928 67.1953 119.42C67.1953 129.412 73.0649 141.593 84.9966 141.558C96.9284 141.515 103.119 128.399 103.119 119.42C103.119 109.507 94.7888 98.9017 84.9966 98.973ZM84.9966 99.3439C93.1912 99.3439 95.4021 108.394 95.4021 119.413C95.4021 133.955 92.7348 141.13 84.9966 141.116C77.2585 141.101 74.7409 135.232 74.7409 119.413C74.7409 109.507 76.802 99.3439 84.9966 99.3439Z" fill="#D9D9D9"/>
<path d="M106.352 119.686C106.309 108.888 114.953 99.3168 122.27 98.8461C124.916 98.6607 128.311 99.866 130.294 100.729C131.734 101.357 134.673 100.451 135.193 98.7891H135.479V113.502H135.193C135.193 112.875 132.469 99.217 122.263 99.217C114.725 99.217 113.997 112.468 113.997 119.693C113.997 126.917 114.218 141.21 123.012 141.21C127.27 141.21 130.422 139.348 131.242 135.576V124.107H127.669V123.622H141.526V124.107H138.11V140.868H137.832C137.832 140.868 137.276 138.45 134.459 138.457C130.857 138.464 127.455 141.602 123.311 141.559C112.35 141.459 106.395 130.483 106.352 119.686Z" fill="#D9D9D9"/>
<path d="M40.3148 100.422H36V99.9375H51.1197V100.422H47.3255L58.1304 129.756C61.511 119.358 64.1284 111.67 67.6444 100.422H63.893V99.9375H71.8737V100.422H68.2364L55.1065 141.353L40.3148 100.422Z" fill="#D9D9D9"/>
<path d="M143.648 131.33L143.577 100.378H139.469V99.9141H154.603V100.378H150.495L150.587 134.319C151.493 138.205 153.112 141.151 158.632 141.201C164.152 141.244 167.904 137.934 169.302 133.413V100.378H164.602V99.9283H203.064L203.143 114.791H202.772C202.059 105.199 198.357 101.569 191.881 100.513C189.656 100.149 187.317 100.42 184.364 100.399V119.363C186.939 119.563 189.678 119.399 191.525 117.815C193.201 116.375 193.679 113.037 193.8 111.689H194.128V128.199H193.778C193.679 128.199 193.543 124.056 191.525 122.087C189.499 120.112 186.918 119.62 184.364 120.09V140.352C187.966 140.352 190.84 140.659 193.336 139.974C200.918 137.892 203.592 131.494 203.571 125.083H203.991V140.837H173.823V140.359H177.232V100.378H169.865V133.406C169.031 136.565 165.978 141.793 158.154 141.757C150.88 141.721 143.662 138.441 143.648 131.33Z" fill="#D9D9D9"/>
</g>
<defs>
<clipPath id="clip0_4072_3249">
<rect width="168" height="42.9771" fill="white" transform="translate(36 98.7812)"/>
</clipPath>
</defs>
</svg>
