<?xml version="1.0" encoding="UTF-8"?>
<svg id="Layer_1" xmlns="http://www.w3.org/2000/svg" viewBox="0 0 280.68 68.97">
  <defs>
    <style>
      .cls-1 {
        fill: #fff;
      }
    </style>
  </defs>
  <path class="cls-1" d="M38.22,17.51c-.03-1.35.04-2.6.39-3.8,1.47-5.03,4.69-8.4,9.67-10.1.74-.25,1.38-.21,2.09.17,9.64,5.23,15.85,13.1,18.01,23.87,2.13,10.62-.27,20.28-7.11,28.7-5.41,6.66-12.45,10.77-20.97,12.12-10.63,1.69-20.15-.94-28.33-7.93-6.12-5.23-9.9-11.89-11.36-19.83-.45-2.43-.7-4.89-.58-7.36.49-9.82,4.3-18.09,11.65-24.67C16.23,4.61,21.53,1.98,27.5.74c3.26-.67,6.55-.92,9.9-.61,3.59.33,7.05,1.12,10.38,2.48.17.07.32.16.7.34-.74,0-1.25,0-1.77,0-4.66,0-9.04,1.22-13.23,3.16-6.95,3.21-12.23,8.13-15.51,15.11-2.05,4.36-2.97,8.93-2.53,13.73.8,8.92,6.61,16.12,14.83,18.29,9.36,2.47,19.2-2.47,22.43-12.39,1.35-4.14,1.17-8.28-.32-12.34-1.53-4.17-4.54-7.01-8.48-8.89-1.52-.72-3.16-1.2-4.75-1.79-.27-.1-.56-.18-.94-.31Z"/>
  <path class="cls-1" d="M152.48,48.67c-.11-.54-.23-1.11-.37-1.75-.19.13-.36.21-.48.33-2.83,2.8-7.65,2.38-10.2.81-2.51-1.56-4.08-3.8-4.93-6.56-1.26-4.08-1.23-8.14.64-12.04,1.57-3.28,4.17-5.38,7.76-6.16,1.98-.43,3.96-.3,5.92.19.31.08.62.14,1.09.24.09-3.28,0-6.44.06-9.57.82-.23,4.99-.28,6.25-.07v34.53c-.79.2-4.27.24-5.74.06ZM151.95,35.48c0-1.84,0-3.68,0-5.52,0-.46-.03-.87-.57-1.06-1.57-.55-3.16-.73-4.78-.33-1.98.49-3.22,1.82-4.01,3.64-.85,1.96-.85,4.01-.53,6.06.19,1.21.58,2.35,1.29,3.37,1.99,2.8,5.37,2.93,7.82.86.54-.45.8-.99.78-1.73-.04-1.77-.01-3.53-.01-5.3Z"/>
  <path class="cls-1" d="M280.65,37.77h-16.21c-.23,2.21.98,4.4,2.92,5.35,1.42.7,2.94.91,4.52.77,2.17-.19,4.19-.81,6.1-2.14.56,1.72,1.1,3.37,1.65,5.03-1.12.89-2.35,1.36-3.63,1.71-2.8.78-5.65,1.05-8.53.53-4.56-.81-7.47-3.57-8.81-7.89-1.19-3.84-1.06-7.72.59-11.44,1.71-3.84,4.71-6,8.89-6.57,1.68-.23,3.32-.05,4.92.39,2.71.74,4.67,2.43,5.94,4.93.67,1.32,1.12,2.72,1.37,4.18.28,1.64.38,3.28.28,5.13ZM274.09,33.15c.1-2.85-2.13-5.24-4.7-5.09-2.45.15-5,2.3-4.75,5.09h9.45Z"/>
  <path class="cls-1" d="M215.19,49.28c-5.27.17-9.32-3.04-10.94-7.43-1.91-5.17-1.54-10.14,1.84-14.64,1.8-2.4,4.33-3.67,7.34-4.06,1.49-.19,2.95-.15,4.4.15,3.6.74,6.23,2.84,7.81,6.1,2.23,4.64,2.12,9.33-.23,13.91-1.84,3.58-5.52,6.1-10.21,5.97ZM220.91,36.07c0-.33.03-.66,0-.99-.15-1.63-.54-3.17-1.5-4.55-1.9-2.73-6.01-2.92-8.05-.49-.56.66-1.04,1.44-1.34,2.25-.91,2.5-.9,5.05-.02,7.56.25.72.65,1.4,1.09,2.03,1.79,2.54,5.98,2.64,7.91.25.52-.65.94-1.41,1.27-2.17.53-1.23.7-2.54.64-3.88Z"/>
  <path class="cls-1" d="M119.46,49.3c-5.12.15-9.55-3.8-10.88-9.66-.78-3.45-.5-6.81,1.04-10.01,1.85-3.85,4.88-6.03,9.18-6.51,6.74-.76,11.38,3.48,12.8,8.63,1.02,3.69.84,7.3-.77,10.77-2.09,4.46-5.64,6.75-11.37,6.77ZM114.46,36.01c-.05,1.97.33,3.78,1.34,5.43,1.83,3,6.24,3.18,8.24.68.58-.73,1.08-1.59,1.39-2.47.84-2.4.77-4.84,0-7.25-.32-.99-.88-1.84-1.6-2.6-1.76-1.84-5.04-1.84-6.78-.38-.87.73-1.49,1.62-1.9,2.66-.51,1.28-.72,2.61-.67,3.93Z"/>
  <path class="cls-1" d="M182.93,48.7h-5.65c-.12-.56-.23-1.09-.37-1.75-.33.24-.58.43-.83.62-3.03,2.42-8.55,2.36-11.58-.73-2.86-2.91-3.18-8.78,1.12-11.58,1.7-1.11,3.58-1.74,5.54-2.09,1.3-.24,2.63-.33,3.94-.5.47-.06.94-.14,1.38-.21.42-2.48-.85-4.09-3.25-4.28-2.03-.17-3.87.36-5.59,1.39-.44.26-.86.55-1.32.84-.1-.15-.2-.26-.26-.38-.61-1.29-1.22-2.59-1.85-3.93,1.34-1.13,2.88-1.79,4.5-2.3,2.61-.82,5.26-1.04,7.96-.4,3.33.79,5.26,2.95,6.02,6.2.18.78.26,1.6.26,2.41.03,5.34.02,10.68.02,16.03,0,.18-.03.36-.05.66ZM176.74,36.92c-2.07.13-3.89.29-5.65.89-.41.14-.82.35-1.17.6-1.08.78-1.62,2.36-1.26,3.53.37,1.19,1.42,1.92,2.87,2.04,1.45.12,2.77-.26,4.02-.96.84-.48,1.35-1.06,1.21-2.12-.1-.72-.02-1.47-.02-2.21v-1.77Z"/>
  <path class="cls-1" d="M253.8,48.72h-6.29c0-.43,0-.83,0-1.22,0-4.38.02-8.77-.02-13.15,0-.94-.15-1.91-.42-2.82-.75-2.56-2.91-3.76-5.87-2.9-1.19.34-2.14,1.13-3.06,1.93-.39.33-.4.76-.4,1.21,0,2.21,0,4.42,0,6.63,0,3.02,0,6.04,0,9.06v1.25h-6.21v-25h5.62c.13.59.27,1.19.43,1.89.37-.24.67-.44.97-.63,2.74-1.74,5.69-2.33,8.88-1.63,2.76.6,4.55,2.29,5.54,4.88.55,1.42.84,2.91.85,4.42.05,5.19.03,10.39.03,15.58,0,.14-.03.28-.06.5Z"/>
  <path class="cls-1" d="M189.81,23.54c.1-1.23.15-2.37.29-3.5.39-3.24,2.41-6.18,6.7-6.63,2.21-.23,4.33,0,6.43.71.1.03.21.07.31.12.06.03.11.09.26.22-.23,1.64-.46,3.34-.7,5.1-1.28-.54-2.55-.72-3.86-.65-1.66.09-2.79,1.09-2.96,2.72-.06.61-.01,1.24-.01,2,1.76.07,3.48,0,5.28.05.19.83.07,1.63.09,2.43.02.81,0,1.61,0,2.5-1.77.28-3.51-.04-5.36.21-.05,1.33-.02,2.65-.02,3.96,0,1.33,0,2.65,0,3.98v11.97h-6.34v-19.93c-1.13-.04-2.18-.08-3.28-.12v-4.93c1.06-.24,2.18.11,3.18-.19Z"/>
  <path class="cls-1" d="M100.94,23.69c.36-.02.65-.04.94-.04,1.8,0,3.61,0,5.52,0-3.42,8.41-6.81,16.72-10.21,25.06h-5.59c-3.47-8.26-6.97-16.6-10.5-25.01h6.75c2.16,5.47,4.33,10.97,6.61,16.74,1.26-2.97,2.25-5.76,3.31-8.51,1.06-2.74,2.11-5.48,3.17-8.24Z"/>
</svg>