<?xml version="1.0" encoding="UTF-8"?>
<svg id="Layer_1" xmlns="http://www.w3.org/2000/svg" viewBox="0 0 198.6 60.51">
  <defs>
    <style>
      .cls-1 {
        fill: #fff;
      }
    </style>
  </defs>
  <path class="cls-1" d="M0,0h48.42v48.44H0V0ZM11.28,37.13h25.79c.26-1.88.18-24.98-.08-25.81H11.28v25.81Z"/>
  <path class="cls-1" d="M162.43,48.98h-8.69v-29.65h8.62v3.15c2.07-2.85,4.87-4,8.21-3.9,3.32.1,6.04,1.34,7.58,4.62.24-.32.43-.57.62-.83.98-1.34,2.25-2.31,3.8-2.88,2.62-.97,5.34-1.2,8.06-.65,3.83.77,6.18,3.23,7.21,6.9.44,1.58.69,3.25.71,4.89.09,5.88.04,11.76.04,17.64,0,.2-.03.4-.05.68h-8.65c0-.49,0-.94,0-1.38,0-5.01.02-10.02-.02-15.03,0-.98-.12-1.99-.35-2.94-.38-1.61-1.38-2.76-3.04-3.1-1.79-.36-3.38.1-4.58,1.55-1.03,1.24-1.39,2.7-1.4,4.28,0,3.44,0,6.87,0,10.31,0,2.07,0,4.14,0,6.19-.91.26-6.21.34-8.69.13-.02-.41-.05-.85-.05-1.29,0-5.09.02-10.19-.02-15.28,0-1.02-.15-2.07-.44-3.05-1.05-3.57-5.18-3.57-7.02-1.78-.93.9-1.49,1.98-1.68,3.24-.11.73-.17,1.48-.17,2.22-.01,4.84,0,9.69,0,14.53v1.4Z"/>
  <path class="cls-1" d="M58.28,19.29h8.62v3.56c2.09-3.09,4.98-3.93,8.2-4.1,9.19-.5,15.04,7.36,15.26,14.35.14,4.46-.93,8.44-3.95,11.78-3.83,4.24-8.63,5.45-14.09,4.32-2.15-.45-4.03-1.48-5.35-3.73v14.8c-.98.26-6.59.33-8.59.13-.25-.87-.36-38.9-.1-41.11ZM81.62,34.22c.18-4.27-3.52-7.56-7.38-7.53-4.44.03-7.8,3.16-7.82,7.39-.02,4.27,3.3,7.52,7.68,7.53,4.24.01,7.51-3.2,7.52-7.39Z"/>
  <path class="cls-1" d="M132.5,18.34c8.3-.1,14.37,5.62,15.94,11.18,2.66,9.42-2.78,17.43-11.12,19.72-6.8,1.87-13.74-.13-18.09-5.89-2.29-3.03-3.12-6.48-2.97-10.26.28-7.27,6.28-13.41,13.53-14.53.9-.14,1.81-.15,2.72-.22ZM140.3,34.14c0-4.4-3.31-7.7-7.65-7.77-4.3-.08-7.73,3.66-7.69,7.76.05,4.48,3.31,7.83,7.73,7.8,4.36-.03,7.61-3.37,7.61-7.79Z"/>
  <path class="cls-1" d="M95.01,19.29h8.64v3.47c2.74-3.8,6.52-4.48,10.84-3.96v8.2c-.55-.05-1.07-.14-1.59-.12-1.23.03-2.5-.06-3.7.19-3.35.7-5.37,3.23-5.48,6.75-.06,1.99-.02,3.97-.02,5.96,0,2.65,0,5.3,0,7.95v1.26h-8.69v-29.69Z"/>
</svg>