<svg width="240" height="240" viewBox="0 0 240 240" fill="none" xmlns="http://www.w3.org/2000/svg">
<g clip-path="url(#clip0_4072_3354)">
<path d="M156.845 153.857V137.894C157.462 137.708 162.431 137.662 163.58 137.832V153.764C163.835 153.803 164.013 153.849 164.198 153.849C171.82 153.849 179.443 153.857 187.066 153.849C188.007 153.849 188.956 153.779 189.89 153.64C191.286 153.424 191.95 152.352 191.556 151.017C191.294 150.13 190.569 149.791 189.735 149.652C189.465 149.605 189.18 149.629 188.902 149.629C181.781 149.629 174.66 149.629 167.538 149.629C167.207 149.629 166.875 149.629 166.528 149.629C166.289 148.98 166.505 148.379 166.582 147.792C166.859 145.586 167.569 143.541 168.95 141.751C170.578 139.653 172.723 138.418 175.3 137.963C176.226 137.801 177.175 137.755 178.116 137.755C184.512 137.739 190.908 137.747 197.312 137.755C197.474 137.755 197.644 137.755 197.798 137.755C197.96 138.372 197.983 140.617 197.829 141.566C197.543 141.566 197.242 141.566 196.949 141.566C190.939 141.566 184.936 141.566 178.926 141.566C178.201 141.566 177.483 141.581 176.804 141.89C175.639 142.422 174.93 143.341 174.528 144.521C174.397 144.907 174.336 145.316 174.22 145.802C174.621 145.802 174.945 145.802 175.277 145.802C180.562 145.802 185.847 145.802 191.132 145.802C192.775 145.802 194.411 145.964 195.977 146.473C199.148 147.491 200.444 149.96 199.866 153.17C199.596 154.69 198.539 155.708 197.211 156.418C195.661 157.251 193.963 157.506 192.243 157.645C191.803 157.683 191.356 157.668 190.908 157.668C174.05 157.668 157.192 157.668 140.342 157.668C138.035 157.668 135.983 156.95 134.208 155.484C132.75 154.289 131.886 152.746 131.678 150.863C131.593 150.122 131.554 149.366 131.547 148.618C131.531 145.694 131.547 142.777 131.547 139.853C131.547 139.583 131.547 139.305 131.547 139.02C130.906 139.19 120.39 146.172 119.41 147.075C124.148 150.57 128.862 154.049 133.583 157.537C133.568 157.575 133.552 157.622 133.537 157.66C133.29 157.66 133.051 157.66 132.804 157.66C129.942 157.66 127.072 157.637 124.209 157.676C123.461 157.683 122.882 157.475 122.304 157.043C119.704 155.091 117.096 153.162 114.48 151.226C113.724 150.662 113.724 150.662 112.96 151.172C109.944 153.201 106.919 155.222 103.91 157.267C103.501 157.544 103.092 157.668 102.599 157.668C84.3828 157.66 66.1593 157.652 47.9435 157.668C43.9392 157.668 40.8608 155.006 40.2127 150.925C40.0661 149.999 40.0121 149.05 40.0044 148.109C39.9813 144.884 39.9967 141.651 40.0044 138.426C40.0044 138.233 40.0276 138.048 40.043 137.801H46.7862C46.8093 138.14 46.8479 138.464 46.8479 138.789C46.8479 142.353 46.8402 145.91 46.8556 149.474C46.8556 150.053 46.9096 150.647 47.0793 151.195C47.5654 152.784 48.5915 153.594 50.3738 153.795C51.0064 153.864 51.6468 153.857 52.2872 153.857C55.2884 153.857 58.2974 153.857 61.2987 153.857C63.2429 153.857 65.1872 153.857 67.1623 153.857C68.1344 151.519 69.7006 149.729 71.83 148.186C71.0739 148.031 70.503 148.109 69.9398 148.093C69.3303 148.078 68.7131 148.093 68.1036 148.093C67.5249 148.093 66.9385 148.093 66.2905 148.093C66.437 146.897 66.8151 145.84 67.3552 144.853C69.3149 141.25 72.3624 139.074 76.3204 138.117C77.6011 137.809 78.8973 137.739 80.2089 137.739C88.8037 137.739 97.3986 137.739 105.993 137.732C106.557 137.732 106.996 137.878 107.444 138.202C110.16 140.231 112.891 142.237 115.614 144.251C115.769 144.367 115.938 144.475 116.147 144.614C117.034 144.035 117.937 143.456 118.832 142.862C121.231 141.257 123.615 139.645 126.022 138.056C126.285 137.886 126.632 137.755 126.94 137.747C130.806 137.724 134.671 137.732 138.537 137.739C138.668 137.739 138.799 137.77 139.023 137.793C139.023 138.117 139.023 138.418 139.023 138.711C139.023 142.384 139.023 146.056 139.023 149.729C139.023 150.755 139.293 151.704 139.964 152.514C140.62 153.316 141.499 153.687 142.502 153.795C142.942 153.841 143.389 153.857 143.837 153.857C147.895 153.857 151.961 153.857 156.019 153.857H156.853H156.845ZM98.2318 141.628H97.1208C91.6121 141.628 86.1034 141.612 80.6023 141.635C78.6118 141.643 77.1073 142.584 76.0503 144.251C75.7803 144.668 75.5797 145.131 75.6183 145.717H96.5345C96.6888 146.812 96.6579 149.073 96.4727 149.667C96.1795 149.667 95.8709 149.667 95.57 149.667C90.8406 149.667 86.1111 149.667 81.3816 149.667C79.6842 149.667 78.2337 150.3 77.115 151.588C76.5904 152.19 76.1892 152.869 76.1583 153.779C76.4052 153.779 76.5981 153.779 76.791 153.779C85.0541 153.779 93.3095 153.779 101.573 153.787C102.012 153.787 102.375 153.671 102.73 153.432C105.037 151.889 107.351 150.354 109.666 148.818C109.882 148.672 110.09 148.51 110.345 148.317C106.302 145.339 102.352 142.368 98.2241 139.352V141.62L98.2318 141.628Z" fill="#D9D9D9"/>
<path d="M144.885 112.536C143.573 113.832 142.177 114.874 140.688 115.777C137.185 117.906 133.389 119.233 129.354 119.943C127.132 120.336 124.894 120.545 122.641 120.522C117.951 120.475 113.36 119.789 108.954 118.076C105.953 116.903 103.191 115.322 100.823 113.115C97.9524 110.438 96.0776 107.182 95.5067 103.27C94.7815 98.2939 96.0931 93.8653 99.3489 90.023C101.625 87.3458 104.48 85.4556 107.658 84.0205C110.714 82.6395 113.931 81.8217 117.241 81.3665C120.527 80.919 123.837 80.8573 127.139 81.2199C128.76 81.3973 130.364 81.7368 131.977 82.0146C132.216 82.0531 132.463 82.1457 132.679 82.2614C133.25 82.5701 133.435 82.979 133.165 83.5653C132.903 84.1363 132.586 84.7149 132.185 85.1933C128.698 89.3827 125.512 93.7958 122.379 98.2553C121.422 99.6209 120.543 101.033 119.632 102.429C119.154 103.154 118.815 103.941 118.73 104.821C118.629 105.855 119.193 106.48 119.98 106.565C120.365 106.603 120.751 106.673 121.137 106.673C128.482 106.673 135.819 106.673 143.164 106.673C144.707 106.673 145.394 106.179 145.857 104.713C146.405 103 146.513 101.241 146.389 99.4511C146.204 96.6428 145.348 94.0813 143.743 91.7667C142.207 89.5524 140.201 87.8628 137.856 86.582C136.838 86.0265 135.765 85.5636 134.631 85.0158C135.017 84.4294 135.418 83.8122 135.858 83.141C136.514 83.4033 137.154 83.6348 137.787 83.9048C141.166 85.3861 144.175 87.3844 146.536 90.2622C148.827 93.0552 150.092 96.257 150.293 99.8601C150.509 103.679 149.352 107.074 147.037 110.098C146.597 110.669 146.027 110.947 145.332 111.016C145.085 111.04 144.831 111.032 144.584 111.032C135.295 111.032 126.005 111.032 116.716 111.032C115.651 111.032 114.618 110.878 113.607 110.546C111.74 109.944 110.297 108.293 110.282 106.055C110.266 103.872 111.03 101.966 112.218 100.223C113.962 97.6766 115.752 95.1692 117.588 92.6925C119.602 89.969 121.692 87.2918 123.737 84.5915C123.945 84.3137 124.285 84.0437 124.084 83.6348C123.891 83.2336 123.475 83.1719 123.081 83.1641C117.58 83.141 112.303 84.0668 107.496 86.8983C104.055 88.9275 101.455 91.7204 100.221 95.5781C98.6545 100.493 99.2409 105.114 102.342 109.327C104.796 112.652 108.098 114.828 111.886 116.332C114.772 117.474 117.773 118.06 120.875 118.269C125.812 118.593 130.557 117.829 135.094 115.869C136.861 115.106 138.512 114.126 140.009 112.907C140.356 112.621 140.703 112.505 141.143 112.505C142.354 112.521 143.565 112.505 144.877 112.505L144.885 112.536Z" fill="#D9D9D9"/>
</g>
<defs>
<clipPath id="clip0_4072_3354">
<rect width="160" height="76.6747" fill="white" transform="translate(40 81)"/>
</clipPath>
</defs>
</svg>
