<svg width="240" height="240" viewBox="0 0 240 240" fill="none" xmlns="http://www.w3.org/2000/svg">
<g clip-path="url(#clip0_4072_3465)">
<path d="M81.8738 142.4C81.4665 142.181 81.1443 141.877 80.9073 141.482C80.6702 141.093 80.5547 140.65 80.5547 140.157C80.5547 139.665 80.6702 139.227 80.9073 138.832C81.1443 138.443 81.4604 138.139 81.8738 137.914C82.281 137.695 82.743 137.586 83.2536 137.586C83.6852 137.586 84.0743 137.659 84.4207 137.811C84.7672 137.963 85.059 138.182 85.2961 138.461L84.5605 139.142C84.2262 138.753 83.8068 138.559 83.3144 138.559C83.0044 138.559 82.7309 138.625 82.4938 138.759C82.2506 138.893 82.0622 139.081 81.9285 139.324C81.7947 139.568 81.7279 139.841 81.7279 140.145C81.7279 140.449 81.7947 140.729 81.9285 140.966C82.0622 141.209 82.2506 141.397 82.4938 141.531C82.7369 141.665 83.0105 141.732 83.3144 141.732C83.8129 141.732 84.2262 141.537 84.5605 141.142L85.2961 141.823C85.059 142.108 84.7672 142.333 84.4147 142.485C84.0621 142.637 83.6731 142.71 83.2415 142.71C82.7369 142.71 82.275 142.601 81.8677 142.382" fill="#D9D9D9"/>
<path d="M87.333 142.394C86.9196 142.169 86.5974 141.865 86.3604 141.476C86.1233 141.087 86.0078 140.649 86.0078 140.163C86.0078 139.677 86.1233 139.239 86.3604 138.85C86.5974 138.461 86.9196 138.151 87.333 137.932C87.7463 137.707 88.2144 137.598 88.725 137.598C89.2356 137.598 89.7037 137.707 90.117 137.932C90.5304 138.157 90.8525 138.461 91.0896 138.85C91.3267 139.239 91.4422 139.677 91.4422 140.163C91.4422 140.649 91.3267 141.087 91.0896 141.476C90.8525 141.865 90.5304 142.175 90.117 142.394C89.7037 142.619 89.2417 142.728 88.725 142.728C88.2083 142.728 87.7463 142.619 87.333 142.394ZM89.5213 141.549C89.7584 141.415 89.9407 141.227 90.0805 140.983C90.2143 140.74 90.2811 140.467 90.2811 140.163C90.2811 139.859 90.2143 139.579 90.0805 139.342C89.9468 139.099 89.7584 138.911 89.5213 138.777C89.2842 138.643 89.0228 138.576 88.725 138.576C88.4271 138.576 88.1658 138.643 87.9287 138.777C87.6916 138.911 87.5093 139.099 87.3694 139.342C87.2357 139.585 87.1688 139.859 87.1688 140.163C87.1688 140.467 87.2357 140.746 87.3694 140.983C87.5032 141.227 87.6916 141.415 87.9287 141.549C88.1658 141.683 88.4271 141.749 88.725 141.749C89.0228 141.749 89.2842 141.683 89.5213 141.549Z" fill="#D9D9D9"/>
<path d="M100.001 137.68L98.3722 142.646H97.1382L96.0501 139.284L94.9195 142.646H93.6916L92.0625 137.68H93.2539L94.3724 141.169L95.5456 137.68H96.6094L97.7461 141.199L98.901 137.68H100.001Z" fill="#D9D9D9"/>
<path d="M101.95 142.394C101.537 142.169 101.215 141.865 100.978 141.476C100.74 141.087 100.625 140.649 100.625 140.163C100.625 139.677 100.74 139.239 100.978 138.85C101.215 138.461 101.537 138.151 101.95 137.932C102.364 137.707 102.832 137.598 103.342 137.598C103.853 137.598 104.321 137.707 104.734 137.932C105.148 138.157 105.47 138.461 105.707 138.85C105.944 139.239 106.059 139.677 106.059 140.163C106.059 140.649 105.944 141.087 105.707 141.476C105.47 141.865 105.148 142.175 104.734 142.394C104.321 142.619 103.859 142.728 103.342 142.728C102.825 142.728 102.364 142.619 101.95 142.394ZM104.138 141.549C104.376 141.415 104.558 141.227 104.698 140.983C104.831 140.74 104.898 140.467 104.898 140.163C104.898 139.859 104.831 139.579 104.698 139.342C104.564 139.099 104.376 138.911 104.138 138.777C103.901 138.643 103.64 138.576 103.342 138.576C103.044 138.576 102.783 138.643 102.546 138.777C102.309 138.911 102.126 139.099 101.987 139.342C101.853 139.585 101.786 139.859 101.786 140.163C101.786 140.467 101.853 140.746 101.987 140.983C102.12 141.227 102.309 141.415 102.546 141.549C102.783 141.683 103.044 141.749 103.342 141.749C103.64 141.749 103.901 141.683 104.138 141.549Z" fill="#D9D9D9"/>
<path d="M110.44 142.646L109.48 141.26H108.422V142.646H107.273V137.68H109.425C109.863 137.68 110.246 137.753 110.568 137.899C110.89 138.044 111.139 138.251 111.316 138.525C111.492 138.792 111.577 139.114 111.577 139.485C111.577 139.856 111.486 140.172 111.31 140.439C111.133 140.707 110.878 140.914 110.556 141.053L111.668 142.652H110.434L110.44 142.646ZM110.149 138.841C109.966 138.689 109.705 138.616 109.358 138.616H108.422V140.348H109.358C109.705 140.348 109.966 140.275 110.149 140.123C110.331 139.971 110.416 139.759 110.416 139.485C110.416 139.212 110.325 138.993 110.149 138.841Z" fill="#D9D9D9"/>
<path d="M114.657 140.695L113.994 141.388V142.646H112.852V137.68H113.994V140.002L116.189 137.68H117.465L115.411 139.892L117.587 142.646H116.25L114.657 140.695Z" fill="#D9D9D9"/>
<path d="M119.594 137.68H118.445V142.646H119.594V137.68Z" fill="#D9D9D9"/>
<path d="M125.686 137.68V142.646H124.744L122.263 139.631V142.646H121.133V137.68H122.081L124.549 140.695V137.68H125.686Z" fill="#D9D9D9"/>
<path d="M130.572 140.084H131.623V142.096C131.356 142.297 131.04 142.455 130.687 142.564C130.335 142.674 129.976 142.729 129.617 142.729C129.101 142.729 128.639 142.619 128.225 142.4C127.812 142.181 127.49 141.877 127.259 141.482C127.022 141.093 126.906 140.65 126.906 140.157C126.906 139.665 127.022 139.227 127.259 138.832C127.496 138.443 127.818 138.139 128.231 137.914C128.645 137.695 129.113 137.586 129.636 137.586C130.073 137.586 130.462 137.659 130.821 137.805C131.173 137.951 131.471 138.163 131.714 138.443L130.979 139.124C130.626 138.753 130.195 138.565 129.696 138.565C129.38 138.565 129.101 138.631 128.851 138.765C128.608 138.899 128.414 139.087 128.28 139.324C128.14 139.568 128.073 139.841 128.073 140.157C128.073 140.473 128.14 140.741 128.28 140.978C128.42 141.221 128.608 141.409 128.851 141.543C129.095 141.677 129.374 141.744 129.684 141.744C130.012 141.744 130.31 141.671 130.578 141.531V140.078L130.572 140.084Z" fill="#D9D9D9"/>
<path d="M89.7403 120.472C90.5974 120.855 91.2539 121.408 91.7159 122.119C92.1779 122.831 92.4089 123.675 92.4089 124.636C92.4089 125.596 92.1779 126.435 91.7159 127.146C91.2539 127.852 90.5914 128.399 89.7403 128.788C88.8832 129.171 87.8803 129.365 86.7192 129.365H84.4823V132.714H80.8594V119.895H86.7192C87.8803 119.895 88.8832 120.089 89.7403 120.472ZM88.1842 126.022C88.5611 125.7 88.7495 125.238 88.7495 124.642C88.7495 124.046 88.5611 123.578 88.1842 123.25C87.8073 122.922 87.242 122.758 86.5004 122.758H84.4884V126.514H86.5004C87.242 126.514 87.8073 126.35 88.1842 126.028" fill="#D9D9D9"/>
<path d="M95.0938 119.895H98.7227V129.839H104.838V132.714H95.0938V119.895Z" fill="#D9D9D9"/>
<path d="M115.922 130.222H110.5L109.491 132.714H105.789L111.448 119.895H115.017L120.694 132.714H116.919L115.91 130.222H115.922ZM114.858 127.548L113.211 123.444L111.564 127.548H114.858Z" fill="#D9D9D9"/>
<path d="M124.714 122.77H120.781V119.895H132.264V122.77H128.343V132.714H124.714V122.77Z" fill="#D9D9D9"/>
<path d="M138.16 122.697V125.517H143.813V128.32H138.16V132.714H134.531V119.895H144.585V122.697H138.16Z" fill="#D9D9D9"/>
<path d="M149.908 132.106C148.826 131.535 147.981 130.739 147.361 129.723C146.748 128.708 146.438 127.572 146.438 126.301C146.438 125.031 146.748 123.888 147.361 122.879C147.975 121.864 148.826 121.073 149.908 120.496C150.99 119.925 152.206 119.633 153.562 119.633C154.917 119.633 156.133 119.919 157.215 120.496C158.297 121.067 159.142 121.864 159.762 122.879C160.376 123.894 160.686 125.031 160.686 126.301C160.686 127.572 160.376 128.714 159.762 129.723C159.148 130.739 158.297 131.529 157.215 132.106C156.133 132.678 154.917 132.969 153.562 132.969C152.206 132.969 150.99 132.684 149.908 132.106ZM155.318 129.505C155.841 129.201 156.261 128.769 156.565 128.216C156.869 127.663 157.021 127.025 157.021 126.301C157.021 125.578 156.869 124.946 156.565 124.386C156.261 123.833 155.841 123.402 155.318 123.098C154.796 122.794 154.206 122.642 153.562 122.642C152.917 122.642 152.328 122.794 151.805 123.098C151.282 123.402 150.863 123.833 150.559 124.386C150.255 124.94 150.103 125.578 150.103 126.301C150.103 127.025 150.255 127.657 150.559 128.216C150.863 128.769 151.276 129.201 151.805 129.505C152.328 129.809 152.917 129.961 153.562 129.961C154.206 129.961 154.796 129.809 155.318 129.505Z" fill="#D9D9D9"/>
<path d="M169.114 129.299H167.139V132.703H163.516V119.883H169.375C170.537 119.883 171.539 120.077 172.397 120.46C173.254 120.843 173.91 121.396 174.372 122.108C174.834 122.819 175.071 123.664 175.071 124.624C175.071 125.585 174.852 126.363 174.421 127.05C173.989 127.743 173.369 128.277 172.561 128.673L175.327 132.703H171.442L169.114 129.299ZM170.834 123.238C170.457 122.91 169.892 122.746 169.151 122.746H167.139V126.503H169.151C169.892 126.503 170.457 126.338 170.834 126.016C171.211 125.694 171.4 125.232 171.4 124.636C171.4 124.041 171.211 123.573 170.834 123.244" fill="#D9D9D9"/>
<path d="M189.543 132.714L189.506 125.919L186.211 131.45H184.601L181.324 126.101V132.714H177.969V119.895H180.953L185.464 127.292L189.859 119.895H192.843L192.88 132.714H189.543Z" fill="#D9D9D9"/>
<path d="M204.946 130.222H199.523L198.514 132.714H194.812L200.472 119.895H204.04L209.717 132.714H205.943L204.934 130.222H204.946ZM203.882 127.548L202.235 123.444L200.587 127.548H203.882Z" fill="#D9D9D9"/>
<path d="M68.7944 100.87C64.5576 96.8883 58.6673 96.9977 58.0777 96.9977H41.8354C41.5254 96.9977 41.033 96.9552 40.6926 97.3017L30.2798 108.14C30.0975 108.328 30.0002 108.572 30.0002 108.827V141.348C30.0002 141.348 29.982 141.731 30.2798 142.035C30.5777 142.339 30.9303 142.339 30.991 142.339H48.3275C48.5828 142.339 48.832 142.235 49.0204 142.059L57.9318 133.057C58.3999 132.588 58.4059 132.011 58.4059 131.561V123.428C60.4849 123.47 65.4208 122.577 68.764 119.598C71.2989 117.337 73.1225 114.632 73.1225 110.371C73.1225 106.11 71.2563 103.186 68.7944 100.87ZM40.4191 100.45V130.935C40.334 131.014 31.9879 139.512 31.9879 139.512V109.228L40.4191 100.45ZM47.9263 140.357H33.9331L41.258 132.868H55.2633L47.9263 140.357Z" fill="#D9D9D9"/>
</g>
<defs>
<clipPath id="clip0_4072_3465">
<rect width="179.723" height="45.73" fill="white" transform="translate(30 97)"/>
</clipPath>
</defs>
</svg>
