<svg width="240" height="240" viewBox="0 0 240 240" fill="none" xmlns="http://www.w3.org/2000/svg">
<g clip-path="url(#clip0_4072_3453)">
<path d="M109.26 144.591C108.785 145.032 108.276 145.49 107.775 145.957C104.924 148.621 101.522 149.945 97.6609 149.954C86.0533 149.996 74.4373 149.987 62.8297 149.971C56.0162 149.962 50.3397 144.515 50.0596 137.71C49.9578 135.325 50.0172 132.941 50.0172 130.548C50.0172 124.125 50.0427 117.693 50.0087 111.27C49.9833 106.994 51.6294 103.532 54.9131 100.825C57.2295 98.9158 59.9278 98.0249 62.923 98.0164C66.4528 98.0164 69.9911 98.0164 73.5209 98.0164C73.9791 98.0164 74.4373 97.9995 74.8955 98.0334C76.287 98.1437 77.0592 98.9074 77.1949 100.299C77.2373 100.706 77.2034 101.122 77.2034 101.538C77.2034 115.309 77.2034 129.072 77.2034 142.843V144.447C78.3319 144.803 84.229 144.82 85.3745 144.506C84.6703 143.352 83.8981 142.224 83.2787 141.019C82.2266 138.991 81.7853 136.785 81.7769 134.511C81.7599 127.578 81.8023 120.646 81.7599 113.722C81.7005 105.297 88.234 99.1704 94.5978 98.2116C100.156 97.3716 104.95 98.8395 108.844 102.972C109.124 103.269 109.404 103.574 109.693 103.871C109.718 103.897 109.778 103.897 109.913 103.939C110.168 103.617 110.431 103.269 110.711 102.929C113.163 99.9425 116.269 98.1522 120.18 98.0334C124.745 97.8976 129.259 98.3049 133.527 100.087C133.612 100.036 133.739 100.002 133.756 99.9425C134.266 98.4661 135.326 97.9995 136.845 97.9995C148.368 98.0249 159.882 97.9825 171.405 98.0164C177.93 98.0334 183.733 101.953 185.889 107.978C187.713 113.077 187.331 118.101 184.421 122.776C183.021 125.024 180.925 126.509 178.575 127.638C178.295 127.774 178.006 127.909 177.599 128.113C177.828 128.605 178.032 129.055 178.244 129.488C180.976 134.943 183.683 140.408 186.466 145.838C187.229 147.332 186.848 148.681 185.711 149.478C184.582 150.268 183.106 150.081 182.257 148.995C181.952 148.604 181.731 148.138 181.502 147.688C178.524 141.74 175.562 135.792 172.584 129.844C172.482 129.64 172.355 129.445 172.219 129.216H160.951C160.951 129.818 160.951 130.353 160.951 130.888C160.951 136.165 160.951 141.443 160.96 146.721C160.96 146.992 160.968 147.272 160.96 147.544C160.883 149.054 160.06 149.886 158.524 149.945C157.608 149.979 156.692 149.962 155.767 149.962C149.522 149.962 143.285 149.962 137.04 149.962C134.885 149.962 134.452 149.674 133.655 147.586C133.188 147.858 132.738 148.129 132.28 148.392C129.607 149.877 126.722 150.14 123.744 149.886C118.551 149.436 113.816 147.781 109.591 144.701C109.523 144.65 109.43 144.642 109.268 144.591M107.716 124.201C107.716 120.621 107.733 117.04 107.699 113.468C107.699 112.602 107.605 111.72 107.393 110.888C105.925 105.271 100.198 102.072 94.479 103.651C90.1431 104.847 87.0715 108.759 87.0206 113.442C86.9443 120.51 86.9527 127.578 87.0206 134.646C87.0715 139.042 89.8462 142.826 93.919 144.15C101.394 146.585 107.801 140.985 107.707 134.528C107.656 131.091 107.707 127.646 107.707 124.201M71.9002 103.235C68.8965 103.235 66.0625 103.26 63.22 103.235C58.409 103.175 55.1846 107.163 55.2271 111.245C55.3204 119.772 55.2355 128.3 55.261 136.827C55.2695 141.375 58.6126 144.693 63.1861 144.727C65.6128 144.744 68.048 144.727 70.4747 144.727C70.9244 144.727 71.3742 144.684 71.9002 144.659V103.235ZM155.639 144.506C155.665 144.387 155.724 144.252 155.724 144.124C155.724 130.726 155.724 117.328 155.716 103.939C155.716 103.803 155.673 103.667 155.639 103.532C155.631 103.489 155.589 103.455 155.555 103.421C155.521 103.387 155.487 103.362 155.376 103.252C150.022 103.201 144.592 103.226 139.187 103.26C138.898 105.254 138.966 117.668 139.28 118.728C139.704 118.728 140.154 118.728 140.612 118.728C142.903 118.728 145.203 118.72 147.494 118.745C148.13 118.745 148.792 118.779 149.386 118.975C149.87 119.136 150.413 119.467 150.676 119.882C151.813 121.707 150.701 123.786 148.554 123.896C147.638 123.947 146.722 123.947 145.805 123.955C143.972 123.955 142.131 123.955 140.298 123.955C139.908 123.955 139.518 124.032 139.11 124.074V144.515C140.468 144.812 154.57 144.786 155.631 144.498M161.036 103.218V123.811C161.248 123.862 161.375 123.913 161.503 123.913C165.075 123.913 168.647 123.955 172.228 123.896C173.56 123.87 174.841 123.497 176.046 122.869C180.84 120.349 182.741 115.148 181.12 110.116C180.093 106.917 176.716 103.32 171.608 103.235C169.546 103.201 167.485 103.218 165.423 103.218C164.006 103.218 162.597 103.218 161.036 103.218ZM133.739 105.908C132.849 105.585 132 105.263 131.135 104.974C127.859 103.88 124.491 103.269 121.029 103.243C119.68 103.235 118.39 103.472 117.202 104.151C114.555 105.67 113.138 107.952 113.112 110.999C113.087 114.113 114.495 116.438 117.304 117.863C120.325 119.407 123.337 120.943 126.349 122.496C128.784 123.743 131.219 124.999 133.739 126.297V105.925V105.908ZM111.967 140.068C113.995 141.07 115.921 142.003 117.838 142.979C120.486 144.328 123.328 144.744 126.239 144.684C129.896 144.608 132.84 142.215 133.604 138.787C134.342 135.487 133.324 131.957 129.684 130.107C129.276 129.903 128.877 129.674 128.47 129.462C124.066 127.214 119.663 124.965 115.259 122.708C114.572 122.36 113.91 121.978 113.027 121.495C113.027 122.139 113.027 122.581 113.027 123.022C113.027 126.094 112.993 129.165 113.027 132.237C113.061 134.816 112.917 137.362 111.975 140.06" fill="#D9D9D9"/>
</g>
<defs>
<clipPath id="clip0_4072_3453">
<rect width="137" height="51.9796" fill="white" transform="translate(50 98)"/>
</clipPath>
</defs>
</svg>
