<svg width="240" height="240" viewBox="0 0 240 240" fill="none" xmlns="http://www.w3.org/2000/svg">
<g clip-path="url(#clip0_4072_3528)">
<path d="M77.0924 108.498C76.6399 109.009 76.1509 109.214 75.5086 109.272C72.0274 109.578 68.6993 108.907 65.437 107.783C64.1817 107.352 63.8314 106.374 64.4736 105.192C64.8677 104.455 65.3932 103.791 65.8457 103.083C66.4661 102.112 67.0937 101.142 67.6849 100.149C69.0278 97.8792 67.5389 94.8942 64.7947 94.3615C64.1744 94.2374 63.5978 94.3542 63.1526 94.8286C62.6344 95.3905 62.1236 95.9744 61.6492 96.5729C59.7808 98.9302 57.927 101.295 56.0733 103.659C54.3363 105.871 52.2855 107.768 50.1763 109.608C49.3297 110.345 48.4612 111.045 47.651 111.819C46.5928 112.833 45.2864 113.33 43.907 113.585C42.732 113.797 41.6883 113.344 40.8928 112.454C38.2508 109.505 38.3749 105.112 41.1921 102.302C41.7321 101.762 42.3233 101.236 42.9801 100.857C44.6441 99.9082 46.3519 99.047 48.0889 98.1201C48.2349 98.4193 48.3225 98.5945 48.4758 98.8937C47.7897 99.2878 47.1402 99.6892 46.4687 100.04C45.1112 100.755 43.6808 101.339 42.4766 102.339C39.7397 104.608 38.9953 108.936 41.6956 111.863C42.6225 112.863 43.5713 113.125 44.8193 112.498C46.1257 111.841 47.4686 111.148 48.5633 110.206C50.5193 108.52 52.3803 106.71 54.1392 104.82C56.3944 102.39 58.4379 99.7622 60.3282 97.0253C60.7369 96.4342 61.2186 95.8868 61.4959 95.0913C61.1602 95.0402 60.9266 94.9526 60.7077 94.9745C58.7955 95.1497 56.8907 95.3467 54.9785 95.5219C54.183 95.5949 53.3729 95.7044 52.6212 95.2665C52.2417 95.0402 51.9278 94.7921 51.8476 94.325C51.9789 93.8141 52.4095 93.6243 52.8474 93.5149C55.2194 92.9456 57.5986 92.3617 59.9852 91.8727C60.5325 91.7633 61.1748 91.9019 61.7295 92.0771C62.8023 92.4128 63.6635 92.172 64.3496 91.3181C64.7874 90.7707 65.2107 90.2087 65.5684 89.6103C67.3564 86.6253 69.889 84.3044 72.312 81.8814C72.801 81.3924 73.3848 81.5165 73.976 81.4508C74.1439 82.2025 74.0271 82.8083 73.5454 83.3483C72.4288 84.5963 71.3705 85.91 70.1882 87.0997C68.9621 88.3404 67.6338 89.4862 66.3201 90.6393C65.4224 91.4275 65.2983 91.5662 65.1013 92.6172C65.7581 92.3325 66.3566 92.0917 66.9404 91.8217C69.8379 90.5007 72.7207 89.1505 75.2678 87.2018C77.4573 85.5305 79.3621 83.5965 80.8583 81.2902C81.3619 80.5093 81.7487 79.6262 82.0406 78.7358C82.5953 77.028 82.0114 75.5465 80.5153 74.5466C79.4643 73.8459 78.282 73.5905 77.0413 73.5175C75.0999 73.4008 73.1951 73.6781 71.3413 74.2109C67.0061 75.4589 62.9191 77.247 59.3429 80.0495C58.1387 80.9983 56.8834 81.9252 56.0368 83.2389C55.6646 83.8154 55.2997 84.4577 55.161 85.1145C54.8618 86.5742 55.5916 87.72 57.0513 88.3477C57.511 88.5447 57.9708 88.7418 58.4233 88.9461C58.4087 89.0337 58.3868 89.1213 58.3722 89.2089C57.9052 89.2235 57.4162 89.3329 56.9783 89.2308C54.2998 88.625 53.0226 85.6984 54.5917 83.7643C55.3872 82.7864 56.0076 81.6624 56.8907 80.7793C57.8395 79.8233 58.9561 79.0058 60.0727 78.2322C64.5612 75.1304 69.473 73.0139 74.8737 72.109C76.7931 71.7878 78.7053 71.7659 80.5518 72.4739C81.2305 72.7293 81.9239 73.0504 82.4785 73.5029C84.1279 74.8531 84.5731 76.7507 83.7922 78.9183C82.8288 81.5675 81.2305 83.7643 79.1067 85.64C76.618 87.8368 73.7935 89.4935 70.8523 90.9751C69.5751 91.6173 68.2979 92.2596 66.7142 93.0624C67.0937 93.2959 67.3419 93.4127 67.5608 93.5805C68.0206 93.9528 68.495 94.3177 68.911 94.741C70.3342 96.1641 70.6772 97.7406 69.7284 99.5214C68.8745 101.12 67.8454 102.63 66.8237 104.127C65.9333 105.418 66.0355 105.871 67.5462 106.192C70.1444 106.739 72.7426 107.258 75.3481 107.754C75.983 107.878 76.5231 108.126 77.0705 108.491L77.0924 108.498ZM54.4458 94.4053C55.8762 95.0402 60.4596 94.6169 61.7441 93.7338C60.0946 92.661 56.1682 93.0259 54.4458 94.4053Z" fill="#D9D9D9"/>
<path d="M112.11 93.7059C111.38 94.1802 110.65 94.6546 109.928 95.1363C106.658 97.2893 103.403 99.4642 100.112 101.588C99.4766 101.997 98.7467 102.303 98.0242 102.529C96.4332 103.026 95.1706 102.077 95.3093 100.406C95.4187 99.0993 95.718 97.7856 96.0756 96.5157C96.747 94.1365 98.0023 92.0199 99.3744 89.991C101.338 87.0936 103.491 84.3348 106.089 81.9702C109.161 79.1676 112.577 76.8833 116.46 75.3506C117.343 75.0003 118.241 74.7595 119.211 74.7741C120.81 74.796 121.766 75.6061 121.904 77.219C121.97 77.978 121.919 78.7589 121.853 79.518C121.824 79.8464 121.824 80.0653 122.313 80.1967C122.977 79.445 123.7 78.6568 124.386 77.8466C124.882 77.2628 125.334 76.6424 125.802 76.0294C126.123 75.6134 126.488 75.3433 127.042 75.5477C127.327 76.1024 127.042 76.4746 126.728 76.8833C124.247 80.1748 121.766 83.4663 119.313 86.7798C115.526 91.8886 111.752 97.012 107.994 102.135C107.709 102.522 107.541 102.982 107.213 103.595C108.563 103.186 109.723 102.836 110.877 102.486C111.234 102.376 111.599 102.172 111.964 102.61C111.592 103.259 110.971 103.559 110.336 103.807C109.234 104.245 108.125 104.682 107.001 105.055C106.089 105.361 105.454 105.96 104.928 106.733C102.688 110.025 100.455 113.324 98.1848 116.601C95.7617 120.104 93.3241 123.607 90.8354 127.066C90.0253 128.198 89.04 129.205 88.1131 130.248C86.6097 131.949 85.1281 133.671 83.559 135.306C82.7197 136.182 81.7198 136.919 80.7637 137.671C80.1142 138.182 79.6836 138.087 79.18 137.393C78.5889 136.576 78.3188 135.656 78.2385 134.657C78.1218 133.117 78.5378 131.686 79.0705 130.27C80.5886 126.271 82.8146 122.709 85.5587 119.44C89.1057 115.207 93.1708 111.55 97.7688 108.5C99.7831 107.164 101.922 106.04 104.118 105.047C105.045 104.631 105.746 104.018 106.3 103.164C107.614 101.143 108.964 99.1431 110.322 97.1506C110.928 96.253 111.57 95.3845 112.205 94.5014C112.373 94.2678 112.577 94.0489 112.103 93.7059H112.11ZM104.753 95.6399C105.768 96.2749 106.534 95.8661 107.227 95.2896C107.899 94.7349 108.534 94.1292 109.161 93.5234C112.3 90.48 115.423 87.4366 118.547 84.3786C119.569 83.3788 120.291 82.1745 120.576 80.7733C120.773 79.7953 120.897 78.7662 120.846 77.7664C120.773 76.3578 119.737 75.6645 118.372 75.9637C117.897 76.0659 117.423 76.2118 116.956 76.3505C112.957 77.5766 109.65 79.934 106.578 82.6854C102.286 86.5243 99.0606 91.1223 96.9368 96.4719C96.5937 97.3258 96.404 98.2892 96.3602 99.2088C96.3091 100.172 96.6375 101.084 97.7907 101.427C100.272 100.72 102.381 99.3839 104.147 97.4718C103.936 96.4062 103.607 95.4355 104.22 94.4576C104.928 93.3263 105.702 92.8228 106.695 93.0417C106.045 93.9102 105.403 94.7714 104.761 95.6326L104.753 95.6399ZM80.2237 136.729C80.5886 136.503 81.0265 136.328 81.3476 136.029C82.7124 134.773 84.1137 133.555 85.369 132.197C87.2154 130.197 89.0254 128.154 90.704 126.015C95.3311 120.126 99.2649 113.754 103.403 107.529C103.637 107.186 103.797 106.828 103.717 106.259C103.111 106.595 102.578 106.843 102.082 107.164C100.236 108.368 98.3964 109.58 96.5719 110.813C93.2365 113.068 90.0983 115.557 87.4198 118.6C84.7194 121.666 82.508 125.037 80.7127 128.694C79.6909 130.781 79.3406 133 79.2968 135.292C79.2895 135.897 79.4428 136.394 80.2091 136.729H80.2237Z" fill="#D9D9D9"/>
<path d="M176.314 93.2937C175.453 93.2061 174.585 93.1112 173.723 93.0309C172.614 92.936 171.789 93.4177 171.096 94.2716C169.016 96.826 166.732 99.1907 164.002 101.066C161.418 102.84 158.652 104.241 155.66 105.175C155.04 105.372 154.361 105.445 153.704 105.46C152.967 105.482 152.558 105.073 152.405 104.351C152.383 104.248 152.376 104.139 152.369 104.037C152.347 103.409 152.434 102.752 152.274 102.168C152.113 101.577 151.704 101.059 151.391 100.497C151.61 99.4899 152.245 98.7601 152.952 98.0084C153.091 98.1032 153.223 98.1908 153.332 98.2638C153.266 99.0155 152.602 99.5775 152.821 100.395C153.383 100.337 153.551 99.9278 153.755 99.5848C154.398 98.5046 155.003 97.3953 155.675 96.3371C157.66 93.2061 160.316 90.7685 163.506 88.9001C164.228 88.4768 164.958 88.0243 165.914 88.36C166.462 89.1701 166.564 90.0386 166.199 91.002C165.36 93.2426 163.871 94.9577 162.053 96.4392C160.309 97.8624 158.324 98.9061 156.383 100.008C155.835 100.322 155.295 100.643 154.777 101.001C153.697 101.738 153.463 102.438 153.792 103.854C154.602 104.351 155.5 104.431 156.361 104.008C159.47 102.482 162.623 101.015 165.316 98.7893C166.659 97.6799 167.834 96.3735 169.067 95.1328C169.585 94.6147 170.052 94.0454 170.541 93.498C171.081 92.8996 171.271 92.25 170.928 91.4764C170.417 90.3451 170.68 89.3088 171.315 88.2943C172.067 87.0901 172.979 86.0537 174.169 85.2655C174.592 84.9882 175.015 84.7692 175.541 84.9663C176 85.4042 175.928 85.9005 175.694 86.4114C175.066 87.7761 174.431 89.1409 173.804 90.5057C173.665 90.8122 173.534 91.1261 173.344 91.5713C175.088 91.5859 176.657 91.8121 178.234 92.5127C177.978 93.4761 177.825 94.4395 177.066 95.1474C175.818 96.3152 174.541 97.461 173.3 98.6433C171.855 100.015 170.432 101.417 169.016 102.811C168.885 102.942 168.841 103.154 168.695 103.46C169.067 103.504 169.337 103.592 169.578 103.548C170.403 103.395 171.242 103.278 172.023 103C174.227 102.212 176.402 101.336 178.599 100.534C179.715 100.125 180.328 99.3294 180.73 98.2492C181.248 96.8406 181.766 95.4248 182.445 94.0892C183.328 92.3522 184.576 90.8925 186.386 90.0167C187.846 89.3088 189.283 89.4037 190.75 89.9875C192.933 90.856 193.057 93.4688 191.312 94.7022C190.115 95.5488 188.918 96.4027 187.656 97.1472C186.306 97.95 184.897 98.6652 183.481 99.3512C182.226 99.9643 181.416 100.928 181.919 103.015C182.43 105.117 184.868 107.066 187.306 106.343C188.838 105.883 190.378 105.431 192.006 104.956C191.969 105.161 192.006 105.431 191.889 105.569C191.509 106.007 191.123 106.489 190.634 106.796C189.612 107.438 188.429 107.664 187.24 107.766C186.612 107.817 185.985 107.795 185.35 107.795C183.839 107.781 182.664 107.102 181.788 105.905C181.08 104.934 180.584 103.862 180.299 102.687C180.19 102.227 180.036 101.774 179.883 101.242C178.788 101.585 177.796 101.891 176.803 102.198C174.3 102.964 171.789 103.73 169.286 104.504C168.666 104.694 168.067 104.737 167.454 104.526C167.133 103.862 167.308 103.322 167.717 102.84C168.505 101.906 169.271 100.942 170.118 100.066C171.87 98.2565 173.68 96.5049 175.453 94.7168C175.811 94.3519 176.117 93.9432 176.453 93.5564C176.402 93.4761 176.351 93.4031 176.3 93.3229L176.314 93.2937ZM182.292 98.7601C184.78 97.5486 187.233 96.5268 189.32 94.8482C189.86 94.4103 190.364 93.9067 190.816 93.3885C191.334 92.7901 191.32 92.2792 190.794 91.7026C190.166 91.0093 189.356 90.6517 188.444 90.8268C186.984 91.1188 185.642 91.6807 184.62 92.8339C183.707 93.8629 182.985 95.0088 182.562 96.3225C182.328 97.045 182.08 97.7748 182.292 98.7528V98.7601ZM165.163 89.9437C164.206 90.0678 163.477 90.3524 162.776 90.7466C160.608 91.9581 158.835 93.644 157.258 95.5123C156.412 96.5122 155.791 97.7091 155.098 98.8331C154.989 99.0082 155.003 99.2564 154.938 99.6067C155.397 99.4096 155.719 99.2783 156.025 99.1323C158.536 97.9427 160.798 96.3662 162.798 94.4541C163.776 93.5199 164.674 92.4617 165.038 91.0969C165.133 90.7539 165.126 90.3816 165.17 89.951L165.163 89.9437Z" fill="#D9D9D9"/>
<path d="M118.529 105.389C119.996 105.44 121.098 104.557 122.266 103.893C126.447 101.492 130.6 99.0399 134.797 96.6534C135.731 96.1206 136.753 95.7557 137.745 95.3251C138.285 95.0915 138.694 95.2667 138.928 95.8213C138.876 96.3468 138.468 96.4928 138.066 96.6096C135.592 97.3467 133.395 98.6531 131.25 100.04C127.622 102.375 123.769 104.273 119.894 106.148C119.105 106.528 118.295 106.594 117.449 106.397C117.04 105.565 117.055 104.754 117.456 103.966C118.529 101.85 119.536 99.6894 120.726 97.6386C121.565 96.1936 122.638 94.8872 123.667 93.5589C125.842 90.7417 127.995 87.8954 130.272 85.1512C132.483 82.4874 134.87 79.9694 137.548 77.7654C139.869 75.8605 142.263 74.0432 144.642 72.2114C145.598 71.4815 146.635 70.9196 147.912 70.9998C149.196 71.0801 150.16 72.2405 149.963 73.525C149.744 74.9701 149.094 76.2473 148.335 77.4734C146.693 80.1373 144.467 82.2538 141.898 83.9981C137.643 86.8809 133.352 89.6981 129.046 92.5079C128.476 92.8801 127.783 93.0918 127.119 93.2742C125.01 93.8581 123.287 94.982 122.09 96.8212C120.536 99.1932 119.178 101.675 118.317 104.397C118.157 104.9 118.164 104.9 118.521 105.382L118.529 105.389ZM125.323 92.7853C125.871 93.245 126.207 92.9312 126.513 92.7561C128.571 91.5664 130.644 90.406 132.658 89.1434C136.541 86.7058 140.176 83.9178 143.62 80.9036C145.095 79.6118 146.423 78.1668 147.43 76.4663C147.853 75.7437 148.255 74.992 148.532 74.2111C148.919 73.1017 148.372 72.4522 147.321 72.766C145.751 73.2331 144.131 73.6637 142.81 74.6855C140.847 76.2035 138.869 77.707 137.045 79.3783C133.709 82.4217 130.629 85.7132 127.907 89.3259C127.053 90.4644 126.207 91.6102 125.323 92.7853Z" fill="#D9D9D9"/>
<path d="M138.173 140.363C137.333 138.312 136.531 136.356 135.728 134.4C135.684 134.415 135.64 134.422 135.596 134.437V140.304C135.195 140.334 134.83 140.356 134.487 140.377C134.239 139.618 134.173 133.276 134.385 131.729H135.954C136.822 133.918 137.691 136.115 138.625 138.465C139.559 136.123 140.435 133.933 141.325 131.707H142.807C143.041 132.4 143.114 138.691 142.895 140.297H141.69C141.574 138.348 141.69 136.393 141.537 134.407C140.734 136.363 139.924 138.319 139.107 140.312C138.808 140.326 138.538 140.348 138.18 140.363H138.173Z" fill="#D9D9D9"/>
<path d="M124.709 169.295H123.541C123.322 168.557 123.264 162.084 123.476 160.69H125.016C125.439 161.741 125.899 162.865 126.344 163.989C126.782 165.083 127.212 166.185 127.701 167.433C128.643 165.083 129.519 162.894 130.402 160.668H131.891C132.117 161.398 132.175 167.82 131.964 169.265H130.767C130.657 167.317 130.752 165.375 130.613 163.383C129.803 165.339 128.993 167.295 128.176 169.28H127.234C126.439 167.346 125.636 165.383 124.833 163.427C124.789 163.427 124.753 163.427 124.709 163.434V169.287V169.295Z" fill="#D9D9D9"/>
<path d="M150.352 146.195H151.957V154.807C151.585 154.829 151.22 154.844 150.717 154.866C150.6 152.844 150.709 150.874 150.563 148.881C149.76 150.837 148.958 152.793 148.133 154.785C147.841 154.807 147.578 154.837 147.213 154.866C146.389 152.866 145.571 150.881 144.754 148.896C144.703 148.903 144.652 148.918 144.601 148.925V154.8H143.367V146.225H144.98C145.841 148.392 146.71 150.589 147.651 152.954C148.585 150.611 149.461 148.429 150.352 146.203V146.195Z" fill="#D9D9D9"/>
<path d="M154.542 140.31H153.353C153.126 139.61 153.053 133.333 153.272 131.698C153.615 131.677 153.988 131.655 154.455 131.633C155.732 133.64 157.009 135.661 158.294 137.676C158.367 137.661 158.432 137.647 158.505 137.632V131.706H159.746C159.979 132.531 160.001 139.296 159.768 140.318H158.542C157.286 138.333 155.987 136.282 154.549 134.012V140.318L154.542 140.31Z" fill="#D9D9D9"/>
<path d="M106.201 121.898V125.605H104.945V117.066C105.157 117.03 105.383 116.957 105.617 116.957C106.631 116.95 107.646 116.913 108.653 116.964C110.288 117.052 111.222 118.161 111.069 119.738C111.003 120.424 110.58 120.869 110.098 121.278C110.383 121.701 110.762 122.088 110.915 122.547C111.076 123.022 111.01 123.577 111.076 124.095C111.134 124.576 111.236 125.043 111.331 125.598H110.025C109.937 125.321 109.799 124.978 109.733 124.62C109.682 124.35 109.689 124.058 109.718 123.788C109.85 122.577 109.113 121.788 107.835 121.898C107.354 121.942 106.865 121.898 106.201 121.898ZM106.281 117.913V120.935C106.784 120.935 107.237 120.935 107.682 120.935C107.894 120.935 108.105 120.949 108.31 120.92C109.324 120.774 109.762 120.278 109.718 119.322C109.682 118.46 109.178 117.971 108.222 117.913C107.602 117.877 106.974 117.913 106.281 117.913Z" fill="#D9D9D9"/>
<path d="M145.873 121.896V125.611H144.625V117.058C144.859 117.021 145.085 116.955 145.318 116.955C146.333 116.948 147.347 116.912 148.354 116.97C149.989 117.065 150.916 118.189 150.756 119.758C150.683 120.444 150.252 120.882 149.712 121.349C150.653 122.006 150.807 122.955 150.777 124.013C150.763 124.524 150.923 125.035 151.011 125.611H149.712C149.624 125.312 149.478 124.969 149.42 124.611C149.369 124.268 149.405 123.918 149.398 123.568C149.362 122.429 148.873 121.94 147.719 121.911C147.165 121.896 146.61 121.911 145.88 121.911L145.873 121.896ZM145.931 120.97C146.785 120.926 147.552 120.955 148.296 120.816C149.172 120.656 149.442 120.203 149.405 119.32C149.369 118.561 148.997 118.05 148.216 117.963C147.471 117.875 146.712 117.941 145.931 117.941V120.962V120.97Z" fill="#D9D9D9"/>
<path d="M128.461 146.166C129.672 146.166 130.826 146.057 131.95 146.195C133.329 146.363 134.329 147.188 134.752 148.545C135.146 149.801 135.139 151.1 134.781 152.362C134.358 153.866 133.088 154.815 131.534 154.858C130.534 154.888 129.526 154.858 128.461 154.858V146.166ZM129.797 147.108V153.895C130.366 153.895 130.891 153.953 131.395 153.88C132.439 153.727 133.19 153.18 133.468 152.1C133.738 151.034 133.738 149.968 133.468 148.903C133.198 147.823 132.446 147.275 131.395 147.115C130.891 147.042 130.366 147.1 129.797 147.1V147.108Z" fill="#D9D9D9"/>
<path d="M104.328 164.994C104.496 164.155 104.54 163.264 104.846 162.476C105.445 160.936 106.707 160.272 108.452 160.418C109.846 160.535 111.137 161.652 111.459 163.082C111.75 164.359 111.772 165.651 111.444 166.914C111.086 168.278 109.911 169.789 107.474 169.548C105.934 169.395 104.605 167.972 104.481 166.271C104.452 165.855 104.481 165.432 104.481 165.016C104.43 165.009 104.379 165.001 104.335 164.987L104.328 164.994ZM110.225 165.06C110.196 164.447 110.211 163.914 110.145 163.396C109.999 162.257 109.116 161.418 108.079 161.367C107.101 161.323 106.284 161.936 106.007 163.082C105.686 164.381 105.7 165.709 106.029 167.016C106.167 167.578 106.496 168.03 107.014 168.322C108.277 169.037 109.838 168.264 110.123 166.753C110.232 166.176 110.203 165.571 110.232 165.067L110.225 165.06Z" fill="#D9D9D9"/>
<path d="M124.312 119.447C124.057 118.695 123.78 118.046 122.94 117.827C121.926 117.557 121.05 117.863 120.539 118.783C120.437 118.965 120.349 119.162 120.298 119.359C120.006 120.527 120.065 121.71 120.211 122.892C120.408 124.49 122.364 125.724 124.174 124.293V122.381C123.612 122.344 123.064 122.315 122.429 122.279C122.407 122.016 122.386 121.768 122.349 121.366H125.56C125.56 122.425 125.604 123.395 125.531 124.359C125.509 124.651 125.239 124.986 124.984 125.191C122.787 126.92 119.386 125.738 118.853 123.001C118.612 121.775 118.605 120.491 118.941 119.257C119.707 116.426 122.802 116.236 124.436 117.331C125.108 117.776 125.487 118.425 125.524 119.25C125.208 119.445 124.801 119.513 124.305 119.454L124.312 119.447Z" fill="#D9D9D9"/>
<path d="M144.789 131.715H146.074C146.095 132.116 146.125 132.452 146.132 132.795C146.132 134.401 146.147 136.014 146.132 137.619C146.132 138.378 146.358 139.006 147.059 139.363C147.832 139.765 148.613 139.692 149.35 139.247C149.912 138.904 150.095 138.364 150.088 137.721C150.073 136.116 150.088 134.503 150.088 132.897C150.088 132.525 150.088 132.153 150.088 131.715H151.423C151.46 131.97 151.533 132.233 151.533 132.503C151.54 134.079 151.547 135.649 151.533 137.225C151.518 138.473 151.226 139.597 149.971 140.195C148.65 140.816 147.322 140.801 146.052 140.086C145.271 139.648 144.826 138.911 144.811 138.013C144.774 135.955 144.804 133.89 144.804 131.715H144.789Z" fill="#D9D9D9"/>
<path d="M140.23 160.703C140.281 160.79 140.346 160.849 140.346 160.907C140.346 162.929 140.368 164.958 140.303 166.979C140.259 168.359 139.339 169.118 138.098 169.446C137.252 169.672 136.361 169.65 135.515 169.344C134.384 168.928 133.705 168.125 133.676 166.921C133.632 164.928 133.676 162.936 133.676 160.943C133.676 160.885 133.727 160.819 133.792 160.695H134.938C134.96 161.024 135.004 161.323 135.004 161.622C135.004 163.264 134.997 164.914 135.011 166.556C135.026 168.147 136.186 168.95 137.704 168.446C138.573 168.161 138.93 167.702 138.938 166.738C138.96 165.133 138.938 163.52 138.938 161.914C138.938 161.535 138.938 161.162 138.938 160.703H140.222H140.23Z" fill="#D9D9D9"/>
<path d="M106.183 135.298C106.781 135.524 107.059 135.335 107.329 134.999C107.978 134.174 108.65 133.371 109.314 132.561C109.555 132.269 109.81 131.977 110.051 131.685H111.496C110.489 133.203 109.263 134.379 108.234 135.831C109.372 137.269 110.511 138.706 111.795 140.319C111.168 140.349 110.744 140.37 110.226 140.392C109.46 139.422 108.679 138.444 107.905 137.466C107.708 137.218 107.511 136.977 107.321 136.729C107.051 136.371 106.716 136.32 106.219 136.517V140.319C105.76 140.341 105.402 140.356 104.92 140.378C104.825 137.458 104.891 134.619 104.869 131.729C105.147 131.693 105.314 131.656 105.475 131.656C105.679 131.656 105.876 131.693 106.176 131.729V135.305L106.183 135.298Z" fill="#D9D9D9"/>
<path d="M141.874 166.967H142.939C143.596 168.397 144.778 168.937 146.048 168.404C146.53 168.2 146.866 167.894 146.902 167.324C146.939 166.77 146.851 166.244 146.318 165.967C145.829 165.711 145.289 165.558 144.778 165.339C144.143 165.069 143.45 164.858 142.895 164.471C141.764 163.682 141.72 162.128 142.72 161.186C143.946 160.026 146.45 160.106 147.603 161.34C148.033 161.8 148.143 162.07 148.201 162.975C147.844 162.996 147.479 163.018 147.077 163.04C146.836 162.303 146.559 161.654 145.72 161.442C145.136 161.296 144.603 161.354 144.1 161.602C143.114 162.091 143.202 163.442 144.019 163.807C144.494 164.018 144.99 164.193 145.472 164.39C146.019 164.609 146.596 164.777 147.107 165.069C148.011 165.587 148.384 166.412 148.26 167.456C148.136 168.448 147.508 169.018 146.632 169.309C145.311 169.755 144.012 169.66 142.815 168.893C142.166 168.477 141.742 167.901 141.888 166.952L141.874 166.967Z" fill="#D9D9D9"/>
<path d="M188.514 140.377C188.207 139.545 187.944 138.83 187.674 138.108H184.23C183.96 138.823 183.69 139.531 183.398 140.304H182.055C183.135 137.392 184.259 134.568 185.383 131.707H186.558C187.631 134.51 188.718 137.334 189.857 140.319C189.368 140.341 188.981 140.363 188.514 140.385V140.377ZM184.653 137.02H187.236C186.828 135.831 186.463 134.743 185.93 133.51C185.456 134.809 185.062 135.889 184.646 137.02H184.653Z" fill="#D9D9D9"/>
<path d="M111.739 154.799H110.389C110.112 154.077 109.827 153.34 109.535 152.588H106.105C105.835 153.303 105.565 154.011 105.273 154.785H103.938C104.988 151.866 106.149 149.056 107.244 146.188H108.433C109.506 148.99 110.594 151.807 111.739 154.799ZM109.163 151.559C108.711 150.333 108.309 149.245 107.835 147.961C107.346 149.304 106.944 150.413 106.528 151.559H109.17H109.163Z" fill="#D9D9D9"/>
<path d="M122.788 146.18H123.978C125.065 149.019 126.145 151.843 127.269 154.777H125.912C125.649 154.076 125.379 153.361 125.101 152.609H121.635C121.379 153.281 121.102 154.018 120.81 154.799H119.445C120.577 151.887 121.664 149.077 122.788 146.18ZM122.073 151.507H124.656C124.248 150.318 123.883 149.23 123.35 147.997C122.876 149.296 122.481 150.376 122.065 151.507H122.073Z" fill="#D9D9D9"/>
<path d="M177.606 137.006V140.29H176.344V131.686C177.774 131.686 179.168 131.576 180.54 131.715C181.956 131.861 182.774 133.116 182.664 134.605C182.562 135.933 181.577 136.911 180.197 136.991C179.402 137.035 178.599 136.999 177.614 136.999L177.606 137.006ZM177.687 132.605V136.05C178.416 136.05 179.073 136.079 179.723 136.043C180.737 135.977 181.299 135.357 181.307 134.349C181.314 133.306 180.723 132.664 179.65 132.612C179.03 132.583 178.402 132.612 177.679 132.612L177.687 132.605Z" fill="#D9D9D9"/>
<path d="M159.335 163.369H158.328C158.24 163.158 158.116 162.946 158.065 162.72C157.89 161.859 157.262 161.508 156.496 161.399C155.7 161.282 155.073 161.632 154.642 162.311C154.533 162.486 154.416 162.676 154.365 162.873C153.993 164.282 153.942 165.712 154.379 167.106C154.788 168.42 155.934 168.902 157.109 168.398C157.554 168.208 157.868 167.916 158.014 167.449C158.094 167.186 158.189 166.924 158.277 166.646H159.35C159.7 167.989 158.364 169.354 156.89 169.544C154.197 169.887 152.985 168.055 152.803 166.223C152.723 165.391 152.701 164.537 152.803 163.712C153.139 161.1 155.16 159.793 157.737 160.654C158.693 160.976 159.671 162.121 159.328 163.377L159.335 163.369Z" fill="#D9D9D9"/>
<path d="M117.979 152.126H119.037C119.22 152.98 118.898 153.6 118.38 154.148C117.169 155.439 114.176 155.622 112.98 153.389C112.863 153.177 112.739 152.951 112.68 152.717C112.315 151.236 112.228 149.718 112.695 148.272C113.498 145.806 115.87 145.441 117.723 146.309C118.738 146.784 119.147 147.652 119.008 148.871C118.694 148.886 118.366 148.907 118.008 148.922C117.899 148.637 117.775 148.426 117.723 148.192C117.534 147.331 116.891 147.003 116.132 146.9C115.388 146.798 114.775 147.119 114.344 147.754C114.308 147.813 114.257 147.871 114.235 147.929C113.563 149.623 113.534 151.33 114.235 153.016C114.556 153.797 115.257 154.177 116.103 154.082C116.906 153.994 117.57 153.622 117.745 152.717C117.782 152.52 117.891 152.33 117.979 152.119V152.126Z" fill="#D9D9D9"/>
<path d="M170.278 137.568C170.694 137.604 171.022 137.626 171.307 137.648C171.686 139.006 170.329 140.37 168.869 140.568C166.081 140.932 164.899 138.947 164.76 137.152C164.702 136.386 164.687 135.605 164.76 134.846C165.016 132.269 167.008 130.766 169.694 131.671C170.847 132.065 171.402 132.992 171.336 134.313C171.19 134.349 171.037 134.422 170.869 134.437C170.701 134.452 170.526 134.422 170.3 134.408C170.205 134.189 170.081 133.977 170.03 133.751C169.833 132.846 169.176 132.496 168.366 132.415C167.563 132.335 166.957 132.722 166.548 133.415C166.475 133.532 166.402 133.656 166.366 133.787C165.943 135.262 165.892 136.765 166.373 138.217C166.804 139.495 168.023 139.976 169.147 139.371C169.482 139.188 169.73 138.809 169.957 138.473C170.103 138.254 170.139 137.955 170.271 137.561L170.278 137.568Z" fill="#D9D9D9"/>
<path d="M143.321 125.613H137.613C137.387 124.92 137.314 118.57 137.519 117.103C138.314 116.906 142.065 116.877 143.16 117.082V117.87C142.438 117.884 141.715 117.899 140.992 117.906C140.299 117.906 139.606 117.906 138.839 117.906V120.519H142.664C142.693 120.84 142.708 121.066 142.737 121.439H138.825V124.686H143.27C143.291 125.044 143.306 125.292 143.321 125.613Z" fill="#D9D9D9"/>
<path d="M136.453 146.188H142.102V147.056H137.818V149.676H141.613C141.635 150.026 141.65 150.275 141.679 150.632H137.796V153.916H142.248V154.785H136.453V146.188Z" fill="#D9D9D9"/>
<path d="M138.729 101.544C139.335 101.683 139.751 101.785 140.203 101.887C139.378 103.361 137.817 104.062 136.729 103.485C136.605 102.894 136.948 102.434 137.262 101.989C139.028 99.5224 140.794 97.0556 142.568 94.5961C143.407 93.4357 144.268 92.2971 145.129 91.1513C145.677 90.4215 145.677 90.4288 146.648 90.0273C146.786 90.1733 146.939 90.3412 147.137 90.5455C144.334 94.202 141.568 97.8219 138.714 101.544H138.729Z" fill="#D9D9D9"/>
<path d="M128.779 131.715H130.231C129.137 134.648 128.086 137.48 127.02 140.327H125.83C124.78 137.509 123.721 134.678 122.648 131.817C123.116 131.539 123.546 131.663 124.057 131.7C124.838 133.933 125.619 136.159 126.429 138.48C127.224 136.181 127.991 133.977 128.779 131.715Z" fill="#D9D9D9"/>
<path d="M116.062 140.31H114.778C114.471 139.682 114.603 139.011 114.625 138.369C114.654 137.537 114.471 136.807 114.055 136.084C113.252 134.698 112.523 133.275 111.734 131.815C112.194 131.53 112.639 131.691 113.172 131.647C113.88 133.012 114.595 134.384 115.369 135.873C116.128 134.42 116.829 133.063 117.537 131.705H119.04C118.296 133.092 117.668 134.42 116.902 135.654C116.237 136.712 115.938 137.792 116.055 139.026C116.091 139.427 116.055 139.843 116.055 140.31H116.062Z" fill="#D9D9D9"/>
<path d="M158.692 146.196H160.196C159.451 147.59 158.824 148.911 158.05 150.145C157.386 151.203 157.087 152.283 157.211 153.516C157.247 153.918 157.211 154.334 157.211 154.801H155.926C155.62 154.173 155.751 153.494 155.773 152.852C155.802 152.02 155.62 151.29 155.204 150.568C154.401 149.181 153.671 147.758 152.883 146.298C153.343 146.014 153.788 146.174 154.321 146.138C155.029 147.495 155.744 148.875 156.517 150.363C157.276 148.911 157.984 147.554 158.685 146.203L158.692 146.196Z" fill="#D9D9D9"/>
<path d="M118.586 165.36H114.659V169.272C114.199 169.301 113.834 169.331 113.484 169.352C113.236 168.593 113.17 162.2 113.397 160.631C115.272 160.616 117.17 160.609 119.133 160.631V161.536H114.696V164.346C115.9 164.477 117.148 164.324 118.476 164.441C118.505 164.696 118.535 164.944 118.586 165.353V165.36Z" fill="#D9D9D9"/>
<path d="M190.969 131.707H192.268V139.378H196.355V140.312H190.983C190.94 137.443 190.976 134.604 190.961 131.707H190.969Z" fill="#D9D9D9"/>
<path d="M127.625 117.016H128.873V124.693H132.953V125.62H127.625V117.016Z" fill="#D9D9D9"/>
<path d="M165.445 76.4977C165.803 76.3079 166.175 76.016 166.591 75.9357C166.92 75.87 167.423 75.9284 167.642 76.1401C168.773 77.264 169.839 78.4536 170.919 79.636C171.021 79.7454 171.014 79.9498 171.05 80.0812C170.795 80.4826 170.459 80.5555 170.116 80.4023C168.284 79.5849 166.598 78.5704 165.496 76.8115C165.46 76.7604 165.475 76.6801 165.453 76.505L165.445 76.4977Z" fill="#D9D9D9"/>
<path d="M121.512 140.312H120.235C120.22 137.436 120.228 134.604 120.235 131.736C120.527 131.692 120.687 131.656 120.855 131.648C121.06 131.648 121.257 131.67 121.519 131.692V140.304L121.512 140.312Z" fill="#D9D9D9"/>
<path d="M161.875 131.707H163.094V140.312H161.875V131.707Z" fill="#D9D9D9"/>
<path d="M173 131.707H174.219V140.312H173V131.707Z" fill="#D9D9D9"/>
<path d="M134.156 117.008H135.375V125.613H134.156V117.008Z" fill="#D9D9D9"/>
<path d="M149.972 160.668H151.11V169.28H150.001C149.782 168.492 149.753 161.858 149.964 160.668H149.972Z" fill="#D9D9D9"/>
<path d="M154.189 84.5806V85.3761C153.466 85.9162 152.714 86.3322 152.16 86.9307C151.408 87.7408 150.81 88.6968 150.145 89.5872C149.956 89.8354 149.795 90.1127 149.562 90.3171C149.416 90.4484 149.167 90.463 148.956 90.536C148.912 90.3681 148.854 90.2806 148.883 90.2441C149.883 88.4122 150.861 86.5584 152.335 85.0477C153.014 84.3544 153.043 84.3617 154.189 84.5806Z" fill="#D9D9D9"/>
<path d="M197.57 107.371C198.826 106.401 199.774 106.496 201.555 107.817C201.256 107.992 200.986 108.284 200.767 108.247C199.745 108.087 198.738 107.831 197.724 107.605C197.68 107.598 197.651 107.495 197.578 107.371H197.57Z" fill="#D9D9D9"/>
<path d="M83.4271 108.819C83.179 108.337 83.0257 108.03 82.8359 107.666C83.0257 107.301 83.2009 106.928 83.4125 106.578C83.6242 106.22 83.8723 105.892 84.1496 105.469C84.3832 105.659 84.551 105.804 84.7919 106.002C84.3613 106.899 83.938 107.768 83.4271 108.819Z" fill="#D9D9D9"/>
<path d="M114.168 124.379C114.198 124.547 114.234 124.678 114.234 124.802C114.234 125.036 114.212 125.269 114.198 125.59H112.957C112.942 125.233 112.92 124.853 112.898 124.379H114.168Z" fill="#D9D9D9"/>
</g>
<defs>
<clipPath id="clip0_4072_3528">
<rect width="162.555" height="98.6" fill="white" transform="translate(39 71)"/>
</clipPath>
</defs>
</svg>
