<svg width="240" height="240" viewBox="0 0 240 240" fill="none" xmlns="http://www.w3.org/2000/svg">
<g clip-path="url(#clip0_4072_3271)">
<path d="M105.185 132.871C107.406 132.056 109.504 131.286 111.568 130.539C115.597 136.353 120.049 138.239 125.339 136.453C129.769 134.958 131.767 131.152 131.476 124.758C131.331 124.769 131.142 124.736 131.041 124.814C123.118 130.985 110.653 128.497 105.977 119.614C104.884 117.538 104.103 115.061 104.013 112.74C103.768 105.564 103.924 98.3886 103.924 91.0569H111.736C111.736 91.8158 111.736 92.5969 111.736 93.3892C111.736 99.1251 111.691 104.861 111.747 110.597C111.803 115.585 114.336 119.346 118.353 120.629C124.959 122.727 131.387 118.007 131.51 110.865C131.61 104.917 131.532 98.9577 131.532 93.0098C131.532 92.3737 131.532 91.7488 131.532 91.0234H139.478C139.478 91.6484 139.478 92.1729 139.478 92.6973C139.478 103.745 139.478 114.793 139.478 125.841C139.478 132.815 136.844 138.395 130.539 141.787C121.121 146.843 109.214 142.68 105.196 132.882L105.185 132.871Z" fill="#D9D9D9"/>
<path d="M174.675 104.681V91.0558H182.509V126.397H174.72V112.783H154.934V126.409H147.078V91H154.879V104.681H174.686H174.675Z" fill="#D9D9D9"/>
<path d="M94.7934 126.444H86.9372V98.9137H72.988C72.9545 99.5163 72.9099 100.085 72.9099 100.655C72.9099 104.783 72.9211 108.912 72.9099 113.041C72.8653 121.601 65.6005 127.716 57.0078 126.332V118.621C57.8448 118.621 58.6817 118.655 59.5187 118.621C62.7214 118.454 64.9086 116.188 64.9198 112.997C64.931 106.29 64.9198 99.5944 64.9198 92.8876C64.9198 92.3073 64.9198 91.727 64.9198 91.0352H94.8046V126.444H94.7934Z" fill="#D9D9D9"/>
</g>
<defs>
<clipPath id="clip0_4072_3271">
<rect width="125.509" height="52.94" fill="white" transform="translate(57 91)"/>
</clipPath>
</defs>
</svg>
