<?xml version="1.0" encoding="UTF-8"?>
<svg id="Layer_1" xmlns="http://www.w3.org/2000/svg" viewBox="0 0 215.59 48.91">
  <defs>
    <style>
      .cls-1 {
        fill: #fff;
      }

      .cls-2 {
        fill: none;
      }
    </style>
  </defs>
  <rect class="cls-2" width="215.59" height="48.91"/>
  <path class="cls-1" d="M213.39,2.29c-6.7-6.73-44.11,2.87-47.3,9.23-1.68,3.35,3.83,12.01,14.4,22.06,9.22,8.77,18.15,16.85,23.76,15.07,5.61-1.78,15.86-39.64,9.14-46.36Z"/>
  <path class="cls-1" d="M141.95,14.97c-4.35,0-8.25,2.71-10.5,6.34v-5.72h-8.16v30.27h8.16v-15.58c0-6.36,3.72-8.42,7.48-8.42,4.01,0,6.95,2.69,6.95,8.09s-.05,15.88-.05,15.88h8.16l.04-18.4c0-7.71-4.95-12.46-12.08-12.46Z"/>
  <path class="cls-1" d="M79.86,3.24h-8.16v42.59h8.16V3.24Z"/>
  <path class="cls-1" d="M57.89,15.57l-11.76,12.48V3.24h-8.16v42.59h8.16l-.12-12.31,11.67,12.24h10.2l-14.28-15.1,14.28-15.09h-9.98Z"/>
  <path class="cls-1" d="M101.61,14.89c-9.16,0-16.58,7.1-16.58,15.86s7.43,15.88,16.58,15.88,16.58-7.1,16.58-15.86-7.43-15.88-16.58-15.88ZM101.61,39.38c-1.74.04-3.46-.43-4.92-1.35-1.47-.92-2.63-2.25-3.32-3.82-.7-1.57-.9-3.31-.59-4.99.31-1.69,1.13-3.24,2.35-4.47,1.22-1.23,2.78-2.07,4.48-2.42,1.7-.35,3.48-.19,5.09.45,1.61.65,2.99,1.75,3.97,3.17.97,1.42,1.49,3.1,1.49,4.81.02,2.25-.86,4.42-2.46,6.03-1.6,1.61-3.78,2.53-6.07,2.56v.02Z"/>
  <path class="cls-1" d="M22.58,31.14c0,6.36-3.72,8.43-7.48,8.43-4.01,0-6.96-2.69-6.96-8.09s.05-15.88.05-15.88H.04l-.04,18.4c0,7.71,4.94,12.46,12.08,12.46,4.35,0,8.25-2.71,10.5-6.34v5.72h8.14V15.54h-8.14v15.6Z"/>
</svg>