<svg width="240" height="240" viewBox="0 0 240 240" fill="none" xmlns="http://www.w3.org/2000/svg">
<g clip-path="url(#clip0_4072_3608)">
<path d="M31 98.0117C34.1535 98.0117 37.3071 98.0263 40.4679 98.0263C41.9498 98.0263 43.3514 98.3913 44.6799 99.0264C46.2859 99.8002 47.2422 101.107 47.6364 102.822C47.7824 103.472 47.8554 104.151 47.8554 104.815C47.87 109.582 47.8627 114.356 47.8627 119.13C47.8627 120.546 47.5634 121.89 46.8042 123.101C45.7238 124.824 44.0887 125.664 42.1396 125.963C41.4315 126.072 40.7015 126.08 39.9861 126.094C38.716 126.116 37.4531 126.094 36.1829 126.094H35.3726C35.3507 126.445 35.3215 126.737 35.3215 127.021C35.3215 131.839 35.3215 136.665 35.3215 141.482V142.329H31V98.0117ZM35.3653 123.532C35.4383 123.59 35.4602 123.62 35.4748 123.62C37.2633 123.627 39.0591 123.715 40.8402 123.612C41.979 123.547 43.1762 122.817 43.3806 121.481C43.512 120.598 43.6288 119.707 43.6361 118.816C43.658 114.196 43.658 109.575 43.6361 104.947C43.6361 104.282 43.5412 103.596 43.3514 102.968C42.9499 101.625 41.7819 100.318 39.935 100.413C38.6722 100.479 37.402 100.421 36.1318 100.428C35.8909 100.428 35.65 100.45 35.3653 100.464V123.532Z" fill="#D9D9D9"/>
<path d="M209.996 100.399H204.178C204.178 107.436 204.178 114.385 204.178 121.335C204.178 128.292 204.178 135.248 204.178 142.191C203.646 142.395 201.061 142.439 200.003 142.271C199.988 142.001 199.959 141.716 199.959 141.431C199.959 136.11 199.959 130.795 199.959 125.474C199.959 117.473 199.959 109.465 199.959 101.465C199.959 101.143 199.959 100.829 199.959 100.494C199.244 100.304 198.601 100.413 197.966 100.391C197.346 100.37 196.725 100.391 196.105 100.391H194.148V98.0263H195.017C199.74 98.0263 204.463 98.0263 209.186 98.0263C209.456 98.0263 209.734 98.019 210.004 98.0117V100.399H209.996Z" fill="#D9D9D9"/>
<path d="M156.624 120.166C156.624 125.261 156.624 130.357 156.624 135.452C156.624 136.81 156.405 138.116 155.858 139.365C155.237 140.788 154.15 141.635 152.675 142.044C151.244 142.445 149.777 142.416 148.31 142.423C146.667 142.438 145.032 142.431 143.39 142.416C141.915 142.401 140.47 142.248 139.112 141.591C137.367 140.737 136.272 139.372 135.966 137.445C135.842 136.664 135.769 135.868 135.769 135.072C135.754 125.159 135.754 115.246 135.769 105.325C135.769 104.413 135.849 103.478 136.075 102.595C136.601 100.522 138.032 99.2445 140.025 98.6021C141.251 98.2152 142.499 97.967 143.806 98.0035C145.77 98.0619 147.733 97.9379 149.69 98.0546C151.164 98.1422 152.624 98.5072 153.909 99.3175C155.537 100.347 156.347 101.88 156.544 103.763C156.603 104.333 156.603 104.902 156.603 105.479C156.603 110.377 156.603 115.268 156.603 120.166M139.988 120.392C139.988 125.363 139.988 130.335 139.988 135.306C139.988 135.605 139.959 135.912 140.01 136.196C140.141 136.846 140.222 137.54 140.499 138.131C141.12 139.467 142.149 140.255 143.718 140.211C145.383 140.168 147.047 140.168 148.711 140.204C150.186 140.233 151.142 139.503 151.814 138.284C152.332 137.335 152.398 136.299 152.398 135.247C152.398 127.714 152.398 120.181 152.398 112.654C152.398 110.216 152.412 107.785 152.398 105.347C152.398 104.303 152.325 103.259 151.807 102.31C151.223 101.23 150.427 100.405 149.098 100.398C147.135 100.376 145.171 100.383 143.207 100.398C142.893 100.398 142.572 100.493 142.28 100.61C141.397 100.96 140.849 101.661 140.47 102.493C140.112 103.267 139.981 104.099 139.981 104.953C139.981 110.099 139.981 115.246 139.981 120.392" fill="#D9D9D9"/>
<path d="M71.6261 120.315C71.6261 125.483 71.6261 130.659 71.6261 135.827C71.6261 136.776 71.5531 137.711 71.1808 138.601C70.4289 140.412 69.0492 141.463 67.2169 142.032C66.2534 142.331 65.2606 142.397 64.2751 142.404C62.2092 142.434 60.1507 142.434 58.0848 142.404C56.4277 142.383 54.8291 142.105 53.4056 141.163C52.0405 140.266 51.2521 138.988 50.982 137.397C50.8725 136.74 50.8287 136.061 50.8287 135.397C50.8214 125.279 50.8141 115.161 50.8287 105.044C50.8287 104.233 50.8944 103.394 51.0988 102.613C51.639 100.54 53.0406 99.2404 55.0481 98.6126C56.2452 98.233 57.4716 97.9775 58.7637 98.014C60.7785 98.0651 62.8005 97.9191 64.8007 98.0724C66.8154 98.2257 68.7572 98.7586 70.188 100.386C71.0202 101.335 71.4655 102.452 71.5677 103.693C71.6261 104.431 71.6334 105.182 71.6334 105.927C71.6334 110.723 71.6334 115.519 71.6334 120.322M55.0262 120.315C55.0262 125.359 55.0262 130.411 55.0335 135.455C55.0335 136.046 55.0846 136.652 55.2233 137.229C55.6102 138.806 56.7562 140.229 58.8221 140.149C60.4865 140.083 62.1508 140.112 63.8152 140.149C65.2095 140.171 66.1804 139.528 66.8446 138.353C67.3921 137.389 67.4943 136.331 67.4943 135.258C67.4943 125.388 67.4943 115.519 67.487 105.65C67.487 104.934 67.414 104.204 67.2753 103.503C66.9541 101.876 65.7059 100.357 63.6327 100.445C62.0194 100.518 60.3989 100.459 58.7856 100.459C57.1504 100.459 56.0846 101.189 55.4496 102.708C55.1357 103.452 55.0262 104.233 55.0262 105.036C55.0262 110.132 55.0262 115.227 55.0262 120.322" fill="#D9D9D9"/>
<path d="M92.7104 98.0645H96.9224V98.904C96.9224 111.109 96.9224 123.322 96.9224 135.527C96.9224 136.776 96.8275 138.009 96.4114 139.199C95.8785 140.718 94.8784 141.681 93.287 142.097C92.4549 142.316 91.6154 142.367 90.7759 142.367C87.8413 142.367 84.9068 142.426 81.9796 142.287C79.994 142.192 78.2931 141.331 77.1251 139.63C76.366 138.528 76.1105 137.265 76.0886 135.958C76.0594 133.768 76.074 131.586 76.074 129.396C76.074 119.249 76.074 109.109 76.074 98.9624V98.1083C76.8039 97.955 77.4974 98.0499 78.1763 98.0353C78.8479 98.0207 79.5195 98.0353 80.1911 98.0353C80.4028 98.3492 80.3152 98.685 80.3152 98.9916C80.3152 107.043 80.3152 115.102 80.3152 123.154C80.3152 127.381 80.3152 131.607 80.3152 135.834C80.3152 136.717 80.4174 137.586 80.8408 138.36C81.1036 138.856 81.4759 139.301 81.8701 139.71C82.2205 140.075 82.6949 140.243 83.2205 140.243C85.2353 140.243 87.2501 140.243 89.2575 140.243C89.7758 140.243 90.2357 140.061 90.6518 139.783C91.8052 139.002 92.4914 137.915 92.6374 136.528C92.6958 135.958 92.7031 135.389 92.7031 134.812C92.7031 122.906 92.7031 110.993 92.7031 99.0865V98.0645" fill="#D9D9D9"/>
<path d="M176.318 98.0625H180.64C179.961 103.041 179.18 107.961 178.472 112.889C177.764 117.801 177.004 122.707 176.274 127.62C175.544 132.547 174.814 137.482 174.084 142.431H167.5C164.872 127.671 162.244 112.903 159.602 98.0771H163.908C166.113 112.472 168.318 126.868 170.522 141.263C170.581 141.263 170.639 141.263 170.697 141.263L176.318 98.0625Z" fill="#D9D9D9"/>
<path d="M113.856 98.1011V100.357C113.513 100.371 113.25 100.393 112.98 100.393C111.564 100.393 110.148 100.393 108.732 100.408C107.484 100.422 106.432 100.933 105.469 101.685C104.257 102.634 104.045 103.875 104.301 105.299C104.578 106.89 105.308 108.299 106.009 109.722C108.987 115.781 111.951 121.84 114.908 127.906C115.689 129.52 116.309 131.199 116.667 132.951C116.973 134.469 117.083 136.009 116.667 137.535C115.995 139.966 114.345 141.389 111.958 142.039C110.973 142.309 109.958 142.44 108.944 142.448C105.987 142.462 103.031 142.462 100.067 142.462C99.9428 142.462 99.826 142.448 99.6581 142.433C99.5413 141.725 99.6581 141.046 99.7603 140.302C99.9793 140.287 100.191 140.258 100.403 140.258C102.636 140.258 104.878 140.236 107.111 140.272C108.068 140.287 108.944 140.075 109.717 139.55C110.352 139.126 110.966 138.645 111.535 138.141C112.593 137.199 112.856 135.973 112.659 134.615C112.389 132.754 111.739 131.009 110.929 129.33C109.053 125.439 107.155 121.563 105.257 117.687C103.907 114.927 102.534 112.175 101.191 109.401C100.527 108.029 100.067 106.583 99.9793 105.051C99.8625 102.999 100.483 101.225 102.104 99.8895C102.907 99.2325 103.841 98.831 104.841 98.5974C105.418 98.466 106.016 98.4149 106.593 98.2908C108.973 97.7799 111.382 98.1303 113.783 98.0646C113.798 98.0646 113.82 98.0938 113.842 98.1084" fill="#D9D9D9"/>
<path d="M123.638 142.282V100.439C121.675 100.301 119.769 100.454 117.82 100.352V98.0742H133.61C133.727 98.8115 133.661 99.5415 133.654 100.344C132.989 100.425 132.376 100.374 131.763 100.381C131.113 100.388 130.471 100.381 129.821 100.381H127.865C127.807 103.921 127.843 107.389 127.836 110.864C127.828 114.368 127.836 117.871 127.836 121.383V142.217C127.215 142.384 124.675 142.421 123.631 142.282" fill="#D9D9D9"/>
<path d="M189.485 142.295C188.945 142.441 186.236 142.463 185.506 142.324C185.492 142.31 185.47 142.295 185.455 142.273C185.441 142.251 185.426 142.229 185.419 142.208C185.404 142.135 185.375 142.062 185.375 141.989C185.375 127.498 185.375 113.008 185.375 98.5251C185.375 98.401 185.397 98.277 185.419 98.0799C186.076 97.985 186.733 98.0507 187.397 98.0361C188.069 98.0288 188.733 98.0361 189.368 98.0361C189.419 98.0945 189.441 98.1091 189.456 98.131C189.47 98.1529 189.499 98.1675 189.499 98.1894C189.514 98.8828 189.543 99.5763 189.543 100.27C189.543 114.234 189.543 128.199 189.543 142.171C189.543 142.215 189.499 142.259 189.478 142.302" fill="#D9D9D9"/>
</g>
<defs>
<clipPath id="clip0_4072_3608">
<rect width="179" height="44.4562" fill="white" transform="translate(31 98)"/>
</clipPath>
</defs>
</svg>
