<?xml version="1.0" encoding="UTF-8"?>
<svg id="Layer_1" xmlns="http://www.w3.org/2000/svg" viewBox="0 0 211.34 106.1">
  <defs>
    <style>
      .cls-1 {
        fill: #fff;
      }
    </style>
  </defs>
  <path class="cls-1" d="M48.75,102.58c-.2.79-.3,1.32-.48,1.83-.36,1.03-1.22,1.55-2.25,1.41-1.08-.14-1.73-.8-1.85-1.92-.04-.42-.02-.85-.02-1.28,0-7.49,0-14.98,0-22.47,0-.24,0-.49,0-.73.07-1.61.72-2.33,2.14-2.35,1.46-.03,2.23.77,2.26,2.45.03,2.44,0,4.87.01,7.31,0,.6,0,1.19,0,2.21.73-.59,1.15-.89,1.52-1.25,3.39-3.31,10.56-3.23,12.91,2.68,1.54,3.87,1.45,7.76-.42,11.49-2.67,5.34-9.3,4.9-12.33,2.04-.43-.41-.87-.83-1.49-1.42ZM59.6,95.89c-.34-1.49-.54-3-1.04-4.41-.58-1.65-1.83-2.68-3.66-2.86-2.15-.21-4.09.23-5.18,2.25-1.79,3.35-1.7,6.8.11,10.1,1,1.84,2.86,2.36,4.85,2.26,1.89-.09,3.23-1.15,3.84-2.89.5-1.41.72-2.92,1.08-4.46Z"/>
  <path class="cls-1" d="M166.13,89.08c.1-.23.15-.49.31-.67,2.25-2.69,5.15-3.29,8.41-2.43,2.6.69,4.32,3.07,4.37,6.08.07,3.84.02,7.67.02,11.51,0,.12,0,.24,0,.37-.12,1.21-.8,1.85-2.02,1.91-1.11.05-2.07-.65-2.27-1.71-.08-.41-.04-.85-.04-1.28,0-2.8,0-5.6,0-8.4,0-.43,0-.85,0-1.28-.07-2.83-1.48-4.48-3.9-4.55-3.02-.1-5.23,1.69-5.43,4.45-.07.97-.03,1.95-.04,2.92,0,2.31.06,4.63-.04,6.94-.03.8-.3,1.71-.79,2.32-.54.68-1.49.77-2.36.42-.88-.35-1.36-1-1.36-1.96,0-8.22-.02-16.44.01-24.66,0-1.16.81-1.86,1.99-1.97,1.16-.11,2.06.44,2.36,1.54.14.52.17,1.08.18,1.62.02,2.25,0,4.51,0,6.76,0,.59,0,1.19,0,1.78.2.1.4.2.6.3Z"/>
  <path class="cls-1" d="M194.53,94.49c.5.59.87,1.06,1.28,1.5,1.85,2.02,3.7,4.03,5.56,6.05.21.22.42.44.6.68.72.94.72,1.7.02,2.45-.66.7-1.65.86-2.49.31-.5-.33-.93-.78-1.34-1.23-2.19-2.45-4.36-4.92-6.53-7.39-.4-.45-.75-.94-1.13-1.41-.15.06-.31.13-.46.19-.07.5-.19,1-.2,1.49-.02,2.07-.02,4.14,0,6.21,0,.98-.23,1.79-1.22,2.24-1.45.65-2.9-.1-3.14-1.68-.06-.42-.04-.85-.04-1.28,0-7.49,0-14.98,0-22.46,0-.24,0-.49,0-.73.08-1.56.81-2.36,2.16-2.38,1.37-.02,2.16.78,2.23,2.31.04.97.01,1.95.01,2.92,0,3.17,0,6.33,0,9.5,0,.57.1,1.14.2,2.14.77-.67,1.22-1.04,1.64-1.43,1.84-1.68,3.68-3.37,5.52-5.05.45-.41.9-.83,1.41-1.16.99-.65,2.13-.45,2.75.42.58.81.46,1.52-.52,2.37-2.01,1.76-4.06,3.48-6.31,5.4Z"/>
  <path class="cls-1" d="M127.07,106.01c-4.04.11-7.16-1.22-9.15-4.6-2.33-3.97-1.89-9.04.98-12.47,2.22-2.65,5.26-3.43,8.54-3.31,1.43.05,2.93.35,4.26.89,3.18,1.3,4.95,3.86,5.54,7.19.68,3.83-.12,7.28-3.11,9.97-2.06,1.85-4.55,2.49-7.06,2.33ZM121.29,95.84c-.07,1.85.27,3.61,1.38,5.16,2.2,3.07,6.53,3.09,8.63-.04,2-2.98,1.91-7.17,0-10.18-1.99-3.13-7.06-2.84-8.79.17-.88,1.53-1.29,3.13-1.22,4.89Z"/>
  <path class="cls-1" d="M14.13,80.74c0,1.02,0,1.68,0,2.34,0,6.52.01,13.05-.02,19.57,0,.7-.1,1.48-.41,2.08-.51.96-1.81,1.33-2.89,1.04-1.16-.31-1.71-1.04-1.72-2.45-.02-3.6,0-7.19,0-10.79,0-3.11,0-6.22,0-9.33q0-2.46-2.55-2.46c-1.34,0-2.68,0-4.02,0-1.78-.02-2.42-.48-2.5-1.71-.07-1.03.66-2.03,2.46-2.01,5.49.07,10.97.02,16.46.03.79,0,1.59-.04,2.37.05,1.26.15,1.83.97,1.63,2.17-.15.93-.67,1.4-1.8,1.45-1.58.06-3.17.03-4.75.03-.65,0-1.31,0-2.24,0Z"/>
  <path class="cls-1" d="M82.75,96.53c-.36,3.27,2.28,6.7,6.58,6.34,1.37-.12,2.71-.63,4.05-1,.41-.11.77-.36,1.17-.51.62-.23,1.31-.61,1.8.15.45.7.29,1.46-.31,1.99-.63.56-1.32,1.11-2.08,1.45-2.88,1.3-5.93,1.46-8.94.67-6.25-1.63-8.01-8.52-6.48-13.02,2.37-7.01,9.73-8.46,14.74-5.76,3.22,1.73,4.41,4.74,4.38,8.27,0,1.08-.32,1.29-1.74,1.3-3.72.02-7.43,0-11.15.01-.65,0-1.31.06-2.02.09ZM93.7,94.26c-.1-2.14-.67-3.81-2.35-4.84-1.9-1.17-3.95-1.23-5.89-.13-1.81,1.02-2.57,2.73-2.8,4.94,3.77.13,7.31.1,11.04.03Z"/>
  <path class="cls-1" d="M34.17,102.96c-.35.3-.58.47-.78.68-2.54,2.7-5.65,2.85-8.93,1.87-1.97-.59-3.17-2.08-3.52-4.07-.38-2.17.17-4.12,1.98-5.55,1.59-1.26,3.46-1.75,5.43-1.92,1.87-.17,3.75-.25,5.63-.37.85-2.15-.06-4.02-2.24-4.63-1.97-.55-3.86-.07-5.74.47-.58.17-1.13.44-1.71.64-.69.23-1.34.21-1.77-.48-.4-.64-.06-1.15.33-1.65.97-1.23,2.36-1.72,3.8-1.98,2.16-.39,4.34-.51,6.53-.09,3.12.6,5.12,2.74,5.19,5.93.09,3.96.04,7.92.02,11.87,0,1.34-.61,2.04-1.73,2.16-1.08.11-1.89-.5-2.22-1.7-.09-.33-.17-.67-.29-1.18ZM34.11,96.33c-1.49,0-2.89-.05-4.28.02-1.29.07-2.52.43-3.55,1.26-1.67,1.35-1.66,3.75.09,5,.61.44,1.42.73,2.17.81,3.79.44,6.58-3.24,5.57-7.09Z"/>
  <path class="cls-1" d="M108.69,85.87c1.11,0,1.96-.03,2.8.01.41.02.86.08,1.22.27.63.33.68.97.59,1.6-.1.63-.49.96-1.12.99-.55.03-1.1,0-1.64.03-.59.03-1.17.11-1.85.17-.04.7-.1,1.24-.11,1.77-.01,2.56,0,5.11,0,7.67,0,.3,0,.61.03.91.31,2.56.41,3.72,3.64,3.42,1.32-.12,1.66.17,1.82,1.01.2,1.05-.16,1.68-1.36,1.99-1.73.45-3.51.51-5.23,0-2.28-.66-2.91-2.59-3.19-4.66-.13-.96-.09-1.94-.09-2.92-.01-2.62.01-5.24-.01-7.85-.01-1.35-.14-1.45-1.45-1.54-.3-.02-.61-.01-.91-.02-.81-.04-1.21-.5-1.27-1.28-.06-.8.41-1.4,1.23-1.55.35-.07.73-.03,1.09-.05,1.48-.07,1.6-.18,1.7-1.73.08-1.21.05-2.44.21-3.64.16-1.22.81-1.8,1.86-1.92,1.19-.13,1.87.4,1.93,1.6.05,1.22,0,2.43.02,3.65,0,.59.06,1.18.11,2.04Z"/>
  <path class="cls-1" d="M150.89,106.03c-6.52.21-9.69-4.94-9.77-9.58-.04-2.18.3-4.22,1.42-6.13,2.05-3.49,5.23-4.76,9.07-4.69,1.14.02,2.28.35,3.4.64.57.15,1.13.47,1.62.82.65.46.85,1.45.52,2.13-.37.78-1.06.73-1.73.58-.65-.14-1.28-.39-1.93-.55-3.69-.93-6.58.76-7.53,4.42-.51,1.95-.34,3.86.5,5.7,1.11,2.44,3.52,3.71,6.14,3.22.95-.18,1.88-.51,2.81-.77,1.16-.33,1.79-.19,2.1.46.38.82.14,1.83-.85,2.31-1.18.58-2.48.96-3.75,1.32-.63.18-1.33.09-2,.13Z"/>
  <path class="cls-1" d="M68.76,91.38c0-3.96-.02-7.91,0-11.87.01-1.59.74-2.37,2.1-2.43,1.12-.04,1.87.42,2.23,1.5.17.51.23,1.07.23,1.61.01,7.55,0,15.1,0,22.65,0,.24.01.49-.02.73-.18,1.4-1.13,2.29-2.4,2.29-1.31,0-2.13-.87-2.15-2.41-.03-4.02-.01-8.04-.01-12.05Z"/>
  <path class="cls-1" d="M206.62,95.76c0-2.43-.01-4.86,0-7.29.01-1.72.73-2.56,2.11-2.58,1.19-.01,2.3.98,2.27,2.5-.1,4.98-.02,9.97-.05,14.95,0,1.72-1.13,2.73-2.61,2.46-1.14-.21-1.7-.87-1.71-2.2-.03-2.61,0-5.23,0-7.84Z"/>
  <path class="cls-1" d="M208.71,81.09c-.28-.04-.65-.04-1-.14-1.02-.28-1.72-1.21-1.64-2.12.08-.95.86-1.68,1.96-1.8.42-.05.85-.05,1.27-.01,1.28.13,2.07.95,2.04,2.09-.03,1.04-.78,1.77-2.01,1.93-.18.02-.36.03-.62.05Z"/>
  <path class="cls-1" d="M139.36,15.57c-.17-4.62-2.05-8.34-5.59-11.23C129.92,1.19,125.33.08,120.49,0c-4.86-.07-9.55,1.03-14.03,2.89-1.04.43-1.9.42-2.94,0-5.62-2.23-11.4-3.39-17.49-2.64-3.96.49-7.58,1.78-10.7,4.29-3.13,2.51-5.11,5.74-5.45,9.79-.37,4.48.16,8.88,1.69,13.14,1.87,5.21,5.08,9.54,8.88,13.48,3.95,4.1,8.41,7.6,13.12,10.77,3.63,2.45,7.39,4.71,11.13,7.09,3.03-1.88,5.97-3.61,8.82-5.48,6.19-4.05,12.03-8.53,16.97-14.08,6-6.75,9.22-14.52,8.89-23.66ZM128.96,19.28c-.4,4.06-2.18,7.42-4.95,10.33-3.18,3.35-6.99,5.85-10.89,8.24-.75.46-1.41.49-2.19,0-4.39-2.77-8.64-5.7-12.02-9.72-2.34-2.78-3.87-5.89-4.18-9.54-.32-3.76,1.66-7.15,6.02-8.46,1.21-.37,2.5-.43,3.76-.64,2.13.06,4.14.55,6.1,1.25.97.35,1.84.33,2.8-.03,2.91-1.1,5.91-1.46,8.97-.75,4.57,1.06,7.04,4.65,6.58,9.32Z"/>
  <path class="cls-1" d="M115.14,20.07c1.08,0,1.97-.02,2.87,0,1.74.05,2.9,1.18,2.92,2.82.01,1.63-1.15,2.8-2.88,2.86-.9.03-1.8,0-2.88,0-.05.9-.07,1.61-.13,2.31-.1,1.22-.54,2.23-1.74,2.78-1.83.84-3.83-.3-4.01-2.31-.07-.83-.09-1.67-.15-2.68-.78-.04-1.43-.07-2.07-.1-1.8-.1-2.85-1.17-2.84-2.88,0-1.71,1.06-2.73,2.89-2.81.54-.02,1.09,0,1.6,0,.79-.77.52-1.67.54-2.48.03-.93.02-1.86.83-2.5.84-.67,1.75-1.06,2.87-.65,1.14.42,1.84,1.19,2,2.37.13.96.11,1.93.18,3.25Z"/>
</svg>