<svg width="240" height="240" viewBox="0 0 240 240" fill="none" xmlns="http://www.w3.org/2000/svg">
<g clip-path="url(#clip0_4072_3461)">
<path fill-rule="evenodd" clip-rule="evenodd" d="M66.9357 137.982C66.6151 139.258 66.5751 139.384 66.2479 139.384H62.6153V139.632H70.8421V139.384H67.0759C66.8355 139.384 66.8756 139.211 67.1694 138.042L69.7002 128.213H79.7233L82.7816 139.378H78.7083V139.625H92.404V139.378H88.1437L76.7985 100H76.7317L66.9423 137.982H66.9357ZM74.5481 109.389L79.6431 127.966H69.7736L74.5481 109.389ZM184.882 119.986H188.014C190.792 119.986 194.885 121.181 194.885 126.036V134.83C194.885 138.43 196.868 140.693 200.374 140.693C204.053 140.693 204 136.974 204 134.296V131.472H203.753V134.296C203.753 137.348 203.392 139.999 201.596 139.999C200.007 139.999 199.66 139.011 199.66 134.87V126.036C199.66 121.949 196.347 120.453 191.232 119.859C197.603 119.105 200 115.031 200 110.531C200 103.873 196.928 101.075 189.015 101.075H176.468V101.322H179.76C180.001 101.322 180.108 101.389 180.108 101.522V139.177C180.108 139.311 179.994 139.378 179.76 139.378H176.468V139.625H188.007V139.378H185.236C184.996 139.378 184.889 139.311 184.889 139.177V119.979L184.882 119.986ZM184.882 101.329H188.261C193.469 101.329 194.945 105.289 194.945 110.531C194.945 115.439 193.469 119.732 188.261 119.732H184.882V101.329ZM100.925 139.184C100.885 139.271 100.925 139.378 101.125 139.378H110.113C112.878 139.378 116.45 135.284 116.45 122.096V120.721H116.697V139.625H95.2353L111.495 101.522C111.535 101.436 111.489 101.329 111.295 101.329H101.753C99.2486 101.329 95.6093 105.903 95.6093 118.61V119.986H95.3622V101.082H117.198L100.925 139.191M47.7843 101.329C52.9928 101.329 55.1163 105.289 55.1163 110.531C55.1163 115.439 52.9928 119.358 47.7843 119.358H45.4138V101.329H47.7843ZM37 101.075V101.322H40.2921C40.5324 101.322 40.6393 101.389 40.6393 101.522V139.177C40.6393 139.311 40.5258 139.378 40.2921 139.378H37V139.625H49.2868C57.1997 139.625 61.42 136.333 61.42 129.675C61.42 125.068 58.9226 120.38 51.0497 119.445C57.7406 118.817 60.0511 114.617 60.0511 110.524C60.0511 104.534 56.4518 101.068 48.5389 101.068H37V101.075ZM47.7843 119.612C53.6606 119.612 55.9911 123.619 55.9911 129.689C55.9911 134.931 53.9144 139.391 49.033 139.391H45.7677C45.5273 139.391 45.4204 139.324 45.4204 139.184V119.612H47.791H47.7843ZM123.588 137.982C123.268 139.258 123.221 139.384 122.901 139.384H119.268V139.632H127.501V139.384H123.735C123.495 139.384 123.535 139.211 123.829 138.042L126.36 128.213H136.383L139.441 139.378H135.368V139.625H149.063V139.378H144.803L133.445 100H133.378L123.588 137.982ZM131.201 109.389L136.296 127.966H126.426L131.201 109.389Z" fill="#D9D9D9"/>
<path fill-rule="evenodd" clip-rule="evenodd" d="M150.919 137.982C150.599 139.258 150.559 139.384 150.232 139.384H146.599V139.632H154.826V139.384H151.06C150.819 139.384 150.859 139.211 151.153 138.042L153.684 128.213H163.707L166.765 139.378H162.692V139.625H176.388V139.378H172.127L160.782 100H160.715L150.926 137.982H150.919ZM158.539 109.389L163.634 127.966H153.764L158.539 109.389ZM142.118 105.068C142.118 105.068 142.132 105.088 142.158 105.088H142.713V105.175H140.816V105.088H141.31C141.31 105.088 141.35 105.088 141.35 105.068V103.145H139.534V105.068C139.534 105.068 139.547 105.088 139.574 105.088H140.068V105.175H138.172V105.088H138.726C138.726 105.088 138.766 105.088 138.766 105.068V101.295C138.766 101.295 138.753 101.275 138.726 101.275H138.172V101.189H140.068V101.275H139.574C139.574 101.275 139.534 101.275 139.534 101.295V103.058H141.35V101.295C141.35 101.295 141.337 101.275 141.31 101.275H140.816V101.189H142.713V101.275H142.158C142.158 101.275 142.118 101.275 142.118 101.295V105.068ZM147.387 103.426C147.213 103.426 147.093 103.345 147.093 103.212C147.093 103.092 147.167 103.092 147.167 103.005C147.167 102.918 147.107 102.871 147.013 102.871C146.92 102.871 146.739 102.905 146.612 103.305V105.075C146.612 105.075 146.626 105.095 146.652 105.095H146.993V105.182H145.657V105.095H145.998C145.998 105.095 146.038 105.095 146.038 105.075V102.891C146.038 102.891 146.025 102.871 145.998 102.871H145.657V102.785H146.599L146.619 102.805V103.179C146.719 102.871 146.933 102.738 147.193 102.738C147.5 102.738 147.707 102.898 147.707 103.152C147.707 103.312 147.587 103.439 147.4 103.439M152.402 105.222C152.836 105.222 153.19 105.008 153.424 104.688L153.357 104.634C153.136 104.941 152.843 105.135 152.409 105.135C152.248 105.135 152.115 105.102 152.008 105.008C151.828 104.841 151.767 104.654 151.767 103.98C151.767 103.933 151.767 103.913 151.767 103.873H153.477L153.497 103.86C153.497 103.406 153.183 102.738 152.409 102.738C151.694 102.738 151.16 103.299 151.16 103.987C151.16 104.674 151.694 105.235 152.409 105.235M152.722 102.945C152.856 103.092 152.896 103.319 152.909 103.78H151.767C151.781 103.325 151.841 103.092 152.008 102.945C152.121 102.845 152.248 102.818 152.409 102.818C152.549 102.818 152.636 102.851 152.722 102.945ZM143.895 105.115C144.202 105.115 144.395 104.895 144.395 104.688V103.86C144.255 103.94 144.048 103.94 143.868 103.973C143.661 104.013 143.44 104.12 143.44 104.634C143.44 105.028 143.701 105.115 143.895 105.115ZM143.18 103.219C143.18 103.018 143.434 102.731 143.915 102.731C144.622 102.731 144.976 103.045 144.976 103.746V104.888C144.976 105.022 145.043 105.075 145.137 105.075C145.243 105.075 145.337 104.981 145.357 104.928L145.417 104.988C145.384 105.088 145.197 105.222 144.97 105.222C144.709 105.222 144.476 105.068 144.435 104.861C144.349 105.102 144.122 105.222 143.788 105.222C143.24 105.222 142.886 105.028 142.886 104.634C142.886 104.047 143.514 103.906 143.754 103.886C144.095 103.86 144.402 103.833 144.402 103.713V103.386C144.402 102.985 144.228 102.811 143.915 102.811C143.761 102.811 143.661 102.885 143.661 103.052C143.661 103.145 143.708 103.172 143.708 103.265C143.708 103.366 143.627 103.466 143.434 103.466C143.24 103.466 143.173 103.339 143.173 103.212M149.864 102.945C149.764 102.851 149.624 102.818 149.47 102.818C149.263 102.818 149.076 102.951 148.943 103.112V104.788C149.023 104.988 149.25 105.142 149.47 105.142C149.617 105.142 149.758 105.115 149.864 105.015C150.038 104.855 150.151 104.574 150.151 103.993C150.151 103.412 150.038 103.105 149.864 102.945ZM150.739 103.993C150.739 104.614 150.212 105.229 149.477 105.229C149.25 105.229 149.083 105.088 148.95 104.955V106.811C148.95 106.811 148.963 106.831 148.99 106.831H149.33V106.918H147.995V106.831H148.335C148.335 106.831 148.375 106.831 148.375 106.811V102.891C148.375 102.891 148.362 102.871 148.335 102.871H147.995V102.785H148.936L148.95 102.805V103.018C149.083 102.885 149.25 102.738 149.477 102.738C150.212 102.738 150.739 103.379 150.739 104M158.031 102.798C158.091 102.798 158.131 102.771 158.138 102.744H158.231V103.339H158.138C158.138 102.992 157.831 102.818 157.537 102.818C157.243 102.818 157.09 102.951 157.09 103.172C157.09 103.452 157.29 103.593 157.737 103.719C158.211 103.853 158.519 104.087 158.519 104.447C158.519 104.901 158.151 105.235 157.557 105.235C157.21 105.235 157.056 105.075 156.876 105.075C156.796 105.075 156.716 105.122 156.682 105.195H156.582L156.615 104.407H156.716C156.702 104.821 157.09 105.148 157.557 105.148C157.911 105.148 158.111 104.988 158.111 104.681C158.111 104.374 157.871 104.26 157.443 104.127C157.023 104 156.722 103.826 156.722 103.452C156.722 103.012 157.15 102.731 157.53 102.731C157.777 102.731 157.804 102.798 158.031 102.798ZM156.268 101.963C156.268 101.803 156.402 101.669 156.575 101.669C156.756 101.669 156.896 101.803 156.896 101.997C156.896 102.284 156.635 102.618 156.282 102.831L156.221 102.765C156.475 102.618 156.662 102.431 156.776 102.17C156.729 102.224 156.662 102.244 156.575 102.244C156.408 102.244 156.268 102.11 156.268 101.95M155.5 103.426C155.327 103.426 155.206 103.345 155.206 103.212C155.206 103.092 155.28 103.092 155.28 103.005C155.28 102.918 155.22 102.871 155.126 102.871C155.033 102.871 154.853 102.905 154.726 103.305V105.075C154.726 105.075 154.739 105.095 154.766 105.095H155.106V105.182H153.771V105.095H154.111C154.111 105.095 154.151 105.095 154.151 105.075V102.891C154.151 102.891 154.138 102.871 154.111 102.871H153.771V102.785H154.712L154.732 102.805V103.179C154.832 102.871 155.046 102.738 155.307 102.738C155.614 102.738 155.821 102.898 155.821 103.152C155.821 103.312 155.694 103.439 155.507 103.439" fill="#D9D9D9"/>
</g>
<defs>
<clipPath id="clip0_4072_3461">
<rect width="167" height="40.6933" fill="white" transform="translate(37 100)"/>
</clipPath>
</defs>
</svg>
