<?xml version="1.0" encoding="UTF-8"?>
<svg id="Layer_1" xmlns="http://www.w3.org/2000/svg" viewBox="0 0 225.06 53.98">
  <defs>
    <style>
      .cls-1 {
        fill: #fff;
      }
    </style>
  </defs>
  <path class="cls-1" d="M193.74,0c-11.69,0-21.32,9.45-21.32,21.32s9.45,21.32,21.32,21.32,21.32-9.45,21.32-21.32S205.43,0,193.74,0M210.24,9.45c-1.03.69-2.23,1.38-3.44,2.06-.69-1.38-1.55-2.75-2.58-3.95.86-.52,1.72-1.2,2.41-1.72,1.55.86,2.75,2.23,3.61,3.61M201.3,2.41c1.72.69,3.27,1.55,4.81,2.75-.69.69-1.55,1.2-2.41,1.72-1.03-1.2-2.23-2.23-3.44-3.27.34-.52.69-.86,1.03-1.2M203.02,7.22c-1.2.69-2.41,1.03-3.61,1.55-.52-1.2-1.03-2.41-1.72-3.44.69-.34,1.38-.69,1.89-1.2,1.2.86,2.41,1.89,3.44,3.09M200.44,2.06c-.34.34-.69.69-.86,1.03-1.2-.69-2.23-1.38-3.61-1.89,1.55,0,3.09.34,4.47.86M198.89,3.61c-.52.34-1.03.69-1.55.86-.69-1.03-1.38-1.89-2.06-2.92,1.2.52,2.41,1.2,3.61,2.06M194.08,1.72c.86.86,1.55,1.89,2.23,3.09-.69.17-1.38.34-2.23.34V1.72ZM194.08,6.02c.86,0,1.89-.17,2.75-.52.69,1.03,1.2,2.23,1.72,3.44-1.38.34-2.92.52-4.47.69v-3.61ZM193.22,1.72v3.44c-.69,0-1.38-.17-2.23-.34.86-1.03,1.55-2.06,2.23-3.09M190.3,4.47c-.52-.17-1.2-.52-1.55-.86,1.2-.69,2.41-1.38,3.61-1.89-.86.86-1.55,1.72-2.06,2.75M191.5,1.03c-1.2.52-2.41,1.2-3.61,1.89-.34-.34-.69-.69-.86-1.03,1.38-.34,2.92-.69,4.47-.86M206.11,37.48c-2.75-1.55-2.92-3.78-2.75-4.47.17-.86.69-.52,1.03-.52,1.89,0,3.78-.52,6.19-3.09,2.75-2.75,3.61-8.94-.69-12.89-4.47-4.3-9.28-3.61-12.38.34-.69.86-2.23,1.38-3.44,1.38-2.06,0-.69,1.55-.69,1.89s-.34.52-.52.52c-.69-.17-.34.86-.34,1.03s-.34.52-.34.52c-.86,0-.69.69-.52,1.03,0,.17,0,.52-.34.69-.34.17-.52.86-.52,1.38,0,.86.86,1.55,2.23,2.58,1.38,1.03,1.55,2.06,1.55,2.75s.17,1.89.34,2.58c.34.86.34,2.58-1.55,2.58-2.41.17-6.53,1.89-6.88,2.06-1.38.52-3.09.69-4.47.34-.69-.52-1.38-1.03-2.06-1.72-.34-.86.17-1.89.69-2.58.86.86,1.89.69,2.58.69s3.78-.52,4.3-.69.69-.17.86,0c1.2.52,2.92.52,3.61-1.72.69-2.41-.86-1.72-1.2-1.55-.17.17-.52,0-.34-.17.34-.52-.17-.52-.34-.52-.69,0-1.55.69-1.72.86-.34.17-.52.17-.69.17-.86-.52-3.44.17-4.3-1.2,0-.34-.69-6.02-1.03-7.05,0-.17-.17-.52.17-.86.69-1.03,2.41,0,3.44,0,1.2,0,1.38-.52,1.72-.86s.52-.17.69-.34c.17-.17,0-.34,0-.52s.17,0,.34-.17,0-.52,0-.69c.34-.52,1.03-.17.69-1.2-.17-.69.17-1.38.52-1.72.52-.69,2.75-3.78-1.03-7.05-3.61-3.09-7.39-2.75-9.8-.17-2.41,2.58-1.2,6.36-1.03,7.39s-.52,1.89-1.38,2.23c-.69.34-2.23,1.38-3.27,2.23.17-8.25,5.16-15.47,12.72-18.39.34.34.69.86,1.03,1.2-.86.69-2.75,2.23-2.75,2.23,0,0,.17,0,.52.17.17,0,.52.17.52.17,0,0,1.55-1.38,2.41-1.89.52.52,1.2.86,1.89,1.2-.34.69-1.38,2.41-1.38,2.41,0,0,.17.17.34.17.17.17.34.17.34.17,0,0,1.03-1.89,1.38-2.58.86.34,1.72.52,2.58.52v3.44c-.52,0-1.72,0-2.23-.17h-.34l.17.34c.17.17.17.34.34.52h2.06v6.36h.86v-1.55c1.38,0,2.41-.17,3.61-.34h0l1.2-1.03h-.69c-1.38.17-2.58.34-3.61.34h-.52v-3.95c1.55,0,3.27-.17,4.81-.69.34,1.03,1.2,3.61,1.2,3.61l.86-.34s-.86-2.58-1.2-3.61c1.38-.34,2.58-1.03,3.78-1.55,1.03,1.2,1.89,2.58,2.58,3.95-.69.34-1.72.69-1.72.69.86.17,1.55.34,1.55.34,0,0,.34-.17.52-.17,0,.17.17.52.17.52l1.2.52-.17-.34s-.34-.86-.52-1.03c1.2-.52,2.41-1.2,3.61-2.06,2.23,3.27,3.27,7.22,3.27,11.17.34,6.53-2.92,12.38-7.74,16.16"/>
  <path class="cls-1" d="M170.53,5.67l-.34.34c-1.2,1.03-4.13,3.95-3.61,7.22v.17l.17.69.34-.34c1.72-1.55,3.09-4.3,3.61-7.39l.17-.86-.34.17Z"/>
  <path class="cls-1" d="M164.68,11.17l-.17.34c-.17.52-.52,1.72-.69,3.09-.34,2.06-.17,5.16,1.55,7.39l.17.34.17.34.34-1.38c.34-2.41-.17-7.39-1.03-9.63l-.34-.69v.17Z"/>
  <path class="cls-1" d="M162.62,19.77v.34c-.17,2.06,0,7.39,4.3,10.31l.52.34v-.69c0-2.06-2.41-8.08-4.13-10.14l-.52-.69-.17.52Z"/>
  <path class="cls-1" d="M163.31,29.22v.34c.69,3.09,3.44,7.91,7.91,9.45l.69.17-.17-.69c-.86-2.23-5.16-7.56-7.91-9.28l-.52-.34v.34Z"/>
  <path class="cls-1" d="M172.42,10.31l-.52.17c-3.27,2.06-4.81,4.47-4.81,7.56v.69l.52-.34c1.72-1.55,4.13-5.33,4.64-7.39l.17-.86v.17Z"/>
  <path class="cls-1" d="M170.36,16.85l-.17.34c-.86.86-3.61,3.78-3.44,7.39,0,.52.17,1.2.34,1.72l.17.52.34-.52c1.38-1.89,3.09-6.7,2.92-8.94v-.69l-.17.17Z"/>
  <path class="cls-1" d="M170.53,23.21l-.17.34c-1.38,2.06-2.06,4.13-2.06,6.19,0,1.38.52,2.75,1.38,4.13l.34.52.17-.52c.52-1.2,1.03-4.81,1.03-7.74,0-1.03-.17-1.89-.34-2.41l-.17-.69-.17.17Z"/>
  <path class="cls-1" d="M172.08,29.91l-.17.34c-.34,1.38-.69,2.58-.52,3.95,0,2.75,1.38,4.99,3.78,6.53l.34.17.17-.52v-.52c0-2.23-1.72-8.08-3.09-9.8l-.34-.52-.17.34Z"/>
  <path class="cls-1" d="M167.43,38.85l.17.34c1.72,2.92,4.81,6.88,10.49,5.84h.52l-.34-.34c-1.03-1.55-7.91-5.5-10.31-5.84l-.69-.17.17.17Z"/>
  <path class="cls-1" d="M175.86,46.41h0l-.86.17.86.34c3.61,1.55,8.08,1.89,10.83,1.03,1.03-.34,1.55-.86,2.23-1.55,4.64.52,8.94,4.3,11.52,7.39l.17.17h.17c.34-.17.69-.52.86-.69l.17-.17-.17-.17c-2.58-3.44-6.7-5.5-6.88-5.67-3.78-1.72-10.31-3.09-18.91-.86"/>
  <path class="cls-1" d="M176.03,36.79v.34c.52,3.44,1.89,7.91,7.74,7.39h.34l-.17-.34c-.34-1.55-5.67-6.02-7.56-7.22l-.52-.34.17.17Z"/>
  <path class="cls-1" d="M216.6,5.33l.17.86c.52,3.09,1.89,5.84,3.61,7.39l.34.34.17-.69v-.17c.52-3.27-2.41-6.19-3.61-7.22l-.34-.34-.34-.17Z"/>
  <path class="cls-1" d="M222.62,10.83l-.34.69c-.86,2.23-1.2,7.22-1.03,9.63l.34,1.38.17-.17.17-.34c1.89-2.23,1.89-5.16,1.55-7.39-.17-1.55-.52-2.58-.69-3.09l-.17-.34v-.34Z"/>
  <path class="cls-1" d="M224.85,19.43l-.52.69c-1.72,2.23-4.13,8.08-4.13,10.14v.69l.52-.34c4.3-2.75,4.47-8.08,4.3-10.31v-.34l-.17-.52Z"/>
  <path class="cls-1" d="M224.16,28.88l-.69.34c-2.75,1.72-7.05,7.05-7.91,9.28l-.17.69.69-.17c4.47-1.38,7.39-6.36,7.91-9.45v-.34l.17-.34Z"/>
  <path class="cls-1" d="M215.05,9.97l.17.86c.69,2.23,2.75,6.02,4.64,7.56l.52.34v-.69c.17-3.09-1.38-5.5-4.64-7.56l-.34-.17-.34-.34Z"/>
  <path class="cls-1" d="M216.94,16.67v.69c-.17,2.23,1.72,7.22,2.92,8.94l.34.52.17-.52c.17-.69.34-1.2.34-1.72.17-3.61-2.58-6.53-3.44-7.39l-.17-.17-.17-.34Z"/>
  <path class="cls-1" d="M216.77,22.86l-.17.69c-.17.52-.34,1.38-.34,2.41,0,2.92.34,6.53,1.03,7.74l.17.52.34-.52c.86-1.2,1.38-2.58,1.38-4.13,0-1.89-.69-4.13-2.06-6.19l-.17-.34-.17-.17Z"/>
  <path class="cls-1" d="M215.22,29.57l-.34.52c-1.38,1.72-3.09,7.56-3.09,9.8v.52l.17.52.34-.17c2.41-1.55,3.61-3.78,3.78-6.53,0-1.2-.17-2.58-.52-3.95l-.17-.34-.17-.34Z"/>
  <path class="cls-1" d="M220.21,38.51l-.69.17c-2.41.34-9.28,4.3-10.31,5.84l-.34.34h.52c5.67,1.03,8.77-2.92,10.49-5.84l.17-.34.17-.17Z"/>
  <path class="cls-1" d="M192.88,47.27c-.17,0-4.3,2.23-6.88,5.67l-.17.17.17.17c.17.17.69.52.86.69h.17l.17-.17c2.58-3.09,6.88-7.05,11.52-7.39.69.69,1.38,1.2,2.23,1.55,2.58.86,7.22.52,10.83-1.03l.86-.34-.86-.17c-8.77-2.23-15.3-.86-18.91.86"/>
  <path class="cls-1" d="M211.44,36.44l-.52.34c-1.89,1.2-7.05,5.67-7.56,7.22l-.17.34h.34c5.67.52,7.05-3.95,7.74-7.39v-.34l.17-.17Z"/>
  <path class="cls-1" d="M66.36,2.06h7.22v6.53h-7.22V2.06ZM67.04,16.16h6.02v31.97h-6.02v-31.97Z"/>
  <path class="cls-1" d="M21.49,16.16h6.02v31.97h-5.84v-4.64h-.17c-2.41,3.95-6.53,5.67-11,5.67-6.7,0-10.49-5.16-10.49-11.52v-21.49h6.02v18.91c0,5.5,1.2,9.63,7.05,9.63,2.41,0,5.84-1.2,7.05-4.64,1.2-2.92,1.2-6.7,1.2-7.56v-16.33h.17Z"/>
  <path class="cls-1" d="M39.54,20.8h0c2.23-3.95,6.53-5.67,9.8-5.67,2.23,0,12.03.52,12.03,10.83v22h-6.02v-20.11c0-5.33-2.23-8.08-7.39-8.08,0,0-3.27-.17-5.84,2.41-.86.86-2.58,2.23-2.58,8.6v17.36h-6.02v-31.97h6.02v4.64Z"/>
  <path class="cls-1" d="M98.33,26.3c-.34-3.95-2.23-6.7-6.53-6.7-5.67,0-7.91,4.99-7.91,12.38s2.23,12.38,7.91,12.38c3.95,0,6.36-2.58,6.7-7.22h6.02c-.52,7.22-5.84,11.52-12.89,11.52-10.14,0-14.27-7.22-14.27-16.5s4.64-17.02,14.78-17.02c6.7,0,11.69,4.3,12.03,11.17,0,0-5.84,0-5.84,0Z"/>
  <path class="cls-1" d="M113.46,33.18c-.52,5.5,1.89,11.35,7.91,11.35,4.64,0,7.05-1.89,7.74-6.53h6.36c-1.03,7.22-6.53,10.83-14.1,10.83-10.14,0-14.27-7.22-14.27-16.5s4.64-17.02,14.78-17.02c9.45.17,13.92,6.19,13.92,14.96v2.92s-22.35,0-22.35,0ZM129.62,29.05c.17-5.33-2.23-9.45-8.08-9.45-4.99,0-7.91,4.3-7.91,9.45h15.99Z"/>
  <path class="cls-1" d="M142.68,47.79v-27.5h-5.5v-4.13h5.5v-6.88c.17-6.88,5.5-8.77,9.97-8.77,1.38,0,2.92.34,4.3.69v4.99c-1.03,0-2.06-.17-3.09-.17-3.44,0-5.33.86-5.16,4.3v5.84h7.39v4.13h-7.39v27.5h-6.02Z"/>
</svg>