<svg width="240" height="240" viewBox="0 0 240 240" fill="none" xmlns="http://www.w3.org/2000/svg">
<g clip-path="url(#clip0_4072_3279)">
<path d="M48 98H83.2167V133.231H48V98ZM56.2041 125.005H74.9617C75.1508 123.638 75.0926 106.837 74.9035 106.233H56.2041V125.005Z" fill="#D9D9D9"/>
<path d="M166.141 133.622H159.82V112.058H166.09V114.349C167.595 112.276 169.632 111.439 172.061 111.512C174.476 111.585 176.454 112.487 177.574 114.872C177.749 114.639 177.887 114.458 178.025 114.269C178.738 113.294 179.662 112.588 180.789 112.174C182.694 111.468 184.673 111.301 186.651 111.701C189.437 112.261 191.146 114.05 191.895 116.72C192.215 117.869 192.397 119.083 192.411 120.276C192.477 124.553 192.441 128.829 192.441 133.106C192.441 133.252 192.419 133.397 192.404 133.601H186.113C186.113 133.244 186.113 132.917 186.113 132.597C186.113 128.953 186.127 125.309 186.098 121.665C186.098 120.953 186.011 120.218 185.844 119.527C185.567 118.356 184.84 117.52 183.633 117.272C182.331 117.011 181.174 117.345 180.302 118.4C179.552 119.302 179.291 120.363 179.283 121.513C179.283 124.015 179.283 126.509 179.283 129.011C179.283 130.517 179.283 132.022 179.283 133.513C178.621 133.702 174.767 133.761 172.963 133.608C172.948 133.31 172.927 132.99 172.927 132.67C172.927 128.968 172.941 125.258 172.912 121.556C172.912 120.814 172.803 120.051 172.592 119.338C171.828 116.741 168.825 116.741 167.486 118.043C166.81 118.698 166.403 119.483 166.264 120.4C166.184 120.931 166.141 121.476 166.141 122.014C166.133 125.535 166.141 129.062 166.141 132.582V133.601V133.622Z" fill="#D9D9D9"/>
<path d="M90.3897 112.03H96.6592V114.62C98.1793 112.372 100.281 111.761 102.623 111.638C109.307 111.274 113.562 116.991 113.722 122.075C113.824 125.318 113.046 128.213 110.849 130.642C108.064 133.726 104.572 134.606 100.601 133.784C99.0375 133.457 97.6702 132.708 96.7101 131.072V141.836C95.9973 142.025 91.9171 142.076 90.4624 141.93C90.2806 141.298 90.2006 113.638 90.3897 112.03ZM107.365 122.889C107.496 119.784 104.805 117.391 101.998 117.412C98.7684 117.434 96.3246 119.711 96.3101 122.787C96.2955 125.893 98.7102 128.257 101.896 128.264C104.98 128.271 107.358 125.937 107.365 122.889Z" fill="#D9D9D9"/>
<path d="M144.371 111.341C150.408 111.268 154.822 115.428 155.964 119.472C157.899 126.324 153.942 132.149 147.877 133.815C142.931 135.175 137.883 133.72 134.719 129.531C133.054 127.327 132.45 124.818 132.559 122.069C132.763 116.781 137.127 112.315 142.4 111.501C143.054 111.399 143.716 111.392 144.378 111.341H144.371ZM150.044 122.832C150.044 119.632 147.637 117.232 144.48 117.181C141.353 117.123 138.858 119.843 138.887 122.825C138.923 126.084 141.294 128.52 144.509 128.498C147.68 128.476 150.044 126.047 150.044 122.832Z" fill="#D9D9D9"/>
<path d="M117.102 112.03H123.386V114.554C125.378 111.79 128.128 111.296 131.27 111.674V117.638C130.87 117.602 130.491 117.536 130.113 117.551C129.219 117.573 128.295 117.507 127.422 117.689C124.986 118.198 123.517 120.038 123.436 122.598C123.393 124.046 123.422 125.486 123.422 126.933C123.422 128.861 123.422 130.788 123.422 132.715V133.632H117.102V112.038V112.03Z" fill="#D9D9D9"/>
</g>
<defs>
<clipPath id="clip0_4072_3279">
<rect width="144.445" height="44.01" fill="white" transform="translate(48 98)"/>
</clipPath>
</defs>
</svg>
