<svg width="253" height="132" viewBox="0 0 253 132" fill="none" xmlns="http://www.w3.org/2000/svg">
<g clip-path="url(#clip0_4056_210)">
<path d="M130.828 99.0606C127.347 99.0606 124.05 99.0606 120.726 99.0606C119.757 99.0606 119.967 98.3069 119.941 97.7352C119.705 91.94 119.522 86.1448 119.234 80.3496C118.815 71.3059 117.873 62.3142 115.989 53.4525C114.863 48.177 113.633 42.9015 111.225 37.9899C110.336 36.1968 109.367 34.4556 107.43 33.52C106.2 32.9223 105.153 33.0003 104.054 33.8839C101.83 35.729 100.6 38.1978 99.6835 40.8485C96.5167 49.9442 95.0511 59.3776 93.9518 68.8631C92.6171 80.3236 92.3553 91.8101 92.146 103.323C92.146 103.608 92.0936 103.92 92.0413 104.31C88.4557 104.31 84.8963 104.31 81.2584 104.31C81.2584 102.231 81.1537 100.204 81.2846 98.177C81.651 91.4722 81.8865 84.7674 82.5932 78.1146C83.7971 66.5502 86.2049 55.2196 90.4971 44.3568C92.303 39.809 94.4491 35.3911 97.9562 31.8049C99.6573 30.0377 101.542 28.4785 103.976 27.8288C107.378 26.9192 110.231 28.2965 112.796 30.3236C115.544 32.5325 117.664 35.3392 119.156 38.4837C121.223 42.9015 123.003 47.4753 124.887 51.9712C125.097 52.439 125.28 52.9327 125.594 53.7123C125.96 52.6469 126.248 51.8672 126.484 51.0616C128.159 45.8121 129.938 40.6146 133.053 35.9889C135.016 33.0523 137.397 30.5575 140.46 28.7903C143.6 26.9712 146.741 27.335 149.724 29.1801C152.917 31.1552 155.142 34.0658 156.869 37.3142C161.711 46.3839 164.512 56.1292 166.422 66.1604C168.752 78.3485 169.458 90.6926 169.694 103.089C169.72 104.154 169.406 104.518 168.307 104.492C165.166 104.44 162.025 104.466 158.832 104.466C158.78 103.972 158.701 103.634 158.701 103.323C158.597 98.7487 158.597 94.1489 158.387 89.5751C157.89 78.1926 157.053 66.862 154.776 55.6874C153.755 50.6458 152.473 45.6562 150.981 40.7446C150.326 38.6136 148.939 36.6645 147.657 34.7674C146.296 32.7664 143.888 32.5845 142.161 34.3516C141.114 35.4171 140.25 36.7165 139.57 38.0419C137.24 42.5377 136.167 47.4753 135.068 52.361C133.079 61.2487 132.006 70.2664 131.587 79.336C131.299 85.4171 131.116 91.5242 130.881 97.6313C130.881 98.0211 130.854 98.4629 130.828 99.0606Z" fill="#D9D9D9"/>
</g>
<defs>
<clipPath id="clip0_4056_210">
<rect width="88.4615" height="76.9231" fill="white" transform="translate(81.2109 27.543)"/>
</clipPath>
</defs>
</svg>
