<svg width="240" height="240" viewBox="0 0 240 240" fill="none" xmlns="http://www.w3.org/2000/svg">
<g clip-path="url(#clip0_4072_3456)">
<path d="M122.598 100.793C120.131 100.793 118.078 102.713 118.078 105.157C118.078 107.6 120.131 109.551 122.598 109.551C125.066 109.551 127.179 107.637 127.179 105.157C127.179 102.677 125.162 100.793 122.598 100.793ZM134.329 100.793C131.831 100.793 129.815 102.713 129.815 105.157C129.815 107.6 131.831 109.551 134.329 109.551C136.827 109.551 138.916 107.637 138.916 105.157C138.916 102.677 136.863 100.793 134.329 100.793Z" fill="#D9D9D9"/>
<path d="M161.509 111.773C156.237 111.773 151.957 115.872 151.957 120.964C151.957 126.056 156.237 130.185 161.479 130.185C164.392 130.185 166.583 129.03 168.533 127.278C169.015 126.851 168.913 126.418 168.636 126.159L166.613 124.239C166.03 123.679 165.759 123.908 165.385 124.239C164.561 124.967 163.02 125.593 161.515 125.593C158.843 125.593 156.688 123.541 156.688 120.964C156.688 118.388 158.843 116.336 161.479 116.336C163.02 116.336 164.561 116.998 165.385 117.726C165.759 118.057 166.036 118.286 166.613 117.726L168.636 115.812C168.913 115.547 169.015 115.114 168.533 114.687C166.583 112.935 164.386 111.779 161.509 111.779V111.773ZM87.2472 112.291C86.6273 112.291 86.3203 112.592 86.3203 113.188V128.723C86.3203 129.319 86.6273 129.62 87.2472 129.62H90.3952C91.0091 129.62 91.3161 129.319 91.3161 128.723V123.071L96.5465 129.024C96.8535 129.391 97.1605 129.62 97.6059 129.62H102.192C102.776 129.62 102.981 129.054 102.674 128.627L95.4571 120.031L101.241 113.32C101.687 112.893 101.41 112.297 100.796 112.297H96.4502C96.0409 112.297 95.6317 112.466 95.2886 112.863L91.3221 117.889V113.194C91.3221 112.598 91.0151 112.297 90.4012 112.297H87.2533L87.2472 112.291ZM105.364 112.291C104.714 112.291 104.407 112.592 104.407 113.188V128.723C104.407 129.319 104.714 129.62 105.364 129.62H109.331L116.879 119.845V128.723C116.879 129.319 117.149 129.62 117.8 129.62H120.851C121.501 129.62 121.808 129.319 121.808 128.723V113.188C121.808 112.592 121.501 112.291 120.851 112.291H116.782L109.337 122.265V113.188C109.337 112.592 109.066 112.291 108.416 112.291H105.358H105.364ZM126.714 112.297C126.064 112.297 125.757 112.592 125.757 113.188V128.723C125.757 129.319 126.064 129.62 126.714 129.62H130.066C130.716 129.62 130.987 129.319 130.987 128.723V113.188C130.987 112.592 130.716 112.297 130.066 112.297H126.714ZM136.115 112.297C135.465 112.297 135.158 112.592 135.158 113.188V128.729C135.158 129.325 135.465 129.626 136.115 129.626H145.144C151.542 129.626 153.251 122.523 148.153 120.17C151.331 117.227 149.213 112.303 144.319 112.303H136.109L136.115 112.297ZM170.833 112.297C170.219 112.297 169.906 112.562 169.906 113.188V116.197C169.906 116.823 170.213 117.124 170.833 117.124H174.739V128.723C174.739 129.319 175.046 129.62 175.696 129.62H179.049C179.699 129.62 179.969 129.319 179.969 128.723V117.124H183.876C184.49 117.124 184.797 116.823 184.797 116.197V113.188C184.797 112.562 184.49 112.297 183.876 112.297H170.827H170.833ZM190.774 112.297C190.244 112.297 189.901 112.538 189.756 112.953L183.611 128.753C183.424 129.228 183.701 129.614 184.225 129.614H187.999C188.312 129.614 188.655 129.379 188.757 129.09L189.588 126.773H196.082L196.913 129.09C197.015 129.379 197.358 129.614 197.671 129.614H201.445C201.969 129.614 202.252 129.228 202.065 128.753L195.914 112.953C195.775 112.538 195.432 112.297 194.903 112.297H190.761H190.774ZM204.738 112.297C204.087 112.297 203.781 112.592 203.781 113.188V128.729C203.781 129.325 204.087 129.62 204.738 129.62H208.09C208.74 129.62 209.011 129.325 209.011 128.729V124.606H211.888C215.927 124.606 219.002 122.463 219.002 118.599C219.002 114.735 215.861 112.303 212.093 112.303H204.738V112.297ZM140.016 116.167H143.266C145.354 116.167 145.384 118.846 143.266 118.846H140.016V116.167ZM209.011 116.3H211.647C215.168 116.3 215.409 120.766 211.714 120.766H209.011V116.3ZM192.844 117.714L194.668 122.806H191.014L192.838 117.714H192.844ZM140.016 122.517H144.325C146.961 122.517 147.13 125.756 144.325 125.756H140.016V122.517Z" fill="#D9D9D9"/>
<path fill-rule="evenodd" clip-rule="evenodd" d="M46.2725 96C44.4789 96 43.0223 97.4145 43.0223 99.1539V110.734C43.0223 112.48 44.4789 113.894 46.2725 113.894C48.0662 113.894 49.5228 112.48 49.5228 110.734V99.1539C49.5228 97.4084 48.0722 96 46.2725 96ZM23.9783 111.553C22.7143 111.655 21.5827 112.48 21.1674 113.726C20.6137 115.387 21.5466 117.169 23.256 117.704L34.5897 121.286C36.2991 121.827 38.1289 120.919 38.6886 119.257C39.2424 117.596 38.3095 115.814 36.6001 115.279L25.2663 111.703C24.839 111.571 24.4056 111.523 23.9843 111.559L23.9783 111.553ZM68.5668 111.553C68.1455 111.517 67.7121 111.559 67.2848 111.697L55.951 115.279C54.2417 115.82 53.3087 117.602 53.8625 119.257C54.4162 120.919 56.252 121.821 57.9554 121.286L69.2891 117.71C70.9985 117.169 71.9314 115.387 71.3777 113.732C70.9624 112.486 69.8248 111.667 68.5668 111.559V111.553ZM39.7781 127.341C38.7368 127.305 37.6955 127.756 37.0334 128.641L30.0334 138.012C28.98 139.427 29.2991 141.401 30.7556 142.424C32.2062 143.448 34.2406 143.135 35.2939 141.726L42.294 132.355C43.3473 130.946 43.0223 128.972 41.5717 127.949C41.03 127.563 40.4041 127.365 39.7781 127.347V127.341ZM52.773 127.341C52.1471 127.359 51.5211 127.557 50.9794 127.943C49.5288 128.966 49.2038 130.94 50.2571 132.349L57.2572 141.72C58.3105 143.129 60.3449 143.448 61.7955 142.418C63.246 141.395 63.5711 139.415 62.5177 138.006L55.5177 128.635C54.8616 127.75 53.8143 127.299 52.773 127.335V127.341Z" fill="#D9D9D9"/>
</g>
<defs>
<clipPath id="clip0_4072_3456">
<rect width="198" height="47.0262" fill="white" transform="translate(21 96)"/>
</clipPath>
</defs>
</svg>
