<svg width="240" height="240" viewBox="0 0 240 240" fill="none" xmlns="http://www.w3.org/2000/svg">
<g clip-path="url(#clip0_4072_3107)">
<g clip-path="url(#clip1_4072_3107)">
<path d="M68.5859 101.875C71.5686 101.875 74.4506 101.875 77.3703 101.875C79.8496 110.294 82.3289 118.689 84.7956 127.096C84.8585 127.121 84.9088 127.146 84.9717 127.171C85.1857 126.617 85.3996 126.064 85.601 125.51C85.903 124.692 86.2051 123.874 86.4945 123.043C86.7588 122.288 86.998 121.533 87.2371 120.765C87.5014 119.96 87.7656 119.154 88.0299 118.349C88.3194 117.468 88.5963 116.6 88.8983 115.731C89.2381 114.724 89.6031 113.705 89.9555 112.698C90.2575 111.855 90.547 110.999 90.849 110.156C91.2391 109.036 91.6544 107.916 92.0446 106.796C92.3089 106.016 92.548 105.235 92.7997 104.455C93.0262 103.75 93.2276 103.033 93.517 102.353C93.5926 102.164 93.9449 102.064 94.184 101.976C94.3477 101.913 94.5616 101.963 94.7504 101.963C119.254 101.963 143.744 101.963 168.247 101.963C168.638 101.963 169.015 102.051 169.418 102.102C168.965 103.436 168.562 104.606 168.172 105.764C167.832 106.733 167.517 107.714 167.127 108.671C167.027 108.897 166.687 109.061 166.41 109.162C166.183 109.25 165.907 109.187 165.655 109.187C144.26 109.187 122.866 109.187 101.471 109.187C101.433 109.187 101.383 109.187 101.345 109.187C100.099 109.187 100.036 109.288 99.6586 110.496C99.3062 111.628 98.8531 112.736 98.4378 113.856C98.0728 114.875 97.7079 115.907 97.3303 116.914C96.9528 117.921 96.5249 118.928 96.1599 119.935C95.883 120.665 95.6817 121.42 95.4048 122.15C95.1279 122.93 94.8007 123.698 94.5113 124.465C94.2596 125.145 94.0456 125.824 93.7939 126.504C93.4919 127.335 93.1647 128.153 92.8752 128.983C92.6235 129.701 92.3844 130.418 92.1453 131.123C91.9061 131.815 91.6419 132.507 91.3902 133.199C91.1007 133.967 90.7987 134.722 90.5218 135.49C90.2827 136.169 90.0939 136.862 89.8044 137.516C89.7289 137.692 89.364 137.856 89.1374 137.856C86.2428 137.881 83.3483 137.868 80.4537 137.868C80.051 137.868 79.837 137.642 79.7238 137.239C79.3462 135.968 78.9183 134.722 78.5282 133.464C78.2639 132.608 78.0248 131.727 77.7731 130.871C77.5214 130.066 77.2571 129.273 77.0054 128.467C76.7285 127.586 76.4516 126.705 76.1622 125.824C75.8727 124.956 75.5455 124.088 75.2686 123.207C75.0169 122.426 74.803 121.634 74.5387 120.853C74.2492 119.96 73.9094 119.066 73.6326 118.173C73.3557 117.292 73.1417 116.386 72.8775 115.505C72.6258 114.674 72.3237 113.869 72.0594 113.038C71.7826 112.182 71.5309 111.314 71.254 110.458C70.9897 109.64 70.7254 108.822 70.4611 108.004C70.1717 107.123 69.9074 106.229 69.6179 105.348C69.3159 104.48 68.9887 103.624 68.6992 102.756C68.6237 102.504 68.6363 102.227 68.5859 101.875Z" fill="#D9D9D9"/>
<path d="M136.466 125.044C136.503 124.83 136.566 124.603 136.566 124.389C136.566 120.261 136.579 116.121 136.554 111.993C136.554 111.389 136.755 111.237 137.309 111.25C139.385 111.275 141.462 111.275 143.538 111.25C144.105 111.25 144.344 111.389 144.344 112.03C144.319 120.374 144.319 128.718 144.344 137.075C144.344 137.704 144.105 137.893 143.551 137.893C141.374 137.893 139.184 137.868 137.007 137.906C136.289 137.918 136.113 137.427 135.861 136.987C134.892 135.301 133.936 133.589 133.005 131.877C131.973 129.99 130.978 128.089 129.959 126.201C129.506 125.371 129.015 124.565 128.449 123.584C128.398 123.949 128.335 124.163 128.335 124.377C128.335 128.593 128.335 132.809 128.335 137.025C128.335 137.805 128.273 137.881 127.467 137.881C125.453 137.893 123.44 137.893 121.426 137.881C120.633 137.881 120.583 137.818 120.583 137.025C120.583 128.681 120.595 120.337 120.57 111.993C120.57 111.389 120.772 111.237 121.325 111.237C123.465 111.263 125.604 111.326 127.744 111.212C128.801 111.149 129.242 111.653 129.644 112.433C130.324 113.792 131.004 115.139 131.721 116.486C132.539 118.034 133.395 119.556 134.225 121.092C134.855 122.237 135.484 123.395 136.113 124.54C136.189 124.679 136.226 124.842 136.277 125.006C136.34 125.018 136.403 125.031 136.466 125.044Z" fill="#D9D9D9"/>
<path d="M150.481 128.942C151.613 128.942 152.746 128.955 153.879 128.93C154.294 128.917 154.47 129.031 154.495 129.484C154.596 131.371 155.829 132.454 157.604 132.542C158.309 132.58 159.039 132.605 159.743 132.529C160.876 132.403 162.009 131.459 161.996 130.251C161.996 129.66 161.732 129.194 161.279 128.955C160.511 128.552 159.693 128.238 158.875 127.948C157.667 127.52 156.446 127.155 155.238 126.765C154.42 126.501 153.589 126.287 152.771 126.01C150.481 125.23 148.505 124.009 147.75 121.593C147.41 120.51 147.133 119.327 147.523 118.081C147.8 117.213 147.75 116.219 148.316 115.438C148.933 114.583 149.512 113.639 150.304 112.972C152.57 111.059 155.301 110.492 158.183 110.618C159.58 110.681 160.989 110.757 162.336 111.046C164.866 111.6 166.917 112.984 168.113 115.35C168.641 116.395 168.968 117.553 168.918 118.774C168.905 119.138 168.754 119.239 168.415 119.239C166.237 119.227 164.048 119.239 161.87 119.214C161.707 119.214 161.405 118.987 161.392 118.849C161.266 117.591 160.41 116.898 159.366 116.647C158.309 116.407 157.163 116.307 156.106 116.835C155.615 117.075 155.2 117.389 155.125 118.006C155.036 118.673 155.364 119.189 155.88 119.441C156.748 119.868 157.667 120.196 158.598 120.485C159.58 120.8 160.587 121.039 161.568 121.316C162.046 121.454 162.512 121.593 162.99 121.731C165.306 122.373 167.471 123.254 168.931 125.318C169.409 125.997 169.812 126.715 169.875 127.583C169.9 128.049 170.151 128.515 170.139 128.98C170.101 131.699 169.384 134.14 167.144 135.902C165.646 137.085 163.934 137.815 162.046 138.105C160.712 138.306 159.378 138.57 158.032 138.595C156.924 138.621 155.804 138.369 154.709 138.155C153.904 138.004 153.111 137.727 152.331 137.475C150.795 136.984 149.549 136.078 148.48 134.883C147.145 133.398 146.592 131.611 146.378 129.672C146.315 129.093 146.529 128.892 147.108 128.905C148.215 128.968 149.348 128.942 150.481 128.942Z" fill="#D9D9D9"/>
<path d="M92.1797 137.749C92.6202 136.503 93.0229 135.346 93.4382 134.2C93.8284 133.118 94.2563 132.048 94.6464 130.966C95.0114 129.972 95.3386 128.965 95.7036 127.971C96.1189 126.838 96.5594 125.705 96.9747 124.573C97.4403 123.289 97.8682 121.98 98.3339 120.696C98.8373 119.287 99.3911 117.902 99.8945 116.493C100.272 115.461 100.599 114.404 100.964 113.359C101.178 112.742 101.38 112.113 101.644 111.522C101.707 111.383 101.984 111.27 102.16 111.27C104.551 111.257 106.942 111.257 109.333 111.283C109.497 111.283 109.736 111.471 109.812 111.622C110.051 112.138 110.227 112.68 110.416 113.221C110.693 113.976 110.957 114.731 111.221 115.486C111.498 116.279 111.775 117.072 112.052 117.852C112.304 118.557 112.58 119.262 112.832 119.979C113.122 120.772 113.398 121.577 113.688 122.37C113.952 123.113 114.217 123.843 114.468 124.585C114.758 125.391 115.035 126.209 115.324 127.014C115.551 127.656 115.777 128.285 116.004 128.927C116.331 129.858 116.645 130.79 116.973 131.721C117.313 132.665 117.665 133.596 118.005 134.54C118.395 135.597 118.798 136.642 119.225 137.787C118.886 137.838 118.596 137.913 118.294 137.913C116.218 137.926 114.141 137.913 112.064 137.913C110.743 137.913 110.63 137.812 110.403 136.541C110.302 135.975 110.164 135.409 110 134.855C109.875 134.414 109.635 134.163 109.069 134.175C106.741 134.213 104.413 134.2 102.084 134.188C101.568 134.188 101.329 134.301 101.203 134.867C100.989 135.799 100.637 136.717 100.297 137.611C100.247 137.749 99.9826 137.888 99.819 137.888C97.4278 137.9 95.0365 137.9 92.6453 137.9C92.5069 137.875 92.3433 137.8 92.1797 137.749ZM105.847 120.445C105.772 120.457 105.696 120.47 105.621 120.482C104.828 123.062 104.022 125.655 103.23 128.26C104.903 128.26 106.502 128.26 108.125 128.26C107.345 125.592 106.602 123.025 105.847 120.445Z" fill="#D9D9D9"/>
</g>
</g>
<defs>
<clipPath id="clip0_4072_3107">
<rect width="240" height="240" fill="white"/>
</clipPath>
<clipPath id="clip1_4072_3107">
<rect width="101.524" height="36.7359" fill="white" transform="translate(68.5781 101.875)"/>
</clipPath>
</defs>
</svg>
