<?xml version="1.0" encoding="UTF-8"?>
<svg id="Layer_1" xmlns="http://www.w3.org/2000/svg" viewBox="0 0 212.53 102.33">
  <defs>
    <style>
      .cls-1 {
        fill: #fff;
      }
    </style>
  </defs>
  <path class="cls-1" d="M127.14,102.33c-2.87-.78-5.58-1.52-8.29-2.26-1.24-9.52-5.98-16.19-15.35-19.35.7-2.61,1.42-5.25,2.17-8.03,7.45,2.43,13.12,6.88,17,14,2.76-9.85,5.35-19.46,7.84-29.15-2.51,2.38-5,4.73-7.79,6.71-2.83,2-5.77,3.83-9.18,5.09-.86-.78-1.76-1.57-2.63-2.38-.68-.63-1.29-1.34-2.02-1.9-.7-.53-.85-1.07-.6-1.91.59-1.99,1.1-4.01,1.63-6.02.1-.37.14-.76.11-1.18-4.92,5.39-10.24,10.2-16.95,13.38-.45-.37-.93-.71-1.37-1.12-1.19-1.1-2.32-2.26-3.54-3.32-.54-.48-.62-.94-.44-1.59,1.26-4.49,2.5-8.98,3.73-13.48.57-2.09,1.11-4.18,1.75-6.57-3.41,1.98-6.18,4.3-8.72,6.95-2.55,2.65-4.64,5.63-6.44,8.82-1.82,3.23-3.06,6.71-4.21,10.33-2.66-.73-5.23-1.44-7.97-2.19.91-3.97,2.13-7.81,2.99-11.78-5.3,5.67-11.04,10.71-18.22,13.99-1.85-1.74-3.66-3.45-5.47-5.15,1.96-7.16,3.91-14.28,5.85-21.4.85-3.12,1.67-6.25,2.5-9.37.07-.27.16-.53.24-.79.27-.83.38-.9,1.18-.71.72.17,1.43.38,2.14.57,1.34.36,2.67.72,4,1.09.3.08.59.23,1.01.39-2.08,7.67-4.15,15.29-6.24,23.02,2.39-.73,8.84-6.2,12.28-10.75,3.3-4.36,5.78-9.11,7.4-14.5,2.74.62,5.37,1.38,8.08,2.19-.9,3.32-1.79,6.59-2.68,9.85.07.05.15.11.22.16.34-.33.69-.65,1.02-1,3.83-4.16,8.17-7.63,13.3-10.05.71-.33,1.44-.62,2.17-.93.58-.25,1.04-.14,1.49.33,1.47,1.53,2.98,3.02,4.52,4.56-.88,3.31-1.74,6.6-2.63,9.89-.87,3.22-1.79,6.43-2.45,9.74,9.09-6.06,15.18-14.29,18.3-24.79,2.67.73,5.28,1.44,8.06,2.2-2.12,7.89-4.21,15.66-6.3,23.42,9.79-5.95,15.95-14.55,19.12-25.52,2.73.5,5.34,1.35,8.12,2.11-6.24,22.8-12.45,45.54-18.71,68.42Z"/>
  <path class="cls-1" d="M161.9,59.93c-.74.73-1.47,1.48-2.23,2.19-3.13,2.93-6.5,5.47-10.6,6.93-.66.23-1.08.2-1.59-.29-1.57-1.5-3.18-2.95-4.87-4.5,4.8-17.56,9.6-35.13,14.44-52.83,2.78.74,5.4,1.43,8.13,2.16-4.01,14.68-8.01,29.29-12,43.9.08.07.16.13.24.2.68-.49,1.4-.94,2.05-1.48,3.75-3.16,6.81-6.89,9.12-11.22.74-1.38,1.32-2.86,2.17-4.17,2.91-4.45,6.67-7.89,11.87-9.49,3.73-1.15,7.11-.43,10.17,1.93.21.16.43.3.79.56.24-.85.44-1.57.68-2.46,2.63.65,5.25,1.29,7.98,1.96-2.17,8.6-4.33,17.15-6.56,25.97.64-.28,1-.42,1.35-.58,2.48-1.13,4.97-2.24,7.43-3.4.74-.35,1.46-.81,2.11-1.32,3.14-2.48,2.49-6.95-.7-8.9-.2-.12-.4-.22-.69-.39.71-2.66,1.42-5.31,2.15-8.06,1.56.46,2.82,1.28,3.98,2.25,2.02,1.69,3.58,3.71,4.47,6.22,1.87,5.25.18,11.74-4.83,15.11-1.87,1.25-3.9,2.3-5.94,3.25-4.27,1.98-8.6,3.84-12.91,5.74-.08.03-.18.02-.42.04-1.82-1.68-3.71-3.44-5.64-5.23.34-1.35.67-2.67,1-4-.07-.05-.14-.11-.21-.16-.29.24-.59.47-.85.74-1.81,1.87-3.72,3.6-5.88,5.05-2.24,1.5-4.56,2.8-7.21,3.45-.7.17-1.19.13-1.73-.41-1.21-1.21-2.47-2.37-3.77-3.48-.74-.63-1.02-1.38-1.04-2.3-.02-.96-.07-1.92-.1-2.88-.11-.04-.23-.09-.34-.13ZM171.21,59.39c2.05-.94,3.8-1.98,5.4-3.22,2.71-2.11,5.12-4.55,6.99-7.45,1.28-1.98,2.46-4.02,3.66-6.04.24-.41.36-.83-.03-1.28-2.2-2.55-5.12-3.64-8.32-1.38-2.61,1.85-4.35,4.38-5.57,7.28-1.49,3.53-2.01,7.28-2.22,11.08-.01.27.04.53.08,1.01Z"/>
  <path class="cls-1" d="M43.18.51c2.79-.17,5.44-.34,8.14-.51.32,1.78.54,3.51.94,5.21,1,4.28,2.63,8.25,5.58,11.61,2.03,2.32,4.49,3.96,7.51,5.03-.55,2.67-1.37,5.25-2.1,7.99-2.28-.62-4.28-1.7-6.18-3-1.9-1.29-3.61-2.81-5.28-4.68-.15.52-.28.81-.32,1.1-.71,5.68-2.32,11.1-4.73,16.29-2.79,6.02-6.63,11.29-11.17,16.1-3.03,3.21-6.38,6.05-10.05,8.47-3.17,2.09-6.54,3.82-10.19,4.98-.57.18-.95.14-1.36-.27-1.39-1.42-2.8-2.82-4.2-4.22-.4-.4-.43-.79-.27-1.37,1.54-5.56,3.03-11.13,4.53-16.7,1.85-6.86,3.7-13.73,5.55-20.59.43-1.59.86-3.19,1.33-4.92-.34.02-.57-.03-.75.05-2.91,1.3-5.82,2.6-8.71,3.93-.54.25-1.03.61-1.52.95-2.86,2.01-2.64,5.35-1.16,7.63.2.3.5.54.78.77.5.4,1.02.78,1.6,1.21-.73,2.62-1.45,5.22-2.2,7.92-.47-.15-.84-.2-1.14-.38-4.17-2.39-6.91-5.9-7.63-10.67-.82-5.43,1.05-9.87,5.78-12.83,2.03-1.27,4.22-2.29,6.41-3.28,4-1.8,8.09-3.35,12.31-4.56.75-.22,1.18-.06,1.68.48,1.39,1.47,2.85,2.89,4.41,4.45-3.63,13.44-7.29,26.97-10.97,40.57.45.24.8-.14,1.14-.39,2.07-1.56,4.17-3.07,6.15-4.74,3.74-3.15,6.79-6.93,9.39-11.05,3.14-4.97,5.22-10.37,6.21-16.19.83-4.9,1.15-9.82.96-14.77-.11-2.91-.31-5.81-.47-8.72-.01-.23,0-.46,0-.89Z"/>
</svg>