<?xml version="1.0" encoding="UTF-8"?>
<svg id="Layer_1" xmlns="http://www.w3.org/2000/svg" viewBox="0 0 91.89 197.26">
  <defs>
    <style>
      .cls-1 {
        fill: #fcfcfc;
      }

      .cls-2 {
        fill: #fff;
      }
    </style>
  </defs>
  <path id="path40" class="cls-2" d="M16.28,51.14h1.33v12.34h-1.33v-12.34Z"/>
  <path id="path60" class="cls-2" d="M23.19,51.3l-5.19,5.8h-.02.01s-.01.02-.01.02h.02s5.59,6.36,5.59,6.36h1.83l-5.62-6.37,5.21-5.81h-1.83Z"/>
  <path id="path80" class="cls-2" d="M59.94,51.14h1.33v12.34h-1.33v-12.34Z"/>
  <path id="path100" class="cls-2" d="M77.14,51.14v9.89l-7.62-9.89h-1.33v12.35h1.33v-9.89l7.62,9.89h1.34v-12.35h-1.34Z"/>
  <path id="path120" class="cls-2" d="M84.94,51.14v12.35h6.95v-1.33h-5.61v-4.26h4.99v-1.33h-4.99v-4.08h5.51v-1.33h-6.85Z"/>
  <path id="path140" class="cls-2" d="M47.92,51.02l-5.29,12.5h1.62l1.61-3.79h5.5l1.6,3.78h1.67s-5.37-12.49-5.37-12.49h-1.33ZM48.6,53.23l2.19,5.16h-4.37l2.19-5.16Z"/>
  <path id="path160" class="cls-2" d="M31.38,51.14h-1.33v12.35h1.33v-4.95h2l3.87,4.95h1.86s-3.96-5.14-3.96-5.14c.49-.19.98-.53,1.37-.95h0c.51-.56,1.11-1.52,1.01-2.94h0c-.16-2.41-2.4-3.32-3.77-3.32h-2.39ZM31.38,52.53h2.39s2.27.06,2.4,2.02h0c.06.93-.31,1.54-.64,1.9h0c-.47.51-.96.83-1.77.83h-2.38v-4.75Z"/>
  <path id="path180" class="cls-2" d="M8.44,51.14s-.02,7.02-.02,7.12h0c0,.74-.08,2.26-1.01,3.2h0c-.57.57-1.4.84-2.5.85h0s0,0-.01,0h0s0,0-.01,0h0s0,0,0,0c-1.1,0-1.93-.27-2.5-.85h0c-.93-.93-1.01-2.45-1.01-3.2h0c0-.1-.01-7.12-.01-7.12H.02S0,57.99,0,58.05H0c-.01.95.04,3,1.41,4.38h0c.83.83,1.97,1.25,3.4,1.25h.18c1.43,0,2.57-.42,3.4-1.25h0c1.36-1.37,1.41-3.43,1.4-4.38h0c0-.06-.02-6.91-.02-6.91h-1.33Z"/>
  <path id="path192" class="cls-2" d="M45.95,0c-7.74,0-14.05,6.04-14.51,13.66.88.07,1.74.23,2.57.45.23-6.4,5.48-11.52,11.94-11.52s11.96,5.35,11.96,11.96-5.35,11.96-11.96,11.96c-5.81,0-10.64-4.14-11.73-9.62-.86-.31-1.77-.52-2.72-.62.85,7.23,6.99,12.84,14.44,12.84,8.04,0,14.56-6.52,14.56-14.56S53.98,0,45.95,0"/>
  <path id="path196" class="cls-2" d="M14.56.12C6.52.12,0,6.63,0,14.67s6.52,14.55,14.55,14.55,14.55-6.52,14.55-14.55S22.6.12,14.56.12M14.56,26.63c-6.61,0-11.96-5.35-11.96-11.96S7.95,2.71,14.56,2.71s11.96,5.35,11.96,11.96-5.35,11.96-11.96,11.96"/>
  <path id="path200" class="cls-2" d="M61.59,13.61c-.38,0-.75.03-1.12.06.02.29.03.59.03.89,0,.58-.04,1.15-.11,1.71.39-.04.79-.06,1.2-.06,6.61,0,11.96,5.35,11.96,11.96s-5.35,11.96-11.96,11.96-11.96-5.35-11.96-11.96c0-5.23,3.36-9.66,8.04-11.29.15-.75.24-1.52.24-2.32,0-.15-.01-.3-.02-.46-6.24,1.64-10.86,7.3-10.86,14.06,0,8.04,6.52,14.55,14.55,14.55s14.56-6.52,14.56-14.55-6.52-14.55-14.56-14.55"/>
  <path id="path204" class="cls-2" d="M30.24,16.2c5.8,0,10.64,4.13,11.72,9.61.87.31,1.77.52,2.72.62-.85-7.23-6.99-12.83-14.44-12.83-.39,0-.78.03-1.17.06.02.33.04.67.04,1.01,0,.54-.04,1.07-.1,1.59.4-.04.81-.06,1.22-.06"/>
  <path id="path208" class="cls-2" d="M42.17,28.59c-.23,6.4-5.48,11.53-11.94,11.53s-11.96-5.35-11.96-11.96c0-5.23,3.36-9.66,8.03-11.29.14-.71.21-1.45.21-2.2,0-.19-.02-.37-.03-.56-6.21,1.66-10.8,7.31-10.8,14.05,0,8.04,6.52,14.55,14.55,14.55s14.05-6.05,14.51-13.67c-.88-.07-1.74-.23-2.57-.45"/>
  <path id="path212" class="cls-2" d="M77.31,0c-7.74,0-14.05,6.04-14.51,13.66.88.07,1.74.23,2.57.46.23-6.4,5.48-11.52,11.94-11.52s11.96,5.35,11.96,11.96-5.35,11.96-11.96,11.96c-5.8,0-10.64-4.13-11.73-9.62-.87-.31-1.77-.52-2.72-.62.85,7.22,6.99,12.83,14.44,12.83,8.04,0,14.56-6.52,14.56-14.56S85.34,0,77.31,0"/>
  <polygon class="cls-1" points="45.88 170.64 51.74 163.27 45.88 163.27 45.88 163.27 40.04 163.27 45.87 170.63 45.88 170.64"/>
  <polygon class="cls-1" points="22.92 109.32 22.92 134.09 31.53 123.87 22.92 109.32"/>
  <polygon class="cls-1" points="45.88 140.02 45.88 140.02 38.4 152.23 44.27 158.59 45.88 160.34 52.35 153.31 52.35 153.31 53.37 152.2 45.88 140.02"/>
  <polygon class="cls-1" points="29.78 151.51 29.78 151.51 22.92 144.23 22.92 157.3 27.71 157.3 30.79 152.63 30.81 152.6 29.92 151.65 29.78 151.51"/>
  <polygon class="cls-1" points="61.95 151.52 60.96 152.57 64.03 157.3 64.03 157.3 64.03 157.3 68.82 157.3 68.82 144.23 61.95 151.52 61.95 151.52"/>
  <path class="cls-1" d="M45.88,73.05H0v95.51l45.87,28.7,45.92-28.7v-95.51h-45.92ZM74.8,139.22v24.05h-15.52l-13.41,16.85h0s0,0,0,0h0s0,0,0,0h0s-13.41-16.85-13.41-16.85h-15.52v-75.77l21.88,36.97-12.42,14.75,2.82,3.06,4.24,4.6h0s.62.67.62.67l7.67-11.88-.02-46.71h0s0-.06,0-.06l4.14-8.75v.07h0v-.07h0s0,0,0,0l1.53,3.23,2.61,5.51-.02,46.79h0s7.68,11.82,7.68,11.82l.02.03.88-.96h0s6.76-7.33,6.76-7.33l-12.42-14.74,21.88-36.98v51.72Z"/>
  <polygon class="cls-1" points="68.82 134.09 68.82 109.32 60.22 123.87 68.82 134.09"/>
</svg>