<svg width="240" height="240" viewBox="0 0 240 240" fill="none" xmlns="http://www.w3.org/2000/svg">
<g clip-path="url(#clip0_4072_3161)">
<path d="M63.6902 94C49.4948 94 38 105.41 38 119.5C38 133.59 49.5035 145 63.6902 145C77.8769 145 89.3804 133.582 89.3804 119.5C89.3804 105.418 77.8769 94 63.6902 94ZM39.5407 119.5C39.5407 106.26 50.3517 95.5293 63.6902 95.5293C69.1173 95.5293 74.1376 97.3078 78.1712 100.323C73.324 116.39 60.4962 129.037 44.2494 133.728C41.2892 129.75 39.5407 124.835 39.5407 119.5ZM63.6902 143.471C56.2549 143.471 49.5987 140.129 45.1669 134.87C59.8384 130.283 70.459 130.274 77.7557 124.939C81.9451 121.871 84.7063 116.983 84.7063 111.415C84.7063 109.688 84.438 108.03 83.9446 106.458C86.4115 110.221 87.8397 114.689 87.8397 119.5C87.8397 132.74 77.0287 143.471 63.6902 143.471Z" fill="#D9D9D9"/>
<path d="M146.659 119.103V119.051C146.642 118.836 146.599 118.493 146.564 118.123C146.477 117.445 146.322 116.774 146.123 116.13C144.565 111.259 140.401 108.105 135.493 108.105C135.009 108.105 134.498 108.14 134.005 108.2C127.72 108.999 123.453 114.644 124.293 121.053C125.055 126.852 129.755 130.822 135.476 130.822C135.961 130.822 136.463 130.787 136.965 130.736C140.02 130.349 142.695 129.086 144.712 126.62C144.824 126.474 144.885 126.303 144.859 126.139C144.841 126.002 144.764 125.864 144.608 125.753C144.27 125.512 143.067 124.936 142.418 124.627C142.219 124.533 142.072 124.455 141.985 124.412C141.786 124.318 141.648 124.266 141.518 124.266C141.362 124.266 141.215 124.352 141.068 124.524C139.778 126.019 138.133 126.809 136.463 127.016C136.134 127.059 135.814 127.084 135.502 127.084C132.455 127.084 129.374 125.057 128.482 122.273L128.456 122.196L128.525 122.161C128.681 122.075 130.109 121.423 132.221 121.423C132.481 121.423 132.749 121.423 133.009 121.457C133.615 121.5 134.23 121.577 134.87 121.663C136.056 121.818 137.294 121.981 138.722 121.981C139.613 121.981 140.479 121.912 141.362 121.792C144.85 121.13 146.235 120.16 146.244 120.142C146.711 119.833 146.694 119.567 146.668 119.094M142.712 117.694C142.132 117.883 141.345 118.037 140.366 118.158C139.899 118.226 139.388 118.244 138.774 118.244C137.752 118.244 136.645 118.158 135.58 118.08H135.537C134.55 118.003 133.606 117.934 132.715 117.934C132.074 117.934 131.477 117.977 130.923 118.037C129.244 118.252 127.92 118.776 127.92 118.776L127.937 118.639C128.266 115.305 131.088 112.444 134.515 111.989C134.827 111.946 135.156 111.929 135.476 111.929C138.705 111.929 141.838 114.36 142.764 117.582L142.781 117.668L142.712 117.694Z" fill="#D9D9D9"/>
<path d="M201.361 109.395C201.361 109.103 201.119 108.871 200.833 108.871H197.942C197.656 108.871 197.414 109.112 197.414 109.395V129.775C197.414 130.058 197.656 130.299 197.942 130.299H200.833C201.119 130.299 201.361 130.058 201.361 129.775V109.395Z" fill="#D9D9D9"/>
<path d="M199.387 101.594C197.951 101.594 196.773 102.754 196.773 104.188C196.773 105.623 197.951 106.775 199.387 106.775C200.824 106.775 202.002 105.615 202.002 104.188C202.002 102.762 200.833 101.594 199.387 101.594Z" fill="#D9D9D9"/>
<path d="M160.998 130.85C161.18 130.85 161.37 130.867 161.552 130.867C164.521 130.867 167.282 129.733 169.334 127.68C171.411 125.592 172.554 122.722 172.554 119.612C172.554 113.168 167.551 108.125 161.171 108.125C155.978 108.125 151.589 111.519 150.248 116.571C150.014 117.43 149.789 119.612 149.789 121.786V137.783C149.789 138.075 150.023 138.316 150.317 138.316H153.191C153.485 138.316 153.727 138.067 153.727 137.783V127.705L153.875 127.851C155.277 129.192 157.882 130.704 160.998 130.85ZM161.128 111.991C165.222 111.991 168.433 115.333 168.433 119.603C168.433 123.873 165.387 127.138 161.353 127.138C159.31 127.138 157.423 126.408 156.038 125.102C154.61 123.753 153.823 121.837 153.823 119.741C153.823 115.462 157.103 111.991 161.128 111.991Z" fill="#D9D9D9"/>
<path d="M109.49 130.85C109.672 130.85 109.863 130.867 110.044 130.867C113.022 130.867 115.774 129.733 117.826 127.68C119.903 125.592 121.046 122.722 121.046 119.612C121.046 113.168 116.034 108.125 109.664 108.125C104.47 108.125 100.073 111.519 98.74 116.571C98.5063 117.43 98.2812 119.612 98.2812 121.786V137.783C98.2812 138.075 98.5236 138.316 98.8092 138.316H101.683C101.977 138.316 102.22 138.067 102.22 137.783L102.202 127.688L102.349 127.834C103.76 129.192 106.366 130.704 109.49 130.85ZM109.612 111.991C113.706 111.991 116.917 115.333 116.917 119.603C116.917 123.873 113.879 127.138 109.837 127.138C107.794 127.138 105.907 126.408 104.522 125.102C103.094 123.753 102.306 121.837 102.306 119.741C102.306 115.462 105.587 111.991 109.612 111.991Z" fill="#D9D9D9"/>
<path d="M175.317 127.273C177.81 129.541 180.537 130.83 184.085 130.83H184.189C190.3 130.787 193.035 127.479 193.035 124.214C193.035 119.703 188.734 118.466 187.427 118.2C187.002 118.114 186.561 118.037 186.12 117.942C185.055 117.736 183.956 117.521 182.952 117.255C182.25 117.066 179.957 116.31 179.957 114.609C179.957 112.736 182.051 111.73 184.016 111.73C185.669 111.73 187.046 112.005 188.811 113.371C188.941 113.474 189.14 113.603 189.383 113.603C189.556 113.603 189.729 113.535 189.902 113.414C190.387 113.053 191.287 112.315 191.876 111.722C192.014 111.584 192.083 111.43 192.075 111.266C192.057 111.017 191.876 110.82 191.78 110.734C189.426 108.878 187.15 108.113 183.956 108.113H183.938C179.359 108.113 175.897 111.034 175.897 114.901C175.897 117.968 178.433 120.15 183.047 121.052L185.929 121.602C187.825 121.946 188.898 122.942 188.855 124.343C188.82 125.709 187.132 127.127 184.362 127.127C182.095 127.127 180.112 126.25 178.442 124.747L178.416 124.721C178.303 124.618 178.165 124.48 177.975 124.48C177.845 124.48 177.706 124.549 177.55 124.661C177.377 124.798 175.447 126.31 175.248 126.525C175.161 126.62 175.109 126.731 175.118 126.843C175.118 127.023 175.231 127.187 175.343 127.281" fill="#D9D9D9"/>
<path d="M109.49 130.85C109.672 130.85 109.863 130.867 110.044 130.867C113.022 130.867 115.774 129.733 117.826 127.68C119.903 125.592 121.046 122.722 121.046 119.612C121.046 113.168 116.034 108.125 109.664 108.125C104.47 108.125 100.073 111.519 98.74 116.571C98.5063 117.43 98.2812 119.612 98.2812 121.786V137.783C98.2812 138.075 98.5236 138.316 98.8092 138.316H101.683C101.977 138.316 102.22 138.067 102.22 137.783L102.202 127.688L102.349 127.834C103.76 129.192 106.366 130.704 109.49 130.85ZM109.612 111.991C113.706 111.991 116.917 115.333 116.917 119.603C116.917 123.873 113.879 127.138 109.837 127.138C107.794 127.138 105.907 126.408 104.522 125.102C103.094 123.753 102.306 121.837 102.306 119.741C102.306 115.462 105.587 111.991 109.612 111.991Z" fill="#D9D9D9"/>
</g>
<defs>
<clipPath id="clip0_4072_3161">
<rect width="164" height="51" fill="white" transform="translate(38 94)"/>
</clipPath>
</defs>
</svg>
