<svg width="240" height="240" viewBox="0 0 240 240" fill="none" xmlns="http://www.w3.org/2000/svg">
<g clip-path="url(#clip0_4072_3286)">
<path d="M149.113 88.7566C149.113 88.7566 149.259 120.164 149.259 123.375C149.259 127.807 148.596 131.237 147.375 134.116C147.176 134.587 146.924 135.151 146.605 135.788C146.605 135.782 145.159 135.112 143.501 135.112C138.518 135.224 138.85 137.215 135.088 137.215C133.204 137.215 130.882 134.999 127.671 135.112C124.679 135.224 121.912 136.883 120.797 137.082V134.216L122.138 132.896L129.814 132.935L131.008 131.741H123.272L124.101 130.912L131.791 130.958L132.832 129.917H125.097L125.926 129.087L133.615 129.134L134.717 128.033H126.981L127.81 127.203L135.499 127.25L136.541 126.208H128.805L129.635 125.379L137.324 125.425L138.312 124.437H130.577L131.406 123.607L139.095 123.654L140.197 122.552H132.461L133.29 121.723L140.979 121.77L141.948 120.721L134.338 120.668L135.161 119.846L142.054 119.885V118.95H137.185L142.054 117.563V116.296L136.959 118.061L142.054 115.089V113.231L136.521 117.504L141.052 112.017H139.4L135.798 117.225L137.735 112.017H136.329L135.081 116.621V112.017H134.086V118.89L133.31 119.686V112.196L132.209 113.297V120.814L131.432 121.61V114.08L130.384 115.129V122.679L129.608 123.475V115.905L128.56 116.953V124.543L127.784 125.339V117.736L126.788 118.731V126.354L126.012 127.15V119.507L124.964 120.556V128.218L124.188 129.014V121.338L123.139 122.387V130.083L122.363 130.879V123.163L121.368 124.158V131.894L121.255 132.02L120.592 132.683V123.826L120.685 123.727L126.012 118.399V117.099L120.585 122.526V121.378L126.012 115.951V114.558L120.585 119.985V118.837L126.012 113.41V112.017L120.585 117.444V116.296L126.012 110.869V109.695L120.585 115.122V113.974L126.012 108.547V107.154L120.585 112.581V111.433L126.012 106V104.606L120.578 110.04V108.892L126.012 103.459V102.065L120.578 107.499V106.351L126.012 100.918V99.6304L120.578 105.064V103.916L125.999 98.496H126.012V97.1956L120.592 102.477V101.369L125.448 96.6051L124.785 95.9417L121.142 99.4845L124.008 95.1655L123.126 94.2831L120.923 98.6353L122.045 93.195L120.771 91.9212L120.134 98.151L119.437 91.762L118.27 92.9296L119.371 98.821L117.354 93.8452L116.2 94.9996L119.066 99.5575L115.37 95.8223L114.654 96.5388L119.371 101.362V102.47L114.097 97.1293V98.4163L119.371 103.691V104.838L114.097 99.5641V100.738L119.371 106.013V107.161L114.097 101.886V103.22L119.371 108.494V109.642L114.097 104.367V105.933L119.371 111.208V112.355L114.097 107.081V108.368L119.371 113.642V114.79L114.097 109.516V110.909L119.371 116.183V117.331L114.097 112.057V113.344L119.371 118.618V119.766L114.097 114.492V115.931L119.371 121.206V122.353L114.097 117.079V118.545L119.371 123.82V132.703L118.708 132.119L118.489 131.9V123.926L117.493 122.931V130.819L116.664 129.99V122.101L115.722 121.159V129.048L114.893 128.218V120.33L113.951 119.388V127.276L113.121 126.447V118.559L112.066 117.504V125.392L111.29 124.616V116.727L110.182 115.619V123.508L109.406 122.732V114.843L108.411 113.848V121.736L107.635 120.96V113.185L106.527 112.077V119.852L105.75 119.076V111.964H104.563L104.755 117.198L103.727 111.964H102.214L103.979 117.059L100.755 111.964H98.8307L103.647 117.723L97.683 113.059V114.83L102.984 118.028L97.683 116.177V117.411L103.209 118.711H97.683V119.773L104.729 119.812L105.512 120.595H98.0014L98.7777 121.597L106.553 121.637L107.336 122.42H99.607L100.715 123.528L108.491 123.568L109.273 124.35H101.544L102.546 125.352L110.322 125.392L111.104 126.175H103.375L104.377 127.177L112.153 127.217L112.936 127.999H105.206L106.149 128.941L113.924 128.981L114.707 129.764H106.978L108.086 130.872L115.861 130.912L116.644 131.695H108.915L109.857 132.637L117.613 132.663L119.086 134.136V136.956C117.712 136.956 115.165 134.846 112.504 134.846C108.079 135.032 106.858 136.949 104.092 136.949C102.208 136.949 100.111 134.846 96.449 134.846C95.56 134.846 94.4653 135.092 93.5364 135.357C91.3869 130.925 91.0817 127.376 90.8561 124.603C90.2988 117.63 90.5775 88.2656 90.5775 88.2656L149.113 88.7101H149.12L149.113 88.7566Z" fill="#D9D9D9"/>
<path d="M149.043 81.9645C149.129 83.5767 149.076 84.5785 149.049 84.9036C149.049 84.9699 148.989 85.0163 148.923 85.0163L141.619 85.0628C141.619 85.0628 139.515 85.0628 139.29 83.1786C139.091 81.4735 139.217 77.4265 139.243 76.6702C139.243 76.6039 139.303 76.5508 139.37 76.5508H142.156C142.222 76.5508 142.282 76.6039 142.282 76.6768V79.5827C142.282 79.6491 142.335 79.7088 142.408 79.7088H146.19C146.707 79.7088 147.218 79.8149 147.682 80.0405C148.306 80.3457 148.983 80.9163 149.036 81.9711L149.043 81.9645ZM146.163 83.6098V82.5019C146.163 82.4355 146.163 82.3758 146.15 82.3095C145.997 81.3807 145.161 80.9627 144.724 80.9627H142.362C142.295 80.9627 142.236 81.0158 142.236 81.0887C142.236 81.3873 142.176 81.8517 142.236 82.7208C142.275 83.3577 142.939 83.6032 143.297 83.6895C143.41 83.716 143.529 83.7293 143.649 83.7293H146.044C146.11 83.7293 146.17 83.6762 146.17 83.6032L146.163 83.6098Z" fill="#D9D9D9"/>
<path d="M145.564 137.705C145.312 138.143 145.034 138.594 144.735 139.052C144.39 138.999 143.713 138.986 143.395 138.986C139.633 138.986 138.857 140.976 135.752 140.976C132.209 140.976 131.546 138.986 127.671 138.986C125.011 139.205 124.46 139.875 121.8 140.757C120.931 141.049 120.805 140.976 120.805 140.976V139.205C120.805 139.205 122.729 138.614 124.235 137.991C125.562 137.433 127.001 137.214 127.996 137.214C131.294 137.161 132.097 139.099 135.639 139.205C138.631 139.205 139.069 137.32 142.944 137.102C143.899 137.135 144.602 137.214 145.564 137.705Z" fill="#D9D9D9"/>
<path d="M143.278 141.086H143.291C141.533 143.382 139.205 145.77 136.193 147.727C128.337 152.836 118.479 153.261 112.275 151.489C107.366 150.089 99.849 145.638 97.109 141.524C96.9697 141.319 96.837 141.113 96.7109 140.914H96.8038C100.101 140.861 101.096 142.745 104.639 142.858C108.182 142.971 109.509 140.974 112.056 140.867C114.717 140.755 117.039 142.971 119.918 142.971C121.597 142.971 123.017 142.639 125.677 141.425C126.798 140.907 127.992 140.987 128.112 140.98C131.409 140.927 132.431 142.971 135.974 142.971C138.853 142.971 139.735 140.98 143.278 141.086Z" fill="#D9D9D9"/>
<path d="M136.967 76.6612L136.994 84.941C136.994 85.0074 136.941 85.0671 136.868 85.0671H133.922C133.856 85.0671 133.796 85.014 133.796 84.941V81.2058C133.796 81.1395 133.743 81.0798 133.67 81.0798H130.001C129.935 81.0798 129.875 81.1328 129.875 81.2058V84.9344C129.875 85.0074 129.815 85.0604 129.749 85.0604H127.009C126.943 85.0604 126.883 85.0074 126.883 84.9344V76.6745C126.883 76.6015 126.936 76.5484 127.009 76.5484H129.862C129.928 76.5484 129.988 76.6015 129.988 76.6745V79.5273C129.988 79.6003 130.041 79.6534 130.114 79.6534H133.623C133.69 79.6534 133.749 79.6003 133.749 79.5273V76.6612C133.749 76.5949 133.809 76.5352 133.882 76.5352H136.841C136.907 76.5352 136.967 76.5882 136.967 76.6612Z" fill="#D9D9D9"/>
<path d="M124.568 76.6768V84.9367C124.568 85.0031 124.515 85.0628 124.442 85.0628H121.423C121.357 85.0628 121.297 85.0097 121.297 84.9367V76.6768C121.297 76.6039 121.35 76.5508 121.423 76.5508H124.442C124.508 76.5508 124.568 76.6039 124.568 76.6768Z" fill="#D9D9D9"/>
<path d="M119.076 139.199V140.871C118.347 140.871 114.936 138.761 112.495 138.761C109.397 138.761 107.513 140.977 104.414 140.864C101.979 140.778 100.102 138.761 96.4396 138.761C96.1145 138.761 95.7629 138.794 95.4046 138.847C95.0862 138.316 94.7876 137.799 94.5156 137.308C95.1326 137.175 95.9089 137.056 96.7979 137.043C100.095 136.989 101.09 138.986 104.633 138.986C107.731 138.986 109.503 136.996 112.05 136.996C114.598 136.996 116.642 138.522 119.07 139.199H119.076Z" fill="#D9D9D9"/>
<path d="M118.809 76.6757V84.9422C118.809 85.0085 118.756 85.0682 118.683 85.0682H115.724C115.657 85.0682 115.598 85.0152 115.598 84.9422V78.1087C115.598 78.0424 115.545 77.9826 115.472 77.9826H111.849C111.783 77.9826 111.723 78.0357 111.723 78.1087V84.9422C111.723 85.0085 111.67 85.0682 111.597 85.0682H108.97C108.897 85.0682 108.844 85.0085 108.844 84.9422V76.669C108.844 76.6027 108.897 76.543 108.97 76.543L118.683 76.5562C118.749 76.5562 118.809 76.6093 118.809 76.6823V76.6757Z" fill="#D9D9D9"/>
<path d="M106.851 76.9742V79.5218C106.851 79.9066 106.751 80.2848 106.559 80.6232C106.241 81.1805 105.644 81.9036 104.635 81.97C103.308 82.0562 101.205 81.97 100.535 81.97C100.416 81.97 100.316 81.97 100.316 82.1889V84.9555C100.316 85.0351 100.283 85.0616 100.203 85.0682H97.1647C97.0718 85.0682 96.9922 84.9422 96.9922 84.8493V80.0858C96.9922 79.0906 97.1912 78.321 97.4367 77.8699C97.7286 77.3325 98.6508 76.543 99.6526 76.543C101.61 76.543 104.9 76.5496 106.413 76.543C106.652 76.543 106.851 76.7354 106.851 76.9742ZM103.912 79.21V78.1618C103.912 78.0623 103.832 77.9694 103.726 77.9694C103.242 77.9428 101.762 77.976 101.092 77.976C100.316 77.976 100.097 78.9712 100.097 79.3029V80.4175C100.097 80.5369 100.19 80.6298 100.309 80.6298C100.827 80.6298 102.18 80.6563 102.93 80.5236C103.149 80.4838 103.335 80.3578 103.487 80.2118C103.759 79.9531 103.905 79.5815 103.905 79.21H103.912Z" fill="#D9D9D9"/>
<path d="M94.6754 76.6624V84.9422C94.6754 85.0085 94.6223 85.0682 94.5494 85.0682H91.4776C91.4113 85.0682 91.3516 85.0152 91.3516 84.9422V76.669C91.3516 76.596 91.4046 76.543 91.4776 76.543H94.5494C94.6157 76.543 94.6754 76.596 94.6754 76.669V76.6624Z" fill="#D9D9D9"/>
<path d="M81.8984 70.9488C81.8984 70.9488 82.0577 121.49 82.7211 127.58C83.3846 133.671 83.3846 133.339 84.3797 136.55C85.4213 139.907 88.0154 146.482 92.5733 152.274C100.767 162.683 116.159 168.661 119.808 168.661C123.457 168.661 136.613 164.07 145.828 154.158C152.854 146.595 156.012 138.388 157.12 127.932C157.525 124.144 157.525 70.9023 157.525 70.9023L81.8984 70.9488Z" stroke="#D9D9D9" stroke-width="1.77803" stroke-miterlimit="10"/>
</g>
<defs>
<clipPath id="clip0_4072_3286">
<rect width="77.4175" height="99.55" fill="white" transform="translate(81 70)"/>
</clipPath>
</defs>
</svg>
