<svg width="240" height="240" viewBox="0 0 240 240" fill="none" xmlns="http://www.w3.org/2000/svg">
<g clip-path="url(#clip0_4072_3143)">
<path fill-rule="evenodd" clip-rule="evenodd" d="M109.094 99.6719H112.799C114.151 99.6719 114.827 100.341 114.827 101.846V107.181H122.085V101.846C122.085 100.341 122.754 99.6719 124.279 99.6719H127.818V103.178H126.307L126.134 103.35V118.363H122.085V110.853H114.827V118.363H110.777V103.35C110.777 103.35 110.777 103.178 110.605 103.178H109.094V99.6719Z" fill="#D9D9D9"/>
<path fill-rule="evenodd" clip-rule="evenodd" d="M140.423 99.5321L138.548 99.3531L138.455 99.3398C133.053 99.3398 128.672 103.516 128.672 108.858C128.672 114.2 133.06 118.7 138.455 118.7L138.548 118.687L140.423 118.495C144.877 117.593 148.238 113.663 148.238 108.858C148.238 104.052 144.877 100.4 140.423 99.5321ZM140.602 114.392L138.541 114.836L138.448 114.856C135.413 114.856 133.046 112.192 133.046 108.851C133.046 105.511 135.413 103.171 138.448 103.171L138.541 103.191L140.602 103.615C142.591 104.463 144.022 106.465 144.022 108.851C144.022 111.237 142.591 113.477 140.602 114.385V114.392Z" fill="#D9D9D9"/>
<path fill-rule="evenodd" clip-rule="evenodd" d="M161.731 108.52C162.573 107.679 163.415 106.512 163.415 104.683C163.415 101.674 161.221 99.6719 157.509 99.6719H149.078V103.178H150.775V116.196C150.775 117.7 151.444 118.37 152.796 118.37H157.688C161.565 118.37 164.263 116.196 164.263 112.689C164.263 110.86 163.255 109.19 161.738 108.527L161.731 108.52ZM154.811 103.178H157.509C158.695 103.178 159.365 103.848 159.365 105.014C159.365 106.181 158.695 107.016 157.509 107.016H154.811V103.178ZM157.847 114.698H154.984C154.869 114.698 154.811 114.64 154.811 114.525V110.35H157.847C159.199 110.35 160.048 111.191 160.048 112.524C160.048 113.856 159.192 114.698 157.847 114.698Z" fill="#D9D9D9"/>
<path fill-rule="evenodd" clip-rule="evenodd" d="M181.976 114.698C181.751 114.698 181.585 114.64 181.479 114.525L176.077 99.6719H172.027L166.626 114.525C166.515 114.64 166.345 114.698 166.115 114.698H165.273V118.363H167.812C169.164 118.363 169.834 117.859 170.165 116.693L171.351 113.684H176.74L177.92 116.52C178.264 117.853 178.934 118.356 180.286 118.356H182.652V114.691H181.969L181.976 114.698ZM174.049 110.191H172.365L173.718 106.353C173.718 105.849 173.89 105.352 174.056 105.021C174.228 105.352 174.4 105.849 174.4 106.353L175.739 110.191H174.056H174.049Z" fill="#D9D9D9"/>
<path fill-rule="evenodd" clip-rule="evenodd" d="M109.094 123.698H123.768C125.12 123.698 125.962 124.367 125.962 125.872V138.551C125.962 138.657 126.02 138.711 126.134 138.711H127.487V142.389H123.947C122.423 142.389 121.753 141.72 121.753 140.215V127.37C121.753 127.37 121.753 127.198 121.581 127.198H114.834V142.382H110.784V127.198H109.1V123.691L109.094 123.698Z" fill="#D9D9D9"/>
<path fill-rule="evenodd" clip-rule="evenodd" d="M140.139 123.559L138.203 123.38L138.124 123.367C132.722 123.367 128.5 127.543 128.5 132.885C128.5 138.227 132.722 142.728 138.124 142.728L138.203 142.714L140.139 142.522C144.672 141.621 147.9 137.69 147.9 132.885C147.9 128.08 144.672 124.428 140.139 123.559ZM140.344 138.426L138.203 138.87L138.124 138.89C135.082 138.89 132.722 136.226 132.722 132.885C132.722 129.545 135.075 127.205 138.124 127.205L138.203 127.225L140.344 127.649C142.366 128.497 143.691 130.499 143.691 132.885C143.691 135.271 142.359 137.511 140.344 138.419V138.426Z" fill="#D9D9D9"/>
<path fill-rule="evenodd" clip-rule="evenodd" d="M148.741 123.699H152.453C153.805 123.699 154.474 124.369 154.474 125.873V138.553C154.474 138.659 154.532 138.712 154.647 138.712H159.538V123.699H163.588V138.712H168.479C168.594 138.712 168.652 138.659 168.652 138.553V125.873C168.652 124.369 169.321 123.699 170.673 123.699H174.385V127.205H172.86C172.688 127.205 172.688 127.378 172.688 127.378V140.223C172.688 141.727 172.019 142.397 170.667 142.397H152.612C151.101 142.397 150.418 141.727 150.418 140.223V127.378C150.418 127.378 150.418 127.205 150.259 127.205H148.734V123.699H148.741Z" fill="#D9D9D9"/>
<path fill-rule="evenodd" clip-rule="evenodd" d="M177.582 123.699H190.235C191.76 123.699 192.263 124.369 192.263 125.701V128.876H188.552V127.378C188.552 127.263 188.494 127.205 188.379 127.205H186.027V142.39H181.964V127.205H179.611C179.496 127.205 179.438 127.263 179.438 127.378V128.876H175.727V125.701C175.727 124.369 176.237 123.699 177.582 123.699Z" fill="#D9D9D9"/>
<path fill-rule="evenodd" clip-rule="evenodd" d="M197.504 123.697H199.526V129.039C199.353 129.37 199.187 129.868 199.187 130.371L197.835 134.209H199.519V137.702H196.821L195.641 140.539C195.303 141.871 194.627 142.375 193.275 142.375H190.75V138.696H191.592C191.822 138.696 191.992 138.643 192.102 138.537L197.504 123.684V123.697Z" fill="#D9D9D9"/>
<path fill-rule="evenodd" clip-rule="evenodd" d="M199.514 123.699H201.536L206.944 138.553C207.051 138.659 207.221 138.712 207.455 138.712H208.124V142.39H205.758C204.406 142.39 203.736 141.887 203.392 140.554L202.212 137.718H199.514V134.225H201.198L199.846 130.387C199.846 129.883 199.687 129.386 199.508 129.055V123.712L199.514 123.699Z" fill="#D9D9D9"/>
<path fill-rule="evenodd" clip-rule="evenodd" d="M83.0928 107.624C83.285 107.564 83.5368 107.684 83.7953 108.015L95.2618 119.19C95.9313 119.859 95.9313 120.867 95.2618 121.364L83.7953 132.711C83.5435 133.043 83.285 133.129 83.0928 133.023C82.9006 132.917 82.7812 132.632 82.7812 132.207V108.353C82.7812 107.936 82.9006 107.684 83.0928 107.624Z" fill="#D9D9D9"/>
<path fill-rule="evenodd" clip-rule="evenodd" d="M63.4767 89H64.2919L65.074 89.3248L76.8785 101.003C77.3889 101.673 77.2166 102.177 76.3682 102.177H71.4767C70.6349 102.177 69.9655 102.846 69.9655 103.681V112.351C69.9655 113.192 69.2828 113.855 68.2687 113.855H59.6722C58.8304 113.855 58.1477 113.186 58.1477 112.351V103.681C58.1477 102.839 57.4783 102.177 56.6233 102.177H51.3938C50.552 102.177 50.3797 101.673 50.8834 101.003L62.7078 89.3248L63.4767 89Z" fill="#D9D9D9"/>
<path fill-rule="evenodd" clip-rule="evenodd" d="M44.9827 107.375C45.1947 107.474 45.3273 107.766 45.3273 108.19V132.541C45.3273 132.966 45.1947 133.218 44.9827 133.297C44.7772 133.377 44.4855 133.297 44.1409 133.045L32.5021 121.367C31.8326 120.87 31.8326 119.862 32.5021 119.193L44.1409 107.686C44.4855 107.355 44.7772 107.269 44.9827 107.375Z" fill="#D9D9D9"/>
<path fill-rule="evenodd" clip-rule="evenodd" d="M59.6718 126.543H68.2684C69.2824 126.543 69.9651 127.212 69.9651 128.048V137.221C69.9651 138.222 70.6346 138.891 71.4763 138.891H76.0364C76.8782 138.891 77.2162 139.388 76.5468 139.892L65.0803 151.398C64.7356 151.729 64.318 151.902 63.8939 151.902C63.4697 151.902 63.0521 151.729 62.7141 151.398L51.2476 139.892C50.5649 139.388 50.9029 138.891 51.7447 138.891H56.6362C57.4912 138.891 58.1606 138.222 58.1606 137.221V128.048C58.1606 127.206 58.8433 126.543 59.6851 126.543H59.6718Z" fill="#D9D9D9"/>
</g>
<defs>
<clipPath id="clip0_4072_3143">
<rect width="176.127" height="62.9" fill="white" transform="translate(32 89)"/>
</clipPath>
</defs>
</svg>
