<svg width="240" height="240" viewBox="0 0 240 240" fill="none" xmlns="http://www.w3.org/2000/svg">
<g clip-path="url(#clip0_4072_3197)">
<path d="M199.331 102.735C194.265 97.6463 165.981 104.905 163.569 109.713C162.299 112.246 166.465 118.793 174.456 126.392C181.427 133.023 188.179 139.132 192.42 137.786C196.662 136.44 204.412 107.815 199.331 102.735Z" fill="#D9D9D9"/>
<path d="M145.319 112.32C142.03 112.32 139.082 114.369 137.38 117.114V112.789H131.211V135.675H137.38V123.896C137.38 119.087 140.193 117.53 143.036 117.53C146.068 117.53 148.29 119.563 148.29 123.646C148.29 127.729 148.253 135.652 148.253 135.652H154.422L154.452 121.741C154.452 115.912 150.71 112.32 145.319 112.32Z" fill="#D9D9D9"/>
<path d="M98.3804 103.449H92.2109V135.65H98.3804V103.449Z" fill="#D9D9D9"/>
<path d="M81.7639 112.771L72.8726 122.207V103.449H66.7031V135.65H72.8726L72.7819 126.343L81.6052 135.597H89.317L78.5204 124.181L89.317 112.771H81.7715H81.7639Z" fill="#D9D9D9"/>
<path d="M114.825 112.258C107.899 112.258 102.289 117.626 102.289 124.249C102.289 130.872 107.907 136.255 114.825 136.255C121.743 136.255 127.36 130.887 127.36 124.264C127.36 117.641 121.743 112.258 114.825 112.258ZM114.825 130.774C113.509 130.804 112.209 130.449 111.105 129.753C109.993 129.058 109.116 128.052 108.595 126.865C108.065 125.678 107.914 124.362 108.149 123.092C108.383 121.814 109.003 120.643 109.925 119.713C110.848 118.783 112.027 118.148 113.312 117.883C114.598 117.618 115.944 117.739 117.161 118.223C118.378 118.715 119.421 119.546 120.162 120.62C120.896 121.694 121.289 122.964 121.289 124.257C121.304 125.958 120.639 127.598 119.429 128.816C118.219 130.033 116.571 130.728 114.84 130.751V130.766L114.825 130.774Z" fill="#D9D9D9"/>
<path d="M55.0719 124.545C55.0719 129.353 52.2594 130.918 49.4166 130.918C46.3848 130.918 44.1544 128.884 44.1544 124.802C44.1544 120.719 44.1922 112.795 44.1922 112.795H38.0302L38 126.707C38 132.536 41.735 136.128 47.1333 136.128C50.4221 136.128 53.3708 134.079 55.0719 131.334V135.659H61.2263V112.75H55.0719V124.545Z" fill="#D9D9D9"/>
</g>
<defs>
<clipPath id="clip0_4072_3197">
<rect width="163" height="36.9791" fill="white" transform="translate(38 101)"/>
</clipPath>
</defs>
</svg>
