<?xml version="1.0" encoding="UTF-8"?>
<svg id="Layer_1" xmlns="http://www.w3.org/2000/svg" viewBox="0 0 184.31 72.78">
  <defs>
    <style>
      .cls-1 {
        fill: #fff;
      }
    </style>
  </defs>
  <path class="cls-1" d="M31.38,46.41l8.92-36.17,2.4,36.96h10.03L49.63,0h-15.6l-7.63,31.66L18.69,0H3.09L0,47.19h10.03l2.4-36.96,8.92,36.17h10.03ZM165.28,17.87h6l2.06-3.9-2.06-3.82h-6.09v7.72h.09ZM147.96,17.87h5.32v15.27c0,7.98,1.97,13.97,10.72,13.97,3.17,0,5.74-.78,7.29-1.39v-8.59c-5.23.95-7.8,1.3-7.8-5.73V0h-10.2v10.24h-4.46l-.86,7.63ZM99.95,31.75c.69,8.85,14.4,7.37,20.32,5.47l1.46,7.72c-13.8,5.38-32.32,1.91-32.32-16.31,0-24.29,34.29-26.89,34.29-1.3,0,1.91-.26,3.64-.34,4.51h-23.4v-.09ZM113.24,23.94c0-10.06-13.37-10.15-13.29,0h13.29ZM135.19,19.95c0-4.6,8.49-3.12,11.06-2.08l.77-7.72c-8.57-2.69-21.95-.69-21.95,10.76-.17,11.28,16.29,9.8,16.29,15.18s-12.86,2.78-15.69,1.04l-1.46,7.72c9.6,4.25,27.77,3.3,27.26-9.54-.17-12.41-16.29-10.24-16.29-15.35Z"/>
  <path class="cls-1" d="M63.86,31.75c.69,8.85,14.4,7.37,20.32,5.47l1.46,7.72c-13.8,5.38-32.32,1.91-32.32-16.31,0-24.29,34.29-26.89,34.29-1.3,0,1.91-.26,3.64-.34,4.51h-23.4v-.09ZM77.24,23.94c0-10.06-13.37-10.15-13.29,0h13.29Z"/>
  <path class="cls-1" d="M176.76,0l7.54,14.05-7.54,14.05h-7.63l7.63-14.05-7.63-14.05h7.63Z"/>
  <path class="cls-1" d="M123.75,68.27c-.69.26-1.97.52-3.17.52-3.17,0-5.14-2-5.14-5.21,0-3.64,2.31-5.2,5.06-5.2,1.37,0,2.49.35,3.26.61l.94-3.73c-.69-.43-2.31-.78-4.37-.78-5.23,0-9.69,3.21-9.69,9.46,0,4.68,2.91,8.85,9.43,8.85,2.06,0,3.77-.43,4.37-.69l-.69-3.82Z"/>
  <path class="cls-1" d="M125.64,72.52h4.63v-7.63c0-.17,0-.52.17-.78.17-.52.6-1.04,1.54-1.04,1.2,0,1.63.95,1.63,2.43v6.94h4.63v-7.46c0-3.64-1.54-5.73-4.46-5.73-.69,0-1.37.17-1.97.43-.6.26-1.03.69-1.54,1.21h-.09v-7.11h-4.54v18.74Z"/>
  <polygon class="cls-1" points="144.76 72.52 144.76 59.51 140.13 59.51 140.13 72.44 144.76 72.44 144.76 72.52"/>
  <path class="cls-1" d="M142.44,53.7c-1.46,0-2.4.95-2.4,2.26s.94,2.26,2.31,2.26c1.46,0,2.4-1.04,2.4-2.26.09-1.3-.86-2.26-2.31-2.26Z"/>
  <path class="cls-1" d="M146.64,72.52h4.63v-7.37c0-.35,0-.69.17-.95.17-.52.6-1.13,1.54-1.13,1.12,0,1.63.87,1.63,2.34v7.03h4.63v-7.55c0-3.56-1.63-5.64-4.54-5.64-2.14,0-3.34,1.3-3.77,1.91h-.09l-.17-1.65h-4.03c.09,1.21.09,2.69.09,4.42v8.59h-.09Z"/>
  <path class="cls-1" d="M172.45,69.4v-4.42c0-3.21-1.54-5.73-5.91-5.73-2.66,0-4.46.69-5.32,1.13l.86,3.04c.86-.52,2.23-.95,3.6-.95,1.71,0,2.06.61,2.06,1.13v.09c-4.29,0-7.37,1.56-7.37,5.03,0,2.17,1.63,4.08,4.2,4.08,1.37,0,2.66-.43,3.51-1.39h.09l.26,1.13h4.2c-.17-.69-.17-1.91-.17-3.12ZM167.9,67.58c0,.26,0,.43-.09.69-.17.69-.94,1.21-1.63,1.21-.77,0-1.29-.43-1.29-1.21,0-1.13,1.11-1.65,3-1.65v.95Z"/>
</svg>