<?xml version="1.0" encoding="UTF-8"?>
<svg id="Layer_1" xmlns="http://www.w3.org/2000/svg" viewBox="0 0 213.68 32.87">
  <defs>
    <style>
      .cls-1 {
        fill: #fff;
      }
    </style>
  </defs>
  <path id="Logo_ratio" class="cls-1" d="M0,23.94v-2.34h8.21v2.98c-.06,3.41,5.34,3.85,6.04.7.22-.75.2-1.55-.05-2.29-1.59-3.99-12.44-5.8-13.82-12.03-.28-1.37-.3-2.78-.05-4.15C1.16,1.81,5.56,0,11.01,0c4.34,0,10.32,1.01,10.32,7.71v2.18h-7.62v-1.91c.2-3.34-5.07-3.85-5.66-.69-.09.53-.07,1.07.05,1.6.9,3.56,12.49,5.48,13.77,11.92.32,1.67.34,3.38.05,5.05-.74,5.1-5.29,7.02-10.8,7.02-5.78,0-11.12-2.08-11.12-8.94ZM99.43,23.83v-2.34h8.1v2.93c-.11,3.38,5.26,3.86,5.97.74.22-.73.2-1.51-.05-2.24-1.54-3.93-12.28-5.75-13.66-11.97-.28-1.35-.3-2.74-.05-4.1.85-4.95,5.25-6.75,10.59-6.75,4.29,0,10.22,1.06,10.22,7.66v2.13h-7.57v-1.86c.21-3.31-5.02-3.85-5.56-.74-.09.53-.07,1.07.05,1.6.85,3.56,12.33,5.43,13.61,11.81.32,1.65.33,3.34.05,5-.74,5.11-5.24,6.97-10.68,6.97-5.73,0-11.02-2.08-11.02-8.83ZM128.44,24.95c-.07-.67-.09-1.35-.05-2.02V.9h7.73v22.71c-.01.39,0,.78.05,1.17.8,2.98,5.02,2.98,5.82,0,.05-.39.06-.78.05-1.17V.9h7.73v22.02c0,.59-.05,1.7-.05,2.02-.53,5.75-5.03,7.6-10.64,7.6s-10.12-1.86-10.65-7.6h0ZM192.08,24.63c-.08-.67-.11-1.35-.11-2.03v-12.92c0-.53.05-1.49.1-2.02.69-5.74,5.29-7.55,10.75-7.55s10.16,1.81,10.7,7.55c.06.67.08,1.35.05,2.02v1h-7.73v-1.69c0-.39-.03-.78-.1-1.17-.93-2.98-5.16-2.98-6.09,0-.09.47-.12.96-.1,1.44v14.04c0,.39,0,.78.05,1.17.81,3.06,5.66,3.06,6.35,0,.07-.39.05-.78.05-1.17v-4.47h-3.12v-4.47h10.8v8.24c0,.68-.03,1.35-.11,2.02-.53,5.58-5.34,7.55-10.75,7.55s-10.22-1.96-10.75-7.55h0ZM84.34,31.6l-.21-28.4-5.3,28.4h-7.73l-5.24-28.4-.21,28.4h-7.63l.63-30.64h12.44l3.86,23.94,3.86-23.94h12.44l.69,30.64h-7.62ZM43.68,31.6l-4.13-28.4-4.24,28.4h-8.26L32.67.96h13.61l5.61,30.64h-8.21ZM173.07,31.28l-7.68-25.48.42,25.48h-7.52V.96h11.33l7.19,24.68-.41-24.68h7.57v30.32h-10.91Z"/>
</svg>