<?xml version="1.0" encoding="UTF-8"?>
<svg id="Layer_1" data-name="Layer 1" xmlns="http://www.w3.org/2000/svg" viewBox="0 0 291.29 53.76">
  <defs>
    <style>
      .cls-1 {
        fill: #fff;
      }
    </style>
  </defs>
  <path class="cls-1" d="m82.89,22.68c-3.51,0-6.59,1.2-9.07,3.22v-13.8c0-.56-.43-.96-.96-.96-.19,0-.37.08-.48.13l-5.37,2.42c-.43.13-.66.48-.66.9v23.63c0,8.77,6.78,15.53,15.58,15.53s15.58-6.78,15.58-15.53-6.41-15.53-14.62-15.53v-.03Zm-.96,23.93c-4.52,0-8.03-3.46-8.03-8.4s3.51-8.4,8.03-8.4,8.03,3.46,8.03,8.4-3.51,8.4-8.03,8.4"/>
  <path class="cls-1" d="m148.45,11.11c-.19,0-.37.08-.48.13l-5.4,2.42c-.43.13-.66.48-.66.9v37.59c0,.56.43.96.96.96h5.42c.66,0,1.09-.43,1.09-.96V12.1c0-.56-.43-.96-.96-.96l.03-.03Z"/>
  <path class="cls-1" d="m132.13,23.77h-5.56c-.56,0-.96.43-.96.96v15.05c0,4.04-2.98,6.83-6.83,6.83s-6.83-2.76-6.83-6.83v-15.05c0-.56-.43-.96-.96-.96h-5.42c-.66,0-1.09.43-1.09.96v15.05c0,7.92,6.22,13.96,14.33,13.96s14.33-6.03,14.33-13.96v-14.91c0-.66-.43-1.09-.96-1.09h-.05Z"/>
  <path class="cls-1" d="m240.54,23.77h-5.74c-.61,0-.96.32-1.09.66l-7.98,20.74-8.08-20.74c-.13-.37-.48-.66-.9-.66h-6.17c-.56,0-.96.37-.96.85,0,.24.13.56.19.72l10.74,27.12c.13.43.48.66.96.66h8.08c.43,0,.72-.24.9-.61l10.82-27.2c.08-.19.19-.48.19-.72,0-.48-.43-.85-.96-.85h-.03l.03.03Z"/>
  <path class="cls-1" d="m290.36,11.11c-.19,0-.35.08-.48.13l-5.4,2.42c-.43.13-.66.48-.66.9v37.46c0,.66.43,1.09.96,1.09h5.56c.56,0,.96-.43.96-.96V12.1c0-.56-.43-.96-.96-.96l.03-.03Z"/>
  <path class="cls-1" d="m260.54,22.68c-8.56,0-15.34,6.78-15.34,15.53s7.02,15.53,16.24,15.53c4.65,0,9.01-1.81,11.91-4.76.13-.19.24-.37.24-.66,0-.24-.11-.48-.32-.66l-3.38-3.46c-.19-.19-.43-.32-.66-.32-.32,0-.56.13-.72.32-1.94,1.57-3.99,2.34-7.02,2.34-4.12,0-7.5-2.18-8.64-5.64h21.88c.66,0,1.2-.56,1.2-1.09v-1.62c0-8.77-6.83-15.53-15.42-15.53l.03.03Zm-7.68,12.49c1.09-3.51,3.88-5.42,7.68-5.42s6.7,2.18,7.6,5.42h-15.29Z"/>
  <path class="cls-1" d="m159.03,38.07l9.92-12.63c.19-.19.37-.48.37-.8,0-.56-.43-.96-.96-.96h-6.22c-.56,0-.85.32-1.09.66l-10.21,13.24c-.37.43-.43.9,0,1.33l10.58,13.59c.24.32.56.61.96.61h6.65c.56,0,.96-.43.96-.96,0-.32-.19-.56-.37-.72l-10.58-13.35v-.03Z"/>
  <path class="cls-1" d="m189.9,22.68c-9.01,0-16,6.78-16,15.53s7.02,15.53,16,15.53,16-6.78,16-15.53-7.02-15.53-16-15.53m0,23.93c-4.76,0-8.53-3.46-8.53-8.4s3.75-8.4,8.53-8.4,8.53,3.46,8.53,8.4-3.75,8.4-8.53,8.4"/>
  <path class="cls-1" d="m35.86,17.89C35.86,8.03,27.83,0,17.95,0,9.94,0,3.16,5.26.85,12.52c4.01,0,17.07.03,17.07.03,2.98,0,5.34,2.39,5.34,5.37,0,.98-.05,9.25-.05,12.57,2.63,0,9.44-.05,12.57-.05s5.37,2.39,5.37,5.37-2.39,5.37-5.37,5.37H12.52v-17.92H0v30.41h17.49c6.83.03,14.22.05,18.26.05,9.86,0,17.92-8.03,17.92-17.92s-8.03-17.89-17.89-17.92h.08Z"/>
</svg>