<svg width="240" height="240" viewBox="0 0 240 240" fill="none" xmlns="http://www.w3.org/2000/svg">
<g clip-path="url(#clip0_4072_3276)">
<path d="M33 126.606V124.69H39.7238V127.131C39.6747 129.923 44.0972 130.284 44.6705 127.704C44.8507 127.09 44.8343 126.434 44.6295 125.828C43.3274 122.561 34.4414 121.078 33.3112 115.976C33.0819 114.854 33.0655 113.699 33.2703 112.577C33.95 108.482 37.5535 107 42.017 107C45.5714 107 50.4689 107.827 50.4689 113.314V115.1H44.2282V113.535C44.392 110.8 40.076 110.382 39.5928 112.97C39.5191 113.404 39.5355 113.847 39.6338 114.281C40.3708 117.196 49.8628 118.769 50.9111 124.043C51.1732 125.411 51.1896 126.811 50.9521 128.179C50.346 132.356 46.6197 133.928 42.1071 133.928C37.3734 133.928 33 132.225 33 126.606ZM114.431 126.516V124.6H121.065V127C120.975 129.768 125.373 130.161 125.954 127.606C126.135 127.008 126.118 126.369 125.913 125.771C124.652 122.552 115.856 121.062 114.726 115.968C114.497 114.862 114.48 113.724 114.685 112.61C115.381 108.556 118.985 107.082 123.358 107.082C126.872 107.082 131.728 107.95 131.728 113.355V115.1H125.529V113.576C125.701 110.866 121.417 110.423 120.975 112.97C120.901 113.404 120.918 113.847 121.016 114.281C121.712 117.196 131.114 118.728 132.162 123.953C132.424 125.304 132.433 126.688 132.203 128.048C131.597 132.233 127.912 133.756 123.457 133.756C118.764 133.756 114.431 132.053 114.431 126.525V126.516ZM138.19 127.434C138.133 126.885 138.116 126.328 138.149 125.779V107.737H144.48V126.336C144.472 126.656 144.48 126.975 144.521 127.294C145.176 129.735 148.632 129.735 149.287 127.294C149.328 126.975 149.336 126.656 149.328 126.336V107.737H155.659V125.771C155.659 126.254 155.618 127.163 155.618 127.425C155.184 132.135 151.498 133.65 146.904 133.65C142.309 133.65 138.616 132.126 138.182 127.425L138.19 127.434ZM190.31 127.172C190.244 126.623 190.22 126.066 190.22 125.509V114.928C190.22 114.494 190.261 113.707 190.302 113.273C190.867 108.572 194.634 107.09 199.106 107.09C203.578 107.09 207.427 108.572 207.869 113.273C207.918 113.822 207.934 114.379 207.91 114.928V115.747H201.579V114.363C201.579 114.043 201.555 113.724 201.497 113.404C200.736 110.964 197.271 110.964 196.51 113.404C196.436 113.789 196.411 114.191 196.428 114.584V126.082C196.428 126.402 196.428 126.721 196.469 127.04C197.132 129.547 201.104 129.547 201.669 127.04C201.727 126.721 201.71 126.402 201.71 126.082V122.421H199.155V118.761H208V125.509C208 126.066 207.975 126.615 207.91 127.163C207.476 131.733 203.537 133.347 199.106 133.347C194.675 133.347 190.736 131.741 190.302 127.163L190.31 127.172ZM102.073 132.88L101.901 109.621L97.5603 132.88H91.2296L86.9381 109.621L86.7662 132.88H80.5173L81.0333 107.786H91.2214L94.3827 127.393L97.5439 107.786H107.732L108.297 132.88H102.057H102.073ZM68.7731 132.88L65.3907 109.621L61.9182 132.88H55.1535L59.7561 107.786H70.9025L75.497 132.88H68.7731ZM174.741 132.618L168.451 111.75L168.795 132.618H162.637V107.786H171.916L177.804 127.999L177.468 107.786H183.668V132.618H174.733H174.741Z" fill="#D9D9D9"/>
</g>
<defs>
<clipPath id="clip0_4072_3276">
<rect width="175" height="26.9199" fill="white" transform="translate(33 107)"/>
</clipPath>
</defs>
</svg>
