<?xml version="1.0" encoding="UTF-8"?>
<svg id="Layer_1" xmlns="http://www.w3.org/2000/svg" viewBox="0 0 196.68 36.77">
  <defs>
    <style>
      .cls-1 {
        fill: #fff;
      }
    </style>
  </defs>
  <path class="cls-1" d="M196.68,35.98h-12.1c-1.17-2.17-2.33-4.35-3.52-6.53-.79-1.45-1.61-2.89-2.42-4.33-.6-1.05-1.61-1.38-2.72-1.51-.37-.04-.76,0-1.2,0-.25,1.01-.1,2.02-.12,3.01-.03,1.05,0,2.11,0,3.17v6.15h-10.83V.56h1.15c5.7,0,11.41-.07,17.11.03,2.62.04,5.21.56,7.48,2,2.72,1.72,4.33,4.16,4.61,7.41.07.83.3,1.67.23,2.48-.19,2.15-.54,4.26-1.87,6.09-1,1.38-2.17,2.52-3.7,3.28-.37.18-.74.38-1.18.61,1.27.76,2.31,1.72,3.1,2.93.41.62.78,1.26,1.15,1.91,1.56,2.73,3.11,5.46,4.66,8.19.06.1.08.22.18.49ZM174.65,9.17v6.58c1.98,0,3.92.1,5.83-.04,1-.07,2.1-.44,2.68-1.38,1.32-2.15.42-4.83-2.51-5.12-1.95-.19-3.94-.04-6.01-.04Z"/>
  <path class="cls-1" d="M2.84,24.42c1.24.53,2.38.99,3.5,1.49,1.87.84,3.84,1.2,5.85,1.54,1.43.25,2.85.2,4.26.17.8-.01,1.64-.25,2.38-.57.62-.27,1.01-.85.88-1.65-.12-.71-.56-1.1-1.19-1.28-1.27-.36-2.54-.72-3.82-1.01-2.1-.46-4.25-.72-6.3-1.32-2.59-.75-4.93-2.01-6.44-4.4-.72-1.13-1.2-2.35-1.27-3.71-.03-.62-.26-1.24-.23-1.85.22-3.52,1.48-6.48,4.49-8.61C7.24,1.59,9.76.76,12.49.28,14.63-.1,16.78-.02,18.9.1c2.13.12,4.24.61,6.26,1.4,1.25.49,2.37,1.15,3.49,1.85.43.27.49.56.29,1.05-.95,2.41-1.86,4.84-2.8,7.33-.25-.1-.49-.15-.69-.27-2.19-1.34-4.56-2.13-7.13-2.31-.75-.05-1.49-.27-2.23-.22-1.07.07-2.13.31-3.18.5-.24.04-.47.16-.68.29-1.03.64-1.11,1.61-.27,2.48.88.91,2.07,1,3.18,1.25,2.54.56,5.13.92,7.64,1.59,2.71.73,5.02,2.21,6.55,4.66.43.69.76,1.48.95,2.27.83,3.42.29,6.65-1.85,9.45-1.35,1.77-3.17,3.07-5.31,3.83-1.99.71-4.01,1.34-6.17,1.29-.74-.02-1.49.26-2.23.21-1.62-.1-3.22-.35-4.84-.47-1.96-.14-3.84-.61-5.67-1.28-1.2-.44-2.37-.97-3.52-1.53-.79-.39-.84-.58-.53-1.48.88-2.53,1.77-5.05,2.66-7.57Z"/>
  <path class="cls-1" d="M37.76,35.92V.56h1.15c5.96,0,11.91-.07,17.87.03,2.7.05,5.34.54,7.66,2.18,1.52,1.07,2.65,2.44,3.29,4.14,1.42,3.74,1.4,7.51-.39,11.12-1.42,2.86-3.9,4.39-6.98,5.09-3.2.72-6.43.43-9.65.49-.58.01-1.16,0-1.82,0v12.21c-.99.25-9.07.31-11.13.1ZM48.92,14.99c2.32,0,4.6.07,6.86-.05.62-.03,1.42-.49,1.79-1,.72-1,.82-2.2.21-3.37-.55-1.05-1.45-1.41-2.57-1.41-1.77,0-3.55,0-5.32,0-.32,0-.64.05-.96.08v5.73Z"/>
  <path class="cls-1" d="M121.14,24.3c1.13,3.02,2.2,5.87,3.29,8.75-1.46,1.4-3.25,2.14-5.11,2.7-1.43.43-2.87.81-4.39.8-.95,0-1.92.28-2.86.21-3.31-.23-6.59-.65-9.6-2.22-2.94-1.54-5.32-3.65-6.96-6.57-1.06-1.89-1.73-3.88-2.08-6.04-.35-2.15-.35-4.31-.14-6.4.35-3.41,1.64-6.52,3.91-9.22,2.04-2.42,4.58-4.05,7.49-5.11,1.31-.47,2.74-.57,4.11-.9,1.79-.43,3.6-.28,5.4-.22,3.27.12,6.39.88,9.15,2.76.37.26.71.56,1.06.84-1.08,2.88-2.13,5.69-3.24,8.64-.66-.37-1.29-.73-1.93-1.09-1.61-.89-3.3-1.54-5.17-1.55-1.42,0-2.81-.04-4.22.41-2.91.93-4.32,3.03-4.96,5.83-.11.48-.24.98-.24,1.47-.02,2.35.17,4.68,1.6,6.65,1.14,1.57,2.73,2.46,4.66,2.89,2.75.6,5.27-.12,7.75-1.1.83-.33,1.54-.94,2.48-1.52Z"/>
  <path class="cls-1" d="M85.8,35.99h-10.63c-.26-.95-.37-32.34-.12-35.35h10.75v35.35Z"/>
  <path class="cls-1" d="M157.04.65v8.46h-26.11c-.25-.88-.33-5.76-.12-8.46h26.23Z"/>
  <path class="cls-1" d="M157.05,27.75v8.2h-26.11c-.25-.85-.33-5.51-.12-8.2h26.24Z"/>
  <path class="cls-1" d="M157.01,22.29h-26.2v-7.61c.9-.26,22.48-.38,26.11-.14.23.9.29,5.65.09,7.74Z"/>
</svg>