<svg width="240" height="240" viewBox="0 0 240 240" fill="none" xmlns="http://www.w3.org/2000/svg">
<g clip-path="url(#clip0_4072_3428)">
<path d="M90.4647 110.65C90.1938 110.394 89.9301 110.159 89.6735 109.909C87.1428 107.38 84.605 104.858 82.0814 102.321C80.8981 101.138 79.8858 99.8343 79.1373 98.3308C77.4905 95.0389 77.5832 91.8611 79.7361 88.8257C81.1404 86.8449 82.8584 85.2346 85.2537 84.4935C86.5725 84.0874 87.8913 84.1373 89.2172 84.3938C89.4881 84.4437 89.7519 84.5149 90.1368 84.6075C90.1012 84.2228 90.1154 83.9378 90.037 83.6813C89.1103 80.4108 89.7305 77.4466 91.8905 74.8459C93.5657 72.8366 95.4762 71.0766 97.9712 70.1005C100.523 69.1029 103.047 69.1671 105.556 70.2644C107.139 70.9555 108.486 71.9744 109.698 73.1786C112.564 76.0287 115.408 78.9002 118.267 81.7646C118.438 81.9427 118.594 82.1351 118.766 82.3346C118.694 82.5056 118.666 82.6623 118.573 82.755C109.377 91.9608 100.174 101.16 90.9637 110.358C90.8426 110.479 90.6572 110.536 90.4505 110.65H90.4647ZM100.844 89.2461C101.094 89.1606 101.136 89.1606 101.158 89.1392C103.517 86.8092 105.87 84.4722 108.229 82.1493C108.564 81.8216 108.5 81.5294 108.194 81.223C107.167 80.2112 106.148 79.1923 105.114 78.1877C104.886 77.9668 104.601 77.7815 104.323 77.6248C103.446 77.1331 102.519 76.8837 101.528 77.24C99.2758 78.0452 97.7217 79.6198 96.6025 81.6862C95.9609 82.869 96.1677 83.9876 96.8734 85.0493C97.1728 85.4982 97.5293 85.9043 97.8999 86.2962C98.8766 87.3009 99.8746 88.2771 100.844 89.2532V89.2461ZM89.8731 100.497C91.919 98.4519 93.8295 96.5495 95.74 94.6399C96.1106 94.2694 96.0037 93.9488 95.6687 93.621C94.8417 92.8159 94.0505 91.9751 93.1879 91.2055C92.7673 90.8279 92.2469 90.5429 91.7408 90.2793C90.9994 89.8874 90.2437 89.9016 89.4453 90.2009C88.098 90.7068 87.157 91.6901 86.3087 92.766C85.382 93.9345 85.2822 95.2384 86.1305 96.4782C86.7364 97.3618 87.4921 98.1384 88.2192 98.9293C88.6968 99.4495 89.2457 99.9126 89.8659 100.497H89.8731Z" fill="#D9D9D9"/>
<path d="M134.952 92.1028C133.712 95.3091 132.742 98.4728 131.637 101.587C130.54 104.657 129.556 107.771 128.365 110.921C128.095 110.75 127.931 110.678 127.817 110.564C126.156 108.904 124.509 107.23 122.826 105.591C122.256 105.035 122.163 104.543 122.463 103.781C123.896 100.126 125.25 96.4349 126.647 92.7583C127.439 90.6706 128.251 88.59 129.05 86.5094C129.178 86.1817 129.264 85.8396 129.207 85.3623C128.979 85.5404 128.722 85.6971 128.515 85.8967C124.965 89.445 121.415 92.9934 117.872 96.5561C117.238 97.1902 116.632 97.86 115.94 98.601C113.958 96.8482 112.283 94.9885 110.43 93.1716C110.729 92.8295 110.95 92.5588 111.2 92.3094C120.096 83.4099 128.993 74.5247 137.889 65.6324C137.939 65.5825 137.989 65.5255 138.039 65.4756C138.702 64.8415 138.802 64.8415 139.443 65.4756C140.463 66.4945 141.482 67.5277 142.502 68.5466C144.391 70.4419 146.294 72.3159 148.169 74.2255C149.609 75.6861 150.685 77.3962 151.313 79.3485C152.282 82.391 151.719 85.2126 149.873 87.7706C148.682 89.4165 147.221 90.8416 145.538 91.9816C142.68 93.9197 139.614 94.0551 136.456 92.7654C136.022 92.5873 135.601 92.3949 134.952 92.1099V92.1028ZM139.451 75.1446C139.315 75.2087 139.201 75.2301 139.13 75.3014C136.877 77.5458 134.632 79.7974 132.379 82.0348C132.008 82.4053 132.065 82.7117 132.407 83.0465C133.363 83.98 134.275 84.9632 135.266 85.861C136.834 87.279 138.688 87.4143 140.413 86.1817C141.283 85.5546 142.074 84.7922 142.808 84.0013C144.455 82.2129 144.433 80.1751 142.772 78.3795C141.839 77.3677 140.848 76.42 139.871 75.451C139.75 75.3299 139.586 75.2444 139.451 75.1517V75.1446Z" fill="#D9D9D9"/>
<path d="M97.2252 106.119C99.2498 108.164 101.153 110.087 103.064 112.004C107.633 116.579 112.203 121.16 116.801 125.706C117.513 126.411 118.333 127.031 119.182 127.566C120.771 128.563 122.703 128.542 124.107 127.003C124.521 126.554 124.963 126.105 125.269 125.592C126.039 124.302 125.79 122.998 125.07 121.794C124.606 121.025 124.065 120.284 123.437 119.65C119.346 115.51 115.225 111.406 111.112 107.287C108.788 104.964 106.457 102.642 104.133 100.312C103.955 100.133 103.812 99.9268 103.57 99.6418C105.359 97.8462 107.134 96.0649 108.966 94.2266C109.216 94.4189 109.458 94.5614 109.651 94.7538C115.838 100.931 122.026 107.109 128.199 113.294C129.404 114.498 130.488 115.788 131.407 117.234C134.045 121.367 133.767 126.248 130.644 130.131C129.269 131.841 127.686 133.302 125.776 134.377C122.667 136.123 119.474 136.259 116.216 134.762C114.249 133.857 112.588 132.546 111.069 131.036C104.981 124.972 98.9076 118.887 92.834 112.816C92.6558 112.638 92.4704 112.46 92.2993 112.282C91.6791 111.626 91.6791 111.512 92.3136 110.878C93.6466 109.553 94.9726 108.228 96.3128 106.91C96.5623 106.66 96.8474 106.446 97.2252 106.126V106.119Z" fill="#D9D9D9"/>
<path d="M126.97 174.814C125.866 175.063 120.405 175.042 119.414 174.764C120.113 170.382 120.975 166.014 121.774 161.639C122.579 157.2 123.349 152.761 124.155 148.322C124.953 143.926 125.773 139.53 126.593 135.062C127.035 135.026 127.384 134.984 127.733 134.977C130.948 134.977 134.17 134.977 137.385 134.977C138.412 134.977 138.555 135.119 138.733 136.102C139.424 139.9 140.137 143.698 140.821 147.496C141.178 149.484 141.499 151.479 141.848 153.467C142.155 155.17 142.482 156.873 142.796 158.575C143.06 160.029 143.309 161.49 143.573 162.943C143.908 164.753 144.25 166.556 144.593 168.366C144.949 170.247 145.305 172.121 145.648 174.002C145.69 174.244 145.648 174.5 145.648 174.871C145.341 174.914 145.035 174.985 144.728 174.985C142.846 174.992 140.971 174.992 139.089 174.985C138.155 174.985 138.056 174.871 137.913 173.952C137.599 171.885 137.279 169.812 136.958 167.746C136.858 167.119 136.68 166.912 136.038 166.912C133.721 166.891 131.412 166.912 129.095 166.905C128.51 166.905 128.246 167.19 128.154 167.731C127.94 169.014 127.712 170.289 127.498 171.572C127.32 172.634 127.142 173.702 126.963 174.814H126.97ZM135.646 160.072C135.382 158.476 135.126 157.001 134.883 155.519C134.641 154.022 134.406 152.533 134.17 151.037C133.928 149.505 133.793 147.952 133.436 146.448C133.094 145.016 133.187 143.477 132.474 142.116C132.21 143.064 132.018 143.997 131.868 144.945C131.148 149.355 130.428 153.759 129.729 158.176C129.629 158.796 129.458 159.438 129.715 160.143C131.683 160.143 133.607 160.257 135.653 160.072H135.646Z" fill="#D9D9D9"/>
<path d="M138.056 121.583C138.997 121.583 139.938 121.569 140.879 121.583C141.678 121.597 141.756 121.675 141.777 122.445C141.799 123.2 141.735 123.97 141.792 124.718C141.842 125.352 141.963 126.001 142.148 126.613C142.64 128.174 143.795 128.929 145.377 129.05C147.06 129.178 148.621 128.338 149.098 126.991C149.548 125.716 149.455 124.433 148.949 123.186C148.371 121.761 147.302 120.735 146.126 119.823C144.016 118.191 141.834 116.638 139.739 114.985C137.472 113.204 135.761 110.995 135.062 108.137C134.863 107.332 134.748 106.506 134.706 105.679C134.549 102.722 134.948 99.9006 136.951 97.5422C138.263 96.0031 139.96 95.1196 141.899 94.6279C143.46 94.2289 145.049 94.1434 146.639 94.2574C149.27 94.4427 151.643 95.2835 153.582 97.1645C155.208 98.7463 156.028 100.72 156.298 102.915C156.462 104.24 156.462 105.579 156.491 106.919C156.505 107.603 156.363 107.724 155.65 107.731C153.732 107.746 151.815 107.746 149.897 107.731C149.091 107.724 149.02 107.603 148.977 106.755C148.92 105.672 148.927 104.589 148.771 103.52C148.485 101.568 146.839 100.706 145.285 100.82C143.445 100.955 142.298 102.252 142.205 104.119C142.127 105.665 142.619 107.012 143.731 108.023C145.121 109.277 146.625 110.403 148.1 111.558C149.441 112.598 150.859 113.546 152.157 114.629C154.01 116.175 155.472 118.027 156.291 120.35C156.99 122.345 157.147 124.383 156.876 126.442C156.626 128.281 156.035 130.019 154.887 131.53C153.354 133.553 151.316 134.779 148.885 135.335C146.375 135.905 143.859 135.862 141.385 135.064C137.8 133.902 135.518 131.48 134.549 127.86C134.306 126.962 134.299 126.001 134.235 125.067C134.185 124.241 134.207 123.407 134.214 122.573C134.221 121.69 134.314 121.604 135.233 121.597C136.174 121.59 137.115 121.597 138.056 121.597V121.583Z" fill="#D9D9D9"/>
</g>
<defs>
<clipPath id="clip0_4072_3428">
<rect width="79" height="110" fill="white" transform="translate(78 65)"/>
</clipPath>
</defs>
</svg>
