<svg width="240" height="240" viewBox="0 0 240 240" fill="none" xmlns="http://www.w3.org/2000/svg">
<g clip-path="url(#clip0_4072_3126)">
<path d="M65.2477 101.628C60.3214 101.649 55.9823 103.289 52.2231 106.389C48.7146 109.282 46.5951 113.055 46.0868 117.581C45.607 121.805 46.7169 125.586 49.8746 128.586C52.1945 130.791 54.987 131.901 58.202 131.687C64.0304 131.307 67.4244 127.068 68.2765 122.922C68.6417 121.139 68.5629 119.364 68.076 117.617C67.3457 114.989 65.7131 113.063 63.3216 111.81C62.2977 111.273 61.1735 110.922 60.0851 110.492C59.8918 110.413 59.6841 110.363 59.4622 110.292C59.3691 109.518 59.4908 108.788 59.6913 108.079C60.5291 105.1 62.4409 103.138 65.3551 102.122C65.8062 101.964 66.2072 102.014 66.6368 102.251C72.2361 105.301 75.8234 109.905 77.1767 116.142C79.1673 125.342 74.4272 134.744 65.8921 138.711C62.7846 140.157 59.5266 140.744 56.0968 140.565C47.2968 140.114 39.3203 133.691 37.43 124.455C35.1673 113.37 42.0913 103.282 52.173 100.668C56.5265 99.5368 60.8083 99.8304 64.9899 101.513C65.083 101.549 65.1618 101.592 65.2477 101.628Z" fill="#D9D9D9"/>
<path d="M129.985 128.628C128.868 128.628 127.779 128.628 126.648 128.628C126.584 128.335 126.512 128.041 126.441 127.69C126.304 127.755 126.168 127.79 126.075 127.876C124.185 129.609 121.149 129.244 119.438 127.798C118.657 127.139 118.049 126.358 117.641 125.428C116.559 122.964 116.43 120.437 117.383 117.916C118.192 115.775 119.703 114.351 121.958 113.778C123.082 113.491 124.221 113.484 125.352 113.756C125.624 113.821 125.903 113.885 126.226 113.957C126.433 113.327 126.312 112.711 126.333 112.109C126.355 111.465 126.34 110.821 126.34 110.183C126.34 109.568 126.34 108.959 126.34 108.293C127.6 108.293 128.775 108.293 129.999 108.293C129.985 115.074 129.985 121.826 129.985 128.628ZM126.29 117.129C125.968 117.021 125.689 116.9 125.395 116.828C123.483 116.348 121.858 116.943 121.049 118.532C120.068 120.444 120.132 122.42 121.149 124.289C122.073 125.993 124.042 126.358 125.631 125.249C126.111 124.912 126.362 124.504 126.347 123.874C126.312 121.876 126.333 119.871 126.333 117.873C126.326 117.637 126.304 117.401 126.29 117.129Z" fill="#D9D9D9"/>
<path d="M201.952 122.233C198.78 122.233 195.637 122.233 192.422 122.233C192.436 123.429 192.752 124.402 193.675 125.097C194.32 125.584 195.071 125.799 195.873 125.849C197.391 125.942 198.809 125.613 200.105 124.811C200.184 124.76 200.27 124.725 200.42 124.639C200.75 125.634 201.057 126.593 201.373 127.553C200.506 128.212 199.582 128.498 198.63 128.713C197.126 129.049 195.623 129.171 194.098 128.856C191.577 128.341 189.923 126.815 189.128 124.417C188.377 122.154 188.434 119.856 189.35 117.629C190.532 114.758 193.36 113.218 196.453 113.633C198.995 113.97 200.606 115.373 201.444 117.743C201.91 119.068 202.117 120.801 201.952 122.233ZM198.15 119.526C198.251 117.951 197.033 116.562 195.537 116.526C194.148 116.49 192.451 117.751 192.565 119.526C194.427 119.526 196.289 119.526 198.15 119.526Z" fill="#D9D9D9"/>
<path d="M186.194 128.653C184.969 128.653 183.809 128.653 182.57 128.653C182.549 128.353 182.513 128.081 182.513 127.801C182.506 125.324 182.52 122.839 182.499 120.362C182.492 119.818 182.456 119.259 182.32 118.736C181.876 117.025 180.372 116.266 178.711 116.875C178.489 116.954 178.274 117.068 178.074 117.19C176.806 117.956 176.792 117.977 176.792 119.445C176.792 122.238 176.792 125.023 176.792 127.816C176.792 128.073 176.792 128.331 176.792 128.632C175.525 128.632 174.343 128.632 173.162 128.632C173.019 128.102 172.99 114.848 173.133 114.018C174.207 114.018 175.288 114.018 176.413 114.018C176.491 114.326 176.57 114.641 176.67 115.042C176.921 114.899 177.114 114.784 177.308 114.669C178.99 113.631 180.788 113.295 182.721 113.817C184.024 114.168 184.941 114.97 185.528 116.173C186.015 117.183 186.215 118.264 186.229 119.359C186.265 122.338 186.244 125.317 186.244 128.303C186.251 128.389 186.222 128.482 186.194 128.653Z" fill="#D9D9D9"/>
<path d="M140.76 119.13C140.974 117.683 140.366 116.839 139.034 116.617C137.981 116.438 137 116.681 136.055 117.132C135.626 117.34 135.232 117.605 134.731 117.891C134.337 117.053 133.943 116.23 133.535 115.364C133.764 115.199 133.943 115.048 134.143 114.934C136.148 113.76 138.296 113.301 140.595 113.717C142.75 114.103 144.225 115.714 144.476 117.92C144.547 118.536 144.583 119.158 144.583 119.774C144.597 122.445 144.59 125.116 144.583 127.779C144.583 128.059 144.555 128.338 144.54 128.639C143.409 128.639 142.335 128.639 141.218 128.639C141.153 128.338 141.089 128.044 141.01 127.672C140.817 127.801 140.659 127.887 140.516 127.994C138.841 129.269 136.399 129.369 134.595 128.295C131.866 126.662 131.594 122.388 134.537 120.662C135.733 119.96 137.029 119.602 138.382 119.416C139.184 119.302 139.986 119.223 140.76 119.13ZM140.881 121.786C140.545 121.786 140.301 121.765 140.072 121.793C139.549 121.851 139.027 121.894 138.518 122.015C138.017 122.137 137.502 122.28 137.043 122.517C136.349 122.889 135.955 123.813 136.091 124.529C136.241 125.288 136.786 125.739 137.724 125.875C138.805 126.032 139.75 125.689 140.588 125.044C140.724 124.944 140.853 124.736 140.86 124.579C140.888 123.684 140.881 122.782 140.881 121.786Z" fill="#D9D9D9"/>
<path d="M100.562 121.244C100.613 119.683 100.963 118.215 101.751 116.862C103.169 114.413 105.754 113.346 108.489 113.604C111.496 113.89 113.931 116.11 114.575 119.533C114.94 121.466 114.718 123.335 113.888 125.111C112.628 127.796 110.121 129.213 107.028 129.006C104.25 128.82 101.508 126.858 100.784 122.998C100.67 122.433 100.634 121.838 100.562 121.244ZM111.074 121.323C111.081 120.292 110.931 119.354 110.487 118.487C110.057 117.65 109.413 117.027 108.475 116.783C106.885 116.368 105.389 117.127 104.73 118.752C104.042 120.464 104.057 122.203 104.794 123.893C105.31 125.082 106.233 125.784 107.558 125.834C108.919 125.884 109.864 125.189 110.48 124.022C110.931 123.163 111.081 122.225 111.074 121.323Z" fill="#D9D9D9"/>
<path d="M170.605 121.282C170.541 123.093 170.104 124.783 169.044 126.265C167.548 128.342 165.471 129.151 162.958 129.015C159.628 128.836 157.208 126.38 156.585 122.893C156.22 120.852 156.492 118.897 157.466 117.071C158.855 114.472 161.511 113.334 164.361 113.606C166.953 113.856 169.638 115.725 170.376 119.441C170.505 120.043 170.533 120.666 170.605 121.282ZM166.903 121.296C166.91 120.15 166.717 119.227 166.309 118.46C165.865 117.63 165.228 117.007 164.282 116.778C162.736 116.398 161.275 117.107 160.616 118.647C159.865 120.394 159.879 122.177 160.645 123.917C161.168 125.105 162.099 125.793 163.423 125.828C164.791 125.864 165.715 125.155 166.323 123.988C166.76 123.15 166.91 122.241 166.903 121.296Z" fill="#D9D9D9"/>
<path d="M155.485 113.915C155.485 114.96 155.485 115.884 155.485 116.908C154.475 116.908 153.466 116.908 152.384 116.908C152.384 120.86 152.384 124.705 152.384 128.536C151.797 128.708 149.621 128.737 148.69 128.594C148.64 127.333 148.675 126.059 148.668 124.777C148.661 123.467 148.668 122.156 148.668 120.846C148.668 119.564 148.668 118.29 148.668 116.944C147.974 116.944 147.387 116.944 146.742 116.944C146.742 115.941 146.742 115.003 146.742 113.965C147.336 113.965 147.945 113.965 148.611 113.965C148.633 113.571 148.632 113.263 148.668 112.97C148.761 112.239 148.783 111.488 148.991 110.793C149.485 109.161 150.645 108.237 152.327 107.95C153.845 107.685 155.306 107.872 156.795 108.444C156.659 109.447 156.523 110.428 156.387 111.43C155.864 111.323 155.406 111.216 154.948 111.137C154.712 111.094 154.475 111.079 154.239 111.094C153.065 111.158 152.406 111.824 152.349 112.998C152.334 113.278 152.349 113.564 152.349 113.922C153.401 113.915 154.397 113.915 155.485 113.915Z" fill="#D9D9D9"/>
<path d="M94.0675 128.645C92.9791 128.645 91.9409 128.645 90.831 128.645C88.7903 123.776 86.7568 118.915 84.6875 113.988C86.0551 113.988 87.3082 113.988 88.6328 113.988C89.9002 117.203 91.1747 120.418 92.4421 123.64C92.4994 123.64 92.5495 123.648 92.6068 123.648C93.8885 120.454 95.0484 117.218 96.323 113.995C97.5402 113.995 98.7431 113.995 99.9532 113.995C99.9031 114.511 94.626 127.636 94.0675 128.645Z" fill="#D9D9D9"/>
</g>
<defs>
<clipPath id="clip0_4072_3126">
<rect width="165.007" height="40.6054" fill="white" transform="translate(37 100)"/>
</clipPath>
</defs>
</svg>
