<svg width="240" height="240" viewBox="0 0 240 240" fill="none" xmlns="http://www.w3.org/2000/svg">
<g clip-path="url(#clip0_4072_3368)">
<path d="M137.497 162.297C135.161 161.662 132.955 161.06 130.749 160.457C129.74 152.708 125.881 147.279 118.254 144.706C118.824 142.582 119.41 140.433 120.021 138.17C126.085 140.148 130.7 143.77 133.859 149.566C136.105 141.548 138.214 133.726 140.24 125.838C138.197 127.775 136.17 129.688 133.899 131.3C131.596 132.928 129.203 134.417 126.427 135.443C125.727 134.808 124.994 134.165 124.286 133.506C123.732 132.993 123.236 132.415 122.642 131.959C122.072 131.528 121.95 131.088 122.153 130.404C122.634 128.785 123.049 127.14 123.48 125.504C123.562 125.203 123.594 124.885 123.57 124.544C119.565 128.931 115.234 132.846 109.772 135.435C109.406 135.134 109.015 134.857 108.657 134.523C107.688 133.628 106.769 132.684 105.776 131.821C105.336 131.43 105.271 131.056 105.417 130.527C106.443 126.872 107.452 123.217 108.454 119.554C108.918 117.852 109.357 116.151 109.878 114.206C107.102 115.817 104.848 117.706 102.78 119.863C100.704 122.02 99.0031 124.446 97.5379 127.043C96.0564 129.672 95.047 132.505 94.1109 135.451C91.9456 134.857 89.8537 134.279 87.6233 133.669C88.364 130.437 89.3571 127.311 90.0572 124.08C85.7429 128.695 81.0706 132.798 75.226 135.468C73.7201 134.051 72.2468 132.659 70.7734 131.275C72.3689 125.447 73.9562 119.651 75.5354 113.856C76.2273 111.316 76.8947 108.768 77.5704 106.229C77.6273 106.009 77.7006 105.797 77.7657 105.585C77.9855 104.91 78.075 104.853 78.7262 105.008C79.3123 105.146 79.8903 105.317 80.4682 105.472C81.559 105.765 82.6416 106.058 83.7242 106.359C83.9684 106.424 84.2045 106.546 84.5464 106.676C82.8532 112.92 81.1683 119.122 79.467 125.415C81.4125 124.82 86.6628 120.368 89.4629 116.664C92.1491 113.115 94.1679 109.248 95.4866 104.861C97.7169 105.366 99.8578 105.984 102.064 106.644C101.331 109.346 100.607 112.008 99.8822 114.662C99.9392 114.702 100.004 114.751 100.061 114.792C100.338 114.523 100.623 114.263 100.892 113.978C104.009 110.592 107.542 107.767 111.718 105.797C112.296 105.528 112.89 105.292 113.484 105.04C113.956 104.837 114.331 104.926 114.697 105.309C115.894 106.554 117.123 107.767 118.376 109.021C117.66 111.715 116.96 114.393 116.235 117.071C115.527 119.692 114.778 122.305 114.241 124.999C121.64 120.067 126.598 113.367 129.137 104.82C131.311 105.415 133.435 105.992 135.698 106.611C133.973 113.034 132.271 119.358 130.57 125.675C138.539 120.832 143.553 113.831 146.134 104.902C148.356 105.309 150.481 106.001 152.744 106.619C147.664 125.179 142.609 143.689 137.514 162.313L137.497 162.297Z" fill="#D9D9D9"/>
<path d="M165.788 127.784C165.186 128.378 164.591 128.989 163.973 129.566C161.425 131.952 158.682 134.019 155.344 135.208C154.807 135.395 154.465 135.37 154.05 134.971C152.772 133.75 151.462 132.57 150.086 131.308C153.993 117.015 157.9 102.713 161.84 88.3047C164.103 88.907 166.236 89.4687 168.458 90.0629C165.194 102.012 161.938 113.905 158.69 125.798C158.755 125.855 158.82 125.903 158.885 125.96C159.439 125.562 160.025 125.195 160.554 124.756C163.607 122.183 166.097 119.147 167.978 115.623C168.58 114.499 169.052 113.295 169.744 112.228C172.113 108.606 175.174 105.806 179.406 104.503C182.443 103.567 185.194 104.153 187.685 106.074C187.856 106.205 188.035 106.319 188.328 106.53C188.523 105.838 188.686 105.252 188.881 104.528C191.022 105.057 193.155 105.578 195.377 106.123C193.611 113.124 191.852 120.083 190.037 127.263C190.558 127.035 190.851 126.921 191.136 126.791C193.155 125.871 195.182 124.967 197.184 124.023C197.786 123.738 198.373 123.364 198.902 122.949C201.458 120.93 200.929 117.291 198.332 115.704C198.169 115.606 198.006 115.525 197.77 115.387C198.348 113.221 198.926 111.064 199.52 108.826C200.79 109.2 201.816 109.868 202.76 110.657C204.404 112.033 205.674 113.677 206.399 115.72C207.921 119.994 206.545 125.277 202.467 128.02C200.945 129.037 199.292 129.892 197.632 130.665C194.156 132.277 190.631 133.791 187.123 135.338C187.058 135.362 186.977 135.354 186.781 135.37C185.3 134.003 183.761 132.57 182.19 131.113C182.467 130.014 182.736 128.94 183.004 127.857C182.947 127.816 182.89 127.768 182.833 127.727C182.597 127.922 182.353 128.109 182.141 128.329C180.668 129.851 179.113 131.26 177.355 132.44C175.532 133.661 173.643 134.719 171.486 135.248C170.916 135.387 170.517 135.354 170.078 134.914C169.093 133.93 168.067 132.985 167.009 132.082C166.407 131.569 166.179 130.958 166.162 130.21C166.146 129.428 166.106 128.647 166.081 127.865C165.992 127.833 165.894 127.792 165.804 127.759L165.788 127.784ZM173.366 127.344C175.035 126.579 176.46 125.733 177.762 124.723C179.968 123.006 181.93 121.019 183.452 118.659C184.494 117.047 185.454 115.387 186.431 113.742C186.627 113.409 186.724 113.067 186.407 112.7C184.616 110.625 182.239 109.737 179.634 111.577C177.51 113.083 176.093 115.142 175.1 117.503C173.887 120.376 173.464 123.429 173.293 126.522C173.285 126.742 173.326 126.954 173.358 127.344H173.366Z" fill="#D9D9D9"/>
<path d="M69.1464 79.4151C71.4175 79.2768 73.5746 79.1384 75.7724 79C76.0329 80.4489 76.212 81.8571 76.5376 83.241C77.3516 86.7249 78.6784 89.9565 81.0797 92.6915C82.7321 94.58 84.7346 95.915 87.1929 96.786C86.7452 98.9593 86.0777 101.059 85.4835 103.29C83.6275 102.785 81.9995 101.906 80.4529 100.848C78.9063 99.7978 77.5144 98.5605 76.155 97.0383C76.0329 97.4616 75.9271 97.6976 75.8945 97.9337C75.3166 102.557 74.006 106.969 72.0443 111.194C69.7732 116.094 66.6474 120.384 62.9519 124.299C60.4854 126.912 57.7585 129.224 54.7711 131.194C52.1907 132.895 49.4476 134.303 46.4764 135.248C46.0125 135.394 45.7031 135.362 45.3694 135.028C44.2379 133.872 43.0902 132.732 41.9506 131.593C41.625 131.267 41.6006 130.95 41.7308 130.478C42.9844 125.952 44.1972 121.418 45.4182 116.884C46.9241 111.3 48.4301 105.707 49.936 100.123C50.286 98.8291 50.636 97.5267 51.0186 96.1185C50.7418 96.1348 50.5546 96.0941 50.4081 96.1592C48.0393 97.2174 45.6706 98.2756 43.3181 99.3582C42.8786 99.5617 42.4797 99.8547 42.0808 100.132C39.7528 101.768 39.9319 104.486 41.1366 106.342C41.2994 106.587 41.5436 106.782 41.7715 106.969C42.1785 107.295 42.6018 107.604 43.0739 107.954C42.4797 110.087 41.8936 112.203 41.2831 114.401C40.9005 114.279 40.5993 114.238 40.3551 114.092C36.9608 112.146 34.7304 109.289 34.1443 105.406C33.4768 100.986 34.999 97.372 38.8492 94.9626C40.5017 93.9288 42.2843 93.0985 44.067 92.2927C47.323 90.8275 50.6523 89.5658 54.0874 88.5808C54.6979 88.4017 55.0479 88.532 55.4549 88.9715C56.5864 90.1681 57.7748 91.324 59.0446 92.5938C56.0898 103.534 53.1106 114.548 50.115 125.618C50.4813 125.813 50.7662 125.504 51.043 125.3C52.728 124.031 54.4374 122.801 56.0491 121.442C59.0935 118.878 61.5762 115.801 63.6926 112.447C66.2486 108.402 67.9417 104.006 68.7476 99.2687C69.4232 95.2801 69.6837 91.2752 69.529 87.2458C69.4395 84.8771 69.2767 82.5165 69.1464 80.1477C69.1383 79.9605 69.1464 79.7733 69.1464 79.4233V79.4151Z" fill="#D9D9D9"/>
</g>
<defs>
<clipPath id="clip0_4072_3368">
<rect width="173" height="83.2969" fill="white" transform="translate(34 79)"/>
</clipPath>
</defs>
</svg>
