<svg width="240" height="240" viewBox="0 0 240 240" fill="none" xmlns="http://www.w3.org/2000/svg">
<g clip-path="url(#clip0_4072_3358)">
<path d="M203 135.184H192.849C191.867 133.363 190.894 131.535 189.896 129.706C189.233 128.489 188.545 127.281 187.865 126.073C187.362 125.192 186.515 124.916 185.584 124.806C185.273 124.773 184.946 124.806 184.577 124.806C184.367 125.654 184.493 126.501 184.476 127.332C184.451 128.212 184.476 129.102 184.476 129.991V135.15H175.391V105.469H176.355C181.137 105.469 185.928 105.41 190.709 105.494C192.907 105.528 195.08 105.964 196.985 107.172C199.266 108.615 200.617 110.662 200.852 113.389C200.911 114.085 201.104 114.79 201.045 115.469C200.886 117.273 200.592 119.043 199.476 120.578C198.637 121.736 197.656 122.692 196.372 123.33C196.062 123.481 195.751 123.649 195.382 123.842C196.448 124.479 197.32 125.285 197.983 126.3C198.327 126.82 198.637 127.357 198.948 127.902C200.256 130.192 201.557 132.483 202.857 134.773C202.907 134.857 202.924 134.957 203.008 135.184H203ZM184.518 112.692V118.212C186.179 118.212 187.807 118.296 189.409 118.179C190.248 118.12 191.171 117.81 191.657 117.021C192.765 115.218 192.01 112.969 189.552 112.726C187.916 112.567 186.246 112.692 184.51 112.692H184.518Z" fill="#D9D9D9"/>
<path d="M40.3813 125.486C41.4215 125.931 42.3779 126.317 43.3175 126.736C44.8863 127.441 46.539 127.743 48.2252 128.028C49.4249 128.238 50.6162 128.196 51.7991 128.171C52.4702 128.162 53.1749 127.961 53.7957 127.692C54.3158 127.466 54.643 126.979 54.534 126.308C54.4333 125.713 54.0642 125.385 53.5356 125.234C52.4702 124.932 51.4048 124.63 50.3309 124.387C48.5692 124.001 46.7655 123.783 45.0457 123.28C42.8729 122.651 40.9098 121.593 39.643 119.588C39.039 118.64 38.6363 117.617 38.5776 116.476C38.5524 115.956 38.3595 115.436 38.3846 114.924C38.5692 111.971 39.6262 109.488 42.1514 107.701C44.0726 106.333 46.1866 105.637 48.4769 105.234C50.2722 104.916 52.0759 104.983 53.8544 105.083C55.6413 105.184 57.4115 105.595 59.1061 106.258C60.1548 106.669 61.0944 107.223 62.034 107.81C62.3947 108.036 62.445 108.28 62.2773 108.691C61.4803 110.713 60.7168 112.751 59.9283 114.84C59.7185 114.756 59.5172 114.714 59.3494 114.614C57.5122 113.489 55.5239 112.827 53.3679 112.676C52.7387 112.634 52.1179 112.449 51.497 112.491C50.5994 112.55 49.7101 112.751 48.8293 112.911C48.6279 112.944 48.435 113.045 48.2588 113.154C47.3947 113.691 47.3276 114.505 48.0323 115.234C48.7705 115.998 49.7689 116.073 50.7001 116.283C52.8309 116.753 55.0038 117.055 57.1095 117.617C59.383 118.229 61.3209 119.471 62.6044 121.526C62.9652 122.105 63.242 122.768 63.4014 123.431C64.0977 126.3 63.6447 129.01 61.8494 131.359C60.7168 132.843 59.19 133.934 57.3947 134.572C55.7252 135.167 54.0306 135.696 52.2185 135.654C51.5977 135.637 50.9685 135.872 50.3477 135.83C48.9887 135.746 47.6464 135.536 46.2873 135.436C44.643 135.318 43.0658 134.924 41.5306 134.362C40.5239 133.993 39.5424 133.548 38.5776 133.078C37.9148 132.751 37.8729 132.592 38.133 131.837C38.8712 129.714 39.6179 127.6 40.3645 125.486H40.3813Z" fill="#D9D9D9"/>
<path d="M69.6797 135.134V105.469H70.6445C75.6445 105.469 80.6361 105.41 85.6361 105.494C87.9012 105.536 90.1159 105.947 92.0622 107.323C93.3374 108.221 94.2854 109.37 94.8223 110.796C96.0136 113.934 95.9968 117.097 94.4951 120.125C93.3038 122.525 91.2233 123.808 88.6394 124.395C85.9549 124.999 83.2451 124.756 80.5438 124.806C80.0572 124.815 79.5706 124.806 79.0169 124.806V135.05C78.1864 135.259 71.4079 135.31 69.6797 135.134ZM79.0421 117.575C80.9884 117.575 82.9012 117.634 84.7971 117.533C85.3173 117.508 85.9884 117.122 86.2988 116.694C86.9028 115.855 86.9867 114.848 86.475 113.867C86.0136 112.986 85.2585 112.684 84.319 112.684C82.8341 112.684 81.3408 112.684 79.8559 112.684C79.5874 112.684 79.319 112.726 79.0505 112.751V117.558L79.0421 117.575Z" fill="#D9D9D9"/>
<path d="M139.633 125.385C140.581 127.919 141.478 130.31 142.393 132.726C141.168 133.9 139.666 134.521 138.106 134.991C136.906 135.352 135.698 135.671 134.423 135.662C133.626 135.662 132.812 135.897 132.024 135.838C129.247 135.645 126.495 135.293 123.97 133.976C121.504 132.684 119.507 130.914 118.131 128.464C117.242 126.879 116.68 125.209 116.386 123.397C116.092 121.593 116.092 119.781 116.269 118.028C116.562 115.167 117.645 112.558 119.549 110.293C121.26 108.263 123.391 106.895 125.832 106.006C126.931 105.612 128.131 105.528 129.28 105.251C130.782 104.89 132.301 105.016 133.811 105.067C136.554 105.167 139.171 105.805 141.487 107.382C141.797 107.6 142.082 107.852 142.376 108.087C141.47 110.503 140.589 112.86 139.658 115.335C139.104 115.025 138.576 114.723 138.039 114.421C136.688 113.674 135.27 113.129 133.702 113.12C132.51 113.12 131.344 113.087 130.161 113.464C127.72 114.244 126.537 116.006 126 118.355C125.908 118.758 125.799 119.177 125.799 119.588C125.782 121.56 125.941 123.515 127.141 125.167C128.098 126.484 129.431 127.231 131.051 127.592C133.358 128.095 135.472 127.491 137.552 126.669C138.249 126.392 138.844 125.88 139.633 125.394V125.385Z" fill="#D9D9D9"/>
<path d="M109.98 135.195H101.062C100.844 134.398 100.752 108.064 100.962 105.539H109.98V135.195Z" fill="#D9D9D9"/>
<path d="M169.747 105.543V112.64H147.842C147.633 111.902 147.566 107.808 147.742 105.543H169.747Z" fill="#D9D9D9"/>
<path d="M169.755 128.281V135.16H147.85C147.64 134.447 147.573 130.538 147.75 128.281H169.763H169.755Z" fill="#D9D9D9"/>
<path d="M169.722 123.7H147.742V117.316C148.497 117.098 166.601 116.997 169.647 117.199C169.84 117.954 169.89 121.939 169.722 123.692V123.7Z" fill="#D9D9D9"/>
</g>
<defs>
<clipPath id="clip0_4072_3358">
<rect width="165" height="30.8473" fill="white" transform="translate(38 105)"/>
</clipPath>
</defs>
</svg>
