<?xml version="1.0" encoding="UTF-8"?>
<svg id="Layer_1" xmlns="http://www.w3.org/2000/svg" viewBox="0 0 207.38 99.38">
  <defs>
    <style>
      .cls-1 {
        fill: #fff;
      }
    </style>
  </defs>
  <path class="cls-1" d="M151.45,94.43v-20.69c.8-.24,7.24-.3,8.73-.08v20.65c.33.05.56.11.8.11,9.88,0,19.76.01,29.64,0,1.22,0,2.45-.09,3.66-.27,1.81-.28,2.67-1.67,2.16-3.4-.34-1.15-1.28-1.59-2.36-1.77-.35-.06-.72-.03-1.08-.03-9.23,0-18.46,0-27.69,0-.43,0-.86,0-1.31,0-.31-.84-.03-1.62.07-2.38.36-2.86,1.28-5.51,3.07-7.83,2.11-2.72,4.89-4.32,8.23-4.91,1.2-.21,2.43-.27,3.65-.27,8.29-.02,16.58-.01,24.88,0,.21,0,.43,0,.63,0,.21.8.24,3.71.04,4.94-.37,0-.76,0-1.14,0-7.79,0-15.57,0-23.36,0-.94,0-1.87.02-2.75.42-1.51.69-2.43,1.88-2.95,3.41-.17.5-.25,1.03-.4,1.66.52,0,.94,0,1.37,0,6.85,0,13.7,0,20.55,0,2.13,0,4.25.21,6.28.87,4.11,1.32,5.79,4.52,5.04,8.68-.35,1.97-1.72,3.29-3.44,4.21-2.01,1.08-4.21,1.41-6.44,1.59-.57.05-1.15.03-1.73.03-21.85,0-43.7,0-65.54,0-2.99,0-5.65-.93-7.95-2.83-1.89-1.55-3.01-3.55-3.28-5.99-.11-.96-.16-1.94-.17-2.91-.02-3.79,0-7.57,0-11.36,0-.35,0-.71,0-1.08-.83.22-14.46,9.27-15.73,10.44,6.14,4.53,12.25,9.04,18.37,13.56-.02.05-.04.11-.06.16-.32,0-.63,0-.95,0-3.71,0-7.43-.03-11.14.02-.97.01-1.72-.26-2.47-.82-3.37-2.53-6.75-5.03-10.14-7.54-.98-.73-.98-.73-1.97-.07-3.91,2.63-7.83,5.25-11.73,7.9-.53.36-1.06.52-1.7.52-23.61-.01-47.23-.02-70.84,0-5.19,0-9.18-3.45-10.02-8.74-.19-1.2-.26-2.43-.27-3.65-.03-4.18-.01-8.37,0-12.55,0-.25.03-.49.05-.81h8.74c.03.44.08.86.08,1.28,0,4.62-.01,9.23.01,13.85,0,.75.07,1.52.29,2.23.63,2.06,1.96,3.11,4.27,3.37.82.09,1.65.08,2.48.08,3.89,0,7.79,0,11.68,0,2.52,0,5.04,0,7.6,0,1.26-3.03,3.29-5.35,6.05-7.35-.98-.2-1.72-.1-2.45-.12-.79-.02-1.59,0-2.38,0-.75,0-1.51,0-2.35,0,.19-1.55.68-2.92,1.38-4.2,2.54-4.67,6.49-7.49,11.62-8.73,1.66-.4,3.34-.49,5.04-.49,11.14,0,22.28,0,33.42-.01.73,0,1.3.19,1.88.61,3.52,2.63,7.06,5.23,10.59,7.84.2.15.42.29.69.47,1.15-.75,2.32-1.5,3.48-2.27,3.11-2.08,6.2-4.17,9.32-6.23.34-.22.79-.39,1.19-.4,5.01-.03,10.02-.02,15.03-.01.17,0,.34.04.63.07,0,.42,0,.81,0,1.19,0,4.76,0,9.52,0,14.28,0,1.33.35,2.56,1.22,3.61.85,1.04,1.99,1.52,3.29,1.66.57.06,1.15.08,1.73.08,5.26,0,10.53,0,15.79,0h1.08ZM75.48,78.58h-1.44c-7.14,0-14.28-.02-21.41.01-2.58.01-4.53,1.23-5.9,3.39-.35.54-.61,1.14-.56,1.9h27.11c.2,1.42.16,4.35-.08,5.12-.38,0-.78,0-1.17,0-6.13,0-12.26,0-18.39,0-2.2,0-4.08.82-5.53,2.49-.68.78-1.2,1.66-1.24,2.84.32,0,.57,0,.82,0,10.71,0,21.41,0,32.12.01.57,0,1.04-.15,1.5-.46,2.99-2,5.99-3.99,8.99-5.98.28-.19.55-.4.88-.65-5.24-3.86-10.36-7.71-15.71-11.62v2.94Z"/>
  <path class="cls-1" d="M135.94,40.88c-1.7,1.68-3.51,3.03-5.44,4.2-4.54,2.76-9.46,4.48-14.69,5.4-2.88.51-5.78.78-8.7.75-6.08-.06-12.03-.95-17.74-3.17-3.89-1.52-7.47-3.57-10.54-6.43-3.72-3.47-6.15-7.69-6.89-12.76-.94-6.45.76-12.19,4.98-17.17,2.95-3.47,6.65-5.92,10.77-7.78,3.96-1.79,8.13-2.85,12.42-3.44,4.26-.58,8.55-.66,12.83-.19,2.1.23,4.18.67,6.27,1.03.31.05.63.17.91.32.74.4.98.93.63,1.69-.34.74-.75,1.49-1.27,2.11-4.52,5.43-8.65,11.15-12.71,16.93-1.24,1.77-2.38,3.6-3.56,5.41-.62.94-1.06,1.96-1.17,3.1-.13,1.34.6,2.15,1.62,2.26.5.05,1,.14,1.5.14,9.52,0,19.03,0,28.55,0,2,0,2.89-.64,3.49-2.54.71-2.22.85-4.5.69-6.82-.24-3.64-1.35-6.96-3.43-9.96-1.99-2.87-4.59-5.06-7.63-6.72-1.32-.72-2.71-1.32-4.18-2.03.5-.76,1.02-1.56,1.59-2.43.85.34,1.68.64,2.5.99,4.38,1.92,8.28,4.51,11.34,8.24,2.97,3.62,4.61,7.77,4.87,12.44.28,4.95-1.22,9.35-4.22,13.27-.57.74-1.31,1.1-2.21,1.19-.32.03-.65.02-.97.02-12.04,0-24.08,0-36.12,0-1.38,0-2.72-.2-4.03-.63-2.42-.78-4.29-2.92-4.31-5.82-.02-2.83.97-5.3,2.51-7.56,2.26-3.3,4.58-6.55,6.96-9.76,2.61-3.53,5.32-7,7.97-10.5.27-.36.71-.71.45-1.24-.25-.52-.79-.6-1.3-.61-7.13-.03-13.97,1.17-20.2,4.84-4.46,2.63-7.83,6.25-9.43,11.25-2.03,6.37-1.27,12.36,2.75,17.82,3.18,4.31,7.46,7.13,12.37,9.08,3.74,1.48,7.63,2.24,11.65,2.51,6.4.42,12.55-.57,18.43-3.11,2.29-.99,4.43-2.26,6.37-3.84.45-.37.9-.52,1.47-.52,1.57.02,3.14,0,4.84,0Z"/>
</svg>