<?xml version="1.0" encoding="UTF-8"?>
<svg id="Layer_1" xmlns="http://www.w3.org/2000/svg" viewBox="0 0 328.96 78.13">
  <defs>
    <style>
      .cls-1, .cls-2 {
        fill: #fff;
      }

      .cls-2 {
        fill-rule: evenodd;
      }
    </style>
  </defs>
  <path id="path28" class="cls-1" d="M168.8,7.97c-4.1,0-7.51,3.19-7.51,7.25s3.41,7.3,7.51,7.3,7.61-3.18,7.61-7.3-3.35-7.25-7.61-7.25ZM188.29,7.97c-4.15,0-7.5,3.19-7.5,7.25s3.35,7.3,7.5,7.3,7.62-3.18,7.62-7.3-3.41-7.25-7.62-7.25Z"/>
  <path id="path32" class="cls-1" d="M233.44,26.21c-8.76,0-15.87,6.81-15.87,15.27s7.11,15.32,15.82,15.32c4.84,0,8.48-1.92,11.72-4.83.8-.71.63-1.43.17-1.86l-3.36-3.19c-.97-.93-1.42-.55-2.04,0-1.37,1.21-3.93,2.25-6.43,2.25-4.44,0-8.02-3.41-8.02-7.69s3.58-7.69,7.96-7.69c2.56,0,5.12,1.1,6.49,2.31.62.55,1.08.93,2.04,0l3.36-3.18c.46-.44.63-1.16-.17-1.87-3.24-2.91-6.89-4.83-11.67-4.83ZM110.06,27.07c-1.03,0-1.54.5-1.54,1.49v25.81c0,.99.51,1.49,1.54,1.49h5.23c1.02,0,1.53-.5,1.53-1.49v-9.39l8.69,9.89c.51.61,1.02.99,1.76.99h7.62c.97,0,1.31-.94.8-1.65l-11.99-14.28,9.61-11.15c.74-.71.28-1.7-.74-1.7h-7.22c-.68,0-1.36.28-1.93.94l-6.59,8.35v-7.8c0-.99-.51-1.49-1.53-1.49h-5.23ZM140.16,27.07c-1.08,0-1.59.5-1.59,1.49v25.81c0,.99.51,1.49,1.59,1.49h6.59l12.54-16.24v14.75c0,.99.45,1.49,1.53,1.49h5.07c1.08,0,1.59-.5,1.59-1.49v-25.81c0-.99-.51-1.49-1.59-1.49h-6.76s-12.37,16.57-12.37,16.57v-15.08c0-.99-.45-1.49-1.53-1.49h-5.08ZM175.63,27.08c-1.08,0-1.59.49-1.59,1.48v25.81c0,.99.51,1.49,1.59,1.49h5.57c1.08,0,1.53-.5,1.53-1.49v-25.81c0-.99-.45-1.48-1.53-1.48h-5.57ZM191.25,27.08c-1.08,0-1.59.49-1.59,1.48v25.82c0,.99.51,1.49,1.59,1.49h15c10.63,0,13.47-11.8,5-15.71,5.28-4.89,1.76-13.07-6.37-13.07h-13.64ZM248.93,27.08c-1.02,0-1.54.44-1.54,1.48v5c0,1.04.51,1.54,1.54,1.54h6.49v19.27c0,.99.51,1.49,1.59,1.49h5.57c1.08,0,1.53-.5,1.53-1.49v-19.27h6.49c1.02,0,1.53-.5,1.53-1.54v-5c0-1.04-.51-1.48-1.53-1.48h-21.68ZM282.06,27.08c-.88,0-1.45.4-1.69,1.09l-10.21,26.25c-.31.79.15,1.43,1.02,1.43h6.27c.52,0,1.09-.39,1.26-.87l1.38-3.85h10.79l1.38,3.85c.17.48.74.87,1.26.87h6.27c.87,0,1.34-.64,1.03-1.43l-10.22-26.25c-.23-.69-.8-1.09-1.68-1.09h-6.88ZM305.26,27.08c-1.08,0-1.59.49-1.59,1.48v25.82c0,.99.51,1.48,1.59,1.48h5.57c1.08,0,1.53-.49,1.53-1.48v-6.85h4.78c6.71,0,11.82-3.56,11.82-9.98s-5.22-10.46-11.48-10.46h-12.22ZM197.73,33.51h5.4c3.47,0,3.52,4.45,0,4.45h-5.4v-4.45ZM312.36,33.73h4.38c5.85,0,6.25,7.42.11,7.42h-4.49v-7.42ZM285.5,36.08h0l3.03,8.46h-6.07l3.03-8.46ZM197.73,44.06h7.16c4.38,0,4.66,5.38,0,5.38h-7.16v-5.38Z"/>
  <path id="path56" class="cls-2" d="M41.98,0c-2.98,0-5.4,2.35-5.4,5.24v19.24c0,2.9,2.42,5.25,5.4,5.25s5.4-2.35,5.4-5.25V5.24c0-2.9-2.41-5.24-5.4-5.24ZM4.94,25.84c-2.1.17-3.98,1.54-4.67,3.61-.92,2.76.63,5.72,3.47,6.61l18.83,5.95c2.84.9,5.88-.61,6.81-3.37.92-2.76-.63-5.72-3.47-6.61l-18.83-5.94c-.71-.22-1.43-.3-2.13-.24ZM79.02,25.84c-.7-.06-1.42.01-2.13.24l-18.83,5.95c-2.84.9-4.39,3.86-3.47,6.61.92,2.76,3.97,4.26,6.8,3.37l18.83-5.94c2.84-.9,4.39-3.86,3.47-6.61-.69-2.07-2.58-3.43-4.67-3.61h0ZM31.19,52.07c-1.73-.06-3.46.69-4.56,2.16l-11.63,15.57c-1.75,2.35-1.22,5.63,1.2,7.33,2.41,1.7,5.79,1.18,7.54-1.16l11.63-15.57c1.75-2.34,1.21-5.62-1.2-7.32-.9-.64-1.94-.97-2.98-1ZM52.78,52.07c-1.04.03-2.08.36-2.98,1-2.41,1.7-2.95,4.98-1.2,7.32l11.63,15.57c1.75,2.34,5.13,2.87,7.54,1.16,2.41-1.7,2.95-4.99,1.2-7.33l-11.63-15.57c-1.09-1.47-2.83-2.22-4.56-2.16Z"/>
</svg>