<?xml version="1.0" encoding="UTF-8"?>
<svg id="Layer_1" data-name="Layer 1" xmlns="http://www.w3.org/2000/svg" viewBox="0 0 295.66 75.23">
  <defs>
    <style>
      .cls-1 {
        fill: #fff;
      }
    </style>
  </defs>
  <path class="cls-1" d="m85.34,74.69c-.67-.36-1.2-.86-1.59-1.51-.39-.64-.58-1.37-.58-2.18s.19-1.53.58-2.18c.39-.64.91-1.14,1.59-1.51.67-.36,1.43-.54,2.27-.54.71,0,1.35.12,1.92.37.57.25,1.05.61,1.44,1.07l-1.21,1.12c-.55-.64-1.24-.96-2.05-.96-.51,0-.96.11-1.35.33-.4.22-.71.53-.93.93-.22.4-.33.85-.33,1.35s.11.96.33,1.35c.22.4.53.71.93.93.4.22.85.33,1.35.33.82,0,1.5-.32,2.05-.97l1.21,1.12c-.39.47-.87.84-1.45,1.09-.58.25-1.22.37-1.93.37-.83,0-1.59-.18-2.26-.54"/>
  <path class="cls-1" d="m94.31,74.68c-.68-.37-1.21-.87-1.6-1.51-.39-.64-.58-1.36-.58-2.16s.19-1.52.58-2.16c.39-.64.92-1.15,1.6-1.51.68-.37,1.45-.55,2.29-.55s1.61.18,2.29.55c.68.37,1.21.87,1.6,1.51.39.64.58,1.36.58,2.16s-.19,1.52-.58,2.16c-.39.64-.92,1.15-1.6,1.51-.68.37-1.44.55-2.29.55s-1.61-.18-2.29-.55m3.6-1.39c.39-.22.69-.53.92-.93.22-.4.33-.85.33-1.35s-.11-.96-.33-1.35c-.22-.4-.53-.71-.92-.93-.39-.22-.82-.33-1.31-.33s-.92.11-1.31.33c-.39.22-.69.53-.92.93-.22.4-.33.85-.33,1.35s.11.96.33,1.35c.22.4.53.71.92.93.39.22.82.33,1.31.33s.92-.11,1.31-.33"/>
  <polygon class="cls-1" points="115.16 66.92 112.48 75.09 110.45 75.09 108.66 69.56 106.8 75.09 104.78 75.09 102.1 66.92 104.06 66.92 105.9 72.66 107.83 66.92 109.58 66.92 111.45 72.71 113.35 66.92 115.16 66.92"/>
  <path class="cls-1" d="m118.36,74.68c-.68-.37-1.21-.87-1.6-1.51-.39-.64-.58-1.36-.58-2.16s.19-1.52.58-2.16c.39-.64.92-1.15,1.6-1.51.68-.37,1.45-.55,2.29-.55s1.61.18,2.29.55c.68.37,1.21.87,1.6,1.51.39.64.58,1.36.58,2.16s-.19,1.52-.58,2.16c-.39.64-.92,1.15-1.6,1.51-.68.37-1.44.55-2.29.55s-1.61-.18-2.29-.55m3.6-1.39c.39-.22.69-.53.92-.93.22-.4.33-.85.33-1.35s-.11-.96-.33-1.35c-.22-.4-.53-.71-.92-.93-.39-.22-.82-.33-1.31-.33s-.92.11-1.31.33c-.39.22-.69.53-.92.93-.22.4-.33.85-.33,1.35s.11.96.33,1.35c.22.4.53.71.92.93.39.22.82.33,1.31.33s.92-.11,1.31-.33"/>
  <path class="cls-1" d="m132.33,75.09l-1.58-2.28h-1.74v2.28h-1.89v-8.17h3.54c.72,0,1.35.12,1.88.36s.94.58,1.23,1.03c.29.44.43.97.43,1.58s-.15,1.13-.44,1.57c-.29.44-.71.78-1.24,1.01l1.83,2.63h-2.03Zm-.48-6.26c-.3-.25-.73-.37-1.3-.37h-1.54v2.85h1.54c.57,0,1-.12,1.3-.37.3-.25.44-.6.44-1.05s-.15-.81-.44-1.06"/>
  <polygon class="cls-1" points="139.26 71.88 138.17 73.02 138.17 75.09 136.29 75.09 136.29 66.92 138.17 66.92 138.17 70.74 141.78 66.92 143.88 66.92 140.5 70.56 144.08 75.09 141.88 75.09 139.26 71.88"/>
  <rect class="cls-1" x="145.51" y="66.92" width="1.89" height="8.17"/>
  <polygon class="cls-1" points="157.41 66.92 157.41 75.09 155.86 75.09 151.78 70.13 151.78 75.09 149.92 75.09 149.92 66.92 151.48 66.92 155.54 71.88 155.54 66.92 157.41 66.92"/>
  <path class="cls-1" d="m165.45,70.88h1.73v3.31c-.44.33-.96.59-1.54.77-.58.18-1.17.27-1.76.27-.85,0-1.61-.18-2.29-.54s-1.21-.86-1.59-1.51c-.39-.64-.58-1.37-.58-2.18s.19-1.53.58-2.18c.39-.64.92-1.14,1.6-1.51.68-.36,1.45-.54,2.31-.54.72,0,1.36.12,1.95.36.58.24,1.07.59,1.47,1.05l-1.21,1.12c-.58-.61-1.29-.92-2.11-.92-.52,0-.98.11-1.39.33-.4.22-.72.53-.94.92-.23.4-.34.85-.34,1.37s.11.96.34,1.35c.23.4.54.71.94.93.4.22.86.33,1.37.33.54,0,1.03-.12,1.47-.35v-2.39Z"/>
  <path class="cls-1" d="m98.29,38.61c1.41.63,2.49,1.54,3.25,2.71.76,1.17,1.14,2.56,1.14,4.14s-.38,2.96-1.14,4.13c-.76,1.16-1.85,2.06-3.25,2.7-1.41.63-3.06.95-4.97.95h-3.68v5.51h-5.96v-21.09h9.64c1.91,0,3.56.32,4.97.95m-2.56,9.13c.62-.53.93-1.29.93-2.27s-.31-1.75-.93-2.29c-.62-.54-1.55-.81-2.77-.81h-3.31v6.18h3.31c1.22,0,2.15-.27,2.77-.8"/>
  <polygon class="cls-1" points="107.08 37.66 113.05 37.66 113.05 54.02 123.11 54.02 123.11 58.75 107.08 58.75 107.08 37.66"/>
  <path class="cls-1" d="m141.34,54.65h-8.92l-1.66,4.1h-6.09l9.31-21.09h5.87l9.34,21.09h-6.21l-1.66-4.1Zm-1.75-4.4l-2.71-6.75-2.71,6.75h5.42Z"/>
  <polygon class="cls-1" points="155.82 42.39 149.35 42.39 149.35 37.66 168.24 37.66 168.24 42.39 161.79 42.39 161.79 58.75 155.82 58.75 155.82 42.39"/>
  <polygon class="cls-1" points="177.94 42.27 177.94 46.91 187.24 46.91 187.24 51.52 177.94 51.52 177.94 58.75 171.97 58.75 171.97 37.66 188.51 37.66 188.51 42.27 177.94 42.27"/>
  <path class="cls-1" d="m197.26,57.75c-1.78-.94-3.17-2.25-4.19-3.92-1.01-1.67-1.52-3.54-1.52-5.63s.51-3.97,1.52-5.63c1.01-1.67,2.41-2.97,4.19-3.92,1.78-.94,3.78-1.42,6.01-1.42s4.23.47,6.01,1.42c1.78.94,3.17,2.25,4.19,3.92,1.01,1.67,1.52,3.54,1.52,5.63s-.51,3.97-1.52,5.63c-1.01,1.67-2.41,2.97-4.19,3.92-1.78.94-3.78,1.42-6.01,1.42s-4.23-.47-6.01-1.42m8.9-4.28c.86-.5,1.55-1.21,2.05-2.12.5-.91.75-1.96.75-3.15s-.25-2.23-.75-3.15c-.5-.91-1.19-1.62-2.05-2.12-.86-.5-1.83-.75-2.89-.75s-2.03.25-2.89.75c-.86.5-1.55,1.21-2.05,2.12-.5.91-.75,1.96-.75,3.15s.25,2.23.75,3.15c.5.91,1.18,1.62,2.05,2.12.86.5,1.83.75,2.89.75s2.03-.25,2.89-.75"/>
  <path class="cls-1" d="m228.85,53.14h-3.25v5.6h-5.96v-21.09h9.64c1.91,0,3.56.32,4.97.95,1.41.63,2.49,1.54,3.25,2.71.76,1.17,1.15,2.56,1.15,4.14s-.36,2.86-1.07,3.99c-.71,1.14-1.73,2.02-3.06,2.67l4.55,6.63h-6.39l-3.83-5.6Zm2.83-9.97c-.62-.54-1.55-.81-2.77-.81h-3.31v6.18h3.31c1.22,0,2.15-.27,2.77-.8.62-.53.93-1.29.93-2.27s-.31-1.75-.93-2.29"/>
  <polygon class="cls-1" points="262.46 58.75 262.4 47.57 256.98 56.67 254.33 56.67 248.94 47.87 248.94 58.75 243.42 58.75 243.42 37.66 248.33 37.66 255.75 49.83 262.98 37.66 267.89 37.66 267.95 58.75 262.46 58.75"/>
  <path class="cls-1" d="m287.8,54.65h-8.92l-1.66,4.1h-6.09l9.31-21.09h5.87l9.34,21.09h-6.21l-1.66-4.1Zm-1.75-4.4l-2.71-6.75-2.71,6.75h5.42Z"/>
  <path class="cls-1" d="m63.82,6.37C56.85-.18,47.16,0,46.19,0h-26.72c-.51,0-1.32-.07-1.88.5L.46,18.33C.16,18.64,0,19.04,0,19.46v53.5s-.03.63.46,1.13,1.07.5,1.17.5h28.52c.42,0,.83-.17,1.14-.46l14.66-14.81c.77-.77.78-1.72.78-2.46v-13.38c3.42.07,11.54-1.4,17.04-6.3,4.17-3.72,7.17-8.17,7.17-15.18s-3.07-11.82-7.12-15.63m-46.68-.69v50.15c-.14.13-13.87,14.11-13.87,14.11V20.12l13.87-14.44Zm12.35,65.65H6.47l12.05-12.32h23.04l-12.07,12.32Z"/>
</svg>