<?xml version="1.0" encoding="UTF-8"?>
<svg id="Layer_1" xmlns="http://www.w3.org/2000/svg" viewBox="0 0 162.55 76.13">
  <defs>
    <style>
      .cls-1 {
        fill: #fff;
      }

      .cls-2 {
        fill: none;
        stroke: #000;
        stroke-linecap: square;
        stroke-miterlimit: 10;
        stroke-width: 1.48px;
      }
    </style>
  </defs>
  <path class="cls-1" d="M0,39.74c.83.03,1.65.09,2.48.09,11.77,0,23.53-.04,35.3.04,2.23.02,4.47.5,6.68.88.79.14,1.57.52,2.29.91,2.57,1.41,3.63,3.6,3.56,6.52-.07,2.82-1.5,4.63-3.84,5.9-.71.39-1.46.7-2.52,1.2,1.07.35,1.82.57,2.56.85,3.47,1.32,5.6,3.74,5.91,7.51.33,3.95-.78,7.32-4.4,9.43-2.94,1.71-6.21,2.23-9.56,2.24-11.99.03-23.98.01-35.98.02-.83,0-1.65.05-2.48.08v-35.68ZM16.28,66.26c.4.11.61.22.82.22,5.04.01,10.09.03,15.13,0,.58,0,1.18-.19,1.73-.41,1.12-.44,1.55-1.34,1.48-2.51-.07-1.19-.59-1.9-1.86-2.2-.87-.21-1.78-.34-2.67-.34-4.29-.03-8.58-.02-12.87,0-.57,0-1.13.15-1.76.23v5.02ZM16.32,52.54c.42.15.55.25.69.25,4.59.02,9.18.05,13.76.03.59,0,1.19-.18,1.76-.35.96-.29,1.51-.93,1.53-1.97.02-1.06-.52-1.71-1.52-1.94-.72-.17-1.47-.31-2.21-.31-4.14-.03-8.27-.02-12.41,0-.5,0-1,.11-1.61.18v4.11Z"/>
  <path class="cls-1" d="M37.15,0c.39.19.75.44,1.16.55,3.77,1.03,5.74,3.62,6.44,7.32.12.66.25,1.34.26,2.01.08,6.37.53,12.76-.27,19.12-.51,4.08-3.48,7-7.55,7.5-1.92.24-3.89.19-5.82.08-4.3-.24-7.84-3.21-8.08-8.68-.28-6.22-.23-12.47,0-18.7.14-3.93,2-7.86,7.23-8.76.27-.05.51-.29.76-.44,1.96,0,3.93,0,5.89,0ZM35.42,18.5c0-2.56,0-5.11,0-7.67,0-.52.06-1.11-.15-1.55-.2-.41-.7-.87-1.11-.93-.64-.09-1.12.38-1.19,1.09-.04.45-.05.9-.05,1.35,0,5.11,0,10.23,0,15.34,0,.38-.1.82.05,1.11.25.47.62,1.09,1.05,1.21.8.22,1.21-.44,1.34-1.17.09-.51.06-1.05.06-1.57,0-2.41,0-4.81,0-7.22Z"/>
  <path class="cls-1" d="M84.71,0c.47.19.92.43,1.41.56,3.56,1,5.61,3.45,5.78,7.15.1,2.15.02,4.31.02,6.6h-8.65c-1.08-2.13.76-4.84-1.32-6.68-1.51.46-1.35,1.52-1.36,2.48,0,4.96,0,9.92,0,14.88,0,.75-.01,1.5.01,2.25.03.79.23,1.49,1.16,1.71,1.14-.3,1.16-1.24,1.16-2.15.02-1.87,0-3.74,0-5.74h8.92c.04,1.14.1,2.31.1,3.47,0,1.5.03,3.01-.08,4.51-.29,3.93-3.05,6.81-6.93,7.48-2.26.39-4.48.35-6.74,0-3.89-.63-6.53-3.23-6.99-7.16-.22-1.86-.36-3.74-.35-5.61.03-5.11,0-10.22.3-15.31.27-4.55,2.39-6.76,6.91-7.98.27-.07.5-.3.74-.45,1.96,0,3.93,0,5.89,0Z"/>
  <path class="cls-1" d="M111.34,57.66c.14,2.44-.25,4.8-1.14,7.06-1.56,3.93-4.51,6.51-8.25,8.26-3.38,1.58-7,2.36-10.67,2.73-5.34.54-10.71.57-16.05,0-4.35-.46-8.64-1.36-12.48-3.63-4.21-2.48-6.75-6.05-7.49-10.95-.45-3.03-.41-6,.32-8.94,1.45-5.85,5.64-9.04,11.04-10.93,3.28-1.14,6.69-1.78,10.18-1.9,6.48-.21,12.97-.49,19.38.91,3.19.7,6.23,1.75,8.92,3.65,3.96,2.8,5.92,6.7,6.24,11.47.05.75,0,1.5,0,2.26ZM83.32,49.22c-2.24.39-4.43.58-6.5,1.19-3.38.99-5.2,3.38-5.33,6.49-.14,3.4,1.49,6.17,4.74,7.47,4.59,1.83,9.29,1.82,13.88,0,3.37-1.33,4.78-3.79,4.67-7.45-.09-3-1.86-5.42-5.1-6.43-2.05-.64-4.24-.86-6.37-1.27Z"/>
  <path class="cls-1" d="M135.58,51.34c3.42-3.94,6.67-7.69,9.93-11.44h17.05c-.85,1.03-1.55,1.9-2.28,2.74-5.12,5.92-10.21,11.87-15.4,17.74-1.32,1.5-1.98,3-1.88,5.04.17,3.21.05,6.44.05,9.79h-15.9c-.05-.5-.16-1.07-.16-1.63-.02-2.93-.08-5.87.02-8.8.06-1.69-.43-2.96-1.58-4.23-6-6.65-11.91-13.39-17.85-20.1-.09-.11-.13-.26-.25-.5h18.47c3.14,3.66,6.4,7.46,9.78,11.4Z"/>
  <path class="cls-1" d="M103.62,12.79h2.45V.71h9c.46,1.54.57,32.69.09,35.34h-8.98v-13.37c-.87-.08-1.5-.14-2.4-.22-.24,2.39-.09,4.63-.12,6.86-.03,2.17,0,4.34,0,6.81-3.13.1-6.1.05-9.2.03V.73h9.15v12.06Z"/>
  <path class="cls-1" d="M161.68,36.06h-9.48c-.86-3.9-1.71-7.81-2.57-11.71-.18.01-.35.03-.53.04-.16,3.8.04,7.62-.08,11.37-1.69.5-6.5.6-9.19.2V.75h9.18v10.16c.13.05.27.1.4.15.21-.37.51-.72.62-1.12.85-3.03,1.67-6.06,2.53-9.2h9.2c-.26,1.06-.45,2-.72,2.93-1.05,3.6-2.08,7.21-3.2,10.79-.38,1.21-.36,2.34-.08,3.54,1.27,5.4,2.52,10.81,3.76,16.22.12.5.1,1.04.17,1.84Z"/>
  <path class="cls-1" d="M68.29,36.08h-8.21c-1.42-5.51-2.82-10.96-4.22-16.41-.18.03-.35.05-.53.08v16.27c-2.64.27-5.07.18-7.46.09-.44-1.83-.54-32.65-.14-35.37h8.97c1.16,4.98,2.33,10.05,3.51,15.11.17-.01.33-.03.5-.04.17-5-.03-10.01.11-15.11h7.48v35.38Z"/>
  <path class="cls-1" d="M9.55,22.95v13.07H.52V.72c.76-.04,1.42-.11,2.09-.11,3.62-.01,7.24-.03,10.86,0,.89,0,1.8.12,2.68.32,2.81.63,4.43,2.21,4.6,5.08.21,3.73.27,7.5,0,11.23-.25,3.6-2.75,5.64-6.33,5.69-1.5.02-3,0-4.86,0ZM9.7,7.82v7.83c1.38.52,1.91-.22,1.97-1.2.12-1.85.12-3.73.02-5.58-.06-1.08-.73-1.58-1.99-1.05Z"/>
  <path class="cls-1" d="M127.87,10.48c1.23-3.11,1.31-6.41,2.04-9.72h8.26c-.57,2.33-1.1,4.57-1.65,6.8-1.15,4.66-2.34,9.3-3.46,13.97-.28,1.15-.43,2.36-.45,3.55-.06,2.93-.02,5.87-.02,8.8,0,.66,0,1.32,0,2.15h-9.32c0-1.67-.09-3.23.02-4.79.35-5.09-.48-9.98-1.97-14.85-1.47-4.8-2.65-9.69-3.95-14.54-.09-.35-.18-.7-.3-1.16h9.14c.55,3.25,1.11,6.52,1.67,9.79Z"/>
  <g>
    <g>
      <path d="M102.58,50.15s0,.02.02.03c0,0,.01.01.02.02,0,0,.02.02.03.03,0,0,0,.02.02.03.02.01.03.03.05.04.02.02.04.04.06.06l.03.02s.05.03.08.05c.03.02.06.03.09.04,0,0,.02,0,.03,0,.02,0,.03.01.05.02.02,0,.04.02.06.02.01,0,.02,0,.03,0,0,0,0,0,0,0v.02s.03,0,.03,0c.05,0,.1.02.16.04.02,0,.05.01.07.01h.01s.05,0,.07.01c.02,0,.04,0,.05,0,.09.01.17,0,.25,0,0,0,.02,0,.02,0,.04,0,.08-.02.12-.04,0,0,.02,0,.03,0,0,0,.02,0,.03-.01,0,0,.02-.01.03-.02.01,0,.03-.01.05-.03.03,0,.05-.02.07-.04,0,0,.01-.01.02-.02.01,0,.02-.01.03-.02,0,0,.01-.01.02-.02,0,0,0,0,0,0,.02-.01.03-.03.04-.04h0s0-.01,0-.02c.01,0,.02-.02.03-.04.03-.03.05-.06.07-.09,0,0,.01-.02.02-.02.02-.02.03-.05.04-.07,0-.02.02-.03.03-.05.03-.04.05-.09.06-.13,0,0,0-.02.01-.03.01-.03.03-.07.03-.1.02-.03.02-.06.03-.08,0-.02,0-.03.01-.05.02-.04.01-.07,0-.1h0s0-.05,0-.06c0-.03,0-.06,0-.09,0,0,0-.01,0-.02,0-.01,0-.03,0-.04,0-.02,0-.03,0-.04,0-.02,0-.04-.01-.06,0,0,0-.02,0-.02,0-.02-.01-.03-.02-.04,0-.01,0-.02-.01-.03,0-.02-.01-.04-.02-.06,0,0,0-.01,0-.02,0-.02-.02-.04-.03-.05,0,0-.01-.02-.02-.03,0,0,0-.01-.01-.02,0,0,0,0,0-.01,0-.02-.02-.03-.02-.04,0,0,0,0,0-.01,0-.02-.02-.03-.03-.04,0,0,0,0,0,0,0-.01-.02-.03-.04-.04v-.02s-.03-.02-.03-.02c-.02-.01-.03-.02-.04-.04h0s-.06-.07-.1-.08c-.03-.01-.05-.03-.08-.05h0s-.02-.02-.02-.03h0s-.04-.04-.06-.05h-.02s-.07-.04-.12-.03v-.02s-.04,0-.04,0c0,0,0,0-.02,0-.02,0-.03,0-.04,0,0,0,0,0,0,0h-.02s-.01,0-.01,0h-.02s-.02,0-.04,0h0s0,0,0,0h0s0,0,0,.01c0,0,0,0-.01,0h-.01s-.04,0-.04,0c-.03,0-.06.01-.09.02h0s-.01,0-.02,0c-.03,0-.06,0-.09.02-.03.02-.07.03-.11.04-.01,0-.03,0-.04.01-.02,0-.03.01-.04.02,0,0,0,0,0,0,0,0-.03,0-.04.02,0,0,0,0,0,0,0,0-.03,0-.04.02,0,0,0,0-.01,0,0,0-.01,0-.02.01,0,0,0,0,0,0-.01,0-.03,0-.04.02,0,0-.01,0-.01,0-.02,0-.03.01-.04.02,0,0,0,0,0,0,0,0-.01,0-.02.01-.01,0-.02.02-.03.02-.02,0-.03.02-.04.03,0,0,0,0-.01.01-.02.01-.04.03-.06.04-.01.01-.02.02-.03.03-.02.02-.03.03-.05.05h0s0,.01,0,.01c-.01.02-.03.05-.05.07,0,0-.01.01-.02.02-.01.02-.02.03-.03.05,0,.02-.02.03-.03.04h-.01s0,.02,0,.02c0,.02-.01.03-.02.05,0,.02-.01.03-.02.05-.02.05-.04.12-.04.19,0,.02,0,.03,0,.05,0,.04,0,.08,0,.12,0,.05,0,.1,0,.14,0,.03,0,.06,0,.09h0s0,.02,0,.02c0,.02.01.04.01.06,0,.03.01.06.03.09,0,0,0,.02.01.04,0,.01,0,.02.01.04,0,0,0,.02.01.03,0,0,0,0,0,.01,0,.01.02.02.03.03,0,0,0,0,0,0ZM102.91,49.97s-.01-.03-.02-.04c0,0,0,0,0,0,0,0,0-.02-.01-.03h0s-.02-.06-.02-.09c0-.02,0-.03-.01-.05,0-.02,0-.04,0-.06,0-.02,0-.05,0-.08,0-.02,0-.04,0-.05,0,0,0,0,0,0h0s0-.04,0-.06c0-.02,0-.04,0-.05,0-.02,0-.04,0-.06,0-.01.01-.02.02-.03,0,0,0-.01,0-.02.04-.08.08-.15.14-.2,0,0,0,0,0,0,0,0,0,0,.01-.01h0s0-.01,0-.01c.05-.05.11-.09.17-.12.01,0,.02-.01.04-.02,0,0,0,0,0,0,0,0,0,0,0,0v.02s.04,0,.04,0c0,0,0,0,0,0,0,0,.02.02.05.02.07,0,.12-.01.17-.04.02,0,.03-.02.05-.03.02-.01.04-.02.06-.03.01,0,.02,0,.03,0h0s.03.02.04.02l.02.03h.01s.01,0,.02,0c.02,0,.03,0,.05.02,0,0,0,0,0,0,0,.02.02.04.04.05,0,0,.01,0,.02.01,0,0,.01,0,.02.01,0,0,0,.01.01.02,0,0,0,0,0,.01h0s.01.01.01.01c.03.01.04.03.04.04v.02s.02,0,.02,0c0,0,0,0,0,0,0,.01.02.02.02.03.02.03.05.06.05.1,0,.03.02.06.03.09,0,.01,0,.02.01.04,0,.01,0,.03.01.04.01.04.02.09.02.13,0,.04,0,.08,0,.12,0,0,0,0,0,.01,0,.01,0,.03,0,.05,0,.02,0,.03-.01.05,0,.01,0,.02-.01.03,0,.02-.01.03-.02.05,0,.01-.01.03-.02.04,0,0-.01.02-.02.03-.01.01-.03.03-.03.05-.02.01-.03.03-.04.04,0,0,0,.01-.01.02,0,0,0,.01-.01.02-.01.01-.03.02-.05.03-.02,0-.03.02-.05.03-.02,0-.03.01-.04.02,0,0,0,0,0,0-.02,0-.05,0-.07.01-.03,0-.06.01-.09.02-.01,0-.03,0-.04,0-.04,0-.08,0-.11,0-.04,0-.09-.02-.14-.03-.05-.01-.09-.02-.14-.04h-.02s-.04-.02-.06-.03c-.02-.01-.03-.02-.05-.03-.03-.02-.06-.03-.08-.06,0,0-.02-.02-.03-.02,0,0-.02-.01-.02-.02h0s-.02-.04-.04-.05Z"/>
      <path d="M92.53,51.35c.04.05.09.11.15.16.08.07.17.14.28.24.16.13.34.23.59.33.03.01.07.02.1.03.02,0,.04,0,.06.02.02,0,.04.01.06.02.02,0,.03.01.05.02.07.03.15.05.22.07l.06.02c.07.02.14.04.2.06.03,0,.05.02.08.02.08.03.17.05.26.06.06,0,.11.02.17.03.04,0,.09.02.13.02.06,0,.12.01.18.02.03,0,.05,0,.08,0h.05s.09.01.13.01c.02,0,.04,0,.05,0,0,0,.01,0,.02,0,0,0,.01,0,.02,0,0,0,0,0,0,0,.08.03.16.02.24.02.03,0,.05,0,.08,0h.02c.08,0,.16,0,.25-.01.02,0,.04,0,.05-.01.01,0,.02,0,.03,0,.03,0,.06,0,.09,0,.01,0,.03,0,.04,0h.02s.04,0,.06,0c0,0,0,0,.01,0,0,0,.01,0,.02,0,0,0,0,0,0,0l.02.03.08-.06h.09s.03.03.05.03c.04,0,.06-.04.06-.05,0,0,0-.01,0-.02.02,0,.03.01.05,0,.02,0,.03-.02.04-.04,0,0,.02,0,.03,0,.02,0,.03,0,.05-.01.01,0,.03,0,.04-.01,0,0,.01,0,.02,0,.02,0,.05,0,.08-.02v.02s.08-.02.08-.02c.03,0,.07-.02.1-.03.04.04.09.02.11.01,0,0,.01,0,.02,0,.04-.01.08-.02.12-.03.04-.01.09-.03.14-.04.14-.03.27-.06.39-.09.03,0,.06,0,.1-.01.03,0,.07,0,.1-.01.04,0,.07-.02.1-.03.02,0,.04-.01.06-.02.01,0,.03,0,.04,0,0,0,.02,0,.02,0,0,0,.02,0,.02,0,.02,0,.03,0,.05,0,.01,0,.03,0,.03-.01,0,0,0,0,.01,0,0,0,0,0,0,0,0,0,.02.02.05,0,.02,0,.04-.01.06-.02.04-.02.07-.03.11-.03.04,0,.08-.01.11-.03.02-.01.05-.02.06-.02.03,0,.06,0,.09,0,.01,0,.03,0,.04,0,.05,0,.1-.02.14-.04.03-.01.05-.02.08-.03,0,0,.01,0,.02,0,.02,0,.04,0,.07,0,.16-.05.3-.1.44-.16.08-.03.16-.07.24-.1.02,0,.04-.02.06-.02,0,0,0,.02,0,.02-.02.08-.04.16-.06.25-.03.13-.06.26-.1.39-.04.15-.07.31-.1.47-.04.22-.09.46-.13.69-.02.13-.05.26-.07.4-.03.18-.06.36-.1.54-.05.25-.32,1.44-.32,1.44,0,0,2.6.31,3.7.03,1.22-.31,2.39-1.36,2.44-1.41.01-.01.02-.02.03-.03,0,0,0,0,0,.01.02.04.03.09.05.13.07.19.13.38.24.56,0,.01.01.03.02.04.06.19.23.25.36.27h.01s.08.02.14,0c.04,0,.06-.02.09-.04.04-.03.07-.08.09-.12,0-.02.02-.04.03-.05.04-.05-.02-.15-.02-.16-.03-.06-.06-.11-.1-.16-.02-.04-.05-.08-.07-.12l-.04-.07c-.06-.1-.12-.21-.17-.31-.03-.07-.06-.16-.09-.23-.01-.04-.03-.08-.04-.12v-.03c-.03-.06-.05-.11-.07-.17,0-.01,0-.01,0-.03.14-.15.3-.33.42-.54.09-.16.18-.32.22-.51.01-.06.03-.13.05-.19.03-.09.05-.18.07-.28.03-.17.04-.34.05-.55,0-.1,0-.19,0-.29,0-.05,0-.1,0-.14,0-.05,0-.1,0-.15v-.04s.11,0,.11,0c.12,0,.21-.03.29-.09.16-.13.26-.3.3-.53,0,0,0,0,.01,0,.03.02.06.03.1.05.04.02.07.04.11.06.07.04.14.07.21.1.06.02.11.04.17.06.03,0,.05.02.08.03.03,0,.05.02.08.03.05.02.11.04.17.05.14.03.28.05.44.06.04,0,.09,0,.13,0,.06,0,.12,0,.17,0,.1.02.19.02.27,0,.04,0,.07-.01.1-.02.02,0,.04-.01.07-.01.07-.01.14-.02.22-.03.12-.02.25-.06.39-.14.16-.1.29-.2.38-.34.03-.04.06-.08.08-.13.06-.13.11-.23.15-.33.02-.05.05-.12.05-.18,0-.21,0-.45-.12-.67-.07-.14-.15-.28-.26-.4-.11-.11-.22-.19-.34-.24-.05-.02-.09-.04-.14-.06-.07-.03-.15-.07-.22-.1-.05-.02-.1-.03-.16-.04-.02,0-.04-.01-.07-.02,0,0-.01,0-.02,0,0,0,0,0,0,0-.06-.05-.13-.06-.19-.08-.01,0-.03,0-.04,0-.04,0-.08-.02-.11-.03-.07-.02-.13-.03-.2-.05-.1-.02-.19-.04-.29-.05h-.03c-.23-.03-.48-.06-.71-.08-.22-.02-.44-.03-.7-.03-.14,0-.27,0-.42,0-.04,0-.08,0-.13,0h-.02s0,.01,0,.01c0,0-.02,0-.06,0,0,0,0-.01,0-.02,0-.02,0-.04,0-.06,0-.02,0-.04,0-.05,0-.03,0-.06,0-.1,0-.02,0-.04,0-.06,0-.02,0-.04,0-.06,0,0,0-.01,0-.02,0,0,0,0,0-.01.01-.03,0-.05-.01-.06,0,0,0,0,0,0,0-.03-.02-.06-.03-.09,0-.02-.01-.03-.02-.04-.01-.03-.03-.05-.05-.06,0,0,0,0,0,0h0s0,0,0,0c0-.02-.01-.04-.03-.05,0,0,0-.01,0-.02-.01-.02-.02-.03-.04-.04,0,0-.02-.01-.02-.02h0s-.03-.05-.06-.07c0,0-.02-.02-.03-.03-.01-.01-.02-.02-.03-.03-.01,0-.02-.02-.03-.03-.02-.02-.05-.05-.09-.06,0,0-.02,0-.03-.02,0,0-.02-.01-.03-.02-.04-.02-.07-.04-.1-.04,0,0,0,0-.01,0-.01,0-.03-.02-.06-.02,0,0-.02,0-.03-.01h-.02s-.01,0-.01,0c-.02,0-.03,0-.05,0-.01,0-.03-.01-.05-.01-.02,0-.03,0-.05,0-.02,0-.04,0-.06,0-.03,0-.05,0-.08,0-.01,0-.02,0-.04,0-.03,0-.06,0-.08,0,0,0-.02,0-.03,0,0,0,0,0,0,0-.01-.06-.02-.12-.04-.17-.01-.07-.03-.13-.03-.16-.01-.08-.03-.17-.06-.24v-.03c-.06-.17-.11-.34-.17-.51-.03-.08-.06-.16-.1-.24-.02-.03-.03-.07-.05-.1-.13-.31-.35-.54-.57-.75-.02-.02-.04-.04-.07-.06-.08-.07-.16-.15-.24-.22-.13-.11-.27-.22-.42-.33-.05-.03-.09-.07-.14-.1-.15-.12-.31-.24-.48-.35-.15-.1-.31-.19-.49-.28-.17-.08-.35-.16-.52-.23-.05-.02-.09-.04-.14-.06-.07-.03-.16-.06-.24-.09-.14-.04-.27-.06-.39-.09-.28-.06-.53-.08-.76-.09-.36,0-.71.04-1.03.14-.16.05-.33.12-.49.18-.05.02-.11.04-.16.06-.03.01-.05.03-.08.04-.02.01-.03.02-.05.03-.03.02-.07.03-.1.05-.06.03-.12.05-.17.08-.07.04-.14.08-.2.13l-.03.02c-.1.07-.2.14-.29.21-.03.02-.05.04-.07.07v.02s-.04.03-.06.05c-.04.04-.09.09-.13.14-.06.07-.11.15-.16.23-.13.19-.18.41-.21.56-.02.13-.03.27-.02.4.01.19.06.39.14.59.11.28.3.52.44.7v.02c.06.06.11.11.16.17.03.04.07.07.11.11.01.01.02.02.04.03.02.01.03.03.05.04.04.04.09.08.13.12.07.06.14.12.22.18,0,0,.02.01.02.02-.08,0-.17,0-.25-.01-.19,0-.38-.02-.57-.02-.2,0-.42,0-.65.02-.3.02-.7.05-1.1.15-.21.05-.46.11-.7.17-.16.04-.32.1-.45.14h-.03c-.22.09-.45.18-.68.27-.24.1-.47.22-.66.35-.16.11-.3.22-.41.34-.1.11-.19.22-.27.32-.07.09-.14.19-.21.29-.03.04-.05.09-.07.13-.01.02-.02.04-.03.06-.01.02-.02.05-.04.07-.02.04-.05.09-.07.13-.02.05-.05.11-.07.17,0,.03-.01.06-.02.09,0,.04-.02.08-.03.12-.03.06-.03.11-.04.17,0,.02,0,.04,0,.06,0,.06-.02.13-.01.21,0,.09.02.18.04.27.02.08.04.16.07.23.08.19.19.38.36.58ZM96.97,52.01c-.06-.03-.12,0-.17.02h0s0,0,0,0c-.05-.02-.1,0-.14,0-.02,0-.03,0-.05,0-.03,0-.06,0-.1,0-.03,0-.06,0-.09,0-.04,0-.08,0-.12.01h-.08s-.05,0-.05,0c-.02,0-.04,0-.06,0-.02,0-.04,0-.05,0-.07,0-.14,0-.21,0-.1,0-.2,0-.3,0-.06,0-.12,0-.18-.01-.04,0-.08,0-.12,0-.02,0-.04,0-.05,0-.02,0-.04,0-.06,0-.08-.01-.16-.03-.24-.04-.06,0-.12-.02-.18-.03-.04,0-.08-.01-.12-.02-.07,0-.14-.02-.21-.03-.18-.04-.35-.09-.5-.14-.13-.04-.23-.09-.32-.14-.07-.04-.14-.09-.2-.14-.05-.04-.1-.07-.15-.11-.18-.12-.32-.27-.41-.46-.05-.1-.09-.2-.13-.3-.02-.04-.03-.09-.05-.13-.07-.18-.1-.35-.08-.53.02-.18.09-.35.16-.48.14-.28.28-.49.43-.66.14-.16.3-.29.47-.39.07-.04.16-.09.25-.14.07-.03.14-.06.21-.09h.01c.16-.07.31-.13.46-.18.07-.02.14-.05.2-.07.05-.02.1-.03.15-.05.02,0,.04-.02.06-.02.03-.01.05-.02.07-.03.21-.05.44-.11.69-.16h.06c.11-.04.22-.07.34-.08.16-.02.32-.04.47-.06h.08c.11-.02.22-.03.36-.04.03,0,.06,0,.09,0,.03,0,.05,0,.08,0,.04,0,.08,0,.12,0,.07,0,.13,0,.2,0,.17,0,.35.01.57.03h.08c.18.02.36.03.54.05.07,0,.15.02.22.02.12,0,.24.02.36.05.09.02.18.03.26.05.06,0,.13.02.19.03.14.03.27.07.38.1.06.02.12.04.18.07.03.01.05.02.08.03h.03s0-.01,0-.01c.02,0,.04.02.06.03.07.03.13.06.2.09.06.03.13.05.19.07.41.11.86.22,1.3.34.1.02.21.04.33.06.05,0,.12-.03.16-.09.05-.07.07-.15.05-.21,0-.02-.02-.03-.03-.05-.13-.12-.24-.2-.37-.25-.18-.07-.36-.14-.55-.2-.08-.03-.16-.05-.24-.07-.04-.01-.09-.02-.13-.04-.08-.02-.16-.05-.25-.08-.15-.05-.3-.09-.45-.13-.16-.05-.34-.1-.52-.13-.11-.02-.22-.04-.33-.06-.07-.01-.14-.02-.2-.03-.01,0-.03,0-.05,0-.06,0-.12-.02-.17-.04-.07-.04-.15-.09-.21-.14-.02-.01-.04-.03-.05-.04-.15-.11-.3-.22-.44-.32l-.03-.02c-.07-.05-.15-.11-.21-.17-.11-.11-.21-.21-.3-.31-.09-.1-.2-.23-.29-.37-.05-.07-.09-.15-.12-.23-.01-.03-.03-.06-.04-.09-.11-.21-.16-.42-.15-.63,0-.23.07-.43.2-.6.12-.16.27-.29.44-.38.2-.11.37-.2.56-.28.09-.04.18-.07.27-.1.05-.02.1-.03.14-.05.27-.1.57-.16.87-.18.24-.02.48,0,.71.03.04,0,.09.02.13.02.07.01.13.03.2.03.21.02.42.08.67.18.16.06.35.14.53.24.15.08.31.18.48.3.21.15.42.31.62.46l.12.09s.09.08.14.11c.05.04.1.08.15.12.15.11.29.25.4.4.16.21.29.45.43.77.09.22.21.64.28.91,0,0-.02,0-.02.02,0,0-.01,0-.02.01-.02.02-.04.03-.06.03-.02,0-.04.02-.05.04,0,0,0,0-.02.01,0,0-.01,0-.02.02,0,0-.01,0-.02.01-.02.01-.03.02-.05.05,0,0,0,0-.01.01-.01,0-.03.02-.04.04,0,0,0,0,0,0,0,0,0,0-.01,0h0s0,0,0,0c-.01.02-.01.04-.01.06,0,0,0,.02,0,.02,0,.01,0,.03,0,.05,0,0,0,0,0,0,0,0-.01.01-.01.02-.02.01-.03.03-.03.04,0,0,0,.01,0,.02-.02.02-.03.04-.04.06h0s-.01.03-.02.04c-.01.02-.03.04-.04.07-.02.02-.02.04-.03.05,0,.01,0,.02-.01.03-.02.02-.03.05-.03.07,0,0,0,.02,0,.03-.03.07-.04.15-.05.21,0,0,0,.02,0,.03,0,.01,0,.03,0,.04,0,.02,0,.04,0,.06,0,0,0,.01,0,.02h0s0,.05,0,.07c0,.02,0,.04.01.06,0,0,0,.02,0,.02,0,.02,0,.05.02.08,0,.01.01.03.02.03h0s.01.02,0,.02c0,.03.01.05.02.06,0,0,0,0,0,0,0,0,0,0,0,.01,0,.02,0,.03.02.04,0,0,.02.01.02.02.01,0,.01.01.01.01v.02s.01,0,.01,0c0,0,.01.01.02.02,0,0,.01.02.02.03h0c.05.05.11.1.17.14.05.03.09.05.13.07,0,0,0,0,.01.01h0s0,0,0,0c0,0,0,0,.01,0,.01,0,.03,0,.03,0,.02.01.03.02.05.02,0,0,0,0,.01,0h0s0,.01,0,.01c.03,0,.06.01.08.02.06.02.12.03.19.04.02,0,.04,0,.06,0,.02,0,.04,0,.06,0,.04,0,.08,0,.12,0,0,0,.02,0,.03,0,.05,0,.1-.02.15-.04,0,0,.02,0,.03,0,.02,0,.04,0,.06-.02,0,0,.01,0,.02,0,.04-.02.07-.04.1-.05,0,0,.02,0,.02-.01.04-.03.07-.05.12-.08.03-.02.05-.03.08-.05.02-.01.03-.02.04-.04.01-.01.02-.02.03-.03.03-.01.04-.03.06-.05,0,0,0,0,0,0,.09,0,.16,0,.17,0h.01s.07,0,.11,0c.02,0,.05,0,.07.01h0s.04,0,.04,0c.08-.02.16-.03.25-.03.21,0,.42,0,.63,0,.06,0,.12,0,.18,0,.1,0,.2,0,.29,0,.16.01.31.03.45.05h.02c.11.02.22.03.32.06.25.07.47.13.68.2h0c.17.06.35.12.5.22.07.04.13.09.18.15.03.03.04.06.06.1,0,.02.02.04.03.05.09.15.1.32.04.53-.05.14-.16.25-.26.33-.11.09-.26.15-.45.17-.18.02-.41.05-.64.04-.24,0-.44-.03-.61-.09-.17-.06-.34-.14-.53-.22-.12-.05-.23-.11-.35-.16-.08-.04-.16-.07-.24-.11-.12-.05-.25-.03-.35.07-.1.1-.08.21-.04.3.03.07.05.14.06.21,0,.02,0,.04.01.06,0,.01,0,.03,0,.04-.03.06-.11.11-.17.1-.17-.02-.26-.08-.3-.2-.04-.11-.08-.23-.12-.37h0c-.02-.06-.04-.12-.12-.14-.01,0-.03-.01-.05-.02-.02-.01-.04-.02-.07-.03-.05,0-.11.01-.17.06-.05.05-.08.1-.08.16,0,.08.02.15.04.23.02.08.04.16.07.24.01.04.02.08.03.11.03.11.1.2.22.27.03.02.04.04.04.07,0,.11.02.21.02.32,0,.05,0,.1.01.15,0,.03,0,.06,0,.1,0,.07.02.14.01.21-.02.51-.18.97-.46,1.37h0c-.05.07-.09.14-.15.18,0,0-.01-.02-.02-.03-.03-.04-.06-.08-.09-.13-.02-.02-.03-.04-.05-.06-.02-.02-.04-.04-.05-.06-.05-.08,0-.51-.1-.56-.05-.02-.09-.02-.13-.03,0,0-.02,0-.02,0-.02,0-.04,0-.05.01h-.01s-.06.05-.09.07c-.03.03-.41.15-.7.04-.31-.12-.63-.28-.96-.5-.3-.2-.53-.48-.76-.75-.06-.07-.11-.14-.16-.22-.14-.21-.31-.46-.47-.72l-.02-.04c-.05-.07-.1-.15-.12-.22-.04-.11-.39-.18-.4-.16-.03.04-.05.07-.08.1-.03.04-.06.07-.09.11-.1.12-.21.25-.32.37-.05.05-.1.1-.15.14-.03.03-.67.45-.73.48h-.03c-.05.03-.1.05-.16.08-.06.03-.13.05-.19.08-.16.06-.32.12-.48.17h-.04c-.16.07-.32.12-.48.17-.15.04-.3.08-.45.11-.04.01-.09.02-.13.03-.08.02-.17.04-.25.06l-.09.02s-.06.01-.09.02c-.04,0-.07.02-.11.02-.01,0-.02,0-.03,0-.02,0-.03.01-.05.01-.03,0-.06,0-.08.03,0,0,0,0,0,0-.03-.02-.07-.01-.11.01,0,0-.01,0-.02,0-.08-.02-.14,0-.2.04ZM105.11,53.7h0s0,.05-.02.08c0,0,0,.01-.01.02,0,0-.01.02-.02.03,0,0,0,.01,0,.02-.01.02-.03.05-.04.07-.03.05-.05.11-.09.15-.31.41-.64.71-1.02.93-.17.1-.32.15-.46.18-.08.01-.15.03-.22.05-.03,0-.06.02-.1.03-.04,0-.08.02-.11.03-.08.02-.16.05-.24.06-.19.02-.39.04-.58.05h-.1s-.02,0-.04-.02c-.03-.03-.05-.05-.07-.08-.03-.04-.07-.07-.1-.11h0c-.12-.12-.25-.24-.38-.34-.06-.05-.12-.08-.18-.12-.04-.02-.08-.05-.12-.08-.03-.02-.06-.04-.08-.05-.07-.04-.14-.09-.19-.15-.02-.03-.05-.05-.07-.08-.03-.03-.06-.06-.08-.09-.02-.03-.05-.06-.07-.09-.09-.12-.18-.24-.25-.37-.06-.11-.1-.23-.15-.35-.01-.03-.02-.06-.04-.1-.02-.06-.03-.11-.02-.14.01-.11.03-.22.05-.33,0-.03,0-.05.01-.08,0,0,0,.01,0,.02.02.05.03.09.05.14.09.18.23.33.37.46.11.11.24.21.35.32.06.05.12.11.18.16.16.15.35.24.56.34.1.05.21.11.3.17.04.02.07.04.11.06.03.02.05.03.08.05.04.02.07.05.11.07.06.03.11.06.17.08.06.03.13.06.19.09.13.07.27.11.41.14.05.01.1.02.16.02.04,0,.08,0,.11.01.18.03.35.02.51-.04.17-.06.28-.18.35-.35.06-.15.13-.25.24-.33.18-.14.25-.39.17-.58,0-.02-.02-.05.02-.09,0-.01.02-.02.03-.03.06-.05.15-.05.23,0,.06.03.08.09.1.15ZM105.78,47.37s0,.02,0,.02l.02.02s.05.07.07.11c0,0,0,0,0,0,0,.01,0,.03,0,.04.02.03.02.07.02.11,0,.01,0,.02,0,.04,0,.02,0,.04,0,.07,0,.02,0,.03,0,.05,0,.03,0,.06-.01.09,0,0,0,.02,0,.02,0,.03-.02.06-.02.1-.01.02-.02.04-.02.06,0,.02-.01.04-.03.05-.01,0-.02.02-.02.03-.02.03-.04.06-.07.1h0s-.05.06-.08.08c0,0,0,0,0,0,0,0-.01.01-.02.02,0,0,0,0,0,0-.02.02-.05.05-.08.06-.01,0-.02,0-.04.01-.03.01-.06.03-.1.02h-.01s-.01,0-.01,0c-.02.01-.04,0-.07,0-.01,0-.02,0-.03,0-.01,0-.02,0-.03,0-.02,0-.04-.01-.06-.01,0,0-.01,0-.02,0-.02,0-.03,0-.05-.01-.01,0-.03,0-.04-.01,0,0-.02,0-.03-.01-.02,0-.04-.02-.06-.02,0,0-.01-.01-.02-.02-.03-.01-.05-.03-.08-.04h0s-.06-.04-.09-.07c-.02-.02-.04-.04-.06-.06v-.02s-.02-.01-.02-.01c0,0-.01,0-.01,0,0,0,0-.01-.01-.02,0-.01,0-.02-.02-.04,0,0-.01-.02-.02-.02-.01-.01-.02-.03-.03-.04,0,0,0-.02-.01-.02,0,0,0-.01,0-.02,0-.03,0-.05-.01-.07,0-.02-.01-.04-.01-.06h0c0-.08-.02-.15,0-.22.02-.06.04-.12.08-.17.02-.03.04-.05.07-.07h.01s0-.03,0-.03c0,0,0,0,.01-.01,0,0,.01,0,.02-.01.01,0,.02-.02.03-.03,0,0,0-.01.01-.01.02-.01.04-.03.06-.04,0,0,0,0,.01,0,.01,0,.03,0,.04-.02.01-.01.03-.02.05-.03h0c.06-.03.12-.05.19-.06.04,0,.08-.01.11-.02h.06s0-.02,0-.02c0,0,0,0,0-.02.02,0,.04,0,.06,0,.01,0,.02,0,.03,0,0,0,.01,0,.02,0,0,0,.02,0,.02,0,.04,0,.07.03.11.05,0,0,.01.01.02.02.02.02.04.03.07.04,0,0,.02.02.02.03.01.02.03.04.05.06ZM105.79,48.73h0s0,0,0,0h0Z"/>
      <path d="M103.33,49.57h0s0-.02,0-.03c0-.03.01-.07.05-.1.01-.01.02-.03.02-.03h0s0-.02,0-.02c.03-.04.06-.05.09-.06.02,0,.03-.01.05-.02h.01s.02,0,.02,0c0,0,0,0,.01,0,0,0,.01,0,.02,0,0,0,0,0,.01,0,.02,0,.04,0,.06,0,.06.02.11.05.15.09.02.02.03.04.03.07,0,.03,0,.06,0,.09,0,.01,0,.02,0,.04,0,0,0,.02,0,.02,0,0,0,.01,0,.01,0,.03,0,.05-.02.07h0s-.01.03-.01.04v.03s-.03,0-.03,0c-.01,0-.02,0-.04.02,0,0-.02.02-.03.02h0s-.01,0-.01,0c0,0-.02,0-.02,0-.02,0-.03,0-.04,0-.02,0-.04,0-.07-.01,0,0,0,0-.01,0-.02,0-.02-.01-.03-.01-.01,0-.03,0-.04-.02,0,0,0,0,0,0,0,0,0,0-.01,0h-.02s-.02-.03-.02-.03c-.03-.04-.06-.08-.07-.13h0Z"/>
      <path d="M105.68,47.64h0s0,.02,0,.02c0,0,0,0,0,0,0,.03,0,.06,0,.09,0,0,0,.01,0,.02,0,0,0,.01,0,.02,0,.01,0,.02,0,.03,0,0,0,.01,0,.02,0,.02,0,.03-.01.03,0,0,0,0,0,0-.03.04-.06.07-.1.1,0,0,0,0,0,0-.03.02-.05.03-.08.03-.04.01-.08,0-.12,0-.02,0-.04,0-.05,0h-.01s0,0,0,0c-.03-.03-.06-.04-.09-.06h-.03s0-.03,0-.03c0,0,0,0,0-.01-.01-.02-.02-.04-.04-.05-.02-.01-.04-.03-.04-.06,0,0,0,0,0-.01,0-.01-.01-.04,0-.06h0s0-.01,0-.01c0,0,.01-.01.01-.02-.01,0-.02-.01-.03-.03h0s0-.02,0-.02c0,0,0,0,0,0-.02-.04,0-.07.01-.09v-.02s.03,0,.03,0c0,0,0,0,0,0,.03-.02.06-.04.1-.06.01,0,.02,0,.03-.02.04-.02.08-.02.11-.02.01,0,.02,0,.03,0,.02,0,.04,0,.05,0,0,0,.01,0,.02,0,.01,0,.02,0,.03,0,0,0,.02,0,.03,0,.02,0,.04,0,.05.02,0,0,.01,0,.02,0,0,0,0,0,0,0,0,0,0,0,0,0h0s0,0,0,0c.04.03.06.06.09.1l.02.03Z"/>
    </g>
    <path d="M101.42,55.66s-.01.08-.02.12c-.01.08-.03.16-.03.25,0,.12,0,.24,0,.36v.08s0,.09.01.14c0,.06,0,.13,0,.19,0,.01,0,.12-.06.15-.02,0-.03.02-.05.03-.04.03-.08.05-.13.06-.03,0-.06,0-.09,0-.05-.02-.09-.04-.12-.07h-.01c-.11-.1-.23-.22-.19-.42,0-.01,0-.03,0-.04-.01-.21.02-.4.05-.61,0-.04.01-.09.02-.14"/>
  </g>
  <path class="cls-2" d="M35,42.88c-13.45,2.05-28.65,12.44-29.23,19.52-.22,2.66.98,5.58,5.06,7.27,2.72,1.13,6.3,1.54,9.75,1.88,16.16,1.59,32.67,2.27,49.12,2.03,4.5-.07,9.19-.23,13.11-1.34,8.69-2.47,7.61-6.72,14.54-13.73"/>
</svg>