<?xml version="1.0" encoding="UTF-8"?>
<svg id="Layer_1" xmlns="http://www.w3.org/2000/svg" viewBox="0 0 222.73 135.1">
  <defs>
    <style>
      .cls-1 {
        fill: #fff;
      }
    </style>
  </defs>
  <path class="cls-1" d="M52.2,51.38c-.62.7-1.29.98-2.17,1.06-4.77.42-9.33-.5-13.8-2.04-1.72-.59-2.2-1.93-1.32-3.55.54-1.01,1.26-1.92,1.88-2.89.85-1.33,1.71-2.66,2.52-4.02,1.84-3.11-.2-7.2-3.96-7.93-.85-.17-1.64-.01-2.25.64-.71.77-1.41,1.57-2.06,2.39-2.56,3.23-5.1,6.47-7.64,9.71-2.38,3.03-5.19,5.63-8.08,8.15-1.16,1.01-2.35,1.97-3.46,3.03-1.45,1.39-3.24,2.07-5.13,2.42-1.61.29-3.04-.33-4.13-1.55-3.62-4.04-3.45-10.06.41-13.91.74-.74,1.55-1.46,2.45-1.98,2.28-1.3,4.62-2.48,7-3.75.2.41.32.65.53,1.06-.94.54-1.83,1.09-2.75,1.57-1.86.98-3.82,1.78-5.47,3.15C1.02,46.05,0,51.98,3.7,55.99c1.27,1.37,2.57,1.73,4.28.87,1.79-.9,3.63-1.85,5.13-3.14,2.68-2.31,5.23-4.79,7.64-7.38,3.09-3.33,5.89-6.93,8.48-10.68.56-.81,1.22-1.56,1.6-2.65-.46-.07-.78-.19-1.08-.16-2.62.24-5.23.51-7.85.75-1.09.1-2.2.25-3.23-.35-.52-.31-.95-.65-1.06-1.29.18-.7.77-.96,1.37-1.11,3.25-.78,6.51-1.58,9.78-2.25.75-.15,1.63.04,2.39.28,1.47.46,2.65.13,3.59-1.04.6-.75,1.18-1.52,1.67-2.34,2.45-4.09,5.92-7.27,9.24-10.59.67-.67,1.47-.5,2.28-.59.23,1.03.07,1.86-.59,2.6-1.53,1.71-2.98,3.51-4.6,5.14-1.68,1.7-3.5,3.27-5.3,4.85-1.23,1.08-1.4,1.27-1.67,2.71.9-.39,1.72-.72,2.52-1.09,3.97-1.81,7.92-3.66,11.41-6.33,3-2.29,5.61-4.94,7.66-8.1.69-1.07,1.22-2.28,1.62-3.5.76-2.34-.04-4.37-2.09-5.74-1.44-.96-3.06-1.31-4.76-1.41-2.66-.16-5.27.22-7.81.95-5.94,1.71-11.54,4.16-16.44,8-1.65,1.3-3.37,2.57-4.53,4.37-.51.79-1.01,1.67-1.2,2.57-.41,2,.59,3.57,2.59,4.43.63.27,1.26.54,1.88.82-.02.12-.05.24-.07.36-.64.02-1.31.17-1.91.03-3.67-.83-5.42-4.84-3.27-7.49,1.09-1.34,1.94-2.88,3.15-4.09,1.3-1.31,2.83-2.43,4.36-3.49,6.15-4.25,12.88-7.15,20.28-8.39,2.63-.44,5.25-.47,7.78.5.93.35,1.88.79,2.64,1.41,2.26,1.85,2.87,4.45,1.8,7.42-1.32,3.63-3.51,6.64-6.42,9.21-3.41,3.01-7.28,5.28-11.31,7.31-1.75.88-3.5,1.76-5.67,2.86.52.32.86.48,1.16.71.63.51,1.28,1.01,1.85,1.59,1.95,1.95,2.42,4.11,1.12,6.55-1.17,2.19-2.58,4.26-3.98,6.31-1.22,1.77-1.08,2.39.99,2.83,3.56.75,7.12,1.46,10.69,2.14.87.17,1.61.51,2.36,1.01ZM21.17,32.07c1.96.87,8.24.29,10-.92-2.26-1.47-7.64-.97-10,.92Z"/>
  <path class="cls-1" d="M100.18,31.11c-1,.65-2,1.3-2.99,1.96-4.48,2.95-8.94,5.93-13.45,8.84-.87.56-1.87.98-2.86,1.29-2.18.68-3.91-.62-3.72-2.91.15-1.79.56-3.59,1.05-5.33.92-3.26,2.64-6.16,4.52-8.94,2.69-3.97,5.64-7.75,9.2-10.99,4.21-3.84,8.89-6.97,14.21-9.07,1.21-.48,2.44-.81,3.77-.79,2.19.03,3.5,1.14,3.69,3.35.09,1.04.02,2.11-.07,3.15-.04.45-.04.75.63.93.91-1.03,1.9-2.11,2.84-3.22.68-.8,1.3-1.65,1.94-2.49.44-.57.94-.94,1.7-.66.39.76,0,1.27-.43,1.83-3.4,4.51-6.8,9.02-10.16,13.56-5.19,7-10.36,14.02-15.51,21.04-.39.53-.62,1.16-1.07,2,1.85-.56,3.44-1.04,5.02-1.52.49-.15.99-.43,1.49.17-.51.89-1.36,1.3-2.23,1.64-1.51.6-3.03,1.2-4.57,1.71-1.25.42-2.12,1.24-2.84,2.3-3.07,4.51-6.13,9.03-9.24,13.52-3.32,4.8-6.66,9.6-10.07,14.34-1.11,1.55-2.46,2.93-3.73,4.36-2.06,2.33-4.09,4.69-6.24,6.93-1.15,1.2-2.52,2.21-3.83,3.24-.89.7-1.48.57-2.17-.38-.81-1.12-1.18-2.38-1.29-3.75-.16-2.11.41-4.07,1.14-6.01,2.08-5.48,5.13-10.36,8.89-14.84,4.86-5.8,10.43-10.81,16.73-14.99,2.76-1.83,5.69-3.37,8.7-4.73,1.27-.57,2.23-1.41,2.99-2.58,1.8-2.77,3.65-5.51,5.51-8.24.83-1.23,1.71-2.42,2.58-3.63.23-.32.51-.62-.14-1.09ZM90.1,33.76c1.39.87,2.44.31,3.39-.48.92-.76,1.79-1.59,2.65-2.42,4.3-4.17,8.58-8.34,12.86-12.53,1.4-1.37,2.39-3.02,2.78-4.94.27-1.34.44-2.75.37-4.12-.1-1.93-1.52-2.88-3.39-2.47-.65.14-1.3.34-1.94.53-5.48,1.68-10.01,4.91-14.22,8.68-5.88,5.26-10.3,11.56-13.21,18.89-.47,1.17-.73,2.49-.79,3.75-.07,1.32.38,2.57,1.96,3.04,3.4-.97,6.29-2.8,8.71-5.42-.29-1.46-.74-2.79.1-4.13.97-1.55,2.03-2.24,3.39-1.94-.89,1.19-1.77,2.37-2.65,3.55ZM56.49,90.06c.5-.31,1.1-.55,1.54-.96,1.87-1.72,3.79-3.39,5.51-5.25,2.53-2.74,5.01-5.54,7.31-8.47,6.34-8.07,11.73-16.8,17.4-25.33.32-.47.54-.96.43-1.74-.83.46-1.56.8-2.24,1.24-2.53,1.65-5.05,3.31-7.55,5-4.57,3.09-8.87,6.5-12.54,10.67-3.7,4.2-6.73,8.82-9.19,13.83-1.4,2.86-1.88,5.9-1.94,9.04-.01.83.2,1.51,1.25,1.97Z"/>
  <path class="cls-1" d="M188.15,30.55c-1.18-.12-2.37-.25-3.55-.36-1.52-.13-2.65.53-3.6,1.7-2.85,3.5-5.98,6.74-9.72,9.31-3.54,2.43-7.33,4.35-11.43,5.63-.85.27-1.78.37-2.68.39-1.01.03-1.57-.53-1.78-1.52-.03-.14-.04-.29-.05-.43-.03-.86.09-1.76-.13-2.56-.22-.81-.78-1.52-1.21-2.29.3-1.38,1.17-2.38,2.14-3.41.19.13.37.25.52.35-.09,1.03-1,1.8-.7,2.92.77-.08,1-.64,1.28-1.11.88-1.48,1.71-3,2.63-4.45,2.72-4.29,6.36-7.63,10.73-10.19.99-.58,1.99-1.2,3.3-.74.75,1.11.89,2.3.39,3.62-1.15,3.07-3.19,5.42-5.68,7.45-2.39,1.95-5.11,3.38-7.77,4.89-.75.43-1.49.87-2.2,1.36-1.48,1.01-1.8,1.97-1.35,3.91,1.11.68,2.34.79,3.52.21,4.26-2.09,8.58-4.1,12.27-7.15,1.84-1.52,3.45-3.31,5.14-5.01.71-.71,1.35-1.49,2.02-2.24.74-.82,1-1.71.53-2.77-.7-1.55-.34-2.97.53-4.36,1.03-1.65,2.28-3.07,3.91-4.15.58-.38,1.16-.68,1.88-.41.63.6.53,1.28.21,1.98-.86,1.87-1.73,3.74-2.59,5.61-.19.42-.37.85-.63,1.46,2.39.02,4.54.33,6.7,1.29-.35,1.32-.56,2.64-1.6,3.61-1.71,1.6-3.46,3.17-5.16,4.79-1.98,1.88-3.93,3.8-5.87,5.71-.18.18-.24.47-.44.89.51.06.88.18,1.21.12,1.13-.21,2.28-.37,3.35-.75,3.02-1.08,6-2.28,9.01-3.38,1.53-.56,2.37-1.65,2.92-3.13.71-1.93,1.42-3.87,2.35-5.7,1.21-2.38,2.92-4.38,5.4-5.58,2-.97,3.97-.84,5.98-.04,2.99,1.19,3.16,4.77.77,6.46-1.64,1.16-3.28,2.33-5.01,3.35-1.85,1.1-3.78,2.08-5.72,3.02-1.72.84-2.83,2.16-2.14,5.02.7,2.88,4.04,5.55,7.38,4.56,2.1-.63,4.21-1.25,6.44-1.9-.05.28,0,.65-.16.84-.52.6-1.05,1.26-1.72,1.68-1.4.88-3.02,1.19-4.65,1.33-.86.07-1.72.04-2.59.04-2.07-.02-3.68-.95-4.88-2.59-.97-1.33-1.65-2.8-2.04-4.41-.15-.63-.36-1.25-.57-1.98-1.5.47-2.86.89-4.22,1.31-3.43,1.05-6.87,2.1-10.3,3.16-.85.26-1.67.32-2.51.03-.44-.91-.2-1.65.36-2.31,1.08-1.28,2.13-2.6,3.29-3.8,2.4-2.48,4.88-4.88,7.31-7.33.49-.5.91-1.06,1.37-1.59-.07-.11-.14-.21-.21-.32ZM196.34,38.04c3.41-1.66,6.77-3.06,9.63-5.36.74-.6,1.43-1.29,2.05-2,.71-.82.69-1.52-.03-2.31-.86-.95-1.97-1.44-3.22-1.2-2,.4-3.84,1.17-5.24,2.75-1.25,1.41-2.24,2.98-2.82,4.78-.32.99-.66,1.99-.37,3.33ZM172.87,25.96c-1.31.17-2.31.56-3.27,1.1-2.97,1.66-5.4,3.97-7.56,6.53-1.16,1.37-2.01,3.01-2.96,4.55-.15.24-.13.58-.22,1.06.63-.27,1.07-.45,1.49-.65,3.44-1.63,6.54-3.79,9.28-6.41,1.34-1.28,2.57-2.73,3.07-4.6.13-.47.12-.98.18-1.57Z"/>
  <path class="cls-1" d="M108.97,47.12c2.01.07,3.52-1.14,5.12-2.05,5.73-3.29,11.42-6.65,17.17-9.92,1.28-.73,2.68-1.23,4.04-1.82.74-.32,1.3-.08,1.62.68-.07.72-.63.92-1.18,1.08-3.39,1.01-6.4,2.8-9.34,4.7-4.97,3.2-10.25,5.8-15.56,8.37-1.08.52-2.19.61-3.35.34-.56-1.14-.54-2.25.01-3.33,1.47-2.9,2.85-5.86,4.48-8.67,1.15-1.98,2.62-3.77,4.03-5.59,2.98-3.86,5.93-7.76,9.05-11.52,3.03-3.65,6.3-7.1,9.97-10.12,3.18-2.61,6.46-5.1,9.72-7.61,1.31-1,2.73-1.77,4.48-1.66,1.76.11,3.08,1.7,2.81,3.46-.3,1.98-1.19,3.73-2.23,5.41-2.25,3.65-5.3,6.55-8.82,8.94-5.83,3.95-11.71,7.81-17.61,11.66-.78.51-1.73.8-2.64,1.05-2.89.8-5.25,2.34-6.89,4.86-2.13,3.25-3.99,6.65-5.17,10.38-.22.69-.21.69.28,1.35ZM118.28,29.85c.75.63,1.21.2,1.63-.04,2.82-1.63,5.66-3.22,8.42-4.95,5.32-3.34,10.3-7.16,15.02-11.29,2.02-1.77,3.84-3.75,5.22-6.08.58-.99,1.13-2.02,1.51-3.09.53-1.52-.22-2.41-1.66-1.98-2.15.64-4.37,1.23-6.18,2.63-2.69,2.08-5.4,4.14-7.9,6.43-4.57,4.17-8.79,8.68-12.52,13.63-1.17,1.56-2.33,3.13-3.54,4.74Z"/>
  <path class="cls-1" d="M135.88,95.04c-1.15-2.81-2.25-5.49-3.35-8.17-.06.02-.12.03-.18.05v8.04c-.55.04-1.05.07-1.52.1-.34-1.04-.43-9.73-.14-11.85h2.15c1.19,3,2.38,6.01,3.66,9.23,1.28-3.21,2.48-6.21,3.7-9.26h2.03c.32.95.42,9.57.12,11.77h-1.65c-.16-2.67,0-5.35-.21-8.07-1.1,2.68-2.21,5.36-3.33,8.09-.41.02-.78.05-1.27.07Z"/>
  <path class="cls-1" d="M117.43,134.68h-1.6c-.3-1.01-.38-9.88-.09-11.79h2.11c.58,1.44,1.21,2.98,1.82,4.52.6,1.5,1.19,3.01,1.86,4.72,1.29-3.22,2.49-6.22,3.7-9.27h2.04c.31,1,.39,9.8.1,11.78h-1.64c-.15-2.67-.02-5.33-.21-8.06-1.11,2.68-2.22,5.36-3.34,8.08h-1.29c-1.09-2.65-2.19-5.34-3.29-8.02-.06,0-.11,0-.17.01v8.02Z"/>
  <path class="cls-1" d="M152.57,103.03h2.2v11.8c-.51.03-1.01.05-1.7.08-.16-2.77-.01-5.47-.21-8.2-1.1,2.68-2.2,5.36-3.33,8.09-.4.03-.76.07-1.26.11-1.13-2.74-2.25-5.46-3.37-8.18-.07.01-.14.03-.21.04v8.05h-1.69v-11.75h2.21c1.18,2.97,2.37,5.98,3.66,9.22,1.28-3.21,2.48-6.2,3.7-9.25Z"/>
  <path class="cls-1" d="M158.32,94.97h-1.63c-.31-.96-.41-9.56-.11-11.8.47-.03.98-.06,1.62-.09,1.75,2.75,3.5,5.52,5.26,8.28.1-.02.19-.04.29-.06v-8.12h1.7c.32,1.13.35,10.4.03,11.8h-1.68c-1.72-2.72-3.5-5.53-5.47-8.64v8.64Z"/>
  <path class="cls-1" d="M92.08,69.74v5.08h-1.72v-11.7c.29-.05.6-.15.92-.15,1.39-.01,2.78-.06,4.16.01,2.24.12,3.52,1.64,3.31,3.8-.09.94-.67,1.55-1.33,2.11.39.58.91,1.11,1.12,1.74.22.65.13,1.41.22,2.12.08.66.22,1.3.35,2.06h-1.79c-.12-.38-.31-.85-.4-1.34-.07-.37-.06-.77-.02-1.14.18-1.66-.83-2.74-2.58-2.59-.66.06-1.33,0-2.24,0ZM92.19,64.28v4.14c.69,0,1.31,0,1.92,0,.29,0,.58.02.86-.02,1.39-.2,1.99-.88,1.93-2.19-.05-1.18-.74-1.85-2.05-1.93-.85-.05-1.71,0-2.66,0Z"/>
  <path class="cls-1" d="M146.44,69.74v5.09h-1.71v-11.72c.32-.05.63-.14.95-.14,1.39-.01,2.78-.06,4.16.02,2.24.13,3.51,1.67,3.29,3.82-.1.94-.69,1.54-1.43,2.18,1.29.9,1.5,2.2,1.46,3.65-.02.7.2,1.4.32,2.19h-1.78c-.12-.41-.32-.88-.4-1.37-.07-.47-.02-.95-.03-1.43-.05-1.56-.72-2.23-2.3-2.27-.76-.02-1.52,0-2.52,0ZM146.52,68.47c1.17-.06,2.22-.02,3.24-.21,1.2-.22,1.57-.84,1.52-2.05-.05-1.04-.56-1.74-1.63-1.86-1.02-.12-2.06-.03-3.13-.03v4.14Z"/>
  <path class="cls-1" d="M122.58,102.99c1.66,0,3.24-.15,4.78.04,1.89.23,3.26,1.36,3.84,3.22.54,1.72.53,3.5.04,5.23-.58,2.06-2.32,3.36-4.45,3.42-1.37.04-2.75,0-4.21,0v-11.91ZM124.41,104.28v9.3c.78,0,1.5.08,2.19-.02,1.43-.21,2.46-.96,2.84-2.44.37-1.46.37-2.92,0-4.38-.37-1.48-1.4-2.23-2.84-2.45-.69-.1-1.41-.02-2.19-.02Z"/>
  <path class="cls-1" d="M89.51,128.79c.23-1.15.29-2.37.71-3.45.82-2.11,2.55-3.02,4.94-2.82,1.91.16,3.68,1.69,4.12,3.65.4,1.75.43,3.52-.02,5.25-.49,1.87-2.1,3.94-5.44,3.61-2.11-.21-3.93-2.16-4.1-4.49-.04-.57,0-1.15,0-1.72-.07-.01-.14-.02-.2-.04ZM97.59,128.88c-.04-.84-.02-1.57-.11-2.28-.2-1.56-1.41-2.71-2.83-2.78-1.34-.06-2.46.78-2.84,2.35-.44,1.78-.42,3.6.03,5.39.19.77.64,1.39,1.35,1.79,1.73.98,3.87-.08,4.26-2.15.15-.79.11-1.62.15-2.31Z"/>
  <path class="cls-1" d="M116.9,66.38c-.35-1.03-.73-1.92-1.88-2.22-1.39-.37-2.59.05-3.29,1.31-.14.25-.26.52-.33.79-.4,1.6-.32,3.22-.12,4.84.27,2.19,2.95,3.88,5.43,1.92v-2.62c-.77-.05-1.52-.09-2.39-.14-.03-.36-.06-.7-.11-1.25h4.4c0,1.45.06,2.78-.04,4.1-.03.4-.4.86-.75,1.14-3.01,2.37-7.67.75-8.4-3-.33-1.68-.34-3.44.12-5.13,1.05-3.88,5.29-4.14,7.53-2.64.92.61,1.44,1.5,1.49,2.63q-.65.4-1.67.28Z"/>
  <path class="cls-1" d="M144.95,83.19h1.76c.03.55.07,1.01.08,1.48,0,2.2.02,4.41,0,6.61,0,1.04.31,1.9,1.27,2.39,1.06.55,2.13.45,3.14-.16.77-.47,1.02-1.21,1.01-2.09-.02-2.2,0-4.41,0-6.61,0-.51,0-1.02,0-1.62h1.83c.05.35.15.71.15,1.08.01,2.16.02,4.31,0,6.47-.02,1.71-.42,3.25-2.14,4.07-1.81.85-3.63.83-5.37-.15-1.07-.6-1.68-1.61-1.7-2.84-.05-2.82-.01-5.65-.01-8.63Z"/>
  <path class="cls-1" d="M138.7,122.91c.07.12.16.2.16.28,0,2.77.03,5.55-.06,8.32-.06,1.89-1.32,2.93-3.02,3.38-1.16.31-2.38.28-3.54-.14-1.55-.57-2.48-1.67-2.52-3.32-.06-2.73,0-5.46,0-8.19,0-.08.07-.17.16-.34h1.57c.03.45.09.86.09,1.27,0,2.25-.01,4.51.01,6.76.02,2.18,1.61,3.28,3.69,2.59,1.19-.39,1.68-1.02,1.69-2.34.03-2.2,0-4.41,0-6.61,0-.52,0-1.03,0-1.66h1.76Z"/>
  <path class="cls-1" d="M92.05,88.1c.82.31,1.2.05,1.57-.41.89-1.13,1.81-2.23,2.72-3.34.33-.4.68-.8,1.01-1.2h1.98c-1.38,2.08-3.06,3.69-4.47,5.68,1.56,1.97,3.12,3.94,4.88,6.15-.86.04-1.44.07-2.15.1-1.05-1.33-2.12-2.67-3.18-4.01-.27-.34-.54-.67-.8-1.01-.37-.49-.83-.56-1.51-.29v5.21c-.63.03-1.12.05-1.78.08-.13-4-.04-7.89-.07-11.85.38-.05.61-.1.83-.1.28,0,.55.05.96.1v4.9Z"/>
  <path class="cls-1" d="M140.96,131.49h1.46c.9,1.96,2.52,2.7,4.26,1.97.66-.28,1.12-.7,1.17-1.48.05-.76-.07-1.48-.8-1.86-.67-.35-1.41-.56-2.11-.86-.87-.37-1.82-.66-2.58-1.19-1.55-1.08-1.61-3.21-.24-4.5,1.68-1.59,5.11-1.48,6.69.21.59.63.74,1,.82,2.24-.49.03-.99.06-1.54.09-.33-1.01-.71-1.9-1.86-2.19-.8-.2-1.53-.12-2.22.22-1.35.67-1.23,2.52-.11,3.02.65.29,1.33.53,1.99.8.75.3,1.54.53,2.24.93,1.24.71,1.75,1.84,1.58,3.27-.17,1.36-1.03,2.14-2.23,2.54-1.81.61-3.59.48-5.23-.57-.89-.57-1.47-1.36-1.27-2.66Z"/>
  <path class="cls-1" d="M204.86,95.06c-.42-1.14-.78-2.12-1.15-3.11h-4.72c-.37.98-.74,1.95-1.14,3.01h-1.84c1.48-3.99,3.02-7.86,4.56-11.78h1.61c1.47,3.84,2.96,7.71,4.52,11.8-.67.03-1.2.06-1.84.09ZM199.57,90.46h3.54c-.56-1.63-1.06-3.12-1.79-4.81-.65,1.78-1.19,3.26-1.76,4.81Z"/>
  <path class="cls-1" d="M99.67,114.82h-1.85c-.38-.99-.77-2-1.17-3.03h-4.7c-.37.98-.74,1.95-1.14,3.01h-1.83c1.44-4,3.03-7.85,4.53-11.78h1.63c1.47,3.84,2.96,7.7,4.53,11.8ZM96.14,110.38c-.62-1.68-1.17-3.17-1.82-4.93-.67,1.84-1.22,3.36-1.79,4.93h3.62Z"/>
  <path class="cls-1" d="M114.81,103.01h1.63c1.49,3.89,2.97,7.76,4.51,11.78h-1.86c-.36-.96-.73-1.94-1.11-2.97h-4.75c-.35.92-.73,1.93-1.13,3h-1.87c1.55-3.99,3.04-7.84,4.58-11.81ZM113.83,110.31h3.54c-.56-1.63-1.06-3.12-1.79-4.81-.65,1.78-1.19,3.26-1.76,4.81Z"/>
  <path class="cls-1" d="M189.92,90.44v4.5h-1.73v-11.79c1.96,0,3.87-.15,5.75.04,1.94.2,3.06,1.92,2.91,3.96-.14,1.82-1.49,3.16-3.38,3.27-1.09.06-2.19.01-3.54.01ZM190.03,84.41v4.72c1,0,1.9.04,2.79-.01,1.39-.09,2.16-.94,2.17-2.32.01-1.43-.8-2.31-2.27-2.38-.85-.04-1.71,0-2.7,0Z"/>
  <path class="cls-1" d="M164.88,126.56h-1.38c-.12-.29-.29-.58-.36-.89-.24-1.18-1.1-1.66-2.15-1.81-1.09-.16-1.95.32-2.54,1.25-.15.24-.31.5-.38.77-.51,1.93-.58,3.89.02,5.8.56,1.8,2.13,2.46,3.74,1.77.61-.26,1.04-.66,1.24-1.3.11-.36.24-.72.36-1.1h1.47c.48,1.84-1.35,3.71-3.37,3.97-3.69.47-5.35-2.04-5.6-4.55-.11-1.14-.14-2.31,0-3.44.46-3.58,3.23-5.37,6.76-4.19,1.31.44,2.65,2.01,2.18,3.73Z"/>
  <path class="cls-1" d="M108.22,111.16h1.45c.25,1.17-.19,2.02-.9,2.77-1.66,1.77-5.76,2.02-7.4-1.04-.16-.29-.33-.6-.41-.92-.5-2.03-.62-4.11.02-6.09,1.1-3.38,4.35-3.88,6.89-2.69,1.39.65,1.95,1.84,1.76,3.51-.43.02-.88.05-1.37.07-.15-.39-.32-.68-.39-1-.26-1.18-1.14-1.63-2.18-1.77-1.02-.14-1.86.3-2.45,1.17-.05.08-.12.16-.15.24-.92,2.32-.96,4.66,0,6.97.44,1.07,1.4,1.59,2.56,1.46,1.1-.12,2.01-.63,2.25-1.87.05-.27.2-.53.32-.82Z"/>
  <path class="cls-1" d="M179.87,91.21c.57.05,1.02.08,1.41.11.52,1.86-1.34,3.73-3.34,4-3.82.5-5.44-2.22-5.63-4.68-.08-1.05-.1-2.12,0-3.16.35-3.53,3.08-5.59,6.76-4.35,1.58.54,2.34,1.81,2.25,3.62-.2.05-.41.15-.64.17-.23.02-.47-.02-.78-.04-.13-.3-.3-.59-.37-.9-.27-1.24-1.17-1.72-2.28-1.83-1.1-.11-1.93.42-2.49,1.37-.1.16-.2.33-.25.51-.58,2.02-.65,4.08.01,6.07.59,1.75,2.26,2.41,3.8,1.58.46-.25.8-.77,1.11-1.23.2-.3.25-.71.43-1.25Z"/>
  <path class="cls-1" d="M142.94,74.83h-7.82c-.31-.95-.41-9.65-.13-11.66,1.09-.27,6.23-.31,7.73-.03v1.08c-.99.02-1.98.04-2.97.05-.95,0-1.9,0-2.95,0v3.58h5.24c.04.44.06.75.1,1.26h-5.36v4.45h6.09c.03.49.05.83.07,1.27Z"/>
  <path class="cls-1" d="M133.52,103.02h7.74v1.19h-5.87v3.59h5.2c.03.48.05.82.09,1.31h-5.32v4.5h6.1v1.19h-7.94v-11.78Z"/>
  <path class="cls-1" d="M136.65,41.85c.83.19,1.4.33,2.02.47-1.13,2.02-3.27,2.98-4.76,2.19-.17-.81.3-1.44.73-2.05,2.42-3.38,4.84-6.76,7.27-10.13,1.15-1.59,2.33-3.15,3.51-4.72.75-1,.75-.99,2.08-1.54.19.2.4.43.67.71-3.84,5.01-7.63,9.97-11.54,15.07Z"/>
  <path class="cls-1" d="M123.01,83.19h1.99c-1.5,4.02-2.94,7.9-4.4,11.8h-1.63c-1.44-3.86-2.89-7.74-4.36-11.66.64-.38,1.23-.21,1.93-.16,1.07,3.06,2.14,6.11,3.25,9.29,1.09-3.15,2.14-6.17,3.22-9.27Z"/>
  <path class="cls-1" d="M105.59,94.97h-1.76c-.42-.86-.24-1.78-.21-2.66.04-1.14-.21-2.14-.78-3.13-1.1-1.9-2.1-3.85-3.18-5.85.63-.39,1.24-.17,1.97-.23.97,1.87,1.95,3.75,3.01,5.79,1.04-1.99,2-3.85,2.97-5.71h2.06c-1.02,1.9-1.88,3.72-2.93,5.41-.91,1.45-1.32,2.93-1.16,4.62.05.55,0,1.12,0,1.76Z"/>
  <path class="cls-1" d="M164,103.03h2.06c-1.02,1.91-1.88,3.72-2.94,5.41-.91,1.45-1.32,2.93-1.15,4.62.05.55,0,1.12,0,1.76h-1.76c-.42-.86-.24-1.79-.21-2.67.04-1.14-.21-2.14-.78-3.13-1.1-1.9-2.1-3.85-3.18-5.85.63-.39,1.24-.17,1.97-.22.97,1.86,1.95,3.75,3.01,5.79,1.04-1.99,2.01-3.85,2.97-5.7Z"/>
  <path class="cls-1" d="M109.04,129.29h-5.38v5.36c-.63.04-1.13.08-1.61.11-.34-1.04-.43-9.8-.12-11.95,2.57-.02,5.17-.03,7.86,0v1.24h-6.08v3.85c1.65.18,3.36-.03,5.18.13.04.35.08.69.15,1.25Z"/>
  <path class="cls-1" d="M208.22,83.18h1.78v10.51h5.6v1.28h-7.36c-.06-3.93-.01-7.82-.03-11.79Z"/>
  <path class="cls-1" d="M121.43,63.05h1.71v10.52h5.59v1.27h-7.3v-11.79Z"/>
  <path class="cls-1" d="M173.26,7.53c.49-.26,1-.66,1.57-.77.45-.09,1.14-.01,1.44.28,1.55,1.54,3.01,3.17,4.49,4.79.14.15.13.43.18.61-.35.55-.81.65-1.28.44-2.51-1.12-4.82-2.51-6.33-4.92-.05-.07-.03-.18-.06-.42Z"/>
  <path class="cls-1" d="M113.06,94.97h-1.75c-.02-3.94-.01-7.82,0-11.75.4-.06.62-.11.85-.12.28,0,.55.03.91.06v11.8Z"/>
  <path class="cls-1" d="M168.36,83.18h1.67v11.79h-1.67v-11.79Z"/>
  <path class="cls-1" d="M183.61,83.18h1.67v11.79h-1.67v-11.79Z"/>
  <path class="cls-1" d="M130.38,63.04h1.67v11.79h-1.67v-11.79Z"/>
  <path class="cls-1" d="M152.05,122.86h1.56v11.8h-1.52c-.3-1.08-.34-10.17-.05-11.8Z"/>
  <path class="cls-1" d="M157.83,18.61v1.09c-.99.74-2.02,1.31-2.78,2.13-1.03,1.11-1.85,2.42-2.76,3.64-.26.34-.48.72-.8,1-.2.18-.54.2-.83.3-.06-.23-.14-.35-.1-.4,1.37-2.51,2.71-5.05,4.73-7.12.93-.95.97-.94,2.54-.64Z"/>
  <path class="cls-1" d="M217.27,49.84c1.72-1.33,3.02-1.2,5.46.61-.41.24-.78.64-1.08.59-1.4-.22-2.78-.57-4.17-.88-.06-.01-.1-.15-.2-.32Z"/>
  <path class="cls-1" d="M60.87,51.82c-.34-.66-.55-1.08-.81-1.58.26-.5.5-1.01.79-1.49.29-.49.63-.94,1.01-1.52.32.26.55.46.88.73-.59,1.23-1.17,2.42-1.87,3.86Z"/>
  <path class="cls-1" d="M103,73.14c.04.23.09.41.09.58,0,.32-.03.64-.05,1.08h-1.7c-.02-.49-.05-1.01-.08-1.66h1.74Z"/>
</svg>