<svg width="240" height="240" viewBox="0 0 240 240" fill="none" xmlns="http://www.w3.org/2000/svg">
<path d="M180.573 103.195C180.935 102.457 181.254 101.815 181.564 101.18C181.92 100.457 182.201 99.7193 182.194 98.9002C182.194 98.4353 181.972 98.273 181.535 98.4206C180.514 98.76 179.729 99.4611 178.945 100.155C175.592 103.107 172.735 106.494 170.189 110.139C167.022 114.678 164.106 119.363 161.575 124.293C161.434 124.566 161.308 124.846 161.219 125.186C161.375 125.097 161.552 125.024 161.693 124.905C163.025 123.813 164.409 122.78 165.667 121.614C169.531 118.043 173.12 114.213 176.288 110.014C176.598 109.6 176.909 109.372 177.427 109.401C177.701 109.416 177.982 109.342 178.353 109.291C178.16 109.593 178.019 109.837 177.849 110.073C175.947 112.766 173.786 115.26 171.558 117.688C168.006 121.563 164.158 125.097 159.828 128.108C159.724 128.182 159.613 128.285 159.562 128.396C158.363 130.971 157.297 133.591 156.764 136.395C156.653 136.971 156.609 137.539 156.801 138.107C157.031 138.771 157.623 139.059 158.193 138.653C158.836 138.196 159.436 137.65 159.961 137.059C161.323 135.532 162.359 133.761 163.462 132.049C165.275 129.237 167.148 126.477 169.442 124.013C170.878 122.478 172.439 121.098 174.252 120.02C175.244 119.437 176.302 119.157 177.472 119.327C178.264 119.445 178.752 119.954 179.204 120.544C179.307 120.677 179.411 120.817 179.544 120.994C179.744 120.662 179.914 120.345 180.114 120.05C180.181 119.946 180.329 119.828 180.44 119.828C181.927 119.814 183.422 119.821 184.969 119.821C184.91 119.946 184.873 120.042 184.828 120.131C182.623 124.027 180.417 127.931 178.204 131.827C177.331 133.362 176.428 134.882 175.562 136.425C175.333 136.838 175.178 137.296 174.992 137.738C174.889 137.989 174.852 138.255 175.089 138.454C175.348 138.676 175.614 138.587 175.873 138.432C176.895 137.819 177.775 137.03 178.575 136.159C179.981 134.632 181.135 132.92 182.26 131.193C182.423 130.942 182.593 130.846 182.889 130.868C183.259 130.89 183.622 130.875 184.059 130.875C183.992 131.008 183.955 131.104 183.903 131.193C181.927 134.329 179.759 137.318 177.102 139.93C175.888 141.125 174.497 142.055 172.957 142.778C172.343 143.066 171.699 143.184 171.018 143.044C170.071 142.86 169.479 142.151 169.397 141.03C169.36 140.498 169.39 139.96 169.39 139.406C169.087 139.701 168.761 140.019 168.428 140.329C167.384 141.288 166.289 142.181 164.972 142.749C164.624 142.897 164.246 143.015 163.876 143.059C162.233 143.258 161.027 142.321 160.827 140.638C160.738 139.915 160.812 139.17 160.812 138.358C160.687 138.491 160.605 138.572 160.539 138.661C159.569 139.827 158.548 140.948 157.297 141.819C156.653 142.262 155.957 142.66 155.225 142.919C153.789 143.428 152.494 142.852 151.776 141.502C151.317 140.638 151.236 139.701 151.302 138.749C151.458 136.727 152.087 134.809 152.716 132.897C152.982 132.086 153.256 131.274 153.552 130.388C153.338 130.425 153.175 130.462 153.012 130.477C152.449 130.543 151.887 130.617 151.324 130.661C151.073 130.676 150.932 130.765 150.806 130.986C149.422 133.392 147.935 135.738 146.107 137.849C144.538 139.672 142.784 141.288 140.623 142.38C139.957 142.719 139.202 142.97 138.462 143.059C136.856 143.251 135.701 142.395 135.287 140.838C134.961 139.605 135.072 138.373 135.331 137.155C135.968 134.137 137.315 131.414 139.009 128.861C140.334 126.861 141.792 124.957 143.509 123.267C145.034 121.777 146.714 120.515 148.712 119.696C149.452 119.393 150.207 119.253 151.014 119.268C152.694 119.29 153.441 120.478 153.634 121.673C153.848 123.038 153.663 124.374 153.204 125.658C152.782 126.831 152.309 127.99 151.843 129.186C151.939 129.193 152.072 129.237 152.19 129.215C152.768 129.09 153.338 128.942 153.907 128.794C154.174 128.728 154.329 128.551 154.455 128.3C157.267 122.485 160.457 116.891 164.306 111.689C167.799 106.966 171.758 102.664 176.399 99.0331C177.657 98.0516 178.996 97.1439 180.565 96.7233C181.135 96.5683 181.757 96.5462 182.349 96.5905C183.067 96.6421 183.496 97.1734 183.592 97.8819C183.763 99.0773 183.489 100.199 183.015 101.284C182.852 101.653 182.638 102.007 182.49 102.376C182.356 102.715 182.127 102.87 181.779 102.929C181.416 102.988 181.046 103.084 180.573 103.195ZM166.548 137.325C166.585 137.332 166.615 137.34 166.652 137.355C166.585 137.738 166.607 138.122 166.963 138.351C167.34 138.594 167.747 138.513 168.117 138.307C168.354 138.174 168.569 138.004 168.783 137.842C169.708 137.148 170.337 136.203 170.996 135.288C172.639 132.986 174.03 130.529 175.437 128.079C176.421 126.352 177.435 124.64 178.441 122.928C178.619 122.625 178.678 122.345 178.486 122.035C178.293 121.725 177.99 121.658 177.679 121.725C177.361 121.791 177.013 121.88 176.761 122.072C176.132 122.537 175.511 123.031 174.948 123.57C173.194 125.238 171.758 127.171 170.456 129.2C169.257 131.067 168.013 132.92 167.236 135.015C166.94 135.761 166.77 136.55 166.548 137.325ZM145.567 126.876C145.53 126.898 145.507 126.905 145.493 126.92C143.724 129.267 142.177 131.731 141.185 134.506C140.897 135.318 140.689 136.152 140.763 137.03C140.852 138.137 141.696 138.735 142.725 138.307C143.339 138.056 143.931 137.679 144.427 137.237C146.396 135.502 147.846 133.355 149.097 131.067C149.223 130.839 149.326 130.595 149.445 130.344C147.794 129.554 146.403 128.521 145.567 126.876ZM152.19 123.311C152.161 123.031 152.146 122.751 152.094 122.478C151.909 121.585 151.391 121.23 150.488 121.408C149.519 121.599 148.808 122.212 148.187 122.913C146.144 125.223 147.557 128.027 150.015 128.868C150.207 128.935 150.311 128.89 150.392 128.713C150.621 128.241 150.888 127.783 151.095 127.296C151.643 126.02 152.183 124.743 152.19 123.311Z" fill="#D9D9D9"/>
<path d="M110.09 109.025C110.134 108.981 110.164 108.959 110.179 108.929C110.423 108.258 110.919 108.162 111.57 108.192C112.68 108.243 113.79 108.206 114.9 108.206C115.019 108.206 115.144 108.206 115.33 108.206C115.167 108.501 115.033 108.738 114.893 108.981C111.784 114.361 108.669 119.733 105.568 125.113C105.427 125.356 105.287 125.622 105.257 125.887C105.227 126.116 105.294 126.426 105.442 126.581C105.553 126.692 105.908 126.67 106.078 126.574C106.604 126.264 107.137 125.939 107.596 125.541C109.305 124.057 110.726 122.308 112.029 120.471C112.48 119.829 112.946 119.482 113.731 119.622C113.894 119.652 114.064 119.63 114.271 119.63C114.227 119.718 114.212 119.77 114.19 119.807C112.243 122.633 110.223 125.408 107.751 127.814C106.5 129.031 105.198 130.197 103.607 130.987C102.889 131.341 102.126 131.548 101.32 131.407C100.365 131.238 99.6915 130.359 99.6693 129.245C99.6619 128.81 99.7063 128.374 99.7285 127.924C99.0846 128.522 98.4851 129.12 97.8412 129.666C96.8791 130.47 95.843 131.179 94.5849 131.385C94.0446 131.474 93.4451 131.452 92.9123 131.311C91.8243 131.016 91.2397 130.16 91.1508 128.979C91.0694 127.843 91.3433 126.766 91.6319 125.681C91.6467 125.614 91.6615 125.541 91.6911 125.371C91.0546 125.983 90.4848 126.544 89.9075 127.083C88.4569 128.456 86.9693 129.776 85.1487 130.655C83.8314 131.297 82.4474 131.621 80.9968 131.415C79.5167 131.201 78.5101 130.308 78.0069 128.928C77.363 127.142 77.3482 125.334 77.9551 123.519C78.5693 121.689 79.4056 119.954 80.3382 118.264C80.4048 118.146 80.464 118.036 80.5454 117.873C79.7831 118.05 79.0652 118.205 78.3621 118.39C78.2585 118.419 78.1697 118.567 78.1031 118.67C76.919 120.523 75.831 122.441 74.5285 124.205C72.8263 126.515 70.8354 128.588 68.4005 130.175C67.4014 130.824 66.3505 131.348 65.1368 131.452C63.664 131.577 62.4354 130.787 61.9618 129.4C61.4881 128.02 61.5621 126.618 61.8286 125.216C62.4132 122.19 63.7602 119.482 65.492 116.966C67.4384 114.147 69.6883 111.601 72.5006 109.601C73.744 108.723 75.0539 107.948 76.5711 107.675C77.1632 107.572 77.8071 107.557 78.3991 107.66C79.5759 107.867 80.3826 108.841 80.575 110.11C80.7896 111.512 80.5084 112.848 80.0717 114.162C79.8127 114.951 79.5019 115.726 79.1762 116.604C79.5167 116.516 79.8127 116.479 80.0865 116.361C81.3373 115.829 82.4326 115.047 83.4243 114.154C84.5493 113.143 85.578 112.036 86.6955 111.01C87.9981 109.808 89.3746 108.693 91.0472 108.007C91.9279 107.645 92.8382 107.49 93.793 107.586C95.8134 107.786 96.8791 109.402 96.5979 111.306C96.3537 112.966 95.6136 114.405 94.3998 115.586C93.9706 115.999 93.4895 116.346 92.8456 116.331C92.2388 116.316 91.7059 115.874 91.6837 115.268C91.6689 114.863 91.7059 114.427 91.8243 114.043C92.0538 113.313 92.5348 112.73 93.1047 112.228C93.5561 111.83 94.1038 111.667 94.6959 111.623C94.8143 111.616 94.9771 111.557 95.0289 111.475C95.4211 110.826 94.9697 109.963 94.2148 109.911C93.3045 109.852 92.5718 110.28 91.8983 110.819C90.433 111.992 89.16 113.365 88.0277 114.855C86.0294 117.49 84.5049 120.375 83.3873 123.482C83.0395 124.448 82.9137 125.437 83.1653 126.448C83.4539 127.607 84.3716 128.168 85.541 127.909C86.8065 127.629 87.8352 126.906 88.7752 126.065C90.951 124.124 92.7938 121.88 94.5034 119.526C96.028 117.431 97.4934 115.283 99.2252 113.342C100.72 111.667 102.282 110.073 104.169 108.826C105.064 108.236 106.012 107.741 107.1 107.594C108.291 107.431 109.224 107.852 109.934 108.797C109.979 108.885 110.03 108.952 110.09 109.025ZM108.38 109.852C108.032 109.955 107.751 109.977 107.551 110.118C106.937 110.538 106.271 110.929 105.768 111.453C104.946 112.309 104.221 113.261 103.473 114.198C101.512 116.663 99.6693 119.209 98.2853 122.058C97.7154 123.231 97.19 124.419 96.9679 125.71C96.8939 126.131 96.9679 126.5 97.338 126.751C97.7228 127.002 98.1003 126.921 98.4777 126.684C99.7655 125.895 100.728 124.781 101.542 123.541C104.243 119.408 106.626 115.084 109.061 110.789C109.135 110.664 109.128 110.391 109.039 110.302C108.846 110.103 108.58 109.985 108.38 109.852ZM72.2564 114.995C72.212 115.032 72.175 115.047 72.1528 115.077C70.5912 117.313 69.074 119.578 68.1193 122.153C67.8085 122.995 67.5716 123.888 67.4606 124.781C67.2756 126.249 68.2525 127.024 69.5773 126.574C69.6957 126.537 69.7993 126.478 69.9103 126.419C70.828 125.895 71.5903 125.179 72.3082 124.419C73.9364 122.685 75.1205 120.641 76.3491 118.633C76.4231 118.508 76.4601 118.368 76.5267 118.213C74.6987 117.637 73.1815 116.707 72.2564 114.995ZM79.006 111.807C78.9098 111.394 78.8506 110.966 78.71 110.568C78.4953 109.992 78.0365 109.712 77.4296 109.815C77.0004 109.889 76.5415 109.992 76.1789 110.214C75.2316 110.804 74.5137 111.623 74.1214 112.686C73.7144 113.785 73.929 114.759 74.7949 115.564C75.4536 116.176 76.2307 116.53 77.1336 116.648C77.363 116.678 77.4666 116.597 77.548 116.397C77.7997 115.8 78.0957 115.217 78.3177 114.612C78.6582 113.711 78.9098 112.789 79.006 111.807Z" fill="#D9D9D9"/>
<path d="M171.161 102.531C170.029 103.749 168.926 104.915 167.838 106.11C167.646 106.324 167.512 106.346 167.283 106.206C166.054 105.439 164.818 104.664 163.583 103.911C161.643 102.723 159.734 101.483 157.743 100.384C156.381 99.631 154.886 99.0923 153.317 98.9226C152.696 98.8562 152.052 98.9743 151.415 99.0259C151.253 99.0407 151.142 99.1366 151.164 99.3506C151.356 101.742 150.705 103.97 149.75 106.125C148.47 109.018 146.694 111.549 144.237 113.586C143.423 114.257 142.505 114.774 141.483 115.054C141.032 115.18 140.536 115.246 140.07 115.194C138.989 115.084 138.338 114.338 138.109 113.106C137.909 112.043 138.138 111.025 138.508 110.043C139.567 107.269 141.15 104.811 143.223 102.679C144.792 101.063 146.516 99.6532 148.44 98.4798C148.5 98.4429 148.551 98.3987 148.648 98.3249C147.841 98.0371 147.071 98.0149 146.331 98.2584C145.569 98.5167 144.814 98.834 144.103 99.2178C140.995 100.871 138.331 103.099 135.896 105.608C133.002 108.59 130.397 111.815 128.043 115.224C125.816 118.463 123.81 121.843 122.323 125.503C121.22 128.212 120.435 131.001 120.191 133.923C120.095 135.06 120.25 136.181 120.768 137.215C121.686 139.052 123.514 139.82 125.483 139.214C126.852 138.786 128.021 138.004 129.065 137.067C132.44 134.041 134.919 130.426 136.147 126.027C136.406 125.105 136.554 124.153 136.48 123.186C136.377 121.806 135.644 121.371 134.29 121.902C133.609 122.168 133.106 122.692 132.647 123.245C131.233 124.957 130.316 126.898 129.886 129.075C129.857 129.208 129.76 129.385 129.649 129.437C127.459 130.499 125.594 131.99 123.936 133.746C123.869 133.813 123.84 133.916 123.795 133.997C123.751 133.968 123.699 133.938 123.655 133.901C123.788 133.119 123.892 132.337 124.054 131.562C124.698 128.618 125.771 125.85 127.681 123.474C129.228 121.555 131.115 120.109 133.557 119.474C134.26 119.29 134.986 119.157 135.711 119.356C136.569 119.592 137.184 120.116 137.531 120.943C138.079 122.249 138.049 123.6 137.842 124.965C137.413 127.835 136.147 130.381 134.645 132.816C132.551 136.218 129.886 139.096 126.504 141.273C125.076 142.196 123.551 142.823 121.849 143.022C118.778 143.384 116.261 142.041 114.855 139.296C113.856 137.34 113.649 135.244 113.804 133.097C114.041 129.931 115.166 127.001 116.417 124.131C118.341 119.725 120.946 115.726 123.884 111.94C127.274 107.586 131.093 103.645 135.666 100.494C138.227 98.7307 140.973 97.336 143.963 96.4652C145.384 96.052 146.834 95.897 148.3 96.2881C148.951 96.4652 149.55 96.7604 150.024 97.2401C150.202 97.4172 150.35 97.4246 150.572 97.3582C151.637 97.0187 152.688 96.6128 153.776 96.3841C156.7 95.7568 159.556 96.1258 162.184 97.491C165.196 99.0554 168.104 100.812 171.057 102.487C171.109 102.502 171.139 102.524 171.161 102.531ZM149.735 99.7122C149.691 99.6974 149.639 99.6827 149.595 99.6679C149.225 99.8819 148.847 100.081 148.485 100.31C144.688 102.723 141.95 106.044 140.063 110.088C139.766 110.73 139.611 111.46 139.507 112.169C139.382 113.076 139.959 113.733 140.795 113.667C141.202 113.637 141.631 113.46 141.994 113.254C143.097 112.641 144.037 111.8 144.903 110.885C147.508 108.14 149.121 104.907 149.639 101.159C149.706 100.686 149.706 100.199 149.735 99.7122Z" fill="#D9D9D9"/>
<path d="M110.009 144.132C109.832 144.014 109.654 143.888 109.469 143.778C106.331 141.8 102.934 140.649 99.1966 140.641C98.1753 140.641 97.1539 140.708 96.1696 141.047C94.6746 141.579 93.5127 142.516 92.6542 143.874C92.6098 143.829 92.5654 143.793 92.5358 143.748C91.0926 141.254 88.865 139.852 86.1118 139.18C83.8176 138.62 81.5011 138.627 79.1698 138.848C76.054 139.136 73.0567 139.985 70.0297 140.73C66.8992 141.505 63.7464 142.184 60.5862 142.818C58.1513 143.305 55.7016 143.269 53.3259 142.457C49.4035 141.121 47.0722 138.391 46.3025 134.332C45.7178 131.255 46.0361 128.222 46.7836 125.218C48.0935 119.979 50.6172 115.337 53.8218 111.035C57.0338 106.726 60.8452 102.999 65.2932 99.9659C67.8835 98.2022 70.6662 96.7632 73.8042 96.2024C74.7293 96.0327 75.6914 95.9736 76.6313 96.0105C78.3187 96.0843 79.6805 97.4569 79.8877 99.1394C80.0653 100.534 79.6731 101.796 78.9996 102.977C78.6369 103.611 78.2225 104.239 77.7266 104.77C77.4084 105.109 76.9347 105.36 76.4833 105.515C75.314 105.914 74.4851 105.242 74.5665 104.017C74.6627 102.696 75.351 101.693 76.3945 100.962C76.7719 100.696 77.3122 100.637 77.7858 100.556C78.0597 100.512 78.1707 100.401 78.2373 100.173C78.5185 99.1394 77.9339 98.2834 76.8311 98.2465C76.2687 98.2318 75.6692 98.3277 75.1289 98.5048C72.7162 99.2796 70.6588 100.674 68.816 102.364C63.5466 107.183 59.2762 112.777 56.0347 119.13C54.4583 122.215 53.3111 125.462 52.7117 128.879C52.386 130.738 52.3786 132.62 52.8079 134.472C53.3777 136.93 54.8727 138.575 57.1966 139.549C59.143 140.368 61.1561 140.597 63.2357 140.391C66.2109 140.103 69.0898 139.328 71.991 138.634C75.5434 137.778 79.081 136.871 82.6482 136.066C85.838 135.343 89.0796 134.974 92.3656 135.055C96.6359 135.166 100.558 136.325 104.037 138.863C105.791 140.14 107.545 141.409 109.062 142.959C109.41 143.313 109.721 143.697 110.046 144.073C110.054 144.088 110.031 144.11 110.009 144.132Z" fill="#D9D9D9"/>
<path d="M172.531 108.259C172.983 107.691 173.427 107.108 173.893 106.54C174.478 105.832 175.085 105.131 175.691 104.444C175.78 104.341 175.958 104.238 176.084 104.252C180.369 104.644 184.158 103.249 187.733 101.079C189.953 99.7288 191.944 98.0979 193.735 96.2162C193.757 96.1866 193.794 96.1719 193.875 96.1055C193.838 96.2235 193.824 96.2973 193.794 96.3564C190.811 101.766 186.549 105.728 180.65 107.809C178.082 108.717 175.447 108.99 172.761 108.385C172.716 108.378 172.664 108.363 172.62 108.348C172.598 108.333 172.583 108.304 172.531 108.259Z" fill="#D9D9D9"/>
<path d="M123.046 108.257C123.001 108.338 122.964 108.427 122.912 108.508C122.187 109.681 121.469 110.847 120.737 112.013C120.663 112.131 120.485 112.264 120.352 112.264C119.012 112.279 117.665 112.279 116.326 112.271C116.281 112.271 116.237 112.264 116.141 112.249C116.385 111.851 116.614 111.475 116.844 111.106C117.391 110.22 117.939 109.327 118.494 108.449C118.561 108.346 118.709 108.228 118.82 108.22C120.196 108.205 121.58 108.213 122.957 108.213C122.979 108.22 123.001 108.235 123.046 108.257Z" fill="#D9D9D9"/>
</svg>
