<svg width="240" height="240" viewBox="0 0 240 240" fill="none" xmlns="http://www.w3.org/2000/svg">
<g clip-path="url(#clip0_4072_3299)">
<path d="M79.062 116.793C76.7725 116.793 74.7635 117.576 73.1459 118.893V109.892C73.1459 109.527 72.8654 109.266 72.5197 109.266C72.3958 109.266 72.2784 109.318 72.2066 109.35L68.7039 110.929C68.4235 111.014 68.2734 111.242 68.2734 111.516V126.929C68.2734 132.65 72.6958 137.059 78.4358 137.059C84.1758 137.059 88.5982 132.636 88.5982 126.929C88.5982 121.222 84.4171 116.799 79.062 116.799V116.78V116.793ZM78.4358 132.402C75.4876 132.402 73.1981 130.145 73.1981 126.923C73.1981 123.7 75.4876 121.444 78.4358 121.444C81.3841 121.444 83.6736 123.7 83.6736 126.923C83.6736 130.145 81.3841 132.402 78.4358 132.402Z" fill="#D9D9D9"/>
<path d="M121.828 109.246C121.704 109.246 121.587 109.298 121.515 109.331L117.993 110.909C117.713 110.994 117.562 111.222 117.562 111.496V136.015C117.562 136.381 117.843 136.641 118.189 136.641H121.724C122.154 136.641 122.435 136.361 122.435 136.015V109.892C122.435 109.527 122.154 109.266 121.809 109.266L121.828 109.246Z" fill="#D9D9D9"/>
<path d="M111.184 117.504H107.557C107.192 117.504 106.931 117.784 106.931 118.13V127.947C106.931 130.582 104.987 132.402 102.476 132.402C99.9647 132.402 98.0209 130.602 98.0209 127.947V118.13C98.0209 117.765 97.7404 117.504 97.3947 117.504H93.8594C93.4289 117.504 93.1484 117.784 93.1484 118.13V127.947C93.1484 133.113 97.2056 137.052 102.495 137.052C107.785 137.052 111.843 133.119 111.843 127.947V118.221C111.843 117.791 111.562 117.51 111.216 117.51H111.184V117.504Z" fill="#D9D9D9"/>
<path d="M181.895 117.504H178.151C177.753 117.504 177.525 117.713 177.44 117.934L172.235 131.463L166.964 117.934C166.88 117.693 166.651 117.504 166.377 117.504H162.353C161.987 117.504 161.727 117.745 161.727 118.058C161.727 118.215 161.811 118.424 161.85 118.528L168.856 136.218C168.941 136.498 169.169 136.648 169.482 136.648H174.752C175.033 136.648 175.222 136.492 175.339 136.25L182.397 118.508C182.449 118.385 182.521 118.195 182.521 118.039C182.521 117.726 182.24 117.484 181.895 117.484H181.875L181.895 117.504Z" fill="#D9D9D9"/>
<path d="M214.399 109.246C214.275 109.246 214.17 109.298 214.086 109.331L210.563 110.909C210.283 110.994 210.133 111.222 210.133 111.496V135.93C210.133 136.361 210.413 136.641 210.759 136.641H214.386C214.751 136.641 215.012 136.361 215.012 136.015V109.892C215.012 109.527 214.731 109.266 214.386 109.266L214.405 109.246H214.399Z" fill="#D9D9D9"/>
<path d="M194.943 116.79C189.36 116.79 184.938 121.213 184.938 126.92C184.938 132.628 189.516 137.05 195.53 137.05C198.563 137.05 201.407 135.869 203.299 133.945C203.384 133.821 203.455 133.704 203.455 133.515C203.455 133.358 203.384 133.202 203.247 133.084L201.042 130.827C200.918 130.703 200.762 130.619 200.612 130.619C200.403 130.619 200.246 130.703 200.142 130.827C198.877 131.851 197.539 132.354 195.563 132.354C192.876 132.354 190.671 130.932 189.927 128.675H204.199C204.63 128.675 204.982 128.309 204.982 127.964V126.907C204.982 121.187 200.527 116.777 194.924 116.777L194.943 116.797V116.79ZM189.934 124.937C190.645 122.648 192.465 121.402 194.943 121.402C197.422 121.402 199.314 122.824 199.901 124.937H189.927H189.934Z" fill="#D9D9D9"/>
<path d="M128.726 126.831L135.196 118.593C135.32 118.469 135.437 118.28 135.437 118.071C135.437 117.706 135.157 117.445 134.811 117.445H130.754C130.389 117.445 130.2 117.654 130.043 117.876L123.383 126.512C123.142 126.792 123.103 127.099 123.383 127.379L130.284 136.244C130.441 136.452 130.65 136.642 130.911 136.642H135.248C135.614 136.642 135.874 136.361 135.874 136.015C135.874 135.807 135.751 135.65 135.633 135.546L128.732 126.838V126.818L128.726 126.831Z" fill="#D9D9D9"/>
<path d="M148.866 116.793C142.989 116.793 138.43 121.215 138.43 126.923C138.43 132.63 143.009 137.053 148.866 137.053C154.723 137.053 159.302 132.63 159.302 126.923C159.302 121.215 154.723 116.793 148.866 116.793ZM148.866 132.402C145.761 132.402 143.302 130.145 143.302 126.923C143.302 123.701 145.748 121.444 148.866 121.444C151.984 121.444 154.43 123.701 154.43 126.923C154.43 130.145 151.984 132.402 148.866 132.402Z" fill="#D9D9D9"/>
<path d="M48.3904 113.669C48.3904 107.238 43.1527 102 36.7083 102C31.4836 102 27.0612 105.431 25.5544 110.166C28.17 110.166 36.6887 110.186 36.6887 110.186C38.6325 110.186 40.1718 111.745 40.1718 113.689C40.1718 114.328 40.1392 119.722 40.1392 121.888C41.8547 121.888 46.2966 121.855 48.3383 121.855C50.3799 121.855 51.8409 123.414 51.8409 125.358C51.8409 127.302 50.282 128.861 48.3383 128.861H33.1664V117.172H25V137.007H36.4082C40.8632 137.027 45.6835 137.04 48.3187 137.04C54.7501 137.04 60.0074 131.802 60.0074 125.351C60.0074 118.9 54.7696 113.682 48.3383 113.663H48.3904V113.669Z" fill="#D9D9D9"/>
</g>
<defs>
<clipPath id="clip0_4072_3299">
<rect width="190" height="35.0661" fill="white" transform="translate(25 102)"/>
</clipPath>
</defs>
</svg>
