<svg width="240" height="240" viewBox="0 0 240 240" fill="none" xmlns="http://www.w3.org/2000/svg">
<g clip-path="url(#clip0_4072_3069)">
<path d="M159.951 79.3903C159.931 79.1003 159.661 78.9003 159.381 78.9503C156.231 79.4903 155.451 77.5203 153.851 75.8703C153.261 75.2603 152.381 74.7203 151.691 74.3503C151.161 74.0703 150.841 73.5003 150.881 72.9003C150.971 71.7403 150.601 70.6203 150.421 69.9603C150.311 69.5403 149.781 69.3703 149.671 70.1603C149.501 71.4503 149.111 72.4003 148.791 73.0203C148.601 73.3903 148.041 73.2903 147.991 72.8803C147.861 71.7803 148.111 70.4603 147.771 69.4203C147.561 68.7803 146.811 68.8903 146.541 69.6203C145.461 72.5303 145.901 73.4603 143.911 74.6403C136.781 78.8503 136.141 83.2903 128.221 81.8303C127.681 81.7303 127.151 81.6603 126.631 81.6003L127.451 83.1403C127.451 83.1403 117.201 80.5603 106.911 84.1103C104.981 84.7703 101.381 85.8203 99.0806 86.5103C86.1806 89.6903 81.8206 81.8203 81.8206 81.8203L81.5806 84.0303C76.6706 75.4203 70.3906 76.0803 70.3906 76.0803C70.3906 76.0803 73.0006 77.9503 73.5406 81.4503L71.9706 80.2903C71.9706 80.2903 68.9006 95.2103 84.2406 94.3503L82.9906 95.5403C82.9906 95.5403 90.1206 97.3103 95.9106 91.6103C96.2206 91.3003 96.5306 90.9803 96.8306 90.6303C98.3606 89.6303 99.3406 92.1003 94.9806 96.5203C94.4406 97.0703 93.2506 97.9303 93.2506 97.9303C93.2506 97.9303 91.8806 98.4003 91.8806 105.14C91.8806 110.55 94.9706 110.45 96.2306 110.45C97.4906 110.45 98.1106 109.57 97.4206 108.88C97.0306 108.49 96.3706 108.13 95.7906 107.87C94.9506 107.5 94.7106 106.34 94.7106 104.77C94.7106 104.68 94.7106 104.59 94.7106 104.5C94.8306 102.34 97.2606 100.61 99.4106 100.39C102.811 100.05 104.811 98.4803 105.991 96.7303C106.091 96.5803 106.301 96.5303 106.451 96.6303C107.241 97.0903 108.111 97.8903 107.671 99.0503C106.931 101.01 105.401 101.86 105.401 103.01C105.401 103.94 110.851 106.8 112.901 108.83C113.741 109.67 115.031 110.12 116.221 110.12H118.361C118.681 110.12 118.921 109.83 118.861 109.52C118.831 109.35 118.771 109.15 118.681 108.94C117.951 107.31 115.591 107.34 115.151 107.2C114.431 106.97 113.911 106.55 113.391 106.03C110.941 103.58 110.061 102.39 111.071 101.39C112.081 100.39 114.901 99.4903 114.901 95.3403C114.901 94.9903 114.601 93.4703 121.291 95.6703C122.351 96.0203 125.181 97.8803 131.791 97.0603C131.821 97.0603 131.841 97.0603 131.871 97.0803C132.331 97.2403 133.371 97.8103 132.711 99.4603C130.451 105.09 130.711 110.08 133.131 110.08H134.901C135.781 110.08 136.061 108.9 135.261 108.54C135.251 108.54 135.231 108.53 135.221 108.52C134.531 108.23 134.491 107.02 134.491 106.29C134.491 102.63 137.661 99.9903 138.521 98.0003C138.591 97.8403 138.761 97.7603 138.921 97.8103C139.811 98.0503 141.511 98.8703 141.511 99.8203C141.511 100.7 141.931 101.53 142.671 102.01C145.201 103.62 150.361 106.54 152.691 108.95C156.301 112.68 157.601 109.66 155.131 107.59C153.431 106.16 148.611 101.84 146.571 99.8603C146.061 99.3603 145.761 98.6803 145.761 97.9703C145.761 95.9603 146.561 92.5803 148.101 89.4503C148.571 89.7603 148.961 89.8803 148.961 89.8803C148.761 89.3603 148.841 88.7303 149.001 88.2003C149.181 87.6103 149.461 87.0603 149.821 86.5603C150.421 85.7303 151.091 84.9603 151.831 84.3203C153.611 82.7403 154.791 82.9803 156.741 82.6803C159.751 82.2103 160.001 80.3603 159.921 79.4303H159.931L159.951 79.3903Z" fill="#D9D9D9"/>
<path d="M77.6794 124.89C77.6794 123.88 77.7694 122.8 78.2094 121.23H73.6094C74.0494 122.8 74.1394 123.88 74.1394 124.89V140.84C74.1394 141.85 74.0494 142.93 73.6094 144.5H78.2094C77.7694 142.93 77.6794 141.85 77.6794 140.84V124.89Z" fill="#D9D9D9"/>
<path d="M147.859 124.89C147.859 123.88 147.949 122.8 148.389 121.23H143.789C144.229 122.8 144.319 123.88 144.319 124.89V140.84C144.319 141.85 144.229 142.93 143.789 144.5H148.389C147.949 142.93 147.859 141.85 147.859 140.84V124.89Z" fill="#D9D9D9"/>
<path d="M103.179 124.89C103.179 123.88 103.269 122.8 103.709 121.23H99.2191C99.6591 122.8 99.7491 123.88 99.7491 124.89V139C99.7491 139 99.8591 138.68 99.8591 138.72L87.1091 121.23H83.2891C84.2891 122.35 85.0191 124.05 85.0191 124.88C85.0291 128.59 85.0191 140.61 85.0191 140.84C85.0191 141.85 84.9291 142.93 84.4891 144.5H88.9791C88.5391 142.93 88.4491 141.85 88.4491 140.84V127.84L87.6991 128.01L99.8491 144.5H103.699C103.259 142.93 103.169 141.85 103.169 140.84V124.89H103.179Z" fill="#D9D9D9"/>
<path d="M166.041 134.868L174.201 121.238H179.071C177.911 122.438 177.151 123.948 177.151 124.888C177.141 128.608 177.111 140.618 177.111 140.848C177.111 141.858 177.201 142.938 177.641 144.508H173.041C173.481 142.938 173.571 141.858 173.571 140.848V127.918V128.928C173.571 128.928 166.481 140.488 166.051 141.058C165.631 140.478 158.531 128.928 158.531 128.928V127.918V140.848C158.531 141.858 158.621 142.938 159.061 144.508H154.461C154.901 142.938 154.991 141.858 154.991 140.848C154.991 140.618 154.961 128.598 154.951 124.888C154.951 123.948 154.191 122.448 153.031 121.238H157.901L166.061 134.868H166.041Z" fill="#D9D9D9"/>
<path d="M113.664 141.93V133.42L120.804 134.1L121.564 130.79H113.664V123.79H114.404C117.004 123.8 119.164 123.91 122.294 124.86L121.804 121.23H109.594C110.034 122.8 110.124 123.88 110.124 124.89V140.84C110.124 141.85 110.034 142.93 109.594 144.5H122.534L123.754 140.55C123.754 140.55 118.754 141.97 113.664 141.93Z" fill="#D9D9D9"/>
<path d="M187.781 141.93V133.42L194.691 134.1L195.451 130.79H187.781V123.79H188.751C191.351 123.8 193.511 123.91 196.641 124.86L196.151 121.23H183.711C184.151 122.8 184.241 123.88 184.241 124.89V140.84C184.241 141.85 184.151 142.93 183.711 144.5H196.431L197.651 140.55C197.651 140.55 192.871 141.97 187.791 141.93" fill="#D9D9D9"/>
<path d="M134.747 123.82C138.977 124.1 141.077 124.88 141.077 124.88L140.587 121.25H125.357L124.867 124.87C124.867 124.87 126.977 124.09 131.197 123.81V140.84C131.197 141.85 131.107 142.93 130.667 144.5H135.267C134.827 142.93 134.737 141.85 134.737 140.84V123.82H134.747Z" fill="#D9D9D9"/>
<path d="M56.36 121.23L61.8 137.56C62.57 134.69 63.95 129 65.11 124.54C65.32 123.73 65.48 122.86 65.48 121.23H70.22C69.89 121.56 69.4 122.76 69.27 123.15C68.63 124.99 68.44 125.67 67.97 127.41L63.35 144.5H60.67L56.11 130.53L51.55 144.5H48.87L44.25 127.41C43.78 125.67 43.58 124.98 42.95 123.15C42.82 122.76 42.33 121.56 42 121.23H46.74C46.74 122.86 46.9 123.74 47.11 124.54C48.27 129 49.65 134.69 50.42 137.56L55.86 121.23H56.36Z" fill="#D9D9D9"/>
<path d="M99.3794 170.752C99.4394 170.612 99.4794 170.442 99.5194 170.242C99.5494 170.042 99.5894 169.662 99.6294 169.092L99.7794 166.902C99.7894 166.722 99.7994 166.552 99.8094 166.412C99.8194 166.272 99.8294 166.142 99.8294 166.032C99.8794 165.302 99.9094 164.802 99.9094 164.532C99.9094 164.262 99.8794 164.062 99.8194 163.922H101.089L101.929 166.122L102.519 167.642C102.519 167.642 102.539 167.692 102.549 167.722C102.559 167.742 102.569 167.772 102.579 167.802C102.749 168.242 102.889 168.622 102.979 168.942C103.079 169.262 103.169 169.652 103.269 170.112H103.049C103.149 169.652 103.239 169.252 103.349 168.922C103.449 168.592 103.579 168.222 103.719 167.832C103.729 167.802 103.739 167.782 103.749 167.742C103.759 167.702 103.769 167.682 103.779 167.652L104.369 166.122L105.209 163.932H106.439C106.379 164.072 106.349 164.292 106.349 164.582C106.349 164.872 106.389 165.512 106.449 166.482C106.449 166.542 106.459 166.612 106.469 166.682C106.469 166.752 106.469 166.832 106.489 166.912L106.639 169.062C106.669 169.482 106.689 169.802 106.719 170.022C106.749 170.242 106.769 170.392 106.789 170.492C106.809 170.592 106.839 170.682 106.889 170.772H105.699C105.729 170.702 105.749 170.632 105.759 170.562C105.769 170.492 105.779 170.382 105.779 170.232C105.779 170.082 105.779 169.912 105.769 169.702C105.769 169.612 105.759 169.512 105.749 169.402C105.749 169.292 105.749 169.172 105.729 169.052L105.569 164.912C105.469 165.242 105.369 165.542 105.279 165.802C105.189 166.062 105.099 166.302 105.019 166.522L103.469 170.652L102.769 170.742C102.649 170.352 102.519 169.962 102.379 169.572C102.319 169.402 102.249 169.232 102.189 169.062C102.119 168.892 102.059 168.732 101.999 168.562L101.199 166.522L101.099 166.292C101.019 166.092 100.939 165.882 100.859 165.652C100.769 165.422 100.689 165.162 100.609 164.892H100.619L100.449 169.102C100.449 169.212 100.439 169.322 100.429 169.422C100.429 169.522 100.429 169.612 100.429 169.702C100.419 169.922 100.409 170.102 100.409 170.242C100.409 170.382 100.409 170.502 100.429 170.572C100.439 170.642 100.459 170.712 100.499 170.762H99.3594H99.3694L99.3794 170.752Z" fill="#D9D9D9"/>
<path d="M112.509 170.75C112.549 170.64 112.549 170.48 112.519 170.26C112.489 170.05 112.399 169.74 112.239 169.31L111.529 167.34L111.399 166.99C111.139 166.25 110.949 165.7 110.849 165.35C110.749 165 110.659 164.58 110.589 164.1H110.769C110.689 164.61 110.589 165.06 110.479 165.46C110.369 165.86 110.199 166.37 109.969 166.98C109.949 167.04 109.929 167.09 109.909 167.15C109.889 167.21 109.869 167.26 109.839 167.31L109.129 169.31C108.979 169.75 108.879 170.07 108.849 170.27C108.819 170.47 108.819 170.63 108.849 170.74H107.609C107.719 170.58 107.839 170.35 107.949 170.04C107.949 170.03 107.959 170.01 107.969 170C107.969 169.99 107.969 169.97 107.989 169.96L109.159 166.8C109.289 166.43 109.409 166.11 109.519 165.83C109.629 165.55 109.719 165.3 109.809 165.1C109.959 164.7 110.059 164.43 110.109 164.3C110.159 164.17 110.189 164.06 110.199 163.96L111.239 163.84C111.259 163.98 111.299 164.14 111.359 164.31C111.419 164.48 111.549 164.85 111.759 165.43C111.829 165.62 111.909 165.83 111.999 166.06C112.089 166.29 112.179 166.54 112.269 166.81L113.419 169.93C113.479 170.1 113.539 170.26 113.599 170.4C113.669 170.54 113.729 170.66 113.789 170.74H112.499L112.509 170.75ZM108.739 168.74L108.899 168.02H112.079L112.389 168.74H108.739Z" fill="#D9D9D9"/>
<path d="M115.88 169.041C115.88 169.671 115.89 170.081 115.91 170.271C115.93 170.461 115.97 170.621 116.02 170.751H114.82C114.86 170.661 114.9 170.571 114.92 170.481C114.94 170.381 114.95 170.231 114.96 170.021C114.97 169.811 114.98 169.481 114.98 169.051V166.991C114.98 166.101 114.98 165.451 114.96 165.061C114.95 164.671 114.94 164.401 114.92 164.261C114.9 164.121 114.87 164.001 114.83 163.911L115.13 163.871C115.64 163.811 116.14 163.781 116.61 163.781C117.45 163.781 118.08 163.961 118.49 164.321C118.9 164.681 119.11 165.171 119.11 165.781C119.11 166.221 119 166.611 118.78 166.941C118.56 167.271 118.21 167.521 117.72 167.691C117.23 167.861 116.59 167.941 115.81 167.901V167.161C116.4 167.201 116.87 167.161 117.22 167.061C117.57 166.951 117.81 166.791 117.96 166.581C118.11 166.371 118.18 166.101 118.18 165.791C118.18 165.421 118.05 165.121 117.8 164.891C117.54 164.671 117.17 164.551 116.67 164.551C116.51 164.551 116.38 164.551 116.26 164.561C116.15 164.561 116.03 164.581 115.92 164.601C115.9 164.741 115.89 164.961 115.88 165.271C115.88 165.581 115.87 166.151 115.87 167.001V169.041H115.88ZM118.75 170.751C118.66 170.651 118.57 170.531 118.48 170.391C118.38 170.261 118.28 170.101 118.15 169.921C118.12 169.871 118.08 169.821 118.05 169.761C118.01 169.701 117.97 169.641 117.92 169.571L116.36 167.301L117.43 167.411L118.68 169.231C118.72 169.291 118.76 169.351 118.8 169.411C118.84 169.471 118.89 169.531 118.92 169.591C119.08 169.821 119.25 170.031 119.41 170.241C119.57 170.441 119.71 170.611 119.82 170.741H118.75V170.751Z" fill="#D9D9D9"/>
<path d="M120.949 165.608C120.949 164.978 120.939 164.568 120.919 164.378C120.899 164.188 120.859 164.028 120.809 163.898H122.009C121.969 163.988 121.929 164.078 121.909 164.168C121.889 164.268 121.879 164.418 121.869 164.628C121.859 164.838 121.849 165.168 121.849 165.598V169.028C121.849 169.658 121.859 170.068 121.879 170.258C121.899 170.448 121.939 170.608 121.989 170.738H120.789C120.829 170.648 120.869 170.558 120.889 170.468C120.909 170.368 120.919 170.218 120.929 170.008C120.939 169.798 120.949 169.468 120.949 169.038V165.608ZM122.499 167.348L121.909 166.978L123.279 165.198C123.279 165.198 123.329 165.138 123.359 165.098C123.389 165.068 123.409 165.038 123.439 164.998C123.709 164.648 123.889 164.408 123.979 164.258C124.069 164.108 124.109 163.998 124.099 163.898H125.309C125.209 163.998 125.109 164.118 124.989 164.258C124.869 164.388 124.749 164.548 124.619 164.708C124.579 164.778 124.489 164.888 124.359 165.048L122.509 167.348H122.499ZM124.769 170.758C124.689 170.668 124.609 170.558 124.509 170.428C124.409 170.298 124.289 170.138 124.149 169.948C124.059 169.838 123.969 169.718 123.859 169.578C123.759 169.438 123.639 169.278 123.509 169.108L122.139 167.268L121.919 166.978L122.729 166.658L124.669 169.248C124.989 169.708 125.229 170.028 125.379 170.208C125.529 170.398 125.679 170.568 125.819 170.718C125.829 170.718 125.839 170.738 125.849 170.738C125.849 170.748 125.859 170.758 125.869 170.758H124.779H124.769Z" fill="#D9D9D9"/>
<path d="M126.752 170.748C126.802 170.658 126.842 170.568 126.852 170.468C126.872 170.368 126.882 170.218 126.892 170.008C126.902 169.798 126.912 169.478 126.912 169.038V165.628C126.912 165.188 126.912 164.858 126.892 164.638C126.882 164.418 126.872 164.268 126.852 164.178C126.832 164.088 126.802 163.998 126.752 163.908H127.002C127.092 163.908 127.172 163.908 127.252 163.908C127.332 163.908 127.402 163.908 127.472 163.908L127.992 163.938C127.932 164.028 127.882 164.168 127.862 164.358C127.832 164.548 127.822 164.838 127.812 165.228C127.812 165.618 127.802 166.198 127.802 166.948V167.788C127.802 168.538 127.802 169.108 127.812 169.488C127.812 169.868 127.832 170.158 127.862 170.338C127.892 170.518 127.932 170.658 128.002 170.748H127.502L126.742 170.758L126.752 170.748ZM130.512 164.818C130.422 164.758 130.292 164.728 130.132 164.708C129.962 164.688 129.622 164.688 129.102 164.688H127.462L127.302 163.908H129.272C129.502 163.908 129.692 163.908 129.852 163.888C130.012 163.878 130.152 163.858 130.262 163.828L130.512 164.818ZM130.452 170.828C130.342 170.798 130.212 170.778 130.072 170.768C129.932 170.758 129.742 170.748 129.512 170.748H127.352L127.512 169.968H129.282C129.742 169.968 130.062 169.948 130.242 169.928C130.432 169.898 130.572 169.848 130.682 169.788H130.702L130.442 170.818L130.452 170.828ZM130.102 167.718C130.012 167.678 129.902 167.638 129.772 167.618C129.642 167.598 129.432 167.588 129.132 167.588H127.682V166.818H129.082C129.542 166.818 129.842 166.798 129.992 166.748L130.092 167.708L130.102 167.718Z" fill="#D9D9D9"/>
<path d="M131.349 163.828C131.459 163.858 131.599 163.878 131.759 163.888C131.919 163.898 132.089 163.908 132.289 163.908H133.329V164.688H132.779C132.219 164.688 131.849 164.688 131.659 164.708C131.469 164.728 131.319 164.758 131.219 164.818L131.349 163.828ZM133.979 169.038C133.979 169.668 133.989 170.078 134.009 170.268C134.029 170.458 134.069 170.618 134.119 170.748H132.919C132.959 170.658 132.999 170.568 133.019 170.478C133.039 170.378 133.049 170.228 133.059 170.018C133.069 169.808 133.079 169.478 133.079 169.048V163.918H133.979V169.048V169.038ZM135.839 164.818C135.739 164.758 135.599 164.728 135.409 164.708C135.219 164.688 134.839 164.688 134.289 164.688H133.739V163.908H134.779C134.979 163.908 135.149 163.908 135.309 163.888C135.469 163.878 135.599 163.858 135.719 163.828L135.839 164.818Z" fill="#D9D9D9"/>
<path d="M86.8628 160.658C86.1928 160.658 85.6128 160.508 85.1228 160.198C84.6328 159.898 84.2628 159.478 84.0128 158.938C83.7628 158.408 83.6328 157.798 83.6328 157.108C83.6328 156.418 83.7628 155.838 84.0128 155.298C84.2728 154.758 84.6428 154.338 85.1328 154.038C85.6228 153.738 86.1928 153.578 86.8628 153.578C87.2628 153.578 87.6128 153.608 87.9328 153.678C88.2428 153.748 88.5228 153.838 88.7728 153.968L88.8728 155.028C88.6228 154.828 88.3428 154.658 88.0128 154.538C87.6828 154.418 87.2928 154.358 86.8228 154.358C86.3528 154.358 85.9528 154.488 85.6128 154.738C85.2728 154.988 85.0128 155.328 84.8428 155.748C84.6728 156.168 84.5828 156.628 84.5828 157.118C84.5828 157.608 84.6728 158.098 84.8428 158.508C85.0228 158.928 85.2828 159.258 85.6428 159.508C86.0028 159.758 86.4428 159.878 86.9528 159.878C87.2128 159.878 87.4828 159.848 87.7328 159.788C87.9928 159.728 88.2228 159.648 88.4228 159.528L88.4928 159.478V157.668H87.9828C87.5628 157.668 87.2828 157.688 87.1728 157.728C87.1328 157.728 87.1028 157.748 87.0728 157.748C87.0428 157.758 87.0228 157.768 87.0028 157.788L87.1528 156.878C87.2128 156.898 87.3228 156.908 87.4728 156.918C87.6228 156.928 87.8328 156.938 88.0928 156.938H89.3328C89.3228 156.998 89.3128 157.138 89.3028 157.368C89.3028 157.598 89.2928 157.978 89.2928 158.508C89.2928 158.968 89.2928 159.288 89.3028 159.468C89.3028 159.658 89.3128 159.778 89.3228 159.848C88.9528 160.108 88.5728 160.308 88.1828 160.438C87.7928 160.568 87.3428 160.638 86.8528 160.638L86.8628 160.658Z" fill="#D9D9D9"/>
<path d="M94.7416 160.539C94.7816 160.429 94.7816 160.269 94.7516 160.049C94.7216 159.839 94.6316 159.529 94.4816 159.099L93.7716 157.129L93.6416 156.779C93.3816 156.039 93.1916 155.489 93.0916 155.139C92.9916 154.789 92.9016 154.369 92.8316 153.889H93.0116C92.9316 154.399 92.8316 154.849 92.7216 155.249C92.6116 155.649 92.4416 156.159 92.2116 156.769C92.1916 156.829 92.1716 156.879 92.1516 156.939C92.1316 156.999 92.1116 157.049 92.0816 157.099L91.3716 159.099C91.2216 159.539 91.1216 159.859 91.0916 160.059C91.0616 160.269 91.0616 160.419 91.0916 160.529H89.8516C89.9616 160.369 90.0816 160.139 90.1916 159.829C90.1916 159.819 90.2016 159.799 90.2116 159.789C90.2116 159.779 90.2116 159.759 90.2316 159.749L91.4016 156.589C91.5316 156.219 91.6516 155.899 91.7616 155.619C91.8716 155.339 91.9616 155.089 92.0516 154.889C92.2016 154.489 92.3016 154.219 92.3516 154.089C92.4016 153.959 92.4316 153.849 92.4416 153.749L93.4816 153.629C93.5016 153.769 93.5416 153.929 93.6016 154.099C93.6616 154.269 93.7916 154.639 94.0016 155.219C94.0716 155.409 94.1516 155.619 94.2416 155.849C94.3316 156.079 94.4216 156.329 94.5116 156.599L95.6616 159.719C95.7216 159.889 95.7816 160.049 95.8416 160.189C95.9116 160.329 95.9716 160.449 96.0316 160.529H94.7416V160.539ZM90.9716 158.529L91.1316 157.809H94.3116L94.6216 158.529H90.9716Z" fill="#D9D9D9"/>
<path d="M98.5697 160.662C98.1997 160.662 97.8697 160.632 97.5697 160.562C97.2697 160.492 97.0097 160.412 96.7997 160.302L96.6797 159.222C96.8397 159.342 96.9997 159.452 97.1697 159.542C97.3397 159.632 97.5397 159.722 97.7797 159.782C98.0197 159.852 98.2797 159.882 98.5697 159.882C98.9797 159.882 99.2997 159.782 99.5297 159.582C99.7597 159.382 99.8797 159.112 99.8797 158.782C99.8797 158.432 99.7697 158.142 99.5397 157.922C99.3097 157.692 98.9397 157.492 98.4097 157.302C97.9697 157.142 97.6297 156.972 97.3897 156.772C97.1497 156.572 96.9897 156.352 96.9097 156.122C96.8197 155.882 96.7797 155.602 96.7797 155.282C96.7797 155.002 96.8497 154.732 96.9997 154.472C97.1497 154.212 97.3697 154.002 97.6597 153.842C97.9597 153.682 98.3297 153.602 98.7797 153.602C99.0497 153.602 99.3197 153.632 99.5997 153.692C99.8797 153.752 100.11 153.822 100.31 153.912C100.32 153.912 100.34 153.922 100.35 153.932C100.37 153.932 100.38 153.942 100.39 153.952L100.51 154.992L100.45 154.952C100.19 154.782 99.9297 154.642 99.6797 154.542C99.4297 154.442 99.1297 154.382 98.7797 154.382C98.4297 154.382 98.1397 154.462 97.9497 154.632C97.7597 154.792 97.6597 155.022 97.6597 155.312C97.6597 155.572 97.7297 155.782 97.8597 155.952C97.9897 156.122 98.2097 156.262 98.5097 156.392C98.5697 156.422 98.6197 156.442 98.6797 156.462C98.7397 156.482 98.7997 156.502 98.8597 156.522C99.2997 156.672 99.6597 156.852 99.9397 157.042C100.22 157.242 100.43 157.472 100.56 157.752C100.69 158.022 100.76 158.362 100.76 158.752C100.76 159.092 100.68 159.412 100.51 159.702C100.34 159.992 100.09 160.232 99.7597 160.402C99.4297 160.572 99.0297 160.662 98.5497 160.662H98.5697Z" fill="#D9D9D9"/>
<path d="M101.521 153.629C101.631 153.659 101.771 153.679 101.931 153.689C102.091 153.699 102.261 153.709 102.461 153.709H103.501V154.489H102.951C102.391 154.489 102.021 154.489 101.831 154.509C101.641 154.529 101.491 154.559 101.391 154.619L101.521 153.629ZM104.151 158.839C104.151 159.469 104.161 159.879 104.181 160.069C104.201 160.259 104.241 160.419 104.291 160.549H103.091C103.131 160.459 103.171 160.369 103.191 160.279C103.211 160.179 103.221 160.029 103.231 159.819C103.241 159.609 103.251 159.279 103.251 158.849V153.719H104.151V158.849V158.839ZM106.011 154.619C105.911 154.559 105.771 154.529 105.581 154.509C105.391 154.489 105.011 154.489 104.461 154.489H103.911V153.709H104.951C105.151 153.709 105.321 153.709 105.481 153.689C105.641 153.679 105.771 153.659 105.891 153.629L106.011 154.619Z" fill="#D9D9D9"/>
<path d="M108.123 158.838C108.123 159.468 108.133 159.878 108.153 160.068C108.173 160.258 108.213 160.418 108.263 160.548H107.062C107.102 160.458 107.143 160.368 107.163 160.278C107.183 160.178 107.192 160.028 107.202 159.818C107.212 159.608 107.223 159.278 107.223 158.848V156.788C107.223 155.898 107.222 155.248 107.202 154.858C107.192 154.468 107.183 154.198 107.163 154.058C107.143 153.918 107.113 153.798 107.073 153.708L107.373 153.668C107.883 153.608 108.383 153.578 108.853 153.578C109.693 153.578 110.323 153.758 110.733 154.118C111.153 154.478 111.353 154.968 111.353 155.578C111.353 156.018 111.242 156.408 111.022 156.738C110.802 157.068 110.453 157.318 109.963 157.488C109.473 157.658 108.833 157.738 108.053 157.698V156.958C108.643 156.998 109.113 156.958 109.463 156.858C109.813 156.748 110.052 156.588 110.202 156.378C110.352 156.168 110.423 155.898 110.423 155.588C110.423 155.218 110.293 154.918 110.043 154.688C109.783 154.468 109.413 154.348 108.913 154.348C108.753 154.348 108.623 154.348 108.503 154.358C108.393 154.358 108.273 154.378 108.163 154.398C108.143 154.538 108.133 154.758 108.123 155.068C108.123 155.378 108.113 155.948 108.113 156.798V158.838H108.123ZM110.993 160.548C110.903 160.448 110.813 160.328 110.723 160.188C110.623 160.058 110.523 159.898 110.393 159.718C110.363 159.668 110.323 159.618 110.293 159.558C110.253 159.498 110.213 159.438 110.163 159.368L108.603 157.098L109.673 157.208L110.923 159.028C110.963 159.088 111.003 159.148 111.043 159.208C111.083 159.268 111.133 159.328 111.163 159.388C111.323 159.618 111.493 159.828 111.653 160.038C111.813 160.238 111.953 160.408 112.062 160.538H110.993V160.548Z" fill="#D9D9D9"/>
<path d="M115.973 160.66C115.303 160.66 114.723 160.5 114.223 160.17C113.723 159.84 113.353 159.4 113.093 158.85C112.833 158.3 112.703 157.71 112.703 157.07C112.703 156.43 112.833 155.85 113.093 155.32C113.353 154.79 113.733 154.37 114.223 154.06C114.723 153.75 115.303 153.59 115.973 153.59C116.643 153.59 117.233 153.75 117.733 154.05C118.223 154.36 118.603 154.78 118.853 155.31C119.113 155.84 119.233 156.43 119.233 157.07C119.233 157.71 119.103 158.3 118.843 158.85C118.583 159.4 118.203 159.84 117.713 160.17C117.223 160.5 116.633 160.66 115.963 160.66M115.963 159.88C116.433 159.88 116.843 159.76 117.193 159.51C117.543 159.26 117.813 158.92 118.003 158.5C118.193 158.07 118.283 157.6 118.283 157.07C118.283 156.54 118.193 156.1 118.003 155.69C117.813 155.28 117.543 154.96 117.193 154.73C116.843 154.5 116.433 154.38 115.963 154.38C115.493 154.38 115.083 154.5 114.733 154.73C114.383 154.96 114.113 155.29 113.923 155.69C113.733 156.1 113.633 156.56 113.633 157.07C113.633 157.58 113.733 158.07 113.923 158.5C114.113 158.93 114.383 159.27 114.733 159.51C115.083 159.76 115.493 159.88 115.963 159.88Z" fill="#D9D9D9"/>
<path d="M133.564 160.538C133.534 160.378 133.484 160.148 133.404 159.848C133.324 159.548 133.214 159.148 133.064 158.638C133.004 158.418 132.934 158.188 132.864 157.928C132.794 157.668 132.714 157.388 132.634 157.088L132.184 155.498C132.124 155.278 132.074 155.098 132.024 154.938C131.974 154.778 131.934 154.638 131.894 154.518C131.844 154.358 131.794 154.208 131.754 154.078C131.714 153.948 131.654 153.818 131.594 153.678H132.824C132.794 153.868 132.794 154.068 132.814 154.268C132.844 154.468 132.914 154.828 133.054 155.318L133.644 157.538C133.724 157.858 133.794 158.148 133.864 158.418C133.934 158.688 133.994 158.938 134.044 159.178C134.084 159.358 134.124 159.548 134.164 159.728C134.204 159.908 134.244 160.098 134.274 160.288H134.044C134.044 160.288 134.064 160.188 134.074 160.128C134.084 160.068 134.094 160.008 134.114 159.948C134.204 159.388 134.274 158.968 134.334 158.668C134.394 158.368 134.484 157.998 134.604 157.538L135.094 155.638C135.144 155.458 135.194 155.258 135.234 155.058C135.274 154.858 135.324 154.648 135.354 154.428C135.384 154.318 135.404 154.198 135.434 154.088C135.464 153.978 135.484 153.868 135.504 153.748L136.444 153.648C136.484 153.848 136.524 154.038 136.564 154.218C136.604 154.398 136.644 154.588 136.694 154.778C136.724 154.928 136.764 155.078 136.794 155.218C136.834 155.358 136.864 155.498 136.894 155.628L137.384 157.528C137.504 157.938 137.594 158.288 137.644 158.568C137.704 158.848 137.764 159.218 137.834 159.678C137.854 159.788 137.874 159.898 137.894 159.998C137.914 160.098 137.934 160.188 137.954 160.288H137.714C137.714 160.228 137.744 160.128 137.774 159.998C137.804 159.868 137.844 159.748 137.874 159.628C137.974 159.138 138.054 158.758 138.114 158.508C138.174 158.258 138.244 157.928 138.354 157.538L138.934 155.388C139.064 154.888 139.144 154.528 139.174 154.308C139.194 154.088 139.194 153.878 139.154 153.678H140.404C140.404 153.678 140.384 153.728 140.374 153.758C140.364 153.788 140.354 153.808 140.354 153.828C140.254 154.058 140.174 154.288 140.104 154.508C140.034 154.728 139.944 155.058 139.814 155.498L139.314 157.298C139.014 158.408 138.804 159.158 138.694 159.558C138.614 159.848 138.554 160.058 138.524 160.178C138.494 160.298 138.474 160.418 138.464 160.538H137.264C137.264 160.438 137.244 160.308 137.214 160.148C137.184 159.988 137.144 159.808 137.094 159.598C137.054 159.418 136.984 159.138 136.884 158.788L136.374 156.878C136.244 156.418 136.124 155.938 136.024 155.448C135.954 155.058 135.904 154.738 135.874 154.458H136.154C136.084 154.888 136.004 155.318 135.914 155.738C135.854 156.048 135.754 156.428 135.634 156.878L135.124 158.798C135.094 158.908 135.064 159.018 135.034 159.128C135.004 159.228 134.984 159.338 134.954 159.438C134.894 159.668 134.844 159.888 134.804 160.078C134.764 160.268 134.734 160.428 134.724 160.548H133.534L133.564 160.538Z" fill="#D9D9D9"/>
<path d="M141.582 155.401C141.582 154.771 141.572 154.361 141.552 154.171C141.532 153.981 141.492 153.821 141.442 153.691H142.642C142.602 153.781 142.562 153.871 142.542 153.961C142.522 154.061 142.512 154.211 142.502 154.421C142.492 154.631 142.482 154.961 142.482 155.391V158.821C142.482 159.451 142.492 159.861 142.512 160.051C142.532 160.241 142.572 160.401 142.622 160.531H141.422C141.462 160.441 141.502 160.351 141.522 160.261C141.542 160.161 141.552 160.011 141.562 159.801C141.572 159.591 141.582 159.261 141.582 158.831V155.401Z" fill="#D9D9D9"/>
<path d="M145.44 158.881C145.44 159.301 145.44 159.621 145.46 159.821C145.47 160.021 145.48 160.181 145.5 160.271C145.52 160.361 145.55 160.451 145.6 160.541H144.46C144.5 160.451 144.54 160.361 144.56 160.271C144.58 160.181 144.59 160.031 144.6 159.821C144.6 159.621 144.62 159.301 144.62 158.881V156.681C144.62 156.071 144.62 155.551 144.61 155.111C144.61 154.671 144.59 154.351 144.56 154.151C144.53 153.951 144.49 153.811 144.43 153.711H145.75L149.27 159.191H149.26V155.361C149.26 154.941 149.26 154.621 149.25 154.421C149.24 154.221 149.23 154.071 149.21 153.981C149.19 153.891 149.16 153.801 149.11 153.711H150.25C150.21 153.801 150.18 153.891 150.16 153.981C150.14 154.071 150.12 154.221 150.11 154.431C150.1 154.631 150.09 154.951 150.09 155.361V157.551C150.09 158.641 150.1 159.371 150.12 159.751C150.14 160.131 150.19 160.401 150.27 160.551H149.16L145.45 154.861V158.891L145.44 158.881Z" fill="#D9D9D9"/>
<path d="M152.049 160.541C152.099 160.451 152.139 160.361 152.149 160.261C152.169 160.161 152.179 160.011 152.189 159.801C152.199 159.591 152.209 159.271 152.209 158.831V155.421C152.209 154.981 152.209 154.651 152.189 154.431C152.179 154.211 152.169 154.061 152.149 153.971C152.129 153.881 152.099 153.791 152.049 153.701H152.299C152.389 153.701 152.469 153.701 152.549 153.701C152.629 153.701 152.699 153.701 152.769 153.701L153.289 153.731C153.229 153.821 153.179 153.961 153.159 154.151C153.129 154.341 153.119 154.631 153.109 155.021C153.109 155.411 153.099 155.991 153.099 156.741V157.581C153.099 158.331 153.099 158.901 153.109 159.281C153.109 159.661 153.129 159.951 153.159 160.131C153.189 160.311 153.229 160.451 153.299 160.541H152.799L152.039 160.551L152.049 160.541ZM155.809 154.611C155.719 154.551 155.589 154.521 155.429 154.501C155.259 154.481 154.919 154.481 154.399 154.481H152.759L152.599 153.701H154.569C154.799 153.701 154.989 153.701 155.149 153.681C155.309 153.671 155.449 153.651 155.559 153.621L155.809 154.611ZM155.749 160.621C155.639 160.591 155.509 160.571 155.369 160.561C155.229 160.551 155.039 160.541 154.809 160.541H152.649L152.809 159.761H154.579C155.039 159.761 155.359 159.741 155.539 159.721C155.729 159.691 155.869 159.641 155.979 159.581H155.999L155.739 160.611L155.749 160.621ZM155.399 157.511C155.309 157.471 155.199 157.431 155.069 157.411C154.939 157.391 154.729 157.381 154.429 157.381H152.979V156.611H154.379C154.839 156.611 155.139 156.591 155.289 156.541L155.389 157.501L155.399 157.511Z" fill="#D9D9D9"/>
<path d="M128.593 160.539C128.313 160.319 128.023 159.999 127.773 159.689L127.193 158.969L126.773 159.569L126.873 159.689C127.043 159.909 127.173 160.069 127.243 160.169C127.323 160.279 127.363 160.349 127.383 160.399C127.403 160.449 127.403 160.489 127.403 160.539H128.603H128.593Z" fill="white"/>
<path d="M129.292 157.599L129.002 156.779C128.852 156.829 128.612 156.869 128.272 156.889C127.942 156.919 127.582 156.929 127.242 156.929C127.272 157.069 127.272 157.149 127.272 157.399C127.272 157.609 127.172 158.219 126.982 158.599C126.972 158.619 126.962 158.639 126.952 158.659C126.512 158.129 125.832 157.339 125.472 156.919C125.712 156.749 125.922 156.609 126.082 156.479C126.302 156.309 126.482 156.089 126.642 155.839C126.802 155.589 126.872 155.309 126.872 154.989C126.872 154.709 126.812 154.459 126.682 154.239C126.552 154.019 126.372 153.849 126.142 153.719C125.902 153.599 125.622 153.539 125.302 153.539C124.942 153.539 124.632 153.609 124.362 153.749C124.092 153.889 123.892 154.079 123.742 154.319C123.592 154.559 123.522 154.829 123.522 155.129C123.522 155.389 123.582 155.639 123.692 155.869C123.802 156.099 123.942 156.319 124.112 156.519C124.192 156.609 124.282 156.719 124.382 156.829C124.152 156.989 123.952 157.129 123.782 157.269C123.522 157.479 123.312 157.729 123.122 158.029C122.932 158.329 122.852 158.669 122.852 159.049C122.852 159.359 122.932 159.639 123.102 159.869C123.262 160.109 123.492 160.299 123.782 160.429C124.072 160.559 124.392 160.629 124.742 160.629C125.402 160.629 125.982 160.459 126.462 160.129C126.942 159.799 127.312 159.379 127.572 158.879C127.802 158.429 127.942 157.989 127.972 157.569H129.322L129.292 157.599ZM124.562 154.469C124.742 154.299 124.962 154.219 125.242 154.219C125.522 154.219 125.742 154.299 125.892 154.459C126.052 154.619 126.132 154.829 126.132 155.099C126.132 155.289 126.072 155.469 125.952 155.629C125.832 155.789 125.682 155.939 125.502 156.079C125.382 156.179 125.212 156.289 125.022 156.419C124.822 156.169 124.662 155.969 124.552 155.809C124.382 155.559 124.292 155.329 124.292 155.109C124.292 154.849 124.382 154.639 124.552 154.469H124.562ZM126.162 159.559C125.802 159.809 125.382 159.929 124.892 159.929C124.642 159.929 124.432 159.879 124.242 159.789C124.062 159.699 123.912 159.579 123.812 159.419C123.712 159.269 123.662 159.099 123.662 158.929C123.662 158.669 123.732 158.439 123.862 158.229C123.992 158.029 124.162 157.839 124.362 157.689C124.482 157.589 124.642 157.479 124.822 157.359C125.182 157.729 125.472 158.059 125.702 158.339C125.902 158.599 126.192 158.929 126.472 159.289C126.372 159.379 126.272 159.469 126.152 159.549L126.162 159.559Z" fill="#D9D9D9"/>
</g>
<defs>
<clipPath id="clip0_4072_3069">
<rect width="155.65" height="101.82" fill="white" transform="translate(42 69)"/>
</clipPath>
</defs>
</svg>
