<svg width="240" height="240" viewBox="0 0 240 240" fill="none" xmlns="http://www.w3.org/2000/svg">
<g clip-path="url(#clip0_4072_3512)">
<path d="M75.2889 154.55C75.1318 155.17 75.0533 155.586 74.9119 155.987C74.6291 156.796 73.9536 157.204 73.1446 157.094C72.2963 156.984 71.7858 156.466 71.6915 155.586C71.6601 155.256 71.6758 154.919 71.6758 154.581C71.6758 148.698 71.6758 142.815 71.6758 136.932C71.6758 136.743 71.6758 136.547 71.6758 136.358C71.7308 135.094 72.2413 134.528 73.3567 134.512C74.5035 134.489 75.1083 135.117 75.1318 136.437C75.1554 138.353 75.1318 140.262 75.1397 142.178C75.1397 142.65 75.1397 143.113 75.1397 143.914C75.7131 143.451 76.043 143.215 76.3336 142.933C78.9963 140.333 84.6281 140.395 86.4739 145.038C87.6836 148.077 87.6129 151.133 86.1441 154.063C84.0469 158.257 78.8392 157.911 76.4593 155.665C76.1215 155.343 75.7759 155.013 75.2889 154.55ZM83.8112 149.295C83.5442 148.124 83.3871 146.938 82.9943 145.831C82.5388 144.535 81.5569 143.726 80.1195 143.584C78.4308 143.42 76.907 143.765 76.0508 145.352C74.6449 147.983 74.7156 150.693 76.1372 153.285C76.9227 154.73 78.3837 155.139 79.9467 155.06C81.4313 154.989 82.4838 154.157 82.9629 152.79C83.3557 151.683 83.5285 150.497 83.8112 149.287V149.295Z" fill="#D9D9D9"/>
<path d="M167.488 143.944C167.566 143.764 167.606 143.559 167.731 143.418C169.499 141.305 171.776 140.834 174.337 141.509C176.379 142.051 177.73 143.921 177.769 146.285C177.824 149.301 177.785 152.309 177.785 155.326C177.785 155.42 177.785 155.514 177.785 155.616C177.691 156.567 177.157 157.069 176.199 157.116C175.327 157.156 174.573 156.606 174.416 155.773C174.353 155.451 174.384 155.106 174.384 154.768C174.384 152.569 174.384 150.369 174.384 148.17C174.384 147.832 174.384 147.502 174.384 147.165C174.329 144.942 173.222 143.646 171.321 143.591C168.949 143.512 167.213 144.918 167.056 147.086C167.001 147.848 167.032 148.618 167.024 149.38C167.024 151.194 167.071 153.016 166.993 154.831C166.969 155.459 166.757 156.174 166.372 156.653C165.948 157.187 165.202 157.258 164.519 156.983C163.827 156.708 163.45 156.197 163.45 155.443C163.45 148.987 163.435 142.53 163.458 136.074C163.458 135.163 164.095 134.613 165.021 134.526C165.933 134.44 166.639 134.872 166.875 135.736C166.985 136.145 167.009 136.584 167.016 137.009C167.032 138.776 167.016 140.551 167.016 142.318C167.016 142.782 167.016 143.253 167.016 143.716C167.174 143.795 167.331 143.873 167.488 143.952V143.944Z" fill="#D9D9D9"/>
<path d="M189.791 148.191C190.184 148.654 190.474 149.024 190.796 149.369C192.249 150.956 193.702 152.535 195.163 154.121C195.328 154.294 195.493 154.467 195.635 154.655C196.2 155.394 196.2 155.991 195.65 156.58C195.132 157.13 194.354 157.255 193.695 156.823C193.302 156.564 192.964 156.211 192.642 155.857C190.922 153.933 189.217 151.993 187.513 150.053C187.199 149.699 186.924 149.314 186.625 148.945C186.508 148.992 186.382 149.047 186.264 149.094C186.209 149.487 186.115 149.88 186.107 150.265C186.091 151.891 186.091 153.516 186.107 155.142C186.107 155.912 185.926 156.548 185.149 156.902C184.01 157.412 182.871 156.823 182.682 155.582C182.635 155.252 182.651 154.915 182.651 154.577C182.651 148.694 182.651 142.811 182.651 136.935C182.651 136.747 182.651 136.55 182.651 136.362C182.714 135.137 183.287 134.508 184.348 134.492C185.424 134.477 186.044 135.105 186.099 136.307C186.131 137.069 186.107 137.839 186.107 138.6C186.107 141.09 186.107 143.572 186.107 146.062C186.107 146.51 186.186 146.958 186.264 147.743C186.869 147.217 187.222 146.926 187.552 146.62C188.997 145.3 190.443 143.973 191.888 142.653C192.241 142.331 192.595 142.002 192.996 141.742C193.773 141.232 194.669 141.389 195.156 142.072C195.611 142.708 195.517 143.266 194.747 143.934C193.168 145.316 191.558 146.667 189.791 148.175V148.191Z" fill="#D9D9D9"/>
<path d="M136.808 157.24C133.634 157.326 131.184 156.281 129.621 153.626C127.79 150.508 128.136 146.526 130.39 143.832C132.134 141.75 134.522 141.138 137.098 141.232C138.221 141.271 139.4 141.507 140.444 141.931C142.942 142.952 144.332 144.963 144.796 147.578C145.33 150.587 144.701 153.297 142.353 155.409C140.735 156.863 138.779 157.365 136.808 157.24ZM132.268 149.251C132.213 150.705 132.48 152.087 133.352 153.304C135.08 155.716 138.481 155.732 140.13 153.273C141.701 150.932 141.63 147.641 140.13 145.277C138.567 142.819 134.585 143.046 133.226 145.411C132.535 146.612 132.213 147.869 132.268 149.251Z" fill="#D9D9D9"/>
<path d="M48.0943 137.391C48.0943 138.192 48.0943 138.71 48.0943 139.229C48.0943 144.35 48.1022 149.479 48.0786 154.6C48.0786 155.15 48 155.763 47.7566 156.234C47.356 156.988 46.3349 157.279 45.4866 157.051C44.5754 156.808 44.1434 156.234 44.1356 155.127C44.1199 152.299 44.1356 149.479 44.1356 146.652C44.1356 144.209 44.1356 141.766 44.1356 139.323C44.1356 138.035 43.4679 137.391 42.1326 137.391C41.0801 137.391 40.0276 137.391 38.9751 137.391C37.5769 137.375 37.0742 137.014 37.0114 136.048C36.9564 135.239 37.5298 134.453 38.9436 134.469C43.2558 134.524 47.5602 134.485 51.8724 134.493C52.4929 134.493 53.1213 134.461 53.7339 134.532C54.7236 134.65 55.1713 135.294 55.0142 136.236C54.8964 136.967 54.488 137.336 53.6004 137.375C52.3594 137.422 51.1105 137.399 49.8695 137.399C49.3589 137.399 48.8405 137.399 48.11 137.399L48.0943 137.391Z" fill="#D9D9D9"/>
<path d="M102.004 149.794C101.721 152.363 103.795 155.057 107.172 154.774C108.248 154.68 109.301 154.279 110.353 153.989C110.675 153.902 110.958 153.706 111.272 153.588C111.759 153.407 112.301 153.109 112.686 153.706C113.04 154.256 112.914 154.853 112.443 155.269C111.948 155.709 111.406 156.141 110.809 156.408C108.547 157.429 106.151 157.555 103.787 156.934C98.8777 155.654 97.4953 150.242 98.6971 146.707C100.559 141.201 106.34 140.062 110.275 142.183C112.804 143.542 113.739 145.906 113.715 148.679C113.715 149.527 113.464 149.692 112.348 149.7C109.427 149.716 106.512 149.7 103.591 149.708C103.08 149.708 102.562 149.755 102.004 149.779V149.794ZM110.605 148.011C110.526 146.33 110.078 145.019 108.759 144.21C107.266 143.291 105.656 143.244 104.132 144.108C102.711 144.909 102.114 146.252 101.933 147.988C104.894 148.09 107.675 148.066 110.605 148.011Z" fill="#D9D9D9"/>
<path d="M63.8404 154.846C63.5655 155.081 63.3849 155.215 63.2278 155.38C61.2327 157.5 58.7899 157.618 56.2136 156.849C54.6662 156.385 53.7237 155.215 53.4487 153.652C53.1503 151.947 53.5823 150.416 55.004 149.292C56.2529 148.303 57.7217 147.918 59.269 147.784C60.7379 147.651 62.2145 147.588 63.6912 147.494C64.3588 145.805 63.6441 144.336 61.9318 143.857C60.3844 143.425 58.8999 143.802 57.4232 144.226C56.9676 144.36 56.5356 144.572 56.0801 144.729C55.5381 144.909 55.0275 144.894 54.6898 144.352C54.3756 143.849 54.6427 143.448 54.949 143.056C55.7109 142.09 56.8027 141.705 57.9337 141.501C59.6303 141.194 61.3427 141.1 63.0628 141.43C65.5135 141.901 67.0844 143.582 67.1394 146.088C67.2101 149.198 67.1708 152.309 67.1551 155.411C67.1551 156.464 66.676 157.013 65.7962 157.108C64.9479 157.194 64.3117 156.715 64.0525 155.772C63.9818 155.513 63.919 155.246 63.8247 154.846H63.8404ZM63.7933 149.638C62.623 149.638 61.5233 149.599 60.4315 149.654C59.4183 149.709 58.4522 149.991 57.6431 150.643C56.3314 151.704 56.3393 153.589 57.7138 154.571C58.1929 154.916 58.8292 155.144 59.4183 155.207C62.3952 155.552 64.5866 152.662 63.7933 149.638Z" fill="#D9D9D9"/>
<path d="M122.374 141.425C123.246 141.425 123.914 141.401 124.574 141.433C124.896 141.448 125.249 141.496 125.532 141.645C126.027 141.904 126.066 142.407 125.995 142.902C125.917 143.396 125.61 143.656 125.115 143.679C124.683 143.703 124.251 143.679 123.827 143.703C123.364 143.726 122.908 143.789 122.374 143.836C122.343 144.386 122.296 144.81 122.288 145.226C122.28 147.237 122.288 149.24 122.288 151.251C122.288 151.487 122.288 151.73 122.311 151.966C122.555 153.977 122.633 154.888 125.17 154.652C126.207 154.558 126.474 154.786 126.6 155.445C126.757 156.27 126.474 156.765 125.532 157.008C124.173 157.362 122.775 157.409 121.424 157.008C119.633 156.49 119.138 154.974 118.918 153.348C118.816 152.594 118.847 151.824 118.847 151.055C118.84 148.997 118.855 146.939 118.84 144.889C118.832 143.828 118.73 143.75 117.701 143.679C117.465 143.663 117.222 143.671 116.986 143.663C116.35 143.632 116.036 143.271 115.988 142.658C115.941 142.03 116.31 141.558 116.955 141.441C117.229 141.386 117.528 141.417 117.811 141.401C118.973 141.346 119.067 141.26 119.146 140.042C119.209 139.092 119.185 138.126 119.311 137.183C119.437 136.225 119.947 135.769 120.772 135.675C121.707 135.573 122.241 135.989 122.288 136.932C122.327 137.89 122.288 138.841 122.304 139.799C122.304 140.262 122.351 140.726 122.39 141.401L122.374 141.425Z" fill="#D9D9D9"/>
<path d="M155.52 157.256C150.399 157.421 147.909 153.376 147.846 149.731C147.815 148.019 148.082 146.417 148.962 144.916C150.572 142.175 153.07 141.178 156.086 141.233C156.981 141.248 157.877 141.508 158.756 141.735C159.204 141.853 159.644 142.104 160.029 142.379C160.539 142.741 160.696 143.518 160.437 144.052C160.147 144.665 159.605 144.626 159.078 144.508C158.568 144.398 158.073 144.202 157.562 144.076C154.664 143.346 152.394 144.673 151.648 147.548C151.247 149.079 151.381 150.58 152.041 152.025C152.912 153.941 154.805 154.939 156.863 154.554C157.61 154.413 158.34 154.153 159.07 153.949C159.982 153.69 160.476 153.8 160.72 154.311C161.018 154.955 160.83 155.748 160.052 156.125C159.125 156.581 158.104 156.879 157.107 157.162C156.612 157.303 156.062 157.233 155.536 157.264L155.52 157.256Z" fill="#D9D9D9"/>
<path d="M91.013 145.75C91.013 142.639 90.9973 139.537 91.013 136.426C91.0209 135.177 91.5943 134.565 92.6625 134.518C93.5422 134.486 94.1313 134.847 94.4141 135.696C94.5476 136.096 94.5947 136.536 94.5947 136.96C94.6026 142.891 94.5947 148.821 94.5947 154.751C94.5947 154.94 94.6026 155.136 94.579 155.324C94.4377 156.424 93.6915 157.123 92.6939 157.123C91.665 157.123 91.0209 156.44 91.0052 155.23C90.9816 152.073 90.9973 148.915 90.9973 145.765L91.013 145.75Z" fill="#D9D9D9"/>
<path d="M199.293 149.19C199.293 147.281 199.285 145.373 199.293 143.464C199.3 142.113 199.866 141.453 200.95 141.438C201.885 141.43 202.756 142.207 202.733 143.401C202.654 147.313 202.717 151.232 202.694 155.144C202.694 156.495 201.806 157.288 200.644 157.076C199.748 156.911 199.308 156.393 199.3 155.348C199.277 153.298 199.3 151.24 199.3 149.19H199.293Z" fill="#D9D9D9"/>
<path d="M200.93 137.665C200.71 137.633 200.42 137.633 200.145 137.555C199.343 137.335 198.794 136.604 198.856 135.89C198.919 135.143 199.532 134.57 200.396 134.476C200.726 134.437 201.064 134.437 201.393 134.468C202.399 134.57 203.019 135.214 202.996 136.11C202.972 136.926 202.383 137.5 201.417 137.626C201.276 137.641 201.134 137.649 200.93 137.665Z" fill="#D9D9D9"/>
<path d="M146.468 86.2048C146.334 82.576 144.857 79.654 142.077 77.384C139.053 74.9098 135.448 74.038 131.646 73.9751C127.829 73.9201 124.145 74.7842 120.626 76.2451C119.809 76.5829 119.134 76.575 118.317 76.2451C113.902 74.4935 109.362 73.5824 104.579 74.1715C101.468 74.5564 98.6251 75.5696 96.1744 77.5411C93.7159 79.5127 92.1607 82.0497 91.8936 85.2308C91.603 88.7497 92.0193 92.2058 93.2211 95.5518C94.6899 99.6441 97.2112 103.045 100.196 106.14C103.299 109.36 106.802 112.109 110.501 114.599C113.353 116.524 116.306 118.299 119.243 120.168C121.623 118.692 123.933 117.333 126.171 115.864C131.033 112.683 135.62 109.164 139.501 104.805C144.213 99.5027 146.743 93.3997 146.483 86.2205L146.468 86.2048ZM138.299 89.1189C137.985 92.3079 136.587 94.947 134.411 97.2327C131.913 99.864 128.92 101.828 125.857 103.705C125.268 104.066 124.75 104.09 124.137 103.705C120.689 101.529 117.351 99.2278 114.696 96.0702C112.858 93.8866 111.656 91.4439 111.412 88.5769C111.161 85.6236 112.716 82.9608 116.141 81.9319C117.091 81.6413 118.105 81.5941 119.094 81.4292C120.767 81.4763 122.346 81.8612 123.886 82.411C124.647 82.6859 125.331 82.6702 126.085 82.3875C128.371 81.5234 130.727 81.2407 133.13 81.7984C136.72 82.6309 138.66 85.4508 138.299 89.1189Z" fill="#D9D9D9"/>
<path d="M127.437 89.7375C128.285 89.7375 128.984 89.7218 129.691 89.7375C131.058 89.7768 131.969 90.6643 131.984 91.9525C131.992 93.2328 131.081 94.1518 129.722 94.1989C129.015 94.2225 128.309 94.1989 127.46 94.1989C127.421 94.9058 127.405 95.4635 127.358 96.0134C127.28 96.9716 126.934 97.7649 125.991 98.1969C124.554 98.8567 122.983 97.9613 122.842 96.3825C122.787 95.7306 122.771 95.0708 122.724 94.2775C122.111 94.2461 121.601 94.2225 121.098 94.1989C119.684 94.1204 118.859 93.2799 118.867 91.9368C118.867 90.5936 119.7 89.7925 121.137 89.7296C121.561 89.7139 121.993 89.7296 122.394 89.7296C123.014 89.1248 122.802 88.4179 122.818 87.7817C122.842 87.0512 122.834 86.3207 123.47 85.818C124.13 85.2918 124.845 84.9854 125.724 85.3075C126.62 85.6374 127.17 86.2422 127.295 87.169C127.397 87.9231 127.382 88.685 127.437 89.7218V89.7375Z" fill="#D9D9D9"/>
</g>
<defs>
<clipPath id="clip0_4072_3512">
<rect width="166" height="83.3378" fill="white" transform="translate(37 73.9727)"/>
</clipPath>
</defs>
</svg>
