<svg width="240" height="240" viewBox="0 0 240 240" fill="none" xmlns="http://www.w3.org/2000/svg">
<g clip-path="url(#clip0_4072_3619)">
<path d="M21 115.52V119.481H27.0336V141.685H31.2915V119.481H37.3251V115.52H21Z" fill="#D9D9D9"/>
<path d="M36.7578 132.335C36.7578 129.819 37.7735 127.404 39.5829 125.622C41.3923 123.839 43.8475 122.844 46.4036 122.844C48.9596 122.844 51.4148 123.839 53.2242 125.622C55.0336 127.404 56.0493 129.812 56.0493 132.335C56.0493 132.812 56.0089 133.283 55.9349 133.754H41.1704C41.4192 134.965 42.0919 136.055 43.0672 136.828C44.0426 137.608 45.2668 138.025 46.5179 138.012C48.4551 138.012 50.0157 137.413 50.8094 136.202H55.7937C54.5022 139.599 50.8094 141.88 46.5314 141.88C45.2466 141.893 43.9753 141.658 42.7914 141.187C41.6009 140.716 40.5246 140.01 39.6166 139.122C38.7085 138.234 37.9888 137.171 37.4977 136.007C37.0067 134.844 36.7578 133.593 36.7713 132.328M51.5022 130.236C50.9305 128.07 48.8789 126.577 46.417 126.577C43.9551 126.577 41.8968 128.07 41.3318 130.229H51.5089L51.5022 130.236Z" fill="#D9D9D9"/>
<path d="M59.0859 132.335C59.0859 126.846 63.2227 122.783 68.7922 122.783C70.0837 122.756 71.3752 122.992 72.5725 123.483C73.7698 123.974 74.846 124.7 75.7406 125.622L72.6801 128.339C72.1958 127.801 71.5972 127.371 70.9312 127.082C70.2653 126.792 69.5389 126.644 68.8057 126.658C65.5366 126.658 63.3371 128.978 63.3371 132.335C63.3371 135.691 65.5366 138.012 68.8057 138.012C72.0747 138.012 74.3146 135.685 74.3146 132.335H78.4918C78.4918 137.79 74.3146 141.886 68.8124 141.886C63.2362 141.9 59.0859 137.824 59.0859 132.335Z" fill="#D9D9D9"/>
<path d="M82.4844 115.521L86.6615 115.07V125.12C87.7983 123.781 89.6211 122.765 92.0898 122.765C96.6032 122.765 99.3812 125.49 99.3812 130.46V141.667H95.2108V131.355C95.2108 128.443 93.9597 126.647 91.0741 126.647C88.3767 126.647 86.675 128.624 86.675 131.355V141.667H82.4978V115.521H82.4844Z" fill="#D9D9D9"/>
<path d="M103.054 133.492H107.305C107.305 135.92 108.899 137.938 111.597 137.938C114.294 137.938 115.888 136.109 115.888 133.492C115.888 129.644 112.397 129.57 108.671 128.151C106.243 127.216 104.5 125.124 104.5 122.171C104.5 118.135 107.534 115.297 111.482 115.297C114.785 115.297 116.911 116.864 118.162 119.185L114.933 121.465C114.287 120.046 113.07 119.259 111.597 119.259C109.848 119.259 108.671 120.416 108.671 121.949C108.671 124.452 111.213 124.68 114.704 125.985C118.007 127.216 120.133 129.382 120.133 133.384C120.133 138.241 116.373 141.907 111.59 141.907C110.467 141.92 109.35 141.705 108.308 141.288C107.265 140.871 106.323 140.252 105.523 139.465C104.729 138.685 104.097 137.75 103.673 136.727C103.249 135.705 103.034 134.602 103.047 133.499" fill="#D9D9D9"/>
<path d="M125.365 126.879H121.531V122.991H125.365V115.518L129.536 115.074V122.991H135.233V126.879H129.536V141.671H125.365V126.879Z" fill="#D9D9D9"/>
<path d="M136.211 132.337C136.211 126.734 140.314 122.785 145.742 122.785C148.251 122.785 150.377 123.942 151.171 124.951V123H155.422V141.68H151.171V139.743C150.384 140.752 148.285 141.908 145.742 141.908C140.314 141.908 136.211 137.947 136.211 132.343M151.319 132.343C151.319 128.906 148.958 126.74 145.89 126.74C142.823 126.74 140.307 128.906 140.307 132.343C140.307 135.781 142.736 137.947 145.89 137.947C149.045 137.947 151.319 135.781 151.319 132.343Z" fill="#D9D9D9"/>
<path d="M162.701 126.879H158.867V122.991H162.701V115.518L166.865 115.074V122.991H172.562V126.879H166.865V141.671H162.701V126.879Z" fill="#D9D9D9"/>
<path d="M173.564 132.336C173.544 131.078 173.779 129.827 174.25 128.657C174.727 127.486 175.434 126.424 176.328 125.522C177.223 124.621 178.299 123.908 179.476 123.424C180.653 122.939 181.925 122.684 183.203 122.684C184.481 122.684 185.752 122.932 186.929 123.424C188.106 123.908 189.183 124.621 190.077 125.522C190.972 126.417 191.685 127.486 192.156 128.657C192.633 129.827 192.862 131.078 192.842 132.336C192.842 132.814 192.808 133.284 192.727 133.755H177.956C178.205 134.966 178.878 136.056 179.853 136.829C180.828 137.603 182.052 138.027 183.31 138.013C185.248 138.013 186.801 137.415 187.602 136.204H192.586C191.295 139.601 187.602 141.881 183.324 141.881C182.039 141.894 180.768 141.659 179.584 141.188C178.393 140.717 177.317 140.011 176.409 139.123C175.501 138.235 174.781 137.172 174.29 136.009C173.799 134.845 173.557 133.594 173.564 132.329M188.295 130.237C187.723 128.071 185.671 126.578 183.203 126.578C180.734 126.578 178.683 128.071 178.118 130.231H188.295V130.237Z" fill="#D9D9D9"/>
<path d="M194.913 139.097C194.913 138.552 195.088 138.02 195.404 137.57C195.72 137.119 196.157 136.769 196.675 136.568C197.193 136.366 197.752 136.312 198.296 136.426C198.841 136.534 199.339 136.803 199.722 137.193C200.113 137.583 200.375 138.074 200.482 138.612C200.59 139.144 200.53 139.702 200.314 140.207C200.099 140.711 199.743 141.142 199.278 141.444C198.814 141.747 198.276 141.908 197.718 141.908C196.971 141.902 196.252 141.606 195.727 141.081C195.202 140.556 194.906 139.85 194.906 139.11" fill="#D9D9D9"/>
<path d="M211.272 121.049L200.328 125.623L198.701 132.982H197.281V110.361L211.272 104.516V121.049Z" fill="#D9D9D9"/>
<path d="M211.266 102.215L218.994 99V115.52L211.266 118.749V102.215Z" fill="#D9D9D9"/>
</g>
<defs>
<clipPath id="clip0_4072_3619">
<rect width="198" height="42.9013" fill="white" transform="translate(21 99)"/>
</clipPath>
</defs>
</svg>
