<svg width="240" height="240" viewBox="0 0 240 240" fill="none" xmlns="http://www.w3.org/2000/svg">
<g clip-path="url(#clip0_4072_3310)">
<path d="M57.1038 120.447C57.4587 120.411 57.7989 120.338 58.1464 120.338C62.9897 120.338 67.8403 120.287 72.6835 120.36C74.5247 120.389 76.4028 120.308 78.2144 120.769C78.8577 120.937 79.5084 121.127 80.1148 121.39C81.6306 122.048 82.3774 123.29 82.6436 124.847C82.9616 126.666 82.8285 128.508 82.7619 130.335C82.7323 131.058 82.4588 131.789 82.1926 132.476C81.8672 133.302 81.1869 133.843 80.4031 134.237C80.1665 134.354 79.9299 134.471 79.6563 134.603C80.9429 135.005 82.0077 135.633 82.7323 136.744C83.2278 137.497 83.5087 138.33 83.6049 139.199C83.8119 141.158 83.8341 143.131 83.6049 145.089C83.3535 147.275 82.2443 148.86 80.1222 149.672C79.087 150.066 78.0222 150.337 76.9131 150.388C75.412 150.461 73.9036 150.541 72.4026 150.548C67.6406 150.57 62.8713 150.556 58.1094 150.556C57.7915 150.556 57.4809 150.556 57.1926 150.556C57.0003 149.891 56.9338 121.938 57.1112 120.44L57.1038 120.447ZM67.3523 143.928C68.0473 143.928 68.6611 143.928 69.2748 143.928C70.0808 143.928 70.8867 143.964 71.6853 143.898C73.0754 143.789 73.5782 143.087 73.5339 142.057C73.5043 141.45 73.5413 140.836 73.5191 140.23C73.4821 139.375 73.1198 138.885 72.2473 138.746C71.4339 138.615 70.5984 138.615 69.7702 138.585C68.9716 138.564 68.1804 138.585 67.3449 138.585V143.935L67.3523 143.928ZM67.3449 131.446C68.4466 131.446 69.467 131.46 70.4874 131.446C71.0198 131.431 71.5596 131.38 72.0846 131.285C72.8906 131.131 73.2825 130.671 73.3416 129.853C73.3712 129.458 73.3564 129.056 73.3564 128.654C73.349 127.302 72.8684 126.776 71.5226 126.63C71.3895 126.615 71.2564 126.615 71.116 126.615C70.0364 126.615 68.9642 126.615 67.8847 126.615C67.7072 126.615 67.5297 126.659 67.3449 126.688V131.453V131.446Z" fill="#D9D9D9"/>
<path d="M181.85 140.975H167.158C167.136 142.21 167.01 143.394 167.357 144.556C167.542 145.185 167.971 145.623 168.674 145.682C169.147 145.718 169.627 145.747 170.101 145.711C170.803 145.652 171.225 145.199 171.387 144.564C171.55 143.928 171.639 143.263 171.727 142.612C171.809 141.984 171.868 141.889 172.526 141.889C175.461 141.882 178.397 141.889 181.325 141.889C181.51 141.889 181.687 141.933 181.909 141.962C181.931 142.167 181.991 142.342 181.976 142.517C181.828 143.964 181.702 145.419 181.251 146.822C180.689 148.59 179.521 149.752 177.724 150.227C176.585 150.527 175.417 150.768 174.249 150.841C172.075 150.973 169.894 151.046 167.72 150.98C165.716 150.921 163.69 150.907 161.723 150.403C161.279 150.293 160.836 150.169 160.414 150.008C158.61 149.306 157.656 147.918 157.368 146.098C157.168 144.849 157.087 143.562 157.065 142.298C157.02 140.12 157.02 137.935 157.065 135.758C157.094 134.435 157.168 133.105 157.368 131.797C157.671 129.809 158.75 128.384 160.754 127.719C161.937 127.324 163.15 127.083 164.377 127.032C166.899 126.915 169.435 126.827 171.957 126.886C173.665 126.93 175.38 127.017 177.066 127.427C180.016 128.128 181.185 129.772 181.628 132.345C182.101 135.078 181.983 137.855 181.954 140.61C181.954 140.683 181.909 140.756 181.843 140.983L181.85 140.975ZM167.165 136.05H171.683C171.757 135.078 171.764 134.157 171.528 133.251C171.335 132.513 170.818 132.089 170.027 132.023C169.657 131.994 169.272 131.994 168.903 132.023C167.978 132.089 167.498 132.52 167.283 133.404C167.076 134.267 167.121 135.129 167.165 136.064V136.05Z" fill="#D9D9D9"/>
<path d="M109.95 138.882C109.95 140.556 109.994 142.237 109.935 143.903C109.898 144.875 109.743 145.854 109.529 146.804C109.107 148.653 107.798 149.713 106.031 150.188C104.819 150.509 103.561 150.743 102.319 150.823C100.071 150.962 97.8088 151.035 95.5535 150.97C93.5201 150.911 91.4719 150.904 89.4754 150.385C89.0318 150.268 88.5955 150.144 88.174 149.983C86.4438 149.303 85.4899 147.988 85.172 146.227C84.9871 145.189 84.8836 144.122 84.8614 143.063C84.817 140.271 84.817 137.479 84.8614 134.688C84.8762 133.526 84.9723 132.364 85.2607 131.224C85.7117 129.448 86.8061 128.301 88.5511 127.716C89.7268 127.314 90.9469 127.08 92.1743 127.029C94.7771 126.912 97.3873 126.832 99.9901 126.883C101.831 126.919 103.695 126.985 105.499 127.468C106.852 127.826 108.087 128.374 108.893 129.587C109.055 129.828 109.196 130.091 109.307 130.354C109.721 131.37 109.943 132.437 109.95 133.533C109.965 135.316 109.95 137.092 109.95 138.875H109.958L109.95 138.882ZM95.0803 138.846C95.0803 140.256 95.0581 141.667 95.0951 143.077C95.1098 143.574 95.2356 144.071 95.3613 144.553C95.5535 145.277 96.0859 145.679 96.8031 145.774C97.269 145.84 97.7644 145.774 98.245 145.715C98.8957 145.628 99.3172 145.204 99.4872 144.604C99.6499 144.02 99.7978 143.413 99.8126 142.814C99.8496 140.205 99.8496 137.596 99.8126 134.995C99.8052 134.395 99.6499 133.789 99.4872 133.204C99.3246 132.634 98.9105 132.196 98.3116 132.115C97.7348 132.035 97.1359 132.057 96.5591 132.13C95.9824 132.203 95.5905 132.605 95.4204 133.146C95.2651 133.65 95.1172 134.176 95.1025 134.695C95.0581 136.076 95.0877 137.465 95.0877 138.846H95.0803Z" fill="#D9D9D9"/>
<path d="M145.323 103.894H134.986C134.949 103.734 134.882 103.587 134.882 103.434C134.838 102.257 135.001 101.103 135.304 99.97C135.784 98.165 136.916 96.908 138.735 96.3599C139.755 96.053 140.82 95.8411 141.877 95.7241C144.665 95.4172 147.467 95.483 150.262 95.5853C152.163 95.6511 154.063 95.7972 155.889 96.4695C157.96 97.2296 159.039 98.7131 159.209 100.84C159.32 102.214 159.342 103.595 159.35 104.976C159.372 108.623 159.365 112.269 159.387 115.908C159.387 116.727 159.49 117.553 159.535 118.371C159.549 118.627 159.535 118.89 159.535 119.117C158.751 119.307 150.876 119.307 150.159 119.131C149.981 118.393 150.114 117.619 150.04 116.8C148.85 118.934 146.854 119.489 144.65 119.577C143.016 119.643 141.367 119.716 139.762 119.255C139.274 119.117 138.779 118.963 138.321 118.766C136.376 117.918 135.378 116.376 135.045 114.345C134.793 112.781 134.845 111.217 135.067 109.66C135.318 107.863 136.383 106.686 138.084 106.043C139.319 105.582 140.605 105.305 141.907 105.107C143.948 104.801 145.988 104.486 148.029 104.172C148.111 104.157 148.192 104.15 148.266 104.128C149.582 103.785 150.055 102.974 149.708 101.673C149.582 101.198 149.294 100.884 148.798 100.752C148.029 100.547 147.268 100.525 146.491 100.73C145.937 100.876 145.596 101.205 145.493 101.753C145.419 102.14 145.367 102.535 145.33 102.93C145.308 103.215 145.33 103.5 145.33 103.887L145.323 103.894ZM149.737 109.982C148.761 110.267 147.837 110.537 146.913 110.808C146.55 110.91 146.188 110.998 145.841 111.144C145.012 111.48 144.85 111.816 144.99 112.788C145.072 113.343 145.463 113.636 146.188 113.753C146.802 113.848 147.408 113.833 148.022 113.753C149.205 113.592 149.693 112.912 149.722 111.896C149.745 111.261 149.722 110.625 149.722 109.982H149.737Z" fill="#D9D9D9"/>
<path d="M91.4331 107.518C91.4331 105.925 91.4035 104.324 91.4405 102.731C91.47 101.511 91.6031 100.305 92.0468 99.1431C92.6014 97.6815 93.7105 96.8192 95.1598 96.3588C96.439 95.9495 97.7626 95.7157 99.1083 95.6938C101.852 95.6499 104.587 95.5403 107.331 95.5914C109.068 95.6207 110.806 95.7814 112.499 96.2784C115.132 97.0603 116.145 98.6681 116.389 101.255C116.751 105.048 116.507 108.848 116.522 112.648C116.522 113.51 116.359 114.395 116.167 115.242C115.768 117.018 114.644 118.195 112.906 118.779C111.782 119.159 110.621 119.327 109.445 119.444C106.333 119.744 103.212 119.598 100.099 119.569C98.5464 119.554 96.9936 119.371 95.4925 118.94C93.9545 118.494 92.6975 117.676 92.0912 116.141C91.8619 115.557 91.6845 114.921 91.6179 114.3C91.4996 113.218 91.47 112.129 91.4405 111.048C91.4109 109.878 91.4405 108.709 91.4405 107.54L91.4331 107.518ZM106.303 107.613C106.303 106.1 106.355 104.58 106.288 103.067C106.222 101.394 105.556 100.583 103.7 100.714C102.665 100.787 102.081 101.167 101.866 102.169C101.696 102.965 101.6 103.791 101.578 104.609C101.534 105.961 101.548 107.321 101.578 108.68C101.6 109.9 101.652 111.121 101.726 112.341C101.763 112.991 101.926 113.642 102.473 114.044C103.234 114.607 104.122 114.621 105.016 114.351C105.785 114.11 106.081 113.51 106.222 112.794C106.273 112.509 106.325 112.217 106.333 111.925C106.34 110.485 106.333 109.053 106.333 107.613H106.303Z" fill="#D9D9D9"/>
<path d="M84.1324 119.202H73.5069C73.4773 117.726 73.4995 116.3 73.4921 114.875C73.4921 113.414 73.4921 111.952 73.4921 110.491V97.4096H65.9204C65.7133 96.7884 65.6542 90.1894 65.8316 89.0713C67.5175 88.9398 69.233 89.0348 70.9411 89.0129C72.6935 88.9983 74.4386 89.0129 76.191 89.0129H81.3596C83.112 89.0129 84.8571 89.0129 86.6095 89.0129C88.325 89.0129 90.0405 89.0129 91.719 89.0129C91.9112 89.7437 91.926 96.54 91.7485 97.3658H84.1324V119.202Z" fill="#D9D9D9"/>
<path d="M133.257 119.219C132.961 119.234 132.695 119.256 132.428 119.256C130.084 119.256 127.748 119.285 125.411 119.241C124.642 119.226 123.858 119.102 123.119 118.898C121.322 118.408 120.45 117.092 120.206 115.361C120.065 114.396 120.05 113.402 120.043 112.423C120.021 109.602 120.043 106.788 120.043 103.968C120.043 103.675 120.043 103.39 120.043 103.003H117.662C117.425 102.382 117.366 97.0251 117.566 95.9289H120.021V89.1033C120.339 89.0668 120.568 89.0156 120.797 89.0156C123.651 89.0156 126.498 89.0156 129.352 89.0156C130.092 89.0156 130.121 89.0522 130.129 89.783C130.129 91.4857 130.129 93.1884 130.129 94.8838V95.8119C131.208 95.9873 132.258 95.7754 133.331 95.9581V102.908C132.303 103.083 131.253 102.901 130.188 103.018C130.166 103.259 130.136 103.463 130.136 103.668C130.136 106.006 130.136 108.345 130.136 110.683C130.136 110.895 130.136 111.107 130.151 111.319C130.218 112.54 130.824 113.154 132.066 113.241C132.458 113.27 132.857 113.241 133.227 113.241C133.419 113.914 133.456 118.276 133.279 119.212L133.257 119.219Z" fill="#D9D9D9"/>
<path d="M126.97 150.518C126.674 150.533 126.408 150.554 126.149 150.554C123.724 150.554 121.306 150.569 118.88 150.547C118.318 150.547 117.749 150.481 117.202 150.357C115.279 149.919 114.207 148.669 113.897 146.784C113.786 146.104 113.734 145.41 113.734 144.723C113.719 141.558 113.726 138.394 113.726 135.23C113.726 134.945 113.726 134.653 113.726 134.28H111.309C111.101 133.593 111.079 128.163 111.279 127.308H113.726V120.592C114.377 120.38 122.814 120.344 123.79 120.534C123.797 121.243 123.812 121.981 123.82 122.711C123.82 123.457 123.82 124.202 123.82 124.948V127.279H127.073C127.08 129.632 127.073 131.876 127.073 134.192C125.979 134.36 124.929 134.192 123.871 134.309C123.849 134.55 123.82 134.755 123.82 134.959C123.82 137.327 123.82 139.695 123.82 142.063C123.82 142.457 123.842 142.867 123.945 143.247C124.167 144.087 124.685 144.482 125.565 144.533C126.016 144.555 126.467 144.533 126.881 144.533C127.103 145.169 127.154 149.363 126.97 150.511V150.518Z" fill="#D9D9D9"/>
<path d="M128.326 127.307H130.832V120.591C131.475 120.387 139.735 120.343 140.777 120.525C140.874 122.725 140.777 124.954 140.837 127.271H143.994C144.223 127.965 144.238 133.424 144.031 134.235H140.881C140.851 134.505 140.814 134.703 140.814 134.907C140.814 137.224 140.8 139.533 140.814 141.85C140.814 142.325 140.888 142.8 140.977 143.268C141.118 143.969 141.746 144.473 142.545 144.532C143.025 144.568 143.506 144.532 143.95 144.532C144.208 145.168 144.238 149.655 144.016 150.488C143.831 150.51 143.624 150.546 143.417 150.546C140.837 150.546 138.249 150.575 135.668 150.532C134.507 150.51 133.376 150.268 132.437 149.494C131.927 149.077 131.542 148.58 131.313 147.966C130.987 147.111 130.817 146.242 130.825 145.321C130.84 141.974 130.825 138.62 130.825 135.273C130.825 134.98 130.825 134.688 130.825 134.286H128.377C128.215 133.592 128.17 128.557 128.311 127.3L128.326 127.307Z" fill="#D9D9D9"/>
<path d="M161.094 89.1836H170.876C171.054 89.7536 171.106 118.101 170.943 119.146C170.337 119.307 161.981 119.329 161.101 119.16V89.1836H161.094Z" fill="#D9D9D9"/>
<path d="M145.75 150.51V120.577C146.326 120.401 154.556 120.35 155.554 120.511C155.71 121.11 155.739 149.626 155.569 150.51H145.742H145.75Z" fill="#D9D9D9"/>
</g>
<defs>
<clipPath id="clip0_4072_3310">
<rect width="125" height="62" fill="white" transform="translate(57 89)"/>
</clipPath>
</defs>
</svg>
