<svg width="240" height="240" viewBox="0 0 240 240" fill="none" xmlns="http://www.w3.org/2000/svg">
<g clip-path="url(#clip0_4072_3435)">
<path d="M107.809 104.66V105.609C107.809 109.729 107.809 113.848 107.809 117.968C107.809 118.179 107.809 118.389 107.809 118.6C107.809 118.984 107.613 119.203 107.237 119.21C106.416 119.225 105.602 119.225 104.782 119.21C104.398 119.21 104.217 118.962 104.194 118.6C104.179 118.42 104.194 118.231 104.194 118.043C104.194 112.734 104.194 107.424 104.194 102.115C104.194 100.993 104.277 100.902 105.407 100.902C108.178 100.902 110.95 100.902 113.728 100.902C113.811 100.902 113.887 100.902 113.969 100.902C114.866 100.932 114.964 101.023 114.964 101.919C114.964 107.356 114.964 112.801 114.964 118.239C114.964 118.374 114.964 118.502 114.964 118.638C114.948 118.977 114.783 119.195 114.429 119.203C113.585 119.21 112.742 119.21 111.891 119.203C111.582 119.203 111.409 118.999 111.364 118.706C111.334 118.472 111.341 118.231 111.341 117.998C111.341 113.848 111.341 109.706 111.341 105.557V104.653H107.824L107.809 104.66Z" fill="#D9D9D9"/>
<path d="M162.361 111.951H158.625C158.61 112.245 158.595 112.531 158.588 112.809C158.588 114.549 158.588 116.296 158.588 118.036C158.588 118.247 158.588 118.458 158.572 118.669C158.55 119.008 158.369 119.211 158.023 119.218C157.202 119.226 156.388 119.218 155.568 119.218C155.221 119.218 155.025 119.038 155.003 118.691C154.988 118.48 154.988 118.269 154.988 118.059C154.988 112.727 154.988 107.395 154.988 102.063C154.988 101.905 154.98 101.746 154.988 101.588C155.033 101.091 155.123 100.971 155.613 100.963C156.404 100.941 157.194 100.963 157.985 100.963C158.369 100.963 158.565 101.174 158.572 101.558C158.572 101.746 158.572 101.927 158.572 102.115C158.572 103.855 158.572 105.602 158.572 107.342C158.572 107.628 158.595 107.907 158.61 108.231H162.293C162.308 107.975 162.338 107.726 162.338 107.47C162.338 105.7 162.338 103.93 162.338 102.161C162.338 101.95 162.338 101.739 162.346 101.528C162.368 101.197 162.541 100.978 162.888 100.971C163.731 100.956 164.575 100.963 165.418 100.971C165.765 100.971 165.945 101.174 165.953 101.52C165.953 101.709 165.953 101.889 165.953 102.078C165.953 107.41 165.953 112.742 165.953 118.074C165.953 118.126 165.953 118.179 165.953 118.232C165.945 119.166 165.893 119.226 164.966 119.226C164.462 119.226 163.965 119.226 163.46 119.226C162.368 119.226 162.323 119.181 162.323 118.044C162.323 116.304 162.323 114.557 162.323 112.817V111.951H162.361Z" fill="#D9D9D9"/>
<path d="M128.431 104.313C127.805 104.313 127.256 104.283 126.713 104.321C126.194 104.366 125.93 104.667 125.87 105.202C125.84 105.488 125.847 105.782 125.847 106.076C125.81 108.606 125.802 111.144 125.704 113.674C125.667 114.608 125.486 115.572 125.2 116.461C124.665 118.118 123.437 119.112 121.75 119.518C121.103 119.677 120.922 119.571 120.651 118.946C120.485 118.562 120.32 118.17 120.177 117.771C119.981 117.229 120.033 117.116 120.523 116.8C120.613 116.74 120.704 116.694 120.794 116.642C121.419 116.28 121.841 115.745 121.984 115.038C122.104 114.42 122.232 113.787 122.24 113.162C122.27 110.519 122.255 107.883 122.27 105.24C122.27 104.712 122.315 104.185 122.406 103.666C122.669 102.144 123.701 101.18 125.23 100.992C125.652 100.939 126.073 100.902 126.495 100.902C127.949 100.894 129.402 100.902 130.848 100.902C131.081 100.902 131.322 100.924 131.556 100.947C131.865 100.985 132.023 101.173 132.045 101.474C132.06 101.655 132.053 101.843 132.053 102.031C132.053 107.394 132.053 112.748 132.053 118.11C132.053 118.268 132.06 118.426 132.053 118.585C132.008 119.029 131.857 119.195 131.398 119.202C130.63 119.225 129.869 119.225 129.101 119.202C128.604 119.187 128.461 119.021 128.431 118.517C128.415 118.336 128.431 118.148 128.431 117.96C128.431 113.712 128.431 109.457 128.431 105.21C128.431 104.923 128.431 104.645 128.431 104.306V104.313Z" fill="#D9D9D9"/>
<path d="M208.695 116.429H203.634C203.461 117.077 203.28 117.732 203.107 118.38C202.896 119.171 202.843 119.216 202.03 119.223C201.45 119.223 200.87 119.223 200.29 119.223C199.462 119.216 199.334 119.035 199.56 118.199C199.831 117.182 200.117 116.166 200.396 115.149C201.608 110.781 202.821 106.413 204.033 102.045C204.086 101.864 204.139 101.691 204.191 101.518C204.289 101.171 204.515 100.968 204.877 100.961C205.72 100.945 206.564 100.945 207.407 100.961C207.799 100.961 208.032 101.194 208.138 101.571C208.281 102.075 208.431 102.58 208.574 103.092C209.945 108.017 211.301 112.95 212.686 117.875C213.086 119.284 212.724 119.291 211.662 119.246C211.105 119.223 210.555 119.238 209.998 119.238C209.599 119.238 209.365 119.05 209.267 118.658C209.094 117.943 208.906 117.235 208.703 116.452L208.695 116.429ZM204.553 112.701H207.746C207.211 110.502 206.684 108.364 206.157 106.195C205.622 108.371 205.095 110.51 204.553 112.701Z" fill="#D9D9D9"/>
<path d="M145.905 116.439H140.829C140.648 117.124 140.483 117.779 140.302 118.442C140.114 119.135 140.023 119.218 139.33 119.225C138.698 119.233 138.058 119.195 137.432 119.24C136.838 119.286 136.514 119.014 136.717 118.291C137.079 116.996 137.432 115.701 137.794 114.405C138.946 110.263 140.098 106.129 141.251 101.987C141.522 101.008 141.612 100.932 142.606 100.917C143.081 100.91 143.555 100.917 144.03 100.917C145.092 100.925 145.189 100.993 145.468 101.994C146.221 104.683 146.967 107.379 147.712 110.075C148.428 112.666 149.143 115.256 149.859 117.855C149.881 117.93 149.911 118.005 149.934 118.081C150.205 119.09 150.092 119.233 149.038 119.233C148.458 119.233 147.878 119.248 147.298 119.233C146.718 119.218 146.635 119.15 146.462 118.593C146.357 118.239 146.274 117.877 146.176 117.523C146.093 117.192 146.003 116.861 145.897 116.454L145.905 116.439ZM141.77 112.703H144.964C144.429 110.512 143.902 108.381 143.367 106.197C142.832 108.381 142.305 110.519 141.77 112.703Z" fill="#D9D9D9"/>
<path d="M181.324 104.494C180.375 104.713 179.457 104.577 178.538 104.6C177.619 104.622 176.693 104.6 175.781 104.6C175.601 105.157 175.563 107.364 175.721 108.456C176.406 108.456 177.114 108.456 177.822 108.456C178.38 108.456 178.929 108.44 179.487 108.456C179.999 108.471 180.157 108.599 180.18 109.118C180.21 109.909 180.21 110.7 180.18 111.491C180.157 111.973 180.021 112.078 179.532 112.093C178.553 112.108 177.581 112.093 176.602 112.101C176.316 112.101 176.03 112.101 175.699 112.101V115.557C177.762 115.565 179.826 115.58 181.964 115.587C181.987 116.062 182.01 116.446 182.01 116.838C182.01 117.417 182.025 117.997 182.002 118.577C181.979 119.059 181.851 119.172 181.377 119.21C181.272 119.217 181.166 119.21 181.061 119.21C178.372 119.21 175.676 119.21 172.987 119.21C172.114 119.21 172.023 119.119 172.023 118.268C172.023 112.801 172.023 107.341 172.023 101.873C172.023 101.037 172.136 100.909 172.98 100.902C175.488 100.887 177.996 100.887 180.503 100.902C181.302 100.902 181.407 101.022 181.407 101.843C181.407 102.709 181.482 103.575 181.339 104.479L181.324 104.494Z" fill="#D9D9D9"/>
<path d="M189.648 104.608C188.872 104.608 188.195 104.608 187.517 104.608C187.276 104.608 187.042 104.608 186.809 104.586C186.485 104.541 186.282 104.352 186.289 103.998C186.289 103.178 186.289 102.364 186.289 101.543C186.289 101.189 186.47 101.001 186.801 100.956C187.012 100.926 187.223 100.926 187.434 100.926C190.153 100.926 192.879 100.926 195.598 100.926C195.68 100.926 195.756 100.926 195.839 100.926C196.644 100.956 196.75 101.054 196.757 101.852C196.757 102.485 196.765 103.117 196.757 103.757C196.75 104.465 196.622 104.601 195.937 104.616C195.274 104.631 194.619 104.616 193.956 104.616C193.805 104.616 193.647 104.639 193.399 104.654V105.527C193.399 109.677 193.399 113.826 193.399 117.968C193.399 118.179 193.414 118.39 193.391 118.601C193.346 119.045 193.188 119.211 192.728 119.219C191.938 119.241 191.147 119.241 190.348 119.219C189.882 119.211 189.731 119.06 189.678 118.616C189.648 118.383 189.663 118.142 189.663 117.901C189.663 113.781 189.663 109.654 189.663 105.535V104.608H189.648Z" fill="#D9D9D9"/>
<path d="M137.6 137.228C137.615 136.919 137.638 136.663 137.638 136.407C137.638 134.637 137.638 132.867 137.638 131.098C137.638 130.887 137.645 130.676 137.653 130.465C137.66 130.141 137.864 129.96 138.15 129.953C139.016 129.93 139.889 129.938 140.763 129.953C141.027 129.953 141.192 130.156 141.222 130.42C141.253 130.653 141.26 130.894 141.26 131.128C141.26 136.437 141.26 141.739 141.26 147.048C141.26 147.206 141.268 147.365 141.26 147.523C141.207 148.073 141.072 148.223 140.53 148.238C139.844 148.253 139.159 148.253 138.474 148.238C137.773 148.223 137.66 148.11 137.653 147.387C137.645 145.542 137.653 143.689 137.653 141.844C137.653 141.588 137.653 141.325 137.653 141.001C137.005 140.888 136.403 140.956 135.808 140.941C135.205 140.933 134.595 140.941 133.887 140.941C133.88 141.227 133.865 141.475 133.865 141.731C133.865 143.577 133.865 145.429 133.865 147.274C133.865 148.125 133.752 148.238 132.908 148.246C132.276 148.246 131.643 148.261 131.01 148.246C130.4 148.231 130.272 148.095 130.242 147.5C130.242 147.372 130.242 147.237 130.242 147.101C130.242 141.769 130.242 136.437 130.242 131.105C130.242 130.917 130.242 130.736 130.242 130.548C130.242 130.156 130.461 129.945 130.822 129.938C131.613 129.915 132.404 129.908 133.194 129.938C133.684 129.96 133.827 130.141 133.857 130.638C133.865 130.796 133.857 130.955 133.857 131.113C133.857 132.882 133.857 134.652 133.857 136.422C133.857 136.678 133.857 136.934 133.857 137.22H137.6V137.228Z" fill="#D9D9D9"/>
<path d="M146.562 139.072C146.562 137.777 146.517 136.481 146.577 135.193C146.607 134.516 146.743 133.823 146.961 133.19C147.503 131.609 148.648 130.599 150.23 130.11C151.645 129.673 153.091 129.628 154.522 130.057C156.774 130.735 158.024 132.309 158.423 134.576C158.536 135.193 158.551 135.834 158.559 136.466C158.574 138.236 158.574 140.006 158.536 141.768C158.521 142.506 158.476 143.252 158.318 143.967C157.738 146.633 155.893 148.207 153.167 148.403C152.105 148.478 151.05 148.403 150.049 148.026C147.812 147.198 146.75 145.473 146.577 143.191C146.472 141.828 146.554 140.45 146.554 139.079L146.562 139.072ZM150.199 139.034H150.184C150.184 139.592 150.184 140.141 150.184 140.699C150.184 141.414 150.162 142.122 150.199 142.837C150.267 144.17 151.118 144.976 152.436 145.006C153.807 145.036 154.695 144.253 154.816 142.905C154.838 142.619 154.846 142.325 154.846 142.039C154.846 140.058 154.846 138.078 154.846 136.105C154.846 135.788 154.846 135.472 154.801 135.156C154.65 134.026 153.792 133.265 152.655 133.213C151.186 133.153 150.237 134.004 150.199 135.48C150.169 136.67 150.199 137.852 150.199 139.042V139.034Z" fill="#D9D9D9"/>
<path d="M111.273 138.807C113.134 139.387 114.188 140.667 114.685 142.422C115.144 144.041 115.543 145.683 115.943 147.325C116.131 148.1 115.988 148.251 115.167 148.259C114.64 148.259 114.113 148.259 113.585 148.259C112.614 148.259 112.546 148.198 112.343 147.219C112.064 145.932 111.801 144.644 111.514 143.356C111.138 141.661 109.85 140.713 108.103 140.863C108.027 140.863 107.96 140.916 107.802 140.969C107.802 141.232 107.802 141.518 107.802 141.797C107.802 143.484 107.802 145.178 107.802 146.865C107.802 147.001 107.802 147.129 107.794 147.265C107.756 148.183 107.689 148.244 106.777 148.251C106.145 148.251 105.512 148.266 104.88 148.251C104.352 148.236 104.239 148.116 104.194 147.596C104.179 147.415 104.194 147.227 104.194 147.039C104.194 141.759 104.194 136.48 104.194 131.201C104.194 129.958 104.194 129.951 105.414 129.951C105.941 129.951 106.469 129.936 106.996 129.951C107.666 129.973 107.802 130.109 107.809 130.832C107.824 132.18 107.809 133.528 107.809 134.868C107.809 135.501 107.809 136.134 107.809 136.751C109.285 137.196 110.249 136.751 110.686 135.343C111.115 133.957 111.469 132.549 111.861 131.156C111.929 130.9 111.996 130.644 112.079 130.395C112.17 130.116 112.373 129.951 112.667 129.943C113.457 129.928 114.248 129.913 115.039 129.943C115.498 129.958 115.641 130.177 115.536 130.628C115.408 131.163 115.227 131.69 115.069 132.225C114.805 133.136 114.527 134.04 114.278 134.959C113.826 136.653 113.118 138.144 111.281 138.807H111.273Z" fill="#D9D9D9"/>
<path d="M124.349 139.072C124.349 141.738 124.349 144.404 124.349 147.07C124.349 147.258 124.349 147.439 124.349 147.627C124.349 148.011 124.138 148.229 123.769 148.237C122.948 148.252 122.135 148.252 121.314 148.237C120.938 148.237 120.742 148.003 120.734 147.627C120.734 147.439 120.734 147.258 120.734 147.07C120.734 141.738 120.734 136.406 120.734 131.074C120.734 130.991 120.734 130.916 120.734 130.833C120.749 130.08 120.87 129.937 121.593 129.921C122.226 129.906 122.858 129.906 123.491 129.921C124.221 129.937 124.357 130.08 124.357 130.825C124.357 133.574 124.357 136.315 124.357 139.064L124.349 139.072Z" fill="#D9D9D9"/>
<path d="M26.0004 125.739C25.9326 113.501 35.9113 103.063 48.714 103.086C61.3812 103.109 71.3448 113.449 71.3222 125.8C71.2996 138.263 61.0875 148.641 48.2471 148.423C35.8134 148.204 25.9251 137.985 26.0004 125.739Z" fill="#D9D9D9"/>
<path d="M69.3826 99.9001C69.3976 95.517 72.9523 91.985 77.3278 92C81.5828 92.0151 85.2354 95.3739 85.2203 99.9453C85.2053 104.389 81.6883 107.838 77.2751 107.845C72.9146 107.86 69.36 104.268 69.375 99.8926L69.3826 99.9001Z" fill="#D9D9D9"/>
</g>
<defs>
<clipPath id="clip0_4072_3435">
<rect width="186.837" height="56.43" fill="white" transform="translate(26 92)"/>
</clipPath>
</defs>
</svg>
