<?xml version="1.0" encoding="UTF-8"?>
<svg id="Layer_1" data-name="Layer 1" xmlns="http://www.w3.org/2000/svg" viewBox="0 0 169.05 84.84">
  <defs>
    <style>
      .cls-1 {
        fill: #fff;
      }
    </style>
  </defs>
  <path class="cls-1" d="m.14,43.03c.48-.05.94-.15,1.41-.15,6.55,0,13.11-.07,19.66.03,2.49.04,5.03-.07,7.48.56.87.23,1.75.49,2.57.85,2.05.9,3.06,2.6,3.42,4.73.43,2.49.25,5.01.16,7.51-.04.99-.41,1.99-.77,2.93-.44,1.13-1.36,1.87-2.42,2.41-.32.16-.64.32-1.01.5,1.74.55,3.18,1.41,4.16,2.93.67,1.03,1.05,2.17,1.18,3.36.28,2.68.31,5.38,0,8.06-.34,2.99-1.84,5.16-4.71,6.27-1.4.54-2.84.91-4.34.98-2.03.1-4.07.21-6.1.22-6.44.03-12.89.01-19.33.01-.43,0-.85,0-1.24,0-.26-.91-.35-39.16-.11-41.21Zm13.86,32.13c.94,0,1.77,0,2.6,0,1.09,0,2.18.05,3.26-.04,1.88-.15,2.56-1.11,2.5-2.52-.04-.83.01-1.67-.02-2.5-.05-1.17-.54-1.84-1.72-2.03-1.1-.18-2.23-.18-3.35-.22-1.08-.03-2.15,0-3.28,0v7.32Zm-.01-17.08c1.49,0,2.87.02,4.25,0,.72-.02,1.45-.09,2.16-.22,1.09-.21,1.62-.84,1.7-1.96.04-.54.02-1.09.02-1.64-.01-1.85-.66-2.57-2.48-2.77-.18-.02-.36-.02-.55-.02-1.46,0-2.91,0-4.37,0-.24,0-.48.06-.73.1v6.52Z"/>
  <path class="cls-1" d="m168.85,71.12h-19.87c-.03,1.69-.2,3.31.27,4.9.25.86.83,1.46,1.78,1.54.64.05,1.29.09,1.93.04.95-.08,1.52-.7,1.74-1.57.22-.87.34-1.78.46-2.67.11-.86.19-.99,1.08-.99,3.97-.01,7.94,0,11.9,0,.25,0,.49.06.79.1.03.28.11.52.09.76-.2,1.98-.37,3.97-.98,5.89-.76,2.42-2.34,4.01-4.77,4.66-1.54.41-3.12.74-4.7.84-2.94.18-5.89.28-8.83.19-2.71-.08-5.45-.1-8.11-.79-.6-.15-1.2-.32-1.77-.54-2.44-.96-3.73-2.86-4.12-5.35-.27-1.71-.38-3.47-.41-5.2-.06-2.98-.06-5.97,0-8.95.04-1.81.14-3.63.41-5.42.41-2.72,1.87-4.67,4.58-5.58,1.6-.54,3.24-.87,4.9-.94,3.41-.16,6.84-.28,10.25-.2,2.31.06,4.63.18,6.91.74,3.99.96,5.57,3.21,6.17,6.73.64,3.74.48,7.54.44,11.31,0,.1-.06.2-.15.51Zm-19.86-6.74h6.11c.1-1.33.11-2.59-.21-3.83-.26-1.01-.96-1.59-2.03-1.68-.5-.04-1.02-.04-1.52,0-1.25.09-1.9.68-2.19,1.89-.28,1.18-.22,2.36-.16,3.64Z"/>
  <path class="cls-1" d="m71.61,68.26c0,2.29.06,4.59-.02,6.87-.05,1.33-.26,2.67-.55,3.97-.57,2.53-2.34,3.98-4.73,4.63-1.64.44-3.34.76-5.02.87-3.04.19-6.1.29-9.15.2-2.75-.08-5.52-.09-8.22-.8-.6-.16-1.19-.33-1.76-.55-2.34-.93-3.63-2.73-4.06-5.14-.25-1.42-.39-2.88-.42-4.33-.06-3.82-.06-7.64,0-11.46.02-1.59.15-3.18.54-4.74.61-2.43,2.09-4,4.45-4.8,1.59-.55,3.24-.87,4.9-.94,3.52-.16,7.05-.27,10.57-.2,2.49.05,5.01.14,7.45.8,1.83.49,3.5,1.24,4.59,2.9.22.33.41.69.56,1.05.56,1.39.86,2.85.87,4.35.02,2.44,0,4.87,0,7.31h.01Zm-20.11-.05s0,0,0,0c0,1.93-.03,3.86.02,5.79.02.68.19,1.36.36,2.02.26.99.98,1.54,1.95,1.67.63.09,1.3,0,1.95-.08.88-.12,1.45-.7,1.68-1.52.22-.8.42-1.63.44-2.45.05-3.57.05-7.14,0-10.7-.01-.82-.22-1.65-.44-2.45-.22-.78-.78-1.38-1.59-1.49-.78-.11-1.59-.08-2.37.02-.78.1-1.31.65-1.54,1.39-.21.69-.41,1.41-.43,2.12-.06,1.89-.02,3.79-.02,5.68Z"/>
  <path class="cls-1" d="m119.45,20.38h-13.98c-.05-.22-.14-.42-.14-.63-.06-1.61.16-3.19.57-4.74.65-2.47,2.18-4.19,4.64-4.94,1.38-.42,2.82-.71,4.25-.87,3.77-.42,7.56-.33,11.34-.19,2.57.09,5.14.29,7.61,1.21,2.8,1.04,4.26,3.07,4.49,5.98.15,1.88.18,3.77.19,5.66.03,4.99.02,9.98.05,14.96,0,1.12.14,2.25.2,3.37.02.35,0,.71,0,1.02-1.06.26-11.71.26-12.68.02-.24-1.01-.06-2.07-.16-3.19-1.61,2.92-4.31,3.68-7.29,3.8-2.21.09-4.44.19-6.61-.44-.66-.19-1.33-.4-1.95-.67-2.63-1.16-3.98-3.27-4.43-6.05-.34-2.14-.27-4.28.03-6.41.34-2.46,1.78-4.07,4.08-4.95,1.67-.63,3.41-1.01,5.17-1.28,2.76-.42,5.52-.85,8.28-1.28.11-.02.22-.03.32-.06,1.78-.47,2.42-1.58,1.95-3.36-.17-.65-.56-1.08-1.23-1.26-1.04-.28-2.07-.31-3.12-.03-.75.2-1.21.65-1.35,1.4-.1.53-.17,1.07-.22,1.61-.03.39,0,.78,0,1.31Zm5.97,8.33c-1.32.39-2.57.76-3.82,1.13-.49.14-.98.26-1.45.46-1.12.46-1.34.92-1.15,2.25.11.76.64,1.16,1.62,1.32.83.13,1.65.11,2.48,0,1.6-.22,2.26-1.15,2.3-2.54.03-.87,0-1.74,0-2.62Z"/>
  <path class="cls-1" d="m46.57,25.34c0-2.18-.04-4.37.01-6.55.04-1.67.22-3.32.82-4.91.75-2,2.25-3.18,4.21-3.81,1.73-.56,3.52-.88,5.34-.91,3.71-.06,7.41-.21,11.12-.14,2.35.04,4.7.26,6.99.94,3.56,1.07,4.93,3.27,5.26,6.81.49,5.19.16,10.39.18,15.59,0,1.18-.22,2.39-.48,3.55-.54,2.43-2.06,4.04-4.41,4.84-1.52.52-3.09.75-4.68.91-4.21.41-8.43.21-12.64.17-2.1-.02-4.2-.27-6.23-.86-2.08-.61-3.78-1.73-4.6-3.83-.31-.8-.55-1.67-.64-2.52-.16-1.48-.2-2.97-.24-4.45-.04-1.6,0-3.2,0-4.8h0Zm20.11.13s0,0,0,0c0-2.07.07-4.15-.02-6.22-.09-2.29-.99-3.4-3.5-3.22-1.4.1-2.19.62-2.48,1.99-.23,1.09-.36,2.22-.39,3.34-.06,1.85-.04,3.71,0,5.57.03,1.67.1,3.34.2,5.01.05.89.27,1.78,1.01,2.33,1.03.77,2.23.79,3.44.42,1.04-.33,1.44-1.15,1.63-2.13.07-.39.14-.79.15-1.19.01-1.97,0-3.93,0-5.9Z"/>
  <path class="cls-1" d="m36.69,41.33h-14.37c-.04-2.02-.01-3.97-.02-5.92,0-2,0-4,0-6V11.51h-10.24c-.28-.85-.36-9.88-.12-11.41,2.28-.18,4.6-.05,6.91-.08,2.37-.02,4.73,0,7.1,0h6.99c2.37,0,4.73,0,7.1,0,2.32,0,4.64,0,6.91,0,.26,1,.28,10.3.04,11.43h-10.3v29.88Z"/>
  <path class="cls-1" d="m103.13,41.35c-.4.02-.76.05-1.12.05-3.17,0-6.33.04-9.49-.02-1.04-.02-2.1-.19-3.1-.47-2.43-.67-3.61-2.47-3.94-4.84-.19-1.32-.21-2.68-.22-4.02-.03-3.86,0-7.71,0-11.57,0-.4,0-.79,0-1.32h-3.22c-.32-.85-.4-8.18-.13-9.68h3.32V.14c.43-.05.74-.12,1.05-.12,3.86,0,7.71,0,11.57,0,1,0,1.04.05,1.05,1.05,0,2.33,0,4.66,0,6.98v1.27c1.46.24,2.88-.05,4.33.2v9.51c-1.39.24-2.81-.01-4.25.15-.03.33-.07.61-.07.89,0,3.2,0,6.4,0,9.6,0,.29,0,.58.02.87.09,1.67.91,2.51,2.59,2.63.53.04,1.07,0,1.57,0,.26.92.31,6.89.07,8.17Z"/>
  <path class="cls-1" d="m94.63,84.18c-.4.02-.76.05-1.11.05-3.28,0-6.55.02-9.83-.01-.76,0-1.53-.09-2.27-.26-2.6-.6-4.05-2.31-4.47-4.89-.15-.93-.22-1.88-.22-2.82-.02-4.33-.01-8.66-.01-12.99,0-.39,0-.79,0-1.3h-3.27c-.28-.94-.31-8.37-.04-9.54h3.31v-9.19c.88-.29,12.29-.34,13.61-.08.01.97.03,1.98.04,2.98,0,1.02,0,2.04,0,3.06v3.19h4.4c.01,3.22,0,6.29,0,9.46-1.48.23-2.9,0-4.33.16-.03.33-.07.61-.07.89,0,3.24,0,6.48,0,9.72,0,.54.03,1.1.17,1.62.3,1.15,1,1.69,2.19,1.76.61.03,1.22,0,1.78,0,.3.87.37,6.61.12,8.18Z"/>
  <path class="cls-1" d="m96.46,52.42h3.39v-9.19c.87-.28,12.04-.34,13.45-.09.13,3.01,0,6.06.08,9.23h4.27c.31.95.33,8.42.05,9.53h-4.26c-.04.37-.09.64-.09.92,0,3.17-.02,6.33,0,9.5,0,.65.1,1.3.22,1.94.19.96,1.04,1.65,2.12,1.73.65.05,1.3,0,1.9,0,.35.87.39,7.01.09,8.15-.25.03-.53.08-.81.08-3.49,0-6.99.04-10.48-.02-1.57-.03-3.1-.36-4.37-1.42-.69-.57-1.21-1.25-1.52-2.09-.44-1.17-.67-2.36-.66-3.62.02-4.58,0-9.17,0-13.75,0-.4,0-.8,0-1.35h-3.31c-.22-.95-.28-7.84-.09-9.56Z"/>
  <path class="cls-1" d="m140.78.25h13.23c.24.78.31,39.57.09,41-.82.22-12.12.25-13.31.02V.25Z"/>
  <path class="cls-1" d="m120.02,84.17v-40.96c.78-.24,11.91-.31,13.26-.09.21.82.25,39.84.02,41.05h-13.29Z"/>
</svg>