<svg width="240" height="240" viewBox="0 0 240 240" fill="none" xmlns="http://www.w3.org/2000/svg">
<g clip-path="url(#clip0_4072_3585)">
<path d="M155.291 132.002H151.527V114.606H160.748C161.455 114.593 162.162 114.723 162.818 114.983C163.408 115.223 163.947 115.573 164.401 116.021C164.836 116.456 165.179 116.975 165.406 117.546C165.64 118.136 165.757 118.772 165.757 119.408C165.783 120.336 165.562 121.251 165.121 122.062C164.647 122.853 163.914 123.45 163.051 123.768V123.82C163.473 123.93 163.869 124.132 164.2 124.417C164.505 124.69 164.758 125.008 164.939 125.371C165.134 125.754 165.277 126.156 165.361 126.578C165.452 127.012 165.51 127.454 165.543 127.895C165.556 128.161 165.575 128.485 165.588 128.875C165.608 129.283 165.634 129.653 165.673 130.017C165.711 130.393 165.776 130.763 165.861 131.126C165.939 131.444 166.068 131.743 166.256 132.015H162.493C162.273 131.379 162.143 130.717 162.11 130.043C162.058 129.283 161.987 128.544 161.89 127.849C161.838 127.116 161.552 126.416 161.072 125.851C160.508 125.377 159.774 125.15 159.035 125.215H155.271V132.009L155.291 132.002ZM155.291 122.477H159.411C160.112 122.529 160.8 122.321 161.358 121.893C161.831 121.38 162.071 120.686 162.006 119.992C162.065 119.317 161.831 118.642 161.358 118.156C160.8 117.734 160.112 117.533 159.418 117.585H155.297V122.483L155.291 122.477ZM137.116 132.002H133.334L139.796 114.606H143.65L150.048 132.002H146.148L144.857 128.128H138.46L137.11 132.002H137.116ZM139.439 125.28H143.871L141.717 118.895H141.665L139.439 125.28ZM116.924 132.002H113.401V114.606H118.695L122.699 126.565H122.744L126.527 114.606H131.822V132.002H128.298V119.674H128.247L124.055 132.002H121.155L116.963 119.797H116.918V132.002H116.924ZM92.5141 132.002H88.9973V114.606H92.7347L99.8721 126.273H99.9176V114.606H103.434V132.002H99.6775L92.566 120.355H92.5141V132.002ZM29.7634 132.002H26V114.606H29.7634V121.283H36.6866V114.606H40.45V132.002H36.6866V124.501H29.7634V132.002ZM209.237 132.002L202.125 120.355H202.08V132.002H198.556V114.606H202.294L209.431 126.273H209.477V114.606H212.994V132.002H209.23H209.237ZM183.036 132.002V114.606H195.818V117.818H186.793V121.549H195.079V124.521H186.793V128.784H196.013V132.002H183.029H183.036ZM168.832 132.002V114.606H172.596V128.784H180.927V132.002H168.832ZM86.4538 132.002H73.4702V114.606H86.2592V117.818H77.2271V121.549H85.5195V124.521H77.2271V128.784H86.4473V132.002H86.4538ZM71.3679 132.002H59.2733V114.606H63.0366V128.784H71.3744V132.002H71.3679ZM56.7298 132.002H43.7462V114.606H56.5351V117.818H47.5031V121.549H55.7889V124.521H47.5031V128.784H56.7233V132.002H56.7298Z" fill="#D9D9D9"/>
</g>
<defs>
<clipPath id="clip0_4072_3585">
<rect width="187" height="17.3958" fill="white" transform="translate(26 114.605)"/>
</clipPath>
</defs>
</svg>
