<svg width="240" height="240" viewBox="0 0 240 240" fill="none" xmlns="http://www.w3.org/2000/svg">
<g clip-path="url(#clip0_4072_3121)">
<path d="M123.801 145.936C121.079 145.936 118.5 145.936 115.9 145.936C115.142 145.936 115.306 145.347 115.286 144.9C115.101 140.367 114.958 135.834 114.733 131.302C114.405 124.228 113.669 117.196 112.195 110.265C111.315 106.139 110.352 102.012 108.469 98.1709C107.773 96.7684 107.016 95.4066 105.501 94.6749C104.539 94.2074 103.72 94.2684 102.86 94.9594C101.12 96.4026 100.158 98.3335 99.4419 100.407C96.965 107.521 95.8187 114.899 94.959 122.318C93.915 131.281 93.7103 140.265 93.5465 149.27C93.5465 149.493 93.5056 149.737 93.4647 150.042C90.6603 150.042 87.8763 150.042 85.031 150.042C85.031 148.416 84.9491 146.831 85.0515 145.245C85.3381 140.001 85.5223 134.757 86.075 129.554C87.0166 120.509 88.8998 111.647 92.2569 103.151C93.6694 99.5937 95.3479 96.1383 98.0909 93.3334C99.4214 91.9512 100.895 90.7317 102.799 90.2235C105.46 89.5121 107.691 90.5894 109.697 92.1748C111.847 93.9025 113.505 96.0977 114.672 98.5571C116.289 102.012 117.681 105.59 119.155 109.106C119.318 109.472 119.462 109.858 119.707 110.468C119.994 109.635 120.219 109.025 120.403 108.395C121.713 104.289 123.105 100.224 125.541 96.6058C127.076 94.309 128.939 92.3577 131.334 90.9756C133.791 89.5528 136.247 89.8373 138.581 91.2805C141.078 92.8252 142.818 95.1017 144.169 97.6424C147.956 104.736 150.146 112.358 151.64 120.204C153.462 129.737 154.015 139.391 154.199 149.087C154.22 149.92 153.974 150.205 153.114 150.184C150.658 150.144 148.202 150.164 145.704 150.164C145.663 149.778 145.602 149.514 145.602 149.27C145.52 145.692 145.52 142.095 145.356 138.517C144.967 129.615 144.312 120.753 142.531 112.013C141.733 108.07 140.73 104.167 139.563 100.325C139.051 98.6587 137.967 97.1343 136.963 95.6505C135.899 94.0854 134.016 93.9431 132.665 95.3253C131.846 96.1586 131.17 97.1749 130.638 98.2115C128.816 101.728 127.977 105.59 127.117 109.411C125.562 116.362 124.722 123.415 124.395 130.509C124.17 135.265 124.026 140.042 123.842 144.818C123.842 145.123 123.822 145.469 123.801 145.936Z" fill="#D9D9D9"/>
</g>
<defs>
<clipPath id="clip0_4072_3121">
<rect width="69.1887" height="60.1641" fill="white" transform="translate(85 90)"/>
</clipPath>
</defs>
</svg>
