<svg width="240" height="240" viewBox="0 0 240 240" fill="none" xmlns="http://www.w3.org/2000/svg">
<g clip-path="url(#clip0_4072_3112)">
<path d="M124.409 79.2069C124.013 79.2675 123.632 80.7201 122.856 81.4767C122.292 82.0214 121.592 81.9912 121.226 82.657C121.089 82.9142 121.135 83.3379 120.968 83.7464C120.648 84.5787 119.552 84.6543 119.552 85.5471C119.552 86.5155 120.465 86.7122 121.272 87.3932C121.896 87.953 121.957 88.3313 122.719 88.6037C123.358 88.8155 124.317 88.1043 125.185 88.3616C125.901 88.5734 126.571 88.7247 126.738 89.4511C126.875 90.1168 126.723 91.1609 125.87 91.0399C125.581 91.0096 124.317 90.5859 122.779 90.7524C120.922 90.9642 118.79 91.5695 118.577 93.6274C118.455 94.7774 119.902 96.1392 121.287 95.8669C122.247 95.6853 121.79 94.5504 122.323 94.0057C123.008 93.3096 126.89 96.4419 130.499 96.4419C132.021 96.4419 133.148 96.0636 134.275 94.8984C134.381 94.8076 134.503 94.6109 134.67 94.6109C134.823 94.6261 135.097 94.7774 135.173 94.8379C138.081 97.153 140.273 101.814 150.962 101.874C152.469 101.874 154.174 102.6 155.575 103.856C156.823 105.006 157.554 106.777 158.255 108.593C159.32 111.301 161.239 113.949 164.147 116.885C164.299 117.036 166.689 118.882 166.887 119.033C166.918 119.049 167.1 119.472 167.04 119.699C166.963 121.454 166.705 126.584 170.557 126.811C171.501 126.856 171.242 126.206 171.242 125.752C171.242 124.859 171.074 123.981 171.546 123.058C172.186 121.802 170.176 121.227 170.237 118.504C170.283 116.476 168.562 116.824 167.694 115.281C167.192 114.388 166.75 113.919 166.781 112.814C166.979 106.671 165.471 102.631 164.71 101.632C164.116 100.875 163.629 100.588 164.177 100.24C167.375 98.1366 168.105 96.1846 168.105 96.1846C169.811 92.205 171.348 88.5734 173.449 86.9695C173.876 86.6366 174.972 85.8346 175.642 85.5168C177.606 84.5938 178.656 84.0339 179.22 83.4741C180.133 82.5964 180.849 80.7655 179.966 79.6609C178.885 78.299 177.012 79.3734 176.19 79.8576C170.298 83.3379 169.43 89.4662 167.39 92.9767C165.761 95.7912 163.111 97.8491 160.751 98.0156C158.97 98.1517 157.067 97.7886 155.164 96.9563C150.535 94.9438 147.993 92.3261 147.399 91.8721C146.15 90.9188 136.497 81.4918 128.672 81.1135C128.672 81.1135 127.697 79.1767 127.454 79.1464C126.875 79.0708 126.296 80.2964 125.87 80.4477C125.474 80.6142 124.804 79.1464 124.409 79.2069ZM89.9536 135.451C89.2227 135.436 88.5985 134.831 88.5985 134.089V109.833H80.5595V136.571C80.5595 137.887 81.6253 138.947 82.9347 138.947H97.0029C98.3275 138.947 99.3781 137.872 99.3781 136.571V109.833H91.3391L91.3238 134.089C91.3238 134.831 90.6996 135.436 89.9536 135.451ZM116.887 109.833H104.707C103.261 109.833 102.088 110.998 102.088 112.451V138.962H110.142V114.645C110.142 113.904 110.751 113.314 111.497 113.314C112.243 113.314 112.852 113.889 112.868 114.63V138.962H120.891V114.615C120.907 113.873 121.5 113.298 122.247 113.298C122.993 113.298 123.602 113.889 123.617 114.63V138.947H131.671V112.451C131.671 110.998 130.499 109.833 129.052 109.833H116.887ZM69.78 114.691C69.78 113.873 69.1253 113.298 68.4249 113.298H67.0546V128.037H68.4249C69.1405 128.037 69.7952 127.477 69.78 126.675V114.691ZM75.185 131.638H67.0546V138.962H59.0156V109.833H75.2306C76.677 109.833 77.8189 110.998 77.8189 112.451V129.005C77.8189 130.473 76.6466 131.638 75.185 131.638ZM159.275 132.44C157.661 132.44 156.306 133.832 156.306 135.512C156.306 137.206 157.661 138.583 159.336 138.583C160.995 138.583 162.335 137.206 162.335 135.512C162.335 133.832 160.995 132.44 159.336 132.44H159.275ZM162.898 135.512C162.898 137.494 161.3 139.098 159.336 139.098C157.341 139.098 155.742 137.494 155.742 135.512C155.742 133.56 157.341 131.926 159.275 131.926C161.3 131.926 162.898 133.499 162.898 135.512Z" fill="#D9D9D9"/>
<path d="M158.958 135.288C159.521 135.288 159.81 135.091 159.81 134.698C159.81 134.35 159.521 134.168 158.988 134.168H158.821V135.288H158.958ZM161.013 137.588H160.054L158.821 135.953V137.588H158.029V133.457H158.851C159.978 133.457 160.572 133.88 160.572 134.682C160.572 135.212 160.221 135.696 159.734 135.832L159.673 135.848L161.013 137.588ZM145.194 128.04V114.633C145.179 113.891 144.57 113.316 143.823 113.316C143.077 113.316 142.468 113.906 142.468 114.648V128.04H145.194ZM145.194 138.965V131.656H142.453V138.965H134.414V112.454C134.414 111.001 135.586 109.836 137.033 109.836H150.614C152.06 109.836 153.233 111.001 153.233 112.454V138.965H145.194Z" fill="#D9D9D9"/>
</g>
<defs>
<clipPath id="clip0_4072_3112">
<rect width="121.331" height="60.0877" fill="white" transform="translate(59 79)"/>
</clipPath>
</defs>
</svg>
