<svg width="240" height="240" viewBox="0 0 240 240" fill="none" xmlns="http://www.w3.org/2000/svg">
<g clip-path="url(#clip0_4072_3588)">
<path d="M38.3057 101.059H39.4603C40.0583 101.059 40.5816 100.959 41.0218 100.76C41.4621 100.561 41.8026 100.27 42.0435 99.9044C42.2844 99.5389 42.4007 99.0987 42.4007 98.592C42.4007 98.0854 42.2761 97.6534 42.0435 97.2713C41.8026 96.8976 41.4621 96.6152 41.0218 96.4075C40.5816 96.2081 40.0583 96.1085 39.4603 96.1085H36.4285V102.795H38.3057V101.051V101.059ZM38.3057 97.6202H39.3523C39.7427 97.6202 40.0251 97.7116 40.2244 97.8777C40.4238 98.0521 40.5151 98.293 40.5151 98.6086C40.5151 98.9243 40.4155 99.1569 40.2244 99.3313C40.0251 99.4974 39.7344 99.5888 39.3523 99.5888H38.3057V97.6202ZM48.813 101.316V102.812H43.7795V96.1334H45.6567V101.316H48.8214H48.813ZM51.7451 101.516H54.5443L55.0676 102.812H57.0196L54.0875 96.1334H52.2435L49.3197 102.82H51.2302L51.7534 101.524L51.7451 101.516ZM53.1406 97.9857L53.9961 100.129H52.2934L53.1489 97.9857H53.1406ZM59.1044 97.6285H57.0694V96.1334H63.0084V97.6285H60.9817V102.812H59.1044V97.6285ZM64.1712 96.1334H69.3709V97.5953H66.0484V99.0655H68.9722V100.527H66.0484V102.812H64.1712V96.1334ZM75.8996 102.496C76.4561 102.197 76.8964 101.782 77.2203 101.25C77.5442 100.718 77.7021 100.129 77.7021 99.4642C77.7021 98.7997 77.5442 98.2016 77.2203 97.6867C76.8964 97.1551 76.4644 96.7481 75.8996 96.4407C75.3431 96.1334 74.7118 95.9922 74.0141 95.9922C73.3164 95.9922 72.6851 96.1417 72.1286 96.4407C71.5721 96.7397 71.1318 97.1551 70.8079 97.6867C70.484 98.2183 70.3261 98.808 70.3261 99.4642C70.3261 100.12 70.484 100.727 70.8079 101.25C71.1318 101.782 71.5638 102.189 72.1286 102.496C72.6851 102.795 73.3164 102.944 74.0141 102.944C74.7118 102.944 75.3431 102.795 75.8996 102.496ZM72.4525 100.469C72.2947 100.179 72.22 99.8463 72.22 99.4725C72.22 99.0987 72.2947 98.7665 72.4525 98.4757C72.6103 98.185 72.8263 97.9608 73.1004 97.8029C73.3745 97.6368 73.6735 97.5621 74.0058 97.5621C74.338 97.5621 74.6454 97.6451 74.9112 97.8029C75.1853 97.9691 75.4012 98.185 75.5591 98.4757C75.7169 98.7665 75.7916 99.0987 75.7916 99.4725C75.7916 99.8463 75.7169 100.179 75.5591 100.469C75.4012 100.76 75.1853 100.984 74.9112 101.142C74.6371 101.308 74.338 101.383 74.0058 101.383C73.6735 101.383 73.3662 101.292 73.1004 101.142C72.8263 100.976 72.6103 100.76 72.4525 100.469ZM81.0162 101.034H82.0379L83.234 102.812H85.2441L83.8154 100.71C84.2307 100.502 84.5464 100.228 84.779 99.8712C85.0032 99.5057 85.1112 99.0904 85.1112 98.6003C85.1112 98.1103 84.9866 97.6617 84.754 97.2797C84.5132 96.9142 84.1726 96.6235 83.7324 96.4241C83.2921 96.2165 82.7688 96.1168 82.1708 96.1168H79.139V102.803H81.0162V101.034ZM81.0162 97.6202H82.0628C82.4532 97.6202 82.7356 97.7116 82.935 97.8777C83.1343 98.0521 83.2257 98.293 83.2257 98.6086C83.2257 98.9243 83.126 99.1569 82.935 99.3313C82.7356 99.4974 82.4449 99.5888 82.0628 99.5888H81.0162V97.6202ZM88.3506 99.3562V102.812H86.6229V96.1251H88.1679L90.4936 99.9792L92.7695 96.1251H94.3145L94.3311 102.812H92.6034L92.5868 99.2731L90.884 102.155H90.0451L88.3506 99.3645V99.3562ZM97.7616 101.508H100.561L101.084 102.803H103.036L100.104 96.1251H98.2599L95.3361 102.812H97.2466L97.7699 101.516L97.7616 101.508ZM99.157 97.9857L100.013 100.129H98.3098L99.1653 97.9857H99.157ZM163.289 111.824H163.281C164.427 113.684 164.967 115.753 165.009 117.887C165.117 123.046 165.092 128.22 165.125 133.387C165.125 133.428 165.108 133.462 165.1 133.528H160.482V133.055C160.482 129.068 160.49 125.072 160.482 121.085C160.482 119.49 160.349 117.912 159.95 116.351C159.269 113.751 157.624 112.164 155.025 111.641C152.624 111.143 150.215 111.201 147.856 111.907C144.526 112.912 142.457 115.146 141.768 118.593C141.577 119.557 141.519 120.562 141.51 121.542C141.477 125.371 141.502 129.2 141.502 133.021V133.52H136.809V133.055C136.809 129.018 136.809 124.973 136.809 120.927C136.809 119.117 136.676 117.323 136.045 115.595C135.239 113.369 133.619 112.081 131.368 111.633C129.084 111.168 126.783 111.209 124.508 111.824C121.127 112.738 118.959 114.872 118.17 118.319C117.937 119.358 117.846 120.437 117.838 121.501C117.804 125.355 117.829 129.217 117.829 133.071V133.536H113.195V108.26H117.813V112.812C118.278 112.314 118.668 111.849 119.092 111.417C120.845 109.664 122.963 108.543 125.355 107.937C127.573 107.38 129.832 107.23 132.108 107.496C133.653 107.662 135.131 108.045 136.51 108.792C138.246 109.731 139.409 111.184 140.215 112.953C140.381 113.319 140.514 113.693 140.68 114.075C141.369 112.92 142.183 111.89 143.172 111.002C144.874 109.473 146.851 108.476 149.052 107.928C151.254 107.388 153.471 107.23 155.731 107.505C157.026 107.662 158.289 107.945 159.493 108.468C161.121 109.174 162.359 110.32 163.289 111.832V111.824ZM205.501 117.09C204.413 113.178 201.93 110.478 198.25 108.883C196.464 108.111 194.604 107.687 192.677 107.496C189.927 107.23 187.219 107.405 184.553 108.177C181.779 108.975 179.378 110.387 177.526 112.646C177.194 113.053 176.903 113.485 176.513 114V108.277H172.16V144.052H176.538V127.797C176.654 127.963 176.712 128.046 176.77 128.137C177.717 129.558 178.888 130.745 180.309 131.676C182.477 133.113 184.877 133.902 187.444 134.226C190.135 134.575 192.801 134.491 195.434 133.869C198.117 133.229 200.534 132.049 202.486 130.039C204.339 128.137 205.418 125.853 205.809 123.212C206.116 121.152 206.066 119.1 205.501 117.09ZM201.058 122.464C200.476 125.928 198.333 128.096 195.21 129.391C193.241 130.205 191.165 130.48 188.947 130.455C187.294 130.48 185.558 130.289 183.864 129.79C181.92 129.225 180.151 128.32 178.755 126.825C177.443 125.429 176.712 123.743 176.571 121.825C176.405 119.765 176.745 117.829 177.908 116.077C178.814 114.723 180.018 113.718 181.447 112.987C183.565 111.899 185.841 111.45 188.2 111.375C190.226 111.309 192.236 111.417 194.188 112.031C196.689 112.821 198.798 114.15 200.111 116.517C201.141 118.377 201.406 120.379 201.066 122.456L201.058 122.464ZM105.785 114.781C105.146 112.397 103.808 110.545 101.665 109.324C99.8298 108.277 97.8114 107.853 95.7431 107.604C92.7695 107.222 89.7876 107.33 86.8389 107.671C84.3387 107.961 81.8718 108.452 79.3965 108.917C78.1506 109.149 76.9379 109.523 75.6753 109.839C75.9328 111.234 76.182 112.596 76.4312 113.975C76.5392 113.942 76.6056 113.934 76.6638 113.909C80.4514 112.887 84.2474 111.865 88.1762 111.508C90.9588 111.259 93.7497 111.226 96.5073 111.807C98.044 112.123 99.4062 112.779 100.411 114.033C101.574 115.479 101.624 117.223 101.616 119.017C100.511 118.751 99.4726 118.485 98.4261 118.253C95.7182 117.638 92.9855 117.19 90.2195 117.015C87.9104 116.874 85.6013 116.899 83.3088 117.239C81.2737 117.547 79.3052 118.037 77.511 119.083C75.8581 120.047 74.6371 121.376 74.0556 123.261C73.632 124.665 73.5905 126.069 73.8314 127.506C74.1968 129.749 75.3514 131.46 77.2951 132.623C79.0726 133.686 81.0245 134.093 83.0513 134.292C86.0249 134.583 88.9653 134.4 91.8808 133.802C95.1202 133.146 98.2018 131.991 101.175 130.554C101.3 130.488 101.433 130.438 101.624 130.347V133.528H106.259C106.259 133.387 106.275 133.27 106.275 133.154C106.275 128.361 106.275 123.569 106.275 118.776C106.275 117.422 106.159 116.077 105.81 114.764H105.794L105.785 114.781ZM101.607 124.823C101.607 125.496 101.607 126.169 101.607 126.833C101.607 127.049 101.541 127.157 101.342 127.248C98.2184 128.636 95.0371 129.848 91.6814 130.554C89.1397 131.086 86.5814 131.26 84.0065 130.912C82.8602 130.754 81.7472 130.463 80.7421 129.848C79.3799 129.026 78.6573 127.813 78.5078 126.218C78.4164 125.155 78.5244 124.142 79.0643 123.195C79.7122 122.074 80.767 121.501 81.9382 121.127C83.9982 120.471 86.1246 120.363 88.2676 120.363C92.7114 120.363 97.014 121.235 101.275 122.381C101.541 122.447 101.607 122.564 101.607 122.821C101.599 123.494 101.607 124.167 101.607 124.831V124.823ZM63.8556 124.831C65.2677 124.831 66.6714 124.831 68.2081 124.831C67.8758 125.67 67.6349 126.476 67.2445 127.224C66.0484 129.483 64.2128 131.078 61.9701 132.232C59.6194 133.428 57.1193 134.068 54.5028 134.309C51.5873 134.575 48.6885 134.45 45.8477 133.719C42.816 132.938 40.0915 131.568 37.9817 129.184C36.3953 127.39 35.465 125.263 35.141 122.888C34.842 120.72 35.0081 118.602 35.7391 116.525C36.4285 114.565 37.5581 112.912 39.1197 111.541C41.3042 109.623 43.8709 108.551 46.6617 107.945C49.1702 107.397 51.7119 107.33 54.2702 107.521C56.9365 107.729 59.5031 108.36 61.9036 109.565C64.2211 110.736 66.0983 112.389 67.311 114.723C67.6765 115.429 67.8924 116.201 68.2081 117.007C66.6797 117.007 65.2677 117.024 63.8556 117.007C63.7393 117.007 63.5649 116.882 63.5234 116.774C62.5266 114.299 60.5331 112.945 58.1742 112.056C55.4497 111.026 52.6173 110.844 49.7433 111.134C47.5422 111.359 45.474 111.957 43.5967 113.153C41.3208 114.615 39.9254 116.666 39.5184 119.366C39.236 121.268 39.4104 123.12 40.2327 124.881C41.1298 126.808 42.5668 128.204 44.4357 129.167C47.293 130.637 50.3414 130.978 53.4978 130.779C55.5328 130.637 57.4764 130.197 59.3204 129.292C60.8903 128.528 62.2276 127.481 63.1163 125.928C63.2659 125.654 63.3655 125.338 63.5234 125.064C63.5898 124.948 63.7393 124.823 63.8556 124.823V124.831Z" fill="#D9D9D9"/>
</g>
<defs>
<clipPath id="clip0_4072_3588">
<rect width="171" height="48.0514" fill="white" transform="translate(35 96)"/>
</clipPath>
</defs>
</svg>
