<svg width="240" height="240" viewBox="0 0 240 240" fill="none" xmlns="http://www.w3.org/2000/svg">
<g clip-path="url(#clip0_4072_3340)">
<path d="M87.1069 117.753C87.1069 117.753 79.6741 117.513 76.6747 110.793C76.6747 110.793 69.7147 118.59 58.9183 121.349L59.639 123.271V148.104L57.6007 150.142C57.6007 150.142 49.4006 144.864 48.7263 136.951C48.1063 129.743 49.1914 124.325 57.2286 117.365C57.2286 117.365 59.8793 115.001 63.9561 113.56V112.723C51.005 112.715 36 124.465 36 138.145C36 151.824 46.2927 159.737 59.8793 159.737C59.8793 159.737 68.5134 159.815 74.9153 156.296V159.675C74.9308 159.947 74.396 159.892 74.396 159.892C72.5436 159.892 71.0478 161.125 71.0478 162.644C71.0478 164.163 72.5514 165.388 74.396 165.388C76.2406 165.388 77.752 164.155 77.752 162.644V154.994C77.752 154.994 79.5579 153.615 80.1546 153.134C80.7514 152.653 80.2709 151.692 79.5579 151.933C78.8371 152.173 77.7597 152.653 77.7597 152.653V120.869C77.7597 120.869 83.9989 121.465 87.1146 117.753M74.8688 153.374C64.0723 154.576 61.1969 152.173 61.1969 152.173L70.0712 144.616V118.706C70.0712 117.505 74.8688 120.504 74.8688 120.504V153.374Z" fill="#D9D9D9"/>
<path d="M158.037 91.2604C157.502 91.1054 157.122 91.1054 156.812 91.3379C155.518 92.3299 154.371 92.9422 153.457 93.0197C152.542 93.0972 151.852 93.3995 151.395 94.0118L150.48 94.8489C150.403 95.0039 150.023 95.2364 148.798 95.3836C148.574 95.5387 147.884 95.9184 148.186 96.2982C148.566 96.833 148.946 97.4453 149.256 98.0576C149.558 99.3597 149.333 100.731 148.109 102.034C147.651 102.568 147.039 102.716 146.28 102.646C145.9 102.568 145.435 102.344 145.435 101.879C145.512 101.421 145.667 101.042 146.125 100.731C146.892 99.7394 146.892 98.8946 146.047 98.1351C145.435 97.8251 144.822 97.8251 144.218 98.1351C142.993 98.6699 142.846 99.7394 143.606 100.731C143.606 101.042 143.528 101.421 143.373 101.879C143.071 102.491 142.536 102.646 141.846 102.568C140.707 101.956 140.164 100.887 140.319 99.0574C140.854 98.2203 141.466 97.453 142.071 96.8407C141.389 95.6162 140.397 94.7016 139.172 94.0893C137.948 94.7016 136.956 95.6162 136.274 96.8407C136.886 97.5228 137.421 98.2203 137.723 99.0574C137.878 100.127 137.8 101.197 136.956 102.189C136.196 102.723 135.429 103.026 134.662 102.568C134.127 102.034 134.127 101.421 134.437 100.739C134.972 99.9022 134.894 99.0574 134.127 98.3676C133.514 97.9103 132.755 97.9878 132.22 98.3676C131.461 98.9799 131.538 99.7472 132.143 100.739C132.22 101.119 132.143 101.499 132.065 101.731C131.453 103.026 130.538 102.878 129.469 102.413C127.562 100.584 127.64 98.6699 129.848 96.8407C130.306 96.2285 130.081 95.5387 129.236 95.3914C127.632 94.9341 126.26 94.2443 125.338 92.95C124.423 91.0356 123.199 91.0356 122.284 92.95C121.369 94.1746 119.92 94.9341 118.393 95.3914C117.556 95.5464 117.324 96.2285 117.703 96.7632C119.998 98.6776 119.998 100.507 118.161 102.413C117.091 102.871 116.177 102.948 115.564 101.731C115.409 101.429 115.409 101.119 115.487 100.662C116.099 99.7472 116.169 98.9024 115.409 98.3676C114.797 97.9878 114.107 97.9103 113.425 98.3676C112.666 98.9799 112.666 99.8944 113.193 100.739C113.425 101.352 113.425 101.964 112.968 102.499C112.123 102.956 111.441 102.723 110.674 102.196C109.837 101.127 109.759 100.135 109.914 99.0651C110.216 98.1506 110.751 97.4608 111.286 96.771C110.674 95.6239 109.682 94.7094 108.38 94.0196C107.232 94.7094 106.24 95.6239 105.473 96.771C106.163 97.4608 106.775 98.1506 107.232 99.0651C107.465 100.825 106.93 101.972 105.783 102.499C105.016 102.654 104.489 102.499 104.179 101.809C104.101 101.429 104.024 101.049 104.024 100.739C104.783 99.7472 104.559 98.6776 103.411 98.1428C102.799 97.8328 102.187 97.8328 101.505 98.1428C100.738 98.9101 100.66 99.7472 101.427 100.739C101.885 101.049 102.109 101.429 102.109 101.809C102.187 102.344 101.73 102.576 101.272 102.654C100.505 102.731 99.978 102.499 99.5207 102.041C98.2186 100.739 97.9939 99.3674 98.2961 97.9956C98.5984 97.3833 98.9859 96.8485 99.4432 96.3137C99.7455 95.9339 99.0634 95.4689 98.7534 95.3991C97.5288 95.1666 97.1491 95.0194 97.1491 94.8644L96.2345 93.9498C95.6997 93.415 95.0099 93.1127 94.1729 93.0352C93.2583 92.9577 92.0337 92.3454 90.7316 91.3534C90.4294 91.1209 90.0418 91.1209 89.5846 91.2759C89.197 91.6557 89.1273 92.0432 89.2745 92.423C94.0101 96.6237 95.6145 101.514 95.9942 104.033H151.604C151.984 101.514 153.588 96.6237 158.254 92.5005C158.479 92.0432 158.409 91.6634 158.022 91.2759" fill="#D9D9D9"/>
<path d="M93.5708 90.5008C95.0202 90.8806 96.4773 91.3456 97.6941 92.1052C98.5389 92.3299 99.376 92.1052 100.136 91.6479C103.499 88.974 107.312 86.7573 111.823 85.3855C112.513 85.153 112.893 85.3855 112.66 86.0753C110.901 87.4471 109.607 89.2065 108.839 91.5006C108.839 92.1904 109.297 92.4927 110.289 92.4152C111.056 92.1827 111.668 92.2602 112.126 92.5702C112.815 92.7252 113.35 92.4927 113.807 91.4231C114.265 88.4469 116.102 86.3776 118.775 84.9282C119.992 84.781 120.527 85.308 120.38 86.4551C119.388 87.5246 118.62 88.664 118.318 89.8885C118.396 91.0356 119 91.4154 120 91.1131C120.612 91.1131 121.07 90.5783 121.449 89.5863C122.441 87.7494 125.038 87.7494 126.03 89.5863C126.41 90.5783 126.867 91.1131 127.402 91.1131C128.471 91.4231 129.084 91.0356 129.161 89.8885C128.859 88.664 128.092 87.5169 127.1 86.4551C126.945 85.308 127.479 84.7732 128.704 84.9282C131.378 86.3776 133.215 88.4469 133.672 91.4231C134.052 92.4927 134.664 92.7175 135.276 92.5702C135.811 92.2602 136.423 92.1827 137.183 92.4152C138.175 92.4927 138.632 92.1827 138.632 91.5006C137.873 89.2065 136.571 87.4549 134.811 86.0753C134.579 85.3855 134.966 85.1607 135.648 85.3855C140.151 86.7573 143.972 88.974 147.336 91.6479C148.096 92.1052 148.94 92.3377 149.778 92.1052C151.002 91.3379 152.374 90.8806 153.901 90.5008C154.823 90.3458 155.125 89.6638 154.893 88.5942C154.203 87.6021 153.211 86.9898 151.839 86.8348C151.304 86.9123 150.847 86.7573 150.467 86.3776C149.63 84.9282 148.096 84.3857 146.034 84.6957C145.042 83.5486 143.662 83.3239 142.213 83.3936C140.911 82.014 139.462 81.8668 137.935 82.169C136.253 81.0995 134.726 80.7197 133.432 81.4017C131.293 80.5647 129.456 80.8669 127.929 81.859C127.394 80.7119 126.635 79.8749 125.41 79.4099V78.038H127.394V76.0539H125.41V74H122.046V76.0616H120.062V78.0458H122.046V79.4176C120.822 79.8749 119.985 80.7197 119.52 81.8668C117.915 80.8747 116.164 80.5647 114.024 81.4095C112.653 80.7274 111.118 81.1072 109.521 82.1768C107.995 81.8745 106.545 82.0218 105.243 83.4014C103.716 83.3239 102.414 83.5564 101.422 84.7035C99.3605 84.3934 97.8336 84.9282 96.9888 86.3853C96.609 86.7651 96.1518 86.9201 95.617 86.8426C94.2451 86.9976 93.2453 87.6099 92.5633 88.602C92.3385 89.6715 92.6408 90.3613 93.5553 90.5086M123.821 80.4949C124.891 80.4949 125.728 81.5645 125.728 82.9363C125.728 84.3082 124.891 85.4552 123.821 85.4552C122.751 85.4552 121.837 84.3082 121.837 82.9363C121.837 81.5645 122.751 80.4949 123.821 80.4949Z" fill="#D9D9D9"/>
<path d="M96.0156 113.033H151.626V107.84H96.0156V113.033ZM145.363 108.987C146.2 108.987 146.89 109.677 146.89 110.514C146.89 111.351 146.2 112.041 145.363 112.041C144.526 112.041 143.836 111.351 143.836 110.514C143.836 109.677 144.526 108.987 145.363 108.987ZM134.745 108.987C135.582 108.987 136.272 109.677 136.272 110.514C136.272 111.351 135.582 112.041 134.745 112.041C133.908 112.041 133.218 111.351 133.218 110.514C133.218 109.677 133.908 108.987 134.745 108.987ZM123.824 108.987C124.661 108.987 125.351 109.677 125.351 110.514C125.351 111.351 124.661 112.041 123.824 112.041C122.987 112.041 122.298 111.351 122.298 110.514C122.298 109.677 122.987 108.987 123.824 108.987ZM112.896 108.987C113.741 108.987 114.423 109.677 114.423 110.514C114.423 111.351 113.733 112.041 112.896 112.041C112.059 112.041 111.369 111.351 111.369 110.514C111.369 109.677 112.059 108.987 112.896 108.987ZM102.208 108.987C103.045 108.987 103.735 109.677 103.735 110.514C103.735 111.351 103.045 112.041 102.208 112.041C101.371 112.041 100.681 111.351 100.681 110.514C100.681 109.677 101.371 108.987 102.208 108.987Z" fill="#D9D9D9"/>
<path d="M151.626 105.242H96.0156V106.614H151.626V105.242Z" fill="#D9D9D9"/>
<path d="M101.014 129.139C101.014 128.247 102.208 127.224 102.208 127.224C97.7743 126.744 90.7058 123.52 90.7058 123.52C86.7531 126.876 80.3976 127.232 80.3976 127.232C80.2814 127.953 81.3587 129.27 81.3587 129.27V145.182C81.3587 145.182 81.0022 145.353 79.8861 146.763C79.5373 147.205 79.3203 147.655 79.3203 147.655C88.1869 148.616 91.7831 153.212 91.7831 153.212C95.7359 148.778 102.448 147.817 102.448 147.817C101.371 147.337 101.006 145.825 101.006 145.539V129.139H101.014ZM93.8293 146.74C89.0395 145.779 88.0784 144.702 88.0784 144.702V128.193C88.0784 127.837 93.8293 130.231 93.8293 130.231V146.74Z" fill="#D9D9D9"/>
<path d="M145.444 129.139C145.444 128.247 146.645 127.224 146.645 127.224C142.212 126.744 135.143 123.52 135.143 123.52C131.191 126.876 124.835 127.232 124.835 127.232C124.719 127.953 125.796 129.27 125.796 129.27V145.182C125.796 145.182 125.44 145.353 124.324 146.763C123.975 147.205 123.758 147.655 123.758 147.655C132.624 148.616 136.221 153.212 136.221 153.212C140.173 148.778 146.885 147.817 146.885 147.817C145.808 147.337 145.444 145.825 145.444 145.539V129.139ZM138.251 146.74C133.454 145.779 132.5 144.702 132.5 144.702V128.193C132.5 127.837 138.251 130.231 138.251 130.231V146.74Z" fill="#D9D9D9"/>
<path d="M197.091 147.298C195.324 147.019 194.696 145.484 194.696 145.019V126.992C189.542 125.318 184.512 123.52 184.512 123.52C179.722 126.395 174.568 127.232 174.568 127.232C174.452 127.953 175.529 129.27 175.529 129.27V145.973C175.529 145.973 175.335 146.26 174.893 146.856C174.7 147.112 174.366 147.523 174.258 147.655C179.396 148.282 185.07 153.212 185.07 153.212L189.193 148.778L193.851 153.212L199.369 147.655C199.369 147.655 198.858 147.577 197.091 147.298ZM187.503 146.748C185.349 145.074 182.349 143.95 182.349 143.95V128.162C182.59 128.464 187.503 130.2 187.503 130.2V146.748Z" fill="#D9D9D9"/>
<path d="M116.234 147.654C111.56 150.344 110.289 153.204 110.289 153.204C110.289 153.204 109.018 150.344 104.344 147.654L106.515 147.67V130.347C106.515 129.425 105.608 127.394 103.461 127.232L109.514 123.511C109.514 123.511 113.351 125.79 113.947 126.743C113.947 126.743 113.219 127.317 118.133 124.077L118.97 123.48C118.97 123.48 121.961 126.867 124.294 127.387C123.698 129.557 121.52 132.223 115.521 128.906C115.521 128.906 114.064 128.588 114.064 129.541V147.639H116.234V147.654Z" fill="#D9D9D9"/>
<path d="M171.699 127.232C169.327 126.31 164.863 123.504 164.863 123.504L164.026 124.101C159.112 127.333 157.996 126.875 157.996 126.875C157.399 125.914 153.563 123.643 153.563 123.643L147.719 127.232C149.866 127.395 150.772 129.425 150.772 130.348V147.654H148.602C153.276 150.336 154.547 153.204 154.547 153.204C154.547 153.204 155.826 150.344 160.492 147.654H158.321V130.2L161.429 128.425L163.824 130.2V147.654H161.654C166.32 150.344 167.335 153.212 167.335 153.212C167.335 153.212 168.606 150.344 173.28 147.654H171.11L171.094 129.511C171.094 129.511 172.288 127.472 171.691 127.232H171.699Z" fill="#D9D9D9"/>
<path d="M201.619 154.049C201.619 154.049 202.316 153.878 202.316 153.22C202.316 152.755 201.998 152.359 201.185 152.359H199.852V155.405H200.402V154.126H201.006C201.006 154.126 201.564 154.747 201.867 155.405H202.564C202.564 155.405 202.084 154.491 201.611 154.049M201.138 153.654C200.867 153.654 200.41 153.654 200.41 153.654V152.793H201.138C201.402 152.793 201.712 152.863 201.712 153.212C201.712 153.561 201.402 153.646 201.138 153.646" fill="#D9D9D9"/>
<path d="M198.242 153.852C198.242 155.441 199.537 156.735 201.125 156.735C202.714 156.735 204.009 155.441 204.009 153.852C204.009 152.263 202.714 150.969 201.125 150.969C199.537 150.969 198.242 152.263 198.242 153.852ZM198.777 153.852C198.777 152.565 199.823 151.511 201.118 151.511C202.412 151.511 203.458 152.565 203.458 153.852C203.458 155.139 202.404 156.193 201.118 156.193C199.831 156.193 198.777 155.146 198.777 153.852Z" fill="#D9D9D9"/>
</g>
<defs>
<clipPath id="clip0_4072_3340">
<rect width="168" height="91.3862" fill="white" transform="translate(36 74)"/>
</clipPath>
</defs>
</svg>
