<svg width="240" height="240" viewBox="0 0 240 240" fill="none" xmlns="http://www.w3.org/2000/svg">
<g clip-path="url(#clip0_4072_3175)">
<path d="M54 124.071C54.6699 124.095 55.3317 124.143 56.0015 124.143C65.5007 124.143 74.9919 124.111 84.4911 124.175C86.2908 124.192 88.0987 124.579 89.8823 124.886C90.5199 124.999 91.1494 125.305 91.7305 125.62C93.8046 126.758 94.6601 128.526 94.6036 130.882C94.5471 133.158 93.393 134.619 91.5045 135.644C90.9315 135.959 90.3262 136.209 89.4707 136.612C90.3342 136.895 90.9395 137.072 91.5368 137.298C94.3373 138.364 96.0563 140.317 96.3065 143.36C96.5729 146.547 95.677 149.267 92.7554 150.97C90.3827 152.35 87.7435 152.77 85.0399 152.778C75.3631 152.802 65.6864 152.786 56.0015 152.794C55.3317 152.794 54.6699 152.835 54 152.859V124.062V124.071ZM67.1391 145.474C67.4619 145.563 67.6314 145.652 67.8009 145.652C71.8685 145.66 75.9442 145.676 80.0118 145.652C80.4799 145.652 80.9642 145.498 81.4081 145.321C82.312 144.966 82.659 144.239 82.6025 143.295C82.546 142.335 82.1263 141.762 81.1014 141.519C80.3992 141.35 79.6648 141.245 78.9465 141.245C75.4842 141.221 72.0218 141.229 68.5595 141.245C68.0995 141.245 67.6475 141.366 67.1391 141.431V145.482V145.474ZM67.1714 134.401C67.5103 134.522 67.6152 134.603 67.7282 134.603C71.4327 134.619 75.1371 134.643 78.8335 134.627C79.3097 134.627 79.7939 134.482 80.2539 134.345C81.0287 134.111 81.4726 133.594 81.4888 132.755C81.5049 131.899 81.0691 131.375 80.262 131.189C79.6809 131.052 79.0756 130.939 78.4784 130.939C75.1371 130.915 71.8039 130.923 68.4627 130.939C68.0591 130.939 67.6556 131.028 67.1633 131.084V134.401H67.1714Z" fill="#D9D9D9"/>
<path d="M83.9891 92C84.3039 92.1533 84.5944 92.3551 84.9253 92.4439C87.968 93.2752 89.5579 95.3655 90.1229 98.3516C90.2197 98.8843 90.3246 99.4331 90.3327 99.9738C90.3973 105.115 90.7604 110.272 90.1148 115.405C89.7032 118.698 87.3062 121.054 84.0214 121.458C82.4718 121.652 80.8819 121.611 79.3243 121.523C75.8539 121.329 72.9969 118.932 72.8032 114.517C72.5772 109.497 72.6175 104.453 72.8032 99.425C72.9161 96.2533 74.4173 93.0815 78.6383 92.3551C78.8562 92.3148 79.0499 92.1211 79.2516 92C80.8335 92 82.4234 92 84.0053 92H83.9891ZM82.5929 106.931C82.5929 104.865 82.5929 102.807 82.5929 100.741C82.5929 100.321 82.6413 99.8447 82.4718 99.4896C82.3104 99.1587 81.9069 98.7874 81.576 98.739C81.0595 98.6664 80.6721 99.0457 80.6156 99.6187C80.5833 99.9819 80.5752 100.345 80.5752 100.708C80.5752 104.832 80.5752 108.965 80.5752 113.089C80.5752 113.395 80.4945 113.75 80.6156 113.985C80.8174 114.364 81.116 114.864 81.463 114.961C82.1087 115.139 82.4396 114.606 82.5445 114.017C82.6171 113.605 82.5929 113.169 82.5929 112.75C82.5929 110.805 82.5929 108.868 82.5929 106.923V106.931Z" fill="#D9D9D9"/>
<path d="M122.366 92C122.745 92.1533 123.109 92.347 123.504 92.452C126.377 93.259 128.032 95.2363 128.169 98.2225C128.25 99.9577 128.185 101.701 128.185 103.549H121.204C120.332 101.83 121.817 99.6429 120.139 98.1579C118.92 98.5292 119.049 99.3847 119.041 100.159C119.041 104.163 119.041 108.166 119.041 112.169C119.041 112.774 119.033 113.379 119.049 113.985C119.073 114.622 119.235 115.187 119.985 115.365C120.905 115.123 120.921 114.364 120.921 113.629C120.938 112.12 120.921 110.611 120.921 108.997H128.12C128.153 109.917 128.201 110.861 128.201 111.797C128.201 113.008 128.225 114.227 128.137 115.437C127.903 118.609 125.675 120.933 122.544 121.474C120.72 121.789 118.928 121.757 117.104 121.474C113.964 120.966 111.834 118.867 111.463 115.696C111.285 114.194 111.172 112.677 111.18 111.168C111.204 107.044 111.18 102.92 111.422 98.8117C111.64 95.1395 113.351 93.3559 116.999 92.3713C117.217 92.3148 117.403 92.1291 117.596 92.0081C119.178 92.0081 120.768 92.0081 122.35 92.0081L122.366 92Z" fill="#D9D9D9"/>
<path d="M143.856 138.535C143.969 140.504 143.654 142.409 142.936 144.233C141.677 147.404 139.296 149.487 136.278 150.899C133.55 152.174 130.628 152.804 127.666 153.102C123.357 153.538 119.023 153.562 114.713 153.102C111.202 152.731 107.74 152.005 104.641 150.173C101.243 148.171 99.193 145.29 98.5958 141.335C98.2326 138.89 98.2649 136.493 98.854 134.12C100.024 129.399 103.406 126.824 107.764 125.299C110.411 124.379 113.163 123.862 115.98 123.765C121.21 123.596 126.448 123.37 131.621 124.5C134.196 125.065 136.649 125.912 138.82 127.446C142.016 129.705 143.598 132.853 143.856 136.703C143.897 137.308 143.856 137.913 143.856 138.527V138.535ZM121.242 131.723C119.434 132.038 117.667 132.191 115.996 132.683C113.268 133.482 111.799 135.411 111.694 137.921C111.581 140.665 112.897 142.901 115.52 143.95C119.224 145.427 123.018 145.419 126.722 143.95C129.442 142.877 130.58 140.891 130.491 137.937C130.418 135.516 128.99 133.563 126.375 132.748C124.721 132.231 122.953 132.054 121.234 131.723H121.242Z" fill="#D9D9D9"/>
<path d="M163.417 133.432C166.177 130.252 168.8 127.226 171.431 124.199H185.192C184.506 125.03 183.941 125.733 183.351 126.411C179.219 131.188 175.111 135.99 170.923 140.728C169.857 141.939 169.325 143.149 169.405 144.796C169.543 147.386 169.446 149.993 169.446 152.697H156.613C156.573 152.293 156.484 151.833 156.484 151.381C156.468 149.017 156.42 146.644 156.5 144.279C156.549 142.915 156.153 141.89 155.225 140.865C150.383 135.498 145.613 130.059 140.819 124.643C140.746 124.554 140.714 124.433 140.617 124.24H155.524C158.058 127.193 160.689 130.26 163.417 133.44V133.432Z" fill="#D9D9D9"/>
<path d="M137.627 102.324H139.604V92.5742H146.868C147.239 93.8171 147.328 118.957 146.941 121.096H139.693V110.306C138.991 110.241 138.483 110.193 137.756 110.128C137.563 112.057 137.684 113.865 137.659 115.664C137.635 117.416 137.659 119.167 137.659 121.161C135.133 121.241 132.736 121.201 130.234 121.185V92.5904H137.619V102.324H137.627Z" fill="#D9D9D9"/>
<path d="M184.486 121.103H176.835C176.141 117.956 175.455 114.8 174.761 111.653C174.616 111.661 174.478 111.677 174.333 111.685C174.204 114.752 174.365 117.835 174.269 120.861C172.905 121.265 169.023 121.345 166.852 121.023V92.6057H174.26V100.806C174.365 100.846 174.478 100.886 174.583 100.927C174.753 100.628 174.995 100.346 175.084 100.023C175.77 97.5773 176.431 95.1319 177.126 92.5977H184.551C184.341 93.4531 184.187 94.2118 183.969 94.9624C183.122 97.8678 182.291 100.781 181.387 103.671C181.08 104.647 181.096 105.559 181.322 106.528C182.347 110.886 183.356 115.252 184.357 119.618C184.454 120.022 184.438 120.458 184.494 121.103H184.486Z" fill="#D9D9D9"/>
<path d="M109.117 121.12H102.49C101.344 116.674 100.215 112.275 99.0847 107.876C98.9394 107.901 98.8022 107.917 98.6569 107.941V121.072C96.5262 121.29 94.5651 121.217 92.6362 121.145C92.2811 119.668 92.2004 94.7939 92.5232 92.5987H99.7626C100.699 96.6179 101.643 100.71 102.595 104.793C102.733 104.785 102.862 104.769 102.999 104.761C103.136 100.726 102.975 96.6825 103.088 92.5664H109.125V121.12H109.117Z" fill="#D9D9D9"/>
<path d="M61.7097 110.523V121.072H54.4219V92.582C55.0352 92.5498 55.5679 92.4933 56.1086 92.4933C59.0302 92.4852 61.9518 92.469 64.8734 92.4933C65.5917 92.4933 66.3261 92.5901 67.0364 92.7515C69.3042 93.26 70.6117 94.5351 70.7489 96.8514C70.9184 99.8618 70.9668 102.904 70.7489 105.915C70.5471 108.82 68.5294 110.467 65.6401 110.507C64.4295 110.523 63.2189 110.507 61.7178 110.507L61.7097 110.523ZM61.8308 98.3122V104.632C62.9445 105.051 63.3723 104.454 63.4207 103.663C63.5175 102.17 63.5175 100.653 63.4368 99.1596C63.3884 98.288 62.8477 97.8845 61.8308 98.3122Z" fill="#D9D9D9"/>
<path d="M157.201 100.46C158.193 97.9498 158.258 95.2865 158.847 92.6151H165.514C165.053 94.4956 164.626 96.3034 164.182 98.1032C163.254 101.864 162.293 105.609 161.389 109.378C161.163 110.306 161.042 111.283 161.026 112.243C160.978 114.608 161.01 116.98 161.01 119.345C161.01 119.878 161.01 120.411 161.01 121.08H153.488C153.488 119.733 153.416 118.474 153.504 117.215C153.787 113.107 153.117 109.16 151.914 105.23C150.728 101.356 149.776 97.4091 148.726 93.4948C148.654 93.2123 148.581 92.9298 148.484 92.5586H155.861C156.305 95.1816 156.757 97.8207 157.209 100.46H157.201Z" fill="#D9D9D9"/>
<path d="M136.797 132.472C136.797 132.472 136.797 132.488 136.813 132.496C136.813 132.496 136.821 132.504 136.829 132.512C136.829 132.512 136.845 132.529 136.853 132.537C136.853 132.537 136.853 132.553 136.87 132.561C136.886 132.569 136.894 132.585 136.91 132.593C136.926 132.609 136.942 132.625 136.958 132.642L136.982 132.658C136.982 132.658 137.023 132.682 137.047 132.698C137.071 132.714 137.095 132.722 137.12 132.73C137.12 132.73 137.136 132.73 137.144 132.73C137.16 132.73 137.168 132.738 137.184 132.746C137.2 132.746 137.217 132.763 137.233 132.763C137.241 132.763 137.249 132.763 137.257 132.763V132.779H137.281C137.321 132.779 137.362 132.795 137.41 132.811C137.426 132.811 137.451 132.819 137.467 132.819H137.475C137.475 132.819 137.515 132.819 137.531 132.827C137.547 132.827 137.564 132.827 137.572 132.827C137.644 132.835 137.709 132.827 137.773 132.827H137.79C137.822 132.827 137.854 132.811 137.886 132.795C137.886 132.795 137.903 132.795 137.911 132.795C137.911 132.795 137.927 132.795 137.935 132.787C137.935 132.787 137.951 132.779 137.959 132.771C137.967 132.771 137.983 132.763 137.999 132.746C138.024 132.746 138.04 132.73 138.056 132.714C138.056 132.714 138.064 132.706 138.072 132.698C138.08 132.698 138.088 132.69 138.096 132.682C138.096 132.682 138.104 132.674 138.112 132.666C138.129 132.658 138.137 132.642 138.145 132.633C138.145 132.633 138.145 132.625 138.145 132.617C138.153 132.617 138.161 132.601 138.169 132.585C138.193 132.561 138.209 132.537 138.225 132.512C138.225 132.512 138.233 132.496 138.242 132.496C138.258 132.48 138.266 132.456 138.274 132.44C138.274 132.424 138.29 132.416 138.298 132.399C138.322 132.367 138.338 132.327 138.346 132.294C138.346 132.294 138.346 132.278 138.355 132.27C138.363 132.246 138.379 132.214 138.379 132.19C138.395 132.165 138.395 132.141 138.403 132.125C138.403 132.109 138.403 132.101 138.411 132.085C138.427 132.052 138.419 132.028 138.411 132.004C138.411 132.004 138.411 131.964 138.411 131.956C138.411 131.931 138.411 131.907 138.411 131.883C138.411 131.883 138.411 131.875 138.411 131.867C138.411 131.859 138.411 131.843 138.411 131.834C138.411 131.818 138.411 131.81 138.411 131.802C138.411 131.786 138.411 131.77 138.403 131.754V131.738C138.403 131.721 138.395 131.713 138.387 131.705C138.387 131.697 138.387 131.689 138.379 131.681C138.379 131.665 138.371 131.649 138.363 131.633C138.363 131.633 138.363 131.625 138.363 131.617C138.363 131.6 138.346 131.584 138.338 131.576C138.338 131.576 138.33 131.56 138.322 131.552C138.322 131.552 138.322 131.544 138.314 131.536C138.314 131.536 138.314 131.536 138.314 131.528C138.314 131.512 138.298 131.504 138.298 131.495C138.298 131.495 138.298 131.495 138.298 131.487C138.298 131.471 138.282 131.463 138.274 131.455C138.274 131.447 138.258 131.431 138.242 131.423V131.407L138.217 131.391C138.201 131.382 138.193 131.374 138.185 131.358C138.185 131.358 138.137 131.302 138.104 131.294C138.08 131.286 138.064 131.269 138.04 131.253C138.04 131.253 138.024 131.237 138.024 131.229C138.024 131.229 137.991 131.197 137.975 131.189H137.959C137.959 131.189 137.903 131.157 137.862 131.165V131.148H137.83C137.83 131.148 137.83 131.148 137.814 131.148C137.798 131.148 137.79 131.148 137.781 131.148H137.765H137.757H137.741C137.741 131.148 137.725 131.148 137.709 131.148C137.709 131.148 137.709 131.148 137.709 131.157C137.709 131.157 137.709 131.157 137.701 131.157H137.693H137.66C137.636 131.157 137.612 131.165 137.588 131.173C137.588 131.173 137.58 131.173 137.572 131.173C137.547 131.173 137.523 131.173 137.499 131.189C137.475 131.205 137.443 131.213 137.41 131.221C137.402 131.221 137.386 131.221 137.378 131.229C137.362 131.229 137.354 131.237 137.346 131.245C137.346 131.245 137.321 131.245 137.313 131.261C137.313 131.261 137.289 131.261 137.281 131.278C137.281 131.278 137.281 131.278 137.273 131.278C137.273 131.278 137.265 131.278 137.257 131.286C137.249 131.286 137.233 131.286 137.225 131.302H137.217C137.2 131.302 137.192 131.31 137.184 131.318C137.184 131.318 137.176 131.318 137.168 131.326C137.16 131.326 137.152 131.342 137.144 131.342C137.128 131.342 137.12 131.358 137.112 131.366C137.112 131.366 137.112 131.366 137.104 131.374C137.087 131.382 137.071 131.399 137.055 131.407C137.047 131.415 137.039 131.423 137.031 131.431C137.015 131.447 137.007 131.455 136.991 131.471V131.479C136.982 131.495 136.966 131.52 136.95 131.536C136.95 131.536 136.942 131.544 136.934 131.552C136.926 131.568 136.918 131.576 136.91 131.592C136.91 131.608 136.894 131.617 136.886 131.625H136.878V131.641C136.878 131.657 136.87 131.665 136.861 131.681C136.861 131.697 136.853 131.705 136.845 131.721C136.829 131.762 136.813 131.818 136.813 131.875C136.813 131.891 136.813 131.899 136.813 131.915C136.813 131.947 136.813 131.98 136.813 132.012C136.813 132.052 136.813 132.093 136.813 132.125C136.813 132.149 136.813 132.173 136.813 132.198V132.214C136.813 132.23 136.821 132.246 136.821 132.262C136.821 132.286 136.829 132.311 136.845 132.335C136.845 132.335 136.845 132.351 136.853 132.367C136.853 132.375 136.853 132.383 136.861 132.399C136.861 132.399 136.861 132.416 136.87 132.424C136.87 132.424 136.87 132.424 136.87 132.432C136.87 132.44 136.886 132.448 136.894 132.456L136.797 132.472ZM137.063 132.327C137.063 132.327 137.055 132.303 137.047 132.294C137.047 132.294 137.047 132.278 137.039 132.27C137.039 132.27 137.023 132.222 137.023 132.198C137.023 132.181 137.023 132.173 137.015 132.157C137.015 132.141 137.015 132.125 137.015 132.109C137.015 132.093 137.015 132.068 137.015 132.044C137.015 132.028 137.015 132.012 137.015 132.004C137.015 132.004 137.015 131.972 137.015 131.956C137.015 131.939 137.015 131.923 137.015 131.915C137.015 131.899 137.015 131.883 137.015 131.867C137.015 131.859 137.023 131.851 137.031 131.843C137.031 131.843 137.031 131.834 137.031 131.826C137.063 131.762 137.095 131.705 137.144 131.665C137.144 131.665 137.144 131.665 137.152 131.657V131.649C137.192 131.608 137.241 131.576 137.289 131.552C137.297 131.552 137.305 131.544 137.321 131.536V131.552H137.354C137.354 131.552 137.37 131.568 137.394 131.568C137.451 131.568 137.491 131.56 137.531 131.536C137.547 131.536 137.556 131.52 137.572 131.512C137.588 131.504 137.604 131.495 137.62 131.487C137.628 131.487 137.636 131.487 137.644 131.487C137.644 131.487 137.669 131.504 137.677 131.504L137.693 131.528H137.701C137.701 131.528 137.709 131.528 137.717 131.528C137.733 131.528 137.741 131.528 137.757 131.544C137.757 131.56 137.773 131.576 137.79 131.584C137.79 131.584 137.798 131.584 137.806 131.592C137.806 131.592 137.814 131.592 137.822 131.6C137.822 131.6 137.822 131.608 137.83 131.617C137.83 131.617 137.83 131.617 137.83 131.625L137.838 131.633C137.862 131.641 137.87 131.657 137.87 131.665V131.681H137.886C137.886 131.689 137.903 131.697 137.903 131.705C137.919 131.73 137.943 131.754 137.943 131.786C137.943 131.81 137.959 131.834 137.967 131.859C137.967 131.867 137.967 131.875 137.975 131.891C137.975 131.899 137.975 131.915 137.983 131.923C137.991 131.956 137.999 131.996 137.999 132.028C137.999 132.06 137.999 132.093 137.999 132.125C137.999 132.125 137.999 132.125 137.999 132.133C137.999 132.141 137.999 132.157 137.999 132.173C137.999 132.19 137.999 132.198 137.991 132.214C137.991 132.222 137.991 132.23 137.983 132.238C137.983 132.254 137.975 132.262 137.967 132.278C137.967 132.286 137.959 132.303 137.951 132.311C137.951 132.311 137.943 132.327 137.935 132.335C137.927 132.343 137.911 132.359 137.911 132.375C137.894 132.383 137.886 132.399 137.878 132.407C137.878 132.407 137.878 132.416 137.87 132.424C137.87 132.424 137.87 132.432 137.862 132.44C137.854 132.448 137.838 132.456 137.822 132.464C137.806 132.464 137.798 132.48 137.781 132.488C137.765 132.488 137.757 132.496 137.749 132.504C137.733 132.504 137.709 132.504 137.693 132.512C137.669 132.512 137.644 132.52 137.62 132.529C137.612 132.529 137.596 132.529 137.588 132.529C137.556 132.529 137.523 132.529 137.499 132.529C137.467 132.529 137.426 132.512 137.386 132.504C137.346 132.496 137.313 132.488 137.273 132.472H137.257C137.257 132.472 137.225 132.456 137.208 132.448C137.192 132.44 137.184 132.432 137.168 132.424C137.144 132.407 137.12 132.399 137.104 132.375C137.104 132.375 137.087 132.359 137.079 132.359C137.079 132.359 137.063 132.351 137.063 132.343C137.063 132.343 137.047 132.311 137.031 132.303L137.063 132.327Z" fill="black"/>
<path d="M128.687 133.442C128.719 133.482 128.759 133.53 128.808 133.571C128.872 133.627 128.945 133.684 129.034 133.764C129.163 133.869 129.308 133.95 129.51 134.031C129.534 134.039 129.566 134.047 129.59 134.055C129.607 134.055 129.623 134.055 129.639 134.071C129.655 134.071 129.671 134.079 129.687 134.087C129.703 134.087 129.712 134.095 129.728 134.103C129.784 134.128 129.849 134.144 129.905 134.16L129.954 134.176C130.01 134.192 130.067 134.208 130.115 134.224C130.139 134.224 130.155 134.241 130.18 134.241C130.244 134.265 130.317 134.281 130.389 134.289C130.438 134.289 130.478 134.305 130.527 134.313C130.559 134.313 130.599 134.329 130.632 134.329C130.68 134.329 130.728 134.337 130.777 134.345C130.801 134.345 130.817 134.345 130.841 134.345H130.882C130.882 134.345 130.954 134.354 130.987 134.354C131.003 134.354 131.019 134.354 131.027 134.354C131.027 134.354 131.035 134.354 131.043 134.354C131.043 134.354 131.051 134.354 131.059 134.354C131.124 134.378 131.188 134.37 131.253 134.37C131.277 134.37 131.293 134.37 131.318 134.37H131.334C131.398 134.37 131.463 134.37 131.535 134.362C131.552 134.362 131.568 134.362 131.576 134.354C131.584 134.354 131.592 134.354 131.6 134.354C131.624 134.354 131.648 134.354 131.673 134.354C131.681 134.354 131.697 134.354 131.705 134.354H131.721C131.721 134.354 131.753 134.354 131.77 134.354C131.77 134.354 131.77 134.354 131.778 134.354C131.778 134.354 131.786 134.354 131.794 134.354L131.81 134.378L131.874 134.329H131.947C131.947 134.329 131.971 134.354 131.987 134.354C132.02 134.354 132.036 134.321 132.036 134.313C132.036 134.313 132.036 134.305 132.036 134.297C132.052 134.297 132.06 134.305 132.076 134.297C132.092 134.297 132.1 134.281 132.108 134.265C132.108 134.265 132.125 134.265 132.133 134.265C132.149 134.265 132.157 134.265 132.173 134.257C132.181 134.257 132.197 134.257 132.205 134.249C132.205 134.249 132.213 134.249 132.221 134.249C132.238 134.249 132.262 134.249 132.286 134.232V134.249L132.351 134.232C132.375 134.232 132.407 134.216 132.431 134.208C132.464 134.241 132.504 134.224 132.52 134.216C132.52 134.216 132.528 134.216 132.536 134.216C132.569 134.208 132.601 134.2 132.633 134.192C132.665 134.184 132.706 134.168 132.746 134.16C132.859 134.136 132.964 134.111 133.061 134.087C133.085 134.087 133.109 134.087 133.142 134.079C133.166 134.079 133.198 134.079 133.222 134.071C133.255 134.071 133.279 134.055 133.303 134.047C133.319 134.047 133.335 134.039 133.351 134.031C133.359 134.031 133.376 134.031 133.384 134.031H133.4H133.416C133.432 134.031 133.44 134.031 133.456 134.031C133.464 134.031 133.481 134.031 133.481 134.023C133.481 134.023 133.481 134.023 133.489 134.023C133.489 134.023 133.505 134.039 133.529 134.023C133.545 134.023 133.561 134.015 133.577 134.007C133.61 133.99 133.634 133.982 133.666 133.982C133.698 133.982 133.731 133.974 133.755 133.958C133.771 133.95 133.795 133.942 133.803 133.942C133.828 133.942 133.852 133.942 133.876 133.942C133.884 133.942 133.9 133.942 133.908 133.942C133.949 133.942 133.989 133.926 134.021 133.91C134.045 133.902 134.062 133.894 134.086 133.885C134.086 133.885 134.094 133.885 134.102 133.885C134.118 133.885 134.134 133.885 134.158 133.885C134.288 133.845 134.401 133.805 134.514 133.756C134.578 133.732 134.643 133.7 134.707 133.676C134.723 133.676 134.74 133.659 134.756 133.659V133.676C134.74 133.74 134.723 133.805 134.707 133.877C134.683 133.982 134.659 134.087 134.627 134.192C134.594 134.313 134.57 134.442 134.546 134.571C134.514 134.749 134.473 134.943 134.441 135.128C134.425 135.233 134.401 135.338 134.384 135.451C134.36 135.596 134.336 135.742 134.304 135.887C134.263 136.089 134.045 137.049 134.045 137.049C134.045 137.049 136.144 137.299 137.032 137.073C138.016 136.823 138.961 135.976 139.001 135.935C139.009 135.927 139.017 135.919 139.025 135.911C139.025 135.911 139.025 135.911 139.025 135.919C139.041 135.952 139.049 135.992 139.065 136.024C139.122 136.178 139.17 136.331 139.259 136.476C139.259 136.484 139.267 136.5 139.275 136.508C139.324 136.662 139.461 136.71 139.566 136.726H139.574C139.574 136.726 139.638 136.742 139.687 136.726C139.719 136.726 139.735 136.71 139.76 136.694C139.792 136.67 139.816 136.629 139.832 136.597C139.832 136.581 139.848 136.565 139.856 136.557C139.889 136.516 139.84 136.436 139.84 136.428C139.816 136.379 139.792 136.339 139.76 136.299C139.743 136.266 139.719 136.234 139.703 136.202L139.671 136.145C139.622 136.065 139.574 135.976 139.534 135.895C139.509 135.839 139.485 135.766 139.461 135.709C139.453 135.677 139.437 135.645 139.429 135.613V135.588C139.404 135.54 139.388 135.5 139.372 135.451C139.372 135.443 139.372 135.443 139.372 135.427C139.485 135.306 139.614 135.161 139.711 134.991C139.784 134.862 139.856 134.733 139.889 134.58C139.897 134.531 139.913 134.475 139.929 134.426C139.953 134.354 139.969 134.281 139.985 134.2C140.01 134.063 140.018 133.926 140.026 133.756C140.026 133.676 140.026 133.603 140.026 133.522C140.026 133.482 140.026 133.442 140.026 133.409C140.026 133.369 140.026 133.329 140.026 133.288V133.256H140.115C140.211 133.256 140.284 133.232 140.349 133.183C140.478 133.078 140.559 132.941 140.591 132.756C140.591 132.756 140.591 132.756 140.599 132.756C140.623 132.772 140.647 132.78 140.68 132.796C140.712 132.812 140.736 132.828 140.768 132.844C140.825 132.877 140.881 132.901 140.938 132.925C140.986 132.941 141.027 132.957 141.075 132.973C141.099 132.973 141.115 132.99 141.14 132.998C141.164 132.998 141.18 133.014 141.204 133.022C141.245 133.038 141.293 133.054 141.341 133.062C141.454 133.086 141.567 133.103 141.696 133.111C141.729 133.111 141.769 133.111 141.801 133.111C141.85 133.111 141.898 133.111 141.939 133.111C142.019 133.127 142.092 133.127 142.157 133.111C142.189 133.111 142.213 133.103 142.237 133.095C142.253 133.095 142.269 133.086 142.294 133.086C142.35 133.078 142.407 133.07 142.471 133.062C142.568 133.046 142.673 133.014 142.786 132.949C142.915 132.869 143.02 132.788 143.093 132.675C143.117 132.643 143.141 132.61 143.157 132.57C143.206 132.465 143.246 132.384 143.278 132.304C143.294 132.263 143.319 132.207 143.319 132.158C143.319 131.989 143.319 131.795 143.222 131.618C143.165 131.505 143.101 131.392 143.012 131.295C142.923 131.206 142.834 131.141 142.738 131.101C142.697 131.085 142.665 131.069 142.625 131.053C142.568 131.028 142.504 130.996 142.447 130.972C142.407 130.956 142.366 130.948 142.318 130.94C142.302 130.94 142.286 130.932 142.261 130.924C142.261 130.924 142.253 130.924 142.245 130.924C142.197 130.883 142.14 130.875 142.092 130.859C142.084 130.859 142.068 130.859 142.06 130.859C142.027 130.859 141.995 130.843 141.971 130.835C141.914 130.819 141.866 130.811 141.809 130.794C141.729 130.778 141.656 130.762 141.575 130.754H141.551C141.366 130.73 141.164 130.706 140.978 130.689C140.801 130.673 140.623 130.665 140.413 130.665C140.3 130.665 140.195 130.665 140.074 130.665C140.042 130.665 140.01 130.665 139.969 130.665H139.953V130.673C139.953 130.673 139.937 130.673 139.905 130.673C139.905 130.673 139.905 130.665 139.905 130.657C139.905 130.641 139.905 130.625 139.905 130.609C139.905 130.593 139.905 130.576 139.905 130.568C139.905 130.544 139.905 130.52 139.905 130.488C139.905 130.472 139.905 130.455 139.905 130.439C139.905 130.423 139.905 130.407 139.905 130.391C139.905 130.391 139.905 130.383 139.905 130.375C139.905 130.375 139.905 130.375 139.905 130.367C139.913 130.342 139.905 130.326 139.897 130.318C139.897 130.294 139.881 130.27 139.872 130.246C139.872 130.229 139.864 130.221 139.856 130.213C139.848 130.189 139.832 130.173 139.816 130.165C139.816 130.149 139.808 130.133 139.792 130.125C139.792 130.125 139.792 130.116 139.792 130.108C139.784 130.092 139.776 130.084 139.76 130.076C139.76 130.076 139.743 130.068 139.743 130.06C139.743 130.06 139.719 130.02 139.695 130.003C139.695 130.003 139.679 129.987 139.671 129.979C139.663 129.971 139.655 129.963 139.647 129.955C139.638 129.955 139.63 129.939 139.622 129.931C139.606 129.915 139.582 129.89 139.55 129.882C139.55 129.882 139.534 129.882 139.525 129.866C139.525 129.866 139.509 129.858 139.501 129.85C139.469 129.834 139.445 129.818 139.421 129.818C139.421 129.818 139.421 129.818 139.412 129.818C139.404 129.818 139.388 129.802 139.364 129.802C139.364 129.802 139.348 129.802 139.34 129.794H139.324H139.316C139.299 129.794 139.291 129.794 139.275 129.794C139.267 129.794 139.251 129.786 139.235 129.786C139.219 129.786 139.211 129.786 139.195 129.786C139.178 129.786 139.162 129.786 139.146 129.786C139.122 129.786 139.106 129.786 139.082 129.786C139.074 129.786 139.065 129.786 139.049 129.786C139.025 129.786 139.001 129.786 138.985 129.786C138.985 129.786 138.969 129.786 138.961 129.786C138.952 129.737 138.944 129.689 138.928 129.648C138.92 129.592 138.904 129.543 138.904 129.519C138.896 129.455 138.88 129.382 138.856 129.326V129.301C138.807 129.164 138.767 129.027 138.718 128.89C138.694 128.825 138.67 128.761 138.638 128.696C138.622 128.672 138.613 128.64 138.597 128.615C138.492 128.365 138.315 128.179 138.137 128.01C138.121 127.994 138.105 127.978 138.081 127.962C138.016 127.905 137.952 127.841 137.887 127.784C137.782 127.695 137.669 127.606 137.548 127.518C137.508 127.493 137.476 127.461 137.435 127.437C137.314 127.34 137.185 127.243 137.048 127.155C136.927 127.074 136.798 127.001 136.652 126.929C136.515 126.864 136.37 126.799 136.233 126.743C136.192 126.727 136.16 126.711 136.12 126.694C136.063 126.67 135.99 126.646 135.926 126.622C135.813 126.59 135.708 126.573 135.611 126.549C135.385 126.501 135.183 126.485 134.998 126.477C134.707 126.477 134.425 126.509 134.167 126.59C134.037 126.63 133.9 126.686 133.771 126.735C133.731 126.751 133.682 126.767 133.642 126.783C133.618 126.791 133.602 126.807 133.577 126.816C133.561 126.824 133.553 126.832 133.537 126.84C133.513 126.856 133.481 126.864 133.456 126.88C133.408 126.904 133.359 126.92 133.319 126.945C133.263 126.977 133.206 127.009 133.158 127.05L133.133 127.066C133.053 127.122 132.972 127.179 132.899 127.235C132.875 127.251 132.859 127.267 132.843 127.292V127.308C132.843 127.308 132.811 127.332 132.795 127.348C132.762 127.38 132.722 127.421 132.69 127.461C132.641 127.518 132.601 127.582 132.56 127.647C132.456 127.8 132.415 127.978 132.391 128.099C132.375 128.204 132.367 128.317 132.375 128.422C132.383 128.575 132.423 128.736 132.488 128.898C132.577 129.124 132.73 129.317 132.843 129.463V129.479C132.891 129.527 132.932 129.568 132.972 129.616C132.996 129.648 133.029 129.673 133.061 129.705C133.069 129.713 133.077 129.721 133.093 129.729C133.109 129.737 133.117 129.753 133.133 129.761C133.166 129.794 133.206 129.826 133.238 129.858C133.295 129.907 133.351 129.955 133.416 130.003C133.416 130.003 133.432 130.012 133.432 130.02C133.368 130.02 133.295 130.02 133.23 130.012C133.077 130.012 132.924 129.995 132.77 129.995C132.609 129.995 132.431 129.995 132.246 130.012C132.004 130.028 131.681 130.052 131.358 130.133C131.188 130.173 130.987 130.221 130.793 130.27C130.664 130.302 130.535 130.35 130.43 130.383H130.406C130.228 130.455 130.042 130.528 129.857 130.601C129.663 130.681 129.477 130.778 129.324 130.883C129.195 130.972 129.082 131.061 128.993 131.158C128.913 131.246 128.84 131.335 128.775 131.416C128.719 131.488 128.662 131.569 128.606 131.65C128.582 131.682 128.565 131.723 128.549 131.755C128.541 131.771 128.533 131.787 128.525 131.803C128.517 131.819 128.509 131.844 128.493 131.86C128.477 131.892 128.452 131.932 128.436 131.965C128.42 132.005 128.396 132.053 128.38 132.102C128.38 132.126 128.372 132.15 128.364 132.174C128.364 132.207 128.348 132.239 128.339 132.271C128.315 132.32 128.315 132.36 128.307 132.409C128.307 132.425 128.307 132.441 128.307 132.457C128.307 132.505 128.291 132.562 128.299 132.626C128.299 132.699 128.315 132.772 128.331 132.844C128.348 132.909 128.364 132.973 128.388 133.03C128.452 133.183 128.541 133.337 128.678 133.498L128.687 133.442ZM132.27 133.974C132.221 133.95 132.173 133.974 132.133 133.99C132.092 133.974 132.052 133.99 132.02 133.99C132.004 133.99 131.996 133.99 131.979 133.99C131.955 133.99 131.931 133.99 131.899 133.99C131.874 133.99 131.85 133.99 131.826 133.99C131.794 133.99 131.761 133.99 131.729 133.998H131.665H131.624C131.608 133.998 131.592 133.998 131.576 133.998C131.56 133.998 131.544 133.998 131.535 133.998C131.479 133.998 131.422 133.998 131.366 133.998C131.285 133.998 131.205 133.998 131.124 133.998C131.075 133.998 131.027 133.998 130.979 133.99C130.946 133.99 130.914 133.99 130.882 133.99C130.866 133.99 130.849 133.99 130.841 133.99C130.825 133.99 130.809 133.99 130.793 133.99C130.728 133.982 130.664 133.966 130.599 133.958C130.551 133.958 130.502 133.942 130.454 133.934C130.422 133.934 130.389 133.926 130.357 133.918C130.301 133.918 130.244 133.902 130.188 133.894C130.042 133.861 129.905 133.821 129.784 133.781C129.679 133.748 129.599 133.708 129.526 133.668C129.469 133.635 129.413 133.595 129.364 133.555C129.324 133.522 129.284 133.498 129.243 133.466C129.098 133.369 128.985 133.248 128.913 133.095C128.872 133.014 128.84 132.933 128.808 132.852C128.791 132.82 128.783 132.78 128.767 132.747C128.711 132.602 128.687 132.465 128.703 132.32C128.719 132.174 128.775 132.037 128.832 131.932C128.945 131.706 129.058 131.537 129.179 131.4C129.292 131.271 129.421 131.166 129.558 131.085C129.615 131.053 129.687 131.012 129.76 130.972C129.816 130.948 129.873 130.924 129.929 130.899H129.937C130.067 130.843 130.188 130.794 130.309 130.754C130.365 130.738 130.422 130.714 130.47 130.698C130.51 130.681 130.551 130.673 130.591 130.657C130.607 130.657 130.623 130.641 130.64 130.641C130.664 130.633 130.68 130.625 130.696 130.617C130.866 130.576 131.051 130.528 131.253 130.488H131.301C131.39 130.455 131.479 130.431 131.576 130.423C131.705 130.407 131.834 130.391 131.955 130.375H132.02C132.108 130.359 132.197 130.35 132.31 130.342C132.334 130.342 132.359 130.342 132.383 130.342C132.407 130.342 132.423 130.342 132.447 130.342C132.48 130.342 132.512 130.342 132.544 130.342C132.601 130.342 132.649 130.342 132.706 130.342C132.843 130.342 132.988 130.35 133.166 130.367H133.23C133.376 130.383 133.521 130.391 133.666 130.407C133.723 130.407 133.787 130.423 133.844 130.423C133.941 130.423 134.037 130.439 134.134 130.463C134.207 130.48 134.28 130.488 134.344 130.504C134.393 130.504 134.449 130.52 134.497 130.528C134.61 130.552 134.715 130.585 134.804 130.609C134.853 130.625 134.901 130.641 134.949 130.665C134.974 130.673 134.99 130.681 135.014 130.689H135.038V130.681C135.054 130.681 135.07 130.698 135.087 130.706C135.143 130.73 135.192 130.754 135.248 130.778C135.296 130.802 135.353 130.819 135.401 130.835C135.732 130.924 136.095 131.012 136.451 131.109C136.531 131.125 136.62 131.141 136.717 131.158C136.757 131.158 136.814 131.133 136.846 131.085C136.886 131.028 136.902 130.964 136.886 130.915C136.886 130.899 136.87 130.891 136.862 130.875C136.757 130.778 136.668 130.714 136.564 130.673C136.418 130.617 136.273 130.56 136.12 130.512C136.055 130.488 135.99 130.472 135.926 130.455C135.894 130.447 135.853 130.439 135.821 130.423C135.756 130.407 135.692 130.383 135.619 130.359C135.498 130.318 135.377 130.286 135.256 130.254C135.127 130.213 134.982 130.173 134.836 130.149C134.748 130.133 134.659 130.116 134.57 130.1C134.514 130.092 134.457 130.084 134.409 130.076C134.401 130.076 134.384 130.076 134.368 130.076C134.32 130.076 134.271 130.06 134.231 130.044C134.175 130.012 134.11 129.971 134.062 129.931C134.045 129.923 134.029 129.907 134.021 129.899C133.9 129.81 133.779 129.721 133.666 129.64L133.642 129.624C133.585 129.584 133.521 129.535 133.472 129.487C133.384 129.398 133.303 129.317 133.23 129.237C133.158 129.156 133.069 129.051 132.996 128.938C132.956 128.882 132.924 128.817 132.899 128.752C132.891 128.728 132.875 128.704 132.867 128.68C132.778 128.51 132.738 128.341 132.746 128.171C132.746 127.986 132.803 127.824 132.907 127.687C133.004 127.558 133.125 127.453 133.263 127.38C133.424 127.292 133.561 127.219 133.715 127.155C133.787 127.122 133.86 127.098 133.932 127.074C133.973 127.058 134.013 127.05 134.045 127.033C134.263 126.953 134.505 126.904 134.748 126.888C134.941 126.872 135.135 126.888 135.321 126.912C135.353 126.912 135.393 126.929 135.426 126.929C135.482 126.937 135.53 126.953 135.587 126.953C135.756 126.969 135.926 127.017 136.128 127.098C136.257 127.146 136.41 127.211 136.555 127.292C136.677 127.356 136.806 127.437 136.943 127.534C137.112 127.655 137.282 127.784 137.443 127.905L137.54 127.978C137.54 127.978 137.613 128.042 137.653 128.066C137.693 128.099 137.734 128.131 137.774 128.163C137.895 128.252 138.008 128.365 138.097 128.486C138.226 128.656 138.331 128.849 138.444 129.108C138.517 129.285 138.613 129.624 138.67 129.842C138.67 129.842 138.654 129.842 138.654 129.858C138.654 129.858 138.646 129.858 138.638 129.866C138.622 129.882 138.605 129.89 138.589 129.89C138.573 129.89 138.557 129.907 138.549 129.923C138.549 129.923 138.549 129.923 138.533 129.931C138.533 129.931 138.525 129.931 138.517 129.947C138.517 129.947 138.509 129.947 138.5 129.955C138.484 129.963 138.476 129.971 138.46 129.995C138.46 129.995 138.46 129.995 138.452 130.003C138.444 130.003 138.428 130.02 138.42 130.036C138.42 130.036 138.42 130.036 138.412 130.036C138.404 130.052 138.404 130.068 138.404 130.084V130.1C138.404 130.108 138.404 130.125 138.404 130.141C138.404 130.141 138.396 130.149 138.396 130.157C138.379 130.165 138.371 130.181 138.371 130.189C138.371 130.189 138.371 130.197 138.371 130.205C138.355 130.221 138.347 130.238 138.339 130.254C138.339 130.254 138.331 130.278 138.323 130.286C138.315 130.302 138.299 130.318 138.291 130.342C138.275 130.359 138.275 130.375 138.266 130.383C138.266 130.391 138.266 130.399 138.258 130.407C138.242 130.423 138.234 130.447 138.234 130.463C138.234 130.463 138.234 130.48 138.234 130.488C138.21 130.544 138.202 130.609 138.194 130.657C138.194 130.657 138.194 130.673 138.194 130.681C138.194 130.689 138.194 130.706 138.194 130.714C138.194 130.73 138.194 130.746 138.194 130.762C138.194 130.762 138.194 130.77 138.194 130.778C138.194 130.778 138.194 130.819 138.194 130.835C138.194 130.851 138.194 130.867 138.202 130.883V130.899C138.202 130.915 138.202 130.94 138.218 130.964C138.218 130.972 138.226 130.988 138.234 130.988C138.234 130.988 138.242 131.004 138.234 131.004C138.234 131.028 138.242 131.045 138.25 131.053C138.25 131.053 138.25 131.053 138.25 131.061C138.25 131.077 138.25 131.085 138.266 131.093C138.266 131.093 138.283 131.101 138.283 131.109C138.291 131.109 138.291 131.117 138.291 131.117V131.133H138.299C138.299 131.133 138.307 131.141 138.315 131.149C138.315 131.149 138.323 131.166 138.331 131.174C138.371 131.214 138.42 131.254 138.468 131.287C138.509 131.311 138.541 131.327 138.573 131.343C138.573 131.343 138.573 131.343 138.581 131.351C138.581 131.351 138.581 131.351 138.589 131.351C138.597 131.351 138.613 131.351 138.613 131.351C138.63 131.359 138.638 131.367 138.654 131.367C138.654 131.367 138.654 131.367 138.662 131.367V131.375C138.686 131.375 138.71 131.384 138.726 131.392C138.775 131.408 138.823 131.416 138.88 131.424C138.896 131.424 138.912 131.424 138.928 131.424C138.944 131.424 138.961 131.424 138.977 131.424C139.009 131.424 139.041 131.424 139.074 131.424C139.074 131.424 139.09 131.424 139.098 131.424C139.138 131.424 139.178 131.408 139.219 131.392C139.219 131.392 139.235 131.392 139.243 131.392C139.259 131.392 139.275 131.392 139.291 131.375C139.291 131.375 139.299 131.375 139.308 131.375C139.34 131.359 139.364 131.343 139.388 131.335C139.388 131.335 139.404 131.335 139.404 131.327C139.437 131.303 139.461 131.287 139.501 131.262C139.525 131.246 139.542 131.238 139.566 131.222C139.582 131.214 139.59 131.206 139.598 131.19C139.606 131.182 139.614 131.174 139.622 131.166C139.647 131.158 139.655 131.141 139.671 131.125C139.743 131.125 139.8 131.125 139.808 131.125H139.816C139.816 131.125 139.872 131.125 139.905 131.125C139.921 131.125 139.945 131.125 139.961 131.133H139.994C140.058 131.117 140.123 131.109 140.195 131.109C140.365 131.109 140.534 131.109 140.704 131.109C140.752 131.109 140.801 131.109 140.849 131.109C140.93 131.109 141.01 131.109 141.083 131.109C141.212 131.117 141.333 131.133 141.446 131.149H141.462C141.551 131.166 141.64 131.174 141.721 131.198C141.922 131.254 142.1 131.303 142.269 131.359C142.407 131.408 142.552 131.456 142.673 131.537C142.73 131.569 142.778 131.61 142.818 131.658C142.843 131.682 142.851 131.706 142.867 131.739C142.867 131.755 142.883 131.771 142.891 131.779C142.964 131.9 142.972 132.037 142.923 132.207C142.883 132.32 142.794 132.409 142.713 132.473C142.625 132.546 142.504 132.594 142.35 132.61C142.205 132.626 142.019 132.651 141.834 132.643C141.64 132.643 141.479 132.618 141.341 132.57C141.204 132.522 141.067 132.457 140.914 132.392C140.817 132.352 140.728 132.304 140.631 132.263C140.567 132.231 140.502 132.207 140.437 132.174C140.341 132.134 140.236 132.15 140.155 132.231C140.074 132.312 140.09 132.4 140.123 132.473C140.147 132.53 140.163 132.586 140.171 132.643C140.171 132.659 140.171 132.675 140.179 132.691C140.179 132.699 140.179 132.715 140.179 132.723C140.155 132.772 140.09 132.812 140.042 132.804C139.905 132.788 139.832 132.739 139.8 132.643C139.768 132.554 139.735 132.457 139.703 132.344C139.687 132.296 139.671 132.247 139.606 132.231C139.598 132.231 139.582 132.223 139.566 132.215C139.55 132.207 139.534 132.199 139.509 132.191C139.469 132.191 139.421 132.199 139.372 132.239C139.332 132.279 139.308 132.32 139.308 132.368C139.308 132.433 139.324 132.489 139.34 132.554C139.356 132.618 139.372 132.683 139.396 132.747C139.404 132.78 139.412 132.812 139.421 132.836C139.445 132.925 139.501 132.998 139.598 133.054C139.622 133.07 139.63 133.086 139.63 133.111C139.63 133.199 139.647 133.28 139.647 133.369C139.647 133.409 139.647 133.45 139.655 133.49C139.655 133.514 139.655 133.538 139.655 133.571C139.655 133.627 139.671 133.684 139.663 133.74C139.647 134.152 139.517 134.523 139.291 134.846C139.251 134.902 139.219 134.959 139.17 134.991C139.17 134.991 139.162 134.975 139.154 134.967C139.13 134.935 139.106 134.902 139.082 134.862C139.065 134.846 139.057 134.83 139.041 134.814C139.025 134.797 139.009 134.781 139.001 134.765C138.961 134.701 139.001 134.354 138.92 134.313C138.88 134.297 138.848 134.297 138.815 134.289H138.799C138.783 134.289 138.767 134.289 138.759 134.297H138.751C138.751 134.297 138.702 134.337 138.678 134.354C138.654 134.378 138.347 134.475 138.113 134.386C137.863 134.289 137.605 134.16 137.338 133.982C137.096 133.821 136.911 133.595 136.725 133.377C136.677 133.321 136.636 133.264 136.596 133.199C136.483 133.03 136.346 132.828 136.216 132.618L136.2 132.586C136.16 132.53 136.12 132.465 136.103 132.409C136.071 132.32 135.789 132.263 135.781 132.279C135.756 132.312 135.74 132.336 135.716 132.36C135.692 132.392 135.668 132.417 135.643 132.449C135.563 132.546 135.474 132.651 135.385 132.747C135.345 132.788 135.304 132.828 135.264 132.86C135.24 132.885 134.723 133.224 134.675 133.248H134.651C134.61 133.272 134.57 133.288 134.522 133.312C134.473 133.337 134.417 133.353 134.368 133.377C134.239 133.425 134.11 133.474 133.981 133.514H133.949C133.819 133.571 133.69 133.611 133.561 133.651C133.44 133.684 133.319 133.716 133.198 133.74C133.166 133.748 133.125 133.756 133.093 133.764C133.029 133.781 132.956 133.797 132.891 133.813L132.819 133.829C132.819 133.829 132.77 133.837 132.746 133.845C132.714 133.845 132.69 133.861 132.657 133.861C132.649 133.861 132.641 133.861 132.633 133.861C132.617 133.861 132.609 133.869 132.593 133.869C132.569 133.869 132.544 133.869 132.528 133.894C132.504 133.877 132.472 133.885 132.439 133.902C132.439 133.902 132.431 133.902 132.423 133.902C132.359 133.885 132.31 133.902 132.262 133.934L132.27 133.974ZM138.839 135.338C138.839 135.338 138.839 135.379 138.823 135.403C138.823 135.403 138.823 135.411 138.815 135.419C138.815 135.419 138.807 135.435 138.799 135.443C138.799 135.443 138.799 135.451 138.799 135.459C138.791 135.475 138.775 135.5 138.767 135.516C138.743 135.556 138.726 135.605 138.694 135.637C138.444 135.968 138.178 136.21 137.871 136.387C137.734 136.468 137.613 136.508 137.5 136.533C137.435 136.541 137.379 136.557 137.322 136.573C137.298 136.573 137.274 136.589 137.241 136.597C137.209 136.597 137.177 136.613 137.153 136.621C137.088 136.638 137.024 136.662 136.959 136.67C136.806 136.686 136.644 136.702 136.491 136.71H136.41C136.41 136.71 136.394 136.71 136.378 136.694C136.354 136.67 136.338 136.654 136.321 136.629C136.297 136.597 136.265 136.573 136.241 136.541C136.144 136.444 136.039 136.347 135.934 136.266C135.886 136.226 135.837 136.202 135.789 136.169C135.756 136.153 135.724 136.129 135.692 136.105C135.668 136.089 135.643 136.073 135.627 136.065C135.571 136.032 135.514 135.992 135.474 135.943C135.458 135.919 135.434 135.903 135.417 135.879C135.393 135.855 135.369 135.83 135.353 135.806C135.337 135.782 135.313 135.758 135.296 135.734C135.224 135.637 135.151 135.54 135.095 135.435C135.046 135.346 135.014 135.249 134.974 135.153C134.966 135.128 134.957 135.104 134.941 135.072C134.925 135.023 134.917 134.983 134.925 134.959C134.933 134.87 134.949 134.781 134.966 134.693C134.966 134.668 134.966 134.652 134.974 134.628C134.974 134.628 134.974 134.636 134.974 134.644C134.99 134.684 134.998 134.717 135.014 134.757C135.087 134.902 135.2 135.023 135.313 135.128C135.401 135.217 135.506 135.298 135.595 135.387C135.643 135.427 135.692 135.475 135.74 135.516C135.869 135.637 136.023 135.709 136.192 135.79C136.273 135.83 136.362 135.879 136.434 135.927C136.467 135.943 136.491 135.96 136.523 135.976C136.547 135.992 136.564 136 136.588 136.016C136.62 136.032 136.644 136.056 136.677 136.073C136.725 136.097 136.765 136.121 136.814 136.137C136.862 136.161 136.919 136.186 136.967 136.21C137.072 136.266 137.185 136.299 137.298 136.323C137.338 136.331 137.379 136.339 137.427 136.339C137.459 136.339 137.492 136.339 137.516 136.347C137.661 136.371 137.798 136.363 137.927 136.315C138.065 136.266 138.153 136.169 138.21 136.032C138.258 135.911 138.315 135.83 138.404 135.766C138.549 135.653 138.605 135.451 138.541 135.298C138.541 135.282 138.525 135.257 138.557 135.225C138.557 135.217 138.573 135.209 138.581 135.201C138.63 135.161 138.702 135.161 138.767 135.201C138.815 135.225 138.831 135.274 138.848 135.322L138.839 135.338ZM139.38 130.229V130.246L139.396 130.262C139.396 130.262 139.437 130.318 139.453 130.35C139.453 130.359 139.453 130.375 139.453 130.383C139.469 130.407 139.469 130.439 139.469 130.472C139.469 130.48 139.469 130.488 139.469 130.504C139.469 130.52 139.469 130.536 139.469 130.56C139.469 130.576 139.469 130.585 139.469 130.601C139.469 130.625 139.469 130.649 139.461 130.673V130.689C139.461 130.714 139.445 130.738 139.445 130.77C139.437 130.786 139.429 130.802 139.429 130.819C139.429 130.835 139.421 130.851 139.404 130.859C139.396 130.859 139.388 130.875 139.388 130.883C139.372 130.907 139.356 130.932 139.332 130.964C139.332 130.964 139.291 131.012 139.267 131.028C139.267 131.028 139.259 131.037 139.251 131.045C139.235 131.061 139.211 131.085 139.186 131.093C139.178 131.093 139.17 131.093 139.154 131.101C139.13 131.109 139.106 131.125 139.074 131.117H139.065H139.057C139.041 131.125 139.025 131.117 139.001 131.117C138.993 131.117 138.985 131.117 138.977 131.117C138.969 131.117 138.961 131.117 138.952 131.117C138.936 131.117 138.92 131.109 138.904 131.109C138.904 131.109 138.896 131.109 138.888 131.109C138.872 131.109 138.864 131.109 138.848 131.101C138.839 131.101 138.823 131.101 138.815 131.093C138.815 131.093 138.799 131.093 138.791 131.085C138.775 131.085 138.759 131.069 138.743 131.069C138.743 131.069 138.735 131.061 138.726 131.053C138.702 131.045 138.686 131.028 138.662 131.02C138.662 131.02 138.613 130.988 138.589 130.964C138.573 130.948 138.557 130.932 138.541 130.915V130.899L138.525 130.891H138.517C138.517 130.891 138.517 130.883 138.509 130.875C138.509 130.867 138.509 130.859 138.492 130.843C138.492 130.843 138.484 130.827 138.476 130.827C138.468 130.819 138.46 130.802 138.452 130.794C138.452 130.794 138.452 130.778 138.444 130.778C138.444 130.778 138.444 130.77 138.444 130.762C138.444 130.738 138.444 130.722 138.436 130.706C138.436 130.689 138.428 130.673 138.428 130.657C138.428 130.593 138.412 130.536 138.428 130.48C138.444 130.431 138.46 130.383 138.492 130.342C138.509 130.318 138.525 130.302 138.549 130.286H138.557V130.262C138.557 130.262 138.557 130.262 138.565 130.254C138.565 130.254 138.573 130.254 138.581 130.246C138.589 130.246 138.597 130.229 138.605 130.221C138.605 130.221 138.605 130.213 138.613 130.213C138.63 130.205 138.646 130.189 138.662 130.181C138.662 130.181 138.662 130.181 138.67 130.181C138.678 130.181 138.694 130.181 138.702 130.165C138.71 130.157 138.726 130.149 138.743 130.141C138.791 130.116 138.839 130.1 138.896 130.092C138.928 130.092 138.961 130.084 138.985 130.076H139.033V130.06C139.033 130.06 139.033 130.06 139.033 130.044C139.049 130.044 139.065 130.044 139.082 130.044C139.09 130.044 139.098 130.044 139.106 130.044C139.106 130.044 139.114 130.044 139.122 130.044H139.138C139.17 130.044 139.195 130.068 139.227 130.084C139.227 130.084 139.235 130.092 139.243 130.1C139.259 130.116 139.275 130.125 139.299 130.133C139.299 130.133 139.316 130.149 139.316 130.157C139.324 130.173 139.34 130.189 139.356 130.205L139.38 130.229Z" fill="black"/>
<path d="M137.398 132.003C137.398 132.003 137.398 131.987 137.398 131.979C137.398 131.954 137.407 131.922 137.439 131.898C137.447 131.89 137.455 131.874 137.455 131.874V131.858C137.479 131.825 137.503 131.817 137.528 131.809C137.544 131.809 137.552 131.801 137.568 131.793H137.576H137.592C137.592 131.793 137.592 131.793 137.6 131.793C137.6 131.793 137.608 131.793 137.616 131.793C137.616 131.793 137.616 131.793 137.624 131.793C137.641 131.793 137.657 131.793 137.673 131.793C137.721 131.809 137.762 131.833 137.794 131.866C137.81 131.882 137.818 131.898 137.818 131.922C137.818 131.946 137.818 131.971 137.818 131.995C137.818 132.003 137.818 132.011 137.818 132.027V132.043V132.051C137.818 132.075 137.818 132.092 137.802 132.108C137.802 132.108 137.794 132.132 137.794 132.14V132.164H137.77C137.762 132.164 137.754 132.164 137.737 132.18C137.737 132.18 137.721 132.197 137.713 132.197H137.705H137.689C137.673 132.197 137.665 132.197 137.657 132.197C137.641 132.197 137.624 132.197 137.6 132.188C137.6 132.188 137.6 132.188 137.592 132.188C137.576 132.188 137.576 132.18 137.568 132.18C137.56 132.18 137.544 132.18 137.536 132.164C137.536 132.164 137.536 132.164 137.528 132.164H137.511L137.495 132.14C137.471 132.108 137.447 132.075 137.439 132.035L137.398 132.003Z" fill="black"/>
<path d="M139.303 130.447V130.463C139.303 130.487 139.303 130.511 139.303 130.536C139.303 130.536 139.303 130.544 139.303 130.552C139.303 130.552 139.303 130.56 139.303 130.568C139.303 130.576 139.303 130.584 139.303 130.592C139.303 130.592 139.303 130.6 139.303 130.608C139.303 130.624 139.303 130.632 139.295 130.632C139.271 130.665 139.247 130.689 139.215 130.713C139.19 130.729 139.174 130.737 139.15 130.737C139.118 130.745 139.085 130.737 139.053 130.737C139.037 130.737 139.021 130.737 139.013 130.737H139.005C138.981 130.713 138.956 130.705 138.932 130.689H138.908V130.665C138.908 130.665 138.908 130.665 138.908 130.657C138.9 130.641 138.892 130.624 138.876 130.616C138.86 130.608 138.843 130.592 138.843 130.568C138.843 130.568 138.843 130.568 138.843 130.56C138.843 130.552 138.835 130.528 138.843 130.511V130.503C138.843 130.503 138.851 130.495 138.851 130.487C138.843 130.487 138.835 130.479 138.827 130.463V130.447C138.811 130.415 138.827 130.39 138.835 130.374V130.358H138.86C138.884 130.342 138.908 130.326 138.94 130.31C138.948 130.31 138.956 130.31 138.964 130.293C138.997 130.277 139.029 130.277 139.053 130.277C139.061 130.277 139.069 130.277 139.077 130.277C139.094 130.277 139.11 130.277 139.118 130.277C139.118 130.277 139.126 130.277 139.134 130.277C139.142 130.277 139.15 130.277 139.158 130.277C139.158 130.277 139.174 130.277 139.182 130.277C139.198 130.277 139.215 130.277 139.223 130.293C139.223 130.293 139.231 130.293 139.239 130.293C139.271 130.318 139.287 130.342 139.311 130.374L139.328 130.398L139.303 130.447Z" fill="black"/>
<path d="M135.852 136.922C135.852 136.922 135.844 136.986 135.836 137.019C135.828 137.083 135.812 137.148 135.812 137.22C135.812 137.317 135.812 137.414 135.812 137.511V137.576C135.812 137.576 135.812 137.648 135.82 137.689C135.82 137.737 135.82 137.794 135.82 137.842C135.82 137.85 135.82 137.939 135.772 137.963C135.755 137.963 135.747 137.979 135.731 137.987C135.699 138.011 135.667 138.028 135.626 138.036C135.602 138.036 135.578 138.036 135.554 138.036C135.513 138.019 135.481 138.003 135.457 137.979H135.449C135.36 137.898 135.263 137.802 135.295 137.64C135.295 137.632 135.295 137.616 135.295 137.608C135.287 137.438 135.312 137.285 135.336 137.116C135.336 137.083 135.344 137.043 135.352 137.003" fill="black"/>
<path d="M82.2435 126.605C71.3885 128.26 59.121 136.645 58.6529 142.359C58.4754 144.506 59.4439 146.863 62.7367 148.227C64.9319 149.139 67.8212 149.47 70.6056 149.744C83.6478 151.027 96.9725 151.576 110.249 151.382C113.881 151.326 117.666 151.197 120.829 150.301C127.843 148.308 126.971 144.878 132.564 139.22" stroke="black" stroke-width="1.19446" stroke-miterlimit="10" stroke-linecap="square"/>
</g>
<defs>
<clipPath id="clip0_4072_3175">
<rect width="131.189" height="61.4421" fill="white" transform="translate(54 92)"/>
</clipPath>
</defs>
</svg>
