<?xml version="1.0" encoding="UTF-8"?>
<svg id="Layer_1" xmlns="http://www.w3.org/2000/svg" viewBox="0 0 189.47 59.36">
  <defs>
    <style>
      .cls-1 {
        fill: #fff;
      }
    </style>
  </defs>
  <path class="cls-1" d="M29.68,0C13.28,0,0,13.28,0,29.68s13.29,29.68,29.68,29.68,29.68-13.29,29.68-29.68S46.07,0,29.68,0ZM1.78,29.68C1.78,14.27,14.27,1.78,29.68,1.78c6.27,0,12.07,2.07,16.73,5.58-5.6,18.7-20.42,33.42-39.19,38.88-3.42-4.63-5.44-10.35-5.44-16.56ZM29.68,57.58c-8.59,0-16.28-3.89-21.4-10.01,16.95-5.34,29.22-5.35,37.65-11.56,4.84-3.57,8.03-9.26,8.03-15.74,0-2.01-.31-3.94-.88-5.77,2.85,4.38,4.5,9.58,4.5,15.18,0,15.41-12.49,27.9-27.9,27.9Z"/>
  <g>
    <g>
      <path class="cls-1" d="M125.53,29.22v-.06c-.02-.25-.07-.65-.11-1.08-.1-.79-.28-1.57-.51-2.32-1.8-5.67-6.61-9.34-12.28-9.34-.56,0-1.15.04-1.72.11-7.26.93-12.19,7.5-11.22,14.96.88,6.75,6.31,11.37,12.92,11.37.56,0,1.14-.04,1.72-.1,3.53-.45,6.62-1.92,8.95-4.79.13-.17.2-.37.17-.56-.02-.16-.11-.32-.29-.45-.39-.28-1.78-.95-2.53-1.31-.23-.11-.4-.2-.5-.25-.23-.11-.39-.17-.54-.17-.18,0-.35.1-.52.3-1.49,1.74-3.39,2.66-5.32,2.9-.38.05-.75.08-1.11.08-3.52,0-7.08-2.36-8.11-5.6l-.03-.09.08-.04c.18-.1,1.83-.86,4.27-.86.3,0,.61,0,.91.04.7.05,1.41.14,2.15.24,1.37.18,2.8.37,4.45.37,1.03,0,2.03-.08,3.05-.22,4.03-.77,5.63-1.9,5.64-1.92.54-.36.52-.67.49-1.22M120.97,27.58c-.67.22-1.58.4-2.71.54-.54.08-1.13.1-1.84.1-1.18,0-2.46-.1-3.69-.19h-.05c-1.14-.09-2.23-.17-3.26-.17-.74,0-1.43.05-2.07.12-1.94.25-3.47.86-3.47.86l.02-.16c.38-3.88,3.64-7.21,7.6-7.74.36-.05.74-.07,1.11-.07,3.73,0,7.35,2.83,8.42,6.58l.02.1-.08.03Z"/>
      <path class="cls-1" d="M188.73,17.92c0-.34-.28-.61-.61-.61h-3.34c-.33,0-.61.28-.61.61v23.72c0,.33.28.61.61.61h3.34c.33,0,.61-.28.61-.61v-23.72Z"/>
      <path class="cls-1" d="M186.45,8.84c-1.66,0-3.02,1.35-3.02,3.02s1.36,3.01,3.02,3.01,3.02-1.35,3.02-3.01-1.35-3.02-3.02-3.02"/>
      <path class="cls-1" d="M142.1,42.89c.21,0,.43.02.64.02,3.43,0,6.62-1.32,8.99-3.71,2.4-2.43,3.72-5.77,3.72-9.39,0-7.5-5.78-13.37-13.15-13.37-6,0-11.07,3.95-12.62,9.83-.27,1-.53,3.54-.53,6.07v18.62c0,.34.27.62.61.62h3.32c.34,0,.62-.29.62-.62v-11.73l.17.17c1.62,1.56,4.63,3.32,8.23,3.49M142.25,20.94c4.73,0,8.44,3.89,8.44,8.86s-3.52,8.77-8.18,8.77c-2.36,0-4.54-.85-6.14-2.37-1.65-1.57-2.56-3.8-2.56-6.24,0-4.98,3.79-9.02,8.44-9.02"/>
      <path class="cls-1" d="M82.59,42.89c.21,0,.43.02.64.02,3.44,0,6.62-1.32,8.99-3.71,2.4-2.43,3.72-5.77,3.72-9.39,0-7.5-5.79-13.37-13.15-13.37-6,0-11.08,3.95-12.62,9.83-.27,1-.53,3.54-.53,6.07v18.62c0,.34.28.62.61.62h3.32c.34,0,.62-.29.62-.62l-.02-11.75.17.17c1.63,1.58,4.64,3.34,8.25,3.51M82.73,20.94c4.73,0,8.44,3.89,8.44,8.86s-3.51,8.77-8.18,8.77c-2.36,0-4.54-.85-6.14-2.37-1.65-1.57-2.56-3.8-2.56-6.24,0-4.98,3.79-9.02,8.44-9.02"/>
      <path class="cls-1" d="M158.64,38.73c2.88,2.64,6.03,4.14,10.13,4.14h.12c7.06-.05,10.22-3.9,10.22-7.7,0-5.25-4.97-6.69-6.48-7-.49-.1-1-.19-1.51-.3-1.23-.24-2.5-.49-3.66-.8-.81-.22-3.46-1.1-3.46-3.08,0-2.18,2.42-3.35,4.69-3.35,1.91,0,3.5.32,5.54,1.91.15.12.38.27.66.27.2,0,.4-.08.6-.22.56-.42,1.6-1.28,2.28-1.97.16-.16.24-.34.23-.53-.02-.29-.23-.52-.34-.62-2.72-2.16-5.35-3.05-9.04-3.05h-.02c-5.29,0-9.29,3.4-9.29,7.9,0,3.57,2.93,6.11,8.26,7.16l3.33.64c2.19.4,3.43,1.56,3.38,3.19-.04,1.59-1.99,3.24-5.19,3.24-2.62,0-4.91-1.02-6.84-2.77l-.03-.03c-.13-.12-.29-.28-.51-.28-.15,0-.31.08-.49.21-.2.16-2.43,1.92-2.66,2.17-.1.11-.16.24-.15.37,0,.21.13.4.26.51"/>
    </g>
    <path class="cls-1" d="M82.59,42.89c.21,0,.43.02.64.02,3.44,0,6.62-1.32,8.99-3.71,2.4-2.43,3.72-5.77,3.72-9.39,0-7.5-5.79-13.37-13.15-13.37-6,0-11.08,3.95-12.62,9.83-.27,1-.53,3.54-.53,6.07v18.62c0,.34.28.62.61.62h3.32c.34,0,.62-.29.62-.62l-.02-11.75.17.17c1.63,1.58,4.64,3.34,8.25,3.51M82.73,20.94c4.73,0,8.44,3.89,8.44,8.86s-3.51,8.77-8.18,8.77c-2.36,0-4.54-.85-6.14-2.37-1.65-1.57-2.56-3.8-2.56-6.24,0-4.98,3.79-9.02,8.44-9.02"/>
  </g>
</svg>