<?xml version="1.0" encoding="UTF-8"?>
<svg id="Layer_1" xmlns="http://www.w3.org/2000/svg" viewBox="0 0 116.69 150.05">
  <defs>
    <style>
      .cls-1 {
        fill: #fff;
      }

      .cls-2 {
        fill: none;
        stroke: #fff;
        stroke-miterlimit: 10;
        stroke-width: 2.68px;
      }
    </style>
  </defs>
  <path class="cls-1" d="M102.66,28.27s.22,47.34.22,52.18c0,6.68-1,11.85-2.84,16.19-.3.71-.68,1.56-1.16,2.52,0-.01-2.18-1.02-4.68-1.02-7.51.17-7.01,3.17-12.68,3.17-2.84,0-6.34-3.34-11.18-3.17-4.51.17-8.68,2.67-10.36,2.97v-4.32l2.02-1.99,11.57.06,1.8-1.8h-11.66l1.25-1.25,11.59.07,1.57-1.57h-11.66l1.25-1.25,11.59.07,1.66-1.66h-11.66l1.25-1.25,11.59.07,1.57-1.57h-11.66l1.25-1.25,11.59.07,1.49-1.49h-11.66l1.25-1.25,11.59.07,1.66-1.66h-11.66l1.25-1.25,11.59.07,1.46-1.58-11.47-.08,1.24-1.24,10.39.06v-1.41h-7.34l7.34-2.09v-1.91l-7.68,2.66,7.68-4.48v-2.8l-8.34,6.44,6.83-8.27h-2.49l-5.43,7.85,2.92-7.85h-2.12l-1.88,6.94v-6.94h-1.5v10.36l-1.17,1.2v-11.29l-1.66,1.66v11.33l-1.17,1.2v-11.35l-1.58,1.58v11.38l-1.17,1.2v-11.41l-1.58,1.58v11.44l-1.17,1.2v-11.46l-1.5,1.5v11.49l-1.17,1.2v-11.52l-1.58,1.58v11.55l-1.17,1.2v-11.57l-1.58,1.58v11.6l-1.17,1.2v-11.63l-1.5,1.5v11.66l-.17.19-1,1v-13.35l.14-.15,8.03-8.03v-1.96l-8.18,8.18v-1.73l8.18-8.18v-2.1l-8.18,8.18v-1.73l8.18-8.18v-2.1l-8.18,8.18v-1.73l8.18-8.18v-1.77l-8.18,8.18v-1.73l8.18-8.18v-2.1l-8.18,8.18v-1.73l8.18-8.19v-2.1l-8.19,8.19v-1.73l8.19-8.19v-2.1l-8.19,8.19v-1.73l8.19-8.19v-1.94l-8.19,8.19v-1.73l8.17-8.17h.02v-1.96l-8.17,7.96v-1.67l7.32-7.18-1-1-5.49,5.34,4.32-6.51-1.33-1.33-3.32,6.56,1.69-8.2-1.92-1.92-.96,9.39-1.05-9.63-1.76,1.76,1.66,8.88-3.04-7.5-1.74,1.74,4.32,6.87-5.57-5.63-1.08,1.08,7.11,7.27v1.67l-7.95-8.05v1.94l7.95,7.95v1.73l-7.95-7.95v1.77l7.95,7.95v1.73l-7.95-7.95v2.01l7.95,7.95v1.73l-7.95-7.95v2.36l7.95,7.95v1.73l-7.95-7.95v1.94l7.95,7.95v1.73l-7.95-7.95v2.1l7.95,7.95v1.73l-7.95-7.95v1.94l7.95,7.95v1.73l-7.95-7.95v2.17l7.95,7.95v1.73l-7.95-7.95v2.21l7.95,7.95v13.39l-1-.88-.33-.33v-12.02l-1.5-1.5v11.89l-1.25-1.25v-11.89l-1.42-1.42v11.89l-1.25-1.25v-11.89l-1.42-1.42v11.89l-1.25-1.25v-11.89l-1.59-1.59v11.89l-1.17-1.17v-11.89l-1.67-1.67v11.89l-1.17-1.17v-11.89l-1.5-1.5v11.89l-1.17-1.17v-11.72l-1.67-1.67v11.72l-1.17-1.17v-10.72h-1.79l.29,7.89-1.55-7.89h-2.28l2.66,7.68-4.86-7.68h-2.9l7.26,8.68-8.99-7.03v2.67l7.99,4.82-7.99-2.79v1.86l8.33,1.96h-8.33v1.6l10.62.06,1.18,1.18h-11.32l1.17,1.51,11.72.06,1.18,1.18h-11.65l1.67,1.67,11.72.06,1.18,1.18h-11.65l1.51,1.51,11.72.06,1.18,1.18h-11.65l1.51,1.51,11.72.06,1.18,1.18h-11.65l1.42,1.42,11.72.06,1.18,1.18h-11.65l1.67,1.67,11.72.06,1.18,1.18h-11.65l1.42,1.42,11.69.04,2.22,2.22v4.25c-2.07,0-5.91-3.18-9.92-3.18-6.67.28-8.51,3.17-12.68,3.17-2.84,0-6-3.17-11.52-3.17-1.34,0-2.99.37-4.39.77-3.24-6.68-3.7-12.03-4.04-16.21-.84-10.51-.42-54.77-.42-54.77l88.23.67h.01Z"/>
  <path class="cls-1" d="M102.55,18.03c.13,2.43.05,3.94.01,4.43,0,.1-.09.17-.19.17l-11.01.07s-3.17,0-3.51-2.84c-.3-2.57-.11-8.67-.07-9.81,0-.1.09-.18.19-.18h4.2c.1,0,.19.08.19.19v4.38c0,.1.08.19.19.19h5.7c.78,0,1.55.16,2.25.5.94.46,1.96,1.32,2.04,2.91h0ZM98.21,20.51v-1.67c0-.1,0-.19-.02-.29-.23-1.4-1.49-2.03-2.15-2.03h-3.56c-.1,0-.19.08-.19.19,0,.45-.09,1.15,0,2.46.06.96,1.06,1.33,1.6,1.46.17.04.35.06.53.06h3.61c.1,0,.19-.08.19-.19h0Z"/>
  <path class="cls-1" d="M97.31,102.05c-.38.66-.8,1.34-1.25,2.03-.52-.08-1.54-.1-2.02-.1-5.67,0-6.84,3-11.52,3-5.34,0-6.34-3-12.18-3-4.01.33-4.84,1.34-8.85,2.67-1.31.44-1.5.33-1.5.33v-2.67s2.9-.89,5.17-1.83c2-.84,4.17-1.17,5.67-1.17,4.97-.08,6.18,2.84,11.52,3,4.51,0,5.17-2.84,11.01-3.17,1.44.05,2.5.17,3.95.91h0Z"/>
  <path class="cls-1" d="M93.87,107.15h.02c-2.65,3.46-6.16,7.06-10.7,10.01-11.84,7.7-26.7,8.34-36.05,5.67-7.4-2.11-18.73-8.82-22.86-15.02-.21-.31-.41-.62-.6-.92h.14c4.97-.08,6.47,2.76,11.81,2.93,5.34.17,7.34-2.84,11.18-3,4.01-.17,7.51,3.17,11.85,3.17,2.53,0,4.67-.5,8.68-2.33,1.69-.78,3.49-.66,3.67-.67,4.97-.08,6.51,3,11.85,3,4.34,0,5.67-3,11.01-2.84h0Z"/>
  <path class="cls-1" d="M84.36,10.04l.04,12.48c0,.1-.08.19-.19.19h-4.44c-.1,0-.19-.08-.19-.19v-5.63c0-.1-.08-.19-.19-.19h-5.53c-.1,0-.19.08-.19.19v5.62c0,.11-.09.19-.19.19h-4.13c-.1,0-.19-.08-.19-.19v-12.45c0-.11.08-.19.19-.19h4.3c.1,0,.19.08.19.19v4.3c0,.11.08.19.19.19h5.29c.1,0,.19-.08.19-.19v-4.32c0-.1.09-.19.2-.19h4.46c.1,0,.19.08.19.19h0Z"/>
  <path class="cls-1" d="M65.67,10.06v12.45c0,.1-.08.19-.19.19h-4.55c-.1,0-.19-.08-.19-.19v-12.45c0-.11.08-.19.19-.19h4.55c.1,0,.19.08.19.19Z"/>
  <path class="cls-1" d="M57.39,104.3v2.52c-1.1,0-6.24-3.18-9.92-3.18-4.67,0-7.51,3.34-12.18,3.17-3.67-.13-6.5-3.17-12.02-3.17-.49,0-1.02.05-1.56.13-.48-.8-.93-1.58-1.34-2.32.93-.2,2.1-.38,3.44-.4,4.97-.08,6.47,2.93,11.81,2.93,4.67,0,7.34-3,11.18-3s6.92,2.3,10.58,3.32h0Z"/>
  <path class="cls-1" d="M56.99,10.06v12.46c0,.1-.08.19-.19.19h-4.46c-.1,0-.19-.08-.19-.19v-10.3c0-.1-.08-.19-.19-.19h-5.46c-.1,0-.19.08-.19.19v10.3c0,.1-.08.19-.19.19h-3.96c-.11,0-.19-.09-.19-.19v-12.47c0-.1.08-.19.19-.19l14.64.02c.1,0,.19.08.19.19h0Z"/>
  <path class="cls-1" d="M38.96,10.51v3.84c0,.58-.15,1.15-.44,1.66-.48.84-1.38,1.93-2.9,2.03-2,.13-5.17,0-6.18,0-.18,0-.33,0-.33.33v4.17c0,.12-.05.16-.17.17h-4.58c-.14,0-.26-.19-.26-.33v-7.18c0-1.5.3-2.66.67-3.34.44-.81,1.83-2,3.34-2,2.95,0,7.91.01,10.19,0,.36,0,.66.29.66.65h0ZM34.53,13.88v-1.58c0-.15-.12-.29-.28-.29-.73-.04-2.96.01-3.97.01-1.17,0-1.5,1.5-1.5,2v1.68c0,.18.14.32.32.32.78,0,2.82.04,3.95-.16.33-.06.61-.25.84-.47.41-.39.63-.95.63-1.51h0Z"/>
  <path class="cls-1" d="M20.61,10.04v12.48c0,.1-.08.19-.19.19h-4.63c-.1,0-.19-.08-.19-.19v-12.47c0-.11.08-.19.19-.19h4.63c.1,0,.19.08.19.19h0Z"/>
  <path class="cls-2" d="M1.35,1.43s.24,76.18,1.24,85.36c1,9.18,1,8.68,2.5,13.52,1.57,5.06,5.48,14.97,12.35,23.7,12.35,15.69,35.55,24.7,41.05,24.7s25.33-6.92,39.22-21.86c10.59-11.4,15.35-23.77,17.02-39.53.61-5.71.61-85.96.61-85.96L1.35,1.43Z"/>
</svg>