<svg width="240" height="240" viewBox="0 0 240 240" fill="none" xmlns="http://www.w3.org/2000/svg">
<g clip-path="url(#clip0_4072_3573)">
<path d="M178.629 109.94C177.912 109.253 177.244 108.646 176.612 108.014C175.81 107.206 175.02 106.386 174.249 105.541C173.599 104.825 173.265 103.95 173.119 102.996C173.04 102.486 173.119 101.981 173.331 101.508C173.848 100.341 175.075 99.9401 176.187 100.578C176.406 100.706 176.606 100.857 176.813 101.003C177.602 99.9887 178.617 99.7396 179.735 100.274C180.494 100.639 181.004 101.52 180.938 102.364C180.889 103.008 180.439 103.524 179.808 103.664C179.467 103.737 178.854 103.403 178.738 103.075C178.665 102.874 178.72 102.741 178.927 102.644C179.346 102.443 179.437 102.285 179.382 101.963C179.34 101.708 179.151 101.514 178.884 101.459C178.544 101.386 178.222 101.514 178.046 101.811C177.803 102.224 177.76 102.686 177.93 103.117C178.113 103.585 178.343 104.041 178.611 104.466C179.2 105.408 179.99 106.179 180.786 106.951C180.944 107.103 181.096 107.115 181.278 107.06C182.238 106.756 183.119 106.307 183.854 105.608C184.091 105.383 184.273 105.122 184.352 104.739C184.23 104.752 184.151 104.764 184.066 104.776C183.744 104.825 183.501 104.691 183.313 104.448C182.456 103.36 182.839 101.751 184.109 101.198C184.376 101.082 184.71 101.04 185.002 101.07C186.089 101.173 186.891 101.738 187.414 102.698C187.511 102.874 187.602 103.051 187.711 103.263C187.869 103.19 188.021 103.117 188.179 103.038C188.592 102.838 189.018 102.704 189.479 102.71C190.075 102.716 190.548 102.953 190.828 103.47C191.059 103.895 191.205 104.363 191.405 104.861C191.545 104.733 191.697 104.594 191.842 104.448C192.298 103.992 192.839 103.889 193.44 104.053C193.884 104.168 194.224 104.417 194.394 104.861C194.516 105.177 194.631 105.499 194.759 105.857C195.39 105.347 196.077 105.153 196.824 105.541C197.541 105.912 197.869 106.562 197.99 107.394C198.72 106.896 199.473 106.726 200.293 107.072C201.113 107.419 201.465 108.099 201.648 108.901C201.702 108.889 201.721 108.889 201.739 108.883C202.766 108.263 203.592 108.457 204.205 109.496C204.394 109.818 204.503 110.183 204.649 110.529C205.906 109.782 207.249 110.28 207.723 112.182C209.479 111.343 211.034 112.03 211.064 114.332C211.818 114.107 212.571 114.089 213.288 114.429C214.071 114.8 214.302 115.511 214.266 116.325C214.503 116.325 214.679 116.325 214.855 116.325C215.584 116.337 216.094 116.689 216.398 117.333C216.781 118.153 216.69 118.949 216.258 119.721C216.277 119.763 216.289 119.8 216.313 119.824C217.048 120.462 217.188 121.246 216.732 122.102C216.362 122.795 215.815 123.275 215.031 123.408C214.266 123.536 213.494 123.621 212.741 123.724C212.735 123.712 212.753 123.767 212.79 123.797C213.926 124.708 213.804 126.513 212.553 127.26C212.461 127.315 212.358 127.394 212.261 127.394C211.866 127.394 211.66 127.661 211.423 127.922C210.578 128.84 209.74 129.769 208.853 130.644C207.528 131.95 206.617 133.524 205.809 135.17C205.56 135.674 205.445 136.221 205.469 136.804C205.487 137.278 205.348 137.412 204.886 137.472C204.758 137.491 204.631 137.497 204.509 137.503C201.417 137.588 198.325 137.673 195.226 137.764C194.503 137.782 193.78 137.825 193.057 137.837C192.808 137.837 192.547 137.813 192.31 137.734C191.976 137.618 191.952 137.272 192.243 137.065C192.347 136.992 192.462 136.938 192.584 136.895C194.485 136.154 196.393 135.413 198.294 134.672C198.884 134.441 199.479 134.216 200.05 133.955C200.36 133.815 200.664 133.639 200.919 133.42C201.587 132.855 201.818 132.029 201.38 131.27C200.736 130.164 200.973 129.107 201.368 128.038C201.538 127.564 201.8 127.126 202.012 126.695C201.599 126.926 201.089 127.515 200.815 128.238C200.572 128.87 200.421 129.538 200.226 130.2C199.922 130.085 199.588 129.927 199.248 129.842C198.057 129.532 196.915 129.733 195.803 130.188C194.704 130.638 193.714 131.27 192.754 131.944C192.104 132.4 191.472 132.886 190.749 133.414C190.901 132.886 191.034 132.43 191.168 131.968C190.621 132.6 190.233 133.578 190.354 134.095C190.536 134.003 190.719 133.943 190.87 133.839C191.217 133.602 191.551 133.359 191.879 133.104C192.948 132.26 194.139 131.61 195.336 130.966C195.724 130.759 196.065 130.711 196.447 130.966C197.432 131.61 198.422 132.236 199.406 132.886C199.552 132.983 199.655 133.135 199.777 133.262C199.679 133.621 199.406 133.742 199.145 133.858C198.434 134.174 197.723 134.496 197 134.781C195.014 135.565 193.021 136.33 191.034 137.102C190.154 137.442 189.23 137.636 188.295 137.728C187.784 137.776 187.286 137.74 186.794 137.576C186.296 137.406 186.004 137.053 185.986 136.537C185.974 136.16 185.998 135.771 186.077 135.407C186.199 134.86 186.393 134.332 186.545 133.791C186.642 133.463 186.727 133.129 186.8 132.795C186.934 132.187 186.8 131.671 186.363 131.197C185.512 130.279 184.728 129.301 184.182 128.171C183.744 127.26 183.38 126.312 183.046 125.359C182.523 123.858 182.08 122.327 181.545 120.826C180.5 117.892 178.593 115.62 176.005 113.925C175.348 113.494 174.577 113.22 173.866 112.88C173.672 112.789 173.483 112.68 173.277 112.601C172.827 112.418 172.675 112.054 172.651 111.61C172.627 111.076 172.773 110.572 172.997 110.092C173.088 109.897 173.234 109.824 173.435 109.849C173.757 109.885 174.085 109.903 174.401 109.982C175.488 110.244 176.588 110.256 177.687 110.098C177.967 110.061 178.246 110.031 178.617 109.988L178.629 109.94ZM182.147 111.288C182.311 111.598 182.42 111.823 182.547 112.036C183.106 112.971 183.732 113.858 184.534 114.599C185.518 115.511 186.527 116.386 187.535 117.266C189.23 118.749 191.247 119.514 193.44 119.775C195.05 119.97 196.684 120.012 198.312 120.091C199.722 120.158 201.131 120.17 202.541 120.219C203.61 120.255 204.667 120.377 205.706 120.638C206.058 120.729 206.417 120.802 206.775 120.887C199.218 116.094 191.162 112.619 182.147 111.288ZM194.929 112.406C194.929 112.406 194.977 112.449 195.014 112.455C196.435 112.564 197.826 112.418 199.145 111.829C199.698 111.58 200.159 111.203 200.493 110.693C200.979 109.952 200.955 109.193 200.524 108.445C200.244 107.959 199.685 107.747 199.169 107.905C198.884 107.99 198.647 108.148 198.568 108.47C198.477 108.81 198.622 109.077 198.823 109.314C199.023 109.545 199.315 109.472 199.412 109.186C199.461 109.047 199.473 108.901 199.509 108.731C199.916 109.077 199.965 109.284 199.704 109.739C199.206 110.608 198.519 111.307 197.565 111.647C196.703 111.957 195.803 112.163 194.929 112.418V112.406ZM183.331 107.643C184.145 107.498 184.923 107.273 185.549 106.732C186.782 105.675 186.976 104.32 186.32 102.917C185.913 102.042 184.911 101.884 184.242 102.492C183.969 102.741 183.987 103.427 184.17 103.646C184.309 103.81 184.492 103.889 184.698 103.81C184.892 103.737 184.941 103.555 184.923 103.36C184.911 103.245 184.88 103.123 184.844 102.959C185.354 103.233 185.628 103.591 185.707 104.12C185.792 104.691 185.634 105.189 185.36 105.669C184.965 106.362 184.394 106.878 183.756 107.334C183.611 107.437 183.471 107.534 183.325 107.637L183.331 107.643ZM195.925 107.182C195.986 107.242 196.028 107.279 196.053 107.321C196.308 107.82 196.247 108.342 195.761 108.798C195.311 109.211 194.807 109.575 194.285 109.885C193.665 110.256 192.997 110.547 192.353 110.875C192.262 110.924 192.177 110.985 192.092 111.039C192.565 111.064 193.021 111.045 193.465 110.985C194.759 110.802 195.84 110.256 196.605 109.156C196.921 108.7 197.116 108.202 197.11 107.637C197.104 107.145 196.879 106.769 196.502 106.477C196.235 106.27 195.943 106.313 195.694 106.483C195.427 106.665 195.147 106.884 195.184 107.255C195.196 107.382 195.336 107.54 195.457 107.601C195.53 107.631 195.694 107.504 195.791 107.425C195.852 107.376 195.876 107.279 195.925 107.182ZM201.332 115.14C202.486 115.292 203.616 115.201 204.722 114.879C205.609 114.618 206.228 114.034 206.629 113.226C206.848 112.783 206.939 112.297 206.763 111.805C206.563 111.246 205.894 110.912 205.354 111.1C205.05 111.203 204.868 111.416 204.831 111.732C204.801 112.036 204.898 112.303 205.153 112.497C205.36 112.649 205.536 112.595 205.603 112.346C205.645 112.194 205.645 112.036 205.663 111.86C205.73 111.89 205.791 111.896 205.821 111.932C206.131 112.242 206.064 112.601 205.888 112.935C205.584 113.512 205.147 113.974 204.54 114.223C203.993 114.454 203.422 114.636 202.851 114.8C202.352 114.946 201.836 115.037 201.326 115.152L201.332 115.14ZM175.628 102.346C175.695 102.516 175.713 102.674 175.804 102.771C175.92 102.887 176.09 103.02 176.235 103.026C176.448 103.026 176.588 102.85 176.618 102.631C176.636 102.516 176.618 102.376 176.57 102.267C176.381 101.763 175.968 101.508 175.427 101.538C174.96 101.568 174.632 101.86 174.522 102.394C174.37 103.123 174.449 103.828 174.99 104.369C175.549 104.934 176.15 105.456 176.764 105.961C177.177 106.301 177.639 106.574 178.076 106.878C178.107 106.75 178.076 106.702 178.034 106.653C177.493 106.046 176.946 105.444 176.424 104.818C176.053 104.375 175.689 103.919 175.537 103.342C175.452 103.014 175.379 102.68 175.634 102.34L175.628 102.346ZM207.292 118.457C207.358 118.475 207.425 118.506 207.492 118.518C208.422 118.664 209.357 118.773 210.299 118.682C210.985 118.615 211.647 118.415 212.231 118.026C212.826 117.625 213.148 117.072 213.166 116.343C213.184 115.492 212.279 114.934 211.526 115.322C211.095 115.547 210.973 116.149 211.301 116.477C211.514 116.689 211.72 116.671 211.884 116.428C211.951 116.331 212.006 116.228 212.067 116.124C212.395 116.209 212.419 116.446 212.352 116.641C212.273 116.872 212.152 117.133 211.963 117.26C211.593 117.509 211.186 117.722 210.76 117.856C209.637 118.214 208.482 118.415 207.292 118.457ZM186.6 108.858C186.618 108.889 186.642 108.925 186.66 108.956C186.994 108.834 187.341 108.731 187.669 108.591C188.404 108.269 189.09 107.88 189.613 107.255C190.16 106.605 190.336 105.851 190.196 105.025C190.117 104.557 189.892 104.181 189.406 104.01C189.054 103.889 188.756 103.998 188.519 104.247C188.288 104.484 188.131 104.776 188.258 105.134C188.319 105.311 188.422 105.468 188.647 105.45C188.835 105.432 188.926 105.311 188.945 105.122C188.945 105.068 188.981 105.019 189.018 104.928C189.297 105.195 189.388 105.462 189.303 105.76C189.224 106.052 189.121 106.349 188.975 106.611C188.623 107.255 188.088 107.741 187.505 108.184C187.207 108.415 186.903 108.64 186.606 108.871L186.6 108.858ZM214.758 118.123C215.141 118.524 215.147 118.901 214.831 119.271C214.472 119.69 213.992 119.891 213.476 120.012C212.644 120.201 211.799 120.261 210.943 120.183C210.675 120.158 210.408 120.14 210.147 120.122C210.536 120.34 210.931 120.45 211.319 120.59C211.969 120.82 212.638 120.839 213.3 120.766C214.223 120.669 215.013 120.304 215.469 119.435C215.736 118.925 215.754 118.396 215.463 117.88C215.25 117.516 214.922 117.358 214.503 117.412C214.096 117.467 213.798 117.692 213.652 118.081C213.525 118.409 213.664 118.755 213.962 118.913C214.284 119.083 214.582 118.961 214.673 118.609C214.709 118.475 214.721 118.336 214.752 118.117L214.758 118.123ZM209.065 113.731C209.369 114.083 209.211 114.399 209.035 114.691C208.695 115.249 208.179 115.614 207.607 115.893C206.921 116.228 206.192 116.422 205.439 116.543C205.135 116.592 204.831 116.647 204.527 116.701C205.524 116.914 206.496 117.023 207.48 116.756C208.349 116.519 209.059 116.064 209.57 115.31C209.922 114.788 210.038 114.217 209.855 113.609C209.716 113.147 209.217 112.868 208.75 112.965C208.422 113.032 208.118 113.451 208.191 113.779C208.221 113.901 208.318 114.059 208.428 114.101C208.531 114.144 208.695 114.077 208.81 114.01C208.908 113.955 208.974 113.834 209.065 113.731ZM192.675 106.112C192.754 106.313 192.851 106.483 192.875 106.659C192.924 106.993 192.796 107.297 192.62 107.583C192.28 108.148 191.836 108.622 191.296 108.998C190.7 109.405 190.093 109.794 189.443 110.219C190.384 110.001 191.253 109.715 192.025 109.199C192.438 108.919 192.845 108.597 193.185 108.233C193.714 107.656 193.902 106.945 193.774 106.167C193.708 105.772 193.513 105.456 193.143 105.274C192.559 104.989 191.83 105.462 191.849 106.119C191.855 106.374 192 106.611 192.183 106.617C192.432 106.629 192.529 106.471 192.553 106.246C192.553 106.222 192.596 106.198 192.681 106.119L192.675 106.112ZM202.759 110.48C202.845 110.918 202.784 111.24 202.583 111.495C202.298 111.86 202.006 112.261 201.623 112.51C200.998 112.923 200.305 113.251 199.625 113.585C199.291 113.749 198.92 113.846 198.525 113.992C200.275 114.344 201.848 113.749 202.82 112.589C203.063 112.303 203.258 111.963 203.403 111.617C203.646 111.045 203.47 110.286 203.069 109.964C202.845 109.782 202.48 109.727 202.255 109.855C202.03 109.982 201.927 110.189 201.945 110.444C201.964 110.772 202.164 110.863 202.45 110.675C202.523 110.626 202.595 110.584 202.753 110.48H202.759ZM215.924 120.954C215.772 121.063 215.657 121.124 215.584 121.215C215.317 121.543 214.958 121.701 214.576 121.811C213.841 122.011 213.093 122.12 212.328 122.029C212.085 121.999 211.842 121.993 211.544 121.969C211.684 122.333 211.945 122.418 212.194 122.503C212.941 122.752 213.719 122.813 214.497 122.71C214.825 122.667 215.153 122.509 215.444 122.339C215.9 122.066 216.058 121.574 215.924 120.954ZM178.732 111.592C179.303 112.242 179.765 112.394 180.239 112.078C179.966 111.568 179.565 111.44 178.732 111.592Z" fill="#D9D9D9"/>
<path d="M39.1145 136.455V123.685C38.191 125.787 37.4195 127.937 36.6176 130.07C35.8157 132.202 35.032 134.341 34.2361 136.491H30.4635C28.8596 132.172 27.2497 127.834 25.6459 123.502C25.6216 123.502 25.5973 123.503 25.573 123.509V136.406C25.1416 136.54 22.669 136.564 22.0858 136.455C21.9704 135.993 21.9704 119.262 22.0919 118.758H27.4259C29.0479 123.168 30.6761 127.573 32.3467 132.117C34.0296 127.591 35.6698 123.181 37.3162 118.758H42.5287C42.6441 119.159 42.6745 135.762 42.5651 136.436C42.1763 136.534 39.8252 136.558 39.1023 136.455H39.1145Z" fill="#D9D9D9"/>
<path d="M102.126 118.76H116.275C116.306 119.465 116.287 120.145 116.293 120.819C116.293 121.506 116.293 122.192 116.293 122.885V133.201H118.42V140.138C118.025 140.248 115.65 140.278 114.89 140.175V136.548H103.293V140.12C102.867 140.254 100.437 140.278 99.7812 140.163V133.243C100.395 133.116 101.027 133.243 101.713 133.152C101.78 132.678 101.889 132.198 101.914 131.718C101.999 130.072 102.096 128.432 102.12 126.785C102.157 124.307 102.132 121.828 102.132 119.343C102.132 119.167 102.132 118.985 102.132 118.754L102.126 118.76ZM112.667 133.219V122.022H105.65C105.65 123.912 105.65 125.771 105.65 127.624C105.65 129.489 105.474 131.336 105.225 133.219H112.673H112.667Z" fill="#D9D9D9"/>
<path d="M99.3961 127.565C99.3779 129.406 99.0498 131.156 98.0778 132.76C97.1058 134.363 95.7571 135.524 93.9892 136.156C91.5895 137.018 89.1898 136.976 86.8388 135.979C84.84 135.129 83.4549 133.647 82.6834 131.623C81.6992 129.06 81.6627 126.447 82.6105 123.872C83.6007 121.18 85.5326 119.467 88.315 118.781C90.4292 118.264 92.519 118.404 94.5299 119.279C96.5043 120.135 97.853 121.606 98.6671 123.586C99.1713 124.819 99.39 126.059 99.4022 127.565H99.3961ZM95.6477 127.62C95.6781 126.654 95.5323 125.725 95.1921 124.838C94.8094 123.829 94.2079 122.985 93.2784 122.407C90.5871 120.737 87.179 121.915 86.0976 124.892C85.5205 126.49 85.4962 128.124 85.9093 129.752C86.1705 130.785 86.6808 131.69 87.4827 132.425C89.4389 134.218 93.728 134.169 95.1617 130.469C95.5201 129.546 95.6842 128.592 95.6477 127.614V127.62Z" fill="#D9D9D9"/>
<path d="M62.564 126.998C62.5883 129.737 62.0355 132.034 60.377 133.96C59.4596 135.023 58.3114 135.776 56.987 136.226C54.8425 136.949 52.6798 136.961 50.5474 136.201C48.0444 135.308 46.4102 133.54 45.6265 131.013C44.8307 128.431 44.8854 125.855 45.9789 123.377C47.2121 120.582 49.4356 119.039 52.4368 118.614C54.1135 118.371 55.7659 118.523 57.3455 119.148C60.0307 120.212 61.6041 122.241 62.2542 125.005C62.4304 125.74 62.485 126.505 62.564 127.004V126.998ZM58.8521 127.642C58.7914 127.083 58.7671 126.524 58.6638 125.971C58.4572 124.865 58.0077 123.875 57.224 123.043C55.2799 120.989 50.8997 121.014 49.3931 124.555C48.5912 126.451 48.5669 128.401 49.2595 130.333C49.9277 132.198 51.2643 133.285 53.2569 133.54C55.1949 133.783 57.0599 132.848 57.9955 131.141C58.597 130.047 58.8157 128.869 58.846 127.635L58.8521 127.642Z" fill="#D9D9D9"/>
<path d="M65.6487 118.758H79.4272C79.5487 119.159 79.5973 135.568 79.4697 136.497C78.2972 136.546 77.1186 136.509 75.8793 136.515V122.172C75.4358 122.038 69.8953 122.02 69.2452 122.142C69.2452 122.324 69.2452 122.518 69.2452 122.713C69.2392 124.882 69.2452 127.056 69.2149 129.225C69.1906 130.689 69.1055 132.16 68.7045 133.581C68.5891 133.982 68.4433 134.371 68.2671 134.748C67.8176 135.695 67.0643 136.266 66.0436 136.485C65.0048 136.71 63.9659 136.607 62.8906 136.497V133.205C63.0486 133.186 63.1883 133.162 63.328 133.162C63.6014 133.15 63.8687 133.15 64.1421 133.15C64.7435 133.144 65.1324 132.84 65.2903 132.263C65.3754 131.947 65.4543 131.631 65.4908 131.309C65.5576 130.714 65.6184 130.118 65.6244 129.523C65.6427 126.157 65.6427 122.792 65.6548 119.426C65.6548 119.226 65.6548 119.031 65.6548 118.764L65.6487 118.758Z" fill="#D9D9D9"/>
<path d="M160.039 118.758H163.556C163.568 118.971 163.599 119.177 163.599 119.384C163.599 121.14 163.599 122.895 163.599 124.651C163.599 124.827 163.599 125.003 163.599 125.216C163.811 125.234 163.963 125.253 164.121 125.253C165.263 125.253 166.399 125.246 167.541 125.259C168.599 125.271 169.631 125.411 170.634 125.763C172.796 126.522 174.103 128.314 174.169 130.605C174.194 131.467 174.097 132.3 173.768 133.102C173.131 134.651 171.934 135.574 170.385 136.091C169.522 136.376 168.623 136.504 167.712 136.51C165.288 136.522 162.858 136.516 160.434 136.51C160.294 136.51 160.154 136.486 160.02 136.473C159.905 135.933 159.911 119.22 160.033 118.746L160.039 118.758ZM163.653 128.199C163.55 128.989 163.58 133.023 163.69 133.424C163.751 133.43 163.823 133.448 163.89 133.448C165.032 133.448 166.168 133.46 167.311 133.442C167.724 133.436 168.143 133.381 168.544 133.284C170.269 132.883 171.065 131.042 170.178 129.493C170.014 129.207 169.753 128.952 169.485 128.752C169.06 128.424 168.538 128.29 168.009 128.272C166.764 128.229 165.512 128.223 164.267 128.205C164.073 128.205 163.872 128.205 163.647 128.205L163.653 128.199Z" fill="#D9D9D9"/>
<path d="M142.657 123.732C141.539 124.121 140.445 124.498 139.309 124.893C139.224 124.686 139.151 124.51 139.078 124.334C138.635 123.259 137.948 122.402 136.849 121.94C134.984 121.163 132.359 121.576 131.089 123.902C130.628 124.741 130.367 125.634 130.294 126.588C130.202 127.712 130.215 128.829 130.506 129.929C130.688 130.616 130.98 131.253 131.381 131.843C132.79 133.896 135.7 134.115 137.395 133.039C138.173 132.547 138.683 131.837 139.048 131.01C139.127 130.828 139.194 130.646 139.291 130.403C140.433 130.688 141.502 131.162 142.657 131.521C142.523 132.189 142.237 132.766 141.897 133.313C140.852 134.971 139.358 136.01 137.456 136.466C135.622 136.915 133.799 136.861 132.001 136.247C129.741 135.47 128.155 133.951 127.299 131.739C126.205 128.921 126.199 126.059 127.432 123.283C128.635 120.573 130.792 119.042 133.714 118.617C135.561 118.35 137.359 118.562 139.06 119.37C140.743 120.172 142.134 121.837 142.644 123.745L142.657 123.732Z" fill="#D9D9D9"/>
<path d="M152.154 122.052V136.517C150.945 136.517 149.778 136.529 148.545 136.505C148.502 134.883 148.533 133.297 148.527 131.718C148.527 130.126 148.527 128.534 148.527 126.937V122.107C148.01 122.022 147.506 122.077 147.008 122.064C146.504 122.052 145.993 122.064 145.489 122.064C145.003 122.064 144.511 122.064 144.025 122.064C143.521 122.064 143.017 122.064 142.458 122.064C142.397 120.947 142.433 119.871 142.427 118.766H158.253C158.289 119.865 158.296 120.934 158.253 122.052H152.16H152.154Z" fill="#D9D9D9"/>
<path d="M120.495 118.766H124.067V136.414C123.696 136.548 121.637 136.584 120.58 136.481C120.568 136.469 120.549 136.456 120.537 136.444C120.525 136.432 120.513 136.42 120.507 136.402C120.495 136.347 120.477 136.298 120.477 136.244C120.477 130.564 120.477 124.889 120.477 119.209C120.477 119.082 120.489 118.96 120.501 118.766H120.495Z" fill="#D9D9D9"/>
</g>
<defs>
<clipPath id="clip0_4072_3573">
<rect width="195" height="40.2418" fill="white" transform="translate(22 100)"/>
</clipPath>
</defs>
</svg>
