<svg width="240" height="240" viewBox="0 0 240 240" fill="none" xmlns="http://www.w3.org/2000/svg">
<g clip-path="url(#clip0_4072_3330)">
<path d="M128.117 133.198H150.443V130.469H131.941V121.742H145.837V118.983H131.941V110.948H150.443V108.227H128.117V133.198Z" fill="#D9D9D9"/>
<path d="M139.721 104.191L136.703 107.589L146.19 104.191H139.721Z" fill="#D9D9D9"/>
<path d="M187.919 130.469V108.227H184.43V133.198H206.999V130.469H187.919Z" fill="#D9D9D9"/>
<path d="M164.906 108.227L152.211 133.191H156.506L159.752 126.729H174.978L178.254 133.191H182.504L169.801 108.227H164.913M161.356 123.605L167.338 111.678L173.389 123.605H161.356Z" fill="#D9D9D9"/>
<path d="M116.002 122.753C121.719 121.226 122.281 116.969 122.251 115.448C121.909 110.986 118.906 108.227 113.501 108.227H97.7656V133.191H101.354V122.715H111.601L119.134 133.191H123.657C123.657 133.191 118.229 126.144 116.002 122.753ZM113.015 119.774H101.354V111.184H113.418C116.192 111.184 117.758 112.484 118.321 114.125C118.693 115.258 118.458 116.74 117.842 117.744C116.831 119.409 114.915 119.766 113.015 119.766V119.774Z" fill="#D9D9D9"/>
<path d="M76.2154 104C66.0899 104 59.1875 111.138 59.1875 119.781C59.1875 128.88 66.812 135.304 76.2154 135.304C85.6187 135.304 93.2356 128.972 93.2356 119.781C93.2356 111.138 86.2496 104 76.2154 104ZM76.0937 132.202C69.0849 132.202 63.3152 126.57 63.3152 119.789C63.3152 113.008 68.8189 107.117 76.3674 107.117C83.9159 107.117 89.1459 113.016 89.1459 119.789C89.1459 126.562 83.1025 132.202 76.1013 132.202H76.0937Z" fill="#D9D9D9"/>
<path d="M50.1484 117.06H52.733L57.4385 108.227H53.6528L50.1484 117.06Z" fill="#D9D9D9"/>
<path d="M37.4892 130.469V108.227H34V133.198H56.5695V130.469H37.4892Z" fill="#D9D9D9"/>
</g>
<defs>
<clipPath id="clip0_4072_3330">
<rect width="173" height="31.3039" fill="white" transform="translate(34 104)"/>
</clipPath>
</defs>
</svg>
