<svg width="240" height="240" viewBox="0 0 240 240" fill="none" xmlns="http://www.w3.org/2000/svg">
<g clip-path="url(#clip0_4072_3486)">
<path d="M98.5781 86.3633H99.5238V95.1375H98.5781V86.3633Z" fill="#D9D9D9"/>
<path d="M103.486 86.4766L99.7955 90.6006H99.7812H99.7884L99.7812 90.6148H99.7955L103.77 95.137H105.071L101.075 90.6077L104.78 86.4766H103.479H103.486Z" fill="#D9D9D9"/>
<path d="M129.617 86.3633H130.563V95.1375H129.617V86.3633Z" fill="#D9D9D9"/>
<path d="M141.848 86.3633V93.3955L136.43 86.3633H135.484V95.1446H136.43V88.1124L141.848 95.1446H142.801V86.3633H141.848Z" fill="#D9D9D9"/>
<path d="M147.391 86.3633V95.1446H152.332V94.199H148.343V91.1699H151.892V90.2242H148.343V87.3232H152.261V86.3775H147.391V86.3633Z" fill="#D9D9D9"/>
<path d="M121.074 86.2773L117.312 95.1654H118.464L119.609 92.4705H123.52L124.658 95.1582H125.845L122.027 86.2773H121.081H121.074ZM121.557 87.8487L123.115 91.5177H120.007L121.565 87.8487H121.557Z" fill="#D9D9D9"/>
<path d="M109.313 86.3633H108.367V95.1446H109.313V91.625H110.735L113.487 95.1446H114.809L111.993 91.4899C112.342 91.3548 112.69 91.113 112.968 90.8144C113.33 90.4162 113.757 89.7336 113.686 88.7239C113.572 87.0103 111.979 86.3633 111.005 86.3633H109.306H109.313ZM109.313 87.3516H111.012C111.012 87.3516 112.626 87.3943 112.719 88.7879C112.761 89.4492 112.498 89.8829 112.264 90.1389C111.93 90.5015 111.581 90.7291 111.005 90.7291H109.313V87.3516Z" fill="#D9D9D9"/>
<path d="M93.0018 86.3633C93.0018 86.3633 92.9876 91.3548 92.9876 91.4259C92.9876 91.9521 92.9307 93.0328 92.2695 93.7012C91.8642 94.1065 91.274 94.2985 90.4919 94.3056C90.4919 94.3056 90.4919 94.3056 90.4847 94.3056C90.4847 94.3056 90.4847 94.3056 90.4776 94.3056C89.6955 94.3056 89.1053 94.1136 88.7 93.7012C88.0388 93.04 87.9819 91.9592 87.9819 91.4259C87.9819 91.3548 87.9748 86.3633 87.9748 86.3633H87.0149C87.0149 86.3633 87.0006 91.2339 87.0006 91.2766C86.9935 91.9521 87.0291 93.4097 88.0032 94.3909C88.5934 94.9811 89.404 95.2797 90.4207 95.2797H90.5487C91.5655 95.2797 92.3761 94.9811 92.9663 94.3909C93.9333 93.4168 93.9688 91.9521 93.9617 91.2766C93.9617 91.2339 93.9475 86.3633 93.9475 86.3633H93.0018Z" fill="#D9D9D9"/>
<path d="M119.669 50C114.165 50 109.679 54.2947 109.352 59.7128C109.977 59.7626 110.589 59.8764 111.179 60.0328C111.342 55.4821 115.075 51.8416 119.669 51.8416C124.262 51.8416 128.173 55.6457 128.173 60.3457C128.173 65.0456 124.369 68.8497 119.669 68.8497C115.538 68.8497 112.103 65.906 111.328 62.0095C110.717 61.7891 110.07 61.6397 109.394 61.5686C109.999 66.7095 114.364 70.6984 119.662 70.6984C125.378 70.6984 130.014 66.0624 130.014 60.3457C130.014 54.6289 125.378 50 119.669 50Z" fill="#D9D9D9"/>
<path d="M97.3528 50.0859C91.636 50.0859 87 54.7148 87 60.4316C87 66.1484 91.636 70.7772 97.3457 70.7772C103.055 70.7772 107.691 66.1412 107.691 60.4316C107.691 54.7219 103.07 50.0859 97.3528 50.0859ZM97.3528 68.9356C92.6528 68.9356 88.8487 65.1316 88.8487 60.4316C88.8487 55.7316 92.6528 51.9275 97.3528 51.9275C102.053 51.9275 105.857 55.7316 105.857 60.4316C105.857 65.1316 102.053 68.9356 97.3528 68.9356Z" fill="#D9D9D9"/>
<path d="M130.79 59.6758C130.52 59.6758 130.257 59.6971 129.994 59.7184C130.008 59.9246 130.015 60.138 130.015 60.3513C130.015 60.7637 129.987 61.169 129.937 61.5672C130.214 61.5387 130.499 61.5245 130.79 61.5245C135.49 61.5245 139.294 65.3286 139.294 70.0285C139.294 74.7285 135.49 78.5326 130.79 78.5326C126.09 78.5326 122.286 74.7285 122.286 70.0285C122.286 66.3098 124.675 63.1599 128.003 62.0009C128.11 61.4676 128.174 60.9201 128.174 60.3513C128.174 60.2446 128.167 60.138 128.159 60.0242C123.723 61.1903 120.438 65.2148 120.438 70.0214C120.438 75.7382 125.073 80.3671 130.783 80.3671C136.493 80.3671 141.136 75.7311 141.136 70.0214C141.136 64.3118 136.5 59.6758 130.783 59.6758" fill="#D9D9D9"/>
<path d="M108.5 61.5206C112.624 61.5206 116.065 64.4572 116.833 68.3537C117.452 68.5741 118.092 68.7234 118.767 68.7945C118.163 63.6537 113.797 59.6719 108.5 59.6719C108.222 59.6719 107.945 59.6932 107.668 59.7145C107.682 59.9492 107.696 60.1909 107.696 60.4327C107.696 60.8167 107.668 61.1935 107.625 61.5632C107.909 61.5348 108.201 61.5206 108.492 61.5206" fill="#D9D9D9"/>
<path d="M116.984 70.3271C116.82 74.8778 113.087 78.5254 108.494 78.5254C103.901 78.5254 99.99 74.7214 99.99 70.0214C99.99 66.3026 102.379 63.1527 105.7 61.9937C105.799 61.4889 105.849 60.9627 105.849 60.4294C105.849 60.2943 105.835 60.1663 105.828 60.0312C101.412 61.2116 98.1484 65.229 98.1484 70.0214C98.1484 75.7382 102.784 80.367 108.494 80.367C114.204 80.367 118.484 76.0652 118.811 70.6471C118.186 70.5973 117.574 70.4836 116.984 70.3271Z" fill="#D9D9D9"/>
<path d="M141.966 50C136.462 50 131.976 54.2947 131.648 59.7128C132.274 59.7626 132.886 59.8764 133.476 60.0399C133.639 55.4892 137.372 51.8487 141.966 51.8487C146.559 51.8487 150.47 55.6528 150.47 60.3528C150.47 65.0527 146.666 68.8568 141.966 68.8568C137.842 68.8568 134.4 65.9202 133.625 62.0166C133.007 61.7962 132.367 61.6469 131.691 61.5758C132.295 66.7095 136.661 70.6984 141.959 70.6984C147.675 70.6984 152.311 66.0624 152.311 60.3457C152.311 54.6289 147.675 50 141.966 50Z" fill="#D9D9D9"/>
<path d="M119.621 171.33L123.788 166.09H119.621H115.469L119.614 171.323L119.621 171.33Z" fill="#D9D9D9"/>
<path d="M103.297 127.73V145.343L109.419 138.076L103.297 127.73Z" fill="#D9D9D9"/>
<path d="M119.623 149.559L114.305 158.24L118.478 162.763L119.623 164.007L124.224 159.008L124.949 158.219L119.623 149.559Z" fill="#D9D9D9"/>
<path d="M108.175 157.731L103.297 152.555V161.848H106.703L108.893 158.527L108.907 158.506L108.274 157.831L108.175 157.731Z" fill="#D9D9D9"/>
<path d="M131.048 157.738L130.344 158.485L132.527 161.848H135.933V152.555L131.048 157.738Z" fill="#D9D9D9"/>
<path d="M119.623 101.941H87V169.853L119.615 190.26L152.266 169.853V101.941H119.615H119.623ZM140.186 148.991V166.092H129.151L119.615 178.073L110.08 166.092H99.045V112.216L114.603 138.503L105.771 148.991L107.777 151.167L110.791 154.438L111.232 154.914L116.686 146.467L116.672 113.254V113.211L119.615 106.99L120.703 109.286L122.559 113.204L122.545 146.474L128.006 154.878L128.02 154.9L128.646 154.217L133.452 149.005L124.621 138.524L140.179 112.23V149.005L140.186 148.991Z" fill="#D9D9D9"/>
<path d="M135.935 145.343V127.73L129.82 138.076L135.935 145.343Z" fill="#D9D9D9"/>
</g>
<defs>
<clipPath id="clip0_4072_3486">
<rect width="65.3376" height="140.26" fill="white" transform="translate(87 50)"/>
</clipPath>
</defs>
</svg>
