<svg width="240" height="240" viewBox="0 0 240 240" fill="none" xmlns="http://www.w3.org/2000/svg">
<g clip-path="url(#clip0_4072_3260)">
<path d="M68.6372 128.396L76.209 97.6923L78.2463 129.066H86.7604L84.1289 89H70.8867L64.4099 115.875L57.8652 89H44.623L42 129.058H50.5141L52.5513 97.6838L60.1232 128.387H68.6372V128.396ZM182.3 104.169H187.393L189.141 100.859L187.393 97.6159H182.223V104.169H182.3ZM167.597 104.169H172.113V117.131C172.113 123.905 173.785 128.99 181.213 128.99C183.904 128.99 186.085 128.328 187.401 127.81V120.518C182.962 121.325 180.78 121.622 180.78 115.654V89H172.122V97.6923H168.336L167.606 104.169H167.597ZM126.844 115.951C127.429 123.464 139.067 122.207 144.092 120.595L145.332 127.148C133.617 131.715 117.897 128.769 117.897 113.303C117.897 92.684 147.004 90.477 147.004 112.199C147.004 113.821 146.783 115.289 146.715 116.028H126.852V115.951H126.844ZM138.125 109.322C138.125 100.782 126.776 100.706 126.844 109.322H138.125ZM156.757 105.935C156.757 102.03 163.964 103.286 166.146 104.169L166.799 97.6159C159.525 95.3325 148.167 97.0302 148.167 106.75C148.023 116.325 161.995 115.068 161.995 119.635C161.995 124.202 151.078 121.995 148.676 120.518L147.437 127.071C155.586 130.679 171.01 129.873 170.577 118.973C170.432 108.439 156.749 110.281 156.749 105.943L156.757 105.935Z" fill="#D9D9D9"/>
<path d="M96.2048 115.95C96.7905 123.462 108.428 122.206 113.454 120.593L114.693 127.146C102.979 131.713 87.2578 128.768 87.2578 113.302C87.2578 92.6828 116.365 90.4757 116.365 112.198C116.365 113.819 116.145 115.288 116.077 116.026H96.2133V115.95H96.2048ZM107.563 109.32C107.563 100.781 96.2133 100.704 96.2812 109.32H107.563Z" fill="#D9D9D9"/>
<path d="M192.047 89L198.448 100.926L192.047 112.853H185.57L192.047 100.926L185.57 89H192.047Z" fill="#D9D9D9"/>
<path d="M147.05 146.952C146.465 147.173 145.378 147.393 144.36 147.393C141.669 147.393 139.996 145.696 139.996 142.971C139.996 139.881 141.957 138.557 144.292 138.557C145.455 138.557 146.405 138.854 147.059 139.074L147.857 135.908C147.271 135.543 145.896 135.246 144.147 135.246C139.708 135.246 135.922 137.971 135.922 143.276C135.922 147.249 138.392 150.789 143.927 150.789C145.675 150.789 147.127 150.424 147.636 150.203L147.05 146.96V146.952Z" fill="#D9D9D9"/>
<path d="M148.648 150.56H152.579V144.083C152.579 143.939 152.579 143.642 152.723 143.421C152.867 142.98 153.232 142.538 154.03 142.538C155.049 142.538 155.414 143.345 155.414 144.601V150.492H159.344V144.16C159.344 141.07 158.037 139.296 155.558 139.296C154.972 139.296 154.395 139.44 153.886 139.661C153.377 139.881 153.012 140.246 152.579 140.688H152.502V134.652H148.648V150.56Z" fill="#D9D9D9"/>
<path d="M164.883 150.559V139.516H160.953V150.491H164.883V150.559Z" fill="#D9D9D9"/>
<path d="M162.912 134.582C161.673 134.582 160.875 135.388 160.875 136.5C160.875 137.612 161.673 138.419 162.836 138.419C164.075 138.419 164.873 137.536 164.873 136.5C164.95 135.397 164.143 134.582 162.912 134.582Z" fill="#D9D9D9"/>
<path d="M166.477 150.561H170.407V144.305C170.407 144.008 170.407 143.719 170.551 143.499C170.695 143.057 171.06 142.54 171.858 142.54C172.809 142.54 173.242 143.278 173.242 144.526V150.493H177.172V144.084C177.172 141.063 175.789 139.297 173.318 139.297C171.502 139.297 170.483 140.4 170.118 140.918H170.042L169.897 139.518H166.477C166.553 140.545 166.553 141.801 166.553 143.27V150.561H166.477Z" fill="#D9D9D9"/>
<path d="M188.387 147.913V144.161C188.387 141.436 187.08 139.297 183.37 139.297C181.112 139.297 179.584 139.883 178.854 140.256L179.584 142.837C180.314 142.395 181.477 142.03 182.64 142.03C184.092 142.03 184.389 142.548 184.389 142.989V143.066C180.747 143.066 178.133 144.39 178.133 147.336C178.133 149.178 179.516 150.799 181.698 150.799C182.861 150.799 183.956 150.434 184.678 149.619H184.754L184.975 150.578H188.54C188.396 149.993 188.396 148.957 188.396 147.93L188.387 147.913ZM184.525 146.368C184.525 146.589 184.525 146.733 184.448 146.954C184.304 147.539 183.65 147.981 183.065 147.981C182.411 147.981 181.97 147.616 181.97 146.954C181.97 145.994 182.912 145.553 184.516 145.553V146.359L184.525 146.368Z" fill="#D9D9D9"/>
</g>
<defs>
<clipPath id="clip0_4072_3260">
<rect width="156.453" height="61.78" fill="white" transform="translate(42 89)"/>
</clipPath>
</defs>
</svg>
