<?xml version="1.0" encoding="UTF-8"?>
<svg id="Layer_1" xmlns="http://www.w3.org/2000/svg" viewBox="0 0 320.98 66.24">
  <defs>
    <style>
      .cls-1 {
        fill: #fff;
      }
    </style>
  </defs>
  <path class="cls-1" d="M257.81,16.36c-1.18-1.13-2.28-2.13-3.32-3.17-1.32-1.33-2.62-2.68-3.89-4.07-1.07-1.18-1.62-2.62-1.86-4.19-.13-.84,0-1.67.35-2.45.85-1.92,2.87-2.58,4.7-1.53.36.21.69.46,1.03.7,1.3-1.67,2.97-2.08,4.81-1.2,1.25.6,2.09,2.05,1.98,3.44-.08,1.06-.82,1.91-1.86,2.14-.56.12-1.57-.43-1.76-.97-.12-.33-.03-.55.31-.71.69-.33.84-.59.75-1.12-.07-.42-.38-.74-.82-.83-.56-.12-1.09.09-1.38.58-.4.68-.47,1.44-.19,2.15.3.77.68,1.52,1.12,2.22.97,1.55,2.27,2.82,3.58,4.09.26.25.51.27.81.18,1.58-.5,3.03-1.24,4.24-2.39.39-.37.69-.8.82-1.43-.2.02-.33.04-.47.06-.53.08-.93-.14-1.24-.54-1.41-1.79-.78-4.44,1.31-5.35.44-.19.99-.26,1.47-.21,1.79.17,3.11,1.1,3.97,2.68.16.29.31.58.49.93.26-.12.51-.24.77-.37.68-.33,1.38-.55,2.14-.54.98.01,1.76.4,2.22,1.25.38.7.62,1.47.95,2.29.23-.21.48-.44.72-.68.75-.75,1.64-.92,2.63-.65.73.19,1.29.6,1.57,1.33.2.52.39,1.05.6,1.64,1.04-.84,2.17-1.16,3.4-.52,1.18.61,1.72,1.68,1.92,3.05,1.2-.82,2.44-1.1,3.79-.53,1.35.57,1.93,1.69,2.23,3.01.09-.02.12-.02.15-.03,1.69-1.02,3.05-.7,4.06,1.01.31.53.49,1.13.73,1.7,2.07-1.23,4.28-.41,5.06,2.72,2.89-1.38,5.45-.25,5.5,3.54,1.24-.37,2.48-.4,3.66.16,1.29.61,1.67,1.78,1.61,3.12.39,0,.68,0,.97,0,1.2.02,2.04.6,2.54,1.66.63,1.35.48,2.66-.23,3.93.03.07.05.13.09.17,1.21,1.05,1.44,2.34.69,3.75-.61,1.14-1.51,1.93-2.8,2.15-1.26.21-2.53.35-3.77.52-.01-.02.02.07.08.12,1.87,1.5,1.67,4.47-.39,5.7-.15.09-.32.22-.48.22-.65,0-.99.44-1.38.87-1.39,1.51-2.77,3.04-4.23,4.48-2.18,2.15-3.68,4.74-5.01,7.45-.41.83-.6,1.73-.56,2.69.03.78-.2,1-.96,1.1-.21.03-.42.04-.62.05-5.09.14-10.18.28-15.28.43-1.19.03-2.38.1-3.57.12-.41,0-.84-.04-1.23-.17-.55-.19-.59-.76-.11-1.1.17-.12.36-.21.56-.28,3.13-1.22,6.27-2.44,9.4-3.66.97-.38,1.95-.75,2.89-1.18.51-.23,1.01-.52,1.43-.88,1.1-.93,1.48-2.29.76-3.54-1.06-1.82-.67-3.56-.02-5.32.28-.78.71-1.5,1.06-2.21-.68.38-1.52,1.35-1.97,2.54-.4,1.04-.65,2.14-.97,3.23-.5-.19-1.05-.45-1.61-.59-1.96-.51-3.84-.18-5.67.57-1.81.74-3.44,1.78-5.02,2.89-1.07.75-2.11,1.55-3.3,2.42.25-.87.47-1.62.69-2.38-.9,1.04-1.54,2.65-1.34,3.5.3-.15.6-.25.85-.42.57-.39,1.12-.79,1.66-1.21,1.76-1.39,3.72-2.46,5.69-3.52.64-.34,1.2-.42,1.83,0,1.62,1.06,3.25,2.09,4.87,3.16.24.16.41.41.61.62-.16.59-.61.79-1.04.98-1.17.52-2.34,1.05-3.53,1.52-3.27,1.29-6.55,2.55-9.82,3.82-1.45.56-2.97.88-4.51,1.03-.84.08-1.66.02-2.47-.25-.82-.28-1.3-.86-1.33-1.71-.02-.62.02-1.26.15-1.86.2-.9.52-1.77.77-2.66.16-.54.3-1.09.42-1.64.22-1,0-1.85-.72-2.63-1.4-1.51-2.69-3.12-3.59-4.98-.72-1.5-1.32-3.06-1.87-4.63-.86-2.47-1.59-4.99-2.47-7.46-1.72-4.83-4.86-8.57-9.12-11.36-1.08-.71-2.35-1.16-3.52-1.72-.32-.15-.63-.33-.97-.46-.74-.3-.99-.9-1.03-1.63-.04-.88.2-1.71.57-2.5.15-.32.39-.44.72-.4.53.06,1.07.09,1.59.22,1.79.43,3.6.45,5.41.19.46-.06.92-.11,1.53-.18ZM263.6,18.58c.27.51.45.88.66,1.23.92,1.54,1.95,3,3.27,4.22,1.62,1.5,3.28,2.94,4.94,4.39,2.79,2.44,6.11,3.7,9.72,4.13,2.65.32,5.34.39,8.02.52,2.32.11,4.64.13,6.96.21,1.76.06,3.5.26,5.21.69.58.15,1.17.27,1.76.41-12.44-7.89-25.7-13.61-40.54-15.8ZM284.64,20.42s.08.07.14.08c2.34.18,4.63-.06,6.8-1.03.91-.41,1.67-1.03,2.22-1.87.8-1.22.76-2.47.05-3.7-.46-.8-1.38-1.15-2.23-.89-.47.14-.86.4-.99.93-.15.56.09,1,.42,1.39.33.38.81.26.97-.21.08-.23.1-.47.16-.75.67.57.75.91.32,1.66-.82,1.43-1.95,2.58-3.52,3.14-1.42.51-2.9.85-4.34,1.27ZM265.55,12.58c1.34-.24,2.62-.61,3.65-1.5,2.03-1.74,2.35-3.97,1.27-6.28-.67-1.44-2.32-1.7-3.42-.7-.45.41-.42,1.54-.12,1.9.23.27.53.4.87.27.32-.12.4-.42.37-.74-.02-.19-.07-.39-.13-.66.84.45,1.29,1.04,1.42,1.91.14.94-.12,1.76-.57,2.55-.65,1.14-1.59,1.99-2.64,2.74-.24.17-.47.33-.71.5ZM286.28,11.82c.1.1.17.16.21.23.42.82.32,1.68-.48,2.43-.74.68-1.57,1.28-2.43,1.79-1.02.61-2.12,1.09-3.18,1.63-.15.08-.29.18-.43.27.78.04,1.53.01,2.26-.09,2.13-.3,3.91-1.2,5.17-3.01.52-.75.84-1.57.83-2.5-.01-.81-.38-1.43-1-1.91-.44-.34-.92-.27-1.33.01-.44.3-.9.66-.84,1.27.02.21.25.47.45.57.12.05.39-.16.55-.29.1-.08.14-.24.22-.4ZM295.18,24.92c1.9.25,3.76.1,5.58-.43,1.46-.43,2.48-1.39,3.14-2.72.36-.73.51-1.53.22-2.34-.33-.92-1.43-1.47-2.32-1.16-.5.17-.8.52-.86,1.04-.05.5.11.94.53,1.26.34.25.63.16.74-.25.07-.25.07-.51.1-.8.11.05.21.06.26.12.51.51.4,1.1.11,1.65-.5.95-1.22,1.71-2.22,2.12-.9.38-1.84.68-2.78.95-.82.24-1.67.39-2.51.58ZM252.87,3.86c.11.28.14.54.29.7.19.19.47.41.71.42.35,0,.58-.29.63-.65.03-.19,0-.42-.08-.6-.31-.83-.99-1.25-1.88-1.2-.77.05-1.31.53-1.49,1.41-.25,1.2-.12,2.36.77,3.25.92.93,1.91,1.79,2.92,2.62.68.56,1.44,1.01,2.16,1.51.05-.21,0-.29-.07-.37-.89-1-1.79-1.99-2.65-3.02-.61-.73-1.21-1.48-1.46-2.43-.14-.54-.26-1.09.16-1.65ZM304.99,30.38c.11.03.22.08.33.1,1.53.24,3.07.42,4.62.27,1.13-.11,2.22-.44,3.18-1.08.98-.66,1.51-1.57,1.54-2.77.03-1.4-1.46-2.32-2.7-1.68-.71.37-.91,1.36-.37,1.9.35.35.69.32.96-.08.11-.16.2-.33.3-.5.54.14.58.53.47.85-.13.38-.33.81-.64,1.02-.61.41-1.28.76-1.98.98-1.85.59-3.75.92-5.71.99ZM270.93,14.58c.03.05.07.11.1.16.55-.2,1.12-.37,1.66-.6,1.21-.53,2.34-1.17,3.2-2.2.9-1.07,1.19-2.31.96-3.67-.13-.77-.5-1.39-1.3-1.67-.58-.2-1.07-.02-1.46.39-.38.39-.64.87-.43,1.46.1.29.27.55.64.52.31-.03.46-.23.49-.54,0-.09.06-.17.12-.32.46.44.61.88.47,1.37-.13.48-.3.97-.54,1.4-.58,1.06-1.46,1.86-2.42,2.59-.49.38-.99.75-1.48,1.13ZM317.28,29.83c.63.66.64,1.28.12,1.89-.59.69-1.38,1.02-2.23,1.22-1.37.31-2.76.41-4.17.28-.44-.04-.88-.07-1.31-.1.64.36,1.29.54,1.93.77,1.07.38,2.17.41,3.26.29,1.52-.16,2.82-.76,3.57-2.19.44-.84.47-1.71-.01-2.56-.35-.6-.89-.86-1.58-.77-.67.09-1.16.46-1.4,1.1-.21.54.02,1.11.51,1.37.53.28,1.02.08,1.17-.5.06-.22.08-.45.13-.81ZM307.91,22.6c.5.58.24,1.1-.05,1.58-.56.92-1.41,1.52-2.35,1.98-1.13.55-2.33.87-3.57,1.07-.5.08-1,.17-1.5.26,1.64.35,3.24.53,4.86.09,1.43-.39,2.6-1.14,3.44-2.38.58-.86.77-1.8.47-2.8-.23-.76-1.05-1.22-1.82-1.06-.54.11-1.04.8-.92,1.34.05.2.21.46.39.53.17.07.44-.04.63-.15.16-.09.27-.29.42-.46ZM280.93,10.06c.13.33.29.61.33.9.08.55-.13,1.05-.42,1.52-.56.93-1.29,1.71-2.18,2.33-.98.67-1.98,1.31-3.05,2.01,1.55-.36,2.98-.83,4.25-1.68.68-.46,1.35-.99,1.91-1.59.87-.95,1.18-2.12.97-3.4-.11-.65-.43-1.17-1.04-1.47-.96-.47-2.16.31-2.13,1.39.01.42.25.81.55.82.41.02.57-.24.61-.61,0-.04.07-.08.21-.21ZM297.53,17.25c.14.72.04,1.25-.29,1.67-.47.6-.95,1.26-1.58,1.67-1.03.68-2.17,1.22-3.29,1.77-.55.27-1.16.43-1.81.67,2.88.58,5.47-.4,7.07-2.31.4-.47.72-1.03.96-1.6.4-.94.11-2.19-.55-2.72-.37-.3-.97-.39-1.34-.18-.37.21-.54.55-.51.97.03.54.36.69.83.38.12-.08.24-.15.5-.32ZM319.2,34.49c-.25.18-.44.28-.56.43-.44.54-1.03.8-1.66.98-1.21.33-2.44.51-3.7.36-.4-.05-.8-.06-1.29-.1.23.6.66.74,1.07.88,1.23.41,2.51.51,3.79.34.54-.07,1.08-.33,1.56-.61.75-.45,1.01-1.26.79-2.28ZM257.98,19.08c.94,1.07,1.7,1.32,2.48.8-.45-.84-1.11-1.05-2.48-.8Z"/>
  <path class="cls-1" d="M28.17,60.01v-21.02c-1.52,3.46-2.79,7-4.11,10.51-1.32,3.51-2.61,7.03-3.92,10.57h-6.21c-2.64-7.11-5.29-14.25-7.93-21.38-.04,0-.08,0-.12.01v21.23c-.71.22-4.78.26-5.74.08-.19-.76-.19-28.3.01-29.13h8.78c2.67,7.26,5.35,14.51,8.1,21.99,2.77-7.45,5.47-14.71,8.18-21.99h8.58c.19.66.24,27.99.06,29.1-.64.16-4.51.2-5.7.03Z"/>
  <path class="cls-1" d="M131.88,30.88h23.29c.05,1.16.02,2.28.03,3.39,0,1.13,0,2.26,0,3.4v16.98h3.5v11.42c-.65.18-4.56.23-5.81.06v-5.97h-19.09v5.88c-.7.22-4.7.26-5.78.07v-11.39c1.01-.21,2.05,0,3.18-.15.11-.78.29-1.57.33-2.36.14-2.71.3-5.41.34-8.12.06-4.08.02-8.16.02-12.25,0-.29,0-.59,0-.97ZM149.23,54.68v-18.43h-11.55c0,3.11,0,6.17,0,9.22,0,3.07-.29,6.11-.7,9.21h12.26Z"/>
  <path class="cls-1" d="M127.39,45.38c-.03,3.03-.57,5.91-2.17,8.55-1.6,2.64-3.82,4.55-6.73,5.59-3.95,1.42-7.9,1.35-11.77-.29-3.29-1.4-5.57-3.84-6.84-7.17-1.62-4.22-1.68-8.52-.12-12.76,1.63-4.43,4.81-7.25,9.39-8.38,3.48-.85,6.92-.62,10.23.82,3.25,1.41,5.47,3.83,6.81,7.09.83,2.03,1.19,4.07,1.21,6.55ZM121.22,45.47c.05-1.59-.19-3.12-.75-4.58-.63-1.66-1.62-3.05-3.15-4-4.43-2.75-10.04-.81-11.82,4.09-.95,2.63-.99,5.32-.31,8,.43,1.7,1.27,3.19,2.59,4.4,3.22,2.95,10.28,2.87,12.64-3.22.59-1.52.86-3.09.8-4.7Z"/>
  <path class="cls-1" d="M66.78,44.44c.04,4.51-.87,8.29-3.6,11.46-1.51,1.75-3.4,2.99-5.58,3.73-3.53,1.19-7.09,1.21-10.6-.04-4.12-1.47-6.81-4.38-8.1-8.54-1.31-4.25-1.22-8.49.58-12.57,2.03-4.6,5.69-7.14,10.63-7.84,2.76-.4,5.48-.15,8.08.88,4.42,1.75,7.01,5.09,8.08,9.64.29,1.21.38,2.47.51,3.29ZM60.67,45.5c-.1-.92-.14-1.84-.31-2.75-.34-1.82-1.08-3.45-2.37-4.82-3.2-3.38-10.41-3.34-12.89,2.49-1.32,3.12-1.36,6.33-.22,9.51,1.1,3.07,3.3,4.86,6.58,5.28,3.19.4,6.26-1.14,7.8-3.95.99-1.8,1.35-3.74,1.4-5.77Z"/>
  <path class="cls-1" d="M71.85,30.88h22.68c.2.66.28,27.67.07,29.2-1.93.08-3.87.02-5.91.03v-23.61c-.73-.22-9.85-.25-10.92-.05,0,.3,0,.62,0,.94-.01,3.57,0,7.15-.05,10.72-.04,2.41-.18,4.83-.84,7.17-.19.66-.43,1.3-.72,1.92-.74,1.56-1.98,2.5-3.66,2.86-1.71.37-3.42.2-5.19.02v-5.42c.26-.03.49-.07.72-.07.45-.02.89-.02,1.34-.02.99-.01,1.63-.51,1.89-1.46.14-.52.27-1.04.33-1.57.11-.98.21-1.96.22-2.94.03-5.54.03-11.08.05-16.62,0-.33,0-.65,0-1.09Z"/>
  <path class="cls-1" d="M227.23,30.88h5.79c.02.35.07.69.07,1.03,0,2.89,0,5.78,0,8.67,0,.29,0,.58,0,.93.35.03.6.06.86.06,1.88,0,3.75-.01,5.63.01,1.74.02,3.44.25,5.09.83,3.56,1.25,5.71,4.2,5.82,7.97.04,1.42-.12,2.79-.66,4.11-1.05,2.55-3.02,4.07-5.57,4.92-1.42.47-2.9.68-4.4.69-3.99.02-7.99.01-11.98,0-.23,0-.46-.04-.68-.06-.19-.89-.18-28.4.02-29.18ZM233.18,46.42c-.17,1.3-.12,7.94.06,8.6.1.01.22.04.33.04,1.88,0,3.75.02,5.63-.01.68-.01,1.37-.1,2.03-.26,2.84-.66,4.15-3.69,2.69-6.24-.27-.47-.7-.89-1.14-1.22-.7-.54-1.56-.76-2.43-.79-2.05-.07-4.11-.08-6.16-.11-.32,0-.65,0-1.02,0Z"/>
  <path class="cls-1" d="M198.61,39.07c-1.84.64-3.64,1.26-5.51,1.91-.14-.34-.26-.63-.38-.92-.73-1.77-1.86-3.18-3.67-3.94-3.07-1.28-7.39-.6-9.48,3.23-.76,1.38-1.19,2.85-1.31,4.42-.15,1.85-.13,3.69.35,5.5.3,1.13.78,2.18,1.44,3.15,2.32,3.38,7.11,3.74,9.9,1.97,1.28-.81,2.12-1.98,2.72-3.34.13-.3.24-.6.4-1,1.88.47,3.64,1.25,5.54,1.84-.22,1.1-.69,2.05-1.25,2.95-1.72,2.73-4.18,4.44-7.31,5.19-3.02.74-6.02.65-8.98-.36-3.72-1.28-6.33-3.78-7.74-7.42-1.8-4.64-1.81-9.35.22-13.92,1.98-4.46,5.53-6.98,10.34-7.68,3.04-.44,6-.09,8.8,1.24,2.77,1.32,5.06,4.06,5.9,7.2Z"/>
  <path class="cls-1" d="M214.24,36.3v23.81c-1.99,0-3.91.02-5.94-.02-.07-2.67-.02-5.28-.03-7.88,0-2.62,0-5.24,0-7.87v-7.95c-.85-.14-1.68-.05-2.5-.07-.83-.02-1.67,0-2.5,0-.8,0-1.61,0-2.41,0-.83,0-1.66,0-2.58,0-.1-1.84-.04-3.61-.05-5.43h26.05c.06,1.81.07,3.57,0,5.41h-10.03Z"/>
  <path class="cls-1" d="M162.13,30.89h5.88v29.05c-.61.22-4,.28-5.74.11-.02-.02-.05-.04-.07-.06-.02-.02-.04-.04-.05-.07-.02-.09-.05-.17-.05-.26,0-9.35,0-18.69,0-28.04,0-.21.02-.41.04-.73Z"/>
</svg>