<?xml version="1.0" encoding="UTF-8"?>
<svg id="Layer_1" xmlns="http://www.w3.org/2000/svg" viewBox="0 0 297.65 51.36">
  <defs>
    <style>
      .cls-1 {
        fill: #fff;
      }
    </style>
  </defs>
  <g id="Layer_2">
    <g id="_Слой_1" data-name="Слой_1">
      <path class="cls-1" d="M18.09,13.21c.88.21,1.74.51,2.57.88-.74-2.12.38-4.43,2.49-5.17,2.12-.74,4.43.38,5.17,2.49.14.41.22.85.23,1.29.02,1.89-1.28,3.54-3.11,3.97.79.39,1.65.61,2.54.65.25.03.51.05.76.04,1.58.05,3.1-.64,4.11-1.87.19-.27.35-.55.49-.84.76-1.67,2.11-6.4,2.11-6.4,0,0-9.89-6.39-18.88-5.31-4.68.56-6.64.4-9.4-.68L1.42,0l-.75,1.9-.68,1.71,5.75,2.25c2.75,1.09,4.31,2.32,7.34,5.91.36.44.74.86,1.16,1.25.48-.08.96-.12,1.45-.12.81,0,1.61.1,2.39.3Z"/>
      <path class="cls-1" d="M24.46,9.93c-1.53,0-2.77,1.24-2.77,2.77,0,1.53,1.24,2.77,2.77,2.77,1.53,0,2.77-1.24,2.77-2.77,0,0,0,0,0,0,0-1.53-1.24-2.76-2.77-2.76Z"/>
      <path class="cls-1" d="M24.46,15.46c-1.53,0-2.77-1.24-2.77-2.77s1.24-2.77,2.77-2.77c1.53,0,2.77,1.24,2.77,2.77h0c0,1.53-1.24,2.77-2.77,2.77Z"/>
      <path class="cls-1" d="M34.89,14.38c-.24.59-.53,1.15-.88,1.68-.43.58-.95,1.08-1.55,1.48-1.55.96-3.4,1.31-5.19.98-1.42-.26-2.79-.78-4.03-1.54-1.93-1.02-3.82-2.19-5.99-2.63-2-.41-4.08-.02-5.79,1.11-1.93,1.3-3.27,3.68-2.63,6.03l1.75-.14c0-1.58,1.55-2.77,3.02-2.95,1.58-.11,3.06.78,3.7,2.24.82,1.75.16,3.8-.82,5.37-2.24,3.6-7.08,4.81-10.94,3.37-.11-.04-1.32-.58-1.3-.61l-2.18,3.59c3.07,1.68,6.51,2.59,10.01,2.63,3.6.03,7.1-1.14,9.96-3.32-1.02-1.02-2.14-1.93-3.34-2.72,5.86,1.98,10.42,6.64,12.28,12.54h4.11c.34-2.16-.09-12.13-9.94-17.95.66.12,1.32.17,1.99.15,5.15-.05,9.47-3.91,10.1-9.02l-2.35-.3Z"/>
      <circle class="cls-1" cx="230.82" cy="4.95" r="4.63"/>
      <path class="cls-1" d="M74.88,14.91c-2.09-2.04-4.81-2.97-8.54-2.97-8.36-.04-13.71,5.7-13.71,14.6s5.26,14.39,13.46,14.39c3.68,0,6.46-1.01,8.77-3.24-.03,1.47-.4,2.92-1.07,4.24-1.24,2.11-3.94,3.32-7.42,3.32-3.26,0-5.26-.96-7.02-3.42l-.43-.6-6.14,4.22.52.59c3.43,3.88,6.9,5.32,12.81,5.32,5.14,0,9.39-1.17,11.99-3.3,3.02-2.54,4.39-6.42,4.39-12.57v-16.34c-.02-2,.1-4,.34-5.99l.1-.78h-8.04v2.54ZM67.12,34.93c-1.75-.04-3.42-.74-4.67-1.97h0c-1.32-1.32-2.04-3.51-2.04-6.25,0-5.42,2.76-8.77,7.22-8.77,1.57,0,3.09.54,4.3,1.55,1.75,1.52,2.69,3.77,2.69,6.71.07,1.82-.37,3.63-1.27,5.21-1.34,2.16-3.69,3.49-6.23,3.53Z"/>
      <path class="cls-1" d="M100.36,11.5c-9.28,0-15.28,6.14-15.28,15.61s6.02,15.62,15.32,15.62,15.13-6.32,15.13-15.72-5.96-15.52-15.18-15.52ZM100.36,17.99c4.82,0,7.46,3.27,7.46,9.23,0,5.6-2.81,8.93-7.52,8.93s-7.52-3.38-7.52-9.03,2.82-9.12,7.57-9.12Z"/>
      <path class="cls-1" d="M132.77,11.5c-9.28,0-15.27,6.14-15.27,15.61s6.01,15.62,15.32,15.62,15.12-6.32,15.12-15.72-5.96-15.52-15.18-15.52ZM132.77,17.99c4.82,0,7.46,3.27,7.46,9.23,0,5.6-2.81,8.93-7.52,8.93s-7.52-3.38-7.52-9.03,2.87-9.12,7.57-9.12Z"/>
      <path class="cls-1" d="M180.58,34.5V8.77c-.01-2.17.1-4.33.34-6.48l.08-.77h-8.46l.1.78c.26,2.17.37,4.35.34,6.53v6.48c-.39-.42-.82-.81-1.27-1.17-2.28-1.68-5.07-2.52-7.89-2.39-8.45,0-13.91,6.01-13.91,15.32,0,5.52,1.96,10.19,5.35,12.82,2.27,1.81,5.01,2.63,8.61,2.63,4.15,0,6.81-.97,9.13-3.51v2.82h7.99l-.09-.78c-.25-2.17-.35-4.36-.31-6.54ZM165.01,35.86c-4.51,0-7.32-3.37-7.32-8.77s2.71-8.84,7.07-8.84c2.2.02,4.31.93,5.84,2.51,1.41,1.69,2.19,3.82,2.2,6.02.08,2.18-.54,4.33-1.75,6.14-1.44,1.88-3.68,2.97-6.04,2.95Z"/>
      <path class="cls-1" d="M216.07,12.99c-.17,1.92-.52,3.82-1.05,5.68l-2.74,9.77c-.04.17-.13.54-.23.96-.1-.35-.18-.64-.25-.83l-3.61-11.09c-.47-1.53-1.07-3.72-1.2-4.55l-.1-.59h-6.43l-.09.6c-.3,1.53-.7,3.05-1.19,4.53l-3.51,10.67c-.07.21-.21.68-.37,1.23-.12-.5-.22-.88-.3-1.15l-2.69-9.53c-.52-1.86-.89-3.76-1.09-5.68l-.04-.65h-8.89l.36.95c.7,1.85,1.39,3.88,2.04,6.03l5.38,17.36c.51,1.49.93,3.02,1.25,4.56l.11.56h6.8l.11-.57c.19-.98.72-2.9,1.25-4.56l3.77-11.46.29-.98c.08.32.18.63.29.94l3.75,11.49c.5,1.5.91,3.03,1.23,4.58l.1.59h6.85l.11-.58c.29-1.55.69-3.07,1.2-4.56l5.94-19c.81-2.57.95-3.04,1.47-4.39l.38-.96h-8.88l-.04.66Z"/>
      <path class="cls-1" d="M235.08,13.16l.11-.79h-8.77l.11.8c.3,2.07.43,4.17.39,6.26v15.35c.02,2.1-.11,4.19-.39,6.27l-.11.79h8.73l-.1-.78c-.25-2.1-.36-4.21-.33-6.32v-15.3c-.03-2.1.09-4.2.35-6.28Z"/>
      <path class="cls-1" d="M266.34,34.75v-11.74c0-3.4-.52-5.5-1.8-7.26-1.9-2.59-4.89-3.9-8.88-3.9s-6.54,1.04-9.18,3.87v-3.38h-8.16l.11.8c.3,2.07.43,4.17.39,6.26v15.35c.03,2.09-.1,4.19-.39,6.26l-.11.8h8.65l-.11-.8c-.28-2.08-.41-4.17-.39-6.26v-9.73c2.02-4.47,4.67-6.74,7.89-6.74,1.38-.1,2.72.53,3.51,1.68.59,1.22.85,2.58.73,3.94v10.85c.02,2.1-.1,4.2-.34,6.28l-.09.78h8.7l-.13-.82c-.32-2.07-.46-4.16-.42-6.25Z"/>
      <path class="cls-1" d="M289.86,32.46h0c-.23.56-.56,1.08-.96,1.54-1.39,1.47-3.33,2.28-5.35,2.22-2.14.08-4.19-.84-5.57-2.47-.97-1.26-1.52-2.8-1.58-4.39h21.26l-.07-.76c-.09-1.1-.09-1.24-.09-1.34,0-2.62-.5-5.22-1.47-7.66-2.04-5.11-6.84-8.17-12.82-8.17-8.77,0-14.49,6.14-14.49,15.66s5.85,15.66,14.82,15.66c3.9.15,7.69-1.29,10.53-3.97.9-.88,1.66-1.89,2.25-3l-6.45-3.31ZM283.08,17.87c1.77-.12,3.51.52,4.78,1.75.96.95,1.59,2.18,1.81,3.51h-13.06c.88-3.3,3.21-5.25,6.47-5.25v-.02Z"/>
    </g>
  </g>
</svg>