<?xml version="1.0" encoding="UTF-8"?>
<svg id="Layer_1" xmlns="http://www.w3.org/2000/svg" viewBox="0 0 180.32 62.62">
  <defs>
    <style>
      .cls-1 {
        fill: #fff;
      }
    </style>
  </defs>
  <path class="cls-1" d="M21.58.54v6.56L7.57,40.69h14.01v6.69H0v-6.56L14.01,7.23H.67V.54h20.91Z"/>
  <path class="cls-1" d="M33.32,47.38h-7.37V.54h7.37v20.07h8.38V.54h7.51v46.84h-7.51v-20.07h-8.38v20.07Z"/>
  <path class="cls-1" d="M61.33,36.6c0,1.7.33,2.9,1.01,3.61.72.67,1.65,1,2.82,1s2.08-.33,2.75-1c.72-.71,1.07-1.92,1.07-3.61V11.31c0-1.7-.36-2.88-1.07-3.55-.67-.71-1.59-1.07-2.75-1.07s-2.1.36-2.82,1.07c-.67.67-1.01,1.85-1.01,3.55v25.29ZM53.95,11.78c0-3.79.96-6.69,2.88-8.7,1.92-2.05,4.69-3.08,8.31-3.08s6.39,1.03,8.31,3.08c1.92,2.01,2.88,4.91,2.88,8.7v24.36c0,3.79-.96,6.71-2.88,8.77-1.92,2.01-4.69,3.01-8.31,3.01s-6.39-1-8.31-3.01c-1.92-2.05-2.88-4.97-2.88-8.77V11.78Z"/>
  <path class="cls-1" d="M92.26,38.74L97.89.54h6.77l-7.24,46.84h-10.99L79.19.54h7.44l5.63,38.21Z"/>
  <path class="cls-1" d="M106.09.54h22.79v6.69h-7.71v40.15h-7.37V7.23h-7.71V.54Z"/>
  <path class="cls-1" d="M139.64,20.28h10.12v6.69h-10.12v13.72h12.74v6.69h-20.11V.54h20.11v6.69h-12.74v13.05Z"/>
  <path class="cls-1" d="M163.51,13.45v33.93h-6.64V.54h9.25l7.57,28.04V.54h6.57v46.84h-7.57l-9.18-33.93Z"/>
  <path class="cls-1" d="M133.93,62.62c-.86,0-1.64-.18-2.34-.55-.69-.38-1.24-.9-1.64-1.55-.39-.67-.59-1.42-.59-2.25s.2-1.58.59-2.24c.4-.67.95-1.18,1.64-1.55.7-.38,1.48-.57,2.35-.57.73,0,1.39.13,1.97.39.59.26,1.09.63,1.49,1.11l-1.25,1.16c-.57-.66-1.28-.99-2.12-.99-.52,0-.99.12-1.4.35-.41.22-.73.54-.96.95-.22.41-.34.87-.34,1.4s.11.99.34,1.4c.23.41.55.73.96.96.41.22.87.34,1.4.34.84,0,1.55-.33,2.12-1l1.25,1.16c-.4.49-.9.86-1.49,1.12-.59.26-1.26.39-1.99.39Z"/>
  <path class="cls-1" d="M138.72,54.05h1.95v8.43h-1.95v-8.43Z"/>
  <path class="cls-1" d="M150.4,54.05v8.43h-1.6l-4.2-5.12v5.12h-1.93v-8.43h1.61l4.19,5.12v-5.12h1.93Z"/>
  <path class="cls-1" d="M158.92,60.91v1.57h-6.53v-8.43h6.37v1.57h-4.43v1.83h3.91v1.52h-3.91v1.95h4.59Z"/>
  <path class="cls-1" d="M168.15,62.47v-5.06s-2.49,4.17-2.49,4.17h-.88l-2.47-4.06v4.95h-1.83v-8.43h1.61l3.15,5.24,3.11-5.24h1.6l.02,8.43h-1.83Z"/>
  <path class="cls-1" d="M177.53,60.67h-3.91l-.75,1.81h-2l3.76-8.43h1.93l3.77,8.43h-2.05l-.75-1.81ZM176.91,59.19l-1.34-3.23-1.34,3.23h2.67Z"/>
</svg>