<?xml version="1.0" encoding="UTF-8"?>
<svg id="Layer_1" data-name="Layer 1" xmlns="http://www.w3.org/2000/svg" viewBox="0 0 161.46 61.26">
  <defs>
    <style>
      .cls-1 {
        fill: #fff;
      }
    </style>
  </defs>
  <path class="cls-1" d="m69.84,54.91c-.56.52-1.16,1.06-1.75,1.61-3.36,3.14-7.37,4.7-11.92,4.71-13.68.05-27.37.04-41.05.02-8.03-.01-14.72-6.43-15.05-14.45-.12-2.81-.05-5.62-.05-8.44,0-7.57.03-15.15-.01-22.72C-.02,10.6,1.92,6.52,5.79,3.33,8.52,1.08,11.7.03,15.23.02c4.16,0,8.33,0,12.49,0,.54,0,1.08-.02,1.62.02,1.64.13,2.55,1.03,2.71,2.67.05.48.01.97.01,1.46,0,16.23,0,32.45,0,48.68v1.89c1.33.42,8.28.44,9.63.07-.83-1.36-1.74-2.69-2.47-4.11-1.24-2.39-1.76-4.99-1.77-7.67-.02-8.17.03-16.34-.02-24.5-.07-9.93,7.63-17.15,15.13-18.28,6.55-.99,12.2.74,16.79,5.61.33.35.66.71,1,1.06.03.03.1.03.26.08.3-.38.61-.79.94-1.19,2.89-3.52,6.55-5.63,11.16-5.77,5.38-.16,10.7.32,15.73,2.42.1-.06.25-.1.27-.17C99.31.55,100.56,0,102.35,0c13.58.03,27.15-.02,40.73.02,7.69.02,14.53,4.64,17.07,11.74,2.15,6.01,1.7,11.93-1.73,17.44-1.65,2.65-4.12,4.4-6.89,5.73-.33.16-.67.32-1.15.56.27.58.51,1.11.76,1.62,3.22,6.43,6.41,12.87,9.69,19.27.9,1.76.45,3.35-.89,4.29-1.33.93-3.07.71-4.07-.57-.36-.46-.62-1.01-.89-1.54-3.51-7.01-7-14.02-10.51-21.03-.12-.24-.27-.47-.43-.74h-13.28c0,.71,0,1.34,0,1.97,0,6.22,0,12.44.01,18.66,0,.32.01.65,0,.97-.09,1.78-1.06,2.76-2.87,2.83-1.08.04-2.16.02-3.25.02-7.36,0-14.71,0-22.07,0-2.54,0-3.05-.34-3.99-2.8-.55.32-1.08.64-1.62.95-3.15,1.75-6.55,2.06-10.06,1.76-6.12-.53-11.7-2.48-16.68-6.11-.08-.06-.19-.07-.38-.13m-1.83-24.03h0c0-4.22.02-8.44-.02-12.65,0-1.02-.11-2.06-.36-3.04-1.73-6.62-8.48-10.39-15.22-8.53-5.11,1.41-8.73,6.02-8.79,11.54-.09,8.33-.08,16.66,0,24.99.06,5.18,3.33,9.64,8.13,11.2,8.81,2.87,16.36-3.73,16.25-11.34-.06-4.05,0-8.11,0-12.17M25.81,6.17c-3.54,0-6.88.03-10.23,0-5.67-.07-9.47,4.63-9.42,9.44.11,10.05.01,20.1.04,30.15.01,5.36,3.95,9.27,9.34,9.31,2.86.02,5.73,0,8.59,0,.53,0,1.06-.05,1.68-.08V6.17Zm98.69,48.64c.03-.14.1-.3.1-.45,0-15.79,0-31.58-.01-47.36,0-.16-.05-.32-.09-.48-.01-.05-.06-.09-.1-.13-.04-.04-.08-.07-.21-.2-6.31-.06-12.71-.03-19.08.01-.34,2.35-.26,16.98.11,18.23.5,0,1.03,0,1.57,0,2.7,0,5.41-.01,8.11.02.75,0,1.53.04,2.23.27.57.19,1.21.58,1.52,1.07,1.34,2.15.03,4.6-2.5,4.73-1.08.06-2.16.06-3.24.07-2.16,0-4.33,0-6.49,0-.46,0-.92.09-1.4.14v24.09c1.6.35,18.22.32,19.47-.02m6.37-48.65v24.27c.25.06.4.12.55.12,4.21,0,8.42.05,12.64-.02,1.57-.03,3.08-.47,4.5-1.21,5.65-2.97,7.89-9.1,5.98-15.03-1.21-3.77-5.19-8.01-11.21-8.11-2.43-.04-4.86-.02-7.29-.02-1.67,0-3.33,0-5.17,0m-32.17,3.17c-1.05-.38-2.05-.76-3.07-1.1-3.86-1.29-7.83-2.01-11.91-2.04-1.59-.01-3.11.27-4.51,1.07-3.12,1.79-4.79,4.48-4.82,8.07-.03,3.67,1.63,6.41,4.94,8.09,3.56,1.82,7.11,3.63,10.66,5.46,2.87,1.47,5.74,2.95,8.71,4.48V9.34Zm-25.66,40.26c2.39,1.18,4.66,2.28,6.92,3.43,3.12,1.59,6.47,2.08,9.9,2.01,4.31-.09,7.78-2.91,8.68-6.95.87-3.89-.33-8.05-4.62-10.23-.48-.24-.95-.51-1.43-.76-5.19-2.65-10.38-5.3-15.57-7.96-.81-.41-1.59-.86-2.63-1.43,0,.76,0,1.28,0,1.8,0,3.62-.04,7.24,0,10.86.04,3.04-.13,6.04-1.24,9.22"/>
</svg>