<?xml version="1.0" encoding="UTF-8"?>
<svg id="Layer_1" xmlns="http://www.w3.org/2000/svg" viewBox="0 0 205.87 57.85">
  <defs>
    <style>
      .cls-1 {
        fill: #fff;
      }
    </style>
  </defs>
  <path class="cls-1" d="M3.98,6.09h1.39c.72,0,1.35-.12,1.88-.36.53-.24.94-.59,1.23-1.03s.43-.97.43-1.58-.15-1.13-.43-1.59c-.29-.45-.7-.79-1.23-1.04-.53-.24-1.16-.36-1.88-.36H1.72v8.05h2.26v-2.1h0ZM3.98,1.95h1.26c.47,0,.81.11,1.05.31.24.21.35.5.35.88s-.12.66-.35.87c-.24.2-.59.31-1.05.31h-1.26V1.95h0ZM16.63,6.4v1.8h-6.06V.16h2.26v6.24h3.81,0ZM20.16,6.64h3.37l.63,1.56h2.35L22.98.16h-2.22l-3.52,8.05h2.3l.63-1.56h0ZM21.84,2.39l1.03,2.58h-2.05l1.03-2.58h0ZM29.02,1.96h-2.45V.16h7.15v1.8h-2.44v6.24h-2.26V1.96ZM35.12.16h6.26v1.76h-4v1.77h3.52v1.76h-3.52v2.75h-2.26V.16ZM49.24,7.82c.67-.36,1.2-.86,1.59-1.5.39-.64.58-1.35.58-2.15s-.19-1.52-.58-2.14c-.39-.64-.91-1.13-1.59-1.5-.67-.37-1.43-.54-2.27-.54s-1.6.18-2.27.54c-.67.36-1.2.86-1.59,1.5-.39.64-.58,1.35-.58,2.14s.19,1.52.58,2.15c.39.64.91,1.13,1.59,1.5.67.36,1.43.54,2.27.54s1.6-.18,2.27-.54ZM45.09,5.38c-.19-.35-.28-.75-.28-1.2s.09-.85.28-1.2c.19-.35.45-.62.78-.81.33-.2.69-.29,1.09-.29s.77.1,1.09.29c.33.2.59.46.78.81.19.35.28.75.28,1.2s-.09.85-.28,1.2c-.19.35-.45.62-.78.81-.33.2-.69.29-1.09.29s-.77-.11-1.09-.29c-.33-.2-.59-.46-.78-.81ZM55.4,6.06h1.23l1.44,2.14h2.42l-1.72-2.53c.5-.25.88-.58,1.16-1.01.27-.44.4-.94.4-1.53s-.15-1.13-.43-1.59c-.29-.44-.7-.79-1.23-1.03-.53-.25-1.16-.37-1.88-.37h-3.65v8.05h2.26v-2.13h0ZM55.4,1.95h1.26c.47,0,.81.11,1.05.31.24.21.35.5.35.88s-.12.66-.35.87c-.24.2-.59.31-1.05.31h-1.26V1.95h0ZM64.23,4.04v4.16h-2.08V.15h1.86l2.8,4.64,2.74-4.64h1.86l.02,8.05h-2.08l-.02-4.26-2.05,3.47h-1.01l-2.04-3.36h0ZM75.56,6.63h3.37l.63,1.56h2.35L78.38.15h-2.22l-3.52,8.05h2.3l.63-1.56h0ZM77.24,2.39l1.03,2.58h-2.05l1.03-2.58h0ZM154.45,19.05h-.01c1.38,2.24,2.03,4.73,2.08,7.3.13,6.21.1,12.44.14,18.66,0,.05-.02.09-.03.17h-5.56v-.57c0-4.8.01-9.61,0-14.41,0-1.92-.16-3.82-.64-5.7-.82-3.13-2.8-5.04-5.93-5.67-2.89-.6-5.79-.53-8.63.32-4.01,1.21-6.5,3.9-7.33,8.05-.23,1.16-.3,2.37-.31,3.55-.04,4.61-.01,9.22-.01,13.82v.6h-5.65v-.56c0-4.86,0-9.73,0-14.6,0-2.18-.16-4.34-.92-6.42-.97-2.68-2.92-4.23-5.63-4.77-2.75-.56-5.52-.51-8.26.23-4.07,1.1-6.68,3.67-7.63,7.82-.28,1.25-.39,2.55-.4,3.83-.04,4.64-.01,9.29-.01,13.93v.56h-5.58V14.76h5.56v5.48c.56-.6,1.03-1.16,1.54-1.68,2.11-2.11,4.66-3.46,7.54-4.19,2.67-.67,5.39-.85,8.13-.53,1.86.2,3.64.66,5.3,1.56,2.09,1.13,3.49,2.88,4.46,5.01.2.44.36.89.56,1.35.83-1.39,1.81-2.63,3-3.7,2.05-1.84,4.43-3.04,7.08-3.7,2.65-.65,5.32-.84,8.04-.51,1.56.19,3.08.53,4.53,1.16,1.96.85,3.45,2.23,4.57,4.05h0ZM205.27,25.39c-1.31-4.71-4.3-7.96-8.73-9.88-2.15-.93-4.39-1.44-6.71-1.67-3.31-.32-6.57-.11-9.78.82-3.34.96-6.23,2.66-8.46,5.38-.4.49-.75,1.01-1.22,1.63v-6.89h-5.24v43.07h5.27v-19.57c.14.2.21.3.28.41,1.14,1.71,2.55,3.14,4.26,4.26,2.61,1.73,5.5,2.68,8.59,3.07,3.24.42,6.45.32,9.62-.43,3.23-.77,6.14-2.19,8.49-4.61,2.23-2.29,3.53-5.04,4-8.22.37-2.48.31-4.95-.37-7.37h0ZM199.92,31.86c-.7,4.17-3.28,6.78-7.04,8.34-2.37.98-4.87,1.31-7.54,1.28-1.99.03-4.08-.2-6.12-.8-2.34-.68-4.47-1.77-6.15-3.57-1.58-1.68-2.46-3.71-2.63-6.02-.2-2.48.21-4.81,1.61-6.92,1.09-1.63,2.54-2.84,4.26-3.72,2.55-1.31,5.29-1.85,8.13-1.94,2.44-.08,4.86.05,7.21.79,3.01.95,5.55,2.55,7.13,5.4,1.24,2.24,1.56,4.65,1.15,7.15h0ZM85.22,22.61c-.77-2.87-2.38-5.1-4.96-6.57-2.21-1.26-4.64-1.77-7.13-2.07-3.58-.46-7.17-.33-10.72.08-3.01.35-5.98.94-8.96,1.5-1.5.28-2.96.73-4.48,1.11.31,1.68.61,3.32.91,4.98.13-.04.21-.05.28-.08,4.56-1.23,9.13-2.46,13.86-2.89,3.35-.3,6.71-.34,10.03.36,1.85.38,3.49,1.17,4.7,2.68,1.4,1.74,1.46,3.84,1.45,6-1.33-.32-2.58-.64-3.84-.92-3.26-.74-6.55-1.28-9.88-1.49-2.78-.17-5.56-.14-8.32.27-2.45.37-4.82.96-6.98,2.22-1.99,1.16-3.46,2.76-4.16,5.03-.51,1.69-.56,3.38-.27,5.11.44,2.7,1.83,4.76,4.17,6.16,2.14,1.28,4.49,1.77,6.93,2.01,3.58.35,7.12.13,10.63-.59,3.9-.79,7.61-2.18,11.19-3.91.15-.08.31-.14.54-.25v3.83h5.58c0-.17.02-.31.02-.45,0-5.77,0-11.54,0-17.31,0-1.63-.14-3.25-.56-4.83h-.02ZM80.19,34.7c0,.81,0,1.62,0,2.42,0,.26-.08.39-.32.5-3.76,1.67-7.59,3.13-11.63,3.98-3.06.64-6.14.85-9.24.43-1.38-.19-2.72-.54-3.93-1.28-1.64-.99-2.51-2.45-2.69-4.37-.11-1.28.02-2.5.67-3.64.78-1.35,2.05-2.04,3.46-2.49,2.48-.79,5.04-.92,7.62-.92,5.35,0,10.53,1.05,15.66,2.43.32.08.4.22.4.53-.01.81,0,1.62,0,2.42h0ZM34.74,34.71h0c1.7,0,3.39,0,5.24,0-.4,1.01-.69,1.98-1.16,2.88-1.44,2.72-3.65,4.64-6.35,6.03-2.83,1.44-5.84,2.21-8.99,2.5-3.51.32-7,.17-10.42-.71-3.65-.94-6.93-2.59-9.47-5.46-1.91-2.16-3.03-4.72-3.42-7.58-.36-2.61-.16-5.16.72-7.66.83-2.36,2.19-4.35,4.07-6,2.63-2.31,5.72-3.6,9.08-4.33,3.02-.66,6.08-.74,9.16-.51,3.21.25,6.3,1.01,9.19,2.46,2.79,1.41,5.05,3.4,6.51,6.21.44.85.7,1.78,1.08,2.75-1.84,0-3.54.02-5.24,0-.14,0-.35-.15-.4-.28-1.2-2.98-3.6-4.61-6.44-5.68-3.28-1.24-6.69-1.46-10.15-1.11-2.65.27-5.14.99-7.4,2.43-2.74,1.76-4.42,4.23-4.91,7.48-.34,2.29-.13,4.52.86,6.64,1.08,2.32,2.81,4,5.06,5.16,3.44,1.77,7.11,2.18,10.91,1.94,2.45-.17,4.79-.7,7.01-1.79,1.89-.92,3.5-2.18,4.57-4.05.18-.33.3-.71.49-1.04.08-.14.26-.29.4-.29h0Z"/>
</svg>