<?xml version="1.0" encoding="UTF-8"?>
<svg id="Layer_1" xmlns="http://www.w3.org/2000/svg" viewBox="0 0 265.73 94.9">
  <defs>
    <style>
      .cls-1 {
        fill: #fff;
        fill-rule: evenodd;
      }
    </style>
  </defs>
  <path id="path3433" class="cls-1" d="M116.32,16.1h5.59c2.04,0,3.06,1.01,3.06,3.28v8.05h10.95v-8.05c0-2.27,1.01-3.28,3.31-3.28h5.34v5.29h-2.28l-.26.26v22.65h-6.11v-11.33h-10.95v11.33h-6.11v-22.65s0-.26-.26-.26h-2.28v-5.29Z"/>
  <path class="cls-1" d="M163.58,15.89l-2.83-.27-.14-.02c-8.15,0-14.76,6.3-14.76,14.36s6.62,14.85,14.76,14.85l.14-.02,2.83-.29c6.72-1.36,11.79-7.29,11.79-14.54s-5.07-12.76-11.79-14.07ZM163.85,38.31l-3.11.67h0s-.14.03-.14.03c-4.58,0-8.15-4.02-8.15-9.06s3.57-8.57,8.15-8.57l.14.03,3.11.64c3,1.28,5.16,4.3,5.16,7.9s-2.16,6.98-5.16,8.35Z"/>
  <path class="cls-1" d="M195.73,29.45c1.27-1.27,2.54-3.03,2.54-5.79,0-4.54-3.31-7.56-8.91-7.56h-12.72v5.29h2.56v19.64c0,2.27,1.01,3.28,3.05,3.28h7.38c5.85,0,9.92-3.28,9.92-8.57,0-2.76-1.52-5.28-3.81-6.28ZM185.29,21.39h4.07c1.79,0,2.8,1.01,2.8,2.77s-1.01,3.02-2.8,3.02h-4.07v-5.79ZM189.87,38.77h-4.32q-.26,0-.26-.26v-6.3h4.58c2.04,0,3.32,1.27,3.32,3.28s-1.29,3.28-3.32,3.28Z"/>
  <path class="cls-1" d="M226.27,38.77q-.51,0-.75-.26l-8.15-22.41h-6.11l-8.15,22.41q-.25.26-.77.26h-1.27v5.53h3.83c2.04,0,3.05-.76,3.55-2.52l1.79-4.54h8.13l1.78,4.28c.52,2.01,1.53,2.77,3.57,2.77h3.57v-5.53h-1.03ZM214.31,31.97h-2.54l2.04-5.79c0-.76.26-1.51.51-2.01.26.5.52,1.25.52,2.01l2.02,5.79h-2.54Z"/>
  <path id="path3447" class="cls-1" d="M116.32,52.35h22.14c2.04,0,3.31,1.01,3.31,3.28v19.13q0,.24.26.24h2.04v5.55h-5.34c-2.3,0-3.31-1.01-3.31-3.28v-19.38s0-.26-.26-.26h-10.18v22.91h-6.11v-22.91h-2.54v-5.29Z"/>
  <path class="cls-1" d="M163.15,52.14l-2.92-.27-.12-.02c-8.15,0-14.52,6.3-14.52,14.36s6.37,14.85,14.52,14.85l.12-.02,2.92-.29c6.84-1.36,11.71-7.29,11.71-14.54s-4.87-12.76-11.71-14.07ZM163.46,74.57l-3.23.67-.12.03c-4.59,0-8.15-4.02-8.15-9.06s3.55-8.57,8.15-8.57l.12.03,3.23.64c3.05,1.28,5.05,4.3,5.05,7.9s-2.01,6.98-5.05,8.35Z"/>
  <path id="path3453" class="cls-1" d="M176.13,52.35h5.6c2.04,0,3.05,1.01,3.05,3.28v19.13q0,.24.26.24h7.38v-22.65h6.11v22.65h7.38q.26,0,.26-.24v-19.13c0-2.27,1.01-3.28,3.05-3.28h5.6v5.29h-2.3c-.26,0-.26.26-.26.26v19.38c0,2.27-1.01,3.28-3.05,3.28h-27.24c-2.28,0-3.31-1.01-3.31-3.28v-19.38s0-.26-.24-.26h-2.3v-5.29Z"/>
  <path id="path3455" class="cls-1" d="M219.65,52.35h19.09c2.3,0,3.06,1.01,3.06,3.02v4.79h-5.6v-2.26q0-.26-.26-.26h-3.55v22.91h-6.13v-22.91h-3.55q-.26,0-.26.26v2.26h-5.6v-4.79c0-2.01.77-3.02,2.8-3.02Z"/>
  <path id="path3457" class="cls-1" d="M249.7,52.35h3.05v8.06c-.26.5-.51,1.25-.51,2.01l-2.04,5.79h2.54v5.27h-4.07l-1.78,4.28c-.51,2.01-1.53,2.77-3.57,2.77h-3.81v-5.55h1.27q.52,0,.77-.24l8.15-22.41Z"/>
  <path id="path3459" class="cls-1" d="M252.74,52.35h3.05l8.16,22.41q.24.24.77.24h1.01v5.55h-3.57c-2.04,0-3.05-.76-3.57-2.77l-1.78-4.28h-4.07v-5.27h2.54l-2.04-5.79c0-.76-.24-1.51-.51-2.01,0,0,0-8.06,0-8.06Z"/>
  <path id="path3461" class="cls-1" d="M77.09,28.1c.29-.09.67.09,1.06.59l17.3,16.86c1.01,1.01,1.01,2.53,0,3.28l-17.3,17.12c-.38.5-.77.63-1.06.47s-.47-.59-.47-1.23V29.2c0-.63.18-1.01.47-1.1Z"/>
  <path id="path3463" class="cls-1" d="M47.49,0h1.23l1.18.49,17.81,17.62c.77,1.01.51,1.77-.77,1.77h-7.38c-1.27,0-2.28,1.01-2.28,2.27v13.08c0,1.27-1.03,2.27-2.56,2.27h-12.97c-1.27,0-2.3-1.01-2.3-2.27v-13.08c0-1.27-1.01-2.27-2.3-2.27h-7.89c-1.27,0-1.53-.76-.77-1.77L46.33.49s1.16-.49,1.16-.49Z"/>
  <path id="path3465" class="cls-1" d="M19.59,27.72c.32.15.52.59.52,1.23v36.74c0,.64-.2,1.02-.52,1.14-.31.12-.75,0-1.27-.38L.76,48.83c-1.01-.75-1.01-2.27,0-3.28l17.56-17.36c.52-.5.96-.63,1.27-.47Z"/>
  <path id="path3467" class="cls-1" d="M41.75,56.64h12.97c1.53,0,2.56,1.01,2.56,2.27v13.84c0,1.51,1.01,2.52,2.28,2.52h6.88c1.27,0,1.78.75.77,1.51l-17.3,17.36c-.52.5-1.15.76-1.79.76s-1.27-.26-1.78-.76l-17.3-17.36c-1.03-.76-.52-1.51.75-1.51h7.38c1.29,0,2.3-1.01,2.3-2.52v-13.84c0-1.27,1.03-2.27,2.3-2.27Z"/>
</svg>