<?xml version="1.0" encoding="UTF-8"?>
<svg id="Layer_1" xmlns="http://www.w3.org/2000/svg" viewBox="0 0 155.55 89.87">
  <defs>
    <style>
      .cls-1 {
        fill: #fff;
      }
    </style>
  </defs>
  <path class="cls-1" d="M129.87,0C128.25,0,126.13.98,125.56,3.41c-.77,3.28,1.41,5.46.83,7.94-.17.72-.5.84-.57,1.13-.06.26.54.49,1.09.49,3.83,0,7.42-4.08,7.27-8.67-.02-.72-.18-1.82-.93-2.71-.9-1.06-1.91-1.6-3.37-1.6h0ZM16.35,1.68s.67,2.84-.22,6.71L4.04,61.16c-2.97,12.96-4.04,14.32-4.04,14.32,0,0,6.93-1.1,16.87-1.1,11.95,0,19.89,1.43,25.66,1.43,2.76,0,5.69-.4,8.25-1.93,2.77-1.66,5.27-4.8,4.28-10.55-2.27,1.84-5.86,2.63-9.52,2.63-6.99,0-13.75-.94-20.74-.94-2.47,0-3.95.07-6.33.34L32.27,6.81c.68-2.9-.9-5.03-3.78-5.04l-12.15-.08ZM53.54,12.9c-9.59,0-18.18,9.96-21.41,24.09-1.05,4.6-1.51,11.85-.24,15.57,1.77,5.17,5.67,7.33,10.26,7.37,4.76.05,7.81-1.44,10.04-3.32,2.24-1.89,3.18-3.81,3.84-4.75.96,5.6,4.46,8.03,9.05,8.07,4.76.05,6.93-1.35,9.15-3.23,1.96-1.65,3.04-3.6,3.71-4.62,1.14,6.28,5.37,7.81,9.92,7.85,4.76.05,7.84-2.27,9.44-3.56,1.67-1.35,2.53-2.85,3.19-3.79l-2.25,9.55s-8.11,2.6-13.85,5.23c-7.39,3.38-14.44,7.72-15.65,12.87-.88,3.75.89,9.64,13.06,9.64,6.94,0,13.13-2.35,18.05-6.69,4.15-3.66,8.55-10.57,10.45-18.62l11.9-50.5h-10.28c-1.3,0-2.68.44-3.2,2.63l-5.56,23.61c-1.08,4.59-3.04,7.49-4.74,8.99-1.85,1.64-3.24,1.75-4.51,1.75-1.18,0-2.15-.34-2.81-1.3-.66-.96-.91-3-.43-5.03l7.22-30.66h-10.19c-1.3,0-2.79.44-3.31,2.63l-6.49,27.54c-.51,2.18-1.76,3.9-2.88,5.05-1.34,1.37-2.75,1.76-3.84,1.76-2.37,0-4.03-1.35-2.85-6.32l7.22-30.66h-9.15c-1.3,0-2.68.44-3.2,2.63l-.58,2.47s-.91-6.27-9.06-6.27h0ZM142.31,13c-10.65,0-15.8,5.99-16.81,10.3-.94,4.01-.59,5.99.29,8.53.87,2.54,2.32,3.84,4.42,6.45,1.18,1.46,9.35,7.85,8.47,11.57-.29,1.25-.6,1.88-1.79,2.65-.6.39-1.93.79-3.11.79-4.54,0-6.67-2.89-10.36-2.89-4.23,0-5.96,5.03-5.96,5.03,0,0,1.18,1.22,3.62,2.24,3.06,1.27,5.89,2.24,10.41,2.24,3.18,0,6.56-.21,10.48-2.15,1.7-.84,3.27-1.98,4.56-3.52,1.75-2.09,2.3-3.48,2.87-5.9,1.07-4.56-.57-9.56-6.4-14.72-4.54-4.01-7.62-7.33-6.83-10.68.56-2.36,2.67-3.35,4.32-3.35,3.59,0,5.47,2.15,8.59,2.15,4.45,0,5.98-3.38,6.49-5.52,0,0-1.26-.8-3.56-1.6-3.56-1.24-5.51-1.6-9.68-1.6ZM55.55,20.07c3.38,0,5.35,4,2.64,15.49-2.99,12.69-6.92,15.49-10.1,15.49-3.38,0-6.05-2.27-2.69-15.49,2.34-9.2,6.63-15.49,10.14-15.49h0ZM96.98,67.35l-.42,1.77c-.53,2.25-1.67,6.77-3.54,9.71-1.63,2.56-4.6,5.04-8.59,5.04-1.88,0-3.28-.53-4.13-1.37-.85-.84-1.07-2.3-.84-3.29.78-3.32,4.69-5.78,9.29-8.11,4.19-2.13,8.22-3.74,8.22-3.74Z"/>
</svg>