<?xml version="1.0" encoding="UTF-8"?>
<svg id="Layer_1" xmlns="http://www.w3.org/2000/svg" viewBox="0 0 248.09 74.93">
  <defs>
    <style>
      .cls-1 {
        fill: #fff;
      }
    </style>
  </defs>
  <g>
    <path class="cls-1" d="M108.63,16.81v1.26c0,5.47,0,10.94,0,16.41,0,.28,0,.56,0,.84,0,.51-.26.8-.76.81-1.09.02-2.17.02-3.26,0-.51,0-.75-.33-.78-.81-.02-.24,0-.49,0-.74,0-7.05,0-14.1,0-21.15,0-1.49.11-1.61,1.61-1.61,3.68,0,7.36,0,11.05,0,.11,0,.21,0,.32,0,1.19.04,1.32.16,1.32,1.35,0,7.22,0,14.45,0,21.67,0,.18,0,.35,0,.53-.02.45-.24.74-.71.75-1.12.01-2.24.01-3.37,0-.41,0-.64-.27-.7-.66-.04-.31-.03-.63-.03-.94,0-5.51,0-11.01,0-16.52v-1.2h-4.67Z"/>
    <path class="cls-1" d="M181.07,26.49h-4.96c-.02.39-.04.77-.05,1.14,0,2.31,0,4.63,0,6.94,0,.28,0,.56-.02.84-.03.45-.27.72-.73.73-1.09.01-2.17,0-3.26,0-.46,0-.72-.24-.75-.7-.02-.28-.02-.56-.02-.84,0-7.08,0-14.16,0-21.24,0-.21-.01-.42,0-.63.06-.66.18-.82.83-.83,1.05-.03,2.1,0,3.15,0,.51,0,.77.28.78.79,0,.25,0,.49,0,.74,0,2.31,0,4.63,0,6.94,0,.38.03.75.05,1.18h4.89c.02-.34.06-.67.06-1.01,0-2.35,0-4.7,0-7.05,0-.28,0-.56.01-.84.03-.44.26-.73.72-.74,1.12-.02,2.24-.01,3.36,0,.46,0,.7.27.71.73,0,.25,0,.49,0,.74,0,7.08,0,14.16,0,21.24,0,.07,0,.14,0,.21-.01,1.24-.08,1.32-1.31,1.32-.67,0-1.33,0-2,0-1.45,0-1.51-.06-1.51-1.57,0-2.31,0-4.63,0-6.94v-1.15Z"/>
    <path class="cls-1" d="M136.01,16.35c-.83,0-1.56-.04-2.28.01-.69.06-1.04.46-1.12,1.17-.04.38-.03.77-.03,1.16-.05,3.36-.06,6.73-.19,10.09-.05,1.24-.29,2.52-.67,3.7-.71,2.2-2.34,3.52-4.58,4.06-.86.21-1.1.07-1.46-.76-.22-.51-.44-1.03-.63-1.56-.26-.72-.19-.87.46-1.29.12-.08.24-.14.36-.21.83-.48,1.39-1.19,1.58-2.13.16-.82.33-1.66.34-2.49.04-3.51.02-7.01.04-10.52,0-.7.06-1.4.18-2.09.35-2.02,1.72-3.3,3.75-3.55.56-.07,1.12-.12,1.68-.12,1.93-.01,3.86,0,5.78,0,.31,0,.63.03.94.06.41.05.62.3.65.7.02.24.01.49.01.74,0,7.12,0,14.23,0,21.35,0,.21.01.42,0,.63-.06.59-.26.81-.87.82-1.02.03-2.03.03-3.05,0-.66-.02-.85-.24-.89-.91-.02-.24,0-.49,0-.74,0-5.64,0-11.29,0-16.93,0-.38,0-.75,0-1.2Z"/>
    <path class="cls-1" d="M242.59,32.44h-6.72c-.23.86-.47,1.73-.7,2.59-.28,1.05-.35,1.11-1.43,1.12-.77,0-1.54,0-2.31,0-1.1-.01-1.27-.25-.97-1.36.36-1.35.74-2.7,1.11-4.05,1.61-5.8,3.22-11.6,4.83-17.4.07-.24.14-.47.21-.7.13-.46.43-.73.91-.74,1.12-.02,2.24-.02,3.36,0,.52,0,.83.31.97.81.19.67.39,1.34.58,2.02,1.82,6.54,3.62,13.09,5.46,19.63.53,1.87.05,1.88-1.36,1.82-.74-.03-1.47-.01-2.21-.01-.53,0-.84-.25-.97-.77-.23-.95-.48-1.89-.75-2.93ZM237.09,27.49h4.24c-.71-2.92-1.41-5.76-2.11-8.64-.71,2.89-1.41,5.73-2.13,8.64Z"/>
    <path class="cls-1" d="M159.22,32.45h-6.74c-.24.91-.46,1.78-.7,2.66-.25.92-.37,1.03-1.29,1.04-.84.01-1.69-.04-2.52.02-.79.06-1.22-.3-.95-1.26.48-1.72.95-3.44,1.43-5.16,1.53-5.5,3.06-10.99,4.59-16.49.36-1.3.48-1.4,1.8-1.42.63-.01,1.26,0,1.89,0,1.41.01,1.54.1,1.91,1.43,1,3.57,1.99,7.15,2.98,10.73.95,3.44,1.9,6.88,2.85,10.33.03.1.07.2.1.3.36,1.34.21,1.53-1.19,1.53-.77,0-1.54.02-2.31,0-.77-.02-.88-.11-1.11-.85-.14-.47-.25-.95-.38-1.42-.11-.44-.23-.88-.37-1.42ZM153.73,27.49h4.24c-.71-2.91-1.41-5.74-2.12-8.64-.71,2.9-1.41,5.74-2.12,8.64Z"/>
    <path class="cls-1" d="M206.25,16.59c-1.26.29-2.48.11-3.7.14-1.22.03-2.45,0-3.66,0-.24.74-.29,3.67-.08,5.12.91,0,1.85,0,2.79,0,.74,0,1.47-.02,2.21,0,.68.02.89.19.92.88.04,1.05.04,2.1,0,3.15-.03.64-.21.78-.86.8-1.3.02-2.59,0-3.89.01-.38,0-.76,0-1.2,0v4.59c2.74.01,5.48.03,8.32.04.03.63.06,1.14.06,1.66,0,.77.02,1.54-.01,2.31-.03.64-.2.79-.83.84-.14.01-.28,0-.42,0-3.57,0-7.15,0-10.72,0-1.16,0-1.28-.12-1.28-1.25,0-7.26,0-14.51,0-21.77,0-1.11.15-1.28,1.27-1.29,3.33-.02,6.66-.02,9.99,0,1.06,0,1.2.16,1.2,1.25,0,1.15.1,2.3-.09,3.5Z"/>
    <path class="cls-1" d="M217.3,16.74c-1.03,0-1.93,0-2.83,0-.32,0-.63,0-.94-.03-.43-.06-.7-.31-.69-.78,0-1.09,0-2.17,0-3.26,0-.47.24-.72.68-.78.28-.04.56-.04.84-.04,3.61,0,7.23,0,10.84,0,.11,0,.21,0,.32,0,1.07.04,1.21.17,1.22,1.23,0,.84.01,1.68,0,2.53-.01.94-.18,1.12-1.09,1.14-.88.02-1.75,0-2.63,0-.2,0-.41.03-.74.05v1.16c0,5.51,0,11.02,0,16.52,0,.28.02.56-.01.84-.06.59-.27.81-.88.82-1.05.03-2.1.03-3.16,0-.62-.01-.82-.21-.89-.8-.04-.31-.02-.63-.02-.95,0-5.47,0-10.95,0-16.42v-1.23Z"/>
  </g>
  <g>
    <path class="cls-1" d="M148.19,60.05c.02-.41.05-.75.05-1.09,0-2.35,0-4.7,0-7.05,0-.28.01-.56.02-.84.01-.43.28-.67.66-.68,1.15-.03,2.31-.02,3.47,0,.35,0,.57.27.61.62.04.31.05.63.05.94,0,7.05,0,14.09,0,21.14,0,.21.01.42,0,.63-.07.73-.25.93-.97.95-.91.02-1.82.02-2.73,0-.93-.02-1.08-.17-1.09-1.13-.01-2.45,0-4.91,0-7.36,0-.34,0-.69,0-1.12-.86-.15-1.66-.06-2.45-.08-.8-.01-1.61,0-2.55,0-.01.38-.03.71-.03,1.05,0,2.45,0,4.91,0,7.36,0,1.13-.15,1.28-1.27,1.29-.84,0-1.68.02-2.52,0-.81-.02-.98-.2-1.02-.99,0-.17,0-.35,0-.53,0-7.08,0-14.16,0-21.24,0-.25,0-.49,0-.74,0-.52.29-.8.77-.81,1.05-.03,2.1-.04,3.15,0,.65.03.84.27.88.93.01.21,0,.42,0,.63,0,2.35,0,4.7,0,7.05,0,.34,0,.68,0,1.06h4.97Z"/>
    <path class="cls-1" d="M160.08,62.5c0-1.72-.06-3.44.02-5.15.04-.9.22-1.82.51-2.66.72-2.1,2.24-3.44,4.34-4.09,1.88-.58,3.8-.64,5.7-.07,2.99.9,4.65,2.99,5.18,6,.15.82.17,1.67.18,2.51.02,2.35.02,4.7-.03,7.04-.02.98-.08,1.97-.29,2.92-.77,3.54-3.22,5.63-6.84,5.89-1.41.1-2.81,0-4.14-.5-2.97-1.1-4.38-3.39-4.61-6.42-.14-1.81-.03-3.64-.03-5.46ZM164.91,62.45h-.02c0,.74,0,1.47,0,2.21,0,.95-.03,1.89.02,2.84.09,1.77,1.22,2.84,2.97,2.88,1.82.04,3-1,3.16-2.79.03-.38.04-.77.04-1.15,0-2.63,0-5.26,0-7.88,0-.42,0-.84-.06-1.26-.2-1.5-1.34-2.51-2.85-2.58-1.95-.08-3.21,1.05-3.26,3.01-.04,1.58,0,3.15,0,4.73Z"/>
    <path class="cls-1" d="M113.23,62.15c2.47.77,3.87,2.47,4.53,4.8.61,2.15,1.14,4.33,1.67,6.51.25,1.03.06,1.23-1.03,1.24-.7,0-1.4,0-2.1,0-1.29,0-1.38-.08-1.65-1.38-.37-1.71-.72-3.42-1.1-5.13-.5-2.25-2.21-3.51-4.53-3.31-.1,0-.19.07-.4.14,0,.35,0,.73,0,1.1,0,2.24,0,4.49,0,6.73,0,.18,0,.35-.01.53-.05,1.22-.14,1.3-1.35,1.31-.84,0-1.68.02-2.52,0-.7-.02-.85-.18-.91-.87-.02-.24,0-.49,0-.74,0-7.01,0-14.02,0-21.03,0-1.65,0-1.66,1.62-1.66.7,0,1.4-.02,2.1,0,.89.03,1.07.21,1.08,1.17.02,1.79,0,3.58,0,5.36,0,.84,0,1.68,0,2.5,1.96.59,3.24,0,3.82-1.87.57-1.84,1.04-3.71,1.56-5.56.09-.34.18-.68.29-1.01.12-.37.39-.59.78-.6,1.05-.02,2.1-.04,3.15,0,.61.02.8.31.66.91-.17.71-.41,1.41-.62,2.12-.35,1.21-.72,2.41-1.05,3.63-.6,2.25-1.54,4.23-3.98,5.11Z"/>
    <path class="cls-1" d="M130.6,62.5c0,3.54,0,7.08,0,10.62,0,.25,0,.49,0,.74,0,.51-.28.8-.77.81-1.09.02-2.17.02-3.26,0-.5,0-.76-.31-.77-.81,0-.25,0-.49,0-.74,0-7.08,0-14.16,0-21.24,0-.11,0-.21,0-.32.02-1,.18-1.19,1.14-1.21.84-.02,1.68-.02,2.52,0,.97.02,1.15.21,1.15,1.2,0,3.65,0,7.29,0,10.94Z"/>
  </g>
  <g>
    <path class="cls-1" d="M0,44.8C-.09,28.55,13.16,14.69,30.16,14.72c16.82.03,30.05,13.76,30.02,30.16-.03,16.55-13.59,30.33-30.64,30.04C13.03,74.63-.1,61.06,0,44.8Z"/>
    <path class="cls-1" d="M57.6,10.49C57.62,4.67,62.34-.02,68.15,0c5.65.02,10.5,4.48,10.48,10.55-.02,5.9-4.69,10.48-10.55,10.49-5.79.02-10.51-4.75-10.49-10.56Z"/>
  </g>
</svg>