<?xml version="1.0" encoding="UTF-8"?>
<svg id="Layer_1" xmlns="http://www.w3.org/2000/svg" viewBox="0 0 235.56 60.26">
  <defs>
    <style>
      .cls-1 {
        fill: #fff;
      }
    </style>
  </defs>
  <g id="layer1">
    <g id="g3846">
      <g id="g3863">
        <path id="path3064" class="cls-1" d="M68.7.26c-13.73.1-24.96,15.36-24.96,28.67,0,14.01,8.23,31.09,24.96,31.04,16.73-.06,25.41-18.45,25.41-31.04C94.11,15.03,82.43.16,68.7.26ZM68.7.78c11.49,0,14.59,12.69,14.59,28.14,0,20.39-3.74,30.45-14.59,30.43-10.85-.02-14.38-8.25-14.38-30.43,0-13.89,2.89-28.14,14.38-28.14Z"/>
        <path id="path3060" class="cls-1" d="M98.65,29.3c-.06-15.14,12.06-28.56,22.32-29.22,3.71-.26,8.47,1.43,11.25,2.64,2.02.88,6.14-.39,6.87-2.72h.4v20.63h-.4c0-.88-3.82-20.03-18.13-20.03-10.57,0-11.59,18.58-11.59,28.71s.31,30.17,12.64,30.17c5.97,0,10.39-2.61,11.54-7.9v-16.08h-5.01v-.68h19.43v.68h-4.79v23.5h-.39s-.78-3.39-4.73-3.38c-5.05.01-9.82,4.41-15.63,4.35-15.37-.14-23.72-15.53-23.78-30.67h0Z"/>
        <path id="path3058" class="cls-1" d="M6.05,2.29H0v-.68h21.2v.68h-5.32l15.15,41.13c4.74-14.58,8.41-25.36,13.34-41.13h-5.26v-.68h11.19v.68h-5.1l-18.41,57.39L6.05,2.29Z"/>
        <path id="path3054" class="cls-1" d="M150.94,45.63l-.1-43.4h-5.76v-.65h21.22v.65h-5.76l.13,47.59c1.27,5.45,3.54,9.58,11.28,9.65,7.74.06,13-4.58,14.96-10.92V2.23h-6.59v-.63h53.93l.11,20.84h-.52c-1-13.45-6.19-18.54-15.27-20.02-3.12-.51-6.4-.13-10.54-.16v26.59c3.61.28,7.45.05,10.04-2.17,2.35-2.02,3.02-6.7,3.19-8.59h.46v23.15h-.49c-.14,0-.33-5.81-3.16-8.57-2.84-2.77-6.46-3.46-10.04-2.8v28.41c5.05,0,9.08.43,12.58-.53,10.63-2.92,14.38-11.89,14.35-20.88h.59v22.09h-42.3v-.67h4.78V2.23h-10.33v46.31c-1.17,4.43-5.45,11.76-16.42,11.71-10.2-.05-20.32-4.65-20.34-14.62h0Z"/>
      </g>
    </g>
  </g>
</svg>