<?xml version="1.0" encoding="UTF-8"?>
<svg id="Layer_1" xmlns="http://www.w3.org/2000/svg" viewBox="0 0 186.93 53.38">
  <defs>
    <style>
      .cls-1 {
        fill: #fff;
      }
    </style>
  </defs>
  <path class="cls-1" d="M153.01,46.12V14.41h9.08l.36,7.76-2.39.66c.52-1.59,1.41-3.07,2.69-4.42,1.31-1.39,2.91-2.51,4.78-3.34,1.91-.88,4-1.31,6.27-1.31,2.87,0,5.26.56,7.17,1.67,1.95,1.11,3.42,2.69,4.42,4.72,1.04,1.99,1.55,4.3,1.55,6.93v19.05h-9.56v-17.5c0-1.39-.3-2.61-.9-3.64-.56-1.04-1.37-1.83-2.45-2.39-1.04-.56-2.25-.82-3.64-.78-1.19,0-2.27.22-3.23.66-.96.4-1.79.94-2.51,1.61-.68.68-1.19,1.41-1.55,2.21-.32.8-.48,1.59-.48,2.39v17.44h-9.62Z"/>
  <path class="cls-1" d="M137.26,46.12V14.41h9.62v31.72h-9.62ZM142.03,9.86c-1.79,0-3.19-.42-4.18-1.25-1-.88-1.49-2.11-1.49-3.7,0-1.43.5-2.61,1.49-3.52,1-.92,2.39-1.37,4.18-1.37s3.19.44,4.18,1.31c1.04.84,1.55,2.03,1.55,3.58s-.52,2.67-1.55,3.58c-1.03.92-2.43,1.37-4.18,1.37Z"/>
  <path class="cls-1" d="M109.93,46.66c-3.27,0-6.13-.7-8.6-2.09-2.47-1.43-4.4-3.38-5.79-5.85s-2.09-5.28-2.09-8.42.7-6.07,2.09-8.54c1.43-2.51,3.38-4.46,5.85-5.85,2.51-1.43,5.44-2.15,8.78-2.15,1.87,0,3.6.24,5.2.72,1.59.48,3.01,1.11,4.24,1.91,1.23.76,2.23,1.61,2.99,2.57.8.96,1.29,1.91,1.49,2.87l-2.21.12v-7.53h9.5v31.72h-9.68v-8.3l2.03.42c-.16,1.04-.64,2.05-1.43,3.05-.8,1-1.81,1.91-3.05,2.75-1.23.8-2.65,1.43-4.24,1.91-1.59.48-3.29.72-5.08.72ZM112.44,38.6c1.99,0,3.68-.34,5.08-1.02,1.43-.72,2.53-1.69,3.29-2.93.8-1.27,1.19-2.73,1.19-4.36s-.4-3.19-1.19-4.42c-.76-1.23-1.85-2.21-3.29-2.93-1.39-.72-3.09-1.08-5.08-1.08s-3.58.36-5.02,1.08c-1.39.72-2.49,1.69-3.29,2.93-.8,1.23-1.19,2.71-1.19,4.42s.4,3.09,1.19,4.36c.8,1.23,1.89,2.21,3.29,2.93,1.43.68,3.11,1.02,5.02,1.02Z"/>
  <path class="cls-1" d="M0,30.31c0-2.66,0-3.99.13-5.11C1.18,15.81,8.65,8.41,18.1,7.36c1.13-.12,2.47-.12,5.15-.12h12.39v46.15h-12.39c-2.68,0-4.02,0-5.15-.13C8.65,52.21,1.18,44.8.13,35.41c-.13-1.12-.13-2.45-.13-5.11Z"/>
  <path class="cls-1" d="M38.69,7.23h1.36c11.4,0,17.1,0,21.46,2.2,3.83,1.94,6.95,5.03,8.9,8.83,2.22,4.32,2.22,9.98,2.22,21.3v13.81h-33.93V7.23Z"/>
</svg>