<svg width="54" height="54" viewBox="0 0 54 54" fill="none" xmlns="http://www.w3.org/2000/svg">
<path d="M40.5039 22.502H34.1075C33.9907 21.6744 33.7522 20.9394 33.3919 20.2968C33.0317 19.6445 32.5693 19.0896 32.0046 18.632C31.4399 18.1744 30.7876 17.8239 30.0477 17.5805C29.3175 17.3371 28.524 17.2154 27.6673 17.2154C26.1193 17.2154 24.7709 17.6 23.6221 18.3691C22.4733 19.1285 21.5824 20.2384 20.9496 21.6988C20.3168 23.1494 20.0004 24.9116 20.0004 26.9853C20.0004 29.1174 20.3168 30.9088 20.9496 32.3594C21.5922 33.8101 22.4879 34.9053 23.6367 35.6453C24.7855 36.3852 26.1144 36.7551 27.6235 36.7551C28.4705 36.7551 29.2542 36.6432 29.9747 36.4193C30.7049 36.1953 31.3523 35.8692 31.917 35.4408C32.4816 35.0027 32.949 34.4721 33.3189 33.849C33.6986 33.2259 33.9615 32.5152 34.1075 31.7169L40.5039 31.7461C40.3384 33.1188 39.9246 34.4429 39.2626 35.7183C38.6103 36.9839 37.7292 38.1182 36.6193 39.1209C35.5192 40.114 34.2049 40.9026 32.6764 41.4867C31.1576 42.0612 29.4392 42.3484 27.5213 42.3484C24.8536 42.3484 22.4684 41.7447 20.3655 40.5375C18.2723 39.3303 16.6172 37.5827 15.4002 35.2948C14.193 33.0069 13.5893 30.237 13.5893 26.9853C13.5893 23.7238 14.2027 20.9491 15.4294 18.6612C16.6561 16.3733 18.3209 14.6306 20.4239 13.4331C22.5268 12.2258 24.8926 11.6222 27.5213 11.6222C29.2542 11.6222 30.8606 11.8656 32.3405 12.3524C33.83 12.8392 35.1492 13.5499 36.2981 14.4845C37.4469 15.4094 38.3815 16.5437 39.102 17.8872C39.8322 19.2307 40.2995 20.769 40.5039 22.502Z" fill="#D9D9D9"/>
<circle cx="27.1666" cy="26.6705" r="24.6744" stroke="#D9D9D9" stroke-width="4"/>
</svg>
