<svg width="325" height="322" viewBox="0 0 325 322" fill="none" xmlns="http://www.w3.org/2000/svg">
<path d="M215.004 20.0617L215.062 20.0871L215.123 20.105L250.921 30.6212C263.153 34.2144 273.328 42.7526 278.991 54.1746L295.563 87.6027L295.592 87.6595L295.627 87.7123L316.29 118.779C323.35 129.394 325.657 142.475 322.653 154.865L313.861 191.125L313.846 191.186L313.839 191.249L309.699 228.33C308.284 241 301.643 252.503 291.378 260.063L261.335 282.189L261.284 282.226L261.238 282.27L234.232 308.014C225.004 316.811 212.522 321.354 199.799 320.547L162.563 318.185L162.5 318.181L162.437 318.185L125.201 320.547C112.478 321.354 99.9957 316.811 90.768 308.014L63.7617 282.27L63.7158 282.226L63.6647 282.189L33.6222 260.063C23.3571 252.503 16.7156 241 15.301 228.33L11.1608 191.249L11.1538 191.186L11.1388 191.125L2.34706 154.865C-0.656978 142.475 1.6496 129.394 8.70998 118.779L29.3732 87.7123L29.4084 87.6595L29.4365 87.6027L46.0092 54.1746C51.6719 42.7526 61.8473 34.2144 74.0791 30.6212L109.877 20.105L109.938 20.0871L109.996 20.0617L144.179 5.10698C155.858 -0.00285721 169.142 -0.00285244 180.821 5.10698L215.004 20.0617Z" stroke="#51FF00" stroke-width="2"/>
</svg>
