<svg width="430" height="353" viewBox="0 0 430 353" fill="none" xmlns="http://www.w3.org/2000/svg">
<mask id="path-1-inside-1_4020_1356" fill="white">
<path fill-rule="evenodd" clip-rule="evenodd" d="M429.438 0H174.021V17.5568H174.008V331.701H174.021V352.013H429.438V311.351H429.42V52.2795H429.438V0ZM211.943 61.5126V288.606H307.941V237.838H380.169V177.605H413.99H414.066V119.308H337.779V61.5126H211.943Z"/>
</mask>
<path fill-rule="evenodd" clip-rule="evenodd" d="M429.438 0H174.021V17.5568H174.008V331.701H174.021V352.013H429.438V311.351H429.42V52.2795H429.438V0ZM211.943 61.5126V288.606H307.941V237.838H380.169V177.605H413.99H414.066V119.308H337.779V61.5126H211.943Z" fill="#51FF00" fill-opacity="0.63"/>
<path d="M174.021 0V-3H171.021V0H174.021ZM429.438 0H432.438V-3H429.438V0ZM174.021 17.5568V20.5568H177.021V17.5568H174.021ZM174.008 17.5568V14.5568H171.008V17.5568H174.008ZM174.008 331.701H171.008V334.701H174.008V331.701ZM174.021 331.701H177.021V328.701H174.021V331.701ZM174.021 352.013H171.021V355.013H174.021V352.013ZM429.438 352.013V355.013H432.438V352.013H429.438ZM429.438 311.351H432.438V308.351H429.438V311.351ZM429.42 311.351H426.42V314.351H429.42V311.351ZM429.42 52.2795V49.2795H426.42V52.2795H429.42ZM429.438 52.2795V55.2795H432.438V52.2795H429.438ZM211.943 288.606H208.943V291.606H211.943V288.606ZM211.943 61.5126V58.5126H208.943V61.5126H211.943ZM307.941 288.606V291.606H310.941V288.606H307.941ZM307.941 237.838V234.838H304.941V237.838H307.941ZM380.169 237.838V240.838H383.169V237.838H380.169ZM380.169 177.605V174.605H377.169V177.605H380.169ZM414.066 177.605V180.605H417.066V177.605H414.066ZM414.066 119.308H417.066V116.308H414.066V119.308ZM337.779 119.308H334.779V122.308H337.779V119.308ZM337.779 61.5126H340.779V58.5126H337.779V61.5126ZM174.021 3H429.438V-3H174.021V3ZM177.021 17.5568V0H171.021V17.5568H177.021ZM174.008 20.5568H174.021V14.5568H174.008V20.5568ZM177.008 331.701V17.5568H171.008V331.701H177.008ZM174.021 328.701H174.008V334.701H174.021V328.701ZM177.021 352.013V331.701H171.021V352.013H177.021ZM429.438 349.013H174.021V355.013H429.438V349.013ZM426.438 311.351V352.013H432.438V311.351H426.438ZM429.42 314.351H429.438V308.351H429.42V314.351ZM426.42 52.2795V311.351H432.42V52.2795H426.42ZM429.438 49.2795H429.42V55.2795H429.438V49.2795ZM426.438 0V52.2795H432.438V0H426.438ZM214.943 288.606V61.5126H208.943V288.606H214.943ZM307.941 285.606H211.943V291.606H307.941V285.606ZM304.941 237.838V288.606H310.941V237.838H304.941ZM380.169 234.838H307.941V240.838H380.169V234.838ZM377.169 177.605V237.838H383.169V177.605H377.169ZM413.99 174.605H380.169V180.605H413.99V174.605ZM414.066 174.605H413.99V180.605H414.066V174.605ZM411.066 119.308V177.605H417.066V119.308H411.066ZM337.779 122.308H414.066V116.308H337.779V122.308ZM334.779 61.5126V119.308H340.779V61.5126H334.779ZM211.943 64.5126H337.779V58.5126H211.943V64.5126Z" fill="#51FF00" mask="url(#path-1-inside-1_4020_1356)"/>
<rect x="175.157" y="1.1762" width="253.103" height="349.702" stroke="#51FF00" stroke-width="2.31334"/>
<path d="M348.421 195.452H344.001C343.92 194.88 343.755 194.372 343.507 193.928C343.258 193.478 342.938 193.094 342.548 192.778C342.158 192.462 341.707 192.22 341.196 192.051C340.691 191.883 340.143 191.799 339.551 191.799C338.481 191.799 337.55 192.065 336.756 192.596C335.962 193.121 335.347 193.888 334.909 194.897C334.472 195.899 334.253 197.117 334.253 198.55C334.253 200.023 334.472 201.261 334.909 202.263C335.353 203.266 335.972 204.022 336.766 204.534C337.56 205.045 338.478 205.301 339.521 205.301C340.106 205.301 340.648 205.223 341.145 205.069C341.65 204.914 342.097 204.688 342.487 204.392C342.878 204.09 343.201 203.723 343.456 203.293C343.718 202.862 343.9 202.371 344.001 201.819L348.421 201.839C348.306 202.788 348.021 203.703 347.563 204.584C347.112 205.459 346.504 206.242 345.737 206.935C344.976 207.621 344.068 208.166 343.012 208.57C341.963 208.967 340.775 209.165 339.45 209.165C337.607 209.165 335.959 208.748 334.506 207.914C333.059 207.08 331.916 205.872 331.075 204.292C330.241 202.711 329.824 200.797 329.824 198.55C329.824 196.296 330.247 194.379 331.095 192.798C331.943 191.217 333.093 190.013 334.546 189.186C335.999 188.351 337.634 187.934 339.45 187.934C340.648 187.934 341.758 188.103 342.78 188.439C343.809 188.775 344.721 189.266 345.515 189.912C346.308 190.551 346.954 191.335 347.452 192.263C347.957 193.192 348.28 194.255 348.421 195.452Z" fill="#D9D9D9"/>
<ellipse cx="339.193" cy="198.986" rx="17.045" ry="17.0564" stroke="#D9D9D9" stroke-width="4"/>
<path d="M5.75284 159V106.636H13.6534V131.642H14.2926L36.2557 106.636H46.2017L25.0824 130.21L46.2784 159H36.767L19.8409 135.605L13.6534 142.713V159H5.75284ZM57.9886 159H49.6023L68.446 106.636H77.5739L96.4176 159H88.0312L73.2273 116.148H72.8182L57.9886 159ZM59.3949 138.494H86.5994V145.142H59.3949V138.494ZM103.979 106.636H113.567L130.238 147.341H130.852L147.522 106.636H157.11V159H149.593V121.108H149.107L133.664 158.923H127.425L111.982 121.082H111.496V159H103.979V106.636ZM173.02 159H164.634L183.477 106.636H192.605L211.449 159H203.062L188.259 116.148H187.849L173.02 159ZM174.426 138.494H201.631V145.142H174.426V138.494ZM34.3125 178.392C34.0398 175.972 32.9148 174.097 30.9375 172.767C28.9602 171.42 26.4716 170.747 23.4716 170.747C21.3239 170.747 19.4659 171.088 17.8977 171.77C16.3295 172.435 15.1108 173.355 14.2415 174.531C13.3892 175.69 12.9631 177.011 12.9631 178.494C12.9631 179.739 13.2528 180.812 13.8324 181.716C14.429 182.619 15.2045 183.378 16.1591 183.991C17.1307 184.588 18.1705 185.091 19.2784 185.5C20.3864 185.892 21.4517 186.216 22.4744 186.472L27.5881 187.801C29.2585 188.21 30.9716 188.764 32.7273 189.463C34.483 190.162 36.1108 191.082 37.6108 192.224C39.1108 193.366 40.321 194.781 41.2415 196.469C42.179 198.156 42.6477 200.176 42.6477 202.528C42.6477 205.494 41.8807 208.128 40.3466 210.429C38.8295 212.73 36.6222 214.545 33.7244 215.875C30.8438 217.205 27.358 217.869 23.267 217.869C19.3466 217.869 15.9545 217.247 13.0909 216.003C10.2273 214.759 7.9858 212.994 6.36648 210.71C4.74716 208.409 3.85227 205.682 3.68182 202.528H11.608C11.7614 204.42 12.375 205.997 13.4489 207.259C14.5398 208.503 15.929 209.432 17.6165 210.045C19.321 210.642 21.1875 210.94 23.2159 210.94C25.4489 210.94 27.4347 210.591 29.1733 209.892C30.929 209.176 32.3097 208.187 33.3153 206.926C34.321 205.648 34.8239 204.156 34.8239 202.452C34.8239 200.901 34.3807 199.631 33.4943 198.642C32.625 197.653 31.4403 196.835 29.9403 196.188C28.4574 195.54 26.7784 194.969 24.9034 194.474L18.7159 192.787C14.5227 191.645 11.1989 189.966 8.74432 187.75C6.30682 185.534 5.08807 182.602 5.08807 178.955C5.08807 175.937 5.90625 173.304 7.54261 171.054C9.17898 168.804 11.3949 167.057 14.1903 165.812C16.9858 164.551 20.1392 163.92 23.6506 163.92C27.196 163.92 30.3239 164.543 33.0341 165.787C35.7614 167.031 37.9091 168.744 39.4773 170.926C41.0455 173.091 41.8636 175.58 41.9318 178.392H34.3125ZM49.5064 171.438V164.636H90.032V171.438H73.6939V217H65.8189V171.438H49.5064ZM132.661 164.636H140.587V199.077C140.587 202.741 139.726 205.989 138.004 208.818C136.283 211.631 133.862 213.847 130.743 215.466C127.624 217.068 123.967 217.869 119.774 217.869C115.598 217.869 111.95 217.068 108.831 215.466C105.712 213.847 103.291 211.631 101.57 208.818C99.848 205.989 98.9872 202.741 98.9872 199.077V164.636H106.888V198.438C106.888 200.807 107.408 202.912 108.447 204.753C109.504 206.594 110.996 208.043 112.922 209.099C114.848 210.139 117.132 210.659 119.774 210.659C122.433 210.659 124.726 210.139 126.652 209.099C128.595 208.043 130.078 206.594 131.101 204.753C132.141 202.912 132.661 200.807 132.661 198.438V164.636ZM169.025 217H152.073V164.636H169.562C174.692 164.636 179.099 165.685 182.781 167.781C186.462 169.861 189.283 172.852 191.244 176.756C193.221 180.642 194.21 185.304 194.21 190.741C194.21 196.196 193.212 200.884 191.218 204.804C189.241 208.724 186.377 211.741 182.627 213.855C178.877 215.952 174.343 217 169.025 217ZM159.974 210.097H168.59C172.579 210.097 175.894 209.347 178.536 207.847C181.178 206.33 183.156 204.139 184.468 201.276C185.781 198.395 186.437 194.884 186.437 190.741C186.437 186.634 185.781 183.148 184.468 180.284C183.173 177.42 181.238 175.247 178.664 173.764C176.09 172.281 172.894 171.54 169.076 171.54H159.974V210.097ZM211.935 164.636V217H204.034V164.636H211.935ZM268.926 190.818C268.926 196.409 267.903 201.216 265.858 205.239C263.813 209.244 261.009 212.33 257.446 214.494C253.901 216.642 249.869 217.716 245.352 217.716C240.818 217.716 236.77 216.642 233.207 214.494C229.662 212.33 226.866 209.236 224.821 205.213C222.776 201.19 221.753 196.392 221.753 190.818C221.753 185.227 222.776 180.429 224.821 176.423C226.866 172.401 229.662 169.315 233.207 167.168C236.77 165.003 240.818 163.92 245.352 163.92C249.869 163.92 253.901 165.003 257.446 167.168C261.009 169.315 263.813 172.401 265.858 176.423C267.903 180.429 268.926 185.227 268.926 190.818ZM261.102 190.818C261.102 186.557 260.412 182.969 259.031 180.054C257.668 177.122 255.793 174.906 253.406 173.406C251.037 171.889 248.352 171.131 245.352 171.131C242.335 171.131 239.642 171.889 237.273 173.406C234.903 174.906 233.028 177.122 231.648 180.054C230.284 182.969 229.602 186.557 229.602 190.818C229.602 195.08 230.284 198.676 231.648 201.608C233.028 204.523 234.903 206.739 237.273 208.256C239.642 209.756 242.335 210.506 245.352 210.506C248.352 210.506 251.037 209.756 253.406 208.256C255.793 206.739 257.668 204.523 259.031 201.608C260.412 198.676 261.102 195.08 261.102 190.818ZM307.336 178.392C307.063 175.972 305.938 174.097 303.961 172.767C301.984 171.42 299.495 170.747 296.495 170.747C294.347 170.747 292.489 171.088 290.921 171.77C289.353 172.435 288.134 173.355 287.265 174.531C286.413 175.69 285.987 177.011 285.987 178.494C285.987 179.739 286.276 180.812 286.856 181.716C287.452 182.619 288.228 183.378 289.183 183.991C290.154 184.588 291.194 185.091 292.302 185.5C293.41 185.892 294.475 186.216 295.498 186.472L300.612 187.801C302.282 188.21 303.995 188.764 305.751 189.463C307.506 190.162 309.134 191.082 310.634 192.224C312.134 193.366 313.344 194.781 314.265 196.469C315.202 198.156 315.671 200.176 315.671 202.528C315.671 205.494 314.904 208.128 313.37 210.429C311.853 212.73 309.646 214.545 306.748 215.875C303.867 217.205 300.381 217.869 296.29 217.869C292.37 217.869 288.978 217.247 286.114 216.003C283.251 214.759 281.009 212.994 279.39 210.71C277.771 208.409 276.876 205.682 276.705 202.528H284.631C284.785 204.42 285.398 205.997 286.472 207.259C287.563 208.503 288.952 209.432 290.64 210.045C292.344 210.642 294.211 210.94 296.239 210.94C298.472 210.94 300.458 210.591 302.197 209.892C303.952 209.176 305.333 208.187 306.339 206.926C307.344 205.648 307.847 204.156 307.847 202.452C307.847 200.901 307.404 199.631 306.518 198.642C305.648 197.653 304.464 196.835 302.964 196.188C301.481 195.54 299.802 194.969 297.927 194.474L291.739 192.787C287.546 191.645 284.222 189.966 281.768 187.75C279.33 185.534 278.112 182.602 278.112 178.955C278.112 175.937 278.93 173.304 280.566 171.054C282.202 168.804 284.418 167.057 287.214 165.812C290.009 164.551 293.163 163.92 296.674 163.92C300.219 163.92 303.347 164.543 306.058 165.787C308.785 167.031 310.933 168.744 312.501 170.926C314.069 173.091 314.887 175.58 314.955 178.392H307.336Z" fill="#D9D9D9"/>
</svg>
