<?xml version="1.0" encoding="UTF-8"?>
<svg id="Layer_1" data-name="Layer 1" xmlns="http://www.w3.org/2000/svg" viewBox="0 0 294.36 63.78">
  <defs>
    <style>
      .cls-1 {
        fill: #fff;
      }
    </style>
  </defs>
  <polygon class="cls-1" points="0 24.56 0 30.45 8.97 30.45 8.97 63.46 15.3 63.46 15.3 30.45 24.27 30.45 24.27 24.56 0 24.56"/>
  <path class="cls-1" d="m23.43,49.56c0-3.74,1.51-7.33,4.2-9.98,2.69-2.65,6.34-4.13,10.14-4.13s7.45,1.48,10.14,4.13c2.69,2.65,4.2,6.23,4.2,9.98,0,.71-.06,1.41-.17,2.11h-21.95c.37,1.8,1.37,3.42,2.82,4.57,1.45,1.16,3.27,1.78,5.13,1.76,2.88,0,5.2-.89,6.38-2.69h7.41c-1.92,5.05-7.41,8.44-13.77,8.44-1.91.02-3.8-.33-5.56-1.03-1.77-.7-3.37-1.75-4.72-3.07-1.35-1.32-2.42-2.9-3.15-4.63-.73-1.73-1.1-3.59-1.08-5.47m21.9-3.11c-.85-3.22-3.9-5.44-7.56-5.44s-6.72,2.22-7.56,5.43h15.13Z"/>
  <path class="cls-1" d="m56.62,49.56c0-8.16,6.15-14.2,14.43-14.2,1.92-.04,3.84.31,5.62,1.04,1.78.73,3.38,1.81,4.71,3.18l-4.55,4.04c-.72-.8-1.61-1.44-2.6-1.87-.99-.43-2.07-.65-3.16-.63-4.86,0-8.13,3.45-8.13,8.44s3.27,8.44,8.13,8.44,8.19-3.46,8.19-8.44h6.21c0,8.11-6.21,14.2-14.39,14.2-8.29.02-14.46-6.04-14.46-14.2"/>
  <path class="cls-1" d="m91.41,24.56l6.21-.67v14.94c1.69-1.99,4.4-3.5,8.07-3.5,6.71,0,10.84,4.05,10.84,11.44v16.66h-6.2v-15.33c0-4.33-1.86-7-6.15-7-4.01,0-6.54,2.94-6.54,7v15.33h-6.21V24.56Z"/>
  <path class="cls-1" d="m121.99,51.28h6.32c0,3.61,2.37,6.61,6.38,6.61s6.38-2.72,6.38-6.61c0-5.72-5.19-5.83-10.73-7.94-3.61-1.39-6.2-4.5-6.2-8.89,0-6,4.51-10.22,10.38-10.22,4.91,0,8.07,2.33,9.93,5.78l-4.8,3.39c-.96-2.11-2.77-3.28-4.96-3.28-2.6,0-4.35,1.72-4.35,4,0,3.72,3.78,4.06,8.97,6,4.91,1.83,8.07,5.05,8.07,11,0,7.22-5.59,12.67-12.7,12.67-1.67.02-3.33-.3-4.88-.92-1.55-.62-2.95-1.54-4.14-2.71-1.18-1.16-2.12-2.55-2.75-4.07-.63-1.52-.95-3.16-.93-4.8"/>
  <polygon class="cls-1" points="155.16 41.45 149.46 41.45 149.46 35.67 155.16 35.67 155.16 24.56 161.36 23.9 161.36 35.67 169.83 35.67 169.83 41.45 161.36 41.45 161.36 63.44 155.16 63.44 155.16 41.45"/>
  <path class="cls-1" d="m171.28,49.56c0-8.33,6.1-14.2,14.17-14.2,3.73,0,6.89,1.72,8.07,3.22v-2.9h6.32v27.77h-6.32v-2.88c-1.17,1.5-4.29,3.22-8.07,3.22-8.07,0-14.17-5.89-14.17-14.22m22.46,0c0-5.11-3.51-8.33-8.07-8.33s-8.3,3.22-8.3,8.33,3.61,8.33,8.3,8.33,8.07-3.22,8.07-8.33"/>
  <polygon class="cls-1" points="210.66 41.45 204.96 41.45 204.96 35.67 210.66 35.67 210.66 24.56 216.85 23.9 216.85 35.67 225.32 35.67 225.32 41.45 216.85 41.45 216.85 63.44 210.66 63.44 210.66 41.45"/>
  <path class="cls-1" d="m226.81,49.56c-.03-1.87.32-3.73,1.02-5.47.71-1.74,1.76-3.32,3.09-4.66s2.93-2.4,4.68-3.12c1.75-.72,3.64-1.1,5.54-1.1s3.79.37,5.54,1.1c1.75.72,3.35,1.78,4.68,3.12,1.33,1.33,2.39,2.92,3.09,4.66.71,1.74,1.05,3.6,1.02,5.47,0,.71-.05,1.41-.17,2.11h-21.96c.37,1.8,1.37,3.42,2.82,4.57,1.45,1.15,3.27,1.78,5.14,1.76,2.88,0,5.19-.89,6.38-2.69h7.41c-1.92,5.05-7.41,8.44-13.77,8.44-1.91.02-3.8-.33-5.56-1.03-1.77-.7-3.37-1.75-4.72-3.07-1.35-1.32-2.42-2.9-3.15-4.63-.73-1.73-1.09-3.59-1.08-5.47m21.9-3.11c-.85-3.22-3.9-5.44-7.57-5.44s-6.72,2.22-7.56,5.43h15.13Z"/>
  <path class="cls-1" d="m258.55,59.61c0-.81.26-1.6.73-2.27.47-.67,1.12-1.19,1.89-1.49.77-.3,1.6-.38,2.41-.21.81.16,1.55.56,2.12,1.14.58.58.97,1.31,1.13,2.11.16.79.07,1.62-.25,2.37-.32.75-.85,1.39-1.54,1.84-.69.45-1.49.69-2.32.69-1.11-.01-2.18-.45-2.96-1.23-.78-.78-1.22-1.83-1.22-2.93"/>
  <polygon class="cls-1" points="282.87 32.78 266.6 39.58 264.18 50.52 262.07 50.52 262.07 16.89 282.87 8.2 282.87 32.78"/>
  <polygon class="cls-1" points="282.87 4.78 294.36 0 294.36 24.56 282.87 29.36 282.87 4.78"/>
</svg>