<?xml version="1.0" encoding="UTF-8"?>
<svg id="Layer_1" xmlns="http://www.w3.org/2000/svg" viewBox="0 0 216.76 117.91">
  <defs>
    <style>
      .cls-1 {
        fill: #fff;
      }
    </style>
  </defs>
  <path class="cls-1" d="M65.94,56.45s-9.59-.31-13.46-8.98c0,0-8.98,10.06-22.91,13.62l.93,2.48v32.04l-2.63,2.63s-10.58-6.81-11.45-17.02c-.8-9.3.6-16.29,10.97-25.27,0,0,3.42-3.05,8.68-4.91v-1.08C19.36,49.95,0,65.11,0,82.76s13.28,27.86,30.81,27.86c0,0,11.14.1,19.4-4.44v4.36c.02.35-.67.28-.67.28-2.39,0-4.32,1.59-4.32,3.55s1.94,3.54,4.32,3.54,4.33-1.59,4.33-3.54v-9.87s2.33-1.78,3.1-2.4c.77-.62.15-1.86-.77-1.55-.93.31-2.32.93-2.32.93v-41.01s8.05.77,12.07-4.02M50.15,102.41c-13.93,1.55-17.64-1.55-17.64-1.55l11.45-9.75v-33.43c0-1.55,6.19,2.32,6.19,2.32v42.41h0Z"/>
  <path class="cls-1" d="M157.46,22.27c-.69-.2-1.18-.2-1.58.1-1.67,1.28-3.15,2.07-4.33,2.17-1.18.1-2.07.49-2.66,1.28l-1.18,1.08c-.1.2-.59.5-2.17.69-.29.2-1.18.69-.79,1.18.49.69.98,1.48,1.38,2.27.39,1.68.1,3.45-1.48,5.13-.59.69-1.38.88-2.36.79-.49-.1-1.09-.39-1.09-.99.1-.59.3-1.08.89-1.48.99-1.28.99-2.37-.1-3.35-.79-.4-1.58-.4-2.36,0-1.58.69-1.77,2.07-.79,3.35,0,.4-.1.89-.3,1.48-.39.79-1.08.99-1.97.89-1.47-.79-2.17-2.17-1.97-4.53.69-1.08,1.48-2.07,2.26-2.86-.88-1.58-2.16-2.76-3.74-3.55-1.58.79-2.86,1.97-3.74,3.55.79.88,1.48,1.78,1.87,2.86.2,1.38.1,2.76-.99,4.04-.98.69-1.97,1.08-2.96.49-.69-.69-.69-1.48-.29-2.36.69-1.08.59-2.17-.4-3.06-.79-.59-1.77-.49-2.46,0-.98.79-.88,1.78-.1,3.06.1.49,0,.98-.1,1.28-.79,1.67-1.97,1.48-3.35.88-2.46-2.36-2.36-4.83.49-7.19.59-.79.3-1.68-.79-1.87-2.07-.59-3.84-1.48-5.03-3.15-1.18-2.47-2.76-2.47-3.94,0-1.18,1.58-3.05,2.56-5.02,3.15-1.08.2-1.38,1.08-.89,1.77,2.96,2.47,2.96,4.83.59,7.29-1.38.59-2.56.69-3.35-.88-.2-.39-.2-.79-.1-1.38.79-1.18.88-2.27-.1-2.96-.79-.49-1.68-.59-2.56,0-.98.79-.98,1.97-.3,3.06.3.79.3,1.58-.29,2.27-1.09.59-1.97.29-2.96-.39-1.08-1.38-1.18-2.66-.98-4.04.39-1.18,1.08-2.07,1.77-2.96-.79-1.48-2.07-2.66-3.75-3.55-1.48.89-2.76,2.07-3.75,3.55.89.89,1.68,1.78,2.27,2.96.3,2.27-.39,3.75-1.87,4.43-.99.2-1.67,0-2.07-.89-.1-.49-.2-.98-.2-1.38.98-1.28.69-2.66-.79-3.35-.79-.4-1.58-.4-2.46,0-.99.99-1.09,2.07-.1,3.35.59.4.88.89.88,1.38.1.69-.49.99-1.08,1.09-.99.1-1.67-.2-2.26-.79-1.68-1.68-1.97-3.45-1.58-5.22.39-.79.89-1.48,1.48-2.17.39-.49-.49-1.09-.89-1.18-1.58-.3-2.07-.49-2.07-.69l-1.18-1.18c-.69-.69-1.58-1.08-2.66-1.18-1.18-.1-2.76-.89-4.44-2.17-.39-.3-.89-.3-1.48-.1-.5.49-.59.99-.4,1.48,6.11,5.42,8.18,11.73,8.67,14.98h71.75c.49-3.25,2.56-9.56,8.58-14.88.29-.59.2-1.08-.3-1.58"/>
  <path class="cls-1" d="M74.28,21.29c1.87.49,3.75,1.09,5.32,2.07,1.09.29,2.17,0,3.15-.59,4.34-3.45,9.26-6.31,15.08-8.08.89-.3,1.38,0,1.08.89-2.27,1.77-3.94,4.04-4.93,7,0,.89.59,1.28,1.87,1.18.99-.3,1.78-.2,2.37.2.89.2,1.58-.1,2.17-1.48.59-3.84,2.96-6.51,6.41-8.38,1.57-.19,2.26.49,2.07,1.97-1.28,1.38-2.27,2.85-2.66,4.43.1,1.48.88,1.97,2.17,1.58.79,0,1.38-.69,1.87-1.97,1.28-2.37,4.63-2.37,5.91,0,.49,1.28,1.08,1.97,1.77,1.97,1.38.4,2.17-.1,2.27-1.58-.39-1.58-1.38-3.06-2.66-4.43-.2-1.48.49-2.17,2.07-1.97,3.45,1.87,5.82,4.54,6.41,8.38.49,1.38,1.28,1.67,2.07,1.48.69-.4,1.48-.5,2.46-.2,1.28.1,1.87-.3,1.87-1.18-.98-2.96-2.66-5.22-4.93-7-.3-.89.2-1.18,1.08-.89,5.81,1.77,10.74,4.63,15.08,8.08.98.59,2.07.89,3.15.59,1.58-.99,3.35-1.58,5.32-2.07,1.19-.2,1.58-1.08,1.28-2.46-.89-1.28-2.17-2.07-3.94-2.27-.69.1-1.28-.1-1.77-.59-1.08-1.87-3.06-2.57-5.72-2.17-1.28-1.48-3.06-1.77-4.93-1.68-1.68-1.78-3.55-1.97-5.52-1.58-2.17-1.38-4.14-1.87-5.81-.99-2.76-1.08-5.13-.69-7.1.59-.69-1.48-1.67-2.56-3.25-3.16v-1.77h2.56v-2.56h-2.56V0h-4.34v2.66h-2.56v2.56h2.56v1.77c-1.58.59-2.66,1.68-3.26,3.16-2.07-1.28-4.33-1.68-7.09-.59-1.77-.88-3.75-.39-5.81.99-1.97-.39-3.84-.2-5.52,1.58-1.97-.1-3.65.2-4.93,1.68-2.66-.4-4.63.29-5.72,2.17-.49.49-1.08.69-1.77.59-1.77.2-3.06.99-3.94,2.27-.29,1.38.1,2.27,1.28,2.46M113.31,8.38c1.38,0,2.46,1.38,2.46,3.15s-1.08,3.25-2.46,3.25-2.56-1.48-2.56-3.25,1.18-3.15,2.56-3.15"/>
  <path class="cls-1" d="M77.43,50.36h71.75v-6.7h-71.75v6.7ZM141.1,45.14c1.08,0,1.97.89,1.97,1.97s-.89,1.97-1.97,1.97-1.97-.89-1.97-1.97c0-1.08.89-1.97,1.97-1.97M127.4,45.14c1.08,0,1.97.89,1.97,1.97s-.89,1.97-1.97,1.97-1.97-.89-1.97-1.97c0-1.08.89-1.97,1.97-1.97M113.31,45.14c1.08,0,1.97.89,1.97,1.97s-.89,1.97-1.97,1.97-1.97-.89-1.97-1.97c0-1.08.89-1.97,1.97-1.97M99.21,45.14c1.09,0,1.97.89,1.97,1.97s-.89,1.97-1.97,1.97-1.97-.89-1.97-1.97.89-1.97,1.97-1.97M85.42,45.14c1.08,0,1.97.89,1.97,1.97s-.89,1.97-1.97,1.97-1.97-.89-1.97-1.97.89-1.97,1.97-1.97"/>
  <rect class="cls-1" x="77.43" y="40.31" width="71.75" height="1.77"/>
  <path class="cls-1" d="M83.88,71.14c0-1.15,1.54-2.47,1.54-2.47-5.72-.62-14.84-4.78-14.84-4.78-5.1,4.33-13.3,4.79-13.3,4.79-.15.93,1.24,2.63,1.24,2.63v20.53s-.46.22-1.9,2.04c-.45.57-.73,1.15-.73,1.15,11.44,1.24,16.08,7.17,16.08,7.17,5.1-5.72,13.76-6.96,13.76-6.96-1.39-.62-1.86-2.57-1.86-2.94v-21.16h0ZM74.61,93.85c-6.18-1.24-7.42-2.63-7.42-2.63v-21.3c0-.46,7.42,2.63,7.42,2.63v21.3Z"/>
  <path class="cls-1" d="M141.21,71.14c0-1.15,1.55-2.47,1.55-2.47-5.72-.62-14.84-4.78-14.84-4.78-5.1,4.33-13.3,4.79-13.3,4.79-.15.93,1.24,2.63,1.24,2.63v20.53s-.46.22-1.9,2.04c-.45.57-.73,1.15-.73,1.15,11.44,1.24,16.08,7.17,16.08,7.17,5.1-5.72,13.76-6.96,13.76-6.96-1.39-.62-1.86-2.57-1.86-2.94v-21.16h0ZM131.93,93.85c-6.19-1.24-7.42-2.63-7.42-2.63v-21.3c0-.46,7.42,2.63,7.42,2.63v21.3Z"/>
  <path class="cls-1" d="M207.84,94.57c-2.28-.36-3.09-2.34-3.09-2.94v-23.26c-6.65-2.16-13.14-4.48-13.14-4.48-6.18,3.71-12.83,4.79-12.83,4.79-.15.93,1.24,2.63,1.24,2.63v21.55s-.25.37-.82,1.14c-.25.33-.68.86-.82,1.03,6.63.81,13.95,7.17,13.95,7.17l5.32-5.72,6.01,5.72,7.12-7.17s-.66-.1-2.94-.46ZM195.47,93.86c-2.78-2.16-6.65-3.61-6.65-3.61v-20.37c.31.39,6.65,2.63,6.65,2.63v21.35Z"/>
  <path class="cls-1" d="M103.52,95.03c-6.03,3.47-7.67,7.16-7.67,7.16,0,0-1.64-3.69-7.67-7.16l2.8.02v-22.35c0-1.19-1.17-3.81-3.94-4.02l7.81-4.8s4.95,2.94,5.72,4.17c0,0-.94.74,5.4-3.44l1.08-.77s3.86,4.37,6.87,5.04c-.77,2.8-3.58,6.24-11.32,1.96,0,0-1.88-.41-1.88.82v23.35h2.8Z"/>
  <path class="cls-1" d="M175.09,68.68c-3.06-1.19-8.82-4.81-8.82-4.81l-1.08.77c-6.34,4.17-7.78,3.58-7.78,3.58-.77-1.24-5.72-4.17-5.72-4.17l-7.54,4.63c2.77.21,3.94,2.83,3.94,4.02v22.33h-2.8c6.03,3.46,7.67,7.16,7.67,7.16,0,0,1.65-3.69,7.67-7.16h-2.8v-22.52s4.01-2.29,4.01-2.29l3.09,2.29v22.52h-2.8c6.02,3.47,7.33,7.17,7.33,7.17,0,0,1.64-3.7,7.67-7.17h-2.8l-.02-23.41s1.54-2.63.77-2.94Z"/>
  <path class="cls-1" d="M213.69,103.28s.9-.22.9-1.07c0-.6-.41-1.11-1.46-1.11h-1.72v3.93h.71v-1.65h.78s.72.8,1.11,1.65h.9s-.62-1.18-1.23-1.75M213.07,102.77c-.35,0-.94,0-.94,0v-1.11h.94c.34,0,.74.09.74.54s-.4.56-.74.56"/>
  <path class="cls-1" d="M209.33,103.03c0,2.05,1.67,3.72,3.72,3.72s3.72-1.67,3.72-3.72-1.67-3.72-3.72-3.72c-2.05,0-3.72,1.67-3.72,3.72M210.02,103.03c0-1.66,1.35-3.02,3.02-3.02s3.02,1.36,3.02,3.02-1.36,3.02-3.02,3.02-3.02-1.35-3.02-3.02"/>
</svg>