<?xml version="1.0" encoding="UTF-8"?>
<svg id="Layer_1" xmlns="http://www.w3.org/2000/svg" viewBox="0 0 254.98 79.98">
  <defs>
    <style>
      .cls-1 {
        fill: #fff;
      }
    </style>
  </defs>
  <path class="cls-1" d="M178.62,6.14s-4.78,1.9-10.34,8.03c-5.56,6.13-8.8,13.02-6.4,14.85.92.7,3.04.83,6.89-2.65,3.55-3.09,6.34-6.95,8.15-11.3,2.49-6.06,1.7-8.85,1.7-8.92M209.04,17.16c-6.18-3.17-10.69-7.05-15.39-9.45-4.48-2.3-7.38-3.26-11-2.78-.51.09-1,.21-1.49.37,0,0,1.87,6.37-5.56,17.07-7.52,10.85-14.34,10.78-16.28,7.8-2.03-3.15.59-9.56,4.97-15.27,4.59-5.97,12.65-10.92,12.65-10.92,0,0-2.57-1.57-8.88,2.01-6.16,3.47-16.75,11.76-26.58,25.75-9.83,13.98-11.78,21.68-13.19,27.73s-.13,12.54,6.59,12.54,14.53-10.24,16.74-13.8c4.1-6.63,6.77-16.81,1.19-15.41-2.75.69-4.97,3.73-6.38,6.66-.89,1.88-1.57,3.86-2.02,5.89-1.95.8-3.78,1.87-5.44,3.17-1.85,1.37-3.58,2.9-5.17,4.56,0,0,.02-4.84,3.88-12.68,3.86-7.83,10.94-11.41,14.96-11.75,3.61-.29,8.32,2.78,4.33,14.09-3.99,11.32-15.75,25.08-28.11,25.25-11.4.16-18.87-14.4-2.99-39.8C143.44,10.15,164.04,1.54,170.73.58c6.69-.96,8.87,1.99,8.87,1.99,4.03-1.65,8.38-2.37,12.72-2.1,8.17.55,14.49,6.33,22.83,10.4-2.17,2.07-4.24,4.25-6.1,6.29M245.75,7.72c-5.66,3.63-13.5,6.92-21.03,6.22-1.91,1.97-3.95,4.25-5.99,6.74,13.05,2.58,24.49-5.51,30.57-12.39,2.22-2.48,4.12-5.21,5.67-8.15-2.77,2.88-5.87,5.43-9.23,7.59M228.37,44.49c.1-.17.18-.35.24-.54-.08-.62-.58-1.09-1.2-1.14-1.24-.06-2.94.18-7.39,5.1-3.69,4.07-6.87,8.57-9.46,13.41-2.55,4.65-3.58,8.12-2.11,9.01.48.25,1.03.3,1.54.16.99-.24,2.11-1.16,3.82-3.14.8-.93,1.69-2.24,2.75-3.7,2.94-4,10.34-16.61,11.8-19.16M182.16,49.85c.74-1.94,1.69-5.75-.28-7.25-2.11-1.59-7.49,2.14-7.52,5.96-.04,3.91,3.79,5.68,4.7,5.93.52.14.7.12.96-.3.81-1.4,1.52-2.85,2.13-4.35M178.09,56.97c-1.33-.62-2.58-1.41-3.7-2.36-1.12-.94-2.06-2.09-2.77-3.37-.07-.12-.15-.03-.23.08s-.41.41-3.28,4.62c-2.87,4.2-7.28,12.91-3.29,14.4,2.55.95,6.8-3.52,9.12-6.49,1.58-2.07,3.01-4.25,4.28-6.52.12-.25,0-.31-.13-.36M223.33,67.03c-1.08,1.73-2.32,5.06,1.24,2.99,4.36-2.52,10.56-11.93,10.56-11.93h2.81c-2.56,3.94-5.41,7.68-8.53,11.19-4.41,4.89-9.8,9.34-13.59,8.9-4.43-.52-3.04-6.33-3.04-6.33,0,0-6.34,6.75-10.72,6.26-5.92-.65-4.12-7.98-4.12-7.98,0,0-6.7,8.22-11.26,7.97-7.15-.41-5.36-9.12-3.37-15.25,1.07-3.28,2.05-5.85,2.05-5.85,0,0-.71.19-2.23.41-.8.11-2.25.19-2.25.19,0,0-2.98,5.26-5.36,8.42-2.38,3.16-12.51,14.05-18.48,11.87-5.51-2.01-3.69-10.45-.48-17.16,4.68-9.78,17.86-23.83,25.46-21.97,7.88,1.91.18,16.28.18,16.28,0,0,0,.05.08.09.16.06.57.1,1.52-.08.98-.2,1.95-.49,2.88-.86,0,0,7.92-16.58,16.66-27.43S229.54-2.78,236.39,1.74c1.66,1.11.91,4.94-1.34,9.58-1.02.33-2.05.61-3.09.83,1.51-2.74,2.51-5.05,2.81-6.66,1.03-5.6-12.05,6.22-21.41,18.92-5.63,7.66-10.64,15.76-14.96,24.22,1.69-1.03,3.3-2.18,4.83-3.44,4.17-3.46,8.14-7.16,11.87-11.08,3.6-3.68,6.97-7.58,10.11-11.67,1-.05,1.99-.15,2.97-.31-3.42,4.64-7.14,9.04-11.15,13.17-3.73,3.77-7.77,7.83-11.28,10.78-3.13,2.66-6.44,5.12-9.89,7.35,0,0-8.18,16.49-3.73,17.55,2.62.63,7.78-7.32,7.78-7.32,0,0,6.74-10.28,10.8-14.92,5.54-6.3,10.31-9.95,15.08-10.02,2.78-.05,4.41,2.9,4.41,2.9l1.31-2.02h8.04s-15.02,25.49-16.22,27.4M245.75,7.72c-5.66,3.63-13.5,6.92-21.03,6.22-1.91,1.97-3.95,4.25-5.99,6.74,13.05,2.58,24.49-5.51,30.57-12.39,2.22-2.48,4.12-5.21,5.68-8.15-2.77,2.88-5.87,5.43-9.23,7.59M132.81,20.22h-7.65l-4.32,6.98h7.65l4.32-6.98ZM96.59,44.41c3.25-4.46,12.23-20.09,12.23-20.09-.08-.62-.58-1.09-1.19-1.14-1.24-.06-3.32.36-7.43,5.51-4.12,5.15-7.31,9.25-9.64,13.52-2.55,4.66-3.67,7.94-2.2,8.83.48.24,1.02.29,1.54.16.95-.24,2.2-1.2,3.91-3.17.8-.92,1.72-2.16,2.79-3.61M55.55,23.27c-2.11-1.6-7.49,2.14-7.52,5.95-.03,3.92,4.84,5.12,5.47,5.14.19.02.37-.02.53-.11.11-.07.2-.16.26-.28.57-1.13,1.09-2.28,1.54-3.46.74-1.94,1.68-5.75-.28-7.25M52.37,36.75c-1.46-.46-2.85-1.1-4.15-1.91-1.25-.82-2.27-1.95-2.96-3.28-.07-.12-.16-.03-.23.08s-.51.65-3.38,4.87-7.14,12.85-3.15,14.33c2.55.97,6.84-3.54,9.18-6.5,1.75-2.32,3.36-4.74,4.83-7.24.1-.25,0-.31-.14-.36M114.83,39.35h2.8s-14.04,20.31-21.97,19.37c-4.43-.52-3.11-5.98-3.11-5.98,0,0-6.22,7.28-11.93,5.8-5.18-1.33-1.84-9.95-1.84-9.95-.59.24-11.8,12.88-19.68,9.85-8.25-3.18-3.96-13.77-2.4-16.95,1.33-2.68,2.8-5.29,2.8-5.29,0,0-1.26.36-2.07.54s-1.98.41-1.98.41c0,0-3.9,6.34-6.28,9.5s-12.51,14.03-18.48,11.87-4.49-10.52-1.14-17.15c5.44-10.76,18.34-23.98,26.12-21.97,7.85,2,1.35,14.74,1.35,14.74,0,0,1.56.2,5.31-2.35,5.39-3.68,12.5-13.57,20.2-12.41,3.63.55,7.01,4.26,2.39,11.3-1.48,2.26-3.95,4.29-5.84,2.28-1.18-1.24-.15-3.51,1.09-5.06.98-1.28,2.53-2,4.15-1.9,0,0,1.27-2.9-1.96-2.86-2.62.05-9.25,6.16-13,12.32-3.43,5.66-8.63,15.31-3.41,17.41,4.79,1.93,13.9-8.88,18.12-14.55s13.84-18.51,21.9-19.02c2.78-.18,4.43,2.35,4.43,2.35l.93-1.48h8.07s-15.19,25.35-16.38,27.27c-.93,1.5-2.17,4.87,1.24,2.98s10.57-11.08,10.57-11.08M110.44,79.97c-5.94-4.11-13.05-6.19-20.27-5.92-3.96.11-7.64,2.1-9.89,5.36-3.08-5.37-9.16-8.66-18.56-8.59-15.19.17-30.26,7.18-42.2,7.17-11.44,0-19.79-7.19-19.52-19.96C.51,35.62,19.45,15.44,33.58,6.36,41.73,1.14,48.55-.41,53,.09c3.25.36,7.16,4.12,4.69,9.65-3.62,8.09-8.63,7.42-8.44,3.56.1-2.52,1.78-4.1,3.04-4.97.8-.55,2.21-.71,2.95-.73.72-.61,1.24-5.03-4.56-3.58-5.8,1.46-12.85,7.18-19.54,14.57-6.69,7.39-17.11,21.36-19.68,36.03-1.2,6.8-.41,19.21,15.72,19.07,13.68-.11,33.84-9.12,52.37-8.93,7.19.07,13.45,2.01,18.33,5.02,4.79,2.95,10.54,7.26,12.58,10.21"/>
</svg>