<?xml version="1.0" encoding="UTF-8"?>
<svg id="Layer_1" xmlns="http://www.w3.org/2000/svg" viewBox="0 0 206.47 101">
  <defs>
    <style>
      .cls-1 {
        fill: #fff;
      }
    </style>
  </defs>
  <path id="path1969" class="cls-1" d="M0,76.21v-24.8h13.84c7.78,0,14.61.42,15.61.95,1.65.89,1.78,2.08,1.78,17.38,0,19.88.29,19.32-10.07,19.32-8.16,0-8.3.13-8.3,7.42v4.52H0v-24.8ZM17.45,70.33c0-10.03-.25-12.4-1.36-12.82-2.34-.9-3.23,2.57-3.23,12.59,0,10.86.38,12.53,2.85,12.53,1.62,0,1.74-.84,1.74-12.3ZM36.77,99.23c-.58-1.09-.95-10.68-.95-24.8v-23.02h13.78v20.03c0,15.35.29,20.42,1.24,21.72,2.85,3.9,3.35.78,3.35-20.68v-21.07h13.78v23.7c0,17.2-.3,24-1.1,24.8-.76.76-5.44,1.1-15.12,1.1-12.92,0-14.09-.14-14.97-1.78ZM72.55,77.31c0-17.2.3-24,1.1-24.8,1.57-1.57,44.91-1.57,46.47,0,.8.8,1.1,7.59,1.1,24.8v23.7h-13.78v-21.65c0-20.12-.11-21.63-1.61-21.34-1.47.28-1.63,2.17-1.85,21.65l-.25,21.34h-13.74v-21.01c0-16.31-.27-21.24-1.22-22.02-2.9-2.41-3.38.71-3.38,22.09v20.94h-12.86v-23.7ZM126.74,77.16c0-22.64.09-23.89,1.78-24.8,2.57-1.37,26.95-1.24,28.35.15.8.8,1.1,7.59,1.1,24.8v23.7h-13.69l-.27-6.2c-.21-4.78-.59-6.2-1.65-6.2s-1.44,1.42-1.65,6.2l-.27,6.2h-13.69v-23.85ZM143.73,70.16c0-9.93-.22-11.86-1.38-11.86s-1.42,1.95-1.64,10.97c-.28,11.63.03,13.75,1.87,13.14.84-.28,1.15-3.57,1.15-12.25Z"/>
  <path id="path1989" class="cls-1" d="M185.95,79.48c-.58-.7-1.6-3.13-1.8-5.69-.35-4.48.57-4.16-4.92-9.67-4.43-4.45-7.31-7.37-9.3-13.23-3.14-9.22-7.24-11.64-12.26-11.64-4.65,0-12.06-1.49-16.02-3.23-1.88-.82-5.52-3.4-8.1-5.72l-4.68-4.22-2.15,1.69c-2.86,2.25-6.88,2.13-12.94-.36-5.64-2.32-6.7-2.18-6.7-.55,0,1.93-1.5,2.01-3.63.61-4.49-2.94-.7-7.73,6.85-7.36,4.49.22,4.71.26,4.71-1.58,0-2.17-1.34-2.94-5.12-2.94-1.62,0-3.04-.54-4.45-1.89-.87-.52-1.64-.93-2.13-2.12.41-1.51.84-2.47,1.64-3.19.78-1.52,1.71-3.17,3.36-4.21.95-.6,1.87-2.47,2.6-3.2.64-.65.61-.85,1.71.05,1.13.93,1.57.94,2.67.03,1.1-.92,1.46-.89,2.25.19.51.7,2.38,2.61,4.95,3.21,7.16,1.68,13.48,5.46,25,14.97,14.68,12.11,16.14,11.59,23.11,12.29,8.18.82,11.26-2.22,17.13-15.16,3.85-8.5,6.35-11.76,11.01-14.7,3.96-2.5,7.41-2.59,7.68.23.26,2.71.23,4-5.6,7.52-6.48,3.91-8.41,5.91-12.48,14.35-2.1,4.35-4.65,8.23-6.5,9.91l-3.05,2.75,2.03,4.09c1.5,3.03,2.13,5.86,2.41,10.88.53,9.33-.1,8.45,3.05,11.44,1.46,1.39,2.04.28,2.63,3.08.57,2.66.71,3.98,1.94,7.32.77,2.09.06.88-.23,3.84-.22,2.25.31,1.41-.68,3.75-.43,1.02-3.39-.87-3.97-1.57Z"/>
</svg>