<?xml version="1.0" encoding="UTF-8"?>
<svg id="Layer_1" xmlns="http://www.w3.org/2000/svg" viewBox="0 0 204.07 43.23">
  <defs>
    <style>
      .cls-1 {
        fill-rule: evenodd;
      }

      .cls-1, .cls-2 {
        fill: #fffffd;
      }
    </style>
  </defs>
  <path class="cls-2" d="M1.55.34h1.91v1.02h16.63l.3-.08v1.61s-1.27.42-1.7,1.27-.55.76-.59,3.61c-.04,2.84,0,6.7,0,7v18.88s-.13,3.01.21,4.07l-4.5,1.61-5.22,3.9-7.34-9.33s-1.7-1.61-1.15-4.92c.47-2.76,1.32-3.69,1.74-4.29.42-.64.3-.34.3-.34l.93.04-.25,1.06s-.13.25.34,1.06c.47.76,8.23,10.1,8.23,10.1,0,0,.25.47.3-.04,0-.51-.08-9.42-.08-9.42v-9.97h-4.67l-.42.59-1.4,4.71-.04-9.89h2.12v.93h4.24v-4.67l-.25-1.32s.34-.04,1.65-1.02,1.44-1.06,1.44-1.06l-.13-.08s-3.27.72-3.78.81c-.51.08-1.27.13-1.57.13H3.84l-.38.13-1.95,5.47.04-11.58Z"/>
  <polygon class="cls-2" points="30.79 .3 33.67 1.4 30.28 5.35 29.43 5.09 30.79 .3"/>
  <polygon class="cls-2" points="36 .3 38.89 1.36 35.54 5.35 34.69 5.05 36 .3"/>
  <path class="cls-2" d="M75.76,10.65s.93-1.1,1.57-2.12c.68-1.02,1.57-2.38,1.57-2.38l4.92,1.74-.55,1.61.04,3.9,4.07-7.26h1.36l2.12,7.81s.38,2.55-.13,3.86c-.51,1.36-1.19,2.63-2.04,3.44-.85.81-1.32,1.27-1.32,1.27l-1.19-1.19s1.19-1.27,1.23-2.04-.34-1.78-.76-3.27-1.15-3.56-1.15-3.56l-.51.76-1.7,2.93v14.81l3.56.98.47-1.87,1.99.64-3.82,6.15-8.06-2.16s.72-.51.68-4.75-.04-18.46-.04-18.46l-2.33-.85Z"/>
  <path class="cls-2" d="M92.09,10.48l3.01-4.33,5.47,2.08s-.59,1.57-.59,2.76.04,3.35.04,3.35l4.79-8.19,7.17,2.55s-.64,1.61-.64,3.27.08,3.01.08,3.01l4.71-8.87,7.09,2.55s-1.02,2.04-1.02,3.39c-.04,2.67.08,19.52.08,19.52l2.29.68-2.38,4.54-6.19-1.7s.72-1.23.72-4.37c.04-3.14,0-18.63,0-18.63l-1.82-.72-3.61,6.07.08,14.21,1.95.59-2.5,4.5-5.6-1.48s.68-.93.68-4.33-.04-16.42-.04-16.42v-2.21l-2.46-.98-3.35,5.6.13,14.81,1.65.55-2.38,4.45-5.64-1.48s.72-1.36.76-3.73c.04-2.38-.04-19.86-.04-19.86l-2.46-1.19Z"/>
  <path class="cls-2" d="M148.78,31.35l2.67.81-2.76,4.54-6.19-1.57s.89-.98.85-6.24c-.04-5.26-.04-17.06-.04-17.06l-2.46-.93,2.97-4.79,5.86,2.29-.93,2.12.04,20.83"/>
  <polygon class="cls-2" points="147.25 .04 150.18 1.19 146.66 5.18 145.89 4.96 147.25 .04"/>
  <path class="cls-2" d="M159.94,0l3.14,1.99s1.27.89,2.16.04c.93-.85.93-.93.93-.93l1.06.68-2.97,3.95s-2.04,1.06-3.14.72-2.25-.85-2.25-.85l-.08,11.41.04,22.91s-.89-.04-1.57.34c-.72.34-1.32.72-1.57,1.36s-.3,1.48-.3,1.48l-2.12-.04-.08-36.15-.64-2.33,4.16-1.23,3.22-3.35Z"/>
  <path class="cls-2" d="M169.69,1.1l-.04,4.92,5.39-.04-2.21,4.29-3.1.04-.08,21.04,2.63.72-2.72,4.62-6.19-1.7s.89-1.57.89-4.71-.04-19.94-.04-19.94h-1.99l3.69-3.86,3.78-5.39Z"/>
  <path class="cls-2" d="M188.83,10.39s.93-1.1,1.57-2.12c.68-1.02,1.57-2.38,1.57-2.38l4.92,1.74-.55,1.61.04,3.9,4.07-7.26h1.36l2.12,7.81s.38,2.55-.13,3.86c-.51,1.36-1.19,2.63-2.04,3.44s-1.32,1.27-1.32,1.27l-1.19-1.19s1.19-1.27,1.23-2.04c.04-.76-.34-1.78-.72-3.27-.42-1.48-1.15-3.56-1.15-3.56l-.51.76-1.7,2.93v14.81l3.56.98.47-1.87,1.99.64-3.82,6.15-8.06-2.16s.72-.51.68-4.75c-.04-4.24-.04-18.46-.04-18.46l-2.38-.85Z"/>
  <path class="cls-1" d="M21.88,35.47l.34-1.74s0-13.62-.04-14.47c-.04-.81-.51-2.12-.51-2.12l4.07-1.53s.04,0-.51-.34c-1.36-.81-2.29-1.74-2.59-2.08l-.85-1.36,4.71-2.38,2.72-3.18,9.59,3.52-.51.85-.47,1.19.04,19.6.38.21,1.91.51-2.89,4.62-5.26-1.4.34-3.65-.13-1.15-1.19,1.87-2.46,4.37-6.7-1.36ZM27.73,11.24l.3.76c.42.76.93,1.1,1.74,1.44.72.34,1.23.34,1.99.3.98-.04,2.42-.59,2.42-.59l-6.45-1.91ZM27.73,30.97l2.33.76,2.29-3.95-.04-12.81-4.58,2.21v13.79Z"/>
  <path class="cls-1" d="M41.69,11.24l4.33-1.91,2.63-3.14,10.31,3.48s-.68.76-.76,1.74c-.08.98-.08,10.78-.08,10.78l.04,16.29-3.52,1.02-3.18,3.27s-3.48-1.7-5.43-1.74c-1.95-.04-2.25.04-2.8.47s-1.23,1.65-1.23,1.65l-1.32-.47s1.15-2.25,2.38-3.48c1.23-1.23,2.25-2.04,3.18-2.38.93-.3,1.4-.34,1.4-.34l-.08-.25-5.94-1.57s.51-1.53.59-2.89,0-10.1,0-10.1l.04-8.36-.55-2.08ZM48.44,36.36l4.37,1.06v-8.57l-4.37,7.51ZM47.71,11.37l.04,19.64,1.95.55,3.1-5.56v-9.21c0-.85-.51-2.04-.51-2.04l1.32-1.4-5.9-1.99Z"/>
  <path class="cls-1" d="M61.88,34.32l.51-2.76s.04-13.75,0-16.33c-.04-2.59-.55-4.12-.55-4.12l3.73-.98,3.39-3.86,6.92,7.17-.85,1.02-7.09,12.69.08,3.44,5.56,1.4.64-1.74,1.74.55-3.52,6.19-10.56-2.67ZM67.87,12.69l.04,11.96,3.99-7.38-4.03-4.58Z"/>
  <path class="cls-1" d="M126.25,34.15l.51-2.76s.04-13.75,0-16.33c-.04-2.59-.55-4.12-.55-4.12l3.73-.98,3.39-3.86,6.92,7.17-.85,1.02-7.09,12.64.08,3.44,5.56,1.4.64-1.74,1.74.51-3.52,6.19-10.56-2.59ZM132.23,12.52l.04,11.96,3.99-7.38-4.03-4.58Z"/>
  <path class="cls-1" d="M175.17,34.03l.51-2.76s.04-13.75,0-16.33-.55-4.12-.55-4.12l3.73-.98,3.39-3.86,6.92,7.17-.85,1.02-7.09,12.69.08,3.44,5.56,1.32.64-1.74,1.74.51-3.52,6.19-10.56-2.55ZM181.15,12.39l.04,11.96,3.99-7.38-4.03-4.58Z"/>
</svg>