<?xml version="1.0" encoding="UTF-8"?>
<svg id="Layer_1" data-name="Layer 1" xmlns="http://www.w3.org/2000/svg" viewBox="0 0 155.65 101.82">
  <defs>
    <style>
      .cls-1 {
        fill: #fff;
      }
    </style>
  </defs>
  <path class="cls-1" d="m117.95,10.39c-.02-.29-.29-.49-.57-.44-3.15.54-3.93-1.43-5.53-3.08-.59-.61-1.47-1.15-2.16-1.52-.53-.28-.85-.85-.81-1.45.09-1.16-.28-2.28-.46-2.94-.11-.42-.64-.59-.75.2-.17,1.29-.56,2.24-.88,2.86-.19.37-.75.27-.8-.14-.13-1.1.12-2.42-.22-3.46-.21-.64-.96-.53-1.23.2-1.08,2.91-.64,3.84-2.63,5.02-7.13,4.21-7.77,8.65-15.69,7.19-.54-.1-1.07-.17-1.59-.23l.82,1.54s-10.25-2.58-20.54.97c-1.93.66-5.53,1.71-7.83,2.4-12.9,3.18-17.26-4.69-17.26-4.69l-.24,2.21c-4.91-8.61-11.19-7.95-11.19-7.95,0,0,2.61,1.87,3.15,5.37l-1.57-1.16s-3.07,14.92,12.27,14.06l-1.25,1.19s7.13,1.77,12.92-3.93c.31-.31.62-.63.92-.98,1.53-1,2.51,1.47-1.85,5.89-.54.55-1.73,1.41-1.73,1.41,0,0-1.37.47-1.37,7.21,0,5.41,3.09,5.31,4.35,5.31s1.88-.88,1.19-1.57c-.39-.39-1.05-.75-1.63-1.01-.84-.37-1.08-1.53-1.08-3.1,0-.09,0-.18,0-.27.12-2.16,2.55-3.89,4.7-4.11,3.4-.34,5.4-1.91,6.58-3.66.1-.15.31-.2.46-.1.79.46,1.66,1.26,1.22,2.42-.74,1.96-2.27,2.81-2.27,3.96,0,.93,5.45,3.79,7.5,5.82.84.84,2.13,1.29,3.32,1.29h2.14c.32,0,.56-.29.5-.6-.03-.17-.09-.37-.18-.58-.73-1.63-3.09-1.6-3.53-1.74-.72-.23-1.24-.65-1.76-1.17-2.45-2.45-3.33-3.64-2.32-4.64s3.83-1.9,3.83-6.05c0-.35-.3-1.87,6.39.33,1.06.35,3.89,2.21,10.5,1.39.03,0,.05,0,.08.02.46.16,1.5.73.84,2.38-2.26,5.63-2,10.62.42,10.62h1.77c.88,0,1.16-1.18.36-1.54-.01,0-.03-.01-.04-.02-.69-.29-.73-1.5-.73-2.23,0-3.66,3.17-6.3,4.03-8.29.07-.16.24-.24.4-.19.89.24,2.59,1.06,2.59,2.01,0,.88.42,1.71,1.16,2.19,2.53,1.61,7.69,4.53,10.02,6.94,3.61,3.73,4.91.71,2.44-1.36-1.7-1.43-6.52-5.75-8.56-7.73-.51-.5-.81-1.18-.81-1.89,0-2.01.8-5.39,2.34-8.52.47.31.86.43.86.43-.2-.52-.12-1.15.04-1.68.18-.59.46-1.14.82-1.64.6-.83,1.27-1.6,2.01-2.24,1.78-1.58,2.96-1.34,4.91-1.64,3.01-.47,3.26-2.32,3.18-3.25h.01Z"/>
  <path class="cls-1" d="m35.68,55.89c0-1.01.09-2.09.53-3.66h-4.6c.44,1.57.53,2.65.53,3.66v15.95c0,1.01-.09,2.09-.53,3.66h4.6c-.44-1.57-.53-2.65-.53-3.66v-15.95Z"/>
  <path class="cls-1" d="m105.86,55.89c0-1.01.09-2.09.53-3.66h-4.6c.44,1.57.53,2.65.53,3.66v15.95c0,1.01-.09,2.09-.53,3.66h4.6c-.44-1.57-.53-2.65-.53-3.66v-15.95Z"/>
  <path class="cls-1" d="m61.18,55.89c0-1.01.09-2.09.53-3.66h-4.49c.44,1.57.53,2.65.53,3.66v14.11s.11-.32.11-.28l-12.75-17.49h-3.82c1,1.12,1.73,2.82,1.73,3.65.01,3.71,0,15.73,0,15.96,0,1.01-.09,2.09-.53,3.66h4.49c-.44-1.57-.53-2.65-.53-3.66v-13l-.75.17,12.15,16.49h3.85c-.44-1.57-.53-2.65-.53-3.66v-15.95h0Z"/>
  <path class="cls-1" d="m124.04,65.87l8.16-13.63h4.87c-1.16,1.2-1.92,2.71-1.92,3.65-.01,3.72-.04,15.73-.04,15.96,0,1.01.09,2.09.53,3.66h-4.6c.44-1.57.53-2.65.53-3.66v-12.93,1.01s-7.09,11.56-7.52,12.13c-.42-.58-7.52-12.13-7.52-12.13v-1.01,12.93c0,1.01.09,2.09.53,3.66h-4.6c.44-1.57.53-2.65.53-3.66,0-.23-.03-12.25-.04-15.96,0-.94-.76-2.44-1.92-3.65h4.87l8.16,13.63h0Z"/>
  <path class="cls-1" d="m71.66,72.93v-8.51l7.14.68.76-3.31h-7.9v-7h.74c2.6.01,4.76.12,7.89,1.07l-.49-3.63h-12.21c.44,1.57.53,2.65.53,3.66v15.95c0,1.01-.09,2.09-.53,3.66h12.94l1.22-3.95s-5,1.42-10.09,1.38h0Z"/>
  <path class="cls-1" d="m145.78,72.93v-8.51l6.91.68.76-3.31h-7.67v-7h.97c2.6.01,4.76.12,7.89,1.07l-.49-3.63h-12.44c.44,1.57.53,2.65.53,3.66v15.95c0,1.01-.09,2.09-.53,3.66h12.72l1.22-3.95s-4.78,1.42-9.86,1.38"/>
  <path class="cls-1" d="m92.75,54.82c4.23.28,6.33,1.06,6.33,1.06l-.49-3.63h-15.23s-.49,3.62-.49,3.62c0,0,2.11-.78,6.33-1.06v17.03c0,1.01-.09,2.09-.53,3.66h4.6c-.44-1.57-.53-2.65-.53-3.66v-17.02h0Z"/>
  <path class="cls-1" d="m14.36,52.23l5.44,16.33c.77-2.87,2.15-8.56,3.31-13.02.21-.81.37-1.68.37-3.31h4.74c-.33.33-.82,1.53-.95,1.92-.64,1.84-.83,2.52-1.3,4.26l-4.62,17.09h-2.68l-4.56-13.97-4.56,13.97h-2.68l-4.62-17.09c-.47-1.74-.67-2.43-1.3-4.26-.13-.39-.62-1.59-.95-1.92h4.74c0,1.63.16,2.51.37,3.31,1.16,4.46,2.54,10.15,3.31,13.02l5.44-16.33h.5,0Z"/>
  <path class="cls-1" d="m57.38,101.75h0c.06-.14.1-.31.14-.51.03-.2.07-.58.11-1.15l.15-2.19c.01-.18.02-.35.03-.49.01-.14.02-.27.02-.38.05-.73.08-1.23.08-1.5s-.03-.47-.09-.61h1.27l.84,2.2.59,1.52s.02.05.03.08c.01.02.02.05.03.08.17.44.31.82.4,1.14.1.32.19.71.29,1.17h-.22c.1-.46.19-.86.3-1.19.1-.33.23-.7.37-1.09.01-.03.02-.05.03-.09s.02-.06.03-.09l.59-1.53.84-2.19h1.23c-.06.14-.09.36-.09.65,0,.29.04.93.1,1.9,0,.06.01.13.02.2,0,.07,0,.15.02.23l.15,2.15c.03.42.05.74.08.96.03.22.05.37.07.47.02.1.05.19.1.28h-1.19c.03-.07.05-.14.06-.21.01-.07.02-.18.02-.33s0-.32-.01-.53c0-.09-.01-.19-.02-.3,0-.11,0-.23-.02-.35l-.16-4.14c-.1.33-.2.63-.29.89-.09.26-.18.5-.26.72l-1.55,4.13-.7.09c-.12-.39-.25-.78-.39-1.17-.06-.17-.13-.34-.19-.51-.07-.17-.13-.33-.19-.5l-.8-2.04-.1-.23c-.08-.2-.16-.41-.24-.64-.09-.23-.17-.49-.25-.76h.01l-.17,4.21c0,.11-.01.22-.02.32,0,.1,0,.19,0,.28-.01.22-.02.4-.02.54s0,.26.02.33c.01.07.03.14.07.19h-1.14.01Z"/>
  <path class="cls-1" d="m70.51,101.75c.04-.11.04-.27.01-.49-.03-.21-.12-.52-.28-.95l-.71-1.97-.13-.35c-.26-.74-.45-1.29-.55-1.64-.1-.35-.19-.77-.26-1.25h.18c-.08.51-.18.96-.29,1.36-.11.4-.28.91-.51,1.52-.02.06-.04.11-.06.17-.02.06-.04.11-.07.16l-.71,2c-.15.44-.25.76-.28.96-.03.2-.03.36,0,.47h-1.24c.11-.16.23-.39.34-.7,0-.01.01-.03.02-.04,0-.01,0-.03.02-.04l1.17-3.16c.13-.37.25-.69.36-.97.11-.28.2-.53.29-.73.15-.4.25-.67.3-.8.05-.13.08-.24.09-.34l1.04-.12c.02.14.06.3.12.47.06.17.19.54.4,1.12.07.19.15.4.24.63s.18.48.27.75l1.15,3.12c.06.17.12.33.18.47.07.14.13.26.19.34h-1.29Zm-3.77-2.01l.16-.72h3.18l.31.72h-3.65Z"/>
  <path class="cls-1" d="m73.88,100.04c0,.63.01,1.04.03,1.23.02.19.06.35.11.48h-1.2c.04-.09.08-.18.1-.27.02-.1.03-.25.04-.46.01-.21.02-.54.02-.97v-2.06c0-.89,0-1.54-.02-1.93-.01-.39-.02-.66-.04-.8-.02-.14-.05-.26-.09-.35l.3-.04c.51-.06,1.01-.09,1.48-.09.84,0,1.47.18,1.88.54.41.36.62.85.62,1.46,0,.44-.11.83-.33,1.16-.22.33-.57.58-1.06.75-.49.17-1.13.25-1.91.21v-.74c.59.04,1.06,0,1.41-.1.35-.11.59-.27.74-.48.15-.21.22-.48.22-.79,0-.37-.13-.67-.38-.9-.26-.22-.63-.34-1.13-.34-.16,0-.29,0-.41.01-.11,0-.23.02-.34.04-.02.14-.03.36-.04.67,0,.31-.01.88-.01,1.73v2.04h0Zm2.87,1.71c-.09-.1-.18-.22-.27-.36-.1-.13-.2-.29-.33-.47-.03-.05-.07-.1-.1-.16-.04-.06-.08-.12-.13-.19l-1.56-2.27,1.07.11,1.25,1.82c.04.06.08.12.12.18.04.06.09.12.12.18.16.23.33.44.49.65.16.2.3.37.41.5h-1.07Z"/>
  <path class="cls-1" d="m78.95,96.61c0-.63-.01-1.04-.03-1.23-.02-.19-.06-.35-.11-.48h1.2c-.04.09-.08.18-.1.27-.02.1-.03.25-.04.46-.01.21-.02.54-.02.97v3.43c0,.63.01,1.04.03,1.23.02.19.06.35.11.48h-1.2c.04-.09.08-.18.1-.27.02-.1.03-.25.04-.46.01-.21.02-.54.02-.97v-3.43Zm1.55,1.74l-.59-.37,1.37-1.78s.05-.06.08-.1c.03-.03.05-.06.08-.1.27-.35.45-.59.54-.74.09-.15.13-.26.12-.36h1.21c-.1.1-.2.22-.32.36-.12.13-.24.29-.37.45-.04.07-.13.18-.26.34l-1.85,2.3h0Zm2.27,3.41c-.08-.09-.16-.2-.26-.33-.1-.13-.22-.29-.36-.48-.09-.11-.18-.23-.29-.37-.1-.14-.22-.3-.35-.47l-1.37-1.84-.22-.29.81-.32,1.94,2.59c.32.46.56.78.71.96.15.19.3.36.44.51.01,0,.02.02.03.02,0,.01.01.02.02.02h-1.09,0Z"/>
  <path class="cls-1" d="m84.75,101.75c.05-.09.09-.18.1-.28.02-.1.03-.25.04-.46.01-.21.02-.53.02-.97v-3.41c0-.44,0-.77-.02-.99-.01-.22-.02-.37-.04-.46-.02-.09-.05-.18-.1-.27h.25c.09,0,.17,0,.25,0,.08,0,.15,0,.22,0l.52.03c-.06.09-.11.23-.13.42-.03.19-.04.48-.05.87,0,.39-.01.97-.01,1.72v.84c0,.75,0,1.32.01,1.7,0,.38.02.67.05.85.03.18.07.32.14.41h-.5s-.76.01-.76.01h0Zm3.76-5.93c-.09-.06-.22-.09-.38-.11-.17-.02-.51-.02-1.03-.02h-1.64l-.16-.78h1.97c.23,0,.42,0,.58-.02.16-.01.3-.03.41-.06l.25.99h0Zm-.06,6.01c-.11-.03-.24-.05-.38-.06-.14-.01-.33-.02-.56-.02h-2.16l.16-.78h1.77c.46,0,.78-.02.96-.04.19-.03.33-.08.44-.14h.02s-.26,1.03-.26,1.03h0Zm-.35-3.11c-.09-.04-.2-.08-.33-.1-.13-.02-.34-.03-.64-.03h-1.45v-.77h1.4c.46,0,.76-.02.91-.07l.1.96h0Z"/>
  <path class="cls-1" d="m89.35,94.83c.11.03.25.05.41.06.16.01.33.02.53.02h1.04v.78h-.55c-.56,0-.93,0-1.12.02-.19.02-.34.05-.44.11l.13-.99h0Zm2.63,5.21c0,.63.01,1.04.03,1.23.02.19.06.35.11.48h-1.2c.04-.09.08-.18.1-.27.02-.1.03-.25.04-.46.01-.21.02-.54.02-.97v-5.13h.9v5.13h0Zm1.86-4.22c-.1-.06-.24-.09-.43-.11-.19-.02-.57-.02-1.12-.02h-.55v-.78h1.04c.2,0,.37,0,.53-.02.16-.01.29-.03.41-.06l.12.99h0Z"/>
  <path class="cls-1" d="m44.86,91.66c-.67,0-1.25-.15-1.74-.46-.49-.3-.86-.72-1.11-1.26-.25-.53-.38-1.14-.38-1.83s.13-1.27.38-1.81c.26-.54.63-.96,1.12-1.26.49-.3,1.06-.46,1.73-.46.4,0,.75.03,1.07.1.31.07.59.16.84.29l.1,1.06c-.25-.2-.53-.37-.86-.49-.33-.12-.72-.18-1.19-.18s-.87.13-1.21.38c-.34.25-.6.59-.77,1.01-.17.42-.26.88-.26,1.37s.09.98.26,1.39c.18.42.44.75.8,1,.36.25.8.37,1.31.37.26,0,.53-.03.78-.09.26-.06.49-.14.69-.26l.07-.05v-1.81h-.51c-.42,0-.7.02-.81.06-.04,0-.07.02-.1.02-.03.01-.05.02-.07.04l.15-.91c.06.02.17.03.32.04.15.01.36.02.62.02h1.24c-.01.06-.02.2-.03.43,0,.23-.01.61-.01,1.14,0,.46,0,.78.01.96,0,.19.01.31.02.38-.37.26-.75.46-1.14.59-.39.13-.84.2-1.33.2h0Z"/>
  <path class="cls-1" d="m52.74,91.54c.04-.11.04-.27.01-.49-.03-.21-.12-.52-.27-.95l-.71-1.97-.13-.35c-.26-.74-.45-1.29-.55-1.64-.1-.35-.19-.77-.26-1.25h.18c-.08.51-.18.96-.29,1.36-.11.4-.28.91-.51,1.52-.02.06-.04.11-.06.17-.02.06-.04.11-.07.16l-.71,2c-.15.44-.25.76-.28.96-.03.21-.03.36,0,.47h-1.24c.11-.16.23-.39.34-.7,0-.01.01-.03.02-.04,0-.01,0-.03.02-.04l1.17-3.16c.13-.37.25-.69.36-.97.11-.28.2-.53.29-.73.15-.4.25-.67.3-.8.05-.13.08-.24.09-.34l1.04-.12c.02.14.06.3.12.47.06.17.19.54.4,1.12.07.19.15.4.24.63.09.23.18.48.27.75l1.15,3.12c.06.17.12.33.18.47.07.14.13.26.19.34h-1.29Zm-3.77-2.01l.16-.72h3.18l.31.72h-3.65Z"/>
  <path class="cls-1" d="m56.57,91.66c-.37,0-.7-.03-1-.1-.3-.07-.56-.15-.77-.26l-.12-1.08c.16.12.32.23.49.32.17.09.37.18.61.24.24.07.5.1.79.1.41,0,.73-.1.96-.3.23-.2.35-.47.35-.8,0-.35-.11-.64-.34-.86-.23-.23-.6-.43-1.13-.62-.44-.16-.78-.33-1.02-.53-.24-.2-.4-.42-.48-.65-.09-.24-.13-.52-.13-.84,0-.28.07-.55.22-.81.15-.26.37-.47.66-.63.3-.16.67-.24,1.12-.24.27,0,.54.03.82.09.28.06.51.13.71.22.01,0,.03.01.04.02.02,0,.03.01.04.02l.12,1.04-.06-.04c-.26-.17-.52-.31-.77-.41-.25-.1-.55-.16-.9-.16s-.64.08-.83.25c-.19.16-.29.39-.29.68,0,.26.07.47.2.64.13.17.35.31.65.44.06.03.11.05.17.07.06.02.12.04.18.06.44.15.8.33,1.08.52.28.2.49.43.62.71.13.27.2.61.2,1,0,.34-.08.66-.25.95-.17.29-.42.53-.75.7-.33.17-.73.26-1.21.26h0Z"/>
  <path class="cls-1" d="m59.52,84.63c.11.03.25.05.41.06.16.01.33.02.53.02h1.04v.78h-.55c-.56,0-.93,0-1.12.02-.19.02-.34.05-.44.11l.13-.99h0Zm2.63,5.21c0,.63.01,1.04.03,1.23.02.19.06.35.11.48h-1.2c.04-.09.08-.18.1-.27.02-.1.03-.25.04-.46.01-.21.02-.54.02-.97v-5.13h.9v5.13h0Zm1.86-4.22c-.1-.06-.24-.09-.43-.11-.19-.02-.57-.02-1.12-.02h-.55v-.78h1.04c.2,0,.37,0,.53-.02.16-.01.29-.03.41-.06l.12.99h0Z"/>
  <path class="cls-1" d="m66.12,89.84c0,.63.01,1.04.03,1.23.02.19.06.35.11.48h-1.2c.04-.09.08-.18.1-.27.02-.1.03-.25.04-.46.01-.21.02-.54.02-.97v-2.06c0-.89,0-1.54-.02-1.93-.01-.39-.02-.66-.04-.8-.02-.14-.05-.26-.09-.35l.3-.04c.51-.06,1.01-.09,1.48-.09.84,0,1.47.18,1.88.54.42.36.62.85.62,1.46,0,.44-.11.83-.33,1.16-.22.33-.57.58-1.06.75-.49.17-1.13.25-1.91.21v-.74c.59.04,1.06,0,1.41-.1.35-.11.59-.27.74-.48.15-.21.22-.48.22-.79,0-.37-.13-.67-.38-.9-.26-.22-.63-.34-1.13-.34-.16,0-.29,0-.41.01-.11,0-.23.02-.34.04-.02.14-.03.36-.04.67,0,.31-.01.88-.01,1.73v2.04h0Zm2.87,1.71c-.09-.1-.18-.22-.27-.36-.1-.13-.2-.29-.33-.47-.03-.05-.07-.1-.1-.16-.04-.06-.08-.12-.13-.19l-1.56-2.27,1.07.11,1.25,1.82c.04.06.08.12.12.18.04.06.09.12.12.18.16.23.33.44.49.65.16.2.3.37.41.5h-1.07Z"/>
  <path class="cls-1" d="m73.97,91.66c-.67,0-1.25-.16-1.75-.49-.5-.33-.87-.77-1.13-1.32-.26-.55-.39-1.14-.39-1.78s.13-1.22.39-1.75c.26-.53.64-.95,1.13-1.26.5-.31,1.08-.47,1.75-.47s1.26.16,1.76.46c.49.31.87.73,1.12,1.26.26.53.38,1.12.38,1.76s-.13,1.23-.39,1.78c-.26.55-.64.99-1.13,1.32-.49.33-1.08.49-1.75.49m0-.78c.47,0,.88-.12,1.23-.37.35-.25.62-.59.81-1.01.19-.43.28-.9.28-1.43s-.09-.97-.28-1.38c-.19-.41-.46-.73-.81-.96-.35-.23-.76-.35-1.23-.35s-.88.12-1.23.35-.62.56-.81.96c-.19.41-.29.87-.29,1.38s.1,1,.29,1.43c.19.43.46.77.81,1.01.35.25.76.37,1.23.37h0Z"/>
  <path class="cls-1" d="m91.56,91.54c-.03-.16-.08-.39-.16-.69-.08-.3-.19-.7-.34-1.21-.06-.22-.13-.45-.2-.71-.07-.26-.15-.54-.23-.84l-.45-1.59c-.06-.22-.11-.4-.16-.56-.05-.16-.09-.3-.13-.42-.05-.16-.1-.31-.14-.44-.04-.13-.1-.26-.16-.4h1.23c-.03.19-.03.39-.01.59.03.2.1.56.24,1.05l.59,2.22c.08.32.15.61.22.88.07.27.13.52.18.76.04.18.08.37.12.55s.08.37.11.56h-.23s.02-.1.03-.16c.01-.06.02-.12.04-.18.09-.56.16-.98.22-1.28.06-.3.15-.67.27-1.13l.49-1.9c.05-.18.1-.38.14-.58.04-.2.09-.41.12-.63.03-.11.05-.23.08-.34.03-.11.05-.22.07-.34l.94-.1c.04.2.08.39.12.57s.08.37.13.56c.03.15.07.3.1.44.04.14.07.28.1.41l.49,1.9c.12.41.21.76.26,1.04.06.28.12.65.19,1.11.02.11.04.22.06.32.02.1.04.19.06.29h-.24c0-.06.03-.16.06-.29.03-.13.07-.25.1-.37.1-.49.18-.87.24-1.12.06-.25.13-.58.24-.97l.58-2.15c.13-.5.21-.86.24-1.08.02-.22.02-.43-.02-.63h1.25s-.02.05-.03.08c-.01.03-.02.05-.02.07-.1.23-.18.46-.25.68-.07.22-.16.55-.29.99l-.5,1.8c-.3,1.11-.51,1.86-.62,2.26-.08.29-.14.5-.17.62-.03.12-.05.24-.06.36h-1.2c0-.1-.02-.23-.05-.39-.03-.16-.07-.34-.12-.55-.04-.18-.11-.46-.21-.81l-.51-1.91c-.13-.46-.25-.94-.35-1.43-.07-.39-.12-.71-.15-.99h.28c-.07.43-.15.86-.24,1.28-.06.31-.16.69-.28,1.14l-.51,1.92c-.03.11-.06.22-.09.33-.03.1-.05.21-.08.31-.06.23-.11.45-.15.64-.04.19-.07.35-.08.47h-1.19,0Z"/>
  <path class="cls-1" d="m99.58,86.4c0-.63-.01-1.04-.03-1.23-.02-.19-.06-.35-.11-.48h1.2c-.04.09-.08.18-.1.27-.02.1-.03.25-.04.46-.01.21-.02.54-.02.97v3.43c0,.63.01,1.04.03,1.23.02.19.06.35.11.48h-1.2c.04-.09.08-.18.1-.27.02-.1.03-.25.04-.46.01-.21.02-.54.02-.97v-3.43Z"/>
  <path class="cls-1" d="m103.44,89.88c0,.42,0,.74.02.94.01.2.02.36.04.45.02.09.05.18.1.27h-1.14c.04-.09.08-.18.1-.27.02-.09.03-.24.04-.45,0-.2.02-.52.02-.94v-2.2c0-.61,0-1.13-.01-1.57,0-.44-.02-.76-.05-.96-.03-.2-.07-.34-.13-.44h1.32l3.52,5.48h-.01v-3.83c0-.42,0-.74-.01-.94-.01-.2-.02-.35-.04-.44-.02-.09-.05-.18-.1-.27h1.14c-.04.09-.07.18-.09.27-.02.09-.04.24-.05.45-.01.2-.02.52-.02.93v2.19c0,1.09.01,1.82.03,2.2.02.38.07.65.15.8h-1.11l-3.71-5.69v4.03h0Z"/>
  <path class="cls-1" d="m110.05,91.54c.05-.09.09-.18.1-.28.02-.1.03-.25.04-.46.01-.21.02-.53.02-.97v-3.41c0-.44,0-.77-.02-.99-.01-.22-.02-.37-.04-.46-.02-.09-.05-.18-.1-.27h.25c.09,0,.17,0,.25,0,.08,0,.15,0,.22,0l.52.03c-.06.09-.11.23-.13.42-.03.19-.04.48-.05.87,0,.39-.01.97-.01,1.72v.84c0,.75,0,1.32.01,1.7,0,.38.02.67.05.85.03.18.07.32.14.41h-.5s-.76.01-.76.01h0Zm3.76-5.93c-.09-.06-.22-.09-.38-.11-.17-.02-.51-.02-1.03-.02h-1.64l-.16-.78h1.97c.23,0,.42,0,.58-.02.16-.01.3-.03.41-.06l.25.99h0Zm-.06,6.01c-.11-.03-.24-.05-.38-.06-.14-.01-.33-.02-.56-.02h-2.16l.16-.78h1.77c.46,0,.78-.02.96-.04.19-.03.33-.08.44-.14h.02s-.26,1.03-.26,1.03h0Zm-.35-3.11c-.09-.04-.2-.08-.33-.1-.13-.02-.34-.03-.64-.03h-1.45v-.77h1.4c.46,0,.76-.02.91-.07l.1.96h0Z"/>
  <path class="cls-1" d="m86.59,91.54c-.28-.22-.57-.54-.82-.85l-.58-.72-.42.6.1.12c.17.22.3.38.37.48.08.11.12.18.14.23.02.05.02.09.02.14h1.2Z"/>
  <path class="cls-1" d="m87.29,88.6l-.29-.82c-.15.05-.39.09-.73.11-.33.03-.69.04-1.03.04.03.14.03.22.03.47,0,.21-.1.82-.29,1.2-.01.02-.02.04-.03.06-.44-.53-1.12-1.32-1.48-1.74.24-.17.45-.31.61-.44.22-.17.4-.39.56-.64.16-.25.23-.53.23-.85,0-.28-.06-.53-.19-.75-.13-.22-.31-.39-.54-.52-.24-.12-.52-.18-.84-.18-.36,0-.67.07-.94.21-.27.14-.47.33-.62.57-.15.24-.22.51-.22.81,0,.26.06.51.17.74.11.23.25.45.42.65.08.09.17.2.27.31-.23.16-.43.3-.6.44-.26.21-.47.46-.66.76s-.27.64-.27,1.02c0,.31.08.59.25.82.16.24.39.43.68.56.29.13.61.2.96.2.66,0,1.24-.17,1.72-.5.48-.33.85-.75,1.11-1.25.23-.45.37-.89.4-1.31h1.35,0Zm-4.73-3.13c.18-.17.4-.25.68-.25s.5.08.65.24c.16.16.24.37.24.64,0,.19-.06.37-.18.53-.12.16-.27.31-.45.45-.12.1-.29.21-.48.34-.2-.25-.36-.45-.47-.61-.17-.25-.26-.48-.26-.7,0-.26.09-.47.26-.64h0Zm1.6,5.09c-.36.25-.78.37-1.27.37-.25,0-.46-.05-.65-.14-.18-.09-.33-.21-.43-.37-.1-.15-.15-.32-.15-.49,0-.26.07-.49.2-.7.13-.2.3-.39.5-.54.12-.1.28-.21.46-.33.36.37.65.7.88.98.2.26.49.59.77.95-.1.09-.2.18-.32.26h0Z"/>
</svg>