<?xml version="1.0" encoding="UTF-8"?>
<svg id="Layer_1" xmlns="http://www.w3.org/2000/svg" viewBox="0 0 112.47 47.44">
  <defs>
    <style>
      .cls-1 {
        fill: #fff;
      }
    </style>
  </defs>
  <path class="cls-1" d="M43.18,37.52c1.99-.73,3.87-1.42,5.72-2.09,3.61,5.21,7.6,6.9,12.34,5.3,3.97-1.34,5.76-4.75,5.5-10.48-.13.01-.3-.02-.39.05-7.1,5.53-18.27,3.3-22.46-4.66-.98-1.86-1.68-4.08-1.76-6.16-.22-6.43-.08-12.86-.08-19.43h7c0,.68,0,1.38,0,2.09,0,5.14-.04,10.28.01,15.42.05,4.47,2.32,7.84,5.92,8.99,5.92,1.88,11.68-2.35,11.79-8.75.09-5.33.02-10.67.02-16,0-.57,0-1.13,0-1.78h7.12c0,.56,0,1.03,0,1.5,0,9.9,0,19.8,0,29.7,0,6.25-2.36,11.25-8.01,14.29-8.44,4.53-19.11.8-22.71-7.98Z"/>
  <path class="cls-1" d="M105.45,12.26V.05h7.02v31.67h-6.98v-12.2h-17.73v12.21h-7.04V0h6.99v12.26h17.75Z"/>
  <path class="cls-1" d="M33.87,31.76h-7.04V7.09h-12.5c-.03.54-.07,1.05-.07,1.56,0,3.7.01,7.4,0,11.1-.04,7.67-6.55,13.15-14.25,11.91v-6.91c.75,0,1.5.03,2.25,0,2.87-.15,4.83-2.18,4.84-5.04.01-6.01,0-12.01,0-18.02,0-.52,0-1.04,0-1.66h26.78v31.73Z"/>
</svg>