<?xml version="1.0" encoding="UTF-8"?>
<svg id="Layer_1" xmlns="http://www.w3.org/2000/svg" viewBox="0 0 110.82 154.38">
  <defs>
    <style>
      .cls-1 {
        fill: #fff;
      }
    </style>
  </defs>
  <path class="cls-1" d="M17.49,64.07c-.38-.36-.75-.69-1.11-1.04-3.55-3.55-7.11-7.09-10.65-10.65-1.66-1.66-3.08-3.49-4.13-5.6-2.31-4.62-2.18-9.08.84-13.34,1.97-2.78,4.38-5.04,7.74-6.08,1.85-.57,3.7-.5,5.56-.14.38.07.75.17,1.29.3-.05-.54-.03-.94-.14-1.3-1.3-4.59-.43-8.75,2.6-12.4,2.35-2.82,5.03-5.29,8.53-6.66,3.58-1.4,7.12-1.31,10.64.23,2.22.97,4.11,2.4,5.81,4.09,4.02,4,8.01,8.03,12.02,12.05.24.25.46.52.7.8-.1.24-.14.46-.27.59-12.9,12.92-25.81,25.83-38.73,38.74-.17.17-.43.25-.72.41ZM32.05,34.03c.35-.12.41-.12.44-.15,3.31-3.27,6.61-6.55,9.92-9.81.47-.46.38-.87-.05-1.3-1.44-1.42-2.87-2.85-4.32-4.26-.32-.31-.72-.57-1.11-.79-1.23-.69-2.53-1.04-3.92-.54-3.16,1.13-5.34,3.34-6.91,6.24-.9,1.66-.61,3.23.38,4.72.42.63.92,1.2,1.44,1.75,1.37,1.41,2.77,2.78,4.13,4.15ZM16.66,49.82c2.87-2.87,5.55-5.54,8.23-8.22.52-.52.37-.97-.1-1.43-1.16-1.13-2.27-2.31-3.48-3.39-.59-.53-1.32-.93-2.03-1.3-1.04-.55-2.1-.53-3.22-.11-1.89.71-3.21,2.09-4.4,3.6-1.3,1.64-1.44,3.47-.25,5.21.85,1.24,1.91,2.33,2.93,3.44.67.73,1.44,1.38,2.31,2.2Z"/>
  <path class="cls-1" d="M79.89,38.04c-1.74,4.5-3.1,8.94-4.65,13.31-1.54,4.31-2.92,8.68-4.59,13.1-.38-.24-.61-.34-.77-.5-2.33-2.33-4.64-4.68-7-6.98-.8-.78-.93-1.47-.51-2.54,2.01-5.13,3.91-10.31,5.87-15.47,1.11-2.93,2.25-5.85,3.37-8.77.18-.46.3-.94.22-1.61-.32.25-.68.47-.97.75-4.98,4.98-9.96,9.96-14.93,14.96-.89.89-1.74,1.83-2.71,2.87-2.78-2.46-5.13-5.07-7.73-7.62.42-.48.73-.86,1.08-1.21C59.05,25.84,71.53,13.37,84.01.89c.07-.07.14-.15.21-.22.93-.89,1.07-.89,1.97,0,1.43,1.43,2.86,2.88,4.29,4.31,2.65,2.66,5.32,5.29,7.95,7.97,2.02,2.05,3.53,4.45,4.41,7.19,1.36,4.27.57,8.23-2.02,11.82-1.67,2.31-3.72,4.31-6.08,5.91-4.01,2.72-8.31,2.91-12.74,1.1-.61-.25-1.2-.52-2.11-.92ZM86.2,14.24c-.19.09-.35.12-.45.22-3.16,3.15-6.31,6.31-9.47,9.45-.52.52-.44.95.04,1.42,1.34,1.31,2.62,2.69,4.01,3.95,2.2,1.99,4.8,2.18,7.22.45,1.22-.88,2.33-1.95,3.36-3.06,2.31-2.51,2.28-5.37-.05-7.89-1.31-1.42-2.7-2.75-4.07-4.11-.17-.17-.4-.29-.59-.42Z"/>
  <path class="cls-1" d="M26.97,57.71c2.84,2.87,5.51,5.57,8.19,8.26,6.41,6.42,12.82,12.85,19.27,19.23,1,.99,2.15,1.86,3.34,2.61,2.23,1.4,4.94,1.37,6.91-.79.58-.63,1.2-1.26,1.63-1.98,1.08-1.81.73-3.64-.28-5.33-.65-1.08-1.41-2.12-2.29-3.01-5.74-5.81-11.52-11.57-17.29-17.35-3.26-3.26-6.53-6.52-9.79-9.79-.25-.25-.45-.54-.79-.94,2.51-2.52,5-5.02,7.57-7.6.35.27.69.47.96.74,8.68,8.67,17.36,17.34,26.02,26.02,1.69,1.69,3.21,3.5,4.5,5.53,3.7,5.8,3.31,12.65-1.07,18.1-1.93,2.4-4.15,4.45-6.83,5.96-4.36,2.45-8.84,2.64-13.41.54-2.76-1.27-5.09-3.11-7.22-5.23-8.54-8.51-17.06-17.05-25.58-25.57-.25-.25-.51-.5-.75-.75-.87-.92-.87-1.08.02-1.97,1.87-1.86,3.73-3.72,5.61-5.57.35-.35.75-.65,1.28-1.1Z"/>
  <path class="cls-1" d="M68.7,154.12c-1.55.35-9.21.32-10.6-.07.98-6.15,2.19-12.28,3.31-18.42,1.13-6.23,2.21-12.46,3.34-18.69,1.12-6.17,2.27-12.34,3.42-18.61.62-.05,1.11-.11,1.6-.12,4.51,0,9.03,0,13.54,0,1.44,0,1.64.2,1.89,1.58.97,5.33,1.97,10.66,2.93,15.99.5,2.79.95,5.59,1.44,8.38.43,2.39.89,4.78,1.33,7.17.37,2.04.72,4.09,1.09,6.13.47,2.54.95,5.07,1.43,7.61.5,2.64,1,5.27,1.48,7.91.06.34,0,.7,0,1.22-.43.06-.86.16-1.29.16-2.64.01-5.27.01-7.91,0-1.31,0-1.45-.16-1.65-1.45-.44-2.9-.89-5.81-1.34-8.71-.14-.88-.39-1.17-1.29-1.17-3.25-.03-6.49,0-9.74-.01-.82,0-1.19.4-1.32,1.16-.3,1.8-.62,3.59-.92,5.39-.25,1.49-.5,2.99-.75,4.55ZM80.87,133.43c-.37-2.24-.73-4.31-1.07-6.39-.34-2.1-.67-4.19-1-6.29-.34-2.15-.53-4.33-1.03-6.44-.48-2.01-.35-4.17-1.35-6.08-.37,1.33-.64,2.64-.85,3.97-1.01,6.19-2.02,12.37-3,18.57-.14.87-.38,1.77-.02,2.76,2.76,0,5.46.16,8.33-.1Z"/>
  <path class="cls-1" d="M84.25,79.41c1.32,0,2.64-.02,3.96,0,1.12.02,1.23.13,1.26,1.21.03,1.06-.06,2.14.02,3.19.07.89.24,1.8.5,2.66.69,2.19,2.31,3.25,4.53,3.42,2.36.18,4.55-1,5.22-2.89.63-1.79.5-3.59-.21-5.34-.81-2-2.31-3.44-3.96-4.72-2.96-2.29-6.02-4.47-8.96-6.79-3.18-2.5-5.58-5.6-6.56-9.61-.28-1.13-.44-2.29-.5-3.45-.22-4.15.34-8.11,3.15-11.42,1.84-2.16,4.22-3.4,6.94-4.09,2.19-.56,4.42-.68,6.65-.52,3.69.26,7.02,1.44,9.74,4.08,2.28,2.22,3.43,4.99,3.81,8.07.23,1.86.23,3.74.27,5.62.02.96-.18,1.13-1.18,1.14-2.69.02-5.38.02-8.07,0-1.13-.01-1.23-.18-1.29-1.37-.08-1.52-.07-3.04-.29-4.54-.4-2.74-2.71-3.95-4.89-3.79-2.58.19-4.19,2.01-4.32,4.63-.11,2.17.58,4.06,2.14,5.48,1.95,1.76,4.06,3.34,6.13,4.96,1.88,1.46,3.87,2.79,5.69,4.31,2.6,2.17,4.65,4.77,5.8,8.03.98,2.8,1.2,5.66.82,8.55-.35,2.58-1.18,5.02-2.79,7.14-2.15,2.84-5.01,4.56-8.42,5.34-3.52.8-7.05.74-10.52-.38-5.03-1.63-8.23-5.03-9.59-10.11-.34-1.26-.35-2.61-.44-3.92-.07-1.16-.04-2.33-.03-3.5.01-1.24.14-1.36,1.43-1.37,1.32-.01,2.64,0,3.96,0Z"/>
</svg>