<?xml version="1.0" encoding="UTF-8"?>
<svg id="Layer_1" xmlns="http://www.w3.org/2000/svg" viewBox="0 0 148.62 90.91">
  <defs>
    <style>
      .cls-1 {
        fill: #fff;
      }
    </style>
  </defs>
  <path class="cls-1" d="M17.66,90.85c-1.18-5.45-2.31-10.7-3.44-15.94-1.58,5.25-2.73,10.59-4.1,15.91h-5.12c-1.66-7.45-3.32-14.91-5-22.46h4.85c.96,5.05,1.92,10.11,2.88,15.17.07,0,.15,0,.22,0,1.15-5.04,2.3-10.07,3.46-15.17h5.61c1.1,5.07,2.19,10.11,3.28,15.15.07,0,.15,0,.22,0,.91-5.03,1.83-10.06,2.75-15.16h4.62c-1.66,7.5-3.3,14.91-4.98,22.48-1.72.09-3.42.05-5.25.03Z"/>
  <path class="cls-1" d="M136.27,6.92v15.71c-1.44.18-2.83.1-4.28.05V.31c1.04-.34,4.37-.4,6.3-.12,1.91,4.92,3.84,9.91,5.77,14.9.07-.01.13-.03.2-.04V.11c1.47-.14,2.87-.12,4.35,0v22.51h-6.15c-1.96-5.2-3.95-10.49-5.94-15.78-.09.02-.17.05-.26.07Z"/>
  <path class="cls-1" d="M83.82.1h6.23c1.94,5.02,3.87,10.02,5.8,15.01.07,0,.13,0,.2,0V.14h4.39v22.47h-6.2c-1.97-5.23-3.95-10.51-5.94-15.8-.08.02-.16.04-.25.06v15.75h-4.12c-.29-1.1-.4-19.52-.12-22.51Z"/>
  <path class="cls-1" d="M112.99,56.94h-6.12c-1.99-5.28-3.99-10.6-5.99-15.93-.1.02-.2.05-.3.07v15.86h-4.04c-.33-1.07-.46-18.87-.15-22.5,2.03-.16,4.09-.02,6.26-.07,1.97,5.08,3.91,10.1,5.85,15.13.09-.02.18-.04.26-.06v-14.97h4.23v22.47Z"/>
  <path class="cls-1" d="M55.86,43.27h5.25v-8.8c1.67-.16,3.2-.12,4.81-.03v22.51c-1.53.14-3.07.04-4.75.06v-9.93h-5.26v9.84h-4.74v-22.46h4.68v8.81Z"/>
  <path class="cls-1" d="M48.53,11.61c.47.13.7.19.92.25,1.53.45,2.42,1.46,2.58,3.04.14,1.42.2,2.84.3,4.26.08,1.11.18,2.22.28,3.51-1.5.1-2.94.07-4.59,0-.13-.7-.34-1.37-.38-2.05-.06-1.12,0-2.24-.03-3.36-.01-.61-.1-1.21-.16-1.82-.12-1.11-.78-1.76-1.84-1.94-.78-.13-1.59-.12-2.51-.18v9.29c-1.64.18-3.18.11-4.78.05V.11c.51-.03.96-.08,1.4-.08,2.03,0,4.07-.06,6.1.02,1.1.04,2.23.21,3.29.52,1.59.47,2.57,1.69,2.84,3.29.21,1.23.21,2.53.1,3.78-.16,1.75-1.12,3.01-2.84,3.61-.17.06-.32.16-.7.36ZM43.11,9.77c1.55-.03,3.06.41,4-1.11.59-.95.51-3.55-.17-4.25-1.1-1.13-2.48-.8-3.83-.78v6.15Z"/>
  <path class="cls-1" d="M93.19,45.56c-.18,2.16-.26,4.3-.57,6.41-.45,3.01-2.14,4.63-5.17,5.2-1.57.3-3.13.28-4.7-.04-2.32-.47-3.92-1.82-4.52-4.05-1.33-4.95-1.33-9.96-.03-14.92.66-2.52,2.53-3.94,5.05-4.24,1.54-.18,3.16-.11,4.69.16,2.72.47,4.26,2.32,4.65,4.98.32,2.15.4,4.35.58,6.51ZM88.35,45.51s-.06,0-.1,0c0-1.07.07-2.14-.02-3.2-.09-1.16-.22-2.34-.52-3.45-.31-1.17-1.19-1.67-2.42-1.69-1.3-.02-2.06.4-2.47,1.61-.29.85-.51,1.77-.53,2.67-.07,2.74-.07,5.49,0,8.23.02.9.25,1.81.55,2.67.42,1.24,1.18,1.7,2.42,1.68,1.2-.02,2.05-.57,2.43-1.71.19-.57.31-1.18.36-1.79.13-1.67.2-3.35.3-5.02Z"/>
  <path class="cls-1" d="M36.05,22.65h-5.32c-1.73-3.62-3.47-7.26-5.21-10.9-.06,0-.13.01-.19.02v10.86h-4.73V.13h4.66v9.07c.08.02.15.04.23.06.48-.81.96-1.63,1.44-2.44,1.1-1.88,2.25-3.74,3.28-5.66.48-.88,1.07-1.22,2.06-1.14,1.15.09,2.31.02,3.76.02-2.08,3.6-4.24,6.82-6.28,10.21,2.05,4.04,4.11,8.1,6.29,12.4Z"/>
  <path class="cls-1" d="M1.89.12h4.7c.03.52.08.97.08,1.41,0,4.38,0,8.75,0,13.13,0,.86,0,1.74.13,2.59.23,1.56,1.21,2.46,2.6,2.52,1.45.06,2.52-.66,2.92-2.16.22-.82.27-1.7.28-2.56.03-4.43.01-8.85.01-13.28,0-.5,0-1.01,0-1.69.81-.02,1.56-.03,2.31-.04.7,0,1.41,0,2.2,0,.05.51.12.9.12,1.29,0,4.63.03,9.26-.01,13.89,0,1.06-.13,2.14-.36,3.17-.53,2.36-2.08,3.79-4.38,4.39-1.9.5-3.83.53-5.74.05-2.86-.7-4.49-2.79-4.81-6.14-.05-.56-.05-1.12-.05-1.68,0-4.48,0-8.95,0-13.43,0-.45,0-.9,0-1.46Z"/>
  <path class="cls-1" d="M73.18,22.56c-1.69.33-3.24.08-4.9.18-.45-1.69-.87-3.3-1.31-4.97h-6.43c-.42,1.57-.86,3.22-1.31,4.86h-4.64c2.11-7.6,4.17-15.06,6.24-22.5h6.26c2.03,7.49,4.05,14.91,6.09,22.44ZM61.46,14.2h4.53c-.75-3.13-1.47-6.16-2.19-9.2-.09,0-.17-.01-.26-.02-.69,3.04-1.37,6.08-2.08,9.21Z"/>
  <path class="cls-1" d="M115.62,22.62h-4.64c2.09-7.55,4.15-15,6.24-22.51h6.26c2.03,7.46,4.06,14.92,6.12,22.51h-4.94c-.42-1.55-.85-3.15-1.3-4.85h-6.43c-.42,1.57-.85,3.17-1.3,4.85ZM122.24,14.21c-.19-1.97-1.86-8.57-2.33-9.24-.68,3.05-1.36,6.09-2.06,9.24h4.39Z"/>
  <path class="cls-1" d="M18.19,56.95h-4.65c2.09-7.53,4.15-14.98,6.23-22.49h6.29c2.02,7.42,4.04,14.85,6.13,22.51-1.7.1-3.29.04-4.95.04-.45-1.68-.87-3.29-1.32-4.97h-6.43c-.43,1.62-.85,3.18-1.3,4.91ZM24.93,48.44c-.74-3.15-1.46-6.2-2.19-9.25-.08.01-.17.02-.25.03-.68,3.04-1.36,6.07-2.06,9.22h4.49Z"/>
  <path class="cls-1" d="M60.51,68.34h4.59v9.32c.36-.48.51-.65.63-.85,1.49-2.54,3.01-5.06,4.45-7.62.41-.73.89-.98,1.7-.95,1.26.06,2.53.01,4.05.01-2.17,3.5-4.21,6.79-6.29,10.13,2.06,4.07,4.12,8.13,6.29,12.41-1.83.14-3.52.06-5.28.05-1.76-3.67-3.5-7.31-5.24-10.95-.07.01-.14.03-.21.04v10.81h-4.67v-22.42Z"/>
  <path class="cls-1" d="M38.38,50.12c.06.67.09,1.28.19,1.87.23,1.37,1.18,2.08,2.61,1.99,1.4-.08,2.2-.94,2.3-2.34.09-1.27-.49-2.15-1.5-2.79-1.29-.81-2.6-1.59-3.89-2.4-.56-.35-1.1-.73-1.63-1.12-2.32-1.73-2.86-4.12-2.36-6.79.35-1.88,1.52-3.16,3.33-3.86,2.16-.85,4.37-.95,6.59-.43,2.39.56,3.71,2.13,3.96,4.62.06.55,0,1.11,0,1.86-1.47.11-2.91.06-4.45.02-.08-.49-.13-.92-.22-1.36-.2-1.02-.65-1.82-1.77-2.04-.93-.18-1.74.08-2.28.86-.63.91-.7,1.94-.11,2.87.34.53.88.98,1.41,1.34,1.51,1.02,3.06,2,4.62,2.97,2.86,1.78,3.69,4.25,2.79,7.81-.52,2.06-2.03,3.27-4.02,3.78-1.99.51-4.02.58-6.04.12-2.54-.58-4.07-2.32-4.22-4.9-.04-.65,0-1.31,0-2.07h4.71Z"/>
  <path class="cls-1" d="M34.93,77.31h6.86v3.46h-6.87v6.51h7.69v3.31c-.97.34-10.35.45-12.46.11v-22.19c1.03-.34,10.61-.4,12.25-.06v3.07c-1.23.35-2.49.12-3.74.16-1.21.04-2.42,0-3.73,0v5.61Z"/>
  <path class="cls-1" d="M50.17,87.27h7.59v3.58c-4.08.06-8.17.01-12.36.03v-22.53h12.23v3.3c-2.45.14-4.92-.02-7.45.09v5.51h6.8v3.49c-2.21.17-4.48-.03-6.8.12v6.41Z"/>
  <path class="cls-1" d="M1.97,34.45h11.56v3.32h-6.73v5.83h6.48v3.45h-6.52c-.16,3.34.01,6.52-.11,9.9-1.55.12-3.08.11-4.68-.01v-22.49Z"/>
  <path class="cls-1" d="M108.66,22.62h-4.59V.09c1.5-.1,2.99-.09,4.59,0v22.53Z"/>
  <path class="cls-1" d="M74.19,56.93h-4.63v-22.47h4.63v22.47Z"/>
  <path class="cls-1" d="M75.59.12h4.51v22.51h-4.51V.12Z"/>
</svg>