<?xml version="1.0" encoding="UTF-8"?>
<svg id="Layer_1" xmlns="http://www.w3.org/2000/svg" viewBox="0 0 170.29 61.57">
  <defs>
    <style>
      .cls-1 {
        fill: #fff;
      }
    </style>
  </defs>
  <path class="cls-1" d="M27.66,42.82c4.84-14.13,9.67-28.27,14.51-42.41h127.08c-1.43,4.02-2.85,7.99-4.28,12.01H53.12c-5.87,16.05-11.72,32.05-17.57,48.06h-16.22C12.89,40.32,6.45,20.18,0,0h14.91c4.21,14.27,8.41,28.53,12.62,42.8.05,0,.09.01.14.02Z"/>
  <path class="cls-1" d="M87.44,15.71c.22,0,.41,0,.6,0,4.26,0,8.52,0,12.79,0,.36,0,.54.11.71.43,3.3,6.18,6.61,12.36,9.91,18.53.8,1.5,1.6,3,2.4,4.5.08.15.16.29.24.42.05,0,.07,0,.09,0,.01,0,.02-.03.02-.04,0-.03.02-.07.02-.1,0-7.87,0-15.74.02-23.61,0-.01.02-.03.05-.08h12.75v44.73h-13.21c-4.48-8.12-8.97-16.25-13.46-24.39-.04.01-.08.02-.12.03v24.36h-12.81V15.71Z"/>
  <path class="cls-1" d="M168.43,29.23h-12.81c0-.19,0-.36,0-.53.04-1.13-.42-2.03-1.28-2.74-.74-.62-1.59-1-2.54-1.2-1.45-.3-2.9-.27-4.33.14-.56.16-1.09.41-1.53.81-.94.85-1.06,2.15-.28,3.14.37.46.83.81,1.35,1.1,1.11.61,2.3,1.01,3.51,1.33,2.39.63,4.79,1.21,7.18,1.86,2.28.61,4.5,1.38,6.55,2.56,2,1.16,3.67,2.65,4.76,4.73.65,1.25,1.04,2.58,1.19,3.97.24,2.25.06,4.46-.63,6.62-.93,2.89-2.71,5.14-5.2,6.83-2.41,1.64-5.11,2.56-7.95,3.12-1.91.38-3.84.55-5.78.58-3.17.06-6.26-.39-9.26-1.42-2.79-.96-5.28-2.39-7.26-4.62-1.79-2.02-2.84-4.4-3.27-7.05-.16-.98-.22-1.97-.32-2.95.42-.13,12.97-.15,13.61-.04.03.36.04.74.11,1.11.11.59.22,1.18.41,1.75.43,1.26,1.32,2.1,2.53,2.62,1.03.44,2.11.61,3.21.66,1.37.06,2.71-.05,3.99-.6,1.5-.64,2.34-1.89,2.33-3.45,0-.91-.35-1.65-1.13-2.13-.58-.36-1.19-.7-1.83-.93-1.6-.56-3.22-1.08-4.84-1.58-2.84-.87-5.73-1.56-8.49-2.68-1.68-.68-3.27-1.51-4.65-2.71-2.04-1.76-3.14-3.99-3.4-6.66-.21-2.15-.01-4.26.66-6.31.91-2.77,2.61-4.96,5-6.62,2.29-1.58,4.84-2.48,7.56-2.96,2.31-.41,4.65-.47,6.98-.29,2.27.17,4.49.56,6.64,1.35,2.14.79,4.05,1.94,5.63,3.6.97,1.02,1.72,2.18,2.29,3.46.85,1.92,1.23,3.95,1.3,6.1Z"/>
  <path class="cls-1" d="M85.15,60.47h-14.08c-.61-2.12-1.23-4.22-1.84-6.34h-13.97c-.65,2.11-1.31,4.22-1.97,6.35h-13.65c5.41-14.94,10.8-29.84,16.2-44.74h13.3c5.32,14.88,10.65,29.77,16.01,44.74ZM62.58,30.75s-.08-.01-.11-.02c-1.41,4.57-2.81,9.13-4.23,13.74h8.27c-1.31-4.6-2.62-9.16-3.92-13.72Z"/>
</svg>