<?xml version="1.0" encoding="UTF-8"?>
<svg id="Layer_1" data-name="Layer 1" xmlns="http://www.w3.org/2000/svg" viewBox="0 0 245.21 60.9">
  <defs>
    <style>
      .cls-1 {
        fill: #fff;
      }
    </style>
  </defs>
  <path class="cls-1" d="m0,.02c4.32,0,8.64.02,12.97.02,2.03,0,3.95.5,5.77,1.37,2.2,1.06,3.51,2.85,4.05,5.2.2.89.3,1.82.3,2.73.02,6.53.01,13.07.01,19.61,0,1.94-.41,3.78-1.45,5.44-1.48,2.36-3.72,3.51-6.39,3.92-.97.15-1.97.16-2.95.18-1.74.03-3.47,0-5.21,0h-1.11c-.03.48-.07.88-.07,1.27,0,6.6,0,13.21,0,19.81v1.16H0V.02Zm5.98,34.96c.1.08.13.12.15.12,2.45.01,4.91.13,7.35-.01,1.56-.09,3.2-1.09,3.48-2.92.18-1.21.34-2.43.35-3.65.03-6.33.03-12.66,0-19,0-.91-.13-1.85-.39-2.71-.55-1.84-2.15-3.63-4.68-3.5-1.73.09-3.47.01-5.21.02-.33,0-.66.03-1.05.05v31.6Z"/>
  <path class="cls-1" d="m245.21,3.29h-7.97c0,9.64,0,19.16,0,28.68,0,9.53,0,19.06,0,28.57-.73.28-4.27.34-5.72.11-.02-.37-.06-.76-.06-1.15,0-7.29,0-14.57,0-21.86,0-10.96,0-21.93,0-32.89,0-.44,0-.87,0-1.33-.98-.26-1.86-.11-2.73-.14-.85-.03-1.7,0-2.55,0h-2.68V.04h1.19c6.47,0,12.94,0,19.41,0,.37,0,.75-.01,1.12-.02v3.27Z"/>
  <path class="cls-1" d="m172.09,30.37c0,6.98,0,13.96,0,20.94,0,1.86-.3,3.65-1.05,5.36-.85,1.95-2.34,3.11-4.36,3.67-1.96.55-3.97.51-5.98.52-2.25.02-4.49.01-6.74-.01-2.02-.02-4-.23-5.86-1.13-2.39-1.17-3.89-3.04-4.31-5.68-.17-1.07-.27-2.16-.27-3.25-.02-13.58-.02-27.16,0-40.75,0-1.25.11-2.53.42-3.74.72-2.84,2.68-4.59,5.41-5.47,1.68-.53,3.39-.87,5.18-.82,2.69.08,5.38-.09,8.06.07,2.02.12,4.02.62,5.78,1.73,2.23,1.41,3.34,3.51,3.61,6.09.08.78.08,1.56.08,2.35,0,6.71,0,13.41,0,20.12m-22.76.31h0c0,6.81,0,13.62,0,20.43,0,.41-.04.83.03,1.22.18.89.29,1.84.67,2.65.85,1.83,2.26,2.91,4.41,2.85,2.28-.06,4.56-.06,6.84-.01,2.02.04,3.33-.96,4.25-2.63.71-1.3.8-2.72.8-4.16,0-10.32,0-20.64,0-30.95,0-3.34.02-6.67,0-10.01,0-1.43-.1-2.86-.81-4.16-.8-1.48-1.89-2.61-3.71-2.62-2.69-.03-5.38-.02-8.07,0-.43,0-.87.13-1.27.29-1.21.48-1.96,1.44-2.48,2.58-.49,1.06-.67,2.2-.67,3.37,0,7.05,0,14.1,0,21.15"/>
  <path class="cls-1" d="m55.65,30.57c0,7.08,0,14.17,0,21.25,0,1.3-.1,2.58-.61,3.8-1.03,2.48-2.92,3.92-5.43,4.7-1.32.41-2.68.5-4.03.51-2.83.04-5.65.04-8.48,0-2.27-.03-4.46-.41-6.41-1.7-1.87-1.23-2.95-2.98-3.32-5.16-.15-.9-.21-1.83-.21-2.74-.01-13.86-.02-27.72,0-41.58,0-1.11.09-2.26.37-3.33.74-2.84,2.66-4.62,5.41-5.48,1.64-.52,3.32-.87,5.09-.82,2.76.07,5.53-.13,8.27.08,2.76.21,5.42.94,7.38,3.17,1.14,1.3,1.75,2.83,1.89,4.53.08,1.01.09,2.04.09,3.06,0,6.57,0,13.14,0,19.72m-22.75-.01c0,6.91,0,13.83.01,20.74,0,.81.07,1.64.26,2.43.53,2.16,2.1,4.11,4.93,4,2.28-.09,4.56-.05,6.84,0,1.91.03,3.24-.85,4.15-2.46.75-1.32.89-2.77.89-4.24,0-13.52,0-27.04-.01-40.56,0-.98-.1-1.98-.29-2.94-.44-2.23-2.15-4.31-4.99-4.19-2.21.1-4.43.02-6.64.02-2.24,0-3.7,1-4.57,3.08-.43,1.02-.58,2.09-.58,3.19,0,6.98,0,13.96,0,20.94"/>
  <path class="cls-1" d="m84.54.09h5.77v1.15c0,16.72,0,33.45,0,50.17,0,1.71-.13,3.4-.7,5.03-.73,2.08-2.1,3.4-4.28,3.97-1.14.3-2.29.37-3.44.37-4.02,0-8.04.08-12.05-.11-2.72-.13-5.05-1.31-6.65-3.64-1.04-1.51-1.39-3.24-1.42-5.03-.04-3-.02-5.99-.02-8.99,0-13.9,0-27.79,0-41.69V.15c1-.21,1.95-.08,2.88-.1.92-.02,1.84,0,2.76,0,.29.43.17.89.17,1.31,0,11.03,0,22.07,0,33.1,0,5.79,0,11.58,0,17.37,0,1.21.14,2.4.72,3.46.36.68.87,1.29,1.41,1.85.48.5,1.13.73,1.85.73,2.76,0,5.52,0,8.27,0,.71,0,1.34-.25,1.91-.63,1.58-1.07,2.52-2.56,2.72-4.46.08-.78.09-1.56.09-2.35,0-16.31,0-32.63,0-48.94V.09"/>
  <path class="cls-1" d="m199.07.09h5.92c-.93,6.82-2,13.56-2.97,20.31-.97,6.73-2.01,13.45-3.01,20.18-1,6.75-2,13.51-3,20.29h-9.02c-3.6-20.22-7.2-40.45-10.82-60.76h5.9c3.02,19.72,6.04,39.44,9.06,59.16.08,0,.16,0,.24,0L199.07.09Z"/>
  <path class="cls-1" d="m113.51.14v3.09c-.47.02-.83.05-1.2.05-1.94,0-3.88,0-5.82.02-1.71.02-3.15.72-4.47,1.75-1.66,1.3-1.95,3-1.6,4.95.38,2.18,1.38,4.11,2.34,6.06,4.08,8.3,8.14,16.6,12.19,24.91,1.07,2.21,1.92,4.51,2.41,6.91.42,2.08.57,4.19,0,6.28-.92,3.33-3.18,5.28-6.45,6.17-1.35.37-2.74.55-4.13.56-4.05.02-8.1.02-12.16.02-.17,0-.33-.02-.56-.04-.16-.97,0-1.9.14-2.92.3-.02.59-.06.88-.06,3.06,0,6.13-.03,9.19.02,1.31.02,2.51-.27,3.57-.99.87-.58,1.71-1.24,2.49-1.93,1.45-1.29,1.81-2.97,1.54-4.83-.37-2.55-1.26-4.94-2.37-7.24-2.57-5.33-5.17-10.64-7.77-15.95-1.85-3.78-3.73-7.55-5.57-11.35-.91-1.88-1.54-3.86-1.66-5.96-.16-2.81.69-5.24,2.91-7.07,1.1-.9,2.38-1.45,3.75-1.77.79-.18,1.61-.25,2.4-.42,3.26-.7,6.56-.22,9.85-.31.02,0,.05.04.08.06"/>
  <path class="cls-1" d="m126.9,60.66V3.34c-2.69-.19-5.3.02-7.97-.12V.1h21.63c.16,1.01.07,2.01.06,3.11-.91.11-1.75.04-2.59.05-.89.01-1.77,0-2.66,0h-2.68c-.08,4.85-.03,9.6-.04,14.36-.01,4.8,0,9.6,0,14.41v28.54c-.85.23-4.33.28-5.76.09"/>
  <path class="cls-1" d="m217.11,60.68c-.74.2-4.45.23-5.45.04-.02-.02-.05-.04-.07-.07-.02-.03-.04-.06-.05-.09-.02-.1-.06-.2-.06-.3,0-19.85,0-39.7,0-59.54,0-.17.03-.34.06-.61.9-.13,1.8-.04,2.71-.06.92-.01,1.83,0,2.7,0,.07.08.1.1.12.13.02.03.06.05.06.08.02.95.06,1.9.06,2.85,0,19.13,0,38.26,0,57.4,0,.06-.06.12-.09.18"/>
</svg>